<svg width="508" height="454" viewBox="0 0 508 454" fill="none" xmlns="http://www.w3.org/2000/svg">
<path d="M225.067 433.218C222.255 433.218 219.584 432.651 217.573 431.485L3.14208 307.312C1.11544 306.13 0 304.491 0 302.663C0 300.505 1.58675 298.346 4.33607 296.754L183.78 196.864C188.839 193.933 196.537 193.618 200.952 196.171L415.399 320.36C417.425 321.526 418.541 323.18 418.541 325.008C418.541 327.167 416.954 329.326 414.205 330.917L234.761 430.807C231.996 432.399 228.445 433.218 225.067 433.218ZM218.108 430.571C222.224 432.95 229.45 432.635 234.211 429.878L413.655 329.988C416.074 328.585 417.457 326.773 417.457 324.992C417.457 323.558 416.53 322.251 414.849 321.274L200.402 197.085C196.286 194.705 189.059 195.005 184.299 197.778L4.87023 297.668C2.45082 299.071 1.06831 300.883 1.06831 302.663C1.06831 304.082 1.99522 305.405 3.67623 306.382L218.108 430.571Z" fill="#42E8E0"/>
<path d="M418.007 306.698H405.077L200.7 188.339C196.443 185.865 188.981 186.181 184.063 189.033L13.1025 284.006H0.53418V294.359H0.54989C0.54989 295.935 1.4768 297.432 3.42489 298.551L217.872 422.739C222.129 425.213 229.592 424.898 234.509 422.046L413.953 322.156C416.719 320.565 418.101 318.5 418.022 316.562V306.698H418.007Z" fill="url(#paint0_linear_559_2530)"/>
<path d="M217.856 412.434L3.40921 288.261C-0.848306 285.787 -0.314153 281.485 4.6032 278.633L184.047 178.743C188.965 175.891 196.427 175.575 200.685 178.049L415.132 302.238C419.389 304.712 418.855 309.014 413.938 311.866L234.494 411.756C229.56 414.592 222.114 414.908 217.856 412.434Z" fill="url(#paint1_linear_559_2530)"/>
<path d="M218.375 403.546L18.7584 287.946C14.7837 285.645 15.2864 281.627 19.8738 278.979L184.676 187.583C189.263 184.936 196.192 184.636 200.166 186.937L399.799 302.538C403.773 304.838 403.271 308.857 398.683 311.504L233.881 402.9C229.293 405.563 222.349 405.847 218.375 403.546Z" fill="url(#paint2_linear_559_2530)"/>
<path d="M413.938 310.669L234.493 410.558C229.576 413.411 222.114 413.726 217.856 411.252L3.40912 287.063C1.71239 286.086 0.785478 284.81 0.581243 283.455C0.298456 285.235 1.22537 286.984 3.40912 288.245L217.856 412.434C222.114 414.908 229.576 414.592 234.493 411.74L413.938 311.85C416.907 310.133 418.274 307.879 417.96 305.815C417.677 307.533 416.341 309.282 413.938 310.669Z" fill="white"/>
<path opacity="0.1" d="M195.154 312.543H398.966L403.192 295.304L200.7 178.033C196.443 175.559 188.98 175.874 184.063 178.727L68.0259 245.919L169.704 305.61C177.417 310.164 186.2 312.543 195.154 312.543Z" fill="#180D5B"/>
<path d="M185.713 3.0096L190.583 0.204685V0.236201C191.243 -0.110475 192.06 -0.0789587 192.971 0.456812L401.935 121.651C404.025 122.865 405.721 126.111 405.721 128.9L405.486 306.54C405.486 308.084 404.952 309.14 404.15 309.597L404.166 309.613L399.312 312.417L398.966 294.784L204.016 181.689C201.926 180.476 200.229 177.23 200.229 174.441L200.449 11.3456C200.119 12.3698 199.884 13.1262 199.837 13.142C199.727 13.2208 185.713 3.0096 185.713 3.0096Z" fill="url(#paint3_linear_559_2530)"/>
<path d="M405.627 127.75L374.882 139.742L368.535 136.07L402.611 122.14C404.103 123.369 405.297 125.575 405.627 127.75Z" fill="url(#paint4_linear_559_2530)"/>
<path d="M187.975 190.955L396.939 312.165C399.029 313.379 400.725 312.087 400.725 309.298L400.961 131.658C400.961 128.869 399.264 125.607 397.175 124.409L188.211 3.19886C186.121 1.98549 184.425 3.27765 184.425 6.06681L184.189 183.706C184.189 186.496 185.886 189.742 187.975 190.955Z" fill="url(#paint5_linear_559_2530)"/>
<path d="M397.175 124.409L188.211 3.19855C186.97 2.47368 185.87 2.66278 185.179 3.49795C185.76 3.34037 186.451 3.43492 187.205 3.87614L396.169 125.086C398.259 126.3 399.956 129.546 399.956 132.335L399.72 309.975C399.72 311.109 399.437 311.976 398.966 312.543C400.018 312.26 400.725 311.094 400.725 309.297L400.961 131.658C400.961 128.868 399.264 125.622 397.175 124.409Z" fill="white"/>
<path d="M187.347 187.11L397.489 308.998L397.74 130.933L187.614 9.04492L187.347 187.11Z" fill="url(#paint6_linear_559_2530)"/>
<path d="M142.918 192.767C142.918 192.767 145.777 193.256 146.829 192.72C147.882 192.184 150.616 191.822 153.789 192.956C156.963 194.091 156.696 193.918 157.952 194.044C159.209 194.17 161.236 194.296 161.896 194.721C162.556 195.147 163.812 195.935 162.65 197.605C161.487 199.275 157.12 197.7 156.413 197.573C155.706 197.447 154.92 198.708 155.282 199.843C155.643 200.977 162.21 208.194 163.231 208.903C164.268 209.628 168.698 212.607 168.903 213.773C169.091 214.955 168.84 215.112 168.84 215.112C168.84 215.112 170.128 216.294 169.672 217.381C169.217 218.469 167.19 216.798 166.829 217.05C166.829 217.05 167.159 218.264 166.672 218.484C166.185 218.705 163.294 217.586 162.948 217.239C162.948 217.239 162.618 218.169 160.969 217.208C159.319 216.247 153.019 212.654 152.281 211.976C151.543 211.299 149.06 208.998 148.039 208.383C147.018 207.769 145.258 205.673 144.379 204.854C143.499 204.034 139.587 202.049 138.094 201.749C136.602 201.45 142.918 192.767 142.918 192.767Z" fill="#FCD1C5"/>
<path d="M147.945 205.783C146.499 203.136 141.645 201.072 141.645 201.072C141.975 198.913 145.07 192.956 145.07 192.956C144.001 192.941 142.933 192.751 142.933 192.751C142.933 192.751 136.618 201.434 138.11 201.718C139.603 202.001 143.514 203.987 144.394 204.822C145.274 205.641 147.034 207.737 148.055 208.352C149.076 208.966 151.558 211.267 152.297 211.945C153.035 212.622 159.335 216.215 160.984 217.176C162.634 218.138 162.964 217.208 162.964 217.208C163.31 217.555 166.185 218.673 166.687 218.453C167.174 218.232 166.844 217.019 166.844 217.019C166.844 217.019 164.818 215.868 162.728 215.128C160.639 214.419 149.39 208.446 147.945 205.783Z" fill="#E2B1A6"/>
<path d="M138.189 183.202C138.189 183.202 138.801 186.448 138.581 189.08C138.362 191.727 133.067 188.26 133.271 187.803C133.476 187.346 135.785 183.36 135.785 183.36L138.189 183.202Z" fill="#FCD1C5"/>
<path d="M115.142 103.498C115.142 103.498 118.079 103.357 121.646 109.234C125.086 114.891 131.119 135.14 134.293 142.909C134.575 143.602 134.78 144.312 134.905 145.052C135.942 151.103 140.765 179.609 140.985 183.029C140.985 183.029 137.309 185.487 134.937 186.086L129.737 184.353L124.615 132.698L116.336 105.421L115.142 103.498Z" fill="#24126A"/>
<path d="M98.5357 273.479C98.5357 273.479 97.5459 278.254 98.0801 279.184C98.6299 280.114 104.82 287.126 105.48 288.071C106.14 289.017 109.329 294.769 115.204 296.171C121.08 297.573 125.086 297.211 125.872 294.438C126.673 291.68 123.217 287.094 121.614 285.613C120.028 284.132 113.319 276.127 112.078 274.961C110.853 273.795 109.077 273.621 109.077 273.621L101.426 274.961L98.5357 273.479Z" fill="#160A5B"/>
<path d="M122.29 259.187C122.29 259.187 128.15 261.456 131.213 262.244C134.277 263.016 141.582 268.484 141.504 271.242C141.425 274 137.827 275.906 134.167 275.623C130.522 275.355 126.17 273.007 125.463 272.392C124.756 271.778 122.258 270.391 119.258 269.461C116.273 268.531 111.45 268.075 110.664 266.467C109.879 264.876 109.753 261.566 109.753 261.566L122.29 259.187Z" fill="#160A5B"/>
<path d="M109.046 258.194C109.093 257.911 109.297 257.438 109.328 257.249C109.596 255.799 109.344 249.89 109.344 249.89L108.056 251.655C108.056 251.655 108.967 257.564 110.727 266.814C111.167 269.162 112.392 271.589 112.581 272.912C113.115 276.867 110.774 277.64 110.774 277.64C106.014 281.232 101.945 279.058 100.484 277.907C99.0224 276.757 98.5197 274.898 96.4931 268.232C94.4821 261.614 92.7226 247.621 93.1625 244.296C93.5395 241.365 94.6078 233.171 94.5607 227.545C94.5135 221.951 90.2246 204.066 90.2246 204.066L107.977 200.615L120.09 194.327L129.328 195.73C129.328 195.73 130.49 191.806 131.716 204.003C132.957 216.373 125.479 238.26 125.479 238.26C123.515 249.102 123.012 261.566 121.881 263.253C120.766 264.939 116.335 268.925 112.251 265.837C111.496 265.27 110.648 264.671 110.193 264.056L109.046 258.194Z" fill="url(#paint7_linear_559_2530)"/>
<path d="M108.056 251.639C108.056 251.639 113.9 235.708 116.665 220.265C119.383 205.09 124.096 202.947 126.06 200.221C126.06 200.221 129.014 201.576 130.569 201.844C130.758 201.875 130.931 201.891 131.072 201.891C132.376 201.844 124.552 211.629 123.138 214.135C121.724 216.656 113.633 238.15 113.068 241.128C112.502 244.107 111.921 264.844 112.581 266.042C113.241 267.239 110.334 265.144 110.334 265.144C110.334 265.144 108.559 260.558 108.056 251.639Z" fill="#160A5B"/>
<path d="M123.201 194.784L120.074 194.312L107.962 200.599L90.209 204.05C90.209 204.05 94.4979 221.935 94.5451 227.529C94.5922 233.155 93.5396 241.349 93.1468 244.28C92.7069 247.573 94.4665 261.598 96.4774 268.216C97.3572 271.1 97.9542 273.086 98.4569 274.504C99.2582 278.27 102.102 278.869 102.102 278.869C102.102 278.869 95.1421 257.249 95.7548 244.611C96.3518 232.146 98.1427 221.778 97.8128 219.351C97.8128 219.351 118.016 213.111 121.818 200.032C122.415 198.03 122.871 196.281 123.201 194.784Z" fill="#160A5B"/>
<path d="M88.1984 106.272C88.1984 106.272 86.7687 107.485 86.4545 108.714C86.1403 109.959 84.3651 114.34 84.3651 114.34C84.3651 114.34 75.9129 125.591 74.3889 129.026C72.865 132.493 72.3623 135.077 72.3623 135.077L94.7339 162.717C94.7339 162.717 86.8944 189.805 89.0939 199.701C91.309 209.691 94.1841 213.426 97.7032 214.497C101.222 215.585 120.059 207.816 121.347 197.92C122.636 188.134 122.117 186.889 122.117 186.889C122.117 186.889 130.899 189.237 131.449 187C131.999 184.762 130.349 168.61 129.894 166.294C129.438 163.993 128.087 138.512 128.087 138.512C128.087 138.512 122.73 115.002 122.431 113.851C122.133 112.701 118.802 103.861 114.513 103.372C110.24 102.884 104.899 109.707 104.899 109.707L88.1984 106.272Z" fill="#453C9E"/>
<path d="M89.2035 105.421C89.2035 105.421 88.3237 106.02 88.1352 106.997C87.9467 107.974 87.224 109.912 88.8107 111.929C90.4132 113.946 103.296 124.504 108.512 133.376C113.79 142.342 120.31 152.332 120.86 154.412C120.86 154.412 123.232 140.23 121.096 133.691C118.959 127.214 112.125 114.009 110.695 113.032C109.25 112.055 100.389 111.204 100.389 111.204L89.2035 105.421Z" fill="#F0F6FF"/>
<path d="M102.51 119.697C102.51 119.697 101.819 120.848 101.599 121.746C101.599 121.746 97.8601 119.823 96.2891 119.13L102.039 123.132C102.039 123.132 102.385 121.037 102.667 120.721C102.667 120.721 105.951 123.243 106.407 124.346C106.878 125.465 112.926 140.734 112.926 140.734L116.116 145.95L116.933 144.689L111.717 130.46C111.717 130.46 108.779 125.985 108.747 125.874C108.7 125.764 106.721 120.958 106.721 120.958L102.51 119.697Z" fill="#C4CCD6"/>
<path d="M102.51 119.697C102.51 119.697 104.411 116.12 108.103 116.262C108.103 116.262 109.171 120.674 109.454 122.455C109.454 122.455 107.066 123.479 106.108 122.644C105.165 121.824 102.51 119.697 102.51 119.697Z" fill="#160A5B"/>
<path d="M108.905 121.509C108.905 121.509 118.394 133.233 121.709 147.4L121.017 154.711L116.022 145.792C116.022 145.792 107.852 125.307 105.951 121.557C104.066 117.806 108.905 121.509 108.905 121.509Z" fill="#160A5B"/>
<path d="M93.194 168.563C92.5656 171.069 91.8115 174.189 91.1045 177.529C91.1045 177.545 105.15 195.919 118.849 203.404C120.184 201.686 121.096 199.858 121.363 197.936C122.038 192.767 122.211 189.978 122.227 188.513L106.281 176.395L93.194 168.563Z" fill="#24126A"/>
<path d="M92.2358 141.554C92.2358 141.554 96.2891 147.101 97.3731 147.605C98.4572 148.109 107.239 163.552 109.015 166.451C110.806 169.367 115.534 173.464 115.534 173.464L111.057 173.905L93.5712 150.378L92.2358 141.554Z" fill="#24126A"/>
<path d="M94.718 146.454C92.9585 142.01 90.1934 138.102 86.6429 135.124C82.6053 131.736 77.3109 128.427 74.5144 131.405C69.5814 136.637 71.6866 146.47 78.5363 155.688C85.4646 165.001 96.3833 178.254 98.9598 180.491C101.426 182.635 122.604 198.613 134.748 204.57C135.644 205.011 136.712 204.68 137.246 203.782C138.927 201.008 142.383 195.225 143.625 192.846C143.876 192.357 143.719 191.743 143.279 191.459C138.849 188.607 116.697 174.314 110.13 169.871C109.124 169.193 108.308 168.263 107.742 167.144C105.825 163.394 100.892 154.16 96.5561 149.448C95.7863 148.613 95.1893 147.605 94.7652 146.533C94.7494 146.517 94.7337 146.486 94.718 146.454Z" fill="#4846A5"/>
<path d="M111.01 108.383L118.755 116.247L116.76 116.94L119.321 118.421C119.321 118.421 125.526 133.108 124.175 149.748C124.175 149.748 127.254 136.669 120.577 118.122L118.519 117.066L119.918 116.625L111.01 108.383Z" fill="#24126A"/>
<path d="M89.0467 104.097C89.1881 104.397 89.2667 104.728 89.2352 105.074C89.1724 105.768 89.0938 106.949 89.1567 107.454C89.2509 108.194 94.1055 116.404 104.034 116.467C104.034 116.467 105.228 114.687 105.464 114.34C105.464 114.34 109.486 114.151 111.151 112.685C112.817 111.22 111.795 108.651 111.795 108.651L112.031 105.578C112.062 105.2 112.22 104.854 112.487 104.601C112.848 104.271 113.304 103.766 113.398 103.404C113.492 103.041 113.256 102.395 113.052 101.97C112.927 101.67 112.864 101.355 112.911 101.024C113.005 100.252 113.084 98.5977 112.534 96.5334C112.377 95.9346 112.377 95.32 112.518 94.7212C112.769 93.7442 113.115 92.2945 113.162 91.7745C113.225 90.9708 111.858 88.8277 111.795 87.9768C111.733 87.1259 110.57 84.2737 110.57 84.2737C110.57 84.2737 103.186 70.5327 91.2776 76.4735C79.2748 82.4615 85.5276 95.3358 87.0201 98.9759C87.0201 98.9759 88.4497 101.938 88.7011 102.6C88.9053 103.152 88.7482 103.451 89.0467 104.097Z" fill="#FCD1C5"/>
<path d="M111.623 85.7074C111.733 86.6844 111.356 87.6457 110.633 88.2918C109.188 89.5681 106.313 91.6797 102.511 92.184C99.8398 92.5464 98.3788 92.6725 97.5775 92.7197C97.0434 92.7513 96.6192 93.1767 96.5878 93.7283C96.5406 94.721 96.4307 96.2495 96.2893 97.2738C96.2264 97.6835 96.1165 98.0775 95.9436 98.4556L95.0953 100.252C94.891 100.693 94.4197 100.977 93.9484 100.93L93.7599 100.914C93.2257 100.867 92.7859 100.457 92.723 99.9054L92.6916 99.8266C92.5031 98.4241 91.6861 97.1635 90.4293 96.5647C89.8009 96.2653 89.0782 96.1235 88.3555 96.4229C86.2975 97.2738 87.1458 99.2751 87.1458 99.2751C87.1458 99.2751 84.6479 96.2653 83.5324 92.2785C82.417 88.3075 82.6684 81.1061 87.8528 77.34C93.0215 73.5896 99.7613 72.0768 105.511 76.1424C110.272 79.483 111.387 83.5328 111.623 85.7074Z" fill="#AA8383"/>
<path d="M91.9687 102.553C91.7016 102.237 92.0472 104.979 89.2193 105.058C89.1565 105.751 89.0779 106.933 89.1408 107.438C89.235 108.178 94.0896 116.388 104.019 116.451C104.019 116.451 105.213 114.67 105.448 114.324C105.448 114.324 96.3361 109.88 94.718 107.863C93.1312 105.862 92.2357 102.868 91.9687 102.553Z" fill="#E2B1A6"/>
<path d="M108.119 116.262C108.119 116.262 110.821 116.577 112.078 117.255C112.078 117.255 112.44 115.852 111.717 114.324C111.717 114.324 112.518 114.97 112.518 118.216C112.518 118.216 108.543 116.924 108.261 116.845L108.119 116.262Z" fill="#C4CCD6"/>
<path d="M138.299 201.607C138.299 201.607 115.314 188.355 107.522 183.076C99.7769 177.828 78.0023 155.547 73.5405 146.958C74.6874 149.826 76.3684 152.789 78.5364 155.688C85.4647 165.001 96.3835 178.254 98.96 180.491C101.426 182.635 122.604 198.613 134.748 204.57C135.644 205.011 136.712 204.68 137.246 203.782C137.576 203.246 137.969 202.584 138.393 201.875C138.33 201.702 138.299 201.607 138.299 201.607Z" fill="#24126A"/>
<path d="M85.4331 115.049L95.9277 130.035L98.6298 129.073L98.7712 131.926C98.7712 131.926 111.34 141.317 120.734 160.826C120.734 160.826 108.292 140.734 98.3942 134.053L97.4987 131.185L95.3935 131.673L85.4331 115.049Z" fill="#24126A"/>
<path d="M84.4906 94.2008C84.3806 94.1536 84.2706 94.1378 84.1606 94.1063C85.3861 97.1476 87.1456 99.2749 87.1456 99.2749C87.1456 99.2749 86.2973 97.2737 88.3553 96.4227C89.078 96.1233 89.8007 96.2651 90.4291 96.5645C91.6859 97.1633 92.5029 98.424 92.6914 99.8264L92.7071 99.9052C92.7857 100.457 93.2098 100.866 93.744 100.914L93.9325 100.93C94.4195 100.961 94.8751 100.693 95.0794 100.252L95.9277 98.4555C96.1006 98.0773 96.2262 97.6834 96.2734 97.2737C96.4148 96.2494 96.509 94.7366 96.5719 93.7281C96.5876 93.7124 89.5807 95.9815 84.4906 94.2008Z" fill="#936D6D"/>
<path d="M294.915 88.0757C295.468 90.987 305.999 146.29 347.357 147.08C347.439 151.349 348.951 232.401 303.852 236.988C300.943 235.448 245.672 206.185 244.99 92.6285C245.436 93.0608 253.955 101.295 267.151 101.376C275.184 101.437 284.803 98.3026 294.915 88.0757Z" fill="url(#paint8_linear_559_2530)"/>
<g opacity="0.3">
<path d="M294.557 199.525C293.308 199.309 292.053 198.863 290.804 198.174C289.157 197.269 287.55 195.979 286.025 194.331C283.655 191.764 281.59 188.434 280.057 184.698C278.674 181.327 277.769 177.693 277.432 174.194C276.993 169.641 277.513 165.413 278.93 161.954C279.659 160.178 280.604 158.658 281.738 157.429C284.263 154.693 287.516 153.578 291.148 154.2C299.91 155.699 308.017 167.115 309.218 179.639C309.313 180.591 308.84 181.273 308.179 181.159C307.511 181.044 306.896 180.179 306.802 179.227C305.783 168.608 298.911 158.928 291.479 157.658C288.401 157.131 285.647 158.077 283.507 160.394C282.542 161.441 281.738 162.731 281.124 164.238C279.922 167.162 279.484 170.749 279.855 174.613C280.138 177.599 280.915 180.692 282.096 183.57C283.399 186.752 285.154 189.582 287.159 191.757C288.428 193.128 289.764 194.209 291.135 194.959C292.451 195.682 293.781 196.087 295.09 196.175C297.095 196.303 298.344 195.459 297.912 190.933C297.757 189.312 297.102 187.988 295.907 186.893C295.09 186.137 294.294 185.759 294.057 185.657C290.723 185.002 287.665 180.652 287.213 175.883C287.044 174.12 287.246 172.485 287.8 171.148C288.097 170.425 288.833 170.351 289.434 170.979C290.034 171.607 290.284 172.708 289.98 173.431C289.65 174.235 289.528 175.228 289.629 176.295C289.906 179.213 291.796 181.875 293.841 182.219L293.929 182.233L294.024 182.266C295.975 183.009 299.802 185.86 300.328 191.345C300.882 197.093 299.289 199.883 295.603 199.647C295.252 199.627 294.908 199.579 294.557 199.525Z" fill="white"/>
<path d="M298.432 180.003C298.405 179.996 298.371 179.99 298.344 179.983C297.669 179.801 297.089 178.889 297.048 177.943C296.967 176.234 296.305 174.471 295.266 173.221C294.625 172.451 293.889 171.924 293.14 171.708C292.465 171.512 291.891 170.587 291.864 169.648C291.83 168.709 292.35 168.101 293.025 168.297C294.267 168.662 295.482 169.526 296.542 170.803C298.256 172.87 299.363 175.781 299.492 178.605C299.525 179.51 299.06 180.111 298.432 180.003Z" fill="white"/>
<path d="M294.847 192.723C291.796 192.203 288.792 189.974 286.383 186.461C283.973 182.949 282.494 178.619 282.218 174.275C281.705 166.251 285.694 160.435 291.304 161.036C291.965 161.11 292.6 161.941 292.728 162.9C292.849 163.859 292.411 164.575 291.749 164.508C287.368 164.042 284.25 168.588 284.655 174.85C284.871 178.247 286.032 181.625 287.908 184.374C289.791 187.123 292.141 188.859 294.523 189.265C295.192 189.379 295.806 190.244 295.9 191.197C295.981 192.156 295.516 192.838 294.847 192.723Z" fill="white"/>
<path d="M275.745 184.921C275.245 184.833 274.739 184.313 274.496 183.577C273.389 180.22 272.66 176.768 272.329 173.323C271.546 165.15 273.072 157.888 276.622 152.889C280.173 147.891 285.289 145.797 291.047 147.006C296.589 148.168 302.05 152.268 306.411 158.55C310.772 164.832 313.593 172.641 314.349 180.537C314.45 181.571 314.511 182.611 314.531 183.617C314.585 185.982 313.964 188.008 312.81 189.183C312.736 189.265 312.662 189.346 312.581 189.427C311.926 190.149 310.934 191.237 308.645 190.291C305.311 188.913 303.657 185.644 302.86 183.151C302.037 180.578 301.969 178.322 301.969 178.227C301.942 177.288 302.476 176.7 303.144 176.91C303.819 177.119 304.386 178.051 304.406 178.99C304.406 178.997 304.467 180.693 305.074 182.537C305.824 184.806 307.018 186.252 308.74 186.968C309.921 187.454 310.259 187.089 310.812 186.482C310.9 186.38 310.994 186.279 311.089 186.184C311.764 185.495 312.128 184.279 312.095 182.847C312.074 181.956 312.02 181.037 311.933 180.118C310.549 165.616 301.49 152.579 291.317 150.451C286.228 149.384 281.698 151.234 278.553 155.659C275.407 160.083 274.057 166.507 274.752 173.742C275.043 176.795 275.691 179.848 276.669 182.814C276.98 183.753 276.744 184.685 276.15 184.894C276.015 184.935 275.88 184.941 275.745 184.921Z" fill="white"/>
<path d="M269.838 158.881C269.656 158.847 269.46 158.759 269.278 158.597C268.644 158.063 268.299 156.983 268.522 156.186C270.081 150.511 272.842 145.972 276.514 143.061C280.288 140.062 284.871 138.927 289.772 139.764C297.656 141.115 305.507 147.404 311.312 157.023C311.804 157.834 311.825 158.915 311.366 159.421C310.907 159.935 310.13 159.685 309.638 158.874C304.372 150.153 297.251 144.446 290.102 143.216C281.158 141.683 273.774 147.391 270.824 158.111C270.669 158.678 270.277 158.955 269.838 158.881Z" fill="white"/>
<path d="M297.156 206.868C297.095 206.854 297.028 206.848 296.967 206.834C293.356 206.179 289.758 204.504 286.288 201.863C285.64 201.369 285.269 200.302 285.458 199.478C285.647 198.654 286.322 198.384 286.97 198.877C290.116 201.275 293.376 202.788 296.657 203.382C297.041 203.45 297.426 203.511 297.804 203.551C298.466 203.619 299.1 204.463 299.222 205.422C299.343 206.382 298.898 207.098 298.236 207.023C297.872 206.976 297.514 206.929 297.156 206.868Z" fill="white"/>
<path d="M306.559 146.006C306.329 145.965 306.086 145.83 305.864 145.601C300.754 140.345 295.063 137.056 289.413 136.09C284.594 135.266 279.99 136.198 276.115 138.785C275.575 139.15 274.813 138.717 274.408 137.826C274.003 136.934 274.117 135.921 274.657 135.556C278.863 132.746 283.851 131.733 289.083 132.631C295.212 133.678 301.382 137.252 306.924 142.953C307.531 143.574 307.781 144.675 307.491 145.405C307.308 145.864 306.951 146.073 306.559 146.006Z" fill="white"/>
</g>
<path d="M222.255 286.968C222.255 286.968 221.124 290.356 221.234 291.16C221.344 291.979 223.653 295.178 223.811 295.273C223.968 295.367 225.932 297.889 228.131 299.086C230.33 300.3 230.503 300.898 230.707 300.914C230.912 300.946 231.242 300.725 231.242 300.725C231.242 300.725 231.572 298.409 230.597 297.29C229.623 296.171 231.084 294.501 231.084 294.501L228.587 287.961L222.255 286.968Z" fill="#FCD1C5"/>
<path d="M246.213 359.313C246.213 359.313 242.302 360.227 238.531 360.353C234.761 360.48 224.455 362.434 224.659 366.137C224.863 369.856 230.126 375.198 236.819 376.001C243.511 376.805 252.152 374.961 256.519 375.087C260.887 375.213 263.966 370.911 262.348 366.783C260.73 362.67 246.213 359.313 246.213 359.313Z" fill="#160A5B"/>
<path d="M269.025 349.433C269.025 349.433 270.407 351.686 269.669 353.057C268.931 354.428 266.983 357.832 260.934 354.507C254.901 351.182 243.181 346.407 243.181 346.407C243.181 346.407 236.457 342.878 236.897 338.733C237.337 334.62 243.574 335.266 243.574 335.266L269.025 349.433Z" fill="#160A5B"/>
<path d="M201.675 200.835C201.675 200.835 197.684 200.883 195.925 200.095C194.165 199.291 189.059 197.621 188.745 197.447C188.431 197.274 185.619 197.085 184.33 196.266C184.33 196.266 182.885 196.975 184.032 198.141C185.163 199.307 187.315 199.685 187.315 199.685L189.342 200.867C189.342 200.867 185.241 202.979 184.864 203.136C184.487 203.294 181.063 205.91 180.717 206.083C180.371 206.24 178.832 207.438 179.429 208.51C179.429 208.51 179.491 208.746 180.261 208.919C180.261 208.919 178.062 209.912 178.612 210.999C179.146 212.087 180.544 211.614 180.544 211.614C180.544 211.614 181.078 213.552 183.718 212.055C183.718 212.055 184.032 214.466 189.907 211.945C189.907 211.945 192.28 211.314 194.024 211.441C195.767 211.567 200.496 210.337 203.026 208.541C205.524 206.745 201.675 200.835 201.675 200.835Z" fill="#FCD1C5"/>
<path d="M193.992 211.425C195.736 211.551 200.465 210.322 202.994 208.525C204.691 207.328 203.497 204.255 202.539 202.379C201.345 201.796 200.292 201.324 200.292 201.324C200.292 201.324 200.465 207.17 200.339 208.037C200.213 208.919 194.95 209.959 191.573 210.448C188.195 210.936 183.765 212.26 183.765 212.26C184.032 212.796 185.147 213.946 189.876 211.929C189.892 211.929 192.264 211.299 193.992 211.425Z" fill="#E2B1A6"/>
<path d="M247.91 189.505C247.91 189.505 239.6 190.971 236.772 191.869C234.022 192.752 210.221 197.479 201.502 199.606C200.952 199.748 200.528 200.189 200.386 200.757C200.276 201.214 200.214 201.765 200.324 202.206C200.575 203.199 201.408 213.079 206.246 211.472C207.692 210.983 211.965 210.085 215.374 209.644C218.783 209.187 233.331 208.068 233.331 208.068L257.949 193.933L247.91 189.505Z" fill="#4846A5"/>
<path d="M230.079 290.104C230.079 290.104 232.279 317.366 237.699 327.64C243.182 338.04 244.376 356.965 245.491 360.558C246.606 364.167 250.141 369.367 255.844 370.47C261.547 371.589 262.568 367.823 262.333 365.553C262.097 363.3 260.589 359.628 260.62 357.17C260.652 354.728 261.264 353.577 261.374 352.443C261.374 352.443 267.91 354.35 269.009 349.417C269.009 349.417 268.507 347.983 268.444 347.243C268.365 346.502 269.434 328.538 269.638 326.363C269.842 324.189 268.915 312.355 267.203 306.493C265.506 300.678 266.386 288.276 266.386 288.276L247.486 285.503L230.079 290.104Z" fill="url(#paint9_linear_559_2530)"/>
<path d="M260.761 290.215C260.761 290.215 260.589 294.469 258.703 298.03C258.703 298.03 258.436 312.465 256.771 319.745C256.771 319.745 258.908 334.337 260.337 338.907C261.783 343.508 261.374 352.459 261.374 352.459C261.374 352.459 262.113 352.726 263.181 352.774C264.249 352.821 264.72 335.077 263.134 331.926C261.563 328.79 260.604 314.844 261.311 310.59C262.018 306.351 262.065 294.186 262.945 292.042C263.809 289.899 261.987 288.749 261.987 288.749L260.761 290.215Z" fill="#160A5B"/>
<path d="M246.653 189.726C246.653 189.726 240.966 193.681 241.139 200.646L245.318 199.827C245.302 199.827 244.218 192.09 246.653 189.726Z" fill="#160A5B"/>
<path d="M246.842 296.045C259.379 296.533 266.26 291.144 266.26 291.144C266.323 289.427 266.402 288.292 266.402 288.292L247.502 285.519L230.079 290.104C230.079 290.104 230.519 295.493 231.477 302.395C234.557 302.742 237.714 295.367 237.714 295.367L246.324 295.982C246.324 295.982 234.274 295.556 246.842 296.045Z" fill="#160A5B"/>
<path d="M232.514 290.546C232.514 290.546 259.63 301.686 273.267 281.107C273.659 280.523 273.848 279.799 273.832 279.074L273.785 274.22C273.785 273.606 273.879 272.991 274.099 272.424C274.555 271.195 274.681 269.855 274.461 268.547C273.565 263.095 271.13 248.235 270.565 244.091C269.889 239.033 273.062 218.784 277.838 210.022C282.567 201.371 271.397 181.453 271.397 181.453C271.397 181.453 268.648 176.773 262.992 178.27C262.992 178.27 268.255 182.099 265.254 185.991C262.222 189.915 253.377 192.925 253.377 192.925C253.377 192.925 236.976 201.056 231.241 211.173C231.241 211.173 229.246 216.436 228.979 223.101C228.712 229.83 229.199 245.935 228.885 248.157C228.571 250.394 227.471 265.601 227.549 266.31C227.644 267.003 232.514 290.546 232.514 290.546Z" fill="#453C9E"/>
<path d="M240.762 292.846C240.762 292.846 257.729 250.142 257.274 234.431C256.834 219.02 233.033 265.128 233.033 265.128L232.514 290.546C232.514 290.546 237.651 292.452 240.762 292.846Z" fill="#24126A"/>
<path d="M232.891 241.995C233.535 238.466 233.944 234.904 234.038 231.359C234.211 225.166 236.143 214.876 247.455 216.83C263.401 219.587 256.111 241.633 254.289 245.462C252.451 249.307 245.177 266.625 244.784 267.602C244.423 268.516 233.08 289.978 229.089 295.084C228.728 295.557 228.1 295.62 227.66 295.242C226.089 293.902 222.57 290.719 222.13 288.718C221.564 286.149 223.999 276.836 223.999 276.836C223.999 276.836 230.566 253.467 231.1 252.38C231.509 251.576 231.839 247.715 232.891 241.995Z" fill="#4846A5"/>
<path d="M246.92 190.23C246.92 190.23 245.695 187.315 242.741 186.953C239.788 186.606 238.123 185.755 237.84 184.652C237.557 183.549 237.573 182.241 236.881 180.586C236.19 178.948 235.656 174.945 235.672 174.85C235.687 174.756 233.441 174.031 233.347 173.038C233.252 172.046 234.478 168.531 234.352 168.248C234.226 167.98 233.048 165.774 233.237 164.088C233.425 162.402 233.692 159.959 234.619 157.895C235.546 155.846 242.066 143.334 258.342 150.158C274.712 157.028 261.877 170.659 263.306 179.657C263.306 179.657 264.72 181.563 261.987 184.715C259.237 187.93 251.445 188.497 246.92 190.23Z" fill="#FCD1C5"/>
<path d="M262.003 184.762C264.752 181.611 263.322 179.704 263.322 179.704C263.118 178.459 263.212 177.12 263.432 175.717L256.96 176.836C256.96 176.836 247.596 168.185 248.177 172.739C248.774 177.325 246.449 178.065 246.449 178.065L248.35 180.587C248.837 181.233 248.523 181.973 248.115 182.667C245.318 187.284 238.735 185.771 238.72 185.771C239.537 186.322 240.872 186.732 242.726 186.953C245.679 187.299 246.905 190.23 246.905 190.23C251.445 188.497 259.238 187.93 262.003 184.762Z" fill="#E2B1A6"/>
<path d="M234.007 153.136C234.007 153.136 232.813 156.492 234.635 157.942C236.473 159.392 238.123 160.763 238.123 160.763L238.044 165.033C238.029 165.648 238.201 166.247 238.516 166.767L240.794 170.407C241.233 171.116 241.453 171.919 241.453 172.755L241.438 174.488C241.438 174.992 241.799 175.434 242.302 175.497L242.914 175.575C243.449 175.638 243.951 175.26 244.014 174.709L244.313 172.298C244.313 172.298 245.569 170.375 248.209 172.739L250.597 173.763C251.257 174.047 251.775 174.614 252.026 175.307C252.671 177.167 254.037 180.854 255.106 181.485C256.551 182.335 262.238 179.515 263.008 178.238C263.794 176.962 265.867 168.405 267.14 164.324C268.397 160.259 267.941 150.126 255.797 147.29C243.669 144.469 235.735 149.496 234.007 153.136Z" fill="#AA8383"/>
<path d="M262.993 178.254C263.778 176.978 265.852 168.421 267.124 164.34C267.124 164.34 262.364 167.397 256.237 168.216C250.11 169.036 238.107 161.913 238.107 161.913L238.044 165.033C238.029 165.648 238.202 166.247 238.516 166.767L240.794 170.407C241.234 171.116 241.454 171.919 241.454 172.755L241.438 174.488C241.438 174.992 241.799 175.433 242.302 175.496L242.915 175.575C243.449 175.638 243.952 175.26 244.014 174.709L244.313 172.298C244.313 172.298 245.57 170.375 248.209 172.739L251.665 174.236C251.665 174.236 253.661 180.649 255.09 181.5C256.52 182.335 262.207 179.515 262.993 178.254Z" fill="#936D6D"/>
<path d="M263.228 178.664C263.228 178.664 267.878 181.642 265.443 185.724C262.992 189.821 245.789 196.88 244.925 197.952C244.925 197.952 244.36 191.79 246.669 189.742C246.669 189.742 259.803 187.41 261.893 184.116C263.966 180.823 263.228 178.664 263.228 178.664Z" fill="#F0F6FF"/>
<path d="M263.228 178.664C263.228 178.664 263.982 180.823 261.892 184.101C260.306 186.59 252.403 188.529 248.648 189.332C248.648 189.332 250.031 190.136 252.278 194.123C257.572 191.491 264.013 188.103 265.443 185.708C267.862 181.642 263.228 178.664 263.228 178.664Z" fill="#C4CCD6"/>
<path d="M254.414 220.422C258.578 233.848 247.093 254.397 245.397 260.385C243.684 266.42 226.45 294.17 226.434 294.17C226.905 294.595 227.33 294.973 227.659 295.257C228.099 295.619 228.728 295.556 229.089 295.099C233.08 289.978 244.422 268.531 244.784 267.617C245.161 266.641 252.451 249.322 254.289 245.478C255.75 242.389 260.746 227.545 254.414 220.422Z" fill="#24126A"/>
<path d="M266.119 191.854C266.119 191.854 258.436 196.077 254.697 197.968C250.942 199.874 246.842 202.411 246.842 202.411L245.444 200.977L243.668 204.681C243.668 204.681 237.777 208.068 234.996 210.936C232.2 213.804 230.079 217.571 229.765 218.437C229.765 218.437 237.196 209.061 242.993 206.335L244.548 205.579L245.475 202.648L246.858 204.145C246.873 204.161 263.746 194.406 266.119 191.854Z" fill="#24126A"/>
<defs>
<linearGradient id="paint0_linear_559_2530" x1="665.303" y1="637.794" x2="178.331" y2="280.954" gradientUnits="userSpaceOnUse">
<stop stop-color="#5761D7"/>
<stop offset="0.1779" stop-color="#5C66D9"/>
<stop offset="0.3876" stop-color="#6A73DF"/>
<stop offset="0.6134" stop-color="#8289E8"/>
<stop offset="0.849" stop-color="#A3A7F5"/>
<stop offset="1" stop-color="#BCBEFF"/>
</linearGradient>
<linearGradient id="paint1_linear_559_2530" x1="-315.772" y1="295.241" x2="368.082" y2="295.241" gradientUnits="userSpaceOnUse">
<stop stop-color="#C0BFF6"/>
<stop offset="0.2938" stop-color="#C5C4F7"/>
<stop offset="0.6399" stop-color="#D3D2F9"/>
<stop offset="1" stop-color="#E9E9FD"/>
</linearGradient>
<linearGradient id="paint2_linear_559_2530" x1="99.3447" y1="387.082" x2="143.611" y2="180.296" gradientUnits="userSpaceOnUse">
<stop stop-color="#F2ECFF"/>
<stop offset="1" stop-color="#885EE9"/>
</linearGradient>
<linearGradient id="paint3_linear_559_2530" x1="-115.23" y1="342.438" x2="365.801" y2="125.476" gradientUnits="userSpaceOnUse">
<stop stop-color="#C0BFF6"/>
<stop offset="0.2938" stop-color="#C5C4F7"/>
<stop offset="0.6399" stop-color="#D3D2F9"/>
<stop offset="1" stop-color="#E9E9FD"/>
</linearGradient>
<linearGradient id="paint4_linear_559_2530" x1="387.078" y1="139.75" x2="387.091" y2="122.127" gradientUnits="userSpaceOnUse">
<stop stop-color="#C0BFF6"/>
<stop offset="0.2938" stop-color="#C5C4F7"/>
<stop offset="0.6399" stop-color="#D3D2F9"/>
<stop offset="1" stop-color="#E9E9FD"/>
</linearGradient>
<linearGradient id="paint5_linear_559_2530" x1="292.51" y1="251.6" x2="374.064" y2="110.991" gradientUnits="userSpaceOnUse">
<stop stop-color="#C0BFF6"/>
<stop offset="0.2938" stop-color="#C5C4F7"/>
<stop offset="0.6399" stop-color="#D3D2F9"/>
<stop offset="1" stop-color="#E9E9FD"/>
</linearGradient>
<linearGradient id="paint6_linear_559_2530" x1="247.323" y1="-11.5922" x2="571.654" y2="296.854" gradientUnits="userSpaceOnUse">
<stop stop-color="#200A53"/>
<stop offset="1" stop-color="#6826FF"/>
</linearGradient>
<linearGradient id="paint7_linear_559_2530" x1="102.092" y1="188.459" x2="187.086" y2="244.706" gradientUnits="userSpaceOnUse">
<stop stop-color="#200A53"/>
<stop offset="1" stop-color="#6826FF"/>
</linearGradient>
<linearGradient id="paint8_linear_559_2530" x1="347.378" y1="162.533" x2="244.989" y2="162.533" gradientUnits="userSpaceOnUse">
<stop stop-color="#5122BC" stop-opacity="0.83"/>
<stop offset="1" stop-color="#38138C"/>
</linearGradient>
<linearGradient id="paint9_linear_559_2530" x1="241.364" y1="279.643" x2="324.546" y2="332.064" gradientUnits="userSpaceOnUse">
<stop stop-color="#200A53"/>
<stop offset="1" stop-color="#6826FF"/>
</linearGradient>
</defs>
</svg>
