<svg width="306" height="321" viewBox="0 0 306 321" fill="none" xmlns="http://www.w3.org/2000/svg">
<g clip-path="url(#clip0_1226_20783)">
<g style="mix-blend-mode:screen">
<path d="M63.0586 160.033C63.0586 161.418 63.4691 162.771 64.2383 163.922C65.0075 165.074 66.1007 165.971 67.3798 166.501C68.6589 167.03 70.0663 167.169 71.4242 166.899C72.7821 166.629 74.0294 165.962 75.0084 164.983C75.9873 164.004 76.654 162.757 76.9241 161.399C77.1942 160.041 77.0556 158.634 76.5258 157.355C75.9959 156.076 75.0987 154.982 73.9476 154.213C72.7964 153.444 71.4431 153.033 70.0586 153.033C68.2021 153.033 66.4216 153.771 65.1088 155.084C63.7961 156.396 63.0586 158.177 63.0586 160.033Z" fill="url(#paint0_linear_1226_20783)"/>
</g>
<g style="mix-blend-mode:screen">
<path d="M223 220.813C223 222.198 223.411 223.551 224.18 224.702C224.949 225.854 226.042 226.751 227.321 227.281C228.6 227.81 230.008 227.949 231.366 227.679C232.723 227.409 233.971 226.742 234.95 225.763C235.929 224.784 236.595 223.537 236.865 222.179C237.136 220.821 236.997 219.414 236.467 218.135C235.937 216.856 235.04 215.762 233.889 214.993C232.738 214.224 231.384 213.813 230 213.813C228.143 213.813 226.363 214.551 225.05 215.864C223.737 217.176 223 218.957 223 220.813Z" fill="#4846A5"/>
</g>
<g style="mix-blend-mode:screen">
<path d="M206 92.8135C206 94.1979 206.411 95.5513 207.18 96.7025C207.949 97.8536 209.042 98.7508 210.321 99.2806C211.6 99.8104 213.008 99.9491 214.366 99.679C215.723 99.4089 216.971 98.7422 217.95 97.7632C218.929 96.7842 219.595 95.537 219.865 94.1791C220.136 92.8212 219.997 91.4138 219.467 90.1347C218.937 88.8556 218.04 87.7623 216.889 86.9932C215.738 86.224 214.384 85.8135 213 85.8135C211.143 85.8135 209.363 86.551 208.05 87.8637C206.737 89.1765 206 90.957 206 92.8135Z" fill="url(#paint1_linear_1226_20783)"/>
</g>
<g style="mix-blend-mode:screen">
<path d="M136 251.813C136 252.802 136.293 253.769 136.843 254.591C137.392 255.414 138.173 256.054 139.087 256.433C140 256.811 141.006 256.91 141.975 256.717C142.945 256.524 143.836 256.048 144.536 255.349C145.235 254.65 145.711 253.759 145.904 252.789C146.097 251.819 145.998 250.814 145.619 249.9C145.241 248.986 144.6 248.206 143.778 247.656C142.956 247.107 141.989 246.813 141 246.813C139.674 246.813 138.402 247.34 137.464 248.278C136.527 249.216 136 250.487 136 251.813Z" fill="url(#paint2_linear_1226_20783)"/>
</g>
<g style="mix-blend-mode:color-dodge">
<path d="M124 206.813C124 207.802 124.293 208.769 124.843 209.591C125.392 210.414 126.173 211.054 127.087 211.433C128 211.811 129.005 211.91 129.975 211.717C130.945 211.524 131.836 211.048 132.536 210.349C133.235 209.65 133.711 208.759 133.904 207.789C134.097 206.819 133.998 205.814 133.619 204.9C133.241 203.986 132.6 203.206 131.778 202.656C130.956 202.107 129.989 201.813 129 201.813C127.674 201.813 126.402 202.34 125.464 203.278C124.527 204.216 124 205.487 124 206.813Z" fill="url(#paint3_linear_1226_20783)"/>
</g>
<g style="mix-blend-mode:color-dodge">
<path d="M9 215.813C9 216.802 9.29324 217.769 9.84265 218.591C10.3921 219.414 11.1729 220.054 12.0865 220.433C13.0002 220.811 14.0055 220.91 14.9754 220.717C15.9453 220.524 16.8363 220.048 17.5355 219.349C18.2348 218.65 18.711 217.759 18.9039 216.789C19.0969 215.819 18.9978 214.814 18.6194 213.9C18.2409 212.986 17.6001 212.206 16.7778 211.656C15.9556 211.107 14.9889 210.813 14 210.813C12.6739 210.813 11.4021 211.34 10.4644 212.278C9.52673 213.216 9 214.487 9 215.813Z" fill="url(#paint4_linear_1226_20783)"/>
</g>
<g style="mix-blend-mode:color-dodge">
<path d="M175 88.8135C175 89.8024 175.293 90.7691 175.843 91.5913C176.392 92.4136 177.173 93.0544 178.087 93.4329C179 93.8113 180.006 93.9103 180.975 93.7174C181.945 93.5245 182.836 93.0483 183.536 92.349C184.235 91.6497 184.711 90.7588 184.904 89.7889C185.097 88.819 184.998 87.8137 184.619 86.9001C184.241 85.9864 183.6 85.2055 182.778 84.6561C181.956 84.1067 180.989 83.8135 180 83.8135C178.674 83.8135 177.402 84.3403 176.464 85.2779C175.527 86.2156 175 87.4874 175 88.8135Z" fill="url(#paint5_linear_1226_20783)"/>
</g>
<g style="mix-blend-mode:color-dodge">
<path d="M46 196.813C46 197.802 46.2932 198.769 46.8427 199.591C47.3921 200.414 48.173 201.054 49.0866 201.433C50.0002 201.811 51.0056 201.91 51.9755 201.717C52.9454 201.524 53.8363 201.048 54.5355 200.349C55.2348 199.65 55.711 198.759 55.9039 197.789C56.0969 196.819 55.9978 195.814 55.6194 194.9C55.2409 193.986 54.6001 193.206 53.7778 192.656C52.9556 192.107 51.9889 191.813 51 191.813C49.6739 191.813 48.4022 192.34 47.4645 193.278C46.5268 194.216 46 195.487 46 196.813Z" fill="url(#paint6_linear_1226_20783)"/>
</g>
<g style="mix-blend-mode:color-dodge">
<path d="M21 132.813C21 133.802 21.2932 134.769 21.8427 135.591C22.3921 136.414 23.1729 137.054 24.0865 137.433C25.0002 137.811 26.0056 137.91 26.9755 137.717C27.9454 137.524 28.8363 137.048 29.5355 136.349C30.2348 135.65 30.711 134.759 30.9039 133.789C31.0969 132.819 30.9978 131.814 30.6194 130.9C30.2409 129.986 29.6001 129.206 28.7778 128.656C27.9556 128.107 26.9889 127.813 26 127.813C24.6739 127.813 23.4022 128.34 22.4645 129.278C21.5268 130.216 21 131.487 21 132.813Z" fill="url(#paint7_linear_1226_20783)"/>
</g>
<g style="mix-blend-mode:screen">
<path d="M124.4 306.953L123.92 306.114L179.12 274.284L113.6 236.284C113.524 236.24 113.461 236.177 113.417 236.102C113.374 236.026 113.35 235.941 113.35 235.854C113.353 235.769 113.377 235.688 113.421 235.616C113.465 235.544 113.526 235.485 113.6 235.444L184.3 195.824V142.124C184.301 142.039 184.324 141.955 184.367 141.882C184.41 141.809 184.472 141.748 184.545 141.706C184.619 141.664 184.702 141.641 184.787 141.641C184.872 141.64 184.956 141.662 185.03 141.704L226.03 165.814V81.0535L214.85 73.8135C214.779 73.7714 214.72 73.7113 214.68 73.6393C214.639 73.5674 214.619 73.486 214.62 73.4035V48.6035H215.62V73.1335L226.8 80.3835C226.871 80.4256 226.929 80.4857 226.97 80.5577C227.01 80.6297 227.031 80.711 227.03 80.7935V166.654C227.028 166.738 227.005 166.822 226.962 166.895C226.919 166.968 226.858 167.029 226.784 167.071C226.71 167.113 226.627 167.136 226.542 167.136C226.457 167.137 226.374 167.115 226.3 167.074L185.3 142.974V196.104C185.297 196.189 185.273 196.273 185.229 196.346C185.186 196.42 185.124 196.481 185.05 196.524L114.85 235.864L180.35 273.864C180.425 273.904 180.488 273.963 180.532 274.036C180.576 274.11 180.599 274.193 180.599 274.279C180.599 274.364 180.576 274.447 180.532 274.521C180.488 274.594 180.425 274.653 180.35 274.694L124.4 306.953Z" fill="url(#paint8_linear_1226_20783)"/>
<path d="M185.19 316.713L127.69 283.203C127.617 283.161 127.557 283.101 127.515 283.028C127.473 282.955 127.451 282.872 127.451 282.788C127.451 282.704 127.473 282.622 127.515 282.549C127.557 282.476 127.617 282.416 127.69 282.373L193.53 243.933C193.604 243.889 193.689 243.866 193.775 243.866C193.861 243.866 193.946 243.889 194.02 243.933L221.58 260.553L258.71 239.553V217.553L240.12 207.013C240.046 206.971 239.984 206.91 239.94 206.836C239.896 206.763 239.872 206.679 239.87 206.593V164.203C239.869 164.12 239.891 164.037 239.933 163.965C239.975 163.893 240.036 163.834 240.11 163.793C240.183 163.751 240.266 163.729 240.35 163.729C240.434 163.729 240.517 163.751 240.59 163.793L254.18 171.173V73.4235C254.182 73.3379 254.206 73.2544 254.251 73.1812C254.295 73.108 254.358 73.0477 254.432 73.0062C254.507 72.9647 254.592 72.9436 254.677 72.9449C254.763 72.9462 254.846 72.9698 254.92 73.0135L277.44 86.5535L276.94 87.3835L255.18 74.3835V172.073C255.18 172.157 255.159 172.239 255.119 172.313C255.078 172.386 255.02 172.448 254.95 172.493C254.876 172.533 254.794 172.553 254.71 172.553C254.626 172.553 254.544 172.533 254.47 172.493L240.87 165.103V206.403L259.43 216.893C259.507 216.933 259.571 216.993 259.615 217.068C259.66 217.142 259.682 217.227 259.68 217.313V239.853C259.68 239.939 259.656 240.024 259.612 240.098C259.569 240.172 259.505 240.232 259.43 240.273L221.82 261.553C221.745 261.596 221.661 261.618 221.575 261.618C221.489 261.618 221.405 261.596 221.33 261.553L193.77 244.933L128.9 282.803L185.68 315.903L185.19 316.713Z" fill="url(#paint9_linear_1226_20783)"/>
<path d="M268.479 310.554L220.919 282.794C220.846 282.75 220.786 282.689 220.743 282.615C220.701 282.542 220.679 282.458 220.679 282.374C220.683 282.288 220.708 282.206 220.751 282.132C220.795 282.059 220.856 281.998 220.929 281.954L258.219 261.114L193.119 223.554C193.046 223.51 192.986 223.449 192.943 223.375C192.901 223.302 192.879 223.218 192.879 223.134C192.879 223.048 192.902 222.963 192.946 222.889C192.99 222.816 193.053 222.755 193.129 222.714L212.509 212.214V92.8836C212.509 92.7988 212.531 92.7155 212.573 92.6419C212.615 92.5683 212.676 92.5068 212.749 92.4636C212.824 92.4215 212.908 92.3994 212.994 92.3994C213.08 92.3994 213.164 92.4215 213.239 92.4636L239.489 107.994V34.1736H240.489V108.834C240.491 108.919 240.469 109.003 240.427 109.077C240.385 109.151 240.323 109.212 240.249 109.254C240.175 109.298 240.09 109.321 240.004 109.321C239.918 109.321 239.833 109.298 239.759 109.254L213.499 93.7336V212.454C213.5 212.541 213.478 212.628 213.434 212.703C213.39 212.779 213.326 212.842 213.249 212.884L194.379 223.104L259.469 260.694C259.543 260.738 259.603 260.802 259.646 260.877C259.688 260.952 259.709 261.037 259.709 261.124C259.708 261.208 259.684 261.291 259.64 261.363C259.596 261.435 259.534 261.494 259.459 261.534L222.119 282.384L268.939 309.734L268.479 310.554Z" fill="url(#paint10_linear_1226_20783)"/>
<path d="M99.8882 276.463L99.4082 275.613L174.788 233.713L127.288 206.713C127.213 206.67 127.15 206.607 127.106 206.532C127.062 206.456 127.039 206.371 127.038 206.283C127.042 206.197 127.069 206.113 127.114 206.04C127.159 205.966 127.223 205.906 127.298 205.863L165.118 185.183V158.553C165.119 158.469 165.143 158.385 165.186 158.312C165.229 158.239 165.29 158.178 165.364 158.136C165.437 158.094 165.521 158.071 165.606 158.071C165.691 158.07 165.774 158.092 165.848 158.133L195.438 175.393V99.9835L173.538 87.2735C173.465 87.2302 173.405 87.1688 173.363 87.0951C173.321 87.0215 173.298 86.9383 173.298 86.8535V7.55347H174.298V86.5535L196.118 99.2835C196.191 99.3267 196.252 99.3882 196.294 99.4618C196.336 99.5354 196.358 99.6187 196.358 99.7035V176.233C196.36 176.319 196.339 176.403 196.296 176.477C196.254 176.551 196.193 176.612 196.118 176.653C196.046 176.698 195.963 176.721 195.878 176.721C195.794 176.721 195.71 176.698 195.638 176.653L166.048 159.393V185.463C166.048 185.551 166.024 185.636 165.98 185.712C165.937 185.787 165.874 185.85 165.798 185.893L128.518 206.333L176.018 233.333C176.093 233.375 176.154 233.436 176.196 233.51C176.239 233.584 176.26 233.668 176.258 233.753C176.258 233.839 176.235 233.924 176.191 233.998C176.147 234.072 176.084 234.132 176.008 234.173L99.8882 276.463Z" fill="url(#paint11_linear_1226_20783)"/>
<path d="M216.848 303.663L193.498 288.093C193.429 288.049 193.373 287.986 193.336 287.912C193.299 287.838 193.282 287.756 193.288 287.673C193.291 287.592 193.314 287.512 193.356 287.442C193.398 287.372 193.458 287.314 193.528 287.273L221.018 271.733L202.518 260.733C202.445 260.689 202.384 260.625 202.342 260.55C202.3 260.475 202.278 260.39 202.278 260.303C202.281 260.218 202.307 260.135 202.353 260.063C202.398 259.991 202.462 259.932 202.538 259.893L239.418 239.843L220.908 228.423C220.837 228.377 220.779 228.313 220.739 228.238C220.698 228.163 220.678 228.079 220.678 227.993C220.683 227.909 220.71 227.826 220.755 227.755C220.801 227.683 220.864 227.624 220.938 227.583L230.938 222.403V186.553C230.939 186.469 230.961 186.385 231.003 186.312C231.045 186.238 231.105 186.177 231.178 186.133C231.252 186.089 231.337 186.066 231.423 186.066C231.51 186.066 231.594 186.089 231.668 186.133L277.548 213.503V152.923C277.547 152.841 277.568 152.76 277.608 152.688C277.649 152.616 277.707 152.556 277.778 152.513C277.85 152.474 277.931 152.453 278.013 152.453C278.095 152.453 278.176 152.474 278.248 152.513L288.058 157.253L287.638 158.123L278.518 153.723V214.353C278.518 214.439 278.496 214.522 278.453 214.596C278.41 214.67 278.348 214.73 278.273 214.772C278.199 214.814 278.115 214.835 278.03 214.834C277.944 214.832 277.861 214.808 277.788 214.763L231.898 187.393V222.703C231.9 222.792 231.877 222.88 231.831 222.956C231.785 223.032 231.718 223.094 231.638 223.133L222.118 228.033L240.608 239.443C240.681 239.486 240.741 239.546 240.783 239.619C240.825 239.692 240.847 239.774 240.847 239.858C240.847 239.942 240.825 240.025 240.783 240.098C240.741 240.171 240.681 240.231 240.608 240.273L203.728 260.273L222.218 271.273C222.291 271.317 222.352 271.378 222.394 271.452C222.436 271.525 222.458 271.609 222.458 271.693C222.457 271.778 222.434 271.861 222.39 271.933C222.346 272.005 222.283 272.064 222.208 272.103L194.678 287.663L217.378 302.803L216.848 303.663Z" fill="url(#paint12_linear_1226_20783)"/>
<path d="M6.73975 245.113L6.25977 244.263L70.1198 207.893L42.2297 191.893C42.1539 191.854 42.091 191.793 42.0485 191.718C42.006 191.644 41.9856 191.559 41.9897 191.473C41.99 191.389 42.0123 191.305 42.0543 191.232C42.0964 191.158 42.1568 191.097 42.2297 191.053L109.86 152.753V99.0535C109.862 98.9679 109.886 98.8844 109.93 98.8108C109.974 98.7373 110.036 98.6762 110.11 98.6335C110.184 98.5941 110.266 98.5735 110.35 98.5735C110.433 98.5735 110.516 98.5941 110.59 98.6335L146.66 119.233V88.5535H147.66V120.043C147.659 120.128 147.637 120.212 147.595 120.285C147.553 120.359 147.493 120.42 147.42 120.463C147.347 120.506 147.264 120.528 147.18 120.528C147.095 120.528 147.013 120.506 146.94 120.463L110.86 99.8735V153.013C110.859 153.098 110.837 153.182 110.795 153.255C110.753 153.329 110.693 153.39 110.62 153.433L43.4797 191.433L71.3698 207.433C71.4427 207.477 71.5031 207.538 71.5452 207.612C71.5872 207.685 71.6095 207.769 71.6097 207.853C71.6117 207.94 71.5894 208.025 71.5452 208.099C71.5009 208.174 71.4367 208.234 71.3597 208.273L6.73975 245.113Z" fill="url(#paint13_linear_1226_20783)"/>
<path d="M38.2488 298.923L37.7188 298.113L91.8588 261.993L53.2787 240.123C53.2058 240.08 53.1454 240.019 53.1033 239.945C53.0613 239.872 53.039 239.788 53.0388 239.703C53.0389 239.62 53.06 239.538 53.1002 239.464C53.1404 239.391 53.1984 239.329 53.2688 239.283L98.8988 212.133C98.9736 212.091 99.058 212.069 99.1438 212.069C99.2296 212.069 99.314 212.091 99.3888 212.133L132.199 231.023L189.539 198.753V166.193L165.739 153.433C165.662 153.394 165.598 153.334 165.553 153.259C165.509 153.185 165.487 153.1 165.489 153.013V121.113C165.489 121.03 165.511 120.949 165.552 120.876C165.593 120.804 165.653 120.744 165.724 120.702C165.796 120.659 165.877 120.636 165.961 120.635C166.044 120.633 166.126 120.654 166.199 120.693L179.799 128.073V34.6835C179.797 34.5983 179.818 34.5142 179.861 34.4402C179.903 34.3662 179.964 34.3051 180.039 34.2635C180.113 34.2195 180.198 34.1962 180.284 34.1962C180.37 34.1962 180.455 34.2195 180.529 34.2635L194.119 42.4135V30.5535H195.119V43.2635C195.119 43.3498 195.097 43.4347 195.055 43.5101C195.013 43.5854 194.952 43.6486 194.879 43.6935C194.804 43.7355 194.72 43.7576 194.634 43.7576C194.548 43.7576 194.464 43.7355 194.389 43.6935L180.769 35.5535V128.903C180.767 128.988 180.744 129.07 180.702 129.144C180.66 129.217 180.6 129.279 180.529 129.323C180.456 129.366 180.373 129.388 180.289 129.388C180.204 129.388 180.122 129.366 180.049 129.323L166.449 121.943V152.733L190.249 165.483C190.327 165.525 190.391 165.587 190.435 165.663C190.479 165.739 190.501 165.826 190.499 165.913V199.033C190.499 199.118 190.476 199.202 190.434 199.275C190.392 199.349 190.332 199.41 190.259 199.453L132.429 232.003C132.355 232.043 132.272 232.063 132.189 232.063C132.105 232.063 132.023 232.043 131.949 232.003L99.1188 213.103L54.4488 239.693L93.0188 261.553C93.0895 261.594 93.1486 261.652 93.1906 261.722C93.2326 261.792 93.2561 261.872 93.2588 261.953C93.2635 262.037 93.2466 262.121 93.2098 262.196C93.1731 262.271 93.1176 262.336 93.0488 262.383L38.2488 298.923Z" fill="url(#paint14_linear_1226_20783)"/>
<path d="M183.719 261.384L146.509 239.704C146.434 239.662 146.373 239.601 146.331 239.527C146.288 239.453 146.267 239.369 146.269 239.284C146.269 239.199 146.291 239.115 146.333 239.042C146.375 238.968 146.436 238.907 146.509 238.864L183.799 218.024L118.699 180.414C118.624 180.372 118.561 180.311 118.518 180.237C118.474 180.163 118.451 180.079 118.451 179.994C118.451 179.908 118.474 179.824 118.518 179.75C118.561 179.676 118.624 179.615 118.699 179.574L138.119 169.084V11.3835H139.119V169.384C139.119 169.472 139.095 169.559 139.05 169.635C139.004 169.711 138.938 169.773 138.859 169.814L119.999 180.034L185.079 217.634C185.153 217.675 185.215 217.736 185.257 217.81C185.299 217.884 185.321 217.968 185.319 218.054C185.319 218.138 185.296 218.222 185.254 218.295C185.212 218.369 185.152 218.43 185.079 218.474L147.789 239.324L184.199 260.554L183.719 261.384Z" fill="url(#paint15_linear_1226_20783)"/>
<path d="M33.9 207.393C33.8118 207.394 33.7251 207.37 33.65 207.323L6.25 191.123L6.73999 190.293L33.91 206.353L80.77 180.353L52.86 163.653C52.7894 163.606 52.7316 163.542 52.6915 163.467C52.6514 163.392 52.6303 163.308 52.63 163.223C52.631 163.139 52.6547 163.056 52.6987 162.984C52.7427 162.912 52.8053 162.853 52.88 162.813L90.66 142.093V120.303C90.6581 120.218 90.6795 120.134 90.7218 120.06C90.7641 119.986 90.8257 119.925 90.9 119.883C90.9742 119.839 91.0588 119.816 91.145 119.816C91.2312 119.816 91.3159 119.839 91.39 119.883L118.46 135.813V30.9034L80.67 9.55338L81.15 8.71338L119.15 30.2334C119.225 30.2754 119.287 30.3363 119.331 30.41C119.375 30.4837 119.399 30.5676 119.4 30.6534V136.653C119.402 136.739 119.38 136.823 119.338 136.897C119.296 136.971 119.234 137.032 119.16 137.073C119.086 137.117 119.001 137.141 118.915 137.141C118.829 137.141 118.744 137.117 118.67 137.073L91.62 121.143V142.383C91.6208 142.47 91.598 142.554 91.5539 142.628C91.5098 142.703 91.4462 142.763 91.37 142.803L54.12 163.253L82.02 179.913C82.0929 179.957 82.1534 180.018 82.1954 180.092C82.2375 180.165 82.2598 180.249 82.26 180.333C82.2578 180.419 82.2336 180.502 82.1898 180.576C82.146 180.65 82.0841 180.711 82.01 180.753L34.12 207.333C34.0519 207.369 33.9768 207.39 33.9 207.393Z" fill="url(#paint16_linear_1226_20783)"/>
<path d="M112.309 248.483L82.9392 231.343C82.8663 231.3 82.8058 231.239 82.7637 231.165C82.7217 231.092 82.6995 231.008 82.6992 230.923C82.6995 230.837 82.7227 230.753 82.7667 230.679C82.8107 230.605 82.8738 230.545 82.9492 230.503L116.579 211.553L98.1192 200.553C98.0463 200.51 97.9859 200.449 97.9438 200.375C97.9017 200.301 97.8795 200.218 97.8792 200.133C97.8852 200.048 97.912 199.964 97.9573 199.891C98.0026 199.818 98.065 199.757 98.1392 199.713L134.999 179.713L116.119 168.793C116.046 168.751 115.985 168.69 115.942 168.616C115.9 168.542 115.878 168.458 115.879 168.373C115.88 168.288 115.904 168.204 115.948 168.13C115.992 168.056 116.054 167.995 116.129 167.953L126.439 162.243V140.863C126.437 140.778 126.459 140.694 126.501 140.62C126.543 140.546 126.605 140.485 126.679 140.443C126.753 140.399 126.838 140.376 126.924 140.376C127.01 140.376 127.095 140.399 127.169 140.443L155.589 157.373V57.7734H156.589V158.233C156.589 158.318 156.567 158.401 156.525 158.475C156.483 158.549 156.422 158.61 156.349 158.653C156.274 158.695 156.19 158.718 156.104 158.718C156.018 158.718 155.934 158.695 155.859 158.653L127.439 141.723V162.553C127.441 162.639 127.42 162.723 127.377 162.797C127.335 162.871 127.274 162.932 127.199 162.973L117.389 168.403L136.199 179.313C136.273 179.356 136.334 179.417 136.376 179.491C136.418 179.565 136.44 179.648 136.439 179.733C136.437 179.819 136.413 179.903 136.369 179.976C136.325 180.05 136.263 180.111 136.189 180.153L99.3192 200.153L117.799 211.153C117.872 211.197 117.933 211.258 117.975 211.332C118.017 211.405 118.039 211.489 118.039 211.573C118.039 211.659 118.016 211.744 117.972 211.818C117.928 211.892 117.865 211.952 117.789 211.993L84.1192 230.933L112.759 247.643L112.309 248.483Z" fill="url(#paint17_linear_1226_20783)"/>
<path d="M140.119 12.2034C139.585 12.1906 139.063 12.0352 138.609 11.7534C137.712 11.176 136.966 10.3931 136.432 9.46968C135.898 8.54621 135.592 7.50876 135.539 6.44337C135.539 4.95337 136.359 3.95337 137.539 3.95337C138.074 3.97201 138.595 4.13062 139.049 4.41337C139.949 4.98555 140.699 5.76563 141.235 6.68795C141.771 7.61027 142.078 8.64785 142.129 9.71337C142.119 11.2034 141.299 12.2034 140.119 12.2034ZM137.579 4.92337C136.909 4.92337 136.499 5.49337 136.499 6.44337C136.558 7.33755 136.822 8.20615 137.271 8.98149C137.72 9.75683 138.342 10.418 139.089 10.9134C139.391 11.1003 139.735 11.2102 140.089 11.2334C140.769 11.2334 141.169 10.6734 141.169 9.71337C141.109 8.81955 140.844 7.95151 140.395 7.1764C139.946 6.40129 139.325 5.73989 138.579 5.24337C138.263 5.04722 137.901 4.93693 137.529 4.92337H137.579Z" fill="url(#paint18_linear_1226_20783)"/>
<path d="M79.9396 10.9734C79.4046 10.9715 78.8798 10.8265 78.4196 10.5534C77.5217 9.97949 76.7744 9.19877 76.2403 8.27665C75.7062 7.35453 75.4007 6.31785 75.3496 5.25343C75.3496 3.73343 76.1496 2.76343 77.3496 2.76343C77.8867 2.77916 78.4105 2.93423 78.8696 3.21343C79.7666 3.79078 80.513 4.57365 81.0469 5.49712C81.5808 6.42058 81.8868 7.45804 81.9396 8.52343C81.9796 9.98343 81.1196 10.9734 79.9396 10.9734ZM77.3896 3.70343C76.7196 3.70343 76.3196 4.26343 76.3196 5.22343C76.3758 6.11679 76.639 6.98484 77.0886 7.75891C77.5381 8.53299 78.1615 9.19186 78.9096 9.68343C79.2075 9.88078 79.5528 9.99473 79.9096 10.0134C80.5796 10.0134 80.9796 9.44343 80.9796 8.49343C80.9234 7.5987 80.6603 6.72924 80.2108 5.95355C79.7614 5.17786 79.1379 4.51714 78.3896 4.02343C78.0881 3.83538 77.7444 3.7254 77.3896 3.70343Z" fill="url(#paint19_linear_1226_20783)"/>
<path d="M157.42 58.9534C156.885 58.9406 156.364 58.7852 155.91 58.5034C155.013 57.926 154.267 57.1431 153.733 56.2197C153.199 55.2962 152.893 54.2588 152.84 53.1934C152.84 51.6834 153.64 50.7034 154.84 50.7034C155.375 50.722 155.895 50.8806 156.35 51.1634C157.25 51.7355 158 52.5156 158.536 53.438C159.072 54.3603 159.378 55.3979 159.43 56.4634C159.47 57.9534 158.65 58.9534 157.42 58.9534ZM154.88 51.6734C154.21 51.6734 153.8 52.2434 153.8 53.1934C153.858 54.0875 154.122 54.9562 154.572 55.7315C155.021 56.5068 155.643 57.168 156.39 57.6634C156.692 57.8503 157.035 57.9602 157.39 57.9834C158.07 57.9834 158.47 57.4134 158.47 56.4634C158.412 55.569 158.148 54.7001 157.699 53.9247C157.25 53.1492 156.627 52.4882 155.88 51.9934C155.578 51.8053 155.235 51.6953 154.88 51.6734Z" fill="url(#paint20_linear_1226_20783)"/>
<path d="M174.6 8.06347C174.062 8.04518 173.538 7.88661 173.08 7.60348C172.182 7.02954 171.435 6.24882 170.9 5.3267C170.366 4.40458 170.061 3.3679 170.01 2.30348C170.01 0.813476 170.83 -0.186523 172.06 -0.186523C172.594 -0.173741 173.116 -0.0183838 173.57 0.263475C174.464 0.838878 175.209 1.61859 175.743 2.53834C176.276 3.45809 176.584 4.49154 176.64 5.55348C176.64 7.06348 175.82 8.06347 174.6 8.06347ZM172.06 0.783476C171.38 0.783476 170.98 1.34348 170.98 2.30348C171.037 3.19784 171.301 4.06672 171.751 4.84218C172.2 5.61764 172.823 6.27864 173.57 6.77348C173.871 6.9627 174.215 7.07277 174.57 7.09348C175.24 7.09348 175.65 6.52348 175.65 5.57348C175.592 4.67805 175.327 3.80832 174.875 3.03268C174.424 2.25704 173.799 1.59666 173.05 1.10348C172.752 0.915845 172.411 0.805834 172.06 0.783476Z" fill="url(#paint21_linear_1226_20783)"/>
<path d="M195.859 31.2634C195.324 31.2476 194.803 31.0888 194.349 30.8034C193.449 30.2312 192.7 29.4512 192.164 28.5288C191.628 27.6065 191.321 26.5689 191.27 25.5034C191.27 24.0134 192.09 23.0134 193.32 23.0134C193.855 23.0292 194.376 23.188 194.83 23.4734C195.729 24.0468 196.478 24.8272 197.013 25.7493C197.549 26.6713 197.856 27.7083 197.909 28.7734C197.909 30.2834 197.119 31.2634 195.859 31.2634ZM193.32 23.9834C192.64 23.9834 192.24 24.5534 192.24 25.5034C192.298 26.3976 192.562 27.2662 193.011 28.0415C193.461 28.8169 194.083 29.478 194.83 29.9734C195.131 30.1615 195.475 30.2715 195.83 30.2934C196.51 30.2934 196.909 29.7234 196.909 28.7734C196.851 27.8793 196.587 27.0106 196.138 26.2353C195.688 25.46 195.066 24.7988 194.32 24.3034C194.017 24.1165 193.674 24.0066 193.32 23.9834Z" fill="url(#paint22_linear_1226_20783)"/>
<path d="M148.219 90.4336C147.684 90.4178 147.162 90.259 146.709 89.9736C145.81 89.4002 145.061 88.6198 144.525 87.6977C143.989 86.7757 143.682 85.7387 143.629 84.6736C143.629 83.1836 144.459 82.1836 145.629 82.1836C146.164 82.1994 146.686 82.3582 147.139 82.6436C148.039 83.2158 148.789 83.9959 149.325 84.9182C149.861 85.8405 150.167 86.8781 150.219 87.9436C150.269 89.4336 149.449 90.4336 148.219 90.4336ZM145.679 83.1536C145.009 83.1536 144.599 83.7236 144.599 84.6736C144.657 85.5678 144.921 86.4364 145.371 87.2117C145.82 87.9871 146.442 88.6482 147.189 89.1436C147.491 89.3305 147.834 89.4404 148.189 89.4636C148.869 89.4636 149.269 88.8936 149.269 87.9436C149.21 87.0494 148.946 86.1808 148.497 85.4055C148.048 84.6301 147.426 83.969 146.679 83.4736C146.377 83.2855 146.034 83.1756 145.679 83.1536Z" fill="url(#paint23_radial_1226_20783)"/>
<path d="M216.34 49.4834C215.805 49.4648 215.284 49.3062 214.83 49.0234C213.931 48.45 213.182 47.6696 212.646 46.7476C212.11 45.8255 211.803 44.7885 211.75 43.7234C211.75 42.2334 212.58 41.2334 213.75 41.2334C214.284 41.2462 214.806 41.4015 215.26 41.6834C216.16 42.2584 216.909 43.0405 217.445 43.9643C217.981 44.8881 218.288 45.9267 218.34 46.9934C218.39 48.4834 217.57 49.4834 216.34 49.4834ZM213.8 42.2034C213.13 42.2034 212.72 42.7634 212.72 43.7234C212.778 44.6162 213.043 45.4834 213.492 46.2571C213.941 47.0308 214.564 47.6901 215.31 48.1834C215.61 48.3769 215.954 48.4906 216.31 48.5134C216.99 48.5134 217.39 47.9434 217.39 46.9934C217.333 46.1065 217.072 45.2447 216.628 44.4747C216.184 43.7048 215.569 43.0474 214.83 42.5534C214.523 42.35 214.168 42.2294 213.8 42.2034Z" fill="url(#paint24_linear_1226_20783)"/>
<path d="M240.84 34.8435C240.306 34.8307 239.784 34.6754 239.33 34.3935C238.43 33.8185 237.681 33.0364 237.145 32.1126C236.609 31.1888 236.302 30.1502 236.25 29.0835C236.25 27.5935 237.07 26.5935 238.25 26.5935C238.785 26.6121 239.306 26.7708 239.76 27.0535C240.658 27.6274 241.405 28.4082 241.939 29.3303C242.473 30.2524 242.779 31.2891 242.83 32.3535C242.88 33.8435 242.06 34.8435 240.84 34.8435ZM238.3 27.5535C237.62 27.5535 237.22 28.1235 237.22 29.0735C237.277 29.9694 237.54 30.84 237.99 31.6172C238.439 32.3944 239.062 33.0571 239.81 33.5535C240.112 33.7416 240.455 33.8515 240.81 33.8735C241.48 33.8735 241.89 33.3035 241.89 32.3535C241.83 31.4597 241.565 30.5917 241.116 29.8165C240.667 29.0414 240.046 28.38 239.3 27.8835C238.999 27.6931 238.655 27.5797 238.3 27.5535Z" fill="url(#paint25_linear_1226_20783)"/>
<path d="M280.91 92.2734C280.375 92.2576 279.853 92.0988 279.4 91.8134C278.501 91.2407 277.753 90.4603 277.219 89.5379C276.684 88.6155 276.38 87.5782 276.33 86.5134C276.33 85.0234 277.15 84.0234 278.33 84.0234C278.865 84.0392 279.387 84.1981 279.84 84.4834C280.74 85.0556 281.49 85.8357 282.026 86.758C282.562 87.6803 282.869 88.7179 282.92 89.7834C282.96 91.2734 282.12 92.2734 280.91 92.2734ZM278.37 84.9934C277.7 84.9934 277.29 85.5634 277.29 86.5134C277.348 87.4076 277.613 88.2762 278.062 89.0516C278.511 89.8269 279.133 90.488 279.88 90.9834C280.182 91.1704 280.526 91.2802 280.88 91.3034C281.56 91.3034 281.96 90.7334 281.96 89.7834C281.902 88.8893 281.637 88.0207 281.188 87.2453C280.739 86.47 280.117 85.8088 279.37 85.3134C279.068 85.1254 278.725 85.0154 278.37 84.9934Z" fill="url(#paint26_linear_1226_20783)"/>
<path d="M290.93 162.404C290.395 162.385 289.874 162.226 289.42 161.944C288.52 161.371 287.77 160.591 287.234 159.669C286.698 158.747 286.391 157.709 286.34 156.644C286.34 155.154 287.16 154.154 288.34 154.154C288.874 154.166 289.396 154.322 289.85 154.604C290.75 155.179 291.499 155.961 292.035 156.884C292.571 157.808 292.878 158.847 292.93 159.914C292.98 161.424 292.17 162.404 290.93 162.404ZM288.39 155.124C287.71 155.124 287.31 155.684 287.31 156.644C287.368 157.536 287.633 158.404 288.082 159.177C288.531 159.951 289.153 160.61 289.9 161.104C290.199 161.298 290.544 161.412 290.9 161.434C291.58 161.434 291.98 160.864 291.98 159.914C291.921 159.019 291.657 158.151 291.208 157.375C290.759 156.6 290.137 155.939 289.39 155.444C289.088 155.257 288.744 155.147 288.39 155.124Z" fill="url(#paint27_linear_1226_20783)"/>
<path d="M271.26 314.073C270.187 314.096 269.126 313.841 268.18 313.333C267.779 313.15 267.434 312.862 267.183 312.499C266.931 312.137 266.782 311.713 266.75 311.273C266.785 310.845 266.934 310.433 267.182 310.081C267.43 309.729 267.768 309.451 268.16 309.273C269.113 308.803 270.162 308.558 271.225 308.558C272.288 308.558 273.337 308.803 274.29 309.273C274.703 309.434 275.058 309.716 275.308 310.082C275.558 310.448 275.692 310.88 275.692 311.323C275.692 311.766 275.558 312.199 275.308 312.565C275.058 312.931 274.703 313.213 274.29 313.373C273.355 313.858 272.313 314.099 271.26 314.073ZM271.26 309.463C270.366 309.441 269.482 309.648 268.69 310.063C268.1 310.413 267.77 310.833 267.77 311.273C267.81 311.54 267.917 311.792 268.081 312.006C268.246 312.219 268.462 312.387 268.71 312.493C269.516 312.877 270.397 313.076 271.29 313.076C272.183 313.076 273.064 312.877 273.87 312.493C274.115 312.392 274.33 312.228 274.491 312.017C274.653 311.806 274.756 311.557 274.79 311.293C274.753 311.026 274.648 310.773 274.485 310.557C274.322 310.342 274.107 310.172 273.86 310.063C273.042 309.641 272.13 309.434 271.21 309.463H271.26Z" fill="url(#paint28_linear_1226_20783)"/>
<path d="M219.52 307.464C218.445 307.486 217.383 307.228 216.44 306.714C216.026 306.555 215.67 306.275 215.419 305.909C215.168 305.544 215.033 305.112 215.033 304.668C215.033 304.225 215.168 303.793 215.419 303.428C215.67 303.062 216.026 302.782 216.44 302.624C217.393 302.153 218.441 301.908 219.505 301.908C220.568 301.908 221.616 302.153 222.57 302.624C222.97 302.808 223.312 303.096 223.562 303.459C223.812 303.821 223.96 304.244 223.99 304.684C223.956 305.112 223.809 305.523 223.563 305.875C223.317 306.227 222.98 306.506 222.59 306.684C221.652 307.208 220.594 307.477 219.52 307.464ZM219.52 302.853C218.629 302.83 217.747 303.037 216.96 303.453C216.36 303.803 216.04 304.223 216.04 304.663C216.078 304.929 216.184 305.18 216.347 305.394C216.509 305.607 216.724 305.776 216.97 305.883C217.777 306.269 218.66 306.469 219.555 306.469C220.449 306.469 221.332 306.269 222.14 305.883C222.384 305.78 222.597 305.615 222.758 305.405C222.919 305.195 223.023 304.946 223.06 304.684C223.022 304.415 222.915 304.161 222.751 303.945C222.586 303.73 222.369 303.561 222.12 303.453C221.302 303.03 220.39 302.823 219.47 302.853H219.52Z" fill="url(#paint29_linear_1226_20783)"/>
<path d="M185.9 265.473C184.825 265.493 183.765 265.234 182.82 264.723C182.407 264.563 182.052 264.281 181.802 263.915C181.552 263.549 181.418 263.117 181.418 262.673C181.418 262.23 181.552 261.798 181.802 261.432C182.052 261.066 182.407 260.784 182.82 260.623C183.774 260.158 184.822 259.917 185.885 259.917C186.947 259.917 187.995 260.158 188.95 260.623C189.349 260.808 189.692 261.096 189.942 261.458C190.192 261.821 190.34 262.244 190.37 262.683C190.334 263.111 190.186 263.521 189.94 263.873C189.694 264.224 189.359 264.504 188.969 264.683C188.033 265.211 186.974 265.483 185.9 265.473ZM185.9 260.863C185.009 260.84 184.127 261.047 183.339 261.463C183.094 261.565 182.88 261.729 182.719 261.94C182.557 262.151 182.454 262.4 182.419 262.663C182.456 262.93 182.561 263.182 182.724 263.396C182.887 263.609 183.103 263.777 183.349 263.883C184.157 264.269 185.04 264.469 185.935 264.469C186.829 264.469 187.712 264.269 188.52 263.883C189.11 263.533 189.44 263.113 189.44 262.673C189.399 262.407 189.291 262.155 189.127 261.942C188.963 261.729 188.747 261.56 188.5 261.453C187.683 261.028 186.769 260.825 185.849 260.863H185.9Z" fill="url(#paint30_linear_1226_20783)"/>
<path d="M187.83 320.364C186.756 320.381 185.696 320.123 184.75 319.614C184.352 319.429 184.011 319.142 183.761 318.782C183.511 318.421 183.363 318.001 183.33 317.564C183.36 317.127 183.506 316.706 183.754 316.345C184.002 315.985 184.343 315.697 184.74 315.514C185.695 315.049 186.743 314.807 187.805 314.807C188.867 314.807 189.915 315.049 190.87 315.514C191.269 315.699 191.611 315.988 191.86 316.35C192.11 316.713 192.258 317.135 192.29 317.574C192.255 318.002 192.106 318.414 191.858 318.766C191.61 319.118 191.272 319.396 190.88 319.574C189.95 320.099 188.898 320.371 187.83 320.364ZM187.78 315.754C186.89 315.733 186.009 315.939 185.22 316.354C184.976 316.457 184.763 316.622 184.601 316.832C184.44 317.042 184.336 317.291 184.3 317.554C184.338 317.822 184.444 318.076 184.609 318.292C184.774 318.507 184.991 318.676 185.24 318.784C186.046 319.167 186.927 319.367 187.82 319.367C188.713 319.367 189.594 319.167 190.4 318.784C190.99 318.434 191.32 318.014 191.32 317.574C191.28 317.307 191.173 317.055 191.009 316.841C190.844 316.628 190.628 316.46 190.38 316.354C189.58 315.932 188.684 315.725 187.78 315.754Z" fill="url(#paint31_linear_1226_20783)"/>
<path d="M122.309 310.693C121.232 310.711 120.168 310.453 119.219 309.943C118.82 309.758 118.478 309.469 118.229 309.107C117.979 308.744 117.831 308.322 117.799 307.883C117.835 307.456 117.984 307.046 118.229 306.695C118.475 306.344 118.81 306.064 119.199 305.883C120.155 305.417 121.205 305.174 122.269 305.174C123.333 305.174 124.383 305.417 125.339 305.883C125.737 306.069 126.079 306.358 126.329 306.72C126.579 307.082 126.727 307.505 126.759 307.943C126.722 308.372 126.572 308.783 126.324 309.134C126.076 309.485 125.74 309.765 125.349 309.943C124.416 310.449 123.37 310.707 122.309 310.693ZM122.249 306.073C121.358 306.056 120.476 306.266 119.689 306.683C119.445 306.787 119.232 306.951 119.07 307.162C118.909 307.372 118.805 307.621 118.769 307.883C118.807 308.151 118.913 308.404 119.078 308.618C119.243 308.831 119.46 308.999 119.709 309.103C120.513 309.494 121.395 309.696 122.289 309.696C123.183 309.696 124.065 309.494 124.869 309.103C125.113 309 125.326 308.835 125.487 308.625C125.649 308.415 125.753 308.166 125.789 307.903C125.751 307.636 125.645 307.383 125.48 307.169C125.315 306.955 125.098 306.788 124.849 306.683C124.049 306.259 123.154 306.049 122.249 306.073Z" fill="url(#paint32_linear_1226_20783)"/>
<path d="M98.1992 280.464C97.1254 280.48 96.0652 280.222 95.1192 279.714C94.72 279.531 94.3774 279.244 94.1275 278.884C93.8776 278.523 93.7297 278.101 93.6992 277.664C93.7343 277.235 93.8835 276.823 94.1315 276.471C94.3794 276.12 94.717 275.841 95.1092 275.664C96.0614 275.19 97.1106 274.943 98.1742 274.943C99.2378 274.943 100.287 275.19 101.239 275.664C101.639 275.848 101.982 276.136 102.232 276.499C102.482 276.861 102.629 277.284 102.659 277.724C102.624 278.151 102.476 278.562 102.23 278.913C101.984 279.264 101.649 279.544 101.259 279.724C100.32 280.23 99.2659 280.485 98.1992 280.464ZM98.1992 275.854C97.3053 275.83 96.4203 276.037 95.6292 276.454C95.0392 276.804 94.7092 277.224 94.7092 277.664C94.7488 277.93 94.856 278.182 95.0205 278.396C95.185 278.609 95.4015 278.777 95.6492 278.884C96.4552 279.267 97.3365 279.467 98.2292 279.467C99.1219 279.467 100.003 279.267 100.809 278.884C101.399 278.534 101.729 278.114 101.729 277.684C101.691 277.415 101.585 277.161 101.42 276.946C101.256 276.73 101.038 276.561 100.789 276.454C99.9666 276.025 99.0463 275.818 98.1192 275.854H98.1992Z" fill="url(#paint33_linear_1226_20783)"/>
<path d="M35.8596 302.673C34.7825 302.691 33.7187 302.433 32.7697 301.923C32.371 301.738 32.0291 301.449 31.7795 301.087C31.5298 300.724 31.3814 300.302 31.3496 299.863C31.3867 299.435 31.5368 299.024 31.7845 298.673C32.0322 298.322 32.3687 298.042 32.7596 297.863C33.7128 297.393 34.7616 297.148 35.8246 297.148C36.8877 297.148 37.9365 297.393 38.8896 297.863C39.3025 298.024 39.6572 298.306 39.9073 298.672C40.1574 299.038 40.2912 299.47 40.2912 299.913C40.2912 300.357 40.1574 300.789 39.9073 301.155C39.6572 301.521 39.3025 301.803 38.8896 301.964C37.9555 302.451 36.9133 302.696 35.8596 302.673ZM35.8596 298.053C34.965 298.034 34.0803 298.244 33.2896 298.663C33.0455 298.767 32.8323 298.932 32.671 299.142C32.5097 299.352 32.4059 299.601 32.3696 299.863C32.4074 300.131 32.5138 300.384 32.6786 300.598C32.8434 300.811 33.0608 300.979 33.3096 301.083C34.1137 301.474 34.9959 301.676 35.8896 301.676C36.7834 301.676 37.6655 301.474 38.4696 301.083C38.7149 300.982 38.9291 300.818 39.0906 300.607C39.2522 300.396 39.3553 300.147 39.3896 299.883C39.3519 299.618 39.2466 299.366 39.0838 299.152C38.921 298.939 38.7061 298.77 38.4597 298.663C37.6451 298.231 36.7312 298.021 35.8096 298.053H35.8596Z" fill="url(#paint34_linear_1226_20783)"/>
<path d="M114.76 252.014C113.687 252.036 112.626 251.781 111.68 251.274C111.28 251.089 110.937 250.801 110.687 250.439C110.437 250.076 110.29 249.653 110.26 249.214C110.293 248.785 110.44 248.374 110.686 248.022C110.933 247.67 111.269 247.391 111.66 247.214C112.613 246.743 113.662 246.498 114.725 246.498C115.788 246.498 116.837 246.743 117.79 247.214C118.203 247.374 118.557 247.656 118.807 248.022C119.058 248.388 119.191 248.82 119.191 249.264C119.191 249.707 119.058 250.139 118.807 250.505C118.557 250.871 118.203 251.153 117.79 251.314C116.855 251.798 115.813 252.039 114.76 252.014ZM114.76 247.404C113.866 247.382 112.981 247.588 112.19 248.004C111.6 248.354 111.27 248.774 111.27 249.214C111.311 249.48 111.419 249.731 111.583 249.944C111.748 250.157 111.963 250.326 112.21 250.434C113.017 250.819 113.9 251.019 114.795 251.019C115.689 251.019 116.573 250.819 117.38 250.434C117.623 250.331 117.835 250.166 117.995 249.955C118.155 249.745 118.256 249.496 118.29 249.234C118.253 248.967 118.148 248.715 117.985 248.501C117.822 248.288 117.607 248.12 117.36 248.014C116.545 247.581 115.631 247.371 114.71 247.404H114.76Z" fill="url(#paint35_linear_1226_20783)"/>
<path d="M4.49915 248.913C3.42519 248.931 2.36461 248.673 1.41913 248.163C1.00624 248.003 0.651572 247.721 0.401489 247.355C0.151407 246.989 0.0175781 246.556 0.0175781 246.113C0.0175781 245.67 0.151407 245.237 0.401489 244.872C0.651572 244.506 1.00624 244.224 1.41913 244.063C2.37527 243.597 3.42521 243.354 4.48914 243.354C5.55306 243.354 6.603 243.597 7.55914 244.063C7.95718 244.25 8.29845 244.539 8.54797 244.901C8.79749 245.263 8.94627 245.685 8.97913 246.123C8.94406 246.552 8.79483 246.964 8.54688 247.316C8.29892 247.667 7.96133 247.946 7.56915 248.123C6.63296 248.652 5.5741 248.924 4.49915 248.913ZM4.49915 244.303C3.60841 244.28 2.72667 244.487 1.93915 244.903C1.69385 245.005 1.47963 245.169 1.31812 245.38C1.1566 245.591 1.0535 245.84 1.01917 246.103C1.0562 246.371 1.16111 246.624 1.32391 246.84C1.48672 247.055 1.70198 247.225 1.94916 247.333C2.75641 247.719 3.63959 247.919 4.53412 247.919C5.42865 247.919 6.31189 247.719 7.11914 247.333C7.70914 246.983 8.03912 246.563 8.03912 246.123C7.99953 245.857 7.89238 245.605 7.72784 245.391C7.56331 245.178 7.34687 245.01 7.09912 244.903C6.28183 244.48 5.36932 244.273 4.44916 244.303H4.49915Z" fill="url(#paint36_linear_1226_20783)"/>
<path d="M4.63867 192.213C3.56456 192.233 2.50364 191.974 1.55865 191.463C1.1587 191.279 0.81574 190.991 0.565857 190.628C0.315974 190.266 0.168424 189.843 0.138672 189.403C0.172803 188.976 0.320527 188.565 0.56665 188.213C0.812774 187.861 1.14833 187.582 1.53864 187.403C2.49346 186.938 3.54159 186.697 4.60364 186.697C5.66569 186.697 6.71381 186.938 7.66864 187.403C8.08153 187.564 8.43626 187.846 8.68634 188.212C8.93642 188.578 9.07019 189.01 9.07019 189.453C9.07019 189.897 8.93642 190.329 8.68634 190.695C8.43626 191.061 8.08153 191.343 7.66864 191.503C6.73621 191.996 5.69284 192.24 4.63867 192.213ZM4.63867 187.603C3.74489 187.581 2.86027 187.788 2.06866 188.203C1.8245 188.307 1.61135 188.472 1.45007 188.682C1.2888 188.892 1.18494 189.141 1.14868 189.403C1.18546 189.671 1.29154 189.924 1.45642 190.138C1.6213 190.352 1.83921 190.52 2.08862 190.623C2.89467 191.013 3.77838 191.215 4.67365 191.215C5.56891 191.215 6.45262 191.013 7.25867 190.623C7.5021 190.521 7.71427 190.356 7.87396 190.145C8.03365 189.934 8.13524 189.686 8.16864 189.423C8.13092 189.158 8.02562 188.906 7.86279 188.692C7.69997 188.479 7.48507 188.31 7.23865 188.203C6.4231 187.775 5.50926 187.568 4.58862 187.603H4.63867Z" fill="url(#paint37_linear_1226_20783)"/>
</g>
<g style="mix-blend-mode:screen">
<path d="M279.169 129.823C278.947 129.82 278.729 129.758 278.539 129.643L264.999 121.823C264.67 121.616 264.396 121.333 264.201 120.997C264.006 120.66 263.895 120.282 263.879 119.893V116.973C263.879 115.363 264.729 114.323 266.039 114.323C266.31 114.325 266.579 114.365 266.839 114.443C267.609 114.729 268.46 114.7 269.209 114.363C269.238 114.333 269.259 114.295 269.269 114.253C269.32 113.875 269.231 113.491 269.019 113.173C268.451 112.188 267.988 111.146 267.639 110.063C267.019 109.501 266.621 108.734 266.519 107.903C266.482 107.631 266.531 107.354 266.658 107.111C266.785 106.867 266.985 106.669 267.229 106.543C267.489 103.173 269.229 102.203 272.229 103.943C273.617 104.722 274.772 105.858 275.573 107.233C276.375 108.608 276.795 110.172 276.789 111.763C277.231 112.314 277.474 112.997 277.479 113.703C277.486 113.867 277.457 114.03 277.395 114.182C277.333 114.334 277.239 114.47 277.119 114.582C277 114.694 276.857 114.779 276.702 114.831C276.546 114.883 276.382 114.901 276.219 114.883C275.89 115.48 275.406 115.978 274.819 116.323C274.769 116.323 274.739 116.423 274.729 116.473C274.689 116.825 274.774 117.178 274.969 117.473C275.665 118.647 276.547 119.701 277.579 120.593C278.328 121.244 278.939 122.039 279.376 122.931C279.812 123.822 280.065 124.792 280.119 125.783V128.703C280.129 128.974 280.044 129.239 279.879 129.453C279.798 129.566 279.691 129.659 279.568 129.723C279.445 129.787 279.308 129.821 279.169 129.823ZM266.039 115.213C265.249 115.213 264.779 115.873 264.779 116.973V119.893C264.794 120.124 264.862 120.348 264.978 120.547C265.095 120.747 265.256 120.917 265.449 121.043L278.989 128.863C279.149 128.953 279.179 128.923 279.179 128.923C279.191 128.864 279.191 128.803 279.179 128.743V125.823C279.125 124.962 278.901 124.121 278.52 123.347C278.139 122.573 277.608 121.882 276.959 121.313C275.852 120.357 274.907 119.23 274.159 117.973C273.829 117.461 273.708 116.842 273.819 116.243C273.853 116.099 273.916 115.962 274.003 115.842C274.091 115.722 274.202 115.62 274.329 115.543C274.853 115.228 275.268 114.761 275.519 114.203C275.566 114.108 275.645 114.033 275.741 113.989C275.838 113.945 275.946 113.936 276.049 113.963C276.105 113.973 276.163 113.973 276.219 113.963C276.539 113.963 276.539 113.773 276.539 113.683C276.539 113.16 276.347 112.655 275.999 112.263C275.955 112.225 275.919 112.177 275.895 112.124C275.871 112.07 275.859 112.012 275.859 111.953C275.893 110.485 275.528 109.035 274.802 107.758C274.076 106.481 273.018 105.426 271.739 104.703C271.142 104.302 270.455 104.054 269.739 103.983C269.369 103.983 268.249 103.983 268.119 106.983C268.116 107.049 268.099 107.113 268.07 107.171C268.041 107.23 267.999 107.282 267.949 107.323C267.896 107.361 267.835 107.387 267.772 107.401C267.708 107.414 267.643 107.415 267.579 107.403C267.579 107.403 267.439 107.553 267.439 107.923C267.554 108.538 267.875 109.096 268.349 109.503C268.409 109.557 268.454 109.626 268.479 109.703C268.811 110.751 269.261 111.757 269.819 112.703C269.988 112.977 270.102 113.281 270.154 113.598C270.205 113.916 270.193 114.24 270.119 114.553C270.085 114.692 270.022 114.821 269.934 114.934C269.846 115.046 269.735 115.138 269.609 115.203C268.666 115.641 267.59 115.695 266.609 115.353C266.428 115.276 266.235 115.228 266.039 115.213Z" fill="url(#paint38_linear_1226_20783)"/>
</g>
<path opacity="0.9" d="M211.728 299.364C212.72 301.204 213.144 303.297 212.946 305.378C212.748 307.459 211.938 309.435 210.617 311.055C209.297 312.676 207.525 313.869 205.527 314.482C203.528 315.096 201.393 315.103 199.39 314.503C197.388 313.903 195.608 312.723 194.276 311.112C192.944 309.5 192.12 307.53 191.908 305.451C191.696 303.371 192.105 301.275 193.084 299.428C194.063 297.581 195.568 296.065 197.408 295.074C199.877 293.746 202.771 293.452 205.456 294.257C208.14 295.061 210.396 296.898 211.728 299.364Z" fill="url(#paint39_radial_1226_20783)"/>
<path d="M209.728 279.953C210.72 281.794 211.144 283.887 210.946 285.968C210.748 288.049 209.938 290.025 208.617 291.645C207.297 293.266 205.525 294.458 203.527 295.072C201.528 295.686 199.393 295.693 197.39 295.093C195.388 294.493 193.608 293.313 192.276 291.702C190.944 290.09 190.12 288.12 189.908 286.04C189.696 283.961 190.105 281.865 191.084 280.018C192.063 278.171 193.568 276.655 195.408 275.663C196.63 275.005 197.97 274.593 199.351 274.453C200.732 274.312 202.127 274.444 203.457 274.843C204.787 275.241 206.025 275.897 207.101 276.774C208.177 277.651 209.07 278.731 209.728 279.953Z" fill="url(#paint40_radial_1226_20783)"/>
<path d="M164.989 192.134L142.119 204.474L187.549 288.794V288.884C189.549 292.564 196.269 292.784 202.549 289.384C208.829 285.984 212.379 280.234 210.399 276.554L210.349 276.464L164.989 192.134Z" fill="url(#paint41_linear_1226_20783)"/>
<g style="mix-blend-mode:color-dodge">
<path d="M164.989 192.134L142.119 204.474L187.549 288.794V288.884C189.549 292.564 196.269 292.784 202.549 289.384C208.829 285.984 212.379 280.234 210.399 276.554L210.349 276.464L164.989 192.134Z" fill="#04477E"/>
</g>
<path d="M165.009 192.183C167.009 195.863 163.479 201.603 157.159 205.013C150.839 208.423 144.159 208.193 142.159 204.513C140.159 200.833 143.699 195.093 150.019 191.683C156.339 188.273 163.029 188.553 165.009 192.183Z" fill="url(#paint42_linear_1226_20783)"/>
<path d="M149.999 175.434L136.379 182.764L146.069 200.764C146.069 200.764 146.069 200.764 146.069 200.824C147.249 203.014 151.259 203.144 155.019 201.124C158.779 199.104 160.869 195.674 159.689 193.484L149.999 175.434Z" fill="url(#paint43_linear_1226_20783)"/>
<g style="mix-blend-mode:screen">
<path d="M249.239 121.553C245.763 119.441 242.766 116.628 240.439 113.293L240.299 113.143L240.059 113.003H239.959C237.369 113.583 234.329 112.923 231.169 111.103L230.479 110.693L230.699 113.563C231.349 122.283 234.839 129.273 239.889 137.073L239.999 137.243L240.409 137.483H240.509C245.559 135.483 249.049 132.543 249.709 124.583L249.919 121.963L249.239 121.553ZM248.939 124.033C248.319 131.623 244.999 134.503 240.199 136.423C235.399 128.953 232.079 122.253 231.459 113.943L231.319 112.093C234.509 113.903 237.569 114.573 240.199 114.093C242.578 117.422 245.597 120.244 249.079 122.393L248.939 124.033ZM239.939 117.743C238.196 118.019 236.412 117.634 234.939 116.663L234.369 116.323L234.509 118.203C234.889 123.323 236.939 127.423 239.889 131.993L239.999 132.163L240.359 132.363H240.469C243.469 131.203 245.469 129.473 245.859 124.793L245.999 123.083L245.569 122.833L245.499 123.233L245.419 122.753C243.447 121.546 241.745 119.946 240.419 118.053L240.299 117.903L240.059 117.763L239.939 117.743ZM245.139 123.433L245.079 124.233C244.729 128.513 242.869 130.173 240.169 131.233C237.469 127.023 235.619 123.233 235.269 118.523L235.199 117.653C236.694 118.571 238.459 118.949 240.199 118.723C241.538 120.606 243.225 122.214 245.169 123.463L245.139 123.433Z" fill="url(#paint44_linear_1226_20783)"/>
</g>
<g style="mix-blend-mode:screen">
<path d="M270.939 202.323L258.669 195.243C257.949 194.773 257.349 194.139 256.918 193.394C256.487 192.649 256.238 191.813 256.189 190.953V180.043C256.189 178.573 257.189 177.923 258.409 178.483V174.553C258.409 171.473 260.589 170.233 263.279 171.773L266.339 173.553C267.755 174.469 268.934 175.707 269.78 177.165C270.626 178.623 271.116 180.26 271.209 181.943V185.873C271.858 186.358 272.393 186.979 272.777 187.692C273.16 188.406 273.383 189.195 273.429 190.003V200.913C273.429 202.483 272.309 203.123 270.939 202.323ZM258.669 179.553C257.759 179.033 257.019 179.453 257.019 180.493V191.403C257.05 191.975 257.216 192.531 257.503 193.026C257.789 193.522 258.189 193.942 258.669 194.253L270.939 201.333C271.849 201.863 272.589 201.443 272.589 200.393V189.553C272.556 188.982 272.39 188.427 272.103 187.932C271.817 187.437 271.418 187.017 270.939 186.703L270.369 186.373V181.453C270.292 180.064 269.89 178.713 269.195 177.507C268.501 176.302 267.533 175.277 266.369 174.513L263.309 172.743C261.089 171.453 259.309 172.483 259.309 175.033V179.913L258.669 179.553ZM268.669 185.303L261.029 180.893V176.893C261.029 175.023 262.349 174.273 264.029 175.213L265.769 176.213C266.636 176.765 267.36 177.513 267.881 178.398C268.403 179.283 268.707 180.278 268.769 181.303L268.669 185.303ZM261.869 180.413L267.869 183.853V180.853C267.83 180.123 267.619 179.413 267.252 178.78C266.885 178.147 266.374 177.61 265.759 177.213L264.019 176.213C262.849 175.543 261.909 176.083 261.909 177.413L261.869 180.413Z" fill="url(#paint45_linear_1226_20783)"/>
<path d="M265.989 195.553L263.619 194.183V191.413C263.011 190.621 262.662 189.661 262.619 188.663C262.619 187.253 263.619 186.663 264.839 187.393C265.483 187.814 266.019 188.379 266.404 189.045C266.79 189.71 267.014 190.456 267.059 191.223C267.059 192.103 266.659 192.683 266.059 192.783L265.989 195.553ZM264.459 193.703L265.159 194.103V191.713H265.399C265.879 191.713 266.189 191.353 266.189 190.713C266.162 190.235 266.024 189.769 265.784 189.354C265.544 188.939 265.21 188.586 264.809 188.323C264.049 187.883 263.429 188.243 263.429 189.113C263.468 189.818 263.746 190.489 264.219 191.013L264.459 191.273V193.703Z" fill="url(#paint46_linear_1226_20783)"/>
</g>
<g style="mix-blend-mode:screen">
<path d="M147.568 38.7334L152.298 41.4634V31.5534L147.568 28.8234V38.7334ZM148.408 30.2734L151.468 32.0334V40.0334L148.408 38.2634V30.2734ZM153.738 42.2734L158.478 45.0134V27.6634L153.738 24.9334V42.2734ZM154.578 26.3534L157.638 28.1234V43.5534L154.578 41.7834V26.3534ZM159.908 21.0234V45.8634L164.648 48.5534V23.7734L159.908 21.0234ZM163.808 47.1234L160.748 45.3634V22.4834L163.808 24.2534V47.1234Z" fill="url(#paint47_linear_1226_20783)"/>
</g>
<g style="mix-blend-mode:screen">
<path d="M206.419 69.1035C206.419 68.7435 206.419 68.3535 206.349 67.9135L208.809 67.6035L208.729 67.2135C208.457 65.9092 208.072 64.6311 207.579 63.3935L207.429 62.9935L204.619 62.1435C204.204 61.2997 203.733 60.4846 203.209 59.7035L203.879 56.8735L203.609 56.5435C202.778 55.4962 201.858 54.5225 200.859 53.6335L200.559 53.3735L199.049 55.3735C198.43 54.9099 197.759 54.5206 197.049 54.2135L195.549 50.5235L195.239 50.4435C194.347 50.1821 193.415 50.0872 192.489 50.1635H192.219L192.889 53.7635C192.366 53.9291 191.885 54.2054 191.479 54.5735L188.669 52.1835L188.519 52.4035C187.988 53.157 187.598 54.0007 187.369 54.8935L187.289 55.1935L189.749 58.3435C189.707 58.712 189.683 59.0825 189.679 59.4535C189.679 59.8135 189.679 60.2135 189.749 60.6435L187.289 60.9635L187.369 61.3535C187.644 62.657 188.029 63.9349 188.519 65.1735L188.669 65.5635L191.479 66.4135C191.888 67.2637 192.36 68.0825 192.889 68.8635L192.219 71.6935L192.489 72.0235C193.32 73.0676 194.24 74.0379 195.239 74.9235L195.549 75.1935L197.049 73.1935C197.668 73.657 198.339 74.0463 199.049 74.3535L200.549 78.0335L200.859 78.1235C201.752 78.38 202.683 78.4748 203.609 78.4035H203.879L203.209 74.8035C203.732 74.6378 204.213 74.3615 204.619 73.9935L207.429 76.3835L207.579 76.1635C208.116 75.4096 208.506 74.5615 208.729 73.6635L208.809 73.3635L206.349 70.2135C206.391 69.8449 206.415 69.4744 206.419 69.1035ZM207.829 73.2435C207.646 73.8805 207.369 74.487 207.009 75.0435L204.279 72.7135L204.119 72.8735C203.667 73.3217 203.105 73.6426 202.489 73.8035L202.259 73.8635L202.919 77.3735C202.246 77.4006 201.573 77.3333 200.919 77.1735L199.469 73.5535L199.199 73.4435C198.368 73.1154 197.59 72.6673 196.889 72.1135L196.619 71.9035L195.149 73.8035C194.44 73.1524 193.772 72.4577 193.149 71.7235L193.809 68.9635L193.579 68.6435C192.957 67.7545 192.412 66.8145 191.949 65.8335L191.789 65.4835L189.119 64.6835C188.785 63.7896 188.511 62.8742 188.299 61.9435L190.689 61.6435V61.3035C190.626 60.8462 190.592 60.3852 190.589 59.9235C190.589 59.4982 190.623 59.0736 190.689 58.6535V58.3635L188.299 55.2935C188.491 54.6785 188.767 54.093 189.119 53.5535L191.849 55.8835L192.009 55.7135C192.463 55.2685 193.025 54.9482 193.639 54.7835L193.869 54.7235L193.209 51.2135C193.882 51.1863 194.555 51.2536 195.209 51.4135L196.679 55.0135L196.949 55.1235C197.78 55.4515 198.558 55.8996 199.259 56.4535L199.529 56.6635L200.999 54.7635C201.713 55.4095 202.382 56.1045 202.999 56.8435L202.259 59.5535L202.489 59.8635C203.111 60.7558 203.656 61.6992 204.119 62.6835L204.279 63.0335L207.009 63.8535C207.348 64.7458 207.622 65.6615 207.829 66.5935L205.439 66.9035V67.2435C205.503 67.7008 205.536 68.1618 205.539 68.6235C205.538 69.0454 205.505 69.4667 205.439 69.8835V70.1835L207.829 73.2435ZM198.049 60.1235C196.049 58.9735 194.429 59.9035 194.429 62.1835C194.503 63.4327 194.869 64.6471 195.498 65.7291C196.127 66.8111 197 67.7305 198.049 68.4135C200.049 69.5635 201.659 68.6435 201.659 66.3535C201.586 65.1051 201.222 63.8913 200.595 62.8094C199.968 61.7274 199.096 60.8075 198.049 60.1235ZM198.049 67.4535C197.243 66.9308 196.571 66.2257 196.088 65.3953C195.605 64.5649 195.325 63.6325 195.269 62.6735C195.269 60.9135 196.519 60.2035 198.049 61.0835C198.852 61.6105 199.521 62.3182 200.002 63.1499C200.483 63.9817 200.763 64.9143 200.819 65.8735C200.819 67.6335 199.569 68.3435 198.049 67.4535Z" fill="url(#paint48_linear_1226_20783)"/>
</g>
<g style="mix-blend-mode:screen">
<path d="M201.529 185.053C200.84 183.828 199.853 182.797 198.659 182.053C198.25 181.754 197.768 181.569 197.264 181.518C196.759 181.468 196.25 181.552 195.789 181.763C195.374 182.051 195.044 182.445 194.835 182.904C194.625 183.364 194.544 183.871 194.599 184.373C194.678 185.777 195.086 187.143 195.792 188.359C196.497 189.575 197.48 190.608 198.659 191.373C199.068 191.673 199.55 191.857 200.055 191.908C200.559 191.959 201.068 191.875 201.529 191.663C201.943 191.377 202.272 190.984 202.481 190.527C202.69 190.069 202.773 189.564 202.719 189.063C202.676 187.646 202.266 186.265 201.529 185.053ZM201.009 190.763C200.63 190.931 200.214 190.998 199.802 190.956C199.39 190.913 198.996 190.764 198.659 190.523C197.674 189.907 196.862 189.05 196.299 188.033C195.689 187.052 195.345 185.928 195.299 184.773C195.256 184.36 195.326 183.942 195.502 183.565C195.678 183.187 195.954 182.866 196.299 182.633C196.678 182.46 197.097 182.392 197.512 182.434C197.926 182.476 198.322 182.628 198.659 182.873C199.624 183.504 200.427 184.351 201.006 185.348C201.584 186.345 201.921 187.463 201.989 188.613C202.033 189.027 201.966 189.444 201.793 189.823C201.621 190.201 201.35 190.526 201.009 190.763ZM209.759 202.553L205.969 196.003C205.8 195.676 205.567 195.386 205.283 195.151C205 194.916 204.672 194.74 204.319 194.633L203.609 193.403C205.189 191.623 204.909 187.793 202.879 184.303C201.875 182.485 200.422 180.953 198.659 179.853C197.059 178.933 195.559 178.783 194.429 179.423C192.099 180.753 192.099 185.103 194.429 189.123C195.436 190.937 196.889 192.465 198.649 193.563C199.641 194.204 200.828 194.474 201.999 194.323L202.709 195.553C202.624 195.91 202.613 196.281 202.676 196.642C202.74 197.003 202.877 197.347 203.079 197.653L206.869 204.193C207.137 204.675 207.523 205.08 207.989 205.373C208.15 205.488 208.338 205.558 208.534 205.578C208.731 205.597 208.929 205.565 209.109 205.483L209.759 205.113C210.369 204.743 210.369 203.553 209.759 202.553ZM209.239 204.223L208.589 204.593C208.269 204.783 207.709 204.453 207.389 203.903L203.599 197.363C203.469 197.183 203.388 196.973 203.364 196.752C203.339 196.531 203.372 196.308 203.459 196.103L203.599 195.913L202.119 193.243L201.869 193.323C201.326 193.438 200.766 193.442 200.221 193.335C199.677 193.229 199.159 193.014 198.699 192.703C197.153 191.745 195.879 190.406 194.999 188.813C192.949 185.283 192.949 181.453 194.999 180.293C195.596 180.023 196.254 179.915 196.906 179.982C197.557 180.049 198.18 180.287 198.709 180.673C200.257 181.638 201.533 182.98 202.419 184.573C204.259 187.753 204.419 191.263 202.889 192.733L202.699 192.913L204.229 195.563H204.469C204.685 195.592 204.89 195.674 205.065 195.804C205.24 195.933 205.379 196.105 205.469 196.303L209.259 202.843C209.579 203.393 209.579 204.013 209.239 204.203V204.223Z" fill="url(#paint49_linear_1226_20783)"/>
</g>
<path opacity="0.65" d="M240.34 195.853L155.6 146.853C150.6 143.953 152.78 139.593 152.78 132.853V106.993C152.78 100.303 156.85 97.2235 161.87 100.123L240.34 145.733C245.34 148.633 249.43 156.403 249.43 163.103V188.983C249.43 195.673 245.36 198.753 240.34 195.853Z" fill="url(#paint50_linear_1226_20783)"/>
<path opacity="0.8" d="M242.909 144.363L164.439 98.7534C163.67 98.2269 162.791 97.883 161.869 97.7478C160.947 97.6127 160.006 97.6898 159.119 97.9734C158.929 98.0534 156.399 99.3934 156.219 99.4934C157.769 98.7334 159.739 98.8734 161.879 100.113L240.349 145.723C245.349 148.613 249.439 156.393 249.439 163.093V188.973C249.439 193.143 247.849 195.913 245.439 196.703C245.725 196.688 246.002 196.594 246.239 196.433C246.349 196.363 249.099 194.813 249.239 194.733C250.969 193.523 252.039 191.043 252.039 187.603V161.733C251.999 155.033 247.929 147.263 242.909 144.363Z" fill="url(#paint51_linear_1226_20783)"/>
<path d="M238.25 179.353L153.6 130.444V109.833L238.25 158.733V179.353Z" fill="url(#paint52_linear_1226_20783)"/>
<path d="M155.53 129.724V110.943L153.6 109.833V130.444L238.25 179.353V177.513L155.53 129.724Z" fill="#364F87"/>
<path style="mix-blend-mode:screen" opacity="0.6" d="M240.77 145.554L162.3 99.9436C161.511 99.398 160.602 99.0497 159.65 98.9279C158.698 98.8061 157.731 98.9144 156.83 99.2436C158.362 99.0654 159.908 99.4184 161.21 100.244L239.68 145.854C244.68 148.744 248.77 156.524 248.77 163.224V189.104C248.77 193.104 247.35 195.724 245.16 196.674C247.96 196.224 249.86 193.344 249.86 188.774V162.884C249.86 156.184 245.79 148.414 240.77 145.554Z" fill="url(#paint53_radial_1226_20783)"/>
<mask id="mask0_1226_20783" style="mask-type:luminance" maskUnits="userSpaceOnUse" x="42" y="32" width="119" height="152">
<path d="M143.353 179.939C166.272 166.541 166.037 123.494 142.828 83.7919C119.618 44.0895 82.2233 22.7658 59.3039 36.1642C36.3845 49.5625 36.6197 92.6093 59.8293 132.312C83.0388 172.014 120.434 193.338 143.353 179.939Z" fill="white"/>
</mask>
<g mask="url(#mask0_1226_20783)">
<path opacity="0.65" d="M235.929 210.614L85.6489 123.844C78.7389 119.844 73.1289 109.144 73.1289 99.9337V64.3137C73.1289 55.1037 78.7389 50.8637 85.6489 54.8537L235.929 141.624C242.839 145.624 248.439 156.324 248.439 165.534V201.154C248.439 210.364 242.839 214.604 235.929 210.614Z" fill="url(#paint54_linear_1226_20783)"/>
<path opacity="0.8" d="M239.479 139.744L89.1891 52.9736C86.4591 51.3936 83.9291 51.1036 81.8691 51.8936C81.6091 51.9936 78.1191 53.8936 77.8691 53.9836C79.9991 52.9836 82.7091 53.1436 85.6591 54.8436L235.939 141.614C242.849 145.614 248.449 156.314 248.449 165.524V201.154C248.449 206.904 246.269 210.714 242.949 211.794C243.344 211.778 243.726 211.65 244.049 211.424C244.209 211.334 247.989 209.194 248.139 209.094C250.519 207.424 251.999 204.004 251.999 199.274V163.654C251.989 154.434 246.389 143.734 239.479 139.744Z" fill="url(#paint55_linear_1226_20783)"/>
<path d="M233.059 187.904L89.0293 104.814V76.4336L233.059 159.524V187.904Z" fill="url(#paint56_linear_1226_20783)"/>
<path d="M91.6893 103.814V77.9736L89.0293 76.4336V104.814L233.059 187.904V185.374L91.6893 103.814Z" fill="#6826FF"/>
<path style="mix-blend-mode:screen" opacity="0.6" d="M236.529 141.324L86.249 54.5535C83.409 52.9135 80.809 52.6835 78.709 53.5535C80.8116 53.3197 82.9306 53.8176 84.709 54.9635L234.999 141.734C241.909 145.734 247.509 156.434 247.509 165.644V201.264C247.509 206.694 245.509 210.384 242.509 211.684C246.369 211.074 248.979 207.104 248.979 200.814V165.234C249.039 156.014 243.439 145.314 236.529 141.324Z" fill="url(#paint57_radial_1226_20783)"/>
</g>
<path d="M110.05 174.694C75.5799 154.794 47.64 106.604 47.64 67.0535C47.64 51.1635 52.1499 39.0535 59.7799 31.6235C45.2499 36.3435 35.9199 51.3135 35.9199 74.1635C35.9199 113.714 63.92 161.914 98.33 181.814C118.95 193.714 137.24 192.814 148.6 181.664C137.99 185.114 124.6 183.104 110.05 174.694Z" fill="url(#paint58_linear_1226_20783)"/>
<path style="mix-blend-mode:screen" opacity="0.5" d="M143.353 179.939C166.272 166.541 166.037 123.494 142.828 83.7919C119.618 44.0895 82.2233 22.7658 59.3039 36.1642C36.3845 49.5625 36.6197 92.6093 59.8293 132.312C83.0388 172.014 120.434 193.338 143.353 179.939Z" fill="url(#paint59_radial_1226_20783)"/>
<path style="mix-blend-mode:multiply" d="M143.353 179.939C166.272 166.541 166.037 123.494 142.828 83.7919C119.618 44.0895 82.2233 22.7658 59.3039 36.1642C36.3845 49.5625 36.6197 92.6093 59.8293 132.312C83.0388 172.014 120.434 193.338 143.353 179.939Z" fill="url(#paint60_radial_1226_20783)"/>
<path d="M111.57 31.0234C94.57 21.2434 79.25 20.1234 68 26.2134C67.68 26.3834 51.54 35.3834 51 36.2134C62.48 27.5534 79.42 27.6634 98.33 38.5534C132.8 58.4534 160.74 106.643 160.74 146.193C160.74 166.373 153.46 180.403 141.74 186.663C142.806 186.339 143.83 185.889 144.79 185.323C145.12 185.143 156.12 178.473 156.45 178.273C167.29 171.643 173.96 157.963 173.96 138.643C173.98 99.1234 146.03 50.9234 111.57 31.0234Z" fill="url(#paint61_linear_1226_20783)"/>
<path d="M98.33 38.5534C63.87 18.6534 35.9199 34.5534 35.9199 74.1334C35.9199 113.713 63.92 161.883 98.33 181.783C132.74 201.683 160.74 185.783 160.74 146.193C160.74 106.603 132.8 58.4834 98.33 38.5534ZM97.9 177.033C66.08 158.663 40.2799 114.173 40.2799 77.6534C40.2799 41.1334 66.12 26.4634 97.9 44.8334C129.68 63.2034 155.51 107.703 155.51 144.213C155.51 180.723 129.72 195.443 97.9 177.063V177.033Z" fill="url(#paint62_linear_1226_20783)"/>
<path style="mix-blend-mode:screen" d="M101.329 37.0834C84.7989 27.5434 69.7889 26.2634 58.6289 31.8434C69.0289 28.9334 84.3389 30.5034 98.3289 38.5834C132.799 58.4834 160.739 106.673 160.739 146.223C160.739 166.823 150.739 181.593 138.639 187.653C153.869 183.393 163.739 168.233 163.739 144.733C163.739 105.183 135.799 56.9834 101.329 37.0834Z" fill="url(#paint63_radial_1226_20783)"/>
<path style="mix-blend-mode:screen" opacity="0.5" d="M93.1186 87.5534C103.141 77.4962 114.245 68.5787 126.229 60.9634C119.066 52.8294 110.679 45.8623 101.369 40.3134C68.7486 21.4834 42.3086 36.5534 42.3086 73.9834C42.3086 92.8134 48.9986 113.703 59.7986 132.213C68.641 115.764 79.8694 100.715 93.1186 87.5534Z" fill="url(#paint64_radial_1226_20783)"/>
<path style="mix-blend-mode:color-dodge" d="M107.529 165.964C107.529 170.172 106.281 174.287 103.942 177.786C101.604 181.286 98.2807 184.013 94.3922 185.624C90.5038 187.234 86.2251 187.656 82.0972 186.835C77.9693 186.014 74.1776 183.987 71.2015 181.011C68.2254 178.035 66.1987 174.243 65.3777 170.115C64.5566 165.987 64.978 161.708 66.5886 157.82C68.1992 153.932 70.9268 150.608 74.4262 148.27C77.9257 145.932 82.04 144.684 86.2487 144.684C89.0436 144.682 91.8114 145.232 94.3938 146.301C96.9762 147.37 99.3226 148.937 101.299 150.913C103.275 152.89 104.843 155.236 105.912 157.819C106.981 160.401 107.53 163.169 107.529 165.964Z" fill="url(#paint65_radial_1226_20783)"/>
<path style="mix-blend-mode:color-dodge" d="M181.999 149.033C181.999 153.243 180.751 157.357 178.412 160.857C176.074 164.357 172.75 167.084 168.861 168.695C164.972 170.305 160.692 170.726 156.564 169.904C152.436 169.082 148.644 167.054 145.669 164.077C142.693 161.1 140.667 157.307 139.847 153.179C139.027 149.05 139.45 144.771 141.062 140.883C142.674 136.995 145.403 133.672 148.904 131.335C152.405 128.998 156.52 127.751 160.729 127.753C163.524 127.753 166.29 128.304 168.871 129.373C171.453 130.443 173.798 132.011 175.773 133.987C177.748 135.963 179.315 138.309 180.383 140.891C181.452 143.472 182.001 146.239 181.999 149.033Z" fill="url(#paint66_radial_1226_20783)"/>
<path style="mix-blend-mode:color-dodge" d="M143.347 84.3442C144.597 57.5212 123.867 34.7629 97.0443 33.512C70.2213 32.2612 47.463 52.9914 46.2122 79.8144C44.9613 106.637 65.6916 129.396 92.5145 130.646C119.337 131.897 142.096 111.167 143.347 84.3442Z" fill="url(#paint67_radial_1226_20783)"/>
</g>
<defs>
<linearGradient id="paint0_linear_1226_20783" x1="77.0584" y1="160.034" x2="63.0585" y2="160.034" gradientUnits="userSpaceOnUse">
<stop stop-color="#9D73FE"/>
<stop offset="1" stop-color="#6826FF"/>
</linearGradient>
<linearGradient id="paint1_linear_1226_20783" x1="220" y1="92.8136" x2="206" y2="92.8136" gradientUnits="userSpaceOnUse">
<stop stop-color="#9D73FE"/>
<stop offset="1" stop-color="#6826FF"/>
</linearGradient>
<linearGradient id="paint2_linear_1226_20783" x1="146" y1="251.814" x2="136" y2="251.814" gradientUnits="userSpaceOnUse">
<stop stop-color="#9D73FE"/>
<stop offset="1" stop-color="#6826FF"/>
</linearGradient>
<linearGradient id="paint3_linear_1226_20783" x1="134" y1="206.814" x2="124" y2="206.814" gradientUnits="userSpaceOnUse">
<stop stop-color="#9D73FE"/>
<stop offset="1" stop-color="#6826FF"/>
</linearGradient>
<linearGradient id="paint4_linear_1226_20783" x1="18.9999" y1="215.814" x2="8.99992" y2="215.814" gradientUnits="userSpaceOnUse">
<stop stop-color="#9D73FE"/>
<stop offset="1" stop-color="#6826FF"/>
</linearGradient>
<linearGradient id="paint5_linear_1226_20783" x1="185" y1="88.8135" x2="175" y2="88.8135" gradientUnits="userSpaceOnUse">
<stop stop-color="#9D73FE"/>
<stop offset="1" stop-color="#6826FF"/>
</linearGradient>
<linearGradient id="paint6_linear_1226_20783" x1="55.9999" y1="196.814" x2="45.9999" y2="196.814" gradientUnits="userSpaceOnUse">
<stop stop-color="#9D73FE"/>
<stop offset="1" stop-color="#6826FF"/>
</linearGradient>
<linearGradient id="paint7_linear_1226_20783" x1="30.9999" y1="132.814" x2="20.9999" y2="132.814" gradientUnits="userSpaceOnUse">
<stop stop-color="#9D73FE"/>
<stop offset="1" stop-color="#6826FF"/>
</linearGradient>
<linearGradient id="paint8_linear_1226_20783" x1="227.028" y1="177.78" x2="113.349" y2="177.78" gradientUnits="userSpaceOnUse">
<stop stop-color="#9D73FE"/>
<stop offset="1" stop-color="#6826FF"/>
</linearGradient>
<linearGradient id="paint9_linear_1226_20783" x1="277.438" y1="194.831" x2="127.45" y2="194.831" gradientUnits="userSpaceOnUse">
<stop stop-color="#9D73FE"/>
<stop offset="1" stop-color="#6826FF"/>
</linearGradient>
<linearGradient id="paint10_linear_1226_20783" x1="268.938" y1="172.365" x2="192.878" y2="172.365" gradientUnits="userSpaceOnUse">
<stop stop-color="#9D73FE"/>
<stop offset="1" stop-color="#6826FF"/>
</linearGradient>
<linearGradient id="paint11_linear_1226_20783" x1="196.357" y1="142.01" x2="99.4074" y2="142.01" gradientUnits="userSpaceOnUse">
<stop stop-color="#9D73FE"/>
<stop offset="1" stop-color="#6826FF"/>
</linearGradient>
<linearGradient id="paint12_linear_1226_20783" x1="288.057" y1="228.059" x2="193.286" y2="228.059" gradientUnits="userSpaceOnUse">
<stop stop-color="#9D73FE"/>
<stop offset="1" stop-color="#6826FF"/>
</linearGradient>
<linearGradient id="paint13_linear_1226_20783" x1="147.658" y1="166.834" x2="6.25865" y2="166.834" gradientUnits="userSpaceOnUse">
<stop stop-color="#9D73FE"/>
<stop offset="1" stop-color="#6826FF"/>
</linearGradient>
<linearGradient id="paint14_linear_1226_20783" x1="195.117" y1="164.74" x2="37.7175" y2="164.74" gradientUnits="userSpaceOnUse">
<stop stop-color="#9D73FE"/>
<stop offset="1" stop-color="#6826FF"/>
</linearGradient>
<linearGradient id="paint15_linear_1226_20783" x1="185.318" y1="136.385" x2="118.451" y2="136.385" gradientUnits="userSpaceOnUse">
<stop stop-color="#9D73FE"/>
<stop offset="1" stop-color="#6826FF"/>
</linearGradient>
<linearGradient id="paint16_linear_1226_20783" x1="119.398" y1="108.054" x2="6.24911" y2="108.054" gradientUnits="userSpaceOnUse">
<stop stop-color="#9D73FE"/>
<stop offset="1" stop-color="#6826FF"/>
</linearGradient>
<linearGradient id="paint17_linear_1226_20783" x1="156.588" y1="153.13" x2="82.6986" y2="153.13" gradientUnits="userSpaceOnUse">
<stop stop-color="#9D73FE"/>
<stop offset="1" stop-color="#6826FF"/>
</linearGradient>
<linearGradient id="paint18_linear_1226_20783" x1="142.129" y1="8.07842" x2="135.539" y2="8.07842" gradientUnits="userSpaceOnUse">
<stop stop-color="#9D73FE"/>
<stop offset="1" stop-color="#6826FF"/>
</linearGradient>
<linearGradient id="paint19_linear_1226_20783" x1="81.9409" y1="6.86847" x2="75.3496" y2="6.86847" gradientUnits="userSpaceOnUse">
<stop stop-color="#9D73FE"/>
<stop offset="1" stop-color="#6826FF"/>
</linearGradient>
<linearGradient id="paint20_linear_1226_20783" x1="159.431" y1="54.8284" x2="152.84" y2="54.8284" gradientUnits="userSpaceOnUse">
<stop stop-color="#9D73FE"/>
<stop offset="1" stop-color="#6826FF"/>
</linearGradient>
<linearGradient id="paint21_linear_1226_20783" x1="176.64" y1="3.93852" x2="170.01" y2="3.93852" gradientUnits="userSpaceOnUse">
<stop stop-color="#9D73FE"/>
<stop offset="1" stop-color="#6826FF"/>
</linearGradient>
<linearGradient id="paint22_linear_1226_20783" x1="197.909" y1="27.1385" x2="191.269" y2="27.1385" gradientUnits="userSpaceOnUse">
<stop stop-color="#9D73FE"/>
<stop offset="1" stop-color="#6826FF"/>
</linearGradient>
<radialGradient id="paint23_radial_1226_20783" cx="0" cy="0" r="1" gradientUnits="userSpaceOnUse" gradientTransform="translate(146.949 86.3136) scale(3.73998 3.74)">
<stop stop-color="#43E8E1"/>
<stop offset="0.12" stop-color="#38C3BD"/>
<stop offset="0.36" stop-color="#268480"/>
<stop offset="0.57" stop-color="#17514F"/>
<stop offset="0.75" stop-color="#0D2D2C"/>
<stop offset="0.9" stop-color="#061717"/>
<stop offset="1" stop-color="#040F0F"/>
</radialGradient>
<linearGradient id="paint24_linear_1226_20783" x1="218.342" y1="45.3584" x2="211.75" y2="45.3584" gradientUnits="userSpaceOnUse">
<stop stop-color="#9D73FE"/>
<stop offset="1" stop-color="#6826FF"/>
</linearGradient>
<linearGradient id="paint25_linear_1226_20783" x1="242.832" y1="30.7186" x2="236.25" y2="30.7186" gradientUnits="userSpaceOnUse">
<stop stop-color="#9D73FE"/>
<stop offset="1" stop-color="#6826FF"/>
</linearGradient>
<linearGradient id="paint26_linear_1226_20783" x1="282.921" y1="88.1485" x2="276.33" y2="88.1485" gradientUnits="userSpaceOnUse">
<stop stop-color="#9D73FE"/>
<stop offset="1" stop-color="#6826FF"/>
</linearGradient>
<linearGradient id="paint27_linear_1226_20783" x1="292.932" y1="158.279" x2="286.34" y2="158.279" gradientUnits="userSpaceOnUse">
<stop stop-color="#9D73FE"/>
<stop offset="1" stop-color="#6826FF"/>
</linearGradient>
<linearGradient id="paint28_linear_1226_20783" x1="275.691" y1="311.316" x2="266.75" y2="311.316" gradientUnits="userSpaceOnUse">
<stop stop-color="#9D73FE"/>
<stop offset="1" stop-color="#6826FF"/>
</linearGradient>
<linearGradient id="paint29_linear_1226_20783" x1="223.989" y1="304.686" x2="215.033" y2="304.686" gradientUnits="userSpaceOnUse">
<stop stop-color="#9D73FE"/>
<stop offset="1" stop-color="#6826FF"/>
</linearGradient>
<linearGradient id="paint30_linear_1226_20783" x1="190.369" y1="262.696" x2="181.418" y2="262.696" gradientUnits="userSpaceOnUse">
<stop stop-color="#9D73FE"/>
<stop offset="1" stop-color="#6826FF"/>
</linearGradient>
<linearGradient id="paint31_linear_1226_20783" x1="192.29" y1="317.586" x2="183.33" y2="317.586" gradientUnits="userSpaceOnUse">
<stop stop-color="#9D73FE"/>
<stop offset="1" stop-color="#6826FF"/>
</linearGradient>
<linearGradient id="paint32_linear_1226_20783" x1="126.759" y1="307.934" x2="117.799" y2="307.934" gradientUnits="userSpaceOnUse">
<stop stop-color="#9D73FE"/>
<stop offset="1" stop-color="#6826FF"/>
</linearGradient>
<linearGradient id="paint33_linear_1226_20783" x1="102.659" y1="277.704" x2="93.6991" y2="277.704" gradientUnits="userSpaceOnUse">
<stop stop-color="#9D73FE"/>
<stop offset="1" stop-color="#6826FF"/>
</linearGradient>
<linearGradient id="paint34_linear_1226_20783" x1="40.2911" y1="299.911" x2="31.3495" y2="299.911" gradientUnits="userSpaceOnUse">
<stop stop-color="#9D73FE"/>
<stop offset="1" stop-color="#6826FF"/>
</linearGradient>
<linearGradient id="paint35_linear_1226_20783" x1="119.191" y1="249.257" x2="110.26" y2="249.257" gradientUnits="userSpaceOnUse">
<stop stop-color="#9D73FE"/>
<stop offset="1" stop-color="#6826FF"/>
</linearGradient>
<linearGradient id="paint36_linear_1226_20783" x1="8.979" y1="246.134" x2="0.0175076" y2="246.134" gradientUnits="userSpaceOnUse">
<stop stop-color="#9D73FE"/>
<stop offset="1" stop-color="#6826FF"/>
</linearGradient>
<linearGradient id="paint37_linear_1226_20783" x1="9.07006" y1="189.456" x2="0.138602" y2="189.456" gradientUnits="userSpaceOnUse">
<stop stop-color="#9D73FE"/>
<stop offset="1" stop-color="#6826FF"/>
</linearGradient>
<linearGradient id="paint38_linear_1226_20783" x1="280.119" y1="116.459" x2="263.879" y2="116.459" gradientUnits="userSpaceOnUse">
<stop stop-color="#9D73FE"/>
<stop offset="1" stop-color="#6826FF"/>
</linearGradient>
<radialGradient id="paint39_radial_1226_20783" cx="0" cy="0" r="1" gradientUnits="userSpaceOnUse" gradientTransform="translate(197.046 304.904) rotate(-28.32) scale(16.88 16.88)">
<stop offset="0.1" stop-color="#8493BA"/>
<stop offset="0.21" stop-color="#606C90"/>
<stop offset="0.33" stop-color="#444D6E"/>
<stop offset="0.43" stop-color="#303756"/>
<stop offset="0.53" stop-color="#232A47"/>
<stop offset="0.62" stop-color="#1F2542"/>
<stop offset="0.71" stop-color="#242A49"/>
<stop offset="0.83" stop-color="#34395B"/>
<stop offset="0.98" stop-color="#4D517A"/>
</radialGradient>
<radialGradient id="paint40_radial_1226_20783" cx="0" cy="0" r="1" gradientUnits="userSpaceOnUse" gradientTransform="translate(195.046 285.489) rotate(-28.32) scale(16.88 16.88)">
<stop offset="0.1" stop-color="#8493BA"/>
<stop offset="0.21" stop-color="#606C90"/>
<stop offset="0.33" stop-color="#444D6E"/>
<stop offset="0.43" stop-color="#303756"/>
<stop offset="0.53" stop-color="#232A47"/>
<stop offset="0.62" stop-color="#1F2542"/>
<stop offset="0.71" stop-color="#242A49"/>
<stop offset="0.83" stop-color="#34395B"/>
<stop offset="0.98" stop-color="#4D517A"/>
</radialGradient>
<linearGradient id="paint41_linear_1226_20783" x1="166.764" y1="249.975" x2="189.3" y2="237.831" gradientUnits="userSpaceOnUse">
<stop stop-color="#BEC5D8"/>
<stop offset="0.12" stop-color="#DFE2EC"/>
<stop offset="0.25" stop-color="white"/>
<stop offset="0.29" stop-color="#E9EAF0"/>
<stop offset="0.36" stop-color="#BEC1D2"/>
<stop offset="0.43" stop-color="#9CA1BA"/>
<stop offset="0.5" stop-color="#848BAA"/>
<stop offset="0.56" stop-color="#757D9F"/>
<stop offset="0.62" stop-color="#70789C"/>
<stop offset="0.67" stop-color="#767EA3"/>
<stop offset="0.75" stop-color="#888FB5"/>
<stop offset="0.84" stop-color="#A5AAD4"/>
<stop offset="0.88" stop-color="#B4B8E3"/>
<stop offset="0.89" stop-color="#B2B6E1"/>
<stop offset="0.93" stop-color="#9DA1C9"/>
<stop offset="0.97" stop-color="#9094BA"/>
<stop offset="1" stop-color="#8B90B5"/>
</linearGradient>
<linearGradient id="paint42_linear_1226_20783" x1="128.169" y1="196.623" x2="175.559" y2="199.844" gradientUnits="userSpaceOnUse">
<stop stop-color="#D6DAE6"/>
<stop offset="0.01" stop-color="#D4D8E6"/>
<stop offset="0.28" stop-color="#B4B8E3"/>
<stop offset="0.4" stop-color="#9A9FC8"/>
<stop offset="0.53" stop-color="#838AB0"/>
<stop offset="0.65" stop-color="#757DA1"/>
<stop offset="0.76" stop-color="#70789C"/>
<stop offset="0.85" stop-color="#777EA2"/>
<stop offset="0.99" stop-color="#898EB3"/>
<stop offset="1" stop-color="#8B90B5"/>
</linearGradient>
<linearGradient id="paint43_linear_1226_20783" x1="142.397" y1="193.734" x2="155.795" y2="186.513" gradientUnits="userSpaceOnUse">
<stop stop-color="#3C445C"/>
<stop offset="0.16" stop-color="#6B789A"/>
<stop offset="0.25" stop-color="#8493BA"/>
<stop offset="0.33" stop-color="#606C90"/>
<stop offset="0.41" stop-color="#444D6E"/>
<stop offset="0.49" stop-color="#303756"/>
<stop offset="0.56" stop-color="#232A47"/>
<stop offset="0.62" stop-color="#1F2542"/>
<stop offset="0.68" stop-color="#242A49"/>
<stop offset="0.77" stop-color="#34395B"/>
<stop offset="0.88" stop-color="#4D517A"/>
<stop offset="0.92" stop-color="#44476B"/>
<stop offset="0.96" stop-color="#3B3E5C"/>
<stop offset="1" stop-color="#383B57"/>
</linearGradient>
<linearGradient id="paint44_linear_1226_20783" x1="249.918" y1="124.089" x2="230.478" y2="124.089" gradientUnits="userSpaceOnUse">
<stop stop-color="#9D73FE"/>
<stop offset="1" stop-color="#6826FF"/>
</linearGradient>
<linearGradient id="paint45_linear_1226_20783" x1="273.429" y1="186.89" x2="256.189" y2="186.89" gradientUnits="userSpaceOnUse">
<stop stop-color="#9D73FE"/>
<stop offset="1" stop-color="#6826FF"/>
</linearGradient>
<linearGradient id="paint46_linear_1226_20783" x1="267.059" y1="191.316" x2="262.619" y2="191.316" gradientUnits="userSpaceOnUse">
<stop stop-color="#9D73FE"/>
<stop offset="1" stop-color="#6826FF"/>
</linearGradient>
<linearGradient id="paint47_linear_1226_20783" x1="164.648" y1="34.7886" x2="147.568" y2="34.7886" gradientUnits="userSpaceOnUse">
<stop stop-color="#9D73FE"/>
<stop offset="1" stop-color="#6826FF"/>
</linearGradient>
<linearGradient id="paint48_linear_1226_20783" x1="208.809" y1="64.2824" x2="187.289" y2="64.2824" gradientUnits="userSpaceOnUse">
<stop stop-color="#9D73FE"/>
<stop offset="1" stop-color="#6826FF"/>
</linearGradient>
<linearGradient id="paint49_linear_1226_20783" x1="210.216" y1="192.308" x2="192.682" y2="192.308" gradientUnits="userSpaceOnUse">
<stop stop-color="#9D73FE"/>
<stop offset="1" stop-color="#6826FF"/>
</linearGradient>
<linearGradient id="paint50_linear_1226_20783" x1="249.428" y1="147.989" x2="152.306" y2="147.989" gradientUnits="userSpaceOnUse">
<stop stop-color="#9D73FE"/>
<stop offset="1" stop-color="#6826FF"/>
</linearGradient>
<linearGradient id="paint51_linear_1226_20783" x1="252.037" y1="147.194" x2="156.218" y2="147.194" gradientUnits="userSpaceOnUse">
<stop stop-color="#9D73FE"/>
<stop offset="1" stop-color="#6826FF"/>
</linearGradient>
<linearGradient id="paint52_linear_1226_20783" x1="217.226" y1="206.492" x2="215.96" y2="140.532" gradientUnits="userSpaceOnUse">
<stop offset="0.22" stop-color="#979CD5"/>
<stop offset="0.37" stop-color="#9BA0D7"/>
<stop offset="0.52" stop-color="#A9ADDC"/>
<stop offset="0.68" stop-color="#BEC1E5"/>
<stop offset="0.85" stop-color="#DDDEF1"/>
<stop offset="1" stop-color="white"/>
</linearGradient>
<radialGradient id="paint53_radial_1226_20783" cx="0" cy="0" r="1" gradientUnits="userSpaceOnUse" gradientTransform="translate(247.33 145.004) scale(10.07 10.07)">
<stop stop-color="white"/>
<stop offset="1"/>
</radialGradient>
<linearGradient id="paint54_linear_1226_20783" x1="248.436" y1="132.735" x2="73.1275" y2="132.735" gradientUnits="userSpaceOnUse">
<stop stop-color="#9D73FE"/>
<stop offset="1" stop-color="#6826FF"/>
</linearGradient>
<linearGradient id="paint55_linear_1226_20783" x1="251.997" y1="131.633" x2="77.8678" y2="131.633" gradientUnits="userSpaceOnUse">
<stop stop-color="#9D73FE"/>
<stop offset="1" stop-color="#6826FF"/>
</linearGradient>
<linearGradient id="paint56_linear_1226_20783" x1="193.284" y1="233.075" x2="191.257" y2="127.161" gradientUnits="userSpaceOnUse">
<stop offset="0.22" stop-color="#979CD5"/>
<stop offset="0.37" stop-color="#9BA0D7"/>
<stop offset="0.52" stop-color="#A9ADDC"/>
<stop offset="0.68" stop-color="#BEC1E5"/>
<stop offset="0.85" stop-color="#DDDEF1"/>
<stop offset="1" stop-color="white"/>
</linearGradient>
<radialGradient id="paint57_radial_1226_20783" cx="0" cy="0" r="1" gradientUnits="userSpaceOnUse" gradientTransform="translate(244.409 127.954) scale(16.34 16.34)">
<stop stop-color="white"/>
<stop offset="1"/>
</radialGradient>
<linearGradient id="paint58_linear_1226_20783" x1="119.49" y1="190.554" x2="40.4999" y2="50.6335" gradientUnits="userSpaceOnUse">
<stop stop-color="#BEC5D8"/>
<stop offset="0.12" stop-color="#DFE2EC"/>
<stop offset="0.25" stop-color="white"/>
<stop offset="0.29" stop-color="#E9EAF0"/>
<stop offset="0.36" stop-color="#BEC1D2"/>
<stop offset="0.43" stop-color="#9CA1BA"/>
<stop offset="0.5" stop-color="#848BAA"/>
<stop offset="0.56" stop-color="#757D9F"/>
<stop offset="0.62" stop-color="#70789C"/>
<stop offset="0.77" stop-color="#777EA2"/>
<stop offset="0.98" stop-color="#898EB3"/>
<stop offset="1" stop-color="#8B90B5"/>
</linearGradient>
<radialGradient id="paint59_radial_1226_20783" cx="0" cy="0" r="1" gradientUnits="userSpaceOnUse" gradientTransform="translate(89.6437 87.6081) scale(84.6 84.6)">
<stop offset="0.01" stop-color="#B0FBFF"/>
<stop offset="1" stop-color="#3456D9"/>
</radialGradient>
<radialGradient id="paint60_radial_1226_20783" cx="0" cy="0" r="1" gradientUnits="userSpaceOnUse" gradientTransform="translate(89.3137 88.2581) scale(84.6 84.6)">
<stop offset="0.48" stop-color="white"/>
<stop offset="1" stop-color="#7893B3"/>
</radialGradient>
<linearGradient id="paint61_linear_1226_20783" x1="84.57" y1="20.6934" x2="163.4" y2="171.573" gradientUnits="userSpaceOnUse">
<stop stop-color="#BEC5D8"/>
<stop offset="0.12" stop-color="#DFE2EC"/>
<stop offset="0.25" stop-color="white"/>
<stop offset="0.29" stop-color="#E9EAF0"/>
<stop offset="0.36" stop-color="#BEC1D2"/>
<stop offset="0.43" stop-color="#9CA1BA"/>
<stop offset="0.5" stop-color="#848BAA"/>
<stop offset="0.56" stop-color="#757D9F"/>
<stop offset="0.62" stop-color="#70789C"/>
<stop offset="0.67" stop-color="#767EA3"/>
<stop offset="0.75" stop-color="#888FB5"/>
<stop offset="0.84" stop-color="#A5AAD4"/>
<stop offset="0.88" stop-color="#B4B8E3"/>
<stop offset="0.89" stop-color="#B2B6E1"/>
<stop offset="0.93" stop-color="#9DA1C9"/>
<stop offset="0.97" stop-color="#9094BA"/>
<stop offset="1" stop-color="#8B90B5"/>
</linearGradient>
<linearGradient id="paint62_linear_1226_20783" x1="142.46" y1="87.6034" x2="-20.0401" y2="170.793" gradientUnits="userSpaceOnUse">
<stop stop-color="white"/>
<stop offset="0.18" stop-color="#EAEBF7"/>
<stop offset="0.48" stop-color="#CACDEB"/>
<stop offset="0.58" stop-color="#B7BADB"/>
<stop offset="0.74" stop-color="#9FA3C6"/>
<stop offset="0.88" stop-color="#9095B9"/>
<stop offset="1" stop-color="#8B90B5"/>
</linearGradient>
<radialGradient id="paint63_radial_1226_20783" cx="0" cy="0" r="1" gradientUnits="userSpaceOnUse" gradientTransform="translate(126.979 59.4034) scale(67.42 67.42)">
<stop stop-color="white"/>
<stop offset="1"/>
</radialGradient>
<radialGradient id="paint64_radial_1226_20783" cx="0" cy="0" r="1" gradientUnits="userSpaceOnUse" gradientTransform="translate(86.8086 74.1134) scale(46.16 46.16)">
<stop stop-color="white"/>
<stop offset="1"/>
</radialGradient>
<radialGradient id="paint65_radial_1226_20783" cx="0" cy="0" r="1" gradientUnits="userSpaceOnUse" gradientTransform="translate(86.9387 166.644) scale(15.56 15.56)">
<stop stop-color="#364F87"/>
<stop offset="0.15" stop-color="#263860"/>
<stop offset="0.31" stop-color="#19243D"/>
<stop offset="0.48" stop-color="#0E1422"/>
<stop offset="0.65" stop-color="#06090F"/>
<stop offset="0.82" stop-color="#020204"/>
<stop offset="1"/>
</radialGradient>
<radialGradient id="paint66_radial_1226_20783" cx="0" cy="0" r="1" gradientUnits="userSpaceOnUse" gradientTransform="translate(161.409 149.713) scale(15.56 15.56)">
<stop stop-color="#364F87"/>
<stop offset="0.15" stop-color="#263860"/>
<stop offset="0.31" stop-color="#19243D"/>
<stop offset="0.48" stop-color="#0E1422"/>
<stop offset="0.65" stop-color="#06090F"/>
<stop offset="0.82" stop-color="#020204"/>
<stop offset="1"/>
</radialGradient>
<radialGradient id="paint67_radial_1226_20783" cx="0" cy="0" r="1" gradientUnits="userSpaceOnUse" gradientTransform="translate(96.3489 83.5819) scale(35.54 35.54)">
<stop offset="0.01" stop-color="#43E8E1" stop-opacity="0.88"/>
<stop offset="0.02" stop-color="#42D9D8"/>
<stop offset="0.08" stop-color="#3EAFC0"/>
<stop offset="0.14" stop-color="#3B8DAB"/>
<stop offset="0.2" stop-color="#39729B"/>
<stop offset="0.26" stop-color="#375E90"/>
<stop offset="0.32" stop-color="#365389"/>
<stop offset="0.38" stop-color="#364F87"/>
<stop offset="0.48" stop-color="#263860"/>
<stop offset="0.58" stop-color="#19243D"/>
<stop offset="0.68" stop-color="#0E1422"/>
<stop offset="0.78" stop-color="#06090F"/>
<stop offset="0.89" stop-color="#020204"/>
<stop offset="1"/>
</radialGradient>
<clipPath id="clip0_1226_20783">
<rect width="305.81" height="319.55" fill="white" transform="translate(0 0.813477)"/>
</clipPath>
</defs>
</svg>
