<svg width="519" height="408" viewBox="0 0 519 408" fill="none" xmlns="http://www.w3.org/2000/svg">
<rect x="0.45486" y="0.45486" width="324.77" height="406.645" rx="17.7395" stroke="url(#paint0_linear_1261_993)" stroke-width="0.909719"/>
<rect x="18.3711" y="27.1929" width="194" height="17" rx="8.5" fill="#C5C4F7"/>
<rect x="264.412" y="27.5566" width="40.0277" height="16.2718" rx="8.13591" fill="#C5C4F7"/>
<path d="M272.006 191.041C272.006 251.332 223.131 300.207 162.84 300.207C102.549 300.207 53.6738 251.332 53.6738 191.041C53.6738 130.75 102.549 81.8745 162.84 81.8745C223.131 81.8745 272.006 130.75 272.006 191.041ZM91.6416 191.041C91.6416 230.363 123.518 262.239 162.84 262.239C202.162 262.239 234.039 230.363 234.039 191.041C234.039 151.719 202.162 119.842 162.84 119.842C123.518 119.842 91.6416 151.719 91.6416 191.041Z" fill="#6A36B5"/>
<path d="M98.1077 105.634C97.4405 104.754 96.1847 104.58 95.3168 105.263C80.3675 117.03 68.7435 132.509 61.6124 150.172C54.4813 167.836 52.1003 187.046 54.689 205.894C54.8393 206.989 55.864 207.735 56.9554 207.565L90.5169 202.327C91.6083 202.157 92.352 201.134 92.2124 200.039C90.6745 187.967 92.2551 175.691 96.8191 164.386C101.383 153.082 108.769 143.149 118.257 135.529C119.118 134.837 119.293 133.585 118.625 132.705L98.1077 105.634Z" fill="url(#paint1_linear_1261_993)"/>
<path d="M56.3717 203.268C55.2743 203.394 54.485 204.386 54.6311 205.481C57.2064 224.779 64.8985 243.052 76.9256 258.393C89.3644 274.26 105.954 286.372 124.855 293.386C143.757 300.401 164.231 302.044 184.01 298.134C203.133 294.354 220.884 285.524 235.426 272.578C236.251 271.844 236.3 270.577 235.55 269.765L212.503 244.813C211.754 244.001 210.49 243.953 209.658 244.68C200.272 252.872 188.891 258.467 176.646 260.888C163.747 263.438 150.393 262.366 138.066 257.791C125.738 253.216 114.918 245.316 106.806 234.968C99.1049 225.145 94.1291 213.48 92.3606 201.148C92.2038 200.054 91.215 199.266 90.1176 199.392L56.3717 203.268Z" fill="#42E8E0"/>
<path d="M230.434 274.2C231.131 275.057 232.392 275.188 233.236 274.476C244.145 265.271 253.149 254.012 259.731 241.332C266.619 228.059 270.708 213.513 271.743 198.595C272.778 183.677 270.736 168.706 265.746 154.609C260.978 141.142 253.616 128.747 244.081 118.124C243.344 117.302 242.077 117.258 241.268 118.011L216.409 141.159C215.6 141.912 215.558 143.175 216.287 144.004C222.282 150.816 226.923 158.715 229.955 167.28C233.21 176.474 234.541 186.238 233.866 195.968C233.191 205.697 230.525 215.184 226.032 223.841C221.846 231.905 216.159 239.088 209.281 245.006C208.444 245.727 208.312 246.984 209.009 247.841L230.434 274.2Z" fill="#04477E"/>
<rect x="135" y="182" width="56" height="9" rx="4.5" fill="#C5C4F7"/>
<rect x="148.041" y="196" width="29.9191" height="9.44815" rx="4.72408" fill="#C5C4F7"/>
<circle cx="20.9225" cy="336.141" r="2.72916" fill="#04477E"/>
<rect x="32.748" y="327.499" width="96.4302" height="17.2847" rx="8.64233" fill="#C5C4F7"/>
<circle cx="20.9225" cy="365.642" r="2.72916" fill="#6F30FF"/>
<rect x="32.748" y="357" width="96.4302" height="17.2847" rx="8.64233" fill="#C5C4F7"/>
<circle cx="197.409" cy="336.141" r="2.72916" fill="#42E8E0"/>
<rect x="209.234" y="327.499" width="98.2497" height="17.2847" rx="8.64233" fill="#C5C4F7"/>
<circle cx="197.409" cy="365.642" r="2.72916" fill="#6A36B5"/>
<rect x="209.234" y="357" width="98.2497" height="17.2847" rx="8.64233" fill="#C5C4F7"/>
<rect x="18.4549" y="58.4549" width="80.0903" height="15.0903" rx="7.54514" fill="#C5C4F7"/>
<rect x="18.4549" y="58.4549" width="80.0903" height="15.0903" rx="7.54514" stroke="#EFF0F1" stroke-width="0.909719"/>
<rect x="150.515" y="144.515" width="367.959" height="204.97" rx="20.0788" fill="white" stroke="url(#paint2_linear_1261_993)" stroke-width="1.02968"/>
<rect x="225.834" y="241.341" width="103" height="11.3187" rx="5.65934" fill="#C5C4F7"/>
<rect x="225.834" y="276.429" width="207.132" height="11.3187" rx="5.65934" fill="#C5C4F7"/>
<rect x="225.834" y="311.517" width="157.33" height="11.3187" rx="5.65934" fill="#C5C4F7"/>
<rect x="225.834" y="205.121" width="230.901" height="11.3187" rx="5.65934" fill="#C5C4F7"/>
<rect x="172.637" y="205.121" width="26.033" height="11.3187" rx="5.65934" fill="#04477E"/>
<rect x="172.637" y="241.341" width="26.033" height="11.3187" rx="5.65934" fill="#6E2FFF"/>
<rect x="172.637" y="277.561" width="26.033" height="11.3187" rx="5.65934" fill="#42E8E0"/>
<rect x="172.637" y="313.78" width="26.033" height="11.3187" rx="5.65934" fill="#6A36B5"/>
<rect x="172.637" y="166.637" width="160.725" height="19.2418" rx="9.62088" fill="#D7DAEC"/>
<rect x="449.945" y="166.637" width="49.8022" height="19.2418" rx="9.62088" fill="#D7DAEC"/>
<defs>
<linearGradient id="paint0_linear_1261_993" x1="325.675" y1="203.779" x2="-0.00256237" y2="203.779" gradientUnits="userSpaceOnUse">
<stop stop-color="#9D73FE"/>
<stop offset="1" stop-color="#6826FF"/>
</linearGradient>
<linearGradient id="paint1_linear_1261_993" x1="272.003" y1="191.042" x2="53.6721" y2="191.042" gradientUnits="userSpaceOnUse">
<stop stop-color="#9D73FE"/>
<stop offset="1" stop-color="#6826FF"/>
</linearGradient>
<linearGradient id="paint2_linear_1261_993" x1="518.984" y1="247.001" x2="149.997" y2="247.001" gradientUnits="userSpaceOnUse">
<stop stop-color="#9D73FE"/>
<stop offset="1" stop-color="#6826FF"/>
</linearGradient>
</defs>
</svg>
