<svg width="576" height="390" viewBox="0 0 576 390" fill="none" xmlns="http://www.w3.org/2000/svg">
<rect x="161.674" y="42.6744" width="412.744" height="346.651" rx="26.3023" fill="white"/>
<rect x="235.188" y="66.2791" width="268.419" height="14.8372" rx="7.4186" fill="#E9E9FD"/>
<rect x="187.979" y="114.837" width="40.4651" height="12.1395" rx="6.06977" fill="#C0BFF6"/>
<line x1="235.188" y1="120.233" x2="548.118" y2="120.233" stroke="#E9E9FD" stroke-width="1.34884"/>
<rect x="196.072" y="167.442" width="32.3721" height="12.1395" rx="6.06977" fill="#C0BFF6"/>
<line x1="235.188" y1="172.837" x2="548.118" y2="172.837" stroke="#E9E9FD" stroke-width="1.34884"/>
<rect x="197.422" y="220.047" width="31.0233" height="12.1395" rx="6.06977" fill="#C0BFF6"/>
<line x1="235.189" y1="225.442" x2="548.12" y2="225.442" stroke="#E9E9FD" stroke-width="1.34884"/>
<rect x="198.77" y="272.651" width="29.6744" height="12.1395" rx="6.06977" fill="#C0BFF6"/>
<line x1="235.188" y1="278.047" x2="548.118" y2="278.047" stroke="#E9E9FD" stroke-width="1.34884"/>
<rect x="204.166" y="325.256" width="24.2791" height="12.1395" rx="6.06977" fill="#C0BFF6"/>
<line x1="235.189" y1="330.651" x2="548.12" y2="330.651" stroke="#E9E9FD" stroke-width="1.34884"/>
<circle cx="236.537" cy="330.651" r="4.04651" fill="#6826FF"/>
<circle cx="324.213" cy="278.047" r="4.04651" fill="#6826FF"/>
<circle cx="402.445" cy="180.93" r="4.04651" fill="#6826FF"/>
<circle cx="517.095" cy="122.93" r="4.04651" fill="#6826FF"/>
<circle cx="236.537" cy="336.047" r="4.04651" fill="#42E8E0"/>
<circle cx="337.701" cy="300.977" r="4.04651" fill="#42E8E0"/>
<circle cx="409.189" cy="268.605" r="4.04651" fill="#42E8E0"/>
<circle cx="515.746" cy="175.535" r="4.04651" fill="#42E8E0"/>
<circle cx="236.537" cy="341.442" r="4.04651" fill="#5761D7"/>
<circle cx="208.213" cy="361.674" r="4.04651" fill="#5761D7"/>
<circle cx="343.095" cy="318.512" r="4.04651" fill="#5761D7"/>
<circle cx="409.189" cy="283.442" r="4.04651" fill="#5761D7"/>
<circle cx="518.445" cy="232.186" r="4.04651" fill="#5761D7"/>
<line x1="404.832" y1="180.331" x2="516.786" y2="122.331" stroke="#6826FF" stroke-width="1.34884"/>
<line x1="326.383" y1="276.277" x2="400.569" y2="183.207" stroke="#6826FF" stroke-width="1.34884"/>
<line x1="236.193" y1="330.071" x2="322.518" y2="278.815" stroke="#6826FF" stroke-width="1.34884"/>
<line x1="239.013" y1="335.409" x2="336.129" y2="301.688" stroke="#42E8E0" stroke-width="1.34884"/>
<line x1="239.095" y1="340.782" x2="341.607" y2="319.201" stroke="#5761D7" stroke-width="1.34884"/>
<line x1="344.127" y1="317.916" x2="407.522" y2="284.195" stroke="#5761D7" stroke-width="1.34884"/>
<line x1="410.251" y1="282.831" x2="516.809" y2="232.924" stroke="#5761D7" stroke-width="1.34884"/>
<line x1="338.777" y1="300.36" x2="406.219" y2="270.685" stroke="#42E8E0" stroke-width="1.34884"/>
<line x1="411.445" y1="266.747" x2="513.956" y2="177.723" stroke="#42E8E0" stroke-width="1.34884"/>
<rect x="217.652" y="357.628" width="51.2558" height="8.09302" rx="4.04651" fill="#E9E9FD"/>
<rect x="299.932" y="357.628" width="72.8372" height="8.09302" rx="4.04651" fill="#E9E9FD"/>
<rect x="395.699" y="357.628" width="93.0698" height="8.09302" rx="4.04651" fill="#E9E9FD"/>
<circle cx="387.607" cy="361.674" r="4.04651" fill="#6826FF"/>
<circle cx="290.49" cy="361.674" r="4.04651" fill="#42E8E0"/>
<rect x="161.674" y="42.6744" width="412.744" height="346.651" rx="26.3023" stroke="#6826FF" stroke-width="1.34884"/>
<rect x="0.679775" y="0.679775" width="342.607" height="240.64" rx="26.5112" fill="white"/>
<path d="M127.797 29.9102C113.242 29.9102 98.8997 33.3978 85.9703 40.081C73.0408 46.7641 61.9011 56.4482 53.4841 68.3221C45.0671 80.196 39.6179 93.9139 37.5929 108.327C35.568 122.74 37.0262 137.428 41.8456 151.162L61.7727 144.169C58.0706 133.62 56.9505 122.337 58.506 111.265C60.0614 100.194 64.2473 89.656 70.7129 80.535C77.1785 71.414 85.7356 63.9751 95.6674 58.8414C105.599 53.7076 116.617 51.0286 127.797 51.0286L127.797 29.9102Z" fill="#6826FF"/>
<path d="M41.8925 151.295C47.0401 165.892 55.8222 178.936 67.41 189.197C78.9977 199.457 93.0089 206.596 108.121 209.94L112.683 189.32C101.074 186.752 90.3114 181.268 81.4102 173.386C72.5089 165.504 65.7629 155.484 61.8087 144.271L41.8925 151.295Z" fill="#42E8E0"/>
<path d="M107.77 209.861C122.869 213.264 138.586 212.763 153.437 208.407C168.289 204.05 181.786 195.981 192.654 184.96L177.617 170.132C169.269 178.597 158.902 184.796 147.493 188.142C136.084 191.489 124.011 191.873 112.413 189.259L107.77 209.861Z" fill="#453C9E"/>
<path d="M192.207 185.41C204.946 172.671 213.622 156.441 217.137 138.771C220.651 121.101 218.847 102.786 211.953 86.1415C205.059 69.497 193.383 55.2707 178.404 45.2616C163.424 35.2525 145.813 29.9102 127.797 29.9102L127.797 51.0286C141.636 51.0286 155.164 55.1323 166.671 62.8209C178.178 70.5095 187.146 81.4375 192.442 94.2231C197.738 107.009 199.124 121.078 196.424 134.651C193.724 148.224 187.06 160.692 177.274 170.477L192.207 185.41Z" fill="#5761D7"/>
<path d="M209.114 79.9534C201.529 64.9262 189.928 52.2947 175.599 43.461C161.27 34.6272 144.774 29.9368 127.941 29.9103L127.907 51.0287C140.838 51.049 153.51 54.652 164.517 61.4377C175.524 68.2234 184.435 77.9264 190.262 89.4697L209.114 79.9534Z" fill="#180D5B"/>
<line x1="38.0664" y1="51.2551" x2="69.3361" y2="51.2551" stroke="#C5C4F7" stroke-width="0.81573"/>
<line x1="36.707" y1="189.929" x2="67.9767" y2="189.929" stroke="#C5C4F7" stroke-width="0.81573"/>
<line x1="129.156" y1="221.199" x2="172.662" y2="221.199" stroke="#C5C4F7" stroke-width="0.81573"/>
<line x1="209.369" y1="160.019" x2="237.92" y2="160.019" stroke="#C5C4F7" stroke-width="0.81573"/>
<line x1="237.512" y1="160.427" x2="237.512" y2="150.91" stroke="#C5C4F7" stroke-width="0.81573"/>
<line x1="128.748" y1="221.607" x2="128.748" y2="212.09" stroke="#C5C4F7" stroke-width="0.81573"/>
<line x1="148.189" y1="22.4325" x2="190.336" y2="22.4325" stroke="#C5C4F7" stroke-width="1.35955"/>
<line x1="148.871" y1="32.6293" x2="148.871" y2="23.1124" stroke="#C5C4F7" stroke-width="1.35955"/>
<rect x="17.6738" y="47.5842" width="17.6742" height="6.79775" rx="3.39888" fill="#C5C4F7"/>
<rect x="16.3145" y="186.258" width="17.6742" height="6.79775" rx="3.39888" fill="#C5C4F7"/>
<rect x="175.381" y="217.528" width="17.6742" height="6.79775" rx="3.39888" fill="#C5C4F7"/>
<rect x="228.404" y="142.753" width="17.6742" height="6.79775" rx="3.39888" fill="#C5C4F7"/>
<rect x="193.055" y="19.0337" width="17.6742" height="6.79775" rx="3.39888" fill="#C5C4F7"/>
<rect x="254.234" y="36.7079" width="14.9551" height="14.9551" rx="4.07865" fill="#180D5B"/>
<rect x="271.908" y="36.7079" width="47.5843" height="14.9551" rx="4.07865" fill="#E9E9FD"/>
<rect x="254.234" y="72.0562" width="14.9551" height="14.9551" rx="4.07865" fill="#5761D7"/>
<rect x="271.908" y="72.0562" width="47.5843" height="14.9551" rx="4.07865" fill="#E9E9FD"/>
<rect x="254.234" y="107.405" width="14.9551" height="14.9551" rx="4.07865" fill="#42E8E0"/>
<rect x="271.908" y="107.405" width="47.5843" height="14.9551" rx="4.07865" fill="#E9E9FD"/>
<rect x="254.234" y="142.753" width="14.9551" height="14.9551" rx="4.07865" fill="#453C9E"/>
<rect x="271.908" y="142.753" width="47.5843" height="14.9551" rx="4.07865" fill="#E9E9FD"/>
<rect x="254.234" y="178.101" width="14.9551" height="14.9551" rx="4.07865" fill="#6826FF"/>
<rect x="271.908" y="178.101" width="47.5843" height="14.9551" rx="4.07865" fill="#E9E9FD"/>
<rect x="87.0098" y="126.438" width="80.2135" height="14.9551" rx="4.07865" fill="#E9E9FD"/>
<rect x="101.965" y="101.966" width="50.3034" height="14.9551" rx="4.07865" fill="#E9E9FD"/>
<rect x="0.679775" y="0.679775" width="342.607" height="240.64" rx="26.5112" stroke="#6826FF" stroke-width="1.35955"/>
</svg>
