<svg width="14" height="15" viewBox="0 0 14 15" fill="none" xmlns="http://www.w3.org/2000/svg">
<path d="M8.28261 7.51168L13.7339 2.06019C14.0887 1.7056 14.0887 1.13226 13.7339 0.777666C13.3793 0.42307 12.806 0.42307 12.4514 0.777666L6.99992 6.22915L1.5486 0.777666C1.19384 0.42307 0.620669 0.42307 0.266072 0.777666C-0.0886907 1.13226 -0.0886907 1.7056 0.266072 2.06019L5.71739 7.51168L0.266072 12.9632C-0.0886907 13.3178 -0.0886907 13.8911 0.266072 14.2457C0.442789 14.4226 0.675145 14.5114 0.907336 14.5114C1.13953 14.5114 1.37172 14.4226 1.5486 14.2457L6.99992 8.79421L12.4514 14.2457C12.6283 14.4226 12.8605 14.5114 13.0927 14.5114C13.3249 14.5114 13.5571 14.4226 13.7339 14.2457C14.0887 13.8911 14.0887 13.3178 13.7339 12.9632L8.28261 7.51168Z" fill="#fff"/>
</svg>
