<svg width="40" height="40" viewBox="0 0 40 40" fill="none" xmlns="http://www.w3.org/2000/svg">
<path d="M37.5 11.25C37.5 6.42517 33.5748 2.5 28.75 2.5C25.2191 2.5 22.1774 4.6067 20.796 7.62543L18.0176 6.3623C17.688 6.21216 17.3114 6.21216 16.983 6.3623L3.23303 12.6123C2.78625 12.8149 2.5 13.2599 2.5 13.75V30C2.5 30.4901 2.78625 30.9351 3.23303 31.1377L16.983 37.3877C17.1472 37.4628 17.3236 37.5 17.5 37.5C17.6764 37.5 17.8528 37.4628 18.017 37.3877L31.767 31.1377C32.2137 30.9351 32.5 30.4901 32.5 30V19.1438C35.451 17.7359 37.5 14.7317 37.5 11.25ZM17.5 8.87329L20.092 10.0514C20.0378 10.4446 20 10.8428 20 11.2506C20 13.2841 20.7034 15.153 21.8716 16.6403L17.5 18.6267L6.77063 13.75L17.5 8.87329ZM5 15.6908L16.25 20.8045V34.3085L5 29.1949V15.6908ZM30 29.1949L18.75 34.3085V20.8045L23.8428 18.4899C25.2432 19.4421 26.9324 20 28.75 20C29.1755 20 29.5906 19.9592 30 19.9002V29.1949ZM28.75 17.5C25.304 17.5 22.5 14.696 22.5 11.25C22.5 7.80396 25.304 5 28.75 5C32.196 5 35 7.80396 35 11.25C35 14.696 32.196 17.5 28.75 17.5Z" fill="url(#paint0_linear_636_11642)"/>
<path d="M31.7145 6.3391C31.0712 6.08397 30.3461 6.39464 30.0891 7.03551L28.2935 11.5259L27.1338 10.3662C26.6455 9.87792 25.8545 9.87792 25.3662 10.3662C24.8779 10.8545 24.8779 11.6455 25.3662 12.1338L27.8662 14.6338C28.103 14.8706 28.4216 15 28.75 15C28.8336 15 28.9178 14.9914 29.0015 14.9744C29.4128 14.8901 29.7546 14.6045 29.9109 14.2145L32.4109 7.96447C32.6672 7.32299 32.3553 6.59606 31.7145 6.3391Z" fill="url(#paint1_linear_636_11642)"/>
<defs>
<linearGradient id="paint0_linear_636_11642" x1="37.4995" y1="20.0002" x2="2.49972" y2="20.0002" gradientUnits="userSpaceOnUse">
<stop stop-color="#9D73FE"/>
<stop offset="1" stop-color="#6826FF"/>
</linearGradient>
<linearGradient id="paint1_linear_636_11642" x1="32.5005" y1="10.625" x2="24.9999" y2="10.625" gradientUnits="userSpaceOnUse">
<stop stop-color="#9D73FE"/>
<stop offset="1" stop-color="#6826FF"/>
</linearGradient>
</defs>
</svg>
