<svg width="40" height="40" viewBox="0 0 40 40" fill="none" xmlns="http://www.w3.org/2000/svg">
<g clip-path="url(#clip0_636_11647)">
<path fill-rule="evenodd" clip-rule="evenodd" d="M4.00373 18.9998H9.57976C10.0536 14.0009 14.0431 10.0214 19.058 9.57477V4.00019C10.9724 4.46871 4.50081 10.9293 4.00373 18.9998ZM11.591 18.9998C12.0492 15.1053 15.1499 12.0166 19.058 11.5847V18.9998H11.591ZM11.591 20.9998H19.058V28.4154C15.1498 27.9835 12.049 24.8945 11.591 20.9998ZM9.57972 20.9998C10.0534 25.999 14.043 29.9787 19.058 30.4254V35.9999C10.9717 35.5319 4.50008 29.0784 4.00365 20.9998H9.57972ZM21.058 30.4146V35.993C29.0802 35.4716 35.5016 29.0394 35.9964 20.9998H30.4098C29.9397 25.959 26.0088 29.9177 21.058 30.4146ZM21.058 20.9998V28.402C24.9007 27.9225 27.9449 24.8558 28.3985 20.9998H21.058ZM30.4098 18.9998H35.9963C35.6773 13.8272 32.9005 9.31794 28.8195 6.6196L26.0957 11.4989C28.4857 13.2159 30.1175 15.913 30.4098 18.9998ZM28.3986 18.9998H21.9086L25.1131 13.2593C26.8995 14.6167 28.1241 16.6631 28.3986 18.9998ZM1.97302 20C1.97302 10.0492 10.0387 1.97298 20 1.97298H20.0584H21.0584V2.97298V16.4188L27.5816 4.73312L27.5819 4.73331L27.582 4.73313L28.0753 3.84936L28.9531 4.35332C34.3679 7.4622 38.0271 13.3021 38.0271 20C38.0271 29.9406 29.982 37.9961 20.0615 38.027L20.0584 38.027H20C10.0391 38.027 1.97302 29.9609 1.97302 20Z" fill="url(#paint0_linear_636_11647)"/>
<path fill-rule="evenodd" clip-rule="evenodd" d="M13.2964 15.4269C14.441 15.4269 15.3689 14.4991 15.3689 13.3545C15.3689 12.2099 14.441 11.2821 13.2964 11.2821C12.1519 11.2821 11.224 12.2099 11.224 13.3545C11.224 14.4991 12.1519 15.4269 13.2964 15.4269ZM34.2588 31.1354C35.4021 31.1354 36.3288 30.2087 36.3288 29.0654C36.3288 27.9222 35.4021 26.9954 34.2588 26.9954C33.1156 26.9954 32.1888 27.9222 32.1888 29.0654C32.1888 30.2087 33.1156 31.1354 34.2588 31.1354ZM10.8103 33.1812C10.8103 34.3244 9.88352 35.2512 8.74029 35.2512C7.59706 35.2512 6.67029 34.3244 6.67029 33.1812C6.67029 32.0379 7.59706 31.1112 8.74029 31.1112C9.88352 31.1112 10.8103 32.0379 10.8103 33.1812Z" fill="white"/>
<path d="M14.3689 13.3545C14.3689 13.9468 13.8887 14.4269 13.2964 14.4269V16.4269C14.9933 16.4269 16.3689 15.0513 16.3689 13.3545H14.3689ZM13.2964 12.2821C13.8887 12.2821 14.3689 12.7622 14.3689 13.3545H16.3689C16.3689 11.6576 14.9933 10.2821 13.2964 10.2821V12.2821ZM12.224 13.3545C12.224 12.7622 12.7041 12.2821 13.2964 12.2821V10.2821C11.5996 10.2821 10.224 11.6576 10.224 13.3545H12.224ZM13.2964 14.4269C12.7041 14.4269 12.224 13.9468 12.224 13.3545H10.224C10.224 15.0513 11.5996 16.4269 13.2964 16.4269V14.4269ZM35.3288 29.0654C35.3288 29.6564 34.8498 30.1354 34.2588 30.1354V32.1354C35.9544 32.1354 37.3288 30.761 37.3288 29.0654H35.3288ZM34.2588 27.9954C34.8498 27.9954 35.3288 28.4745 35.3288 29.0654H37.3288C37.3288 27.3699 35.9544 25.9954 34.2588 25.9954V27.9954ZM33.1888 29.0654C33.1888 28.4745 33.6679 27.9954 34.2588 27.9954V25.9954C32.5633 25.9954 31.1888 27.3699 31.1888 29.0654H33.1888ZM34.2588 30.1354C33.6679 30.1354 33.1888 29.6564 33.1888 29.0654H31.1888C31.1888 30.761 32.5633 32.1354 34.2588 32.1354V30.1354ZM8.74029 36.2512C10.4358 36.2512 11.8103 34.8767 11.8103 33.1812H9.81029C9.81029 33.7721 9.33123 34.2512 8.74029 34.2512V36.2512ZM5.67029 33.1812C5.67029 34.8767 7.04477 36.2512 8.74029 36.2512V34.2512C8.14934 34.2512 7.67029 33.7721 7.67029 33.1812H5.67029ZM8.74029 30.1112C7.04477 30.1112 5.67029 31.4856 5.67029 33.1812H7.67029C7.67029 32.5902 8.14934 32.1112 8.74029 32.1112V30.1112ZM11.8103 33.1812C11.8103 31.4856 10.4358 30.1112 8.74029 30.1112V32.1112C9.33123 32.1112 9.81029 32.5902 9.81029 33.1812H11.8103Z" fill="url(#paint1_linear_636_11647)"/>
</g>
<defs>
<linearGradient id="paint0_linear_636_11647" x1="38.0266" y1="20.0002" x2="1.97274" y2="20.0002" gradientUnits="userSpaceOnUse">
<stop stop-color="#9D73FE"/>
<stop offset="1" stop-color="#6826FF"/>
</linearGradient>
<linearGradient id="paint1_linear_636_11647" x1="36.3284" y1="23.2667" x2="6.67005" y2="23.2667" gradientUnits="userSpaceOnUse">
<stop stop-color="#9D73FE"/>
<stop offset="1" stop-color="#6826FF"/>
</linearGradient>
<clipPath id="clip0_636_11647">
<rect width="36" height="36" fill="white" transform="translate(2 2)"/>
</clipPath>
</defs>
</svg>
