<svg width="40" height="40" viewBox="0 0 40 40" fill="none" xmlns="http://www.w3.org/2000/svg">
<g clip-path="url(#clip0_671_1022)">
<path d="M23.9062 33.75V38.4375C23.9062 39.3005 23.2068 40 22.3438 40H19.2188C16.6339 40 14.5312 37.8973 14.5312 35.3125V34.5255C14.5312 34.3185 14.4009 34.1309 14.1989 34.0475L14.1785 34.039C14.1757 34.0381 14.173 34.0369 14.1705 34.0356C13.9676 33.9514 13.7421 33.9917 13.5959 34.1382L13.0392 34.6948C11.2119 36.5222 8.23792 36.5222 6.41022 34.6948L5.30518 33.5898C4.41986 32.7045 3.9325 31.5274 3.9325 30.2753C3.9325 29.0231 4.41986 27.8461 5.30548 26.9608L5.86182 26.4041C6.008 26.2579 6.04828 26.0324 5.96436 25.8298L5.95154 25.7993C5.86914 25.5991 5.68146 25.4688 5.47455 25.4688H4.6875C2.10266 25.4688 0 23.3661 0 20.7812V19.2188C0 16.6339 2.10266 14.5312 4.6875 14.5312H5.47455C5.68146 14.5312 5.86914 14.4009 5.95245 14.1992L5.96436 14.1708C6.04858 13.9676 6.0083 13.7424 5.86182 13.5959L5.30548 13.0396C4.42017 12.1542 3.9325 10.9772 3.9325 9.72504C3.9325 8.4729 4.42017 7.29553 5.30548 6.41022L6.41022 5.30548C7.29553 4.42017 8.4726 3.9325 9.72473 3.9325C10.9769 3.9325 12.1539 4.42017 13.0396 5.30548L13.5959 5.86182C13.7424 6.0083 13.9679 6.04828 14.1705 5.96436C14.173 5.96313 14.1757 5.96222 14.1785 5.961L14.2044 5.95032C14.4009 5.86914 14.5316 5.68146 14.5316 5.47455V4.6875C14.5316 2.10266 16.6342 0 19.2191 0H22.3441C23.2068 0 23.9066 0.699463 23.9066 1.5625V6.25C23.9066 7.11304 23.2068 7.8125 22.3441 7.8125C21.481 7.8125 20.7816 7.11304 20.7816 6.25V3.125H19.2191C18.3572 3.125 17.6566 3.82599 17.6566 4.6875V5.47455C17.6566 6.95129 16.7676 8.27271 15.3922 8.84064L15.3668 8.85132C13.9923 9.42139 12.4301 9.1153 11.3864 8.07159L10.8298 7.51526C10.5347 7.21985 10.1422 7.0575 9.72504 7.0575C9.30756 7.0575 8.91541 7.21985 8.6203 7.51526L7.51526 8.62C7.22015 8.9151 7.0578 9.30756 7.0578 9.72504C7.0578 10.1422 7.22015 10.5347 7.51526 10.8298L8.07159 11.3861C9.11591 12.4304 9.42169 13.9938 8.8504 15.3693L8.84186 15.3903C8.27271 16.7673 6.9516 17.6562 5.47455 17.6562H4.6875C3.82599 17.6562 3.125 18.3572 3.125 19.2188V20.7812C3.125 21.6428 3.82599 22.3438 4.6875 22.3438H5.47455C6.95129 22.3438 8.27271 23.2327 8.84064 24.6082L8.85223 24.6356C9.42139 26.0062 9.11591 27.5696 8.07159 28.6139L7.51495 29.1702C7.21985 29.4653 7.0575 29.8578 7.0575 30.2753C7.0575 30.6924 7.21985 31.0849 7.51495 31.38L8.62 32.485C9.22913 33.0942 10.2203 33.0942 10.8298 32.485L11.3861 31.9284C12.4298 30.885 13.992 30.5789 15.3668 31.149L15.387 31.1572C16.7676 31.7273 17.6562 33.0487 17.6562 34.5255V35.3125C17.6562 36.174 18.3572 36.875 19.2188 36.875H20.7812V33.75C20.7812 32.887 21.4807 32.1875 22.3438 32.1875C23.2068 32.1875 23.9062 32.887 23.9062 33.75ZM37.2656 17.2656C36.3367 17.2656 35.5164 17.7295 35.0223 18.4375H22.8683C22.3743 17.7295 21.554 17.2656 20.625 17.2656C19.115 17.2656 17.8906 18.49 17.8906 20C17.8906 21.51 19.115 22.7344 20.625 22.7344C21.554 22.7344 22.3743 22.2705 22.8683 21.5625H35.0223C35.5164 22.2705 36.3367 22.7344 37.2656 22.7344C38.7756 22.7344 40 21.51 40 20C40 18.49 38.7756 17.2656 37.2656 17.2656ZM37.2656 30.0781C37.0706 30.0781 36.8805 30.0989 36.6971 30.1376L32.894 26.3873C32.6016 26.0992 32.2076 25.9375 31.7969 25.9375H20C16.7261 25.9375 14.0625 23.2739 14.0625 20C14.0625 16.7261 16.7261 14.0625 20 14.0625H31.7969C32.2113 14.0625 32.6086 13.898 32.9016 13.605L36.7178 9.78882C36.8948 9.82483 37.0779 9.84375 37.2656 9.84375C38.7756 9.84375 40 8.61969 40 7.10938C40 5.59937 38.7756 4.375 37.2656 4.375C35.7556 4.375 34.5312 5.59937 34.5312 7.10938C34.5312 7.25067 34.5419 7.38922 34.5627 7.52472L31.1496 10.9375H20C15.0031 10.9375 10.9375 15.0027 10.9375 20C10.9375 24.9973 15.0031 29.0625 20 29.0625H31.156L34.5599 32.4191C34.5413 32.5476 34.5312 32.6788 34.5312 32.8125C34.5312 34.3225 35.7556 35.5469 37.2656 35.5469C38.7756 35.5469 40 34.3225 40 32.8125C40 31.3025 38.7756 30.0781 37.2656 30.0781Z" fill="url(#paint0_linear_671_1022)"/>
</g>
<defs>
<linearGradient id="paint0_linear_671_1022" x1="39.9994" y1="20.0002" x2="-0.00031471" y2="20.0002" gradientUnits="userSpaceOnUse">
<stop stop-color="#9D73FE"/>
<stop offset="1" stop-color="#6826FF"/>
</linearGradient>
<clipPath id="clip0_671_1022">
<rect width="40" height="40" fill="white"/>
</clipPath>
</defs>
</svg>
