<svg width="40" height="40" viewBox="0 0 40 40" fill="none" xmlns="http://www.w3.org/2000/svg">
<g clip-path="url(#clip0_671_1031)">
<mask id="mask0_671_1031" style="mask-type:luminance" maskUnits="userSpaceOnUse" x="0" y="0" width="40" height="40">
<path d="M0 3.8147e-06H40V40H0V3.8147e-06Z" fill="white"/>
</mask>
<g mask="url(#mask0_671_1031)">
<path d="M5.17292 5.17291L10.0563 10.0563M29.9437 29.9437L34.8271 34.8271M5.17292 34.8271L10.0563 29.9437M29.9437 10.0563L34.8271 5.17294M27.0312 20C27.0312 23.8833 23.8833 27.0312 20 27.0312C16.1167 27.0312 12.9687 23.8833 12.9687 20C12.9687 16.1167 16.1167 12.9687 20 12.9687C23.8833 12.9687 27.0312 16.1167 27.0312 20ZM34.0625 22.3437V17.6562H31.4819C31.1774 16.163 30.5812 14.7772 29.7666 13.5481L31.601 11.7136L28.2864 8.39898L26.4519 10.2334C25.2228 9.41883 23.837 8.82257 22.3438 8.51812V5.9375H17.6562V8.51812C16.1631 8.82257 14.7772 9.41883 13.5481 10.2334L11.7137 8.39898L8.39898 11.7136L10.2334 13.5481C9.41883 14.7772 8.82258 16.163 8.51813 17.6562H5.9375V22.3437H8.51813C8.82258 23.837 9.41883 25.2228 10.2334 26.4519L8.39898 28.2864L11.7137 31.601L13.5481 29.7666C14.7772 30.5812 16.1631 31.1774 17.6562 31.4819V34.0625H22.3438V31.4819C23.837 31.1774 25.2228 30.5812 26.4519 29.7666L28.2864 31.601L31.601 28.2864L29.7666 26.4519C30.5812 25.2228 31.1774 23.837 31.4819 22.3437H34.0625ZM5.85938 36.4844C5.85938 37.7788 4.81 38.8281 3.51562 38.8281C2.22125 38.8281 1.17188 37.7788 1.17188 36.4844C1.17188 35.1899 2.22125 34.1406 3.51562 34.1406C4.81 34.1406 5.85938 35.1899 5.85938 36.4844ZM38.8281 36.4844C38.8281 37.7788 37.7787 38.8281 36.4844 38.8281C35.19 38.8281 34.1406 37.7788 34.1406 36.4844C34.1406 35.1899 35.19 34.1406 36.4844 34.1406C37.7787 34.1406 38.8281 35.1899 38.8281 36.4844ZM38.8281 3.51562C38.8281 4.81008 37.7787 5.85938 36.4844 5.85938C35.19 5.85938 34.1406 4.81008 34.1406 3.51562C34.1406 2.22117 35.19 1.17188 36.4844 1.17188C37.7787 1.17188 38.8281 2.22117 38.8281 3.51562ZM5.85938 3.51562C5.85938 4.81008 4.81 5.85938 3.51562 5.85938C2.22125 5.85938 1.17188 4.81008 1.17188 3.51562C1.17188 2.22117 2.22125 1.17188 3.51562 1.17188C4.81 1.17188 5.85938 2.22117 5.85938 3.51562Z" stroke="url(#paint0_linear_671_1031)" stroke-width="2" stroke-miterlimit="10" stroke-linecap="round" stroke-linejoin="round"/>
</g>
</g>
<defs>
<linearGradient id="paint0_linear_671_1031" x1="38.8276" y1="20.0002" x2="1.17158" y2="20.0002" gradientUnits="userSpaceOnUse">
<stop stop-color="#9D73FE"/>
<stop offset="1" stop-color="#6826FF"/>
</linearGradient>
<clipPath id="clip0_671_1031">
<rect width="40" height="40" fill="white"/>
</clipPath>
</defs>
</svg>
