<svg width="40" height="40" viewBox="0 0 40 40" fill="none" xmlns="http://www.w3.org/2000/svg">
<path fill-rule="evenodd" clip-rule="evenodd" d="M32.5466 37.9167H20.9666C19.6133 37.9167 18.3633 37.1967 17.685 36.0267C17.0066 34.8583 17.0016 33.415 17.6733 32.2417L23.4633 22.1083C24.1383 20.9267 25.395 20.1983 26.7566 20.1983C28.1166 20.1983 29.3733 20.9267 30.05 22.1083L35.84 32.2417C36.51 33.415 36.505 34.8583 35.8266 36.0267C35.1483 37.1967 33.8983 37.9167 32.5466 37.9167ZM32.5466 35.4167C33.0066 35.4167 33.4333 35.1717 33.665 34.7733C33.8966 34.3733 33.8983 33.8817 33.6683 33.4817L27.8783 23.3483C27.6483 22.9467 27.22 22.6983 26.7566 22.6983C26.2916 22.6983 25.8633 22.9467 25.6333 23.3483L19.8433 33.4817C19.615 33.8817 19.6166 34.3733 19.8466 34.7733C20.0783 35.1717 20.505 35.4167 20.9666 35.4167H32.5466Z" fill="url(#paint0_linear_671_1012)"/>
<path fill-rule="evenodd" clip-rule="evenodd" d="M25.5067 26.865C25.5067 26.175 26.0667 25.615 26.7567 25.615C27.4467 25.615 28.0067 26.175 28.0067 26.865V30.1983C28.0067 30.8867 27.4467 31.4483 26.7567 31.4483C26.0667 31.4483 25.5067 30.8867 25.5067 30.1983V26.865Z" fill="url(#paint1_linear_671_1012)"/>
<path d="M26.7567 34.365C27.447 34.365 28.0067 33.8054 28.0067 33.115C28.0067 32.4246 27.447 31.865 26.7567 31.865C26.0663 31.865 25.5067 32.4246 25.5067 33.115C25.5067 33.8054 26.0663 34.365 26.7567 34.365Z" fill="url(#paint2_linear_671_1012)"/>
<path fill-rule="evenodd" clip-rule="evenodd" d="M33.185 18.3333C33.185 19.0233 32.625 19.5833 31.935 19.5833C31.245 19.5833 30.685 19.0233 30.685 18.3333V13.0467C30.685 12.495 30.465 11.965 30.075 11.575L23.6933 5.19333C23.3033 4.80333 22.7733 4.58333 22.2216 4.58333H8.24331C7.69164 4.58333 7.16164 4.80333 6.76997 5.19333C6.37997 5.585 6.15997 6.11333 6.15997 6.66667V33.3333C6.15997 33.8867 6.37997 34.415 6.76997 34.8067C7.16164 35.1967 7.69164 35.4167 8.24331 35.4167H14.2566C14.9466 35.4167 15.5066 35.9767 15.5066 36.6667C15.5066 37.3567 14.9466 37.9167 14.2566 37.9167H8.24331C7.02831 37.9167 5.86331 37.4333 5.00331 36.575C4.14331 35.715 3.65997 34.5483 3.65997 33.3333V6.66667C3.65997 5.45167 4.14331 4.285 5.00331 3.425C5.86331 2.56667 7.02831 2.08333 8.24331 2.08333H22.2216C23.4366 2.08333 24.6016 2.56667 25.4616 3.425L31.8433 9.80667C32.7016 10.6667 33.185 11.8317 33.185 13.0467V18.3333Z" fill="url(#paint3_linear_671_1012)"/>
<path fill-rule="evenodd" clip-rule="evenodd" d="M22.3516 4.16666C22.3516 3.47666 22.9116 2.91666 23.6016 2.91666C24.2916 2.91666 24.8516 3.47666 24.8516 4.16666V10C24.8516 10.23 25.0383 10.4167 25.2683 10.4167H31.1016C31.7916 10.4167 32.3516 10.9767 32.3516 11.6667C32.3516 12.3567 31.7916 12.9167 31.1016 12.9167H25.2683C23.6566 12.9167 22.3516 11.6117 22.3516 10V4.16666Z" fill="url(#paint4_linear_671_1012)"/>
<path fill-rule="evenodd" clip-rule="evenodd" d="M10.7433 12.9167C10.0533 12.9167 9.49329 12.3567 9.49329 11.6667C9.49329 10.9767 10.0533 10.4167 10.7433 10.4167H15.7433C16.4333 10.4167 16.9933 10.9767 16.9933 11.6667C16.9933 12.3567 16.4333 12.9167 15.7433 12.9167H10.7433Z" fill="url(#paint5_linear_671_1012)"/>
<path fill-rule="evenodd" clip-rule="evenodd" d="M10.7433 22.9167C10.0533 22.9167 9.49329 22.3567 9.49329 21.6667C9.49329 20.9767 10.0533 20.4167 10.7433 20.4167H15.7433C16.4333 20.4167 16.9933 20.9767 16.9933 21.6667C16.9933 22.3567 16.4333 22.9167 15.7433 22.9167H10.7433Z" fill="url(#paint6_linear_671_1012)"/>
<path fill-rule="evenodd" clip-rule="evenodd" d="M10.7433 17.9167C10.0533 17.9167 9.49329 17.3567 9.49329 16.6667C9.49329 15.9767 10.0533 15.4167 10.7433 15.4167H20.7433C21.4333 15.4167 21.9933 15.9767 21.9933 16.6667C21.9933 17.3567 21.4333 17.9167 20.7433 17.9167H10.7433Z" fill="url(#paint7_linear_671_1012)"/>
<defs>
<linearGradient id="paint0_linear_671_1012" x1="36.3387" y1="29.0576" x2="17.1727" y2="29.0576" gradientUnits="userSpaceOnUse">
<stop stop-color="#9D73FE"/>
<stop offset="1" stop-color="#6826FF"/>
</linearGradient>
<linearGradient id="paint1_linear_671_1012" x1="28.0066" y1="28.5317" x2="25.5066" y2="28.5317" gradientUnits="userSpaceOnUse">
<stop stop-color="#9D73FE"/>
<stop offset="1" stop-color="#6826FF"/>
</linearGradient>
<linearGradient id="paint2_linear_671_1012" x1="28.0066" y1="33.115" x2="25.5066" y2="33.115" gradientUnits="userSpaceOnUse">
<stop stop-color="#9D73FE"/>
<stop offset="1" stop-color="#6826FF"/>
</linearGradient>
<linearGradient id="paint3_linear_671_1012" x1="33.1845" y1="20.0002" x2="3.65974" y2="20.0002" gradientUnits="userSpaceOnUse">
<stop stop-color="#9D73FE"/>
<stop offset="1" stop-color="#6826FF"/>
</linearGradient>
<linearGradient id="paint4_linear_671_1012" x1="32.3515" y1="7.91672" x2="22.3515" y2="7.91672" gradientUnits="userSpaceOnUse">
<stop stop-color="#9D73FE"/>
<stop offset="1" stop-color="#6826FF"/>
</linearGradient>
<linearGradient id="paint5_linear_671_1012" x1="16.9932" y1="11.6667" x2="9.49323" y2="11.6667" gradientUnits="userSpaceOnUse">
<stop stop-color="#9D73FE"/>
<stop offset="1" stop-color="#6826FF"/>
</linearGradient>
<linearGradient id="paint6_linear_671_1012" x1="16.9932" y1="21.6667" x2="9.49323" y2="21.6667" gradientUnits="userSpaceOnUse">
<stop stop-color="#9D73FE"/>
<stop offset="1" stop-color="#6826FF"/>
</linearGradient>
<linearGradient id="paint7_linear_671_1012" x1="21.9931" y1="16.6667" x2="9.49319" y2="16.6667" gradientUnits="userSpaceOnUse">
<stop stop-color="#9D73FE"/>
<stop offset="1" stop-color="#6826FF"/>
</linearGradient>
</defs>
</svg>
