<svg width="904" height="610" viewBox="0 0 904 610" fill="none" xmlns="http://www.w3.org/2000/svg">
<g opacity="0.8" clip-path="url(#clip0_457_194)">
<g opacity="0.34">
<path d="M199.942 -42.3212L249.26 42.9825C249.29 43.0425 249.38 43.0725 249.47 43.0425C249.53 43.0125 249.56 42.9226 249.53 42.8327L200.002 -42.8008L199.942 -42.3212Z" fill="white"/>
</g>
<g opacity="0.37">
<path d="M249.23 42.8927C249.23 42.8327 249.26 42.7728 249.35 42.7428C249.44 42.7128 249.53 42.7428 249.59 42.8327L279.577 112.461C279.607 112.55 279.577 112.64 279.487 112.7C279.397 112.73 279.307 112.7 279.247 112.61L249.26 42.9826C249.23 42.9227 249.2 42.9227 249.23 42.8927Z" fill="white"/>
</g>
<g opacity="0.32">
<path d="M249.259 42.8926C249.259 42.8026 249.349 42.7427 249.409 42.7727L352.939 50.4158C353.029 50.4158 353.089 50.4758 353.059 50.5657C353.059 50.6556 352.968 50.7156 352.908 50.6856L249.379 43.0424C249.289 43.0424 249.229 42.9525 249.259 42.8926Z" fill="white"/>
</g>
<g opacity="0.36">
<path d="M279.187 112.49C279.187 112.371 279.307 112.311 279.397 112.311L325.143 118.036C325.233 118.036 325.323 118.155 325.323 118.245C325.323 118.365 325.203 118.425 325.113 118.425L279.367 112.7C279.247 112.7 279.187 112.58 279.187 112.49Z" fill="white"/>
</g>
<g opacity="0.34">
<path d="M279.217 112.491C279.217 112.461 279.247 112.431 279.277 112.401L352.819 50.446C352.879 50.3861 352.969 50.416 353.029 50.476C353.089 50.5359 353.059 50.6259 352.999 50.6858L279.457 112.64C279.397 112.7 279.307 112.67 279.247 112.61C279.247 112.58 279.217 112.521 279.217 112.491Z" fill="white"/>
</g>
<g opacity="0.34">
<path d="M239.924 194.317C239.924 194.287 239.924 194.287 239.924 194.257L279.217 112.43C279.247 112.341 279.337 112.311 279.427 112.371C279.517 112.401 279.547 112.49 279.487 112.58L240.194 194.407C240.164 194.497 240.074 194.527 239.984 194.467C239.954 194.467 239.924 194.377 239.924 194.317Z" fill="white"/>
</g>
<g opacity="0.58">
<path d="M249.32 43.672C249.32 43.612 249.35 43.5521 249.41 43.5221L298.998 -1.2279C299.118 -1.31782 299.268 -1.31781 299.358 -1.19792C299.448 -1.108 299.449 -0.928152 299.328 -0.838233L249.74 43.9118C249.62 44.0017 249.47 44.0017 249.38 43.8818C249.32 43.8218 249.32 43.7319 249.32 43.672Z" fill="white"/>
</g>
<g opacity="0.5">
<path d="M646.687 272.787C646.687 272.667 646.777 272.547 646.927 272.517C647.107 272.458 647.287 272.577 647.317 272.727L660.134 318.946C660.194 319.126 660.074 319.306 659.924 319.336C659.744 319.396 659.564 319.276 659.534 319.126L646.717 272.907C646.687 272.877 646.687 272.847 646.687 272.787Z" fill="white"/>
</g>
<g opacity="0.55">
<path d="M729.114 0.15092C729.114 0.0610004 729.174 0.00106128 729.264 -0.0289119C729.384 -0.0588851 729.474 0.0310437 729.504 0.120963L746.434 81.3783C746.464 81.4982 746.374 81.5881 746.284 81.6181C746.164 81.6481 746.074 81.5582 746.044 81.4682L729.114 0.210879C729.114 0.180906 729.114 0.180893 729.114 0.15092Z" fill="white"/>
</g>
<g opacity="0.6">
<path d="M625.315 -19.6615C625.315 -19.7514 625.405 -19.8413 625.495 -19.8713C625.615 -19.9012 625.765 -19.8113 625.795 -19.6914L647.857 78.4109C647.887 78.5308 647.797 78.6807 647.677 78.7106C647.557 78.7406 647.407 78.6507 647.377 78.5308L625.345 -19.5715C625.315 -19.6315 625.315 -19.6615 625.315 -19.6615Z" fill="white"/>
</g>
<g opacity="0.83">
<path d="M624.864 -19.7213C624.894 -20.051 625.164 -20.3207 625.525 -20.3507C625.915 -20.3807 626.215 -20.081 626.245 -19.6913L627.266 0.390741C627.296 0.75042 626.995 1.08012 626.605 1.11009C626.215 1.14007 625.915 0.840353 625.885 0.450701L624.864 -19.6314C624.864 -19.6613 624.864 -19.6913 624.864 -19.7213Z" fill="white"/>
</g>
<g opacity="0.55">
<path d="M527.158 52.1244C527.158 52.0644 527.188 52.0344 527.248 52.0045L625.464 -19.8113C625.554 -19.8713 625.675 -19.8413 625.735 -19.7813C625.795 -19.6914 625.795 -19.5715 625.704 -19.5116L527.488 52.3042C527.398 52.3642 527.278 52.3642 527.218 52.2743C527.158 52.2143 527.158 52.1843 527.158 52.1244Z" fill="white"/>
</g>
<g opacity="0.56">
<path d="M527.128 52.1245C527.158 51.9746 527.279 51.9146 527.369 51.9446L647.647 78.2311C647.767 78.2611 647.857 78.381 647.797 78.4709C647.767 78.5908 647.677 78.6507 647.557 78.6208L527.279 52.3342C527.188 52.3342 527.128 52.2443 527.128 52.1245Z" fill="white"/>
</g>
<g opacity="0.55">
<path d="M487.746 95.6755C487.746 95.6455 487.776 95.5856 487.806 95.5556L527.218 52.0345C527.279 51.9446 527.399 51.9446 527.489 52.0345C527.579 52.0944 527.579 52.2143 527.489 52.3042L488.076 95.8253C488.016 95.9153 487.896 95.9153 487.806 95.8253C487.776 95.7954 487.746 95.7354 487.746 95.6755Z" fill="white"/>
</g>
<g opacity="0.59">
<path d="M527.129 52.1244C527.129 52.0645 527.189 51.9746 527.249 51.9446L626.485 0.240806C626.605 0.180859 626.725 0.240802 626.785 0.330722C626.845 0.450615 626.785 0.570503 626.695 0.630449L527.459 52.3342C527.339 52.3942 527.219 52.3342 527.159 52.2443C527.128 52.2143 527.129 52.1844 527.129 52.1244Z" fill="white"/>
</g>
<g opacity="0.59">
<path d="M621.232 131.883C621.232 131.763 621.352 131.673 621.472 131.643C621.622 131.643 621.743 131.733 621.743 131.883L626.815 195.366C626.815 195.516 626.725 195.636 626.575 195.636C626.425 195.636 626.305 195.546 626.305 195.396L621.232 131.913C621.232 131.913 621.232 131.913 621.232 131.883Z" fill="white"/>
</g>
<g opacity="0.5">
<path d="M621.322 131.883C621.322 131.823 621.382 131.763 621.442 131.733L746.194 81.2584C746.284 81.2285 746.374 81.2584 746.434 81.3483C746.464 81.4383 746.434 81.5282 746.344 81.5881L621.593 132.063C621.502 132.093 621.412 132.063 621.352 131.973C621.322 131.943 621.322 131.913 621.322 131.883Z" fill="white"/>
</g>
<g opacity="0.65">
<path d="M626.275 0.420582C626.275 0.300689 626.365 0.210764 626.485 0.180791C626.635 0.150818 626.786 0.240736 626.846 0.390602L647.888 78.3809C647.918 78.5308 647.828 78.6807 647.677 78.7406C647.527 78.7706 647.377 78.6806 647.317 78.5308L626.305 0.510498C626.275 0.480525 626.275 0.450555 626.275 0.420582Z" fill="white"/>
</g>
<g opacity="0.64">
<path d="M320.4 169.38C320.4 169.32 320.43 169.23 320.49 169.2C320.61 169.11 320.79 169.11 320.91 169.23L373.02 232.293C373.11 232.413 373.11 232.593 372.99 232.683C372.87 232.773 372.69 232.773 372.57 232.653L320.46 169.589C320.43 169.529 320.4 169.439 320.4 169.38Z" fill="white"/>
</g>
<g opacity="0.53">
<path d="M647.437 78.441C647.437 78.381 647.497 78.3211 647.557 78.2911C647.647 78.2611 647.737 78.3211 647.767 78.411L679.826 174.625C679.856 174.715 679.796 174.805 679.706 174.835C679.616 174.865 679.526 174.805 679.495 174.715L647.437 78.501C647.437 78.471 647.437 78.441 647.437 78.441Z" fill="white"/>
</g>
<g opacity="0.55">
<path d="M182.352 266.373C182.352 266.343 182.382 266.283 182.412 266.253L259.196 186.315C259.286 186.225 259.406 186.225 259.496 186.315C259.586 186.404 259.586 186.524 259.496 186.614L182.712 266.553C182.622 266.643 182.502 266.643 182.412 266.553C182.352 266.493 182.352 266.433 182.352 266.373Z" fill="white"/>
</g>
<g opacity="0.52">
<path d="M302.63 526.57C302.63 526.51 302.66 526.451 302.72 526.391L364.225 481.641C364.345 481.551 364.496 481.581 364.556 481.701C364.646 481.82 364.616 481.97 364.496 482.03L302.99 526.78C302.87 526.87 302.72 526.84 302.66 526.72C302.63 526.69 302.6 526.63 302.63 526.57Z" fill="white"/>
</g>
<g opacity="0.53">
<path d="M498.642 -33.659C498.642 -33.749 498.732 -33.8389 498.852 -33.8389C498.972 -33.8389 499.062 -33.7489 499.062 -33.6291L503.145 56.95C503.145 57.0699 503.054 57.1598 502.934 57.1598C502.814 57.1598 502.724 57.0699 502.724 56.95L498.642 -33.659Z" fill="white"/>
</g>
<g opacity="0.58">
<path d="M483.754 89.2612L498.582 -33.659C498.612 -33.8088 498.732 -33.8987 498.852 -33.8688C499.002 -33.8388 499.092 -33.6889 499.062 -33.599L484.234 89.3212C484.204 89.471 484.084 89.5609 483.964 89.5309C483.844 89.5309 483.724 89.3811 483.754 89.2612Z" fill="white"/>
</g>
<g opacity="0.55">
<path d="M430.773 -56.8582C430.773 -56.9181 430.834 -57.008 430.894 -57.038C431.014 -57.098 431.164 -57.068 431.224 -56.9481L503.145 56.8002C503.205 56.9201 503.175 57.07 503.055 57.1299C502.935 57.1899 502.785 57.1599 502.725 57.07L430.804 -56.6784C430.773 -56.7683 430.743 -56.7982 430.773 -56.8582Z" fill="white"/>
</g>
<g opacity="0.54">
<path d="M430.773 -56.8582C430.773 -56.9482 430.834 -57.0381 430.924 -57.068C431.044 -57.098 431.194 -57.0381 431.224 -56.9182L484.234 89.2012C484.264 89.3211 484.204 89.471 484.084 89.501C483.964 89.5309 483.814 89.471 483.784 89.3511L430.773 -56.7683C430.773 -56.7983 430.743 -56.8283 430.773 -56.8582Z" fill="white"/>
</g>
<g opacity="0.54">
<path d="M679.466 174.655C679.466 174.595 679.496 174.565 679.526 174.535C679.616 174.475 679.736 174.475 679.796 174.565L708.042 208.974C708.102 209.064 708.102 209.184 708.012 209.244C707.922 209.304 707.802 209.304 707.742 209.214L679.496 174.805C679.466 174.745 679.466 174.685 679.466 174.655Z" fill="white"/>
</g>
<g opacity="0.67">
<path d="M483.604 89.2313C483.604 89.1714 483.634 89.1114 483.664 89.0814L502.574 56.7104C502.694 56.5305 502.905 56.4706 503.085 56.5605C503.265 56.6804 503.325 56.8902 503.235 57.07L484.324 89.4411C484.204 89.6209 483.994 89.6809 483.814 89.591C483.664 89.531 483.604 89.3812 483.604 89.2313Z" fill="white"/>
</g>
<g opacity="0.56">
<path d="M771.828 252.405C771.828 252.375 771.858 252.316 771.858 252.286L850.533 144.172C850.593 144.082 850.743 144.052 850.834 144.112C850.924 144.172 850.954 144.322 850.894 144.412L772.219 252.525C772.159 252.615 772.009 252.645 771.918 252.585C771.858 252.555 771.798 252.465 771.828 252.405Z" fill="white"/>
</g>
<g opacity="0.55">
<path d="M716.987 156.401C716.987 156.281 717.077 156.221 717.197 156.191L850.713 144.082C850.834 144.082 850.954 144.172 850.954 144.292C850.954 144.412 850.864 144.532 850.743 144.532L717.227 156.641C717.107 156.641 716.987 156.551 716.987 156.431C716.987 156.431 716.987 156.431 716.987 156.401Z" fill="white"/>
</g>
<g opacity="0.54">
<path d="M707.712 209.064C707.712 209.004 707.772 208.914 707.832 208.884L850.623 144.112C850.743 144.052 850.863 144.112 850.893 144.202C850.953 144.292 850.893 144.442 850.803 144.472L708.012 209.244C707.892 209.304 707.772 209.244 707.742 209.154C707.712 209.124 707.712 209.094 707.712 209.064Z" fill="white"/>
</g>
<g opacity="0.67">
<path d="M707.562 209.064C707.562 209.004 707.592 208.944 707.622 208.914C707.742 208.764 707.952 208.704 708.102 208.824L772.249 252.165C772.399 252.285 772.459 252.495 772.339 252.645C772.219 252.795 772.009 252.855 771.858 252.735L707.712 209.394C707.592 209.304 707.532 209.184 707.562 209.064Z" fill="white"/>
</g>
<g opacity="0.58">
<path d="M678.775 195.486C678.775 195.456 678.775 195.426 678.805 195.396C678.865 195.276 679.015 195.216 679.135 195.276L708.012 208.854C708.132 208.914 708.192 209.064 708.132 209.184C708.072 209.304 707.922 209.364 707.802 209.304L678.925 195.726C678.835 195.666 678.775 195.576 678.775 195.486Z" fill="white"/>
</g>
<g opacity="0.68">
<path d="M707.531 209.034L716.837 156.341C716.867 156.131 717.077 156.012 717.257 156.042C717.467 156.072 717.557 156.251 717.557 156.461L708.252 209.124C708.222 209.334 708.012 209.454 707.832 209.424C707.651 209.424 707.531 209.244 707.531 209.034Z" fill="white"/>
</g>
<g opacity="0.6">
<path d="M684.328 197.345C684.328 197.285 684.358 197.255 684.388 197.195L716.987 156.251C717.077 156.131 717.257 156.101 717.377 156.221C717.497 156.311 717.497 156.491 717.407 156.611L684.809 197.554C684.719 197.674 684.538 197.704 684.418 197.584C684.358 197.524 684.328 197.435 684.328 197.345Z" fill="white"/>
</g>
<g opacity="0.54">
<path d="M716.987 156.401C716.987 156.341 717.017 156.281 717.077 156.251C717.167 156.191 717.317 156.221 717.347 156.341L772.188 252.346C772.249 252.465 772.219 252.585 772.098 252.615C772.008 252.675 771.858 252.645 771.828 252.525L716.987 156.521C716.987 156.491 716.987 156.461 716.987 156.401Z" fill="white"/>
</g>
<g opacity="0.68">
<path d="M678.655 195.456C678.655 195.366 678.685 195.307 678.745 195.247L716.927 156.161C717.077 156.012 717.287 156.012 717.437 156.161C717.587 156.311 717.587 156.551 717.437 156.671L679.255 195.756C679.105 195.906 678.895 195.906 678.745 195.756C678.685 195.696 678.655 195.576 678.655 195.456Z" fill="white"/>
</g>
<g opacity="0.8">
<path d="M678.385 195.456C678.385 195.396 678.385 195.366 678.415 195.306C678.535 194.977 678.895 194.767 679.255 194.887L684.839 196.745C685.169 196.865 685.379 197.225 685.259 197.584C685.139 197.914 684.779 198.124 684.418 198.004L678.835 196.146C678.535 196.026 678.355 195.726 678.385 195.456Z" fill="white"/>
</g>
<g opacity="0.61">
<path d="M613.728 172.946C613.728 172.916 613.728 172.916 613.728 172.886C613.788 172.737 613.938 172.647 614.088 172.707L679.105 195.217C679.255 195.277 679.345 195.426 679.285 195.576C679.225 195.726 679.075 195.816 678.925 195.756L613.908 173.246C613.788 173.216 613.698 173.096 613.728 172.946Z" fill="white"/>
</g>
<g opacity="0.67">
<path d="M613.638 172.946C613.638 172.917 613.638 172.887 613.668 172.857C613.728 172.677 613.938 172.557 614.148 172.617L684.748 196.985C684.928 197.045 685.049 197.255 684.989 197.465C684.928 197.644 684.718 197.764 684.508 197.704L613.908 173.336C613.728 173.276 613.608 173.126 613.638 172.946Z" fill="white"/>
</g>
<g opacity="0.56">
<path d="M541.957 47.4486C541.957 47.3886 541.987 47.3586 542.017 47.3286L607.334 -40.9425C607.424 -41.0624 607.574 -41.0923 607.694 -41.0024C607.814 -40.9125 607.844 -40.7626 607.754 -40.6427L542.437 47.6284C542.347 47.7483 542.197 47.7783 542.077 47.6884C541.987 47.6284 541.927 47.5385 541.957 47.4486Z" fill="white"/>
</g>
<g opacity="0.59">
<path d="M502.634 56.8901C502.634 56.8302 502.664 56.7703 502.724 56.7103L607.304 -41.0023C607.424 -41.1222 607.604 -41.0923 607.724 -41.0023C607.815 -40.8825 607.815 -40.7026 607.724 -40.5827L503.145 57.1299C503.025 57.2498 502.845 57.2199 502.724 57.1299C502.664 57.04 502.634 56.9801 502.634 56.8901Z" fill="white"/>
</g>
<g opacity="0.58">
<path d="M434.225 101.46C434.225 101.37 434.285 101.31 434.345 101.25L502.754 56.6803C502.875 56.5904 503.055 56.6204 503.145 56.7703C503.235 56.8902 503.205 57.07 503.055 57.1599L434.646 101.73C434.525 101.82 434.345 101.79 434.255 101.64C434.225 101.58 434.195 101.52 434.225 101.46Z" fill="white"/>
</g>
<g opacity="0.63">
<path d="M502.574 56.8903C502.574 56.7404 502.694 56.6206 502.814 56.5906L542.107 47.149C542.287 47.119 542.467 47.2089 542.527 47.3888C542.557 47.5686 542.467 47.7485 542.287 47.8084L502.994 57.2499C502.814 57.2799 502.634 57.19 502.574 57.0102C502.574 56.9503 502.574 56.9203 502.574 56.8903Z" fill="white"/>
</g>
<g opacity="0.53">
<path d="M308.514 52.6638C308.514 52.6339 308.514 52.6339 308.544 52.6039C308.604 52.484 308.724 52.4241 308.844 52.454L434.586 101.25C434.706 101.31 434.766 101.43 434.736 101.55C434.676 101.67 434.556 101.73 434.436 101.7L308.664 52.9336C308.544 52.8737 308.484 52.7837 308.514 52.6638Z" fill="white"/>
</g>
<g opacity="0.64">
<path d="M434.135 101.46C434.135 101.34 434.225 101.221 434.345 101.161L542.047 47.1489C542.227 47.0589 542.437 47.1189 542.527 47.2987C542.617 47.4786 542.557 47.6884 542.377 47.7783L434.676 101.79C434.496 101.88 434.285 101.82 434.195 101.64C434.135 101.58 434.135 101.52 434.135 101.46Z" fill="white"/>
</g>
<g opacity="0.6">
<path d="M861.249 368.402C861.249 368.372 861.249 368.342 861.279 368.312L915.4 254.234C915.46 254.084 915.64 254.024 915.79 254.084C915.94 254.144 916 254.324 915.94 254.474L861.819 368.552C861.759 368.702 861.579 368.762 861.429 368.702C861.309 368.642 861.249 368.522 861.249 368.402Z" fill="white"/>
</g>
<g opacity="0.61">
<path d="M690.302 493.63C690.302 493.54 690.362 493.48 690.422 493.42C690.542 493.3 690.752 493.33 690.872 493.45L769.727 584.778C769.847 584.898 769.817 585.108 769.697 585.228C769.577 585.348 769.367 585.318 769.247 585.198L690.392 493.87C690.302 493.81 690.272 493.72 690.302 493.63Z" fill="white"/>
</g>
<path opacity="0.62" d="M252.231 43.1924C252.081 44.7511 250.671 45.92 249.11 45.7701C247.549 45.6203 246.378 44.2115 246.528 42.6529C246.678 41.0943 248.089 39.9253 249.65 40.0752C251.241 40.1951 252.412 41.6039 252.231 43.1924Z" fill="white"/>
<path opacity="0.58" d="M327.995 118.515C327.844 120.074 326.434 121.243 324.873 121.093C323.312 120.943 322.141 119.534 322.291 117.976C322.441 116.417 323.852 115.248 325.413 115.398C327.004 115.518 328.145 116.927 327.995 118.515Z" fill="white"/>
<path opacity="0.64" d="M355.911 50.8356C355.761 52.4841 354.29 53.683 352.639 53.5032C350.988 53.3533 349.787 51.8847 349.967 50.2361C350.117 48.5876 351.588 47.3887 353.239 47.5685C354.86 47.7184 356.061 49.1871 355.911 50.8356Z" fill="white"/>
<path opacity="0.6" d="M282.219 112.79C282.069 114.349 280.658 115.518 279.097 115.368C277.536 115.218 276.365 113.809 276.515 112.251C276.666 110.692 278.076 109.523 279.637 109.673C281.228 109.823 282.369 111.232 282.219 112.79Z" fill="white"/>
<path opacity="0.6" d="M242.956 194.617C242.806 196.176 241.395 197.345 239.835 197.195C238.274 197.045 237.103 195.636 237.253 194.078C237.403 192.519 238.814 191.35 240.375 191.5C241.966 191.65 243.106 193.058 242.956 194.617Z" fill="white"/>
<path opacity="0.91" d="M253.072 44.0317C252.892 45.95 251.151 47.3588 249.23 47.1789C247.309 46.9991 245.898 45.2606 246.078 43.3423C246.258 41.424 247.999 40.0153 249.92 40.1952C251.841 40.405 253.252 42.1134 253.072 44.0317Z" fill="white"/>
<path opacity="0.96" d="M302.81 -0.688058C302.6 1.32015 300.829 2.75887 298.818 2.57903C296.807 2.36922 295.336 0.600797 295.546 -1.40741C295.756 -3.41561 297.527 -4.88431 299.538 -4.6745C301.55 -4.46469 302.99 -2.69626 302.81 -0.688058Z" fill="white"/>
<path opacity="0.7" d="M650.109 273.147C649.928 274.855 648.398 276.114 646.687 275.934C644.976 275.755 643.715 274.226 643.895 272.517C644.075 270.809 645.606 269.55 647.317 269.73C649.028 269.88 650.289 271.408 650.109 273.147Z" fill="white"/>
<path opacity="0.94" d="M732.956 0.540214C732.746 2.54842 730.975 4.0171 728.964 3.80728C726.952 3.59747 725.482 1.82905 725.692 -0.17916C725.902 -2.18737 727.673 -3.65604 729.684 -3.44623C731.695 -3.26639 733.166 -1.46799 732.956 0.540214Z" fill="white"/>
<path d="M531.091 52.5145C530.881 54.5826 529.05 56.1112 526.948 55.9014C524.877 55.6916 523.346 53.8633 523.556 51.7651C523.767 49.697 525.598 48.1683 527.699 48.3782C529.8 48.6179 531.301 50.4463 531.091 52.5145Z" fill="white"/>
<path opacity="0.7" d="M662.926 319.366C662.746 321.074 661.215 322.333 659.504 322.153C657.793 321.973 656.532 320.445 656.712 318.736C656.893 317.028 658.423 315.769 660.134 315.949C661.845 316.099 663.106 317.627 662.926 319.366Z" fill="white"/>
<path opacity="0.93" d="M625.104 132.273C624.894 134.281 623.123 135.75 621.112 135.54C619.101 135.33 617.63 133.562 617.84 131.554C618.05 129.545 619.821 128.077 621.832 128.286C623.844 128.496 625.314 130.265 625.104 132.273Z" fill="white"/>
<path d="M630.327 0.810344C630.117 2.8785 628.286 4.40714 626.185 4.19733C624.114 3.98752 622.583 2.15914 622.793 0.0610136C623.003 -2.00714 624.834 -3.53576 626.935 -3.32595C629.037 -3.11614 630.537 -1.25781 630.327 0.810344Z" fill="white"/>
<path d="M491.828 96.0652C491.618 98.2232 489.697 99.7818 487.566 99.572C485.405 99.3622 483.844 97.4439 484.054 95.3158C484.264 93.1577 486.185 91.5991 488.316 91.809C490.447 92.0188 492.038 93.9071 491.828 96.0652Z" fill="white"/>
<path d="M324.573 169.769C324.363 171.927 322.442 173.486 320.31 173.276C318.179 173.066 316.588 171.148 316.798 169.02C317.009 166.862 318.93 165.303 321.061 165.513C323.192 165.723 324.813 167.641 324.573 169.769Z" fill="white"/>
<path opacity="0.98" d="M749.886 81.7979C749.676 83.8061 747.905 85.2748 745.893 85.065C743.882 84.8552 742.411 83.0868 742.622 81.0786C742.832 79.0704 744.603 77.6016 746.614 77.8115C748.625 78.0213 750.066 79.7897 749.886 81.7979Z" fill="white"/>
<path opacity="0.97" d="M630.177 195.756C629.967 197.765 628.196 199.233 626.185 199.023C624.174 198.814 622.703 197.045 622.913 195.037C623.123 193.029 624.894 191.59 626.905 191.77C628.917 191.98 630.387 193.748 630.177 195.756Z" fill="white"/>
<path d="M651.369 78.8306C651.159 80.8988 649.328 82.4274 647.227 82.2176C645.156 82.0078 643.625 80.1794 643.835 78.0813C644.045 76.0131 645.876 74.4845 647.977 74.6943C650.049 74.9041 651.58 76.7325 651.369 78.8306Z" fill="white"/>
<path d="M376.683 232.833C376.472 234.991 374.551 236.55 372.42 236.34C370.259 236.13 368.698 234.212 368.908 232.084C369.118 229.925 371.039 228.367 373.17 228.577C375.302 228.786 376.893 230.705 376.683 232.833Z" fill="white"/>
<path d="M186.554 266.793C186.344 269.011 184.363 270.629 182.141 270.419C179.92 270.209 178.299 268.231 178.509 266.013C178.719 263.795 180.7 262.177 182.922 262.386C185.173 262.596 186.794 264.575 186.554 266.793Z" fill="white"/>
<path opacity="0.82" d="M367.738 482.18C367.557 484.038 365.907 485.387 364.046 485.207C362.184 485.028 360.834 483.379 361.014 481.521C361.194 479.662 362.845 478.314 364.706 478.493C366.567 478.673 367.918 480.322 367.738 482.18Z" fill="white"/>
<path opacity="0.83" d="M306.232 526.93C306.052 528.788 304.401 530.137 302.54 529.957C300.679 529.778 299.329 528.129 299.509 526.271C299.689 524.412 301.34 523.064 303.201 523.243C305.062 523.423 306.413 525.072 306.232 526.93Z" fill="white"/>
<path d="M263.608 186.854C263.368 189.222 261.266 190.93 258.895 190.691C256.524 190.451 254.813 188.353 255.053 185.985C255.293 183.617 257.394 181.908 259.766 182.148C262.107 182.418 263.848 184.516 263.608 186.854Z" fill="white"/>
<path d="M683.548 175.045C683.338 177.203 681.416 178.761 679.285 178.551C677.124 178.342 675.563 176.423 675.773 174.295C675.983 172.137 677.904 170.579 680.036 170.788C682.197 170.998 683.758 172.916 683.548 175.045Z" fill="white"/>
<path d="M488.676 89.7408C488.406 92.3185 486.125 94.2068 483.543 93.9371C480.962 93.6673 479.071 91.3894 479.341 88.8117C479.611 86.234 481.892 84.3456 484.474 84.6154C487.025 84.8851 488.916 87.1631 488.676 89.7408Z" fill="white"/>
<path d="M854.976 144.742C854.735 147.11 852.634 148.818 850.263 148.578C847.892 148.338 846.181 146.24 846.421 143.872C846.661 141.505 848.762 139.796 851.133 140.036C853.505 140.276 855.216 142.374 854.976 144.742Z" fill="white"/>
<path d="M712.064 209.484C711.824 211.762 709.783 213.44 707.502 213.2C705.22 212.961 703.539 210.923 703.78 208.645C704.02 206.367 706.061 204.688 708.342 204.928C710.623 205.168 712.274 207.206 712.064 209.484Z" fill="white"/>
<path d="M721.489 156.851C721.249 159.219 719.148 160.927 716.777 160.687C714.405 160.448 712.694 158.349 712.934 155.982C713.175 153.614 715.276 151.905 717.647 152.145C719.989 152.385 721.7 154.483 721.489 156.851Z" fill="white"/>
<path d="M683.307 195.936C683.067 198.304 680.966 200.012 678.595 199.773C676.223 199.533 674.512 197.435 674.753 195.067C674.993 192.699 677.094 190.99 679.465 191.23C681.807 191.47 683.548 193.568 683.307 195.936Z" fill="white"/>
<path d="M618.411 173.426C618.17 175.854 616.009 177.622 613.578 177.383C611.146 177.143 609.375 174.985 609.616 172.557C609.856 170.129 612.017 168.361 614.448 168.6C616.88 168.84 618.651 170.998 618.411 173.426Z" fill="white"/>
<path d="M507.707 57.3997C507.437 60.0373 505.096 61.9856 502.424 61.7158C499.753 61.4461 497.832 59.1082 498.102 56.4406C498.372 53.7729 500.713 51.8547 503.385 52.1244C506.056 52.3942 507.977 54.762 507.707 57.3997Z" fill="white"/>
<path d="M439.418 101.97C439.148 104.697 436.717 106.676 434.015 106.406C431.284 106.136 429.303 103.708 429.573 101.011C429.843 98.2831 432.274 96.3049 434.976 96.5747C437.707 96.8444 439.689 99.2723 439.418 101.97Z" fill="white"/>
<path d="M313.917 53.2034C313.647 56.0509 311.095 58.149 308.214 57.8792C305.362 57.6095 303.261 55.0618 303.531 52.1843C303.801 49.3369 306.352 47.2387 309.234 47.5085C312.116 47.8082 314.217 50.3559 313.917 53.2034Z" fill="white"/>
<path d="M776.181 252.825C775.941 255.103 773.899 256.782 771.618 256.542C769.337 256.302 767.656 254.264 767.896 251.986C768.136 249.708 770.177 248.029 772.459 248.269C774.74 248.509 776.421 250.547 776.181 252.825Z" fill="white"/>
<path d="M689.011 197.794C688.771 200.222 686.61 201.991 684.178 201.751C681.747 201.511 679.976 199.353 680.216 196.925C680.456 194.497 682.617 192.729 685.049 192.969C687.48 193.208 689.251 195.367 689.011 197.794Z" fill="white"/>
<path d="M547.27 47.9878C547 50.7753 544.508 52.8135 541.717 52.5438C538.925 52.274 536.884 49.7862 537.154 46.9987C537.424 44.2112 539.916 42.173 542.707 42.4428C545.499 42.7126 547.54 45.2003 547.27 47.9878Z" fill="white"/>
<path d="M866.202 368.911C865.932 371.489 863.651 373.377 861.069 373.108C858.488 372.838 856.597 370.56 856.867 367.982C857.137 365.404 859.418 363.516 862 363.786C864.581 364.026 866.442 366.334 866.202 368.911Z" fill="white"/>
<path d="M695.405 494.139C695.134 496.777 692.793 498.725 690.122 498.456C687.48 498.186 685.529 495.848 685.799 493.18C686.069 490.543 688.411 488.594 691.082 488.864C693.754 489.134 695.675 491.502 695.405 494.139Z" fill="white"/>
<path d="M774.259 585.468C773.989 588.105 771.648 590.054 768.976 589.784C766.335 589.514 764.384 587.176 764.654 584.509C764.924 581.871 767.265 579.923 769.937 580.192C772.608 580.462 774.529 582.83 774.259 585.468Z" fill="white"/>
</g>
<defs>
<clipPath id="clip0_457_194">
<rect width="610" height="904" fill="white" transform="translate(904) rotate(90)"/>
</clipPath>
</defs>
</svg>
