<svg width="499" height="446" viewBox="0 0 499 446" fill="none" xmlns="http://www.w3.org/2000/svg">
<g clip-path="url(#clip0_645_12676)">
<g opacity="0.5">
<path opacity="0.3" d="M308.587 172.95L279.036 155.884L308.587 138.819L338.139 155.884L308.587 172.95Z" fill="#4326A2"/>
<path opacity="0.3" d="M338.139 190.016L308.587 172.95L338.139 155.884L367.69 172.95L338.139 190.016Z" fill="#4326A2"/>
<path opacity="0.1" d="M367.69 207.081L338.139 190.016L367.69 172.95L397.242 190.016L367.69 207.081Z" fill="#4326A2"/>
<path opacity="0.6" d="M279.036 190.016L249.5 172.95L279.036 155.884L308.587 172.95L279.036 190.016Z" fill="#4326A2"/>
<path opacity="0.3" d="M308.587 207.081L279.036 190.016L308.587 172.95L338.139 190.016L308.587 207.081Z" fill="#4326A2"/>
<path opacity="0.3" d="M338.139 224.147L308.587 207.081L338.139 190.015L367.69 207.081L338.139 224.147Z" fill="#4326A2"/>
<path opacity="0.3" d="M190.397 172.95L160.845 155.884L190.397 138.819L219.948 155.884L190.397 172.95Z" fill="#4326A2"/>
<path opacity="0.3" d="M219.949 190.016L190.397 172.95L219.949 155.884L249.5 172.95L219.949 190.016Z" fill="#4326A2"/>
<path opacity="0.6" d="M249.5 207.081L219.948 190.016L249.5 172.95L279.035 190.016L249.5 207.081Z" fill="#4326A2"/>
<path opacity="0.3" d="M279.052 224.147L249.5 207.081L279.036 190.015L308.587 207.081L279.052 224.147Z" fill="#4326A2"/>
<path opacity="0.3" d="M308.587 241.212L279.052 224.147L308.587 207.081L338.139 224.147L308.587 241.212Z" fill="#4326A2"/>
<path opacity="0.6" d="M338.139 258.278L308.587 241.212L338.139 224.147L367.69 241.212L338.139 258.278Z" fill="#4326A2"/>
<path opacity="0.3" d="M367.69 275.344L338.139 258.278L367.69 241.212L397.242 258.278L367.69 275.344Z" fill="#4326A2"/>
<path opacity="0.3" d="M397.242 292.409L367.69 275.344L397.242 258.278L426.794 275.344L397.242 292.409Z" fill="#4326A2"/>
<path opacity="0.1" d="M160.845 190.016L131.293 172.95L160.845 155.884L190.397 172.95L160.845 190.016Z" fill="#4326A2"/>
<path opacity="0.3" d="M190.397 207.081L160.845 190.016L190.397 172.95L219.948 190.016L190.397 207.081Z" fill="#4326A2"/>
<path opacity="0.3" d="M219.949 224.147L190.397 207.081L219.949 190.015L249.5 207.081L219.949 224.147Z" fill="#4326A2"/>
<path opacity="0.3" d="M249.5 241.212L219.948 224.147L249.5 207.081L279.051 224.147L249.5 241.212Z" fill="#4326A2"/>
<path opacity="0.3" d="M279.052 258.278L249.5 241.212L279.052 224.147L308.587 241.212L279.052 258.278Z" fill="#4326A2"/>
<path opacity="0.3" d="M308.603 275.344L279.052 258.278L308.587 241.212L338.139 258.278L308.603 275.344Z" fill="#4326A2"/>
<path opacity="0.6" d="M338.139 292.409L308.603 275.344L338.139 258.278L367.69 275.344L338.139 292.409Z" fill="#4326A2"/>
<path opacity="0.3" d="M367.69 309.475L338.139 292.409L367.69 275.344L397.242 292.409L367.69 309.475Z" fill="#4326A2"/>
<path opacity="0.3" d="M397.242 326.54L367.69 309.475L397.242 292.409L426.794 309.475L397.242 326.54Z" fill="#4326A2"/>
<path opacity="0.3" d="M131.294 207.081L101.742 190.016L131.294 172.95L160.845 190.016L131.294 207.081Z" fill="#4326A2"/>
<path opacity="0.6" d="M160.845 224.147L131.293 207.081L160.845 190.015L190.397 207.081L160.845 224.147Z" fill="#4326A2"/>
<path opacity="0.3" d="M190.397 241.212L160.845 224.147L190.397 207.081L219.948 224.147L190.397 241.212Z" fill="#4326A2"/>
<path opacity="0.3" d="M219.949 258.278L190.397 241.212L219.949 224.147L249.5 241.212L219.949 258.278Z" fill="#4326A2"/>
<path opacity="0.1" d="M249.5 275.344L219.948 258.278L249.5 241.212L279.051 258.278L249.5 275.344Z" fill="#4326A2"/>
<path opacity="0.3" d="M279.052 292.409L249.5 275.344L279.052 258.278L308.603 275.344L279.052 292.409Z" fill="#4326A2"/>
<path opacity="0.3" d="M308.603 309.475L279.052 292.409L308.603 275.344L338.139 292.409L308.603 309.475Z" fill="#4326A2"/>
<path opacity="0.3" d="M338.139 326.54L308.603 309.475L338.139 292.409L367.69 309.475L338.139 326.54Z" fill="#4326A2"/>
<path opacity="0.3" d="M367.69 343.606L338.139 326.54L367.69 309.475L397.242 326.54L367.69 343.606Z" fill="#4326A2"/>
<path opacity="0.3" d="M101.742 224.147L72.1904 207.081L101.742 190.015L131.294 207.081L101.742 224.147Z" fill="#4326A2"/>
<path opacity="0.3" d="M131.294 241.212L101.742 224.147L131.294 207.081L160.845 224.147L131.294 241.212Z" fill="#4326A2"/>
<path opacity="0.3" d="M160.845 258.278L131.293 241.212L160.845 224.147L190.397 241.212L160.845 258.278Z" fill="#4326A2"/>
<path opacity="0.1" d="M190.397 275.344L160.845 258.278L190.397 241.212L219.948 258.278L190.397 275.344Z" fill="#4326A2"/>
<path opacity="0.3" d="M219.949 292.409L190.397 275.344L219.949 258.278L249.5 275.344L219.949 292.409Z" fill="#4326A2"/>
<path opacity="0.6" d="M249.5 309.475L219.948 292.409L249.5 275.344L279.051 292.409L249.5 309.475Z" fill="#4326A2"/>
<path opacity="0.3" d="M279.052 326.54L249.5 309.475L279.052 292.409L308.603 309.475L279.052 326.54Z" fill="#4326A2"/>
<path opacity="0.1" d="M308.603 343.606L279.052 326.54L308.603 309.475L338.139 326.54L308.603 343.606Z" fill="#4326A2"/>
<path opacity="0.3" d="M338.155 360.672L308.603 343.606L338.139 326.541L367.69 343.606L338.155 360.672Z" fill="#4326A2"/>
<path opacity="0.3" d="M72.1904 241.212L42.6548 224.147L72.1904 207.081L101.742 224.147L72.1904 241.212Z" fill="#4326A2"/>
<path opacity="0.6" d="M101.742 258.278L72.1904 241.212L101.742 224.147L131.294 241.212L101.742 258.278Z" fill="#4326A2"/>
<path opacity="0.3" d="M131.294 275.344L101.742 258.278L131.294 241.212L160.845 258.278L131.294 275.344Z" fill="#4326A2"/>
<path opacity="0.3" d="M160.845 292.409L131.293 275.344L160.845 258.278L190.397 275.344L160.845 292.409Z" fill="#4326A2"/>
<path opacity="0.3" d="M190.397 309.475L160.845 292.409L190.397 275.344L219.948 292.409L190.397 309.475Z" fill="#4326A2"/>
<path opacity="0.3" d="M219.949 326.54L190.397 309.475L219.949 292.409L249.5 309.475L219.949 326.54Z" fill="#4326A2"/>
<path opacity="0.6" d="M249.5 343.606L219.948 326.54L249.5 309.475L279.051 326.54L249.5 343.606Z" fill="#4326A2"/>
<path opacity="0.3" d="M279.052 360.672L249.5 343.606L279.052 326.541L308.603 343.606L279.052 360.672Z" fill="#4326A2"/>
<path opacity="0.3" d="M308.603 377.737L279.052 360.672L308.603 343.606L338.155 360.672L308.603 377.737Z" fill="#4326A2"/>
<path opacity="0.3" d="M72.1904 275.344L42.6548 258.278L72.1904 241.212L101.742 258.278L72.1904 275.344Z" fill="#4326A2"/>
<path opacity="0.3" d="M101.742 292.409L72.1904 275.344L101.742 258.278L131.294 275.344L101.742 292.409Z" fill="#4326A2"/>
<path opacity="0.3" d="M131.294 309.475L101.742 292.409L131.294 275.344L160.845 292.409L131.294 309.475Z" fill="#4326A2"/>
<path opacity="0.6" d="M160.845 326.54L131.293 309.475L160.845 292.409L190.397 309.475L160.845 326.54Z" fill="#4326A2"/>
<path opacity="0.1" d="M190.397 343.606L160.845 326.54L190.397 309.475L219.948 326.54L190.397 343.606Z" fill="#4326A2"/>
<path opacity="0.6" d="M219.949 360.672L190.397 343.606L219.949 326.541L249.5 343.606L219.949 360.672Z" fill="#4326A2"/>
<path opacity="0.3" d="M249.5 377.737L219.948 360.672L249.5 343.606L279.051 360.672L249.5 377.737Z" fill="#4326A2"/>
<path opacity="0.6" d="M279.052 394.803L249.5 377.738L279.052 360.672L308.603 377.738L279.052 394.803Z" fill="#4326A2"/>
</g>
<path d="M311.81 329.363C315.556 329.363 318.593 326.326 318.593 322.579C318.593 318.832 315.556 315.794 311.81 315.794C308.064 315.794 305.027 318.832 305.027 322.579C305.027 326.326 308.064 329.363 311.81 329.363Z" fill="#24126A"/>
<path d="M385.328 246.858C385.328 250.595 382.298 253.643 378.546 253.643C374.794 253.643 371.763 250.611 371.763 246.858C371.763 243.121 374.794 240.073 378.546 240.073C382.298 240.073 385.328 243.121 385.328 246.858Z" fill="#24126A"/>
<path d="M399.904 298.616C399.904 302.353 396.873 305.401 393.121 305.401C389.385 305.401 386.338 302.369 386.338 298.616C386.338 294.879 389.369 291.832 393.121 291.832C396.873 291.832 399.904 294.863 399.904 298.616Z" fill="#24126A"/>
<path d="M253.492 285.833C253.492 289.57 250.462 292.618 246.71 292.618C242.974 292.618 239.927 289.586 239.927 285.833C239.927 282.096 242.958 279.049 246.71 279.049C250.446 279.049 253.492 282.096 253.492 285.833Z" fill="#24126A"/>
<path d="M295.375 240.041C295.375 243.779 292.344 246.826 288.592 246.826C284.856 246.826 281.81 243.795 281.81 240.041C281.81 236.304 284.84 233.257 288.592 233.257C292.344 233.257 295.375 236.304 295.375 240.041Z" fill="#24126A"/>
<path d="M321.431 265.143L246.934 279.498C246.614 279.53 246.309 279.578 246.02 279.642L246.085 279.145L242.509 278.247V282.481H242.525C242.525 282.641 242.525 282.818 242.573 282.978C243.022 284.63 245.716 285.769 248.586 285.496L323.082 271.141L321.431 265.143Z" fill="url(#paint0_linear_645_12676)"/>
<path d="M383.821 239.592L381.56 241.501C379.604 240.651 376.621 240.843 374.585 242.03L321.527 265.127L328.951 269.409L382.009 246.313C383.26 245.591 383.853 244.661 383.805 243.795L383.821 243.811V239.592Z" fill="#0C0B6B"/>
<path d="M293.626 234.428C292.312 232.936 289.153 232.342 286.555 233.096C286.251 233.193 285.962 233.289 285.705 233.417C285.577 233.209 285.433 233 285.24 232.824C284.775 232.359 283.685 231.701 283.685 231.701V235.919L283.701 235.903C283.717 236.336 283.894 236.769 284.262 237.186L318.512 268.463L327.876 265.704L293.626 234.428Z" fill="url(#paint1_linear_645_12676)"/>
<path d="M398.011 291.447L396.745 291.896L396.023 293.404C395.75 293.275 395.462 293.163 395.141 293.067L327.94 265.752L323.178 271.157L390.379 298.472C392.96 299.226 396.119 298.632 397.45 297.141C397.851 296.692 398.011 296.211 397.995 295.729L398.027 295.745L398.011 291.447Z" fill="#0C0B6B"/>
<path d="M318.528 268.511L307.496 315.81L306.679 315.393V319.772L306.695 319.756C306.839 321.151 308.635 322.338 311.104 322.563C313.974 322.819 316.652 321.696 317.117 320.044L328.919 269.489L318.528 268.511Z" fill="#0C0B6B"/>
<path d="M395.141 288.848L332.815 263.507L382.009 242.094C384.206 240.827 384.446 238.903 382.538 237.796L382.025 237.491C380.117 236.384 376.782 236.529 374.585 237.796L325.391 259.208L293.627 230.193C292.312 228.702 289.153 228.108 286.555 228.862C283.974 229.616 282.948 231.444 284.263 232.936L316.027 261.935L246.934 275.247C244.064 275.504 242.108 277.06 242.573 278.712C243.022 280.364 245.716 281.502 248.586 281.23L317.678 267.917L306.743 314.816C306.294 316.468 308.25 318.024 311.104 318.28C313.974 318.537 316.652 317.414 317.117 315.762L328.053 268.864L390.379 294.205C392.96 294.959 396.119 294.366 397.45 292.874C398.765 291.431 397.739 289.602 395.141 288.848ZM326.145 263.571L324.99 264.886L322.457 264.661L322.056 263.202L324.333 262.528L326.145 263.571Z" fill="url(#paint2_radial_645_12676)"/>
<path d="M323.996 267.452C320.998 267.452 318.561 265.014 318.561 262.015V199.062H329.432V262.015C329.416 265.014 326.995 267.452 323.996 267.452Z" fill="#24126A"/>
<path d="M295.07 124.303L295.038 124.319C294.91 122.892 293.98 121.561 292.216 120.534L291.078 119.877C286.861 117.439 279.485 117.743 274.61 120.566L240.248 140.407C237.667 141.898 236.32 143.791 236.24 145.619L236.224 145.635V151.618H236.24C236.24 153.174 237.17 154.649 239.078 155.756L240.216 156.414C244.433 158.852 251.809 158.547 256.684 155.724L291.046 135.884C293.547 134.44 294.894 132.612 295.054 130.847L295.086 130.831V124.303H295.07Z" fill="url(#paint3_radial_645_12676)"/>
<path d="M240.232 150.559L239.094 149.902C234.877 147.464 235.406 143.213 240.28 140.39L274.642 120.55C279.517 117.743 286.893 117.422 291.11 119.86L292.248 120.518C296.465 122.956 295.936 127.206 291.062 130.029L256.7 149.87C251.825 152.692 244.449 152.997 240.232 150.559Z" fill="url(#paint4_radial_645_12676)"/>
<path d="M312.965 178.243L241.002 219.752C237.442 221.805 234.54 219.624 234.54 214.876C234.54 210.129 237.426 204.595 241.002 202.542L323.435 154.986V158.242C323.435 165.941 318.753 174.907 312.965 178.243Z" fill="#515151"/>
<path d="M318.256 0.86606C315.755 -0.481227 312.532 -0.304796 309.021 1.73217L306.872 2.96719C298.919 7.55438 292.473 19.8885 292.473 30.5064V172.854L311.586 161.819V166.342L288.657 185.027L236.561 219.961L309.774 261.358L351.865 228.942L375.836 208.46L390.78 41.8621L318.256 0.86606Z" fill="url(#paint5_radial_645_12676)"/>
<path d="M264.621 235.839C264.621 235.839 262.68 230.691 266.529 226.841C270.377 222.992 290.613 214.475 292.088 213.561C293.547 212.647 300.827 207.29 300.827 207.29L303.039 202.317C303.039 202.317 261.943 206.327 261.398 206.969C260.853 207.61 242.156 224.371 242.717 225.109C243.263 225.847 255.593 228.83 255.593 228.83L257.966 232.086L264.621 235.839Z" fill="#2D2D2D"/>
<path d="M381.913 42.9367L379.764 44.1717C371.811 48.7589 365.365 61.093 365.365 71.7109V214.042L313.895 243.747C310.335 245.8 307.433 251.333 307.433 256.081C307.433 260.828 310.319 263.026 313.895 260.957L385.857 219.447C391.646 216.111 396.328 207.145 396.328 199.43V196.175V53.8273C396.328 43.2094 389.866 38.3335 381.913 42.9367Z" fill="url(#paint6_radial_645_12676)"/>
<path d="M245.155 266.666C245.155 266.666 234.556 273.467 230.964 277.477C227.372 281.487 220.269 289.699 223.203 293.612C226.122 297.526 235.999 299.707 246.598 289.939C257.196 280.171 254.182 279.594 263.225 274.75C272.253 269.906 274.738 264.646 273.664 261.63C272.574 258.615 268.116 253.29 265.679 254.445C263.225 255.583 245.155 266.666 245.155 266.666Z" fill="url(#paint7_linear_645_12676)"/>
<path d="M296.722 295.248C296.722 295.248 292.922 303.621 290.949 306.412C288.993 309.186 279.485 325.225 284.439 328.914C289.41 332.603 298.822 331.577 306.262 323.493C313.702 315.41 315.354 305.578 317.198 302.338C319.026 299.114 323.596 290.485 321.431 285.513C319.266 280.54 318.785 279.674 318.785 279.674L296.722 295.248Z" fill="url(#paint8_linear_645_12676)"/>
<path d="M258.223 175.949C258.223 175.949 226.715 207.033 221.552 222.655C221.552 222.655 219.371 231.092 225.464 237.7C231.557 244.324 244.481 265.945 244.481 265.945C244.481 265.945 254.134 277.621 266.593 268.287C266.593 268.287 272.221 259.289 268.757 253.29C265.294 247.307 256.074 228.173 256.074 228.173C256.074 228.173 276.278 214.267 286.251 210.754C296.225 207.242 301.548 204.531 301.548 204.531C301.548 204.531 299.736 213.946 292.44 223.12C285.145 232.295 272.926 247.051 276.999 257.316C281.056 267.581 283.413 270.757 287.245 276.675C291.061 282.577 294.685 294.912 297.94 296.195C301.195 297.478 316.268 298.953 318.705 289.137C321.142 279.321 313.574 260.251 310.159 253.803C310.159 253.803 350.902 206.793 354.783 201.612C358.647 196.463 270.826 167.978 258.223 175.949Z" fill="url(#paint9_radial_645_12676)"/>
<path d="M268.774 253.29C265.31 247.307 256.09 228.173 256.09 228.173C256.09 228.173 276.294 214.267 286.267 210.754C296.241 207.241 301.564 204.531 301.564 204.531C303.472 201.884 309.662 191.78 312.436 183.776C289.458 177.04 264.509 171.971 258.239 175.933C260.468 181.435 272.173 181.386 272.173 181.386C272.173 181.386 276.551 192.036 279.453 193.4C282.355 194.763 289.298 193.271 289.298 193.271C289.298 193.271 288.176 195.02 283.221 198.596C278.266 202.173 247.271 227.579 247.271 227.579C247.271 227.579 249.035 228.59 257.293 243.506C265.551 258.438 266.609 268.27 266.609 268.27C266.609 268.27 272.237 259.272 268.774 253.29Z" fill="#160A5B"/>
<path opacity="0.6" d="M338.411 192.437C320.196 190.705 298.982 190.545 303.761 200.104C311.858 216.336 328.149 217.057 328.149 217.057C328.053 223.024 303.055 251.814 303.055 251.814C303.055 251.814 303.055 251.814 308.876 263.138C314.696 274.462 313.975 295.104 313.975 295.104C316.22 293.885 317.999 291.976 318.721 289.121C321.158 279.305 313.59 260.235 310.175 253.787C310.175 253.787 350.918 206.76 354.799 201.596C355.921 200.088 349.026 196.511 338.411 192.437Z" fill="#020230"/>
<path d="M226.362 93.059L231.205 89.3058C231.205 89.3058 257.325 74.8064 266.016 70.0909C270.714 67.5407 275.604 63.0016 279.1 59.3608C282.499 55.8161 287.213 53.8273 292.136 53.8112L337.898 53.5867C337.898 53.5867 343.222 62.1355 345.018 63.8036C346.333 65.0386 358.759 75.448 367.658 84.0129C372.581 88.7605 376.173 94.711 378.033 101.287C383.132 119.267 383.052 155.483 383.821 181.386C383.821 181.386 380.662 182.621 372.838 184.29C365.045 185.958 366.007 184.883 366.007 184.883C366.007 184.883 354.334 211.155 338.492 213.705C322.65 216.239 301.308 208.829 297.507 183.953C297.507 183.953 266.625 179.317 258.255 175.885C257.485 175.564 257.213 174.618 257.71 173.944C261.446 168.988 275.364 149.773 276.695 137.247C278.234 122.779 277.753 101.768 276.615 96.0262C276.615 96.0262 253.332 104.8 245.908 106.355C245.908 106.355 217.559 137.519 205.71 146.004C205.71 146.004 209.767 139.621 201.621 135.29L226.362 93.059Z" fill="url(#paint10_radial_645_12676)"/>
<path opacity="0.6" d="M372.854 184.306C374.04 184.049 375.115 183.808 376.093 183.584L374.441 180.344L331.485 175.789L306.391 177.088L297.764 185.284C298.245 187.946 298.935 190.417 299.801 192.662C299.849 192.662 310.463 194.202 315.402 193.143C320.341 192.085 358.567 197.714 358.647 197.714C362.977 191.491 365.654 185.701 365.991 184.963C365.959 185.188 366.424 185.685 372.854 184.306Z" fill="#020230"/>
<path d="M314.873 169.293C314.825 169.133 314.696 169.02 314.52 169.02C312.451 168.972 299.031 168.571 293.948 166.823C288.448 164.93 282.611 165.267 282.307 165.588C282.002 165.909 272.846 169.79 272.301 171.378C271.82 172.773 270.938 177.649 272.157 179.446C273.375 181.242 273.953 182.445 273.953 182.445L274.915 182.541C274.915 182.541 276.149 184.963 276.839 185.829C277.143 186.198 277.384 186.615 277.592 187.064C278.17 188.315 279.196 190.384 279.613 190.416C280.222 190.481 283.06 191.042 283.782 190.866C284.375 190.705 284.904 188.909 284.664 188.123C284.6 187.898 284.712 187.706 284.936 187.674C286.251 187.465 289.795 187.016 294.685 187.465C300.65 188.011 309.1 184.113 309.87 183.744C309.918 183.728 309.95 183.712 309.998 183.712L318.416 182.958C318.657 182.942 318.817 182.702 318.753 182.461L314.873 169.293Z" fill="#FCD1C5"/>
<path d="M304.723 80.5326C304.723 80.5326 297.555 106.949 305.14 134.103C305.14 134.103 332.703 82.6658 335.701 74.3094C338.684 65.953 339.774 60.0346 336.984 57.0353C334.194 54.0359 309.277 69.5297 309.277 69.5297L304.723 80.5326Z" fill="#F0F6FF"/>
<path d="M311.826 121.961C311.826 121.961 317.07 105.89 316.156 100.694C315.242 95.4969 313.943 91.7919 313.943 91.7919L318.673 87.4292L320.758 91.7598C320.758 91.7598 331.18 84.1091 331.869 82.6816C331.869 82.6816 323.467 88.4397 320.838 89.3058C320.838 89.3058 319.587 87.2368 317.935 86.5471C316.284 85.8413 312.179 91.4711 312.179 91.4711L311.409 101.223L307.289 123.966L308.716 127.351L311.826 121.961Z" fill="#C4CCD6"/>
<path d="M317.952 86.5472C317.952 86.5472 313.286 78.3191 307.208 80.8373C307.208 80.8373 306.23 90.974 307.048 91.9043C305.685 93.6846 302.302 98.5765 301.693 103.966C300.009 119.059 305.124 134.103 305.124 134.103L309.213 126.42C309.213 126.42 310.239 117.166 312.933 107.206C314.921 99.8436 313.911 94.0054 313.254 91.4391C315.001 90.0437 317.952 86.5472 317.952 86.5472Z" fill="url(#paint11_radial_645_12676)"/>
<path d="M291.847 38.3976C291.847 38.3976 290.58 44.8133 291.045 46.0483C291.494 47.2673 293.13 48.0852 292.729 50.5874C292.328 53.0895 293.771 60.5797 294.525 63.0658C294.525 63.0658 293.98 65.7283 294.733 66.5623C295.487 67.3803 296.449 67.3643 297.155 68.6153C297.86 69.8824 298.085 76.3622 300.714 78.5275C303.344 80.6928 306.759 81.1419 308.523 80.6768C310.287 80.2116 312.099 78.8643 312.099 78.8643L316.043 80.5164C316.043 80.5164 336.551 74.7102 335.91 60.291L335.894 58.7673C335.894 58.7673 337.353 56.7303 337.77 55.3991C338.187 54.0678 341.586 48.0692 339.871 45.4869C339.871 45.4869 347.808 14.1304 323.307 12.2378C298.806 10.3291 295.118 27.507 291.847 38.3976Z" fill="#FCD1C5"/>
<path d="M335.894 60.2751V60.0987C334.868 59.4892 333.874 59.1042 333.072 59.2486C330.266 59.7458 330.907 53.9236 330.907 53.9236C330.907 53.9236 330.394 54.9822 328.951 62.4083C327.524 69.8344 312.067 78.8484 312.067 78.8484L316.011 80.5004C316.043 80.5004 336.536 74.6943 335.894 60.2751Z" fill="#E2B1A6"/>
<path d="M291.96 24.7965C289.571 29.8809 288.416 35.9918 293.435 40.0978C293.435 40.0978 297.652 41.2527 305.653 37.5316C311.041 35.0295 316.444 36.1362 319.379 37.1306C320.742 37.5957 321.624 38.8789 321.591 40.3063L321.479 44.7652C321.447 45.92 322.137 46.9786 323.195 47.4438L326.915 49.0316L327.652 53.3782C327.877 54.6614 329.192 55.4312 330.41 54.9982L331.356 54.6614C331.356 54.6614 331.918 45.0058 339.871 45.487C339.871 45.487 346.317 31.5329 339.71 18.7658C333.104 5.99865 314.985 6.91288 311.121 8.3564C306.038 10.2651 306.743 9.97636 303.825 11.7888C298.726 14.9324 294.509 19.3753 291.96 24.7965Z" fill="#AA8383"/>
<path opacity="0.6" d="M357.156 123.197C357.156 123.197 353.436 150.559 351.928 158.29L339.935 164.61L361.228 163.31L357.156 123.197Z" fill="#020230"/>
<path d="M339.855 45.4709C339.855 45.4709 342.035 40.7394 342.564 34.2756C332.655 42.1188 321.575 40.2903 321.575 40.2903L321.463 44.7492C321.431 45.904 322.12 46.9626 323.179 47.4277L326.899 49.0156L327.636 53.3622C327.861 54.6453 329.176 55.4152 330.394 54.9821L331.34 54.6453C331.34 54.6453 331.901 44.9898 339.855 45.4709Z" fill="#936D6D"/>
<path opacity="0.6" d="M345.162 69.5137C345.162 69.5137 338.812 91.3108 337.498 95.5131L332.399 94.9678L333.313 101.865L305.813 138.129L336.343 103.068L335.141 96.9245L339.775 97.4218L345.162 69.5137Z" fill="#020230"/>
<path d="M318.16 187.995C318.16 187.995 382.651 185.893 384.302 184.723C385.954 183.552 386.242 166.951 386.082 157.328C385.97 150.575 386.05 124.175 380.293 105.666C384.815 121.352 382.442 176.799 380.39 179.622C378.337 182.445 316.989 184.065 316.989 184.065C317.663 186.391 318.16 187.995 318.16 187.995Z" fill="#263649"/>
<path d="M191.439 136.397C191.439 136.397 191.199 138.017 188.393 139.621C185.586 141.208 178.419 144.753 177.249 145.78C176.094 146.806 170.915 151.345 170.755 151.939C170.61 152.532 169.055 157.681 169.055 158.001C169.071 158.306 169.568 160.696 169.568 160.696L167.965 168.299C167.965 168.299 165.944 171.25 168.141 172.052C170.338 172.854 171.588 170.576 171.62 170.223C171.62 170.223 174.956 168.635 177.393 166.743C179.83 164.85 189.627 156.975 191.279 157.456C192.946 157.937 191.407 160.76 190.621 161.257C189.82 161.739 184.64 166.807 186.805 170.336C188.986 173.864 190.397 168.347 191.824 167.224C193.267 166.101 196.362 161.69 198.254 161.145C200.162 160.6 203.609 153.494 204.058 150.335C204.507 147.159 206.768 145.122 207.586 144.096C208.404 143.069 205.838 135.194 205.838 135.194L196.153 132.178L192.754 134.392L191.439 136.397Z" fill="#FCD1C5"/>
<mask id="mask0_645_12676" style="mask-type:luminance" maskUnits="userSpaceOnUse" x="334" y="174" width="60" height="35">
<path d="M338.796 207.161L337.658 206.504C333.441 204.066 333.97 199.815 338.844 196.993L373.206 177.152C378.081 174.345 385.457 174.024 389.674 176.462L390.812 177.12C395.029 179.558 394.5 183.808 389.626 186.631L355.264 206.472C350.389 209.295 343.013 209.599 338.796 207.161Z" fill="white"/>
</mask>
<g mask="url(#mask0_645_12676)">
<path d="M375.547 94.8072C373.527 91.5994 372.597 93.9732 369.871 96.6036C366.199 100.164 361.597 105.698 359.208 112.691C354.879 125.41 356.434 157.183 357.877 161.738C357.877 161.738 317.486 168.347 314.696 168.234C311.906 168.106 318.16 188.011 318.16 188.011C318.16 188.011 382.651 185.909 384.302 184.739C385.954 183.568 386.242 166.967 386.082 157.344C385.954 149.1 386.114 111.504 375.547 94.8072Z" fill="#334659"/>
</g>
<mask id="mask1_645_12676" style="mask-type:luminance" maskUnits="userSpaceOnUse" x="334" y="174" width="60" height="35">
<path d="M338.796 207.161L337.658 206.504C333.441 204.066 333.97 199.815 338.844 196.993L373.206 177.152C378.081 174.345 385.457 174.024 389.674 176.462L390.812 177.12C395.029 179.558 394.5 183.808 389.626 186.631L355.264 206.472C350.389 209.295 343.013 209.599 338.796 207.161Z" fill="white"/>
</mask>
<g mask="url(#mask1_645_12676)">
<path d="M318.16 187.995C318.16 187.995 382.651 185.893 384.302 184.723C385.954 183.552 386.242 166.951 386.082 157.328C385.97 150.575 386.05 124.175 380.293 105.666C384.815 121.352 382.442 176.799 380.39 179.622C378.337 182.445 316.989 184.065 316.989 184.065C317.663 186.391 318.16 187.995 318.16 187.995Z" fill="#263649"/>
</g>
<path d="M393.65 180.921L393.618 180.938C393.49 179.51 392.56 178.179 390.796 177.152L389.658 176.495C385.441 174.057 378.065 174.361 373.19 177.184L338.828 197.025C336.247 198.516 334.9 200.409 334.82 202.237L334.804 202.254V208.236H334.82C334.82 209.792 335.75 211.268 337.658 212.374L338.796 213.032C343.013 215.47 350.389 215.165 355.264 212.342L389.626 192.502C392.127 191.058 393.474 189.23 393.634 187.465L393.666 187.449V180.921H393.65Z" fill="url(#paint12_radial_645_12676)"/>
<path d="M338.796 207.161L337.658 206.504C333.441 204.066 333.97 199.815 338.844 196.993L373.206 177.152C378.081 174.345 385.457 174.024 389.674 176.462L390.812 177.12C395.029 179.558 394.5 183.808 389.626 186.631L355.264 206.472C350.389 209.295 343.013 209.599 338.796 207.161Z" fill="url(#paint13_radial_645_12676)"/>
<path d="M276.679 376.39C275.3 376.39 274.001 376.053 272.83 375.38C270.121 373.808 268.629 370.68 268.629 366.558V273.884H272.638V366.558C272.638 369.14 273.44 371.097 274.835 371.899C276.23 372.701 278.314 372.428 280.559 371.129L357.701 326.589C363.089 323.477 367.626 315.602 367.626 309.395V216.737H371.635V309.395C371.635 317.125 366.392 326.204 359.705 330.069L282.563 374.61C280.527 375.797 278.523 376.39 276.679 376.39Z" fill="#6826FF"/>
<path d="M79.6143 266.699C78.2353 266.699 76.9365 266.362 75.766 265.688C73.0562 264.116 71.5649 260.989 71.5649 256.867V164.192H75.5736V256.867C75.5736 259.449 76.3753 261.406 77.7703 262.208C79.1653 263.01 81.2498 262.737 83.4946 261.438L160.637 216.897C166.024 213.785 170.562 205.91 170.562 199.703V107.029H174.571V199.687C174.571 207.418 169.327 216.496 162.641 220.362L85.4989 264.902C83.4626 266.105 81.4582 266.699 79.6143 266.699Z" fill="#6826FF"/>
<path d="M74.5649 197.323L72.5874 200.811L269.665 312.601L271.642 309.113L74.5649 197.323Z" fill="#6826FF"/>
<path opacity="0.5" d="M271.195 294.318L60.9502 172.902L173.849 107.703L384.094 229.119L271.195 294.318Z" fill="url(#paint14_linear_645_12676)"/>
<path d="M60.9502 162.829V172.902L271.195 294.318L384.094 229.119V219.046L271.195 284.245L60.9502 162.829Z" fill="url(#paint15_linear_645_12676)"/>
<path d="M271.195 284.245L60.9502 162.829L173.849 97.6301L384.094 219.046L271.195 284.245Z" fill="url(#paint16_linear_645_12676)"/>
<path opacity="0.4" d="M283.509 189.679C283.509 189.679 291.591 192.566 297.764 191.539C303.937 190.513 333.649 189.935 333.649 189.935L328.983 187.241L318.561 179.991L292.745 181.739L282.788 185.316L283.509 189.679Z" fill="#020230"/>
<path d="M314.873 169.293C314.825 169.133 314.696 169.02 314.52 169.02C312.451 168.972 299.031 168.571 293.948 166.823C288.448 164.93 282.611 165.267 282.307 165.588C282.002 165.909 272.846 169.79 272.301 171.378C271.82 172.773 270.938 177.649 272.157 179.446C273.375 181.242 273.953 182.445 273.953 182.445L274.915 182.541C274.915 182.541 276.149 184.963 276.839 185.829C277.143 186.198 277.384 186.615 277.592 187.064C278.17 188.315 279.196 190.384 279.613 190.416C280.222 190.481 283.06 191.042 283.782 190.866C284.375 190.705 284.904 188.909 284.664 188.123C284.6 187.898 284.712 187.706 284.936 187.674C286.251 187.465 289.795 187.016 294.685 187.465C300.65 188.011 309.1 184.113 309.87 183.744C309.918 183.728 309.95 183.712 309.998 183.712L318.416 182.958C318.657 182.942 318.817 182.702 318.753 182.461L314.873 169.293Z" fill="#FCD1C5"/>
<path d="M375.547 94.8072C373.527 91.5994 372.597 93.9732 369.871 96.6036C366.199 100.164 361.597 105.698 359.208 112.691C354.879 125.41 356.434 157.183 357.877 161.738C357.877 161.738 317.486 168.347 314.696 168.234C311.906 168.106 318.16 188.011 318.16 188.011C318.16 188.011 382.651 185.909 384.302 184.739C385.954 183.568 386.242 166.967 386.082 157.344C385.954 149.1 386.114 111.504 375.547 94.8072Z" fill="url(#paint17_radial_645_12676)"/>
<path opacity="0.6" d="M318.16 187.995C318.16 187.995 382.651 185.893 384.302 184.723C385.954 183.552 386.242 166.951 386.082 157.328C385.97 150.575 386.05 124.175 380.293 105.666C384.815 121.352 382.442 176.799 380.39 179.622C378.337 182.445 316.989 184.065 316.989 184.065C317.663 186.391 318.16 187.995 318.16 187.995Z" fill="#020230"/>
<path opacity="0.3" d="M202.567 154.97C202.567 154.97 225.625 136.942 228.928 135.21C232.231 133.462 233.61 132.146 233.61 132.146L225.897 127.688L212.845 133.061L196.41 149.356L171.091 167.304V171.474C171.091 171.474 191.968 162.508 194.309 160.985C196.634 159.445 202.567 154.97 202.567 154.97Z" fill="#180D5B"/>
<path opacity="0.63" d="M188.809 171.298C188.809 171.298 193.716 166.903 196.891 165.444C200.065 163.984 205.1 160.086 205.71 157.103C206.335 154.12 211.578 147.528 211.578 147.528L203.176 152.372L191.006 159.397L170.754 171.153C170.754 171.153 171.989 172.581 174.555 171.699C177.12 170.833 181.93 167.753 184.175 167.48C186.42 167.208 190.124 166.518 190.124 166.518L188.809 171.298Z" fill="#2D2D2D"/>
<path d="M191.439 136.397C191.439 136.397 191.199 138.017 188.393 139.621C185.586 141.208 178.419 144.753 177.249 145.78C176.094 146.806 170.915 151.345 170.755 151.939C170.61 152.532 169.055 157.681 169.055 158.001C169.071 158.306 169.568 160.696 169.568 160.696L167.965 168.299C167.965 168.299 165.944 171.25 168.141 172.052C170.338 172.854 171.588 170.576 171.62 170.223C171.62 170.223 174.956 168.635 177.393 166.743C179.83 164.85 189.627 156.975 191.279 157.456C192.946 157.937 191.407 160.76 190.621 161.257C189.82 161.739 184.64 166.807 186.805 170.336C188.986 173.864 190.397 168.347 191.824 167.224C193.267 166.101 196.362 161.69 198.254 161.145C200.162 160.6 203.609 153.494 204.058 150.335C204.507 147.159 206.768 145.122 207.586 144.096C208.404 143.069 205.838 135.194 205.838 135.194L196.153 132.178L192.754 134.392L191.439 136.397Z" fill="#FCD1C5"/>
<path d="M278.923 83.1949C278.923 83.1949 278.57 68.7437 281.024 57.6606C280.35 58.1899 279.693 58.7353 279.1 59.3608C275.604 63.0017 270.73 67.5568 266.015 70.091C257.325 74.7904 231.205 89.3058 231.205 89.3058L226.362 93.059C211.049 105.072 193.924 131.216 191.439 136.397C192.642 134.793 195.72 132.162 201.621 135.306C209.766 139.637 205.886 146.149 205.886 146.149C217.736 137.664 245.908 106.371 245.908 106.371C252.867 104.912 273.744 97.1169 276.358 96.1385C278.025 91.7919 279.003 87.4293 278.923 83.1949Z" fill="url(#paint18_radial_645_12676)"/>
<path opacity="0.6" d="M153.181 188.187L237.619 236.946C238.549 237.475 239.944 237.539 240.745 237.074L291.142 207.979C291.943 207.514 291.847 206.712 290.917 206.183L206.479 157.424C205.549 156.895 204.154 156.831 203.353 157.296L152.956 186.391C152.155 186.856 152.251 187.658 153.181 188.187Z" fill="#020230"/>
<path d="M149.38 181.884L154.03 184.322L200.707 157.36C201.493 156.911 202.855 156.959 203.753 157.488L284.263 203.986C285.032 203.553 288.544 201.868 288.544 201.868L286.844 206.311C286.78 206.504 286.62 206.696 286.363 206.841L237.201 235.23C236.416 235.679 235.053 235.631 234.155 235.102L151.77 187.513C151.401 187.305 151.176 187.048 151.08 186.776L149.38 181.884Z" fill="url(#paint19_linear_645_12676)"/>
<path d="M150.102 182.654L234.54 231.412C235.47 231.942 236.865 232.006 237.667 231.541L288.063 202.446C288.865 201.981 288.769 201.179 287.839 200.649L203.401 151.89C202.471 151.361 201.076 151.297 200.274 151.762L149.878 180.857C149.076 181.306 149.188 182.108 150.102 182.654Z" fill="url(#paint20_linear_645_12676)"/>
<path d="M179.445 176.029L236.608 209.054L239.318 207.482L182.155 174.474L179.445 176.029Z" fill="#24126A"/>
<path opacity="0.4" d="M175.116 178.532L242.429 217.41L245.139 215.839L177.826 176.96L175.116 178.532Z" fill="#06033E"/>
<path opacity="0.4" d="M170.787 181.034L238.099 219.913L240.809 218.341L173.496 179.462L170.787 181.034Z" fill="#06033E"/>
<path d="M166.458 183.536L233.77 222.399L236.48 220.843L169.167 181.964L166.458 183.536Z" fill="#24126A"/>
<path opacity="0.4" d="M253.926 208.252L188.794 170.624L186.084 172.196L250.719 209.519L253.429 211.091L256.139 209.519L253.926 208.252Z" fill="#06033E"/>
<path opacity="0.4" d="M233.321 207.145L246.79 214.924L249.5 213.369L235.935 205.525L233.321 207.145Z" fill="#06033E"/>
<path d="M149.525 180.633L160.204 117.278L159.338 116.909L160.621 116.171C160.878 116.011 161.23 116.011 161.615 116.236L246.919 165.508C247.624 165.909 248.153 166.951 248.025 167.673L237.266 231.525C237.202 231.862 237.042 232.086 236.817 232.182L235.55 232.904L235.326 231.733L235.39 231.749L150.599 182.782C149.926 182.397 149.397 181.354 149.525 180.633Z" fill="url(#paint21_radial_645_12676)"/>
<path d="M246.454 167.256L247.849 166.63C248.009 166.983 248.089 167.368 248.025 167.689L237.266 231.541C237.202 231.878 237.042 232.102 236.817 232.198L235.55 232.92L235.326 231.749L235.39 231.765L231.093 229.295L246.454 167.256Z" fill="url(#paint22_linear_645_12676)"/>
<path d="M149.285 183.568L234.588 232.84C235.246 233.225 235.807 233 235.919 232.327L246.678 168.475C246.806 167.753 246.277 166.711 245.572 166.31L160.268 117.038C159.611 116.653 159.05 116.877 158.937 117.551L148.178 181.403C148.066 182.124 148.595 183.167 149.285 183.568Z" fill="url(#paint23_linear_645_12676)"/>
</g>
<defs>
<linearGradient id="paint0_linear_645_12676" x1="320.603" y1="265.457" x2="197.847" y2="295.409" gradientUnits="userSpaceOnUse">
<stop stop-color="#5761D7"/>
<stop offset="0.1779" stop-color="#5C66D9"/>
<stop offset="0.3876" stop-color="#6A73DF"/>
<stop offset="0.6134" stop-color="#8289E8"/>
<stop offset="0.849" stop-color="#A3A7F5"/>
<stop offset="1" stop-color="#BCBEFF"/>
</linearGradient>
<linearGradient id="paint1_linear_645_12676" x1="306.199" y1="251.569" x2="274.427" y2="220.866" gradientUnits="userSpaceOnUse">
<stop stop-color="#5761D7"/>
<stop offset="0.1779" stop-color="#5C66D9"/>
<stop offset="0.3876" stop-color="#6A73DF"/>
<stop offset="0.6134" stop-color="#8289E8"/>
<stop offset="0.849" stop-color="#A3A7F5"/>
<stop offset="1" stop-color="#BCBEFF"/>
</linearGradient>
<radialGradient id="paint2_radial_645_12676" cx="0" cy="0" r="1" gradientUnits="userSpaceOnUse" gradientTransform="translate(217.956 250.726) scale(204.87 204.929)">
<stop stop-color="#E39A65"/>
<stop offset="0.401" stop-color="#A92FFB"/>
<stop offset="0.5473" stop-color="#891CFB"/>
<stop offset="0.7262" stop-color="#6507FA"/>
<stop offset="1" stop-color="#3919BB"/>
</radialGradient>
<radialGradient id="paint3_radial_645_12676" cx="0" cy="0" r="1" gradientUnits="userSpaceOnUse" gradientTransform="translate(224.201 106.358) scale(45.3854 45.3984)">
<stop stop-color="#E39A65"/>
<stop offset="0.401" stop-color="#A92FFB"/>
<stop offset="0.5473" stop-color="#891CFB"/>
<stop offset="0.7262" stop-color="#6507FA"/>
<stop offset="1" stop-color="#3919BB"/>
</radialGradient>
<radialGradient id="paint4_radial_645_12676" cx="0" cy="0" r="1" gradientUnits="userSpaceOnUse" gradientTransform="translate(213.838 103.439) scale(99.447 99.4756)">
<stop stop-color="#E39A65"/>
<stop offset="0.401" stop-color="#A92FFB"/>
<stop offset="0.5473" stop-color="#891CFB"/>
<stop offset="0.7262" stop-color="#6507FA"/>
<stop offset="1" stop-color="#3919BB"/>
</radialGradient>
<radialGradient id="paint5_radial_645_12676" cx="0" cy="0" r="1" gradientUnits="userSpaceOnUse" gradientTransform="translate(232.978 -8.85671) scale(252.503 252.576)">
<stop stop-color="#E39A65"/>
<stop offset="0.401" stop-color="#A92FFB"/>
<stop offset="0.5473" stop-color="#891CFB"/>
<stop offset="0.7262" stop-color="#6507FA"/>
<stop offset="1" stop-color="#3919BB"/>
</radialGradient>
<radialGradient id="paint6_radial_645_12676" cx="0" cy="0" r="1" gradientUnits="userSpaceOnUse" gradientTransform="translate(147.722 45.3482) scale(460.652 460.785)">
<stop stop-color="#E39A65"/>
<stop offset="0.2827" stop-color="#A92FFB"/>
<stop offset="0.3347" stop-color="#891CFB"/>
<stop offset="0.3984" stop-color="#6507FA"/>
<stop offset="0.5405" stop-color="#0D0C6F"/>
</radialGradient>
<linearGradient id="paint7_linear_645_12676" x1="261.829" y1="280.568" x2="213.446" y2="263.302" gradientUnits="userSpaceOnUse">
<stop stop-color="#2D0979"/>
<stop offset="1" stop-color="#5B04F7"/>
</linearGradient>
<linearGradient id="paint8_linear_645_12676" x1="310.952" y1="308.517" x2="275.257" y2="292.857" gradientUnits="userSpaceOnUse">
<stop stop-color="#2D0979"/>
<stop offset="1" stop-color="#5B04F7"/>
</linearGradient>
<radialGradient id="paint9_radial_645_12676" cx="0" cy="0" r="1" gradientUnits="userSpaceOnUse" gradientTransform="translate(159.322 236.168) scale(141.253 141.294)">
<stop stop-color="#E39A65"/>
<stop offset="0.4742" stop-color="#A92FFB"/>
<stop offset="0.5875" stop-color="#891CFB"/>
<stop offset="0.7262" stop-color="#6507FA"/>
<stop offset="1" stop-color="#3919BB"/>
</radialGradient>
<radialGradient id="paint10_radial_645_12676" cx="0" cy="0" r="1" gradientUnits="userSpaceOnUse" gradientTransform="translate(285.156 52.9584) scale(171.121 171.171)">
<stop stop-color="#E39A65"/>
<stop offset="0.4742" stop-color="#A92FFB"/>
<stop offset="0.5875" stop-color="#891CFB"/>
<stop offset="0.7262" stop-color="#6507FA"/>
<stop offset="1" stop-color="#3919BB"/>
</radialGradient>
<radialGradient id="paint11_radial_645_12676" cx="0" cy="0" r="1" gradientUnits="userSpaceOnUse" gradientTransform="translate(186.301 99.2027) scale(150.04 150.083)">
<stop stop-color="#E39A65"/>
<stop offset="0.4742" stop-color="#A92FFB"/>
<stop offset="0.5875" stop-color="#891CFB"/>
<stop offset="0.7262" stop-color="#6507FA"/>
<stop offset="1" stop-color="#3919BB"/>
</radialGradient>
<radialGradient id="paint12_radial_645_12676" cx="0" cy="0" r="1" gradientUnits="userSpaceOnUse" gradientTransform="translate(345.676 166.985) scale(74.0318 74.0531)">
<stop stop-color="#E39A65"/>
<stop offset="0.2827" stop-color="#A92FFB"/>
<stop offset="0.3347" stop-color="#891CFB"/>
<stop offset="0.3984" stop-color="#6507FA"/>
<stop offset="0.5405" stop-color="#0D0C6F"/>
</radialGradient>
<radialGradient id="paint13_radial_645_12676" cx="0" cy="0" r="1" gradientUnits="userSpaceOnUse" gradientTransform="translate(334.588 162.84) scale(48.6181 48.6321)">
<stop stop-color="#E39A65"/>
<stop offset="0.401" stop-color="#A92FFB"/>
<stop offset="0.5473" stop-color="#891CFB"/>
<stop offset="0.7262" stop-color="#6507FA"/>
<stop offset="1" stop-color="#3919BB"/>
</radialGradient>
<linearGradient id="paint14_linear_645_12676" x1="60.9483" y1="201.009" x2="384.086" y2="201.009" gradientUnits="userSpaceOnUse">
<stop stop-color="#42E8E0"/>
<stop offset="0.1507" stop-color="#43E3E0"/>
<stop offset="0.3285" stop-color="#45D5DF"/>
<stop offset="0.5199" stop-color="#49BDDD"/>
<stop offset="0.7209" stop-color="#4E9CDB"/>
<stop offset="0.9274" stop-color="#5472D8"/>
<stop offset="1" stop-color="#5761D7"/>
</linearGradient>
<linearGradient id="paint15_linear_645_12676" x1="378.026" y1="228.575" x2="54.8838" y2="228.575" gradientUnits="userSpaceOnUse">
<stop stop-color="#5761D7"/>
<stop offset="0.1779" stop-color="#5C66D9"/>
<stop offset="0.3876" stop-color="#6A73DF"/>
<stop offset="0.6134" stop-color="#8289E8"/>
<stop offset="0.849" stop-color="#A3A7F5"/>
<stop offset="1" stop-color="#BCBEFF"/>
</linearGradient>
<linearGradient id="paint16_linear_645_12676" x1="101.401" y1="190.919" x2="424.524" y2="190.919" gradientUnits="userSpaceOnUse">
<stop stop-color="#CEBCFF"/>
<stop offset="0.1443" stop-color="#C7B4FC"/>
<stop offset="0.3696" stop-color="#B49EF3"/>
<stop offset="0.6461" stop-color="#937AE5"/>
<stop offset="1" stop-color="#511DC7"/>
</linearGradient>
<radialGradient id="paint17_radial_645_12676" cx="0" cy="0" r="1" gradientUnits="userSpaceOnUse" gradientTransform="translate(194.929 79.7667) scale(278.483 278.563)">
<stop stop-color="#E39A65"/>
<stop offset="0.4742" stop-color="#A92FFB"/>
<stop offset="0.5875" stop-color="#891CFB"/>
<stop offset="0.7262" stop-color="#6507FA"/>
<stop offset="0.8585" stop-color="#5010DC"/>
<stop offset="1" stop-color="#3919BB"/>
</radialGradient>
<radialGradient id="paint18_radial_645_12676" cx="0" cy="0" r="1" gradientUnits="userSpaceOnUse" gradientTransform="translate(269.476 47.7793) scale(183.578 183.631)">
<stop stop-color="#E39A65"/>
<stop offset="0.4742" stop-color="#A92FFB"/>
<stop offset="0.5875" stop-color="#891CFB"/>
<stop offset="0.7262" stop-color="#6507FA"/>
<stop offset="1" stop-color="#3919BB"/>
</radialGradient>
<linearGradient id="paint19_linear_645_12676" x1="288.542" y1="196.295" x2="149.379" y2="196.295" gradientUnits="userSpaceOnUse">
<stop stop-color="#9D73FE"/>
<stop offset="1" stop-color="#6826FF"/>
</linearGradient>
<linearGradient id="paint20_linear_645_12676" x1="244.153" y1="147.822" x2="176.861" y2="251.546" gradientUnits="userSpaceOnUse">
<stop stop-color="#AD98FF"/>
<stop offset="1" stop-color="white" stop-opacity="0"/>
</linearGradient>
<radialGradient id="paint21_radial_645_12676" cx="0" cy="0" r="1" gradientUnits="userSpaceOnUse" gradientTransform="translate(151.418 107.28) rotate(180) scale(137.606 137.645)">
<stop stop-color="#E39A65"/>
<stop offset="0.401" stop-color="#A92FFB"/>
<stop offset="0.5473" stop-color="#891CFB"/>
<stop offset="0.7262" stop-color="#6507FA"/>
<stop offset="1" stop-color="#3919BB"/>
</radialGradient>
<linearGradient id="paint22_linear_645_12676" x1="248.054" y1="199.779" x2="231.132" y2="199.779" gradientUnits="userSpaceOnUse">
<stop stop-color="#5761D7"/>
<stop offset="0.1779" stop-color="#5C66D9"/>
<stop offset="0.3876" stop-color="#6A73DF"/>
<stop offset="0.6134" stop-color="#8289E8"/>
<stop offset="0.849" stop-color="#A3A7F5"/>
<stop offset="1" stop-color="#BCBEFF"/>
</linearGradient>
<linearGradient id="paint23_linear_645_12676" x1="246.696" y1="174.939" x2="148.162" y2="174.939" gradientUnits="userSpaceOnUse">
<stop stop-color="#9D73FE"/>
<stop offset="1" stop-color="#6826FF"/>
</linearGradient>
<clipPath id="clip0_645_12676">
<rect width="499" height="446" fill="white"/>
</clipPath>
</defs>
</svg>
