<svg width="40" height="40" viewBox="0 0 40 40" fill="none" xmlns="http://www.w3.org/2000/svg">
<g clip-path="url(#clip0_577_1293)">
<path d="M17.834 5.54884C16.6514 6.23159 16.1084 7.60219 16.4174 8.86641L4.82692 19.2467C4.47419 19.5627 4.39111 20.0826 4.62791 20.4928L5.19944 21.4827L2.60768 22.979C2.12899 23.2554 1.96497 23.8675 2.24134 24.3462L4.88531 28.9257C5.16168 29.4044 5.77382 29.5684 6.25251 29.292L8.84426 27.7957L9.5464 29.0118C9.78317 29.4219 10.275 29.61 10.725 29.4625L12.2535 28.9614L15.8522 35.1946C16.5175 36.3468 17.8718 36.883 19.1456 36.4982C19.3601 36.4335 19.5631 36.3453 19.7521 36.2361C20.302 35.9187 20.7321 35.4245 20.972 34.8184C21.2944 34.0041 21.2282 33.1021 20.7903 32.3436L20.1385 31.2148L20.3119 31.1147C22.2793 29.9788 23.1577 27.6712 22.5758 25.577L25.5099 24.615C26.4501 25.5148 27.9087 25.7297 29.0913 25.047C30.5263 24.2185 31.0197 22.3769 30.1912 20.9418L21.9391 6.64881C21.1106 5.21373 19.2691 4.72029 17.834 5.54884ZM7.84341 26.0622L6.11842 27.0581L4.47531 24.2121L6.2003 23.2162L7.84341 26.0622ZM19.0567 33.3444C19.1871 33.5703 19.2069 33.839 19.1109 34.0816C19.0149 34.3242 18.8166 34.5065 18.5668 34.582C18.1874 34.6966 17.7839 34.5368 17.5858 34.1936L14.197 28.3241L15.8461 27.7834L19.0567 33.3444ZM19.311 29.3811L19.1377 29.4812L17.7896 27.1462L20.67 26.2018C20.9653 27.4136 20.4444 28.7268 19.311 29.3811ZM24.3711 22.8818L10.8736 27.3072L6.76777 20.1957L17.349 10.7191L24.3711 22.8818ZM28.4577 21.9427C28.7343 22.4218 28.5695 23.0368 28.0904 23.3134C27.6112 23.5901 26.9962 23.4253 26.7196 22.9462L18.4675 8.65316C18.1909 8.17401 18.3556 7.55905 18.8349 7.28238C19.314 7.00574 19.929 7.17052 20.2056 7.64967L28.4577 21.9427Z" fill="#6826FF"/>
<path d="M26.0351 6.00129C26.2295 5.88906 26.3875 5.71107 26.472 5.48431L27.3834 3.03908C27.5764 2.52112 27.313 1.94474 26.7951 1.75169C26.2771 1.55864 25.7007 1.82201 25.5077 2.34002L24.5963 4.78525C24.4033 5.30321 24.6667 5.87959 25.1847 6.07264C25.4758 6.18113 25.7855 6.14542 26.0351 6.00129Z" fill="#6826FF"/>
<path d="M35.909 17.8059L33.3357 17.3725C32.7907 17.2807 32.2744 17.6482 32.1825 18.1933C32.0907 18.7383 32.4582 19.2546 33.0032 19.3465L35.5765 19.7798C35.8152 19.82 36.0483 19.7722 36.2427 19.6599C36.4923 19.5158 36.6781 19.2655 36.7297 18.9591C36.8215 18.414 36.454 17.8977 35.909 17.8059Z" fill="#6826FF"/>
<path d="M31.7821 9.18819L28.1043 11.3116C27.6256 11.588 27.4616 12.2001 27.738 12.6788C28.0143 13.1575 28.6265 13.3215 29.1052 13.0451L32.783 10.9217C33.2617 10.6454 33.4257 10.0332 33.1493 9.55453C32.873 9.07584 32.2608 8.91182 31.7821 9.18819Z" fill="#6826FF"/>
</g>
<defs>
<clipPath id="clip0_577_1293">
<rect width="40" height="40" fill="white"/>
</clipPath>
</defs>
</svg>
