<svg width="40" height="40" viewBox="0 0 40 40" fill="none" xmlns="http://www.w3.org/2000/svg">
<path fill-rule="evenodd" clip-rule="evenodd" d="M17.2957 6C15.9469 6 14.8453 7.06028 14.7794 8.39223C14.7659 8.66519 14.6412 8.92073 14.4345 9.09943C14.2277 9.27812 13.9568 9.36441 13.6847 9.33821C13.5827 9.32839 13.4819 9.32321 13.3819 9.32321C11.6708 9.32321 10.2823 10.7048 10.2712 12.4133L10.2714 12.4339C10.2714 14.1519 11.6642 15.5447 13.3822 15.5447C13.9345 15.5447 14.3822 15.9924 14.3822 16.5447C14.3822 17.097 13.9345 17.5447 13.3822 17.5447C11.2972 17.5447 9.50385 16.2962 8.7089 14.506C7.07347 15.5792 5.99512 17.4286 5.99512 19.5284C5.99512 22.2197 7.76692 24.4998 10.2102 25.2611C10.4951 25.3498 10.7254 25.5612 10.8384 25.8373C10.9513 26.1135 10.935 26.4256 10.794 26.6886C10.6044 27.042 10.4964 27.4455 10.4964 27.8769C10.4964 29.2684 11.6244 30.3964 13.016 30.3964C13.2029 30.3964 13.3859 30.3753 13.564 30.3359C13.8682 30.2684 14.1865 30.3467 14.4248 30.5475C14.6631 30.7483 14.7942 31.0487 14.7793 31.3599C14.7772 31.4033 14.7761 31.4433 14.7761 31.4809C14.7761 32.8723 15.9042 34.0004 17.2957 34.0004C18.6872 34.0004 19.8152 32.8724 19.8152 31.4809V27.0975C19.7913 25.9021 18.8147 24.9404 17.6136 24.9404C16.3974 24.9404 15.4115 25.9263 15.4115 27.1425C15.4115 27.6948 14.9638 28.1425 14.4115 28.1425C13.8592 28.1425 13.4115 27.6948 13.4115 27.1425C13.4115 24.8217 15.2928 22.9404 17.6136 22.9404C18.4209 22.9404 19.175 23.168 19.8152 23.5626V8.51952C19.8152 7.12805 18.6872 6 17.2957 6ZM21.8152 13.8987V8.51952C21.8152 6.0235 19.7918 4 17.2957 4C15.2065 4 13.449 5.41712 12.9311 7.34282C10.3196 7.57108 8.27112 9.76333 8.27112 12.434L8.27113 12.4449C5.72999 13.7847 3.99512 16.4527 3.99512 19.5284C3.99512 22.7457 5.89303 25.5176 8.62857 26.7894C8.54225 27.1381 8.49644 27.5024 8.49644 27.8769C8.49644 30.3236 10.4406 32.3162 12.8684 32.3941C13.2908 34.4524 15.1125 36.0004 17.2957 36.0004C19.7917 36.0004 21.8152 33.977 21.8152 31.4809V27.1727C21.8155 27.1627 21.8157 27.1526 21.8157 27.1425L21.8155 27.1057L21.8152 27.0805V26.1026H25.2208V31.4252C25.2208 31.9775 25.6685 32.4252 26.2208 32.4252H28.6292C29.0465 33.6635 30.2172 34.5552 31.5962 34.5552C33.325 34.5552 34.7265 33.1537 34.7265 31.4249C34.7265 29.6961 33.325 28.2946 31.5962 28.2946C30.217 28.2946 29.0461 29.1866 28.6289 30.4252H27.2208V25.1026C27.2208 24.5504 26.7731 24.1026 26.2208 24.1026H21.8152V21H29.9063C30.3236 22.2384 31.4944 23.1302 32.8734 23.1302C34.6023 23.1302 36.0037 21.7287 36.0037 19.9999C36.0037 18.2711 34.6023 16.8696 32.8734 16.8696C31.4943 16.8696 30.3235 17.7615 29.9063 19H21.8152V15.8987H26.2208C26.7731 15.8987 27.2208 15.451 27.2208 14.8987V9.57616H28.6291C29.0463 10.8145 30.2171 11.7064 31.5962 11.7064C33.325 11.7064 34.7265 10.3049 34.7265 8.57608C34.7265 6.84728 33.325 5.4458 31.5962 5.4458C30.2171 5.4458 29.0462 6.33769 28.629 7.57616H26.2208C25.6685 7.57616 25.2208 8.02387 25.2208 8.57616V13.8987H21.8152ZM32.8734 18.8696C32.2492 18.8696 31.7432 19.3757 31.7432 19.9999C31.7432 20.6242 32.2492 21.1302 32.8734 21.1302C33.4977 21.1302 34.0037 20.6241 34.0037 19.9999C34.0037 19.3757 33.4977 18.8696 32.8734 18.8696ZM31.5962 30.2946C30.972 30.2946 30.4659 30.8007 30.4659 31.4249C30.4659 32.0491 30.972 32.5552 31.5962 32.5552C32.2204 32.5552 32.7265 32.0491 32.7265 31.4249C32.7265 30.8007 32.2204 30.2946 31.5962 30.2946ZM31.5962 7.4458C30.972 7.4458 30.4659 7.95185 30.4659 8.57608C30.4659 9.20032 30.972 9.70637 31.5962 9.70637C32.2204 9.70637 32.7265 9.20032 32.7265 8.57608C32.7265 7.95185 32.2204 7.4458 31.5962 7.4458Z" fill="url(#paint0_linear_577_1276)"/>
<defs>
<linearGradient id="paint0_linear_577_1276" x1="36.0033" y1="20.0004" x2="3.99487" y2="20.0004" gradientUnits="userSpaceOnUse">
<stop stop-color="#9D73FE"/>
<stop offset="1" stop-color="#6826FF"/>
</linearGradient>
</defs>
</svg>
