<svg width="40" height="40" viewBox="0 0 40 40" fill="none" xmlns="http://www.w3.org/2000/svg">
<path d="M37.5062 19.3458C37.4268 19.2407 35.528 16.7457 32.4485 14.2248C30.6286 12.7351 28.7707 11.5455 26.9263 10.6892C24.5821 9.60072 22.2514 9.04883 19.9991 9.04883C17.7467 9.04883 15.4161 9.60072 13.0718 10.6892C11.2274 11.5456 9.36943 12.7351 7.54958 14.2248C4.47001 16.7457 2.57119 19.2407 2.49188 19.3458L1.99805 19.9993L2.49181 20.6528C2.57112 20.7579 4.46994 23.2529 7.54951 25.7738C9.36943 27.2635 11.2273 28.4531 13.0717 29.3094C15.4159 30.398 17.7466 30.9499 19.999 30.9499C22.2514 30.9499 24.582 30.398 26.9263 29.3095C28.7706 28.4531 30.6286 27.2636 32.4485 25.7739C35.528 23.253 37.4268 20.7579 37.5061 20.6529L37.9999 19.9994L37.5062 19.3458ZM19.999 28.8042C15.5662 28.8042 11.5225 26.2642 8.91083 24.1335C6.92735 22.5152 5.44241 20.8778 4.69833 19.9997C6.51544 17.8586 12.7544 11.1944 19.999 11.1944C24.4318 11.1944 28.4755 13.7344 31.0871 15.8651C33.0704 17.4833 34.5553 19.1206 35.2996 19.9989C33.4826 22.1399 27.2437 28.8042 19.999 28.8042Z" fill="url(#paint0_linear_577_1315)"/>
<path d="M19.9996 12.3823C15.8685 12.3823 12.5076 15.7992 12.5076 19.9992C12.5076 24.1992 15.8684 27.6162 19.9996 27.6162C24.1308 27.6162 27.4917 24.1993 27.4917 19.9992C27.4917 15.7992 24.1308 12.3823 19.9996 12.3823ZM19.9996 25.4705C17.0321 25.4705 14.618 23.0162 14.618 19.9992C14.618 16.9823 17.0321 14.528 19.9996 14.528C22.9671 14.528 25.3812 16.9823 25.3812 19.9992C25.3812 23.0162 22.967 25.4705 19.9996 25.4705Z" fill="url(#paint1_linear_577_1315)"/>
<path d="M19.9985 16.5669C18.1366 16.5669 16.6218 18.107 16.6218 19.9998C16.6218 21.8928 18.1366 23.4328 19.9985 23.4328C21.8604 23.4328 23.3751 21.8927 23.3751 19.9998C23.3752 18.107 21.8604 16.5669 19.9985 16.5669ZM19.9985 21.2873C19.3003 21.2873 18.7322 20.7097 18.7322 19.9999C18.7322 19.2901 19.3003 18.7125 19.9985 18.7125C20.6966 18.7125 21.2647 19.2901 21.2647 19.9999C21.2647 20.7097 20.6966 21.2873 19.9985 21.2873Z" fill="url(#paint2_linear_577_1315)"/>
<defs>
<linearGradient id="paint0_linear_577_1315" x1="37.9994" y1="19.9995" x2="1.99776" y2="19.9995" gradientUnits="userSpaceOnUse">
<stop stop-color="#9D73FE"/>
<stop offset="1" stop-color="#6826FF"/>
</linearGradient>
<linearGradient id="paint1_linear_577_1315" x1="27.4914" y1="19.9993" x2="12.5075" y2="19.9993" gradientUnits="userSpaceOnUse">
<stop stop-color="#9D73FE"/>
<stop offset="1" stop-color="#6826FF"/>
</linearGradient>
<linearGradient id="paint2_linear_577_1315" x1="23.375" y1="19.9999" x2="16.6218" y2="19.9999" gradientUnits="userSpaceOnUse">
<stop stop-color="#9D73FE"/>
<stop offset="1" stop-color="#6826FF"/>
</linearGradient>
</defs>
</svg>
