<svg width="40" height="40" viewBox="0 0 40 40" fill="none" xmlns="http://www.w3.org/2000/svg">
<mask id="mask0_508_304" style="mask-type:luminance" maskUnits="userSpaceOnUse" x="5" y="4" width="31" height="32">
<path d="M5 4.99909H35.0033V35.0024H5V4.99909Z" fill="white"/>
</mask>
<g mask="url(#mask0_508_304)">
<path fill-rule="evenodd" clip-rule="evenodd" d="M7.44555 33.8306C7.44555 34.3829 7.89326 34.8306 8.44555 34.8306H22.3386C22.8909 34.8306 23.3386 34.3829 23.3386 33.8306C23.3386 30.6941 21.5215 27.9821 18.8827 26.6897C19.934 25.8647 20.6834 24.6723 20.9375 23.3059H23.611V26.9158C23.611 27.3203 23.8546 27.6849 24.2283 27.8397C24.602 27.9945 25.0321 27.9089 25.3181 27.6229L29.6351 23.3059H31.4867C33.3336 23.3059 34.8307 21.8088 34.8307 19.9619V8.5153C34.8307 6.66842 33.3336 5.17129 31.4867 5.17129H8.5154C6.66859 5.17129 5.17139 6.6684 5.17139 8.5153V19.9619C5.17139 21.8088 6.66859 23.3059 8.5154 23.3059H9.90712C10.1593 24.6623 10.8996 25.8472 11.9389 26.6715C9.2798 27.9565 7.44555 30.6794 7.44555 33.8306ZM11.8124 22.2713C11.8128 22.2828 11.813 22.2943 11.813 22.3059L11.8128 22.3266C11.8409 24.296 13.4462 25.8838 15.4223 25.8838C17.416 25.8838 19.0322 24.2676 19.0322 22.2739C19.0322 20.2802 17.416 18.664 15.4223 18.664C13.4295 18.664 11.8138 20.2788 11.8124 22.2713ZM9.89563 21.3059H8.5154C7.77313 21.3059 7.17139 20.7042 7.17139 19.9619V8.5153C7.17139 7.773 7.77313 7.17129 8.5154 7.17129H31.4867C32.229 7.17129 32.8307 7.77299 32.8307 8.5153V19.9619C32.8307 20.7042 32.229 21.3059 31.4867 21.3059H29.2209C28.9557 21.3059 28.7013 21.4112 28.5138 21.5988L25.611 24.5016V22.3059C25.611 21.7536 25.1632 21.3059 24.611 21.3059H20.949C20.4903 18.6689 18.1904 16.664 15.4223 16.664C12.6541 16.664 10.3543 18.6689 9.89563 21.3059ZM9.52927 32.8306C10.0048 30.0225 12.4487 27.884 15.3921 27.884C18.3355 27.884 20.7794 30.0225 21.2549 32.8306H9.52927ZM9.78124 10.7809C9.78124 11.3332 10.229 11.7809 10.7812 11.7809H29.2208C29.7731 11.7809 30.2208 11.3332 30.2208 10.7809C30.2208 10.2286 29.7731 9.7809 29.2208 9.7809H10.7812C10.229 9.7809 9.78124 10.2286 9.78124 10.7809ZM20.0009 16.3912C19.4487 16.3912 19.0009 15.9434 19.0009 15.3912C19.0009 14.8389 19.4487 14.3912 20.0009 14.3912H29.2207C29.773 14.3912 30.2207 14.8389 30.2207 15.3912C30.2207 15.9434 29.773 16.3912 29.2207 16.3912H20.0009Z" fill="url(#paint0_linear_508_304)"/>
</g>
<defs>
<linearGradient id="paint0_linear_508_304" x1="34.8303" y1="20.0008" x2="5.17115" y2="20.0008" gradientUnits="userSpaceOnUse">
<stop stop-color="#9D73FE"/>
<stop offset="1" stop-color="#6826FF"/>
</linearGradient>
</defs>
</svg>
