<svg width="40" height="40" viewBox="0 0 40 40" fill="none" xmlns="http://www.w3.org/2000/svg">
<path d="M8.4375 19.3125V17.4375C8.4375 10.5339 14.0339 4.9375 20.9375 4.9375C27.8411 4.9375 33.4375 10.5339 33.4375 17.4375C33.4375 21.9312 31.0583 25.8594 27.1875 28.0625V35.0625H14.6875V30.5625H12.8125C11.0866 30.5625 9.6875 29.1634 9.6875 27.4375V24.3125H6.5625L8.4375 19.3125Z" stroke="url(#paint0_linear_524_397)" stroke-width="2" stroke-miterlimit="10" stroke-linecap="round" stroke-linejoin="round"/>
<path d="M21 25C21 24.9655 20.972 24.9375 20.9375 24.9375C20.903 24.9375 20.875 24.9655 20.875 25C20.875 25.0345 20.903 25.0625 20.9375 25.0625C20.972 25.0625 21 25.0345 21 25Z" fill="url(#paint1_linear_524_397)" stroke="url(#paint2_linear_524_397)" stroke-width="2"/>
<path d="M17.1875 13.7316C17.1875 13.5541 17.1998 13.3795 17.2237 13.2085C17.4816 11.3603 19.0868 9.94352 21.0149 9.98233C22.9654 10.0216 24.5812 11.5838 24.6823 13.5321C24.7944 15.6911 23.0747 17.4816 20.9375 17.4816V21.4028" stroke="url(#paint3_linear_524_397)" stroke-width="2" stroke-miterlimit="10" stroke-linecap="round" stroke-linejoin="round"/>
<defs>
<linearGradient id="paint0_linear_524_397" x1="33.4371" y1="19.9998" x2="6.56229" y2="19.9998" gradientUnits="userSpaceOnUse">
<stop stop-color="#9D73FE"/>
<stop offset="1" stop-color="#6826FF"/>
</linearGradient>
<linearGradient id="paint1_linear_524_397" x1="21.875" y1="25" x2="20" y2="25" gradientUnits="userSpaceOnUse">
<stop stop-color="#9D73FE"/>
<stop offset="1" stop-color="#6826FF"/>
</linearGradient>
<linearGradient id="paint2_linear_524_397" x1="21.875" y1="25" x2="20" y2="25" gradientUnits="userSpaceOnUse">
<stop stop-color="#9D73FE"/>
<stop offset="1" stop-color="#6826FF"/>
</linearGradient>
<linearGradient id="paint3_linear_524_397" x1="24.6874" y1="15.6921" x2="17.1874" y2="15.6921" gradientUnits="userSpaceOnUse">
<stop stop-color="#9D73FE"/>
<stop offset="1" stop-color="#6826FF"/>
</linearGradient>
</defs>
</svg>
