<svg width="40" height="40" viewBox="0 0 40 40" fill="none" xmlns="http://www.w3.org/2000/svg">
<path fill-rule="evenodd" clip-rule="evenodd" d="M19.7019 5.15527C17.9687 5.15527 16.5636 6.56037 16.5636 8.29365C16.5636 10.0269 17.9687 11.432 19.7019 11.432C21.4352 11.432 22.8403 10.0269 22.8403 8.29365C22.8403 6.56037 21.4352 5.15527 19.7019 5.15527ZM14.5636 8.29365C14.5636 5.4558 16.8641 3.15527 19.7019 3.15527C22.5398 3.15527 24.8403 5.4558 24.8403 8.29365C24.8403 11.1315 22.5398 13.432 19.7019 13.432C16.8641 13.432 14.5636 11.1315 14.5636 8.29365ZM19.7019 27.9722C17.9687 27.9722 16.5636 29.3773 16.5636 31.1105C16.5636 32.8438 17.9687 34.2489 19.7019 34.2489C21.4352 34.2489 22.8403 32.8438 22.8403 31.1105C22.8403 29.3773 21.4352 27.9722 19.7019 27.9722ZM14.5636 31.1105C14.5636 28.2727 16.8641 25.9722 19.7019 25.9722C22.5398 25.9722 24.8403 28.2727 24.8403 31.1105C24.8403 33.9484 22.5398 36.2489 19.7019 36.2489C16.8641 36.2489 14.5636 33.9484 14.5636 31.1105ZM31.1105 16.5637C32.8438 16.5637 34.2489 17.9688 34.2489 19.7021C34.2489 21.4354 32.8438 22.8405 31.1105 22.8405C29.3773 22.8405 27.9722 21.4354 27.9722 19.7021C27.9722 17.9688 29.3773 16.5637 31.1105 16.5637ZM36.2489 19.7021C36.2489 16.8643 33.9484 14.5637 31.1105 14.5637C28.2727 14.5637 25.9722 16.8643 25.9722 19.7021C25.9722 22.5399 28.2727 24.8405 31.1105 24.8405C33.9484 24.8405 36.2489 22.5399 36.2489 19.7021ZM11.432 19.7021C11.432 17.9688 10.0269 16.5637 8.29365 16.5637C6.56037 16.5637 5.15527 17.9688 5.15527 19.7021C5.15527 21.4354 6.56037 22.8405 8.29365 22.8405C10.0269 22.8405 11.432 21.4354 11.432 19.7021ZM8.29365 14.5637C11.1315 14.5637 13.432 16.8643 13.432 19.7021C13.432 22.5399 11.1315 24.8405 8.29365 24.8405C5.4558 24.8405 3.15527 22.5399 3.15527 19.7021C3.15527 16.8643 5.4558 14.5637 8.29365 14.5637ZM13.5459 10.3032C14.0085 10.0014 14.1388 9.38184 13.8371 8.91927C13.5354 8.45669 12.9158 8.3263 12.4532 8.62804C10.9276 9.62316 9.62286 10.928 8.62777 12.4536C8.32606 12.9162 8.45646 13.5358 8.91905 13.8375C9.38163 14.1392 10.0012 14.0088 10.3029 13.5462C11.1464 12.2531 12.2528 11.1467 13.5459 10.3032ZM26.8348 8.69879C26.3752 8.39254 25.7544 8.51684 25.4481 8.97643C25.1419 9.43602 25.2662 10.0569 25.7258 10.3631C27.036 11.2362 28.15 12.3811 28.9868 13.7168C29.2801 14.1848 29.8972 14.3265 30.3652 14.0333C30.8332 13.7401 30.9749 13.123 30.6817 12.655C29.6943 11.0789 28.3805 9.72879 26.8348 8.69879ZM30.6158 26.6299C30.9134 26.1647 30.7775 25.5463 30.3123 25.2487C29.8471 24.9511 29.2286 25.0869 28.931 25.5522C28.0891 26.8683 26.9765 27.995 25.672 28.8533C25.2106 29.1569 25.0827 29.777 25.3863 30.2384C25.6899 30.6997 26.31 30.8277 26.7713 30.5241C28.3103 29.5114 29.6225 28.1827 30.6158 26.6299ZM10.3343 25.6824C10.0302 25.2214 9.40995 25.0942 8.94893 25.3983C8.48791 25.7024 8.36069 26.3227 8.66479 26.7837C9.65512 28.285 10.9465 29.5699 12.4532 30.5528C12.9158 30.8545 13.5354 30.7241 13.8371 30.2616C14.1388 29.799 14.0085 29.1794 13.5459 28.8777C12.2688 28.0446 11.1737 26.955 10.3343 25.6824Z" fill="url(#paint0_linear_524_406)"/>
<defs>
<linearGradient id="paint0_linear_524_406" x1="36.2484" y1="19.7023" x2="3.15501" y2="19.7023" gradientUnits="userSpaceOnUse">
<stop stop-color="#9D73FE"/>
<stop offset="1" stop-color="#6826FF"/>
</linearGradient>
</defs>
</svg>
