<svg width="40" height="40" viewBox="0 0 40 40" fill="none" xmlns="http://www.w3.org/2000/svg">
<path fill-rule="evenodd" clip-rule="evenodd" d="M22.4062 4H32.0937C33.6963 4 34.9999 5.30365 34.9999 6.90625V16.5938C34.9999 17.1292 34.5666 17.5625 34.0312 17.5625H31.1249C31.1249 19.1651 29.8213 20.4688 28.2187 20.4688C26.6161 20.4688 25.3124 19.1651 25.3124 17.5625H22.423C21.8688 17.5663 21.4355 17.133 21.4355 16.5975V12.4614C21.4355 11.747 22.2766 11.2611 22.8962 11.6213C23.0372 11.7046 23.2075 11.75 23.3749 11.75C23.9095 11.75 24.3437 11.3158 24.3437 10.7812C24.3437 10.2467 23.9095 9.8125 23.3749 9.8125C23.2056 9.8125 23.0671 9.87167 22.9252 9.93226C22.8498 9.96444 22.7735 9.99701 22.6912 10.0213C22.1058 10.1942 21.4375 9.72564 21.4374 9.10486V4.96875C21.4374 4.43329 21.8707 4 22.4062 4ZM29.8951 15.625H33.0624V6.90625C33.0624 6.37173 32.6282 5.9375 32.0937 5.9375H23.3749V7.875C24.9775 7.875 26.2812 9.17865 26.2812 10.7812C26.2812 12.3839 24.9775 13.6875 23.3749 13.6875L23.373 15.625H26.5423C27.1414 15.625 27.6269 16.2541 27.4618 16.8281C27.4381 16.9106 27.4065 16.9906 27.375 17.0704C27.3123 17.229 27.2499 17.3871 27.2499 17.5625C27.2499 18.097 27.6842 18.5312 28.2187 18.5312C28.7532 18.5312 29.1874 18.097 29.1874 17.5625C29.1874 17.3936 29.1255 17.2395 29.0633 17.085C29.0107 16.9542 28.9579 16.8231 28.9426 16.6823C28.8844 16.1476 29.3648 15.625 29.8951 15.625ZM24.0826 21.4375H28.2188C28.7542 21.4375 29.1875 21.8708 29.1875 22.4062V32.0938C29.1875 33.6964 27.8839 35 26.2812 35H6.90625C5.30365 35 4 33.6964 4 32.0938V12.7188C4 11.1161 5.30365 9.8125 6.90625 9.8125H16.5938C17.1287 9.8125 17.5625 10.2458 17.5625 10.7812V13.6875C19.1651 13.6875 20.4688 14.9911 20.4688 16.5938C20.4688 18.1964 19.1651 19.5 17.5625 19.5V21.4375H20.7299C21.4527 21.4375 21.9381 22.2665 21.5662 22.8963C21.4829 23.0373 21.4375 23.2076 21.4375 23.375C21.4375 23.9095 21.8717 24.3438 22.4062 24.3438C22.9408 24.3438 23.375 23.9095 23.375 23.375C23.375 23.2076 23.3296 23.0373 23.2463 22.8963C22.8809 22.2701 23.3568 21.4375 24.0826 21.4375ZM6.90625 11.75C6.37221 11.75 5.9375 12.1842 5.9375 12.7188V21.4375H7.875C7.875 19.8349 9.17865 18.5312 10.7812 18.5312C12.3839 18.5312 13.6875 19.8349 13.6875 21.4375H15.625V18.2701C15.625 17.5427 16.451 17.0616 17.0833 17.4338C17.2248 17.5171 17.3946 17.5625 17.5625 17.5625C18.0965 17.5625 18.5312 17.1283 18.5312 16.5938C18.5312 16.0592 18.0965 15.625 17.5625 15.625C17.3946 15.625 17.2248 15.6704 17.0833 15.7537C16.4534 16.1204 15.625 15.647 15.625 14.9174V11.75H6.90625ZM6.90625 33.0625H15.625V31.125C14.0224 31.125 12.7188 29.8214 12.7188 28.2188C12.7188 26.6161 14.0224 25.3125 15.625 25.3125V23.375H12.4572C11.736 23.375 11.254 22.5417 11.6213 21.9161C11.7041 21.7752 11.75 21.6049 11.75 21.4375C11.75 20.903 11.3153 20.4688 10.7812 20.4688C10.2472 20.4688 9.8125 20.903 9.8125 21.4375C9.8125 21.6049 9.85838 21.7752 9.94116 21.9162C10.3065 22.5405 9.82936 23.375 9.10533 23.375H5.9375V32.0938C5.9375 32.6283 6.37221 33.0625 6.90625 33.0625ZM26.2812 33.0625C26.8158 33.0625 27.25 32.6283 27.25 32.0938V23.375H25.3125C25.3125 24.9776 24.0089 26.2812 22.4062 26.2812C20.8036 26.2812 19.5 24.9776 19.5 23.375H17.5625V26.5424C17.5625 27.2742 16.7372 27.7512 16.1042 27.3787C15.9627 27.2954 15.7929 27.25 15.625 27.25C15.091 27.25 14.6562 27.6842 14.6562 28.2188C14.6562 28.7533 15.091 29.1875 15.625 29.1875C15.7929 29.1875 15.9627 29.1421 16.1042 29.0588C16.7386 28.6894 17.5625 29.161 17.5625 29.8951V33.0625H26.2812Z" fill="url(#paint0_linear_524_389)"/>
<defs>
<linearGradient id="paint0_linear_524_389" x1="34.9995" y1="19.5002" x2="3.99976" y2="19.5002" gradientUnits="userSpaceOnUse">
<stop stop-color="#9D73FE"/>
<stop offset="1" stop-color="#6826FF"/>
</linearGradient>
</defs>
</svg>
