<svg width="40" height="40" viewBox="0 0 40 40" fill="none" xmlns="http://www.w3.org/2000/svg">
<path fill-rule="evenodd" clip-rule="evenodd" d="M21 1.43994C21 0.887657 20.5522 0.439941 20 0.439941C19.4477 0.439941 19 0.887657 19 1.43994V3.27994C19 3.83223 19.4477 4.27994 20 4.27994C20.5522 4.27994 21 3.83223 21 3.27994V1.43994ZM11.6396 15.9202C11.6396 11.1282 15.6426 7.27265 20.5009 7.55843L20.5009 7.55846L20.508 7.55882C24.6522 7.77318 28.1658 11.146 28.5232 15.2848C28.7368 17.8537 27.8167 20.1334 26.1646 21.861C25.07 22.9587 24.4103 24.2624 24.2139 25.8224L23.7473 27.7668C23.7422 27.7878 23.7379 27.809 23.7342 27.8303L23.4911 29.2402H21V20.781C22.5239 20.3463 23.6396 18.9436 23.6396 17.2802C23.6396 15.2698 22.01 13.6402 19.9996 13.6402C17.9893 13.6402 16.3596 15.2698 16.3596 17.2802C16.3596 18.9438 17.4757 20.3468 19 20.7812V29.2402H16.5082L16.2661 27.8362L15.9502 25.8619C15.7573 24.266 15.0073 22.885 14.0168 21.8044C14.007 21.7938 13.997 21.7833 13.9868 21.7731C12.5019 20.2882 11.6396 18.2259 11.6396 15.9202ZM15.5315 31.3094C15.6344 31.3248 15.7414 31.3243 15.8496 31.3056C15.9277 31.2921 16.0022 31.2699 16.0721 31.2402H23.9271C23.9971 31.2699 24.0716 31.2921 24.1497 31.3056C24.2388 31.321 24.3272 31.324 24.4131 31.316C24.7446 31.4538 24.9196 31.7387 24.9196 32.0002V32.6402C24.9196 33.0479 24.5674 33.4002 24.1596 33.4002H15.8396C15.4319 33.4002 15.0796 33.0479 15.0796 32.6402V32.0002C15.0796 31.7009 15.2694 31.4316 15.5315 31.3094ZM14.5359 29.5721L14.2942 28.1701L14.2921 28.1582L14.2922 28.1581L13.9722 26.1581C13.97 26.1445 13.9681 26.1308 13.9665 26.117C13.8361 25.0086 13.3138 24.0026 12.5562 23.1709C10.6912 21.2971 9.63965 18.7262 9.63965 15.9202C9.63965 9.99323 14.5948 5.20954 20.6148 5.56168C25.7486 5.82902 30.0729 9.97482 30.516 15.1143L30.5162 15.1171C30.7818 18.304 29.6249 21.1409 27.6016 23.2521L27.5868 23.2673C26.7804 24.0736 26.3256 24.9878 26.1928 26.117C26.1882 26.1562 26.1813 26.1951 26.172 26.2335L25.6996 28.202L25.4573 29.6075C26.2956 30.0626 26.9196 30.9072 26.9196 32.0002V32.6402C26.9196 34.1524 25.6719 35.4002 24.1596 35.4002H24.1196V35.5202C24.1196 37.8491 22.2152 39.6402 19.9996 39.6402C17.6874 39.6402 15.8796 37.8324 15.8796 35.5202V35.4002H15.8396C14.3274 35.4002 13.0796 34.1524 13.0796 32.6402V32.0002C13.0796 30.9578 13.6724 30.0412 14.5359 29.5721ZM17.8796 35.4002H22.1196V35.5202C22.1196 36.7113 21.1441 37.6402 19.9996 37.6402C18.7919 37.6402 17.8796 36.7279 17.8796 35.5202V35.4002ZM19.9996 15.6402C19.0939 15.6402 18.3596 16.3744 18.3596 17.2802C18.3596 18.1859 19.0939 18.9202 19.9996 18.9202C20.9054 18.9202 21.6396 18.1859 21.6396 17.2802C21.6396 16.3744 20.9054 15.6402 19.9996 15.6402ZM33.12 15.2399C32.5677 15.2399 32.12 15.6877 32.12 16.2399C32.12 16.7922 32.5677 17.2399 33.12 17.2399H35.04C35.5922 17.2399 36.04 16.7922 36.04 16.2399C36.04 15.6877 35.5922 15.2399 35.04 15.2399H33.12ZM3.95996 16.2399C3.95996 15.6877 4.40768 15.2399 4.95996 15.2399H6.87996C7.43225 15.2399 7.87996 15.6877 7.87996 16.2399C7.87996 16.7922 7.43225 17.2399 6.87996 17.2399H4.95996C4.40768 17.2399 3.95996 16.7922 3.95996 16.2399ZM28.5729 24.6528C28.9634 24.2623 29.5965 24.2623 29.9871 24.6528L31.3471 26.0128C31.7376 26.4034 31.7376 27.0365 31.3471 27.427C30.9565 27.8176 30.3234 27.8176 29.9329 27.427L28.5729 26.067C28.1823 25.6765 28.1823 25.0434 28.5729 24.6528ZM10.0671 5.05283C9.67654 4.66231 9.04338 4.66231 8.65285 5.05283C8.26233 5.44336 8.26233 6.07652 8.65285 6.46705L10.0129 7.82705C10.4034 8.21757 11.0365 8.21757 11.4271 7.82705C11.8176 7.43652 11.8176 6.80336 11.4271 6.41283L10.0671 5.05283ZM11.4271 24.6528C11.8176 25.0434 11.8176 25.6765 11.4271 26.067L10.0671 27.427C9.67654 27.8176 9.04338 27.8176 8.65285 27.427C8.26233 27.0365 8.26233 26.4034 8.65285 26.0128L10.0129 24.6528C10.4034 24.2623 11.0365 24.2623 11.4271 24.6528ZM31.3471 6.46705C31.7376 6.07652 31.7376 5.44336 31.3471 5.05283C30.9565 4.66231 30.3234 4.66231 29.9329 5.05283L28.5729 6.41283C28.1823 6.80336 28.1823 7.43652 28.5729 7.82705C28.9634 8.21757 29.5965 8.21757 29.9871 7.82705L31.3471 6.46705Z" fill="url(#paint0_linear_524_405)"/>
<defs>
<linearGradient id="paint0_linear_524_405" x1="36.0395" y1="20.0403" x2="3.95971" y2="20.0403" gradientUnits="userSpaceOnUse">
<stop stop-color="#9D73FE"/>
<stop offset="1" stop-color="#6826FF"/>
</linearGradient>
</defs>
</svg>
