<svg width="40" height="40" viewBox="0 0 40 40" fill="none" xmlns="http://www.w3.org/2000/svg">
<g clip-path="url(#clip0_524_407)">
<mask id="mask0_524_407" style="mask-type:luminance" maskUnits="userSpaceOnUse" x="-9" y="-9" width="58" height="58">
<path d="M-8.28427 19.9999L20 -8.28436L48.2843 19.9999L20 48.2842L-8.28427 19.9999Z" fill="white"/>
</mask>
<g mask="url(#mask0_524_407)">
<path fill-rule="evenodd" clip-rule="evenodd" d="M30.7061 32.6062C31.2308 33.1309 32.0817 33.1309 32.6064 32.6062C33.1311 32.0815 33.1311 31.2306 32.6064 30.7058L28.2312 26.3306L27.281 27.2808L26.3308 28.231L30.7061 32.6062ZM27.5241 24.2093L26.5739 25.1595L24.6462 23.2317C28.922 18.2347 28.6955 10.7082 23.9664 5.9792C18.9994 1.0122 10.9464 1.0122 5.97941 5.9792C1.01241 10.9462 1.01241 18.9992 5.97941 23.9662C10.7084 28.6953 18.2349 28.9218 23.2319 24.6459L25.1597 26.5737L24.2095 27.5239C23.819 27.9144 23.819 28.5475 24.2095 28.9381L29.2918 34.0204C30.5976 35.3262 32.7148 35.3262 34.0206 34.0204C35.3264 32.7146 35.3264 30.5974 34.0206 29.2916L28.9383 24.2093C28.5478 23.8188 27.9146 23.8188 27.5241 24.2093ZM7.39362 22.552C11.5796 26.738 18.3663 26.738 22.5522 22.552C26.7382 18.3661 26.7382 11.5794 22.5522 7.39341C18.3663 3.20747 11.5796 3.20746 7.39362 7.39341C3.20768 11.5794 3.20768 18.3661 7.39362 22.552ZM14.9729 20.6602C13.4321 20.6602 12.3304 20.2868 11.1628 19.4178C10.3062 18.7802 9.38104 17.8453 8.18301 16.6347L8.18282 16.6345C7.88469 16.3332 7.56965 16.0149 7.23457 15.6798C6.84405 15.2893 6.84405 14.6561 7.23457 14.2656C7.62448 13.8757 7.98719 13.507 8.3279 13.1607L8.32845 13.1601C9.42078 12.0498 10.2868 11.1694 11.0973 10.5574C12.2626 9.6774 13.3835 9.28521 14.9729 9.28521C16.5138 9.28521 17.6155 9.65856 18.783 10.5276C19.6396 11.1652 20.5648 12.1001 21.7628 13.3107C22.061 13.612 22.3761 13.9305 22.7113 14.2656C23.1018 14.6561 23.1018 15.2893 22.7113 15.6798C22.3212 16.0699 21.9584 16.4387 21.6175 16.7852C20.5251 17.8956 19.659 18.776 18.8485 19.388C17.6832 20.268 16.5624 20.6602 14.9729 20.6602ZM9.84933 14.4674C9.69134 14.6278 9.52587 14.7959 9.35192 14.972L9.67062 15.2936C10.8493 16.4834 11.6328 17.2744 12.357 17.8135C13.1747 18.4221 13.8564 18.6602 14.9729 18.6602C16.1326 18.6602 16.8292 18.4067 17.6432 17.792C18.3264 17.2761 19.0463 16.5448 20.0966 15.4779L20.0967 15.4779C20.2546 15.3175 20.42 15.1494 20.5939 14.9734L20.2752 14.6518C19.0965 13.462 18.313 12.671 17.5888 12.1319C16.7712 11.5234 16.0895 11.2852 14.9729 11.2852C13.8133 11.2852 13.1166 11.5387 12.3026 12.1534C11.6195 12.6693 10.8996 13.4005 9.84933 14.4674Z" fill="url(#paint0_linear_524_407)"/>
<path d="M15.8015 14.144C16.2592 14.6016 16.2592 15.3436 15.8015 15.8012C15.3439 16.2589 14.6019 16.2589 14.1443 15.8012C13.6866 15.3436 13.6866 14.6016 14.1443 14.144C14.6019 13.6863 15.3439 13.6863 15.8015 14.144Z" fill="url(#paint1_linear_524_407)"/>
</g>
</g>
<defs>
<linearGradient id="paint0_linear_524_407" x1="28.9931" y1="11.0064" x2="11.0062" y2="28.9933" gradientUnits="userSpaceOnUse">
<stop stop-color="#9D73FE"/>
<stop offset="1" stop-color="#6826FF"/>
</linearGradient>
<linearGradient id="paint1_linear_524_407" x1="15.8015" y1="14.144" x2="14.1442" y2="15.8012" gradientUnits="userSpaceOnUse">
<stop stop-color="#9D73FE"/>
<stop offset="1" stop-color="#6826FF"/>
</linearGradient>
<clipPath id="clip0_524_407">
<rect width="40" height="40" fill="white"/>
</clipPath>
</defs>
</svg>
