<svg width="76" height="71" viewBox="0 0 76 71" fill="none" xmlns="http://www.w3.org/2000/svg">
<g clip-path="url(#clip0_396_309)">
<path d="M3.00394 49.8647C2.89706 49.865 2.79375 49.9029 2.71254 49.9718C2.63133 50.0407 2.57752 50.1359 2.56073 50.2405L0.00506234 66.3011C-0.00426756 66.3598 -0.000670787 66.4197 0.0156006 66.4768C0.031872 66.534 0.0604354 66.5869 0.0993264 66.6321C0.138217 66.6772 0.186503 66.7135 0.240887 66.7384C0.295271 66.7633 0.354459 66.7763 0.414372 66.7764H3.44587C3.55266 66.7761 3.65589 66.7383 3.73709 66.6696C3.81829 66.6008 3.87217 66.5057 3.88909 66.4013L4.63928 61.6847C4.6562 61.5803 4.71008 61.4852 4.79128 61.4164C4.87248 61.3477 4.9757 61.3098 5.08248 61.3096H7.83774C11.0581 61.3096 13.7911 58.982 14.2904 55.8272C14.7941 52.6463 12.2866 49.8713 8.73144 49.8647H3.00394ZM5.95053 53.4502H8.15549C9.97079 53.4502 10.5613 54.5113 10.3744 55.685C10.1875 56.8612 9.27032 57.7276 7.51396 57.7276H5.26972L5.95053 53.4502ZM20.4561 54.5426C19.6907 54.5455 18.8096 54.7005 17.8209 55.1086C15.5532 56.045 14.4637 57.9812 14.0015 59.3926C14.0015 59.3926 12.5293 63.6985 15.8554 66.0644C15.8554 66.0644 18.9398 68.3412 22.4127 65.9235L22.3531 66.3011C22.3438 66.3598 22.3474 66.4197 22.3636 66.4768C22.3799 66.534 22.4085 66.5869 22.4474 66.6321C22.4863 66.6772 22.5345 66.7135 22.5889 66.7384C22.6433 66.7633 22.7025 66.7763 22.7624 66.7764H25.6399C25.8604 66.7764 26.048 66.6169 26.0825 66.4006L27.8332 55.4021C27.8425 55.3435 27.8389 55.2835 27.8226 55.2264C27.8064 55.1693 27.7778 55.1163 27.7389 55.0712C27.7 55.026 27.6517 54.9897 27.5974 54.9648C27.543 54.9399 27.4838 54.927 27.4239 54.9269H24.5463C24.3252 54.9269 24.1377 55.0863 24.1031 55.302L24.0093 55.8937H24.0087C24.0087 55.8937 22.7523 54.5342 20.4557 54.5426H20.4561ZM20.5502 58.0167C20.8806 58.0167 21.1828 58.0613 21.4537 58.1479C22.6949 58.5431 23.3995 59.7241 23.1955 61.0054C22.9443 62.5832 21.6387 63.7453 19.9647 63.7453C19.6343 63.7453 19.3314 63.7004 19.0605 63.614C17.8193 63.2188 17.1106 62.0373 17.3149 60.7559C17.5662 59.1788 18.8762 58.0167 20.5502 58.0167Z" fill="#003087"/>
<path d="M44.4414 49.8647C44.2209 49.8647 44.0334 50.0242 43.9989 50.2405L41.4426 66.3011C41.4332 66.3598 41.4368 66.4198 41.4531 66.477C41.4694 66.5342 41.4981 66.5872 41.537 66.6323C41.576 66.6775 41.6244 66.7138 41.6788 66.7386C41.7333 66.7635 41.7925 66.7764 41.8525 66.7764H44.884C45.1045 66.7764 45.2921 66.6172 45.3266 66.4013L46.0774 61.6847C46.0943 61.5803 46.1482 61.4852 46.2294 61.4164C46.3106 61.3477 46.4138 61.3098 46.5206 61.3096H49.2759C52.4962 61.3096 55.2293 58.982 55.7286 55.8272C56.2323 52.6463 53.7241 49.8713 50.169 49.8647H44.4414ZM47.388 53.4502H49.593C51.4083 53.4502 51.9995 54.5113 51.8125 55.685C51.6256 56.8612 50.7082 57.7276 48.9515 57.7276H46.7072L47.388 53.4502ZM61.8942 54.5426C61.1288 54.5455 60.2478 54.7005 59.259 55.1086C56.9914 56.045 55.9012 57.9812 55.439 59.3926C55.439 59.3926 53.9671 63.6985 57.2936 66.0644C57.2936 66.0644 60.378 68.3412 63.8508 65.9235L63.7906 66.3011C63.7813 66.3598 63.7849 66.4198 63.8012 66.477C63.8175 66.5342 63.8461 66.5872 63.8851 66.6323C63.924 66.6775 63.9724 66.7138 64.0269 66.7386C64.0813 66.7635 64.1406 66.7764 64.2005 66.7764H67.0774C67.1843 66.7761 67.2876 66.7382 67.3688 66.6693C67.4501 66.6005 67.5039 66.5052 67.5207 66.4006L69.2713 55.4021C69.2807 55.3434 69.2771 55.2834 69.2607 55.2263C69.2444 55.1691 69.2158 55.1161 69.1769 55.0709C69.1379 55.0257 69.0895 54.9895 69.0351 54.9646C68.9806 54.9397 68.9214 54.9269 68.8614 54.9269H65.9845C65.7634 54.9269 65.5758 55.0863 65.5413 55.302L65.4472 55.8937C65.4472 55.8937 64.1907 54.5342 61.8942 54.5426ZM61.9877 58.0167C62.3181 58.0167 62.621 58.0613 62.8918 58.1479C64.1331 58.5431 64.837 59.7241 64.6333 61.0054C64.3821 62.5832 63.0765 63.7453 61.4025 63.7453C61.0721 63.7453 60.7699 63.7004 60.499 63.614C59.2578 63.2188 58.5491 62.0373 58.7534 60.7559C59.0043 59.1788 60.3137 58.0167 61.9877 58.0167Z" fill="#0270E0"/>
<path d="M29.1982 54.9269C29.1451 54.9268 29.0928 54.9392 29.0456 54.963C28.9983 54.9868 28.9574 55.0213 28.9262 55.0638C28.895 55.1062 28.8743 55.1554 28.866 55.2073C28.8577 55.2592 28.8618 55.3123 28.8782 55.3623L32.0323 65.0621L29.1798 69.6339C29.0417 69.8559 29.2023 70.1418 29.4659 70.1418H32.8364C32.9329 70.1419 33.0277 70.1173 33.1118 70.0704C33.1959 70.0235 33.2663 69.9559 33.3163 69.8741L42.1257 55.432C42.2613 55.21 42.1 54.9263 41.8384 54.9263H38.4679C38.3705 54.9262 38.2748 54.9513 38.1903 54.999C38.1057 55.0467 38.035 55.1155 37.9854 55.1984L34.5176 61.0004L32.7572 55.2417C32.6995 55.0543 32.5256 54.9266 32.3276 54.9266L29.1982 54.9269Z" fill="#003087"/>
<path d="M72.541 49.8647C72.3206 49.8647 72.133 50.0242 72.0985 50.2405L69.5422 66.3011C69.5328 66.3598 69.5364 66.4198 69.5527 66.477C69.5691 66.5342 69.5977 66.5872 69.6366 66.6323C69.6756 66.6775 69.724 66.7138 69.7784 66.7386C69.8329 66.7635 69.8922 66.7764 69.9521 66.7764H72.983C73.2035 66.7764 73.391 66.6172 73.4256 66.4013L75.9825 50.34C75.9918 50.2813 75.9882 50.2212 75.9719 50.164C75.9555 50.1068 75.9268 50.0537 75.8878 50.0086C75.8488 49.9634 75.8003 49.9271 75.7458 49.9023C75.6913 49.8775 75.6319 49.8647 75.5719 49.8647H72.541Z" fill="#0270E0"/>
<path d="M35.0986 8.44709C34.4944 8.44709 33.9796 8.88249 33.8856 9.47421L31.8691 22.143L30.0164 33.7844L30.0151 33.7941L30.0174 33.7844L31.87 22.143C31.9641 21.5513 32.4783 21.1159 33.0828 21.1159H38.9899C44.9347 21.1159 49.9808 16.8181 50.9021 10.9945C50.971 10.5599 51.0098 10.1212 51.0183 9.68139V9.68076H51.0177C49.5069 8.89536 47.7328 8.44678 45.7889 8.44678L35.0986 8.44709Z" fill="#001C64"/>
<path d="M51.018 9.68066C51.0098 10.1132 50.9718 10.5518 50.9018 10.9944C49.9802 16.8181 44.9344 21.1158 38.9896 21.1158H33.0825C32.4783 21.1158 31.9641 21.5512 31.8697 22.1429L30.0171 33.7843L28.8544 41.0881C28.832 41.2291 28.8407 41.3734 28.88 41.5108C28.9192 41.6482 28.988 41.7756 29.0817 41.8841C29.1754 41.9927 29.2916 42.0798 29.4225 42.1396C29.5534 42.1994 29.6958 42.2303 29.84 42.2304H36.2518C36.8566 42.2304 37.3707 41.795 37.4651 41.2033L39.154 30.589C39.1997 30.3027 39.347 30.0419 39.5693 29.8535C39.7917 29.6651 40.0745 29.5615 40.3671 29.5613H44.1427C50.0876 29.5613 55.133 25.2638 56.0543 19.4405C56.7085 15.3063 54.609 11.5456 51.018 9.68066Z" fill="#0270E0"/>
<path d="M27.8139 0C27.5213 0.000252804 27.2385 0.103883 27.0161 0.292265C26.7938 0.480647 26.6465 0.741428 26.6008 1.02774L21.5693 32.6411C21.5468 32.7822 21.5555 32.9265 21.5947 33.064C21.6339 33.2015 21.7027 33.3289 21.7964 33.4375C21.89 33.5462 22.0063 33.6334 22.1373 33.6932C22.2682 33.753 22.4107 33.784 22.5549 33.784H30.0163L31.869 22.1426L33.8854 9.47383C33.9795 8.88211 34.4943 8.44671 35.0985 8.44671H45.7884C47.7326 8.44671 49.5068 8.8956 51.0179 9.68007C51.1209 4.37811 46.7056 0.000316133 40.6346 0.000316133L27.8139 0Z" fill="#003087"/>
</g>
<defs>
<clipPath id="clip0_396_309">
<rect width="75.9874" height="70.1423" fill="white"/>
</clipPath>
</defs>
</svg>
