<svg width="102" height="30" viewBox="0 0 102 30" fill="none" xmlns="http://www.w3.org/2000/svg">
<path d="M19.4925 10.8296C21.4115 12.2136 23.7624 13.0279 26.3015 13.0279V8.09853C25.821 8.09863 25.3417 8.04808 24.8716 7.94759V11.8277C22.3327 11.8277 19.9821 11.0134 18.0626 9.62953V19.6889C18.0626 24.7211 14.0191 28.8002 9.03149 28.8002C7.1705 28.8002 5.44078 28.2326 4.00391 27.2591C5.64386 28.9509 7.93091 30.0003 10.4611 30.0003C15.449 30.0003 19.4927 25.9212 19.4927 20.8888V10.8296H19.4925ZM21.2565 5.8565C20.2758 4.77554 19.6318 3.3786 19.4925 1.83421V1.2002H18.1374C18.4785 3.1631 19.6419 4.84009 21.2565 5.8565ZM7.15856 23.3976C6.61062 22.6727 6.31451 21.7861 6.31584 20.8744C6.31584 18.5728 8.1653 16.7067 10.447 16.7067C10.8723 16.7066 11.295 16.7723 11.7002 16.902V11.8625C11.2266 11.797 10.7487 11.7692 10.2709 11.7794V15.7019C9.86534 15.5722 9.44244 15.5063 9.0171 15.5067C6.73536 15.5067 4.886 17.3726 4.886 19.6745C4.886 21.3021 5.81043 22.7112 7.15856 23.3976Z" fill="#FF1753"/>
<path d="M18.0623 9.62942C19.9819 11.0133 22.3324 11.8276 24.8713 11.8276V7.94749C23.4541 7.64294 22.1995 6.89577 21.2562 5.8565C19.6416 4.83999 18.4783 3.163 18.1372 1.2002H14.5778V20.8886C14.5697 23.1838 12.7234 25.0423 10.4466 25.0423C9.10488 25.0423 7.91291 24.3971 7.15801 23.3976C5.80998 22.7112 4.88555 21.302 4.88555 19.6746C4.88555 17.3729 6.73491 15.5068 9.01665 15.5068C9.45382 15.5068 9.87519 15.5755 10.2704 15.702V11.7795C5.37046 11.8816 1.42969 15.9209 1.42969 20.8887C1.42969 23.3685 2.41103 25.6166 4.00376 27.2592C5.44063 28.2326 7.17035 28.8003 9.03134 28.8003C14.019 28.8003 18.0624 24.721 18.0624 19.6889V9.62942H18.0623Z" fill="black"/>
<path d="M24.8715 7.94728V6.89813C23.5935 6.90009 22.3407 6.53901 21.2564 5.85619C22.2162 6.91635 23.4801 7.64736 24.8715 7.94728ZM18.1373 1.19998C18.1048 1.01239 18.0798 0.823567 18.0625 0.63402V0H13.1479V19.6886C13.14 21.9835 11.2938 23.842 9.0168 23.842C8.34829 23.842 7.71712 23.6819 7.15816 23.3975C7.91306 24.3969 9.10503 25.042 10.4467 25.042C12.7234 25.042 14.57 23.1837 14.5779 20.8885V1.19998H18.1373ZM10.2708 11.7793V10.6624C9.86014 10.6058 9.44612 10.5774 9.03159 10.5776C4.04348 10.5775 0 14.6568 0 19.6886C0 22.8432 1.58916 25.6234 4.00401 27.2588C2.41128 25.6163 1.42994 23.3681 1.42994 20.8884C1.42994 15.9207 5.37061 11.8814 10.2708 11.7793Z" fill="#00CAD1"/>
<path d="M31.6265 8.81055V12.0901H35.4322V24.5866H39.2394V12.1786H42.3374L43.3996 8.81065L31.6265 8.81055ZM62.7856 8.81055V12.0901H66.5914V24.5866H70.3986V12.1786H73.4964L74.5586 8.81065L62.7856 8.81055ZM44.1084 10.6716C44.1084 9.644 44.9393 8.81055 45.9658 8.81055C46.9933 8.81055 47.8251 9.644 47.8251 10.6716C47.8251 11.6994 46.9938 12.5328 45.9658 12.5328C44.9393 12.5323 44.1084 11.6994 44.1084 10.6716ZM44.1084 13.8626H47.8251V24.5866H44.1084V13.8626ZM49.4187 8.81055V24.5865H53.1368V20.5099L54.2877 19.4455L57.9166 24.675H61.8997L56.6765 17.053L61.3682 12.4438H56.8539L53.1368 16.166V8.81055H49.4187ZM89.5177 8.81055V24.5865H93.2363V20.5099L94.3867 19.4455L98.0165 24.675H102L96.777 17.053L101.469 12.4438H96.9544L93.2363 16.166V8.81055H89.5177Z" fill="black"/>
<path d="M80.5504 24.4403C84.1192 24.4403 87.013 21.5434 87.013 17.9703C87.013 14.3974 84.1192 11.5 80.5504 11.5H80.4622C76.8932 11.5 74 14.3973 74 17.9703C74 21.5434 76.8932 24.4403 80.4622 24.4403H80.5504ZM77.3638 17.9703C77.3638 16.2323 78.7714 14.8244 80.5071 14.8244C82.2416 14.8244 83.6491 16.2323 83.6491 17.9703C83.6491 19.7084 82.2416 21.1171 80.5071 21.1171C78.7714 21.1168 77.3638 19.7084 77.3638 17.9703Z" fill="#00CAD1"/>
<path d="M81.0504 24.9403C84.6192 24.9403 87.513 22.0434 87.513 18.4703C87.513 14.8974 84.6192 12 81.0504 12H80.9622C77.3932 12 74.5 14.8973 74.5 18.4703C74.5 22.0434 77.3932 24.9403 80.9622 24.9403H81.0504ZM77.8638 18.4703C77.8638 16.7323 79.2714 15.3244 81.0071 15.3244C82.7416 15.3244 84.1491 16.7323 84.1491 18.4703C84.1491 20.2084 82.7416 21.6171 81.0071 21.6171C79.2714 21.6168 77.8638 20.2084 77.8638 18.4703Z" fill="#FF1753"/>
<path d="M80.8429 24.6751C84.4117 24.6751 87.3054 21.7783 87.3054 18.2052C87.3054 14.6322 84.4117 11.7349 80.8429 11.7349H80.7547C77.1857 11.7349 74.2925 14.6321 74.2925 18.2052C74.2925 21.7783 77.1857 24.6751 80.7547 24.6751H80.8429ZM77.6562 18.2052C77.6562 16.4672 79.0638 15.0593 80.7996 15.0593C82.5341 15.0593 83.9416 16.4672 83.9416 18.2052C83.9416 19.9432 82.5341 21.3519 80.7996 21.3519C79.0638 21.3516 77.6562 19.9432 77.6562 18.2052Z" fill="black"/>
</svg>
