<svg width="122" height="50" viewBox="0 0 122 50" fill="none" xmlns="http://www.w3.org/2000/svg">
<g clip-path="url(#clip0_396_349)">
<path d="M112.875 35.0203C112.549 35.0203 112.324 34.7946 112.324 34.4701V18.3505H106.833C106.507 18.3505 106.281 18.1258 106.281 17.801V15.5774C106.281 15.2518 106.507 15.0266 106.833 15.0266H121.449C121.776 15.0266 122 15.2521 122 15.5774V17.8009C122 18.1255 121.776 18.3505 121.449 18.3505H115.959V34.4699C115.959 34.7946 115.733 35.0203 115.408 35.0203H112.875ZM70.8127 26.9724L67.9302 18.7259L65.0219 26.9724H70.8127ZM77.2057 34.3689C77.3317 34.6946 77.1307 35.0203 76.7797 35.0203H74.1729C73.7966 35.0203 73.5707 34.8458 73.445 34.4943L71.9665 30.2472H63.8695L62.3885 34.4943C62.2641 34.846 62.0376 35.0203 61.6623 35.0203H59.2062C58.8798 35.0203 58.6538 34.6945 58.7793 34.3689L65.5732 15.5274C65.6989 15.1764 65.9244 15.0274 66.2997 15.0274H69.6592C70.0356 15.0274 70.2864 15.1765 70.4116 15.5274L77.2057 34.3689ZM96.6796 32.3207C98.2833 32.3207 99.3619 31.5472 100.24 30.222L96.1789 25.873C94.6238 26.7484 93.6205 27.6219 93.6205 29.3718C93.6207 31.0966 95.024 32.3207 96.6796 32.3207ZM97.8075 17.6756C96.5043 17.6756 95.7522 18.5011 95.7522 19.6005C95.7522 20.4501 96.2026 21.1999 97.2309 22.2999C99.0106 21.2745 99.7631 20.6501 99.7631 19.5508C99.7631 18.5253 99.1116 17.6756 97.8075 17.6756ZM108.915 34.3204C109.24 34.6706 109.04 35.0203 108.638 35.0203H105.454C105.028 35.0203 104.802 34.9198 104.526 34.5945L102.621 32.4962C101.343 34.1957 99.5614 35.4699 96.6038 35.4699C92.9438 35.4699 90.0599 33.2708 90.0599 29.4978C90.0599 26.5979 91.6151 25.0481 93.972 23.7488C92.8178 22.4244 92.2924 21.0248 92.2924 19.8008C92.2924 16.7011 94.4733 14.5771 97.7569 14.5771C101.116 14.5771 103.173 16.5522 103.173 19.4756C103.173 21.9747 101.368 23.373 99.4619 24.4234L102.27 27.4484L103.849 24.6983C104.05 24.3739 104.275 24.2485 104.676 24.2485H107.107C107.509 24.2485 107.735 24.5241 107.485 24.9487L104.676 29.7463L108.915 34.3204ZM83.8952 35.0203C84.2211 35.0203 84.4478 34.7946 84.4478 34.4701V18.3505H89.9373C90.2632 18.3505 90.4886 18.1258 90.4886 17.801V15.5774C90.4886 15.2518 90.2632 15.0266 89.9373 15.0266H75.321C74.9946 15.0266 74.7694 15.2521 74.7694 15.5774V17.8009C74.7694 18.1255 74.9947 18.3505 75.321 18.3505H80.8105V34.4699C80.8105 34.7946 81.0368 35.0203 81.3624 35.0203H83.8952Z" fill="#171718"/>
<path d="M9.69972 44.7436C13.9514 48.0257 19.288 49.9977 25.0779 49.9977C31.414 49.9977 37.1903 47.6518 41.5987 43.801C41.6521 43.7539 41.6257 43.7228 41.573 43.7539C39.5949 45.0714 33.9568 47.9474 25.0781 47.9474C17.3622 47.9474 12.4861 46.2305 9.73241 44.6978C9.67972 44.6718 9.6602 44.7113 9.69972 44.7436ZM26.7802 46.0215C32.9515 46.0215 39.733 44.3438 43.789 41.0229C44.8989 40.1181 45.9561 38.9138 46.9029 37.2954C47.448 36.3642 47.9811 35.2579 48.4153 34.1704C48.4346 34.1173 48.4018 34.0915 48.3618 34.1511C44.59 39.6863 33.668 43.1388 22.3903 43.1388C14.4189 43.1388 5.84176 40.5967 2.48375 35.7428C2.4507 35.6979 2.41764 35.7171 2.43777 35.7687C5.56599 42.3993 15.0563 46.0215 26.7802 46.0215ZM20.0375 35.0217C7.20231 35.0217 1.15028 29.0603 0.0524461 24.9921C0.0389077 24.9332 0 24.9461 0 24.999C0 26.3686 0.137458 28.136 0.373953 29.3091C0.486773 29.8802 0.952811 30.7764 1.63607 31.4907C4.74405 34.7213 12.4927 39.2482 25.912 39.2482C44.1954 39.2482 48.3758 33.1747 49.2294 31.1774C49.8399 29.749 50.1562 27.1676 50.1562 24.9992C50.1562 24.4744 50.143 24.0553 50.1231 23.6438C50.1231 23.577 50.0843 23.5716 50.0709 23.6366C49.1572 28.5239 33.5362 35.0217 20.0375 35.0217ZM2.41764 14.2746C1.68218 15.7302 0.866946 18.1858 0.624596 19.4567C0.518363 20.0012 0.563613 20.2627 0.755102 20.6691C2.29348 23.9241 10.0749 29.132 28.2259 29.132C39.2993 29.132 47.9015 26.4191 49.2951 21.4683C49.5517 20.557 49.5655 19.5947 49.2358 18.2981C48.8674 16.8493 48.1776 15.1597 47.5937 13.9733C47.5745 13.9346 47.5404 13.9404 47.5474 13.9861C47.7642 20.4795 29.6061 24.6644 20.4442 24.6644C10.5203 24.6644 2.24103 20.7214 2.24103 15.7426C2.24103 15.2642 2.34032 14.7857 2.46423 14.2877C2.47668 14.2422 2.43765 14.2347 2.41764 14.2746ZM41.6393 6.30206C41.7447 6.46675 41.7972 6.64251 41.7972 6.87908C41.7972 9.65664 33.2728 14.5703 19.703 14.5703C9.73241 14.5703 7.86569 10.8817 7.86569 8.53593C7.86569 7.69741 8.18818 6.83943 8.8984 5.96806C8.93718 5.91625 8.90425 5.8963 8.85949 5.93486C7.56419 7.02953 6.37403 8.26129 5.32999 9.59096C4.83114 10.2198 4.52146 10.7769 4.52146 11.1106C4.52146 15.9718 16.7446 19.4965 28.1736 19.4965C40.3513 19.4965 45.7862 15.532 45.7862 12.048C45.7862 10.8029 45.3001 10.076 44.0568 8.66681C43.2497 7.75008 42.4863 7.00363 41.6783 6.26886C41.6393 6.23674 41.6121 6.2629 41.6393 6.30206ZM37.906 3.52511C34.1477 1.27859 29.7833 0.000488281 25.0781 0.000488281C20.3402 0.000488281 15.8443 1.32322 12.0725 3.62922C10.9411 4.32361 10.3043 4.88007 10.3043 5.59539C10.3043 7.70398 15.2458 9.97118 24.0127 9.97118C32.6887 9.97118 39.4179 7.48784 39.4179 5.09743C39.4179 4.52686 38.9178 4.12767 37.906 3.52511Z" fill="#00AAE1"/>
</g>
<defs>
<clipPath id="clip0_396_349">
<rect width="122" height="50" fill="white"/>
</clipPath>
</defs>
</svg>
