<svg width="60" height="59" viewBox="0 0 60 59" fill="none" xmlns="http://www.w3.org/2000/svg">
<g clip-path="url(#clip0_396_336)">
<path d="M59.9998 29.5C59.9998 45.7925 46.5683 59 30 59C13.4315 59 0 45.7927 0 29.5C0 13.2077 13.4315 0 30 0C46.5685 0 59.9998 13.2077 59.9998 29.5Z" fill="white"/>
<path d="M29.7496 10.4879C30.8057 11.0835 31.9259 11.8499 32.7787 12.6621L32.4436 12.9914C30.7609 12.8164 28.9886 13.0348 27.3933 13.0589C27.2154 12.8833 26.857 12.6192 27.1908 12.3986L29.7496 10.4879ZM59.5043 30.9381C59.5267 31.6812 59.5981 32.3193 59.3018 33.0798C56.2275 33.9352 54.2081 30.7508 51.2252 31.2311L51.5624 32.8817C54.3221 32.9705 56.0458 35.5594 58.8968 35.4481C58.4918 36.2396 59.0775 38.3247 57.283 37.4912C55.4203 37.0533 54.0736 35.4481 52.0324 35.4481C51.7861 35.8905 51.942 36.503 51.8989 37.0263C54.0522 37.3568 55.6008 39.1373 57.7536 39.466C57.5511 40.1898 57.3504 41.0002 56.7441 41.4416C54.9927 41.0247 53.6248 39.4859 51.7603 39.53L51.4283 41.0456C53.2002 41.0902 54.3451 42.6238 55.9375 43.0842C55.9812 43.7235 55.3971 44.2947 55.0607 44.8654C53.647 44.45 52.5689 43.262 50.9537 43.3496C50.9313 42.7542 51.2926 42.0782 51.1562 41.4416C49.3421 41.9695 48.1257 40.3204 46.7812 39.3312C46.7424 36.0941 43.2591 33.9705 43.0752 30.9381C43.0399 30.3335 43.1341 29.688 43.4156 28.9944C44.5605 26.4047 44.2008 23.0425 42.9455 20.628C42.5641 19.9927 41.8882 19.4911 41.2583 19.1175C42.1798 21.0282 43.3029 23.2858 42.7424 25.6344C42.6774 27.448 41.5836 29.1898 41.5711 30.9381C41.5669 31.5614 41.7028 32.1847 42.0693 32.8142C43.5288 35.3857 46.1545 37.8199 45.1672 41.045C44.8957 42.0356 44.0873 42.8016 43.8856 43.8097C45.593 45.1932 47.2074 46.752 49.4728 46.8398C50.28 46.3355 49.8317 44.0988 51.4922 45.1304L53.9169 46.3169C53.7402 46.9519 53.1968 47.521 52.7046 47.9583C51.7847 47.5202 50.8873 46.9951 49.7403 47.0379C49.402 47.389 49.111 47.783 49.1368 48.2868C49.944 48.4169 50.6844 48.7501 51.3587 49.2119C51.0457 49.8715 50.4355 50.2849 49.8746 50.7901L47.9938 50.1322C47.6797 50.5718 47.0274 51.0338 47.2564 51.5162C47.6807 51.694 48.1515 51.9344 48.4639 52.2424C47.6338 53.1203 46.5815 53.685 45.569 54.2809C44.6968 51.4922 41.8232 49.5369 42.0699 46.3118L41.9364 46.1814C41.2609 46.9243 41.4866 48.1124 41.5302 49.0765C42.3386 51.0965 44.2668 52.6568 44.5593 54.8719C44.2216 55.442 43.4604 55.5557 42.8765 55.797C42.9443 51.8031 36.7519 48.774 40.723 44.7342C42.0473 42.756 44.2662 40.8682 43.48 38.1447C42.6728 35.5152 39.8177 33.8859 39.843 30.9381L39.8474 30.7082C40.4977 27.6341 42.4731 24.363 40.8571 21.0927C40.4067 19.7774 39.4004 18.2827 38.0317 17.7329C40.0723 20.0179 40.8813 23.7462 39.7139 26.8209C39.1255 28.0439 38.3155 29.5009 38.2342 30.9386H38.2294C38.186 31.6895 38.3427 32.4361 38.8379 33.1441C40.3873 35.6036 43.0784 38.3052 41.5304 41.5103C39.7804 44.0775 36.7289 46.6889 38.4331 50.0702C39.6671 52.0896 41.5759 54.1047 41.061 56.5873L39.0416 57.2451C40.3879 52.6147 33.7904 49.894 36.5522 45.262C38.2574 42.7817 41.3071 40.4544 39.5807 37.1625C38.5487 35.1227 36.4161 33.9155 36.4835 31.3664L36.5569 30.9384C37.2517 27.3233 40.0608 23.9013 38.0966 20.038C37.5805 18.8973 36.549 17.7343 35.4042 17.0752L35.335 17.1429C37.6249 19.316 38.3215 22.8916 37.0869 25.7658C36.5109 27.4521 35.2467 29.1319 34.9897 30.939C34.8675 31.7911 34.9705 32.6741 35.4738 33.6043C36.932 35.8635 39.4894 38.26 37.8935 41.1808C36.213 43.5933 33.4074 45.9406 34.528 49.0779C35.7624 51.8227 38.3399 54.4374 36.9482 57.8409L34.8644 58.3012C36.5242 54.9844 34.0355 51.6932 32.5776 48.8166C30.804 44.6896 36.3881 42.7134 36.4776 38.9402C36.4564 36.5048 33.81 35.1219 33.2506 32.8831C32.1052 31.9377 30.918 33.259 29.5487 33.0137C28.5378 33.2124 26.9851 31.6524 26.3816 33.3434C25.663 35.8226 22.389 37.6453 23.8279 40.5858C25.197 43.199 28.492 45.1099 27.3913 48.4916C26.4058 51.6504 23.1504 54.658 25.1694 58.3012C24.34 58.0384 22.7912 58.5416 22.8136 57.2453C21.5352 52.8334 26.9867 50.263 25.3029 45.8534C24.5193 43.1524 20.9491 41.6603 21.7351 38.4117C22.3162 35.7376 25.3834 33.8681 24.9532 30.9388C24.9183 30.6936 24.8566 30.4426 24.7684 30.1809C23.6236 27.02 21.2879 23.8582 22.68 20.1691C23.0623 19.1154 23.8257 18.2156 24.4965 17.2737C22.275 18.4368 21.1544 20.896 21.2004 23.3979C21.1036 26.1186 23.1579 28.4492 23.4501 30.9388C23.5651 31.9436 23.3969 32.9725 22.68 34.0639C21.2228 35.9984 19.3169 38.0382 20.1907 40.5854C21.0215 43.1548 24.2971 44.7113 24.0952 47.6978C24.073 51.2305 19.877 53.4301 21.0662 57.3809L18.9779 56.7181C18.1487 53.2073 21.9624 51.4111 22.0062 48.1627C22.5459 44.4272 17.6759 43.0411 17.9682 39.3997C17.9472 36.633 20.4365 34.8808 21.536 32.5535C21.7246 31.9872 21.7873 31.4521 21.7621 30.939C21.6274 28.3659 19.2574 26.3542 19.6507 23.4612C19.783 21.3321 20.5235 19.4658 21.9376 17.8645C19.9866 18.6313 19.1806 20.8285 18.6416 22.6727C17.7064 25.6298 19.939 28.2898 20.1628 30.9392C20.2621 32.1092 19.9698 33.2724 18.8445 34.4617C17.2281 36.3252 15.5889 38.6765 16.756 41.1812C17.9918 43.9447 21.8743 46.0957 20.1903 49.5426C19.2715 51.7161 17.0716 53.3614 17.162 55.9288C16.5791 55.6873 15.9744 55.4465 15.479 55.0087C15.479 51.7386 20.2338 49.6961 17.9684 46.2498C17.7677 46.9298 17.7245 47.8539 17.5674 48.6221C16.7812 50.6206 15.099 52.2203 14.4695 54.2863C13.4168 53.8889 12.3162 53.0538 11.4406 52.1759L12.6534 51.4497C12.5187 51.0099 12.1603 50.6371 11.8468 50.264C11.0592 50.1557 10.542 50.6612 9.89277 50.8593C9.33185 50.3755 8.79049 49.9362 8.34332 49.3437C8.74591 48.2219 11.8916 49.1495 10.298 47.3051C9.22212 46.647 8.14223 47.5871 7.2001 48.026L5.92294 46.4478C7.0224 45.7899 8.11904 44.8658 9.48655 45.1308C9.82359 45.7246 9.84698 46.5977 10.4963 46.9077C12.8077 46.8637 14.4455 45.1533 16.2174 43.8139C14.9824 42.016 13.9772 39.5341 15.0742 37.36C15.9532 35.1813 18.2435 33.3464 18.3474 30.9379C18.3708 30.3897 18.2834 29.8129 18.0384 29.1921C16.8274 26.1405 16.4 22.0162 18.7114 19.3153C17.4546 19.6456 16.7136 21.178 16.2866 22.3416C14.8971 25.3214 16.6545 28.082 16.7152 30.9377C16.7235 31.4513 16.6809 31.9661 16.5537 32.4847C15.364 34.8332 13.4366 36.8939 13.1236 39.5965C11.7544 40.4509 10.6304 41.945 8.67955 41.4408C8.61098 41.9452 8.7681 42.714 8.94701 43.2852C7.39998 43.2217 6.3451 44.3372 5.04253 44.864C4.34869 44.6462 4.16817 43.7687 3.89951 43.1546C5.42414 42.6508 6.524 41.1555 8.27454 41.1792C8.47745 40.6277 8.16079 40.1223 8.07143 39.5961C5.8939 38.6505 2.44224 44.2703 2.15199 39.3979C4.32791 39.2661 5.71842 37.2901 7.87337 37.0932L7.93771 35.515C5.49212 35.2733 3.91887 37.7329 1.47429 37.4904L0.935147 35.3844C3.76296 35.5572 5.44774 33.078 8.14082 32.9446C8.49863 32.4843 8.54179 31.8037 8.61077 31.1677C5.67122 30.793 3.65404 33.98 0.53417 33.0121C0.53417 33.0121 0.426665 31.6857 0.368374 30.9379H0.37261C0.351432 30.6454 0.331262 30.4416 0.331262 30.4416C3.11329 31.4977 5.55767 29.5428 7.93771 28.5337C8.543 28.3565 9.48695 28.6637 9.75844 28.0058C9.73484 27.5009 10.6762 26.9105 9.89257 26.558C6.41307 26.0961 4.10161 30.2018 0.533767 28.335L0.266113 27.8071C1.00836 17.8866 6.72732 8.29547 16.2174 3.57567C20.061 1.42681 24.836 0.331461 29.6515 0.292588C35.4631 0.245428 41.3353 1.73681 45.7037 4.76199C49.9458 7.30767 54.0036 11.503 56.2057 15.7618C58.3119 19.4932 59.2812 23.6803 59.5707 28.1378C55.8901 30.8585 53.4209 25.5746 49.6729 26.7571C49.8748 27.329 49.9866 27.9206 50.415 28.4034C53.7367 28.3805 56.0242 31.7832 59.5013 30.4422L59.5043 30.9381ZM17.2259 18.7201C14.8921 17.227 11.9331 18.6329 9.75803 19.4461C9.55614 17.4476 8.72655 15.6269 6.99679 14.3099C6.82897 14.2282 6.59702 14.0564 6.38806 14.0437C6.26301 14.036 6.14401 14.0854 6.05163 14.2418C6.83563 18.9605 3.70023 22.253 1.47832 25.8325C2.21815 26.4241 3.40676 26.3357 4.30411 26.1618C6.65955 25.2403 8.90324 23.6365 11.7079 24.1862C12.5372 22.8034 13.9308 21.4639 15.0734 20.3664C15.7715 19.7754 16.7305 19.4001 17.2259 18.7201ZM24.3624 21.6835C24.3176 21.9677 24.3848 22.4742 24.8326 22.2785C25.5292 21.3347 26.7626 22.0813 27.525 22.1478V21.8822C27.1067 21.2396 26.2461 20.9167 25.3721 20.9489C25.1704 20.9558 24.9655 20.9846 24.7682 21.0294C24.4758 21.0929 24.2722 21.3548 24.3624 21.6835ZM35.334 18.8557C34.7075 17.4943 33.2714 16.9434 31.9682 16.6143C31.3295 16.5373 30.6665 16.4852 30.0089 16.4791C29.8857 16.4779 29.7627 16.4763 29.64 16.4791C27.8008 16.5154 26.0434 16.9774 24.9697 18.4585C24.8156 18.8766 24.1381 19.4638 24.7672 19.8386C26.1809 19.7502 27.7941 19.5767 28.7364 20.7636C28.7364 21.8183 29.4325 23.2215 28.2663 23.7264C27.2999 22.8511 26.1555 24.099 25.104 23.3965C24.6097 23.1108 24.2969 23.4443 24.0943 23.8612C23.8021 26.5825 25.2585 29.5858 27.8609 31.0999C28.9155 31.472 30.3333 31.826 31.4339 31.298C34.0814 30.0919 35.1781 27.3278 35.671 24.7811C35.6049 24.2965 35.6285 23.3521 34.9334 23.3292C34.1486 23.8148 33.004 23.5279 32.1722 23.3292C31.6804 23.4845 31.6578 24.1884 31.0981 24.3218L30.757 24.0556C30.465 22.8501 30.2849 21.1373 31.4303 20.3033C32.7103 19.7983 34.2136 19.5777 35.5373 19.9739C35.7844 19.5572 35.403 19.229 35.334 18.8557ZM33.9832 21.0201C33.8943 21.0223 33.8077 21.0266 33.7202 21.0294C33.25 21.3362 31.8799 21.1156 32.3745 22.1478C33.2276 21.4876 34.4169 21.9503 35.2694 22.2785C35.5847 22.1253 35.5163 21.8179 35.5371 21.5529C35.2634 21.0547 34.6093 21.0079 33.9832 21.0201ZM43.7523 11.7392C42.0915 11.6529 40.7008 12.5752 39.1747 12.9926C39.0418 11.7222 40.0283 10.3806 40.2534 9.10529C37.786 9.26059 35.8318 10.7135 33.7906 11.8741C33.3182 10.7575 32.8444 9.63511 32.3753 8.51431L35.0677 6.01125L35.1367 5.68152L31.4999 5.4834C30.8734 4.40956 30.6265 3.1161 29.8861 2.1283C29.2802 3.24772 28.8732 4.43245 28.2679 5.55089L24.6353 5.74959V6.01125L27.3923 8.44662C27.0553 9.69845 26.742 11.0586 25.9127 12.0048C24.2973 11.0582 22.7048 10.028 20.9337 9.37069C20.5075 9.23612 19.9 9.01729 19.5186 9.30321C20.0787 10.5108 20.8631 11.8098 20.7312 13.1279C19.9904 12.9946 19.4081 12.5299 18.712 12.3345C17.8796 12.1123 16.8919 11.6782 16.0843 11.9422C17.4308 13.785 18.5299 15.7137 18.9101 17.9314C23.3771 15.8222 28.5866 14.6621 33.9941 15.5635C36.5288 15.9582 38.8597 16.9683 41.1262 17.8004C41.2147 15.4749 42.718 13.6063 43.7523 11.7392ZM51.4233 24.3845C53.7101 24.9767 56.0042 27.4142 58.4258 25.8327C56.3169 22.4089 53.1778 19.2472 54.0508 14.7699C54.1422 14.4642 53.9402 14.1548 53.6498 14.1114C52.2817 14.6584 51.2222 15.9771 50.6808 17.2733C50.4581 18.0399 50.3262 18.8549 50.0126 19.5775C48.3736 18.743 46.6247 17.9346 44.6278 18.1299C43.9078 18.2177 42.8755 18.2639 42.7426 18.9871C45.0086 20.1718 46.8721 22.149 48.2608 24.2545C49.2278 24.1002 50.4136 24.232 51.4233 24.3845ZM27.4603 27.4788L27.5248 27.8756C28.4016 28.447 28.6713 29.4155 29.8851 29.3275C30.9616 29.39 31.7692 28.4034 32.3055 27.6137C30.8488 27.417 29.0763 27.7215 27.4603 27.4788ZM28.6725 25.7019C28.7163 25.8777 28.5614 26.1411 28.806 26.2299C29.5241 26.0774 30.8248 26.6036 31.2258 25.7695C30.9458 25.4627 30.4888 25.3234 30.0091 25.3234C29.5297 25.3234 29.0321 25.4601 28.6725 25.7019Z" fill="#00613A"/>
<path opacity="0.99" d="M27.4619 24.9399H32.3817V26.9173H27.4619V24.9399Z" fill="white"/>
<path d="M28.371 25.9974C29.0067 26.1446 29.164 26.3652 29.6665 26.4268C30.2006 26.4175 30.1235 26.3113 31.0552 25.9968C31.1163 25.9757 31.2004 25.8437 31.0961 25.7424C30.5176 25.1807 30.1179 25.582 29.7552 25.5927C29.2742 25.5978 28.823 25.1897 28.353 25.7201C28.2729 25.8279 28.2312 25.9336 28.371 25.9974Z" fill="#00613A"/>
<path d="M51.6137 58.4416V55.6252H50.5854V55.0518H53.339V55.6252H52.3132V58.4416H51.6137Z" fill="#00613A"/>
<path d="M53.7837 58.4418V55.0518H54.8307L55.4594 57.3642L56.081 55.0518H57.1305V58.4418H56.4804V55.7734L55.7926 58.4418H55.1189L54.4336 55.7734V58.4418H53.7837Z" fill="#00613A"/>
</g>
<defs>
<clipPath id="clip0_396_336">
<rect width="60" height="59" fill="white"/>
</clipPath>
</defs>
</svg>
