<svg width="102" height="38" viewBox="0 0 102 38" fill="none" xmlns="http://www.w3.org/2000/svg">
<g clip-path="url(#clip0_396_303)">
<path fill-rule="evenodd" clip-rule="evenodd" d="M15.3319 37.951C11.203 37.5658 7.58928 35.8502 4.8441 32.9717C2.25174 30.2535 0.661063 26.8034 0.120482 22.7265C-0.0123712 21.7245 -0.041969 19.3707 0.0649958 18.3137C0.412101 14.8841 1.60251 11.8195 3.61309 9.17956C4.15494 8.46811 5.28082 7.2618 5.92907 6.69814C9.36532 3.7103 13.7027 2.25475 18.3975 2.51398C20.6124 2.63628 22.1331 2.92153 23.8349 3.53396C25.016 3.95898 26.7134 4.85818 27.2371 5.33621L27.3693 5.45696L27.3543 6.80804L27.3394 8.15911L26.779 7.79736C24.2084 6.13777 20.9476 5.25941 17.3654 5.26164C14.3294 5.26352 11.5272 6.11675 9.14142 7.76575C6.68668 9.4624 4.8371 11.8575 3.75433 14.7418C2.2885 18.6465 2.51531 23.4177 4.34984 27.2692C6.44115 31.6599 10.2939 34.4847 15.074 35.1322C16.4805 35.3227 18.5548 35.236 20.0282 34.9251C24.8495 33.9076 27.8749 30.4487 28.5194 25.2175C28.5866 24.6717 28.6104 24.014 28.6146 22.5865L28.6202 20.6832L22.9233 20.669L17.2264 20.6547V17.9682H31.1551L31.1546 20.3893C31.154 23.1193 31.0972 24.548 30.9438 25.6907C30.4805 29.1413 29.2555 31.8881 27.2344 34.0081C25.1861 36.1566 22.5648 37.4171 19.201 37.8709C18.4159 37.9768 16.1186 38.0243 15.3319 37.951ZM80.3055 5.88366V-0.000976563L82.9205 -0.000976563V9.94626L82.6944 10.0527C82.2272 10.2728 81.5645 10.7469 80.3722 11.7142C80.3189 11.7574 80.3055 10.5829 80.3055 5.88366ZM76.3564 8.0152V-0.000976563L78.9713 -0.000976563V12.8306L78.5627 13.2862C78.1441 13.7529 77.3917 14.6806 76.7857 15.4772C76.5984 15.7235 76.4251 15.9489 76.4007 15.9782C76.3763 16.0074 76.3564 12.4241 76.3564 8.0152ZM16.0256 33.7771C12.7418 33.5062 9.97669 32.1767 7.79983 29.8221C7.1605 29.1305 6.79196 28.6502 6.30058 27.8682C4.47971 24.9702 3.77164 21.1852 4.39195 17.6657C5.18723 13.1533 8.15606 9.40748 12.3143 7.66973C13.3717 7.22784 14.6765 6.9019 15.9163 6.76993C16.7208 6.6843 18.8813 6.73221 19.7345 6.85461C22.4815 7.2487 24.9338 8.13891 26.8987 9.45532L27.3654 9.76799L27.3657 11.0955C27.3659 12.3054 27.3576 12.4277 27.272 12.4758C27.1986 12.517 27.0332 12.4321 26.5116 12.0853C24.4535 10.7168 22.2624 9.91746 19.6812 9.59332C18.6975 9.4698 16.5723 9.45392 15.8388 9.5646C11.122 10.2764 7.76197 13.8354 7.1646 18.7526C7.00199 20.0911 7.11259 21.9784 7.43032 23.2869C8.13989 26.2091 9.85459 28.5854 12.1502 29.8279C13.708 30.6709 15.0777 31.012 16.9061 31.012C19.4662 31.012 21.5254 30.2483 22.9378 28.7752C23.8533 27.8203 24.3883 26.6624 24.51 25.3721L24.5483 24.9663H17.2263V22.1113H27.2592V23.253C27.2592 25.014 27.1251 26.0604 26.7479 27.2429C25.9837 29.6391 24.363 31.5414 22.136 32.6562C20.6876 33.3812 19.1461 33.7338 17.2342 33.7775C16.7162 33.7894 16.1723 33.7892 16.0256 33.7771ZM88.6675 33.8076C86.5928 33.6144 84.7663 32.6544 83.2069 30.9376C82.0891 29.7068 81.2969 28.2382 80.9523 26.7576C80.9398 26.7036 80.9277 26.6537 80.9165 26.6071C80.8652 26.394 80.8308 26.2512 80.8387 26.1107C80.8548 25.8245 81.0464 25.5483 81.6283 24.7096C81.6907 24.6195 81.7577 24.523 81.8294 24.4193C82.3854 23.6153 82.856 22.956 82.8752 22.9542C82.8943 22.9525 82.9257 23.2218 82.9447 23.5528C82.993 24.3903 83.0649 24.903 83.2252 25.554C83.9372 28.4447 85.9385 30.5335 88.4346 30.9913C89.0973 31.1129 90.2359 31.0687 90.8719 30.8967C93.1705 30.2752 94.699 28.4528 95.2824 25.638C95.4233 24.9583 95.4243 22.9616 95.2841 22.2922C94.9983 20.9279 94.4405 19.7765 93.6336 18.8855C92.4808 17.6124 90.9684 16.9613 89.1642 16.9613C86.8486 16.9613 85.1643 17.9466 82.9426 20.6009C80.7705 23.1959 77.1633 28.005 75.3497 30.7235L74.7019 31.6945V27.1774L75.6242 25.8619C76.1315 25.1384 77.0204 23.9041 77.5996 23.119C78.1787 22.3339 78.9823 21.2382 79.3854 20.6842C81.2373 18.1385 82.4322 16.8613 83.9503 15.8047C87.0818 13.6251 91.2027 13.5702 94.1912 15.6683C97.2411 17.8094 98.7066 21.9966 97.8889 26.233C97.2292 29.6505 95.1427 32.2875 92.256 33.3519C91.6316 33.5821 90.9137 33.7374 90.1511 33.8072C89.4479 33.8715 89.3548 33.8713 88.6675 33.8076ZM66.8037 30.1655C66.8037 24.0771 66.7923 23.0249 66.7209 22.521C66.4598 20.6758 65.6475 19.1384 64.4255 18.1764C63.6331 17.5526 62.7444 17.165 61.6888 16.9828C60.9325 16.8523 59.8028 16.9032 59.0922 17.1C56.7193 17.7569 55.0132 19.7843 54.498 22.5592C54.3511 23.3509 54.3637 24.8446 54.5241 25.638C55.0522 28.2498 56.6315 30.1357 58.8521 30.8062C60.8066 31.3963 63.5 30.9541 65.1636 29.7701L65.4713 29.5511L65.4571 30.994L65.4428 32.4369L64.9092 32.7296C63.559 33.4702 61.4428 33.9428 59.9461 33.8379C57.081 33.6371 54.7751 32.2727 53.2408 29.8703C51.6074 27.3128 51.1898 23.6012 52.1833 20.4708C53.4958 16.3355 57.176 13.8096 61.3736 14.1631C63.6498 14.3548 65.3592 15.1557 66.8591 16.7333C68.2456 18.1916 68.9892 19.7663 69.3458 21.9994C69.4314 22.5349 69.4414 23.2376 69.4583 29.9064L69.4768 37.2256H66.8037V30.1655ZM36.8659 29.9904C36.8667 22.5697 36.8891 21.5752 37.0771 20.6075C37.56 18.1218 38.9657 16.1448 41.0206 15.061C41.5071 14.8045 42.5181 14.466 43.109 14.3618C44.8903 14.0476 46.7418 14.3316 48.0565 15.1207L48.3345 15.2875L48.1144 15.6626C47.9934 15.8688 47.7285 16.3966 47.5259 16.8353C47.3232 17.2741 47.1531 17.633 47.1478 17.633C47.1425 17.633 46.91 17.5476 46.6312 17.4433C45.4381 16.9968 44.3478 16.9245 43.2329 17.2177C42.1891 17.4923 41.2382 18.1392 40.6224 18.9934C40.2789 19.4699 39.8818 20.3488 39.7068 21.0198L39.5607 21.5795L39.5457 29.4026L39.5306 37.2256H36.8651L36.8659 29.9904ZM33.162 20.0399C32.9825 21.1854 32.9698 21.8084 32.9698 29.5143L32.9697 37.2254H35.5805L35.5984 29.3464C35.6146 22.1829 35.6062 21.2212 35.8041 20.3041C35.8464 20.1077 35.8982 19.9134 35.9618 19.6607C37.0107 15.4892 40.3589 12.8746 44.6521 12.8746C46.0172 12.8746 47.7913 13.2824 48.84 13.8372L49.1539 14.0033L49.3947 13.7049C49.5272 13.5407 49.9165 13.1142 50.2599 12.757L50.8842 12.1076L50.5323 11.8711C49.6613 11.2858 48.2484 10.7092 47.1118 10.4752C43.9206 9.81827 40.6049 10.3628 38.1057 11.9544C35.4767 13.6287 33.7152 16.5095 33.162 20.0399ZM78.8936 32.2835C80.9329 35.5747 84.2514 37.5916 88.2573 37.9745H88.2574C88.7732 38.0238 90.7566 37.9551 91.2726 37.8701C94.8802 37.2755 97.8069 35.3 99.8159 32.1034C100.898 30.3811 101.617 28.2967 101.928 25.9737C102.024 25.2573 102.023 22.6566 101.927 21.9432C101.489 18.6949 100.331 16.0796 98.3969 13.9715C96.4218 11.8189 94.0809 10.5681 91.1391 10.0936C90.2756 9.95434 88.1603 9.95434 87.2967 10.0936C85.8575 10.3258 84.6927 10.7045 83.481 11.3344C82.0389 12.084 80.9594 12.9195 79.6102 14.3301C78.3147 15.6845 77.4939 16.749 75.5971 19.5349L74.7023 20.8492V22.889C74.7023 24.0108 74.7109 24.9182 74.7215 24.9054C74.7321 24.8926 75.4247 23.9249 76.2607 22.7549C77.0966 21.5849 78.0906 20.2218 78.4695 19.7258C82.163 14.89 84.7306 13.1123 88.4566 12.8108C90.9175 12.6117 93.4972 13.3675 95.3284 14.8242C97.5041 16.555 98.8529 19.0558 99.2869 22.1638C99.4113 23.0546 99.4102 24.8698 99.2847 25.7695C99.011 27.7326 98.3311 29.549 97.298 31.0771C96.8756 31.7021 95.7144 32.9108 95.0882 33.3776C94.07 34.1366 92.6159 34.7894 91.3914 35.0372C89.5091 35.4183 87.5764 35.251 85.8325 34.5562C85.1377 34.2794 84.089 33.6951 83.512 33.2633C81.6559 31.8744 80.3394 29.8618 79.739 27.4959L79.692 27.3107L78.7644 28.6343L77.8367 29.9579L77.9022 30.1909C78.0125 30.5836 78.5719 31.7643 78.8936 32.2835ZM47.9173 27.0933C49.0315 33.1256 53.4961 37.3897 59.2794 37.9452C60.0064 38.015 61.0962 38.0175 61.6542 37.9506C63.0053 37.7886 64.2896 37.3462 65.163 36.742L65.4699 36.5298V33.7494L65.2259 33.9254C64.6333 34.3531 63.4514 34.8302 62.4582 35.0425C60.72 35.4142 58.6782 35.2474 56.895 34.5879C54.8133 33.8181 53.1176 32.3851 51.9661 30.4226C51.4153 29.4839 50.8568 27.975 50.6361 26.8292C50.3301 25.2402 50.2881 23.324 50.5278 21.8872C51.3867 16.7391 55.0191 13.2239 59.9064 12.8109C62.7512 12.5705 65.6508 13.6071 67.63 15.5719C69.3941 17.3232 70.4695 19.7632 70.6969 22.531C70.7311 22.948 70.7521 25.861 70.7526 30.2141L70.7531 37.2254H73.4257L73.4079 29.5983C73.3904 22.1246 73.3878 21.9565 73.2762 21.2397C72.8 18.1799 71.6991 15.7913 69.8502 13.8067C68.5791 12.4422 67.2256 11.5061 65.5499 10.8322C63.9798 10.2008 62.5971 9.94563 60.7202 9.94098C58.7851 9.93618 57.316 10.2274 55.6238 10.9514C52.081 12.4669 49.3025 15.7463 48.2087 19.703C47.7908 21.2145 47.6722 22.168 47.6722 24.0144C47.6722 25.522 47.7063 25.9509 47.9173 27.0933Z" fill="#00B34E"/>
</g>
<defs>
<clipPath id="clip0_396_303">
<rect width="102" height="38" fill="white"/>
</clipPath>
</defs>
</svg>
