<svg width="70" height="70" viewBox="0 0 70 70" fill="none" xmlns="http://www.w3.org/2000/svg">
<path d="M35.0567 4.58787e-05C28.1319 -0.0111638 21.3595 2.03202 15.5963 5.87105C9.83314 9.71007 5.33828 15.1724 2.68052 21.5668C0.0227644 27.9612 -0.67844 35.0003 0.665637 41.7934C2.00971 48.5865 5.33867 54.8282 10.2312 59.7287C15.1238 64.6292 21.3601 67.9682 28.151 69.3233C34.9419 70.6784 41.9821 69.9886 48.3808 67.3412C54.7795 64.6938 60.2491 60.2078 64.0975 54.4509C67.9458 48.6939 70 41.9248 70 35C69.9925 25.7296 66.3104 16.8401 59.7605 10.2796C53.2106 3.71905 44.3271 0.0225349 35.0567 4.58787e-05ZM67.6346 35C67.6346 41.4433 65.7239 47.7419 62.1442 53.0993C58.5645 58.4567 53.4765 62.6323 47.5237 65.0981C41.5709 67.5638 35.0205 68.209 28.701 66.952C22.3815 65.6949 16.5767 62.5922 12.0206 58.0361C7.46452 53.48 4.36178 47.6752 3.10475 41.3557C1.84773 35.0362 2.49287 28.4858 4.95862 22.533C7.42436 16.5802 11.6 11.4922 16.9574 7.91251C22.3148 4.3328 28.6134 2.42214 35.0567 2.42214C43.6998 2.42961 51.9876 5.86251 58.1045 11.9688C64.2214 18.0751 67.6687 26.3569 67.6912 35H67.6346Z" fill="#6F6F6F"/>
<path d="M35.0568 14.2213V15.3403C40.2288 15.3552 45.1847 17.4164 48.8419 21.0736C52.4991 24.7307 54.5603 29.6866 54.5752 34.8587H55.6942C55.7017 32.1464 55.173 29.4595 54.1385 26.9522C53.104 24.445 51.5842 22.167 49.6663 20.2491C47.7485 18.3313 45.4705 16.8114 42.9632 15.777C40.456 14.7425 37.7691 14.2138 35.0568 14.2213ZM35.0568 54.5187C29.8848 54.5038 24.9289 52.4426 21.2717 48.7854C17.6146 45.1282 15.5534 40.1723 15.5384 35.0003H14.4194C14.4344 40.5066 16.6284 45.7832 20.522 49.6768C24.4156 53.5704 29.6921 55.7644 35.1985 55.7793" fill="#6F6F6F"/>
<path d="M51.9264 20.2692C52.4056 20.9029 52.9211 21.5082 53.4703 22.0823L60.5525 17.6205C60.0457 17.0937 59.5726 16.5354 59.136 15.9491L54.7168 18.8528L56.6714 14.9435L55.255 13.527L51.3457 15.4675L54.2777 11.0058C53.7111 10.595 53.3003 10.1701 52.6063 9.58936L48.1445 16.6715C48.6969 17.0964 49.391 17.7905 49.9576 18.2013L54.1644 16.0199L54.4476 15.8783L54.306 16.1616L51.9264 20.2692Z" fill="#6F6F6F"/>
<path d="M35.8924 11.1475L37.847 6.82744L37.9887 6.40251V6.82744L38.1303 12.6773C38.8321 12.7019 39.5296 12.7968 40.2125 12.9606L39.9433 4.462C38.966 4.32035 37.9887 4.32035 37.0113 4.17871L35.0567 8.93792L33.1728 4.17871C32.1946 4.20219 31.2194 4.29687 30.255 4.462L29.9717 12.9606C30.6657 12.8189 31.3881 12.8189 32.068 12.6773L32.1955 6.82744V6.40251L32.3371 6.82744L34.2918 11.1475H35.8924Z" fill="#6F6F6F"/>
<path d="M20.2829 17.9885C21.3877 16.8696 22.0959 15.4673 20.9769 14.0792C20.6565 13.7555 20.2495 13.5313 19.8048 13.4333C19.3601 13.3353 18.8966 13.3678 18.4698 13.5268H18.3282V13.3851C18.4159 13.0018 18.3933 12.6015 18.2629 12.2305C18.1326 11.8595 17.8998 11.533 17.5916 11.2888C17.3943 11.0886 17.1477 10.944 16.8766 10.8694C16.6056 10.7948 16.3197 10.7929 16.0477 10.8639C14.9288 11.0055 14.2347 11.7137 12.0109 14.0792C11.3027 14.7732 10.3395 16.0339 9.77295 16.7279L15.7786 22.3936C17.9033 20.4956 18.7389 19.6599 20.2829 17.9885ZM12.4642 16.5721C13.4292 15.3911 14.4552 14.2611 15.5378 13.1868C15.7485 13.0139 15.9821 12.8709 16.2319 12.7619C16.3244 12.7248 16.4246 12.711 16.5237 12.7217C16.6228 12.7323 16.7178 12.7672 16.8003 12.8231C16.8828 12.879 16.9503 12.9544 16.9969 13.0425C17.0435 13.1306 17.0678 13.2288 17.0676 13.3285C17.1054 13.5326 17.0872 13.7431 17.0149 13.9377C16.9426 14.1322 16.8188 14.3035 16.6568 14.4333C15.9486 15.1415 13.5831 17.6486 13.5831 17.6486L12.4642 16.5721ZM14.8438 18.8526C14.8438 18.8526 17.0676 16.4729 17.9033 15.6373C18.1865 15.3681 18.4698 15.0848 18.5973 15.0848C18.7256 15.0154 18.8692 14.9791 19.0151 14.9791C19.1611 14.9791 19.3047 15.0154 19.433 15.0848C19.5004 15.1076 19.562 15.1446 19.6138 15.1933C19.6656 15.242 19.7063 15.3013 19.7332 15.3671C19.7601 15.433 19.7725 15.5038 19.7696 15.5749C19.7666 15.6459 19.7485 15.7155 19.7163 15.7789C19.5746 16.0622 19.3055 16.473 19.1639 16.7562L16.0902 19.9574L14.8438 18.8526Z" fill="#6F6F6F"/>
<path d="M35.0564 14.2212V35.0002H14.2773C14.2886 29.4927 16.4814 24.214 20.3758 20.3196C24.2702 16.4252 29.5489 14.2324 35.0564 14.2212Z" fill="#0066B1"/>
<path d="M55.8357 35C55.8394 37.7298 55.3045 40.4335 54.2616 42.9562C53.2186 45.4789 51.6882 47.7711 49.758 49.7013C47.8277 51.6316 45.5356 53.162 43.0128 54.2049C40.4901 55.2478 37.7864 55.7828 35.0566 55.779V35H55.8357Z" fill="#0066B1"/>
</svg>
