<svg xmlns="http://www.w3.org/2000/svg" width="40" height="40" viewBox="0 0 40 40" fill="none">
  <mask id="mask0_1289_1208" style="mask-type:luminance" maskUnits="userSpaceOnUse" x="0" y="0" width="40" height="40">
    <path d="M0 -1.14441e-05H40V40H0V-1.14441e-05Z" fill="white"/>
  </mask>
  <g mask="url(#mask0_1289_1208)">
    <path d="M34 8.75585C34 7.7858 33.2201 7 32.258 7H7.74195M34 8.75585V31.2441C34 32.2142 33.2201 32.9999 32.258 32.9999L7.74195 33C7.73712 33 7.73234 32.9997 7.7275 32.9997C6.77206 32.9917 6 32.2093 6 31.2441V8.75585M34 8.75585V11.0442H6V8.75585M7.74195 7C7.73518 7 7.72852 7.00046 7.72181 7.00057C6.76899 7.01147 6 7.79263 6 8.75585M7.74195 7C6.77986 7 6 7.78643 6 8.75585M30.161 22.7001H23.1377M27.3855 19.1387H23.1377M30.161 15.5776H23.1377M14.6256 21.2524V22.7261M12.1674 21.6203L10.5206 23.2796M18.7345 15.003L17.4165 16.331M18.2834 13.9193C18.2882 14.7659 18.9692 15.4504 19.8093 15.4533M10.9656 24.3586C10.9608 23.5121 10.2799 22.8276 9.43968 22.8247M11.8434 16.3315L10.5206 14.9987M17.0926 21.6204L18.7394 23.2797M18.2834 24.3586C18.2882 23.5121 18.9692 22.8276 19.8093 22.8247M10.9656 13.9193C10.9608 14.7659 10.2799 15.4504 9.43968 15.4533M17.0635 29.6381H30.1603V26.8536H9.43968V29.6381H12.0557M18.1441 18.492C18.1441 16.5051 16.5226 14.8999 14.5402 14.9465C12.6783 14.9904 11.1573 16.5164 11.1062 18.3924C11.0781 19.4268 11.4902 20.364 12.1667 21.0294V22.0689C12.1667 22.4318 12.4588 22.726 12.819 22.726H16.4301C16.7903 22.726 17.0823 22.4318 17.0823 22.0689V21.0294C17.7371 20.3854 18.1441 19.4868 18.1441 18.492Z" stroke="url(#paint0_linear_1289_1208)" stroke-width="1.25" stroke-miterlimit="10" stroke-linecap="round" stroke-linejoin="round"/>
  </g>
  <defs>
    <linearGradient id="paint0_linear_1289_1208" x1="33.9996" y1="20.0001" x2="5.99978" y2="20.0001" gradientUnits="userSpaceOnUse">
      <stop stop-color="#9D73FE"/>
      <stop offset="1" stop-color="#6826FF"/>
    </linearGradient>
  </defs>
</svg>