<svg width="40" height="40" viewBox="0 0 40 40" fill="none" xmlns="http://www.w3.org/2000/svg">
<path fill-rule="evenodd" clip-rule="evenodd" d="M9.40713 31.9015L11.6794 31.5701C12.2259 31.4904 12.6043 30.9828 12.5246 30.4363C12.4449 29.8898 11.9373 29.5113 11.3908 29.591L7.15843 30.2083C6.66708 30.2799 6.30273 30.7012 6.30273 31.1978V34.8129C6.30273 35.3652 6.75045 35.8129 7.30273 35.8129C7.85502 35.8129 8.30273 35.3652 8.30273 34.8129V33.5938C11.4372 36.3102 15.5237 37.9999 19.9998 37.9999C29.9021 37.9999 37.9998 29.9021 37.9998 19.9999C37.9998 17.6035 37.4582 15.3328 36.6257 13.2762C36.4185 12.7642 35.8355 12.5172 35.3235 12.7244C34.8116 12.9317 34.5646 13.5147 34.7718 14.0266C35.5265 15.891 35.9998 17.9062 35.9998 19.9999C35.9998 28.7975 28.7975 35.9999 19.9998 35.9999C15.94 35.9999 12.2278 34.4299 9.40713 31.9015Z" fill="url(#paint0_linear_535_794)"/>
<path fill-rule="evenodd" clip-rule="evenodd" d="M5.22804 25.9734C5.43526 26.4853 5.18824 27.0683 4.67631 27.2755C4.16437 27.4827 3.58138 27.2357 3.37416 26.7238C2.54168 24.6671 2 22.3964 2 20C2 10.0979 10.0978 2 20 2C24.4762 2 28.5627 3.68974 31.6972 6.40628V5.1865C31.6972 4.63422 32.1449 4.1865 32.6972 4.1865C33.2495 4.1865 33.6972 4.63422 33.6972 5.1865V8.80165C33.6972 9.29819 33.3329 9.71953 32.8415 9.79118L28.6091 10.4084C28.0626 10.4881 27.555 10.1097 27.4753 9.56318C27.3956 9.01667 27.774 8.50904 28.3205 8.42934L30.5922 8.09805C27.7717 5.56989 24.0597 4 20 4C11.2024 4 4 11.2024 4 20C4 22.0937 4.47338 24.109 5.22804 25.9734Z" fill="url(#paint1_linear_535_794)"/>
<path d="M27.1726 20.3056C27.1726 19.9749 27.1492 19.6497 27.1048 19.3312L29.3482 17.5842L27.1179 13.7213L24.4831 14.7908C23.9727 14.3915 23.4053 14.0617 22.7953 13.8151L22.4043 11H17.9438L17.5528 13.8151C16.9429 14.0617 16.3755 14.3915 15.8651 14.7908L13.2303 13.7213L11 17.5842L13.2434 19.3312C13.199 19.6497 13.1755 19.9749 13.1755 20.3056C13.1755 20.6363 13.199 20.9615 13.2434 21.28L11 23.027L13.2303 26.8899L15.8651 25.8203C16.3755 26.2197 16.9429 26.5495 17.5528 26.796L17.9438 29.6112H22.4043L22.7953 26.796C23.4053 26.5495 23.9726 26.2197 24.4831 25.8203L27.1179 26.8899L29.3482 23.0269L27.1048 21.2799C27.1491 20.9614 27.1726 20.6363 27.1726 20.3056Z" stroke="url(#paint2_linear_535_794)" stroke-width="2" stroke-miterlimit="10"/>
<path d="M20.1744 22.7427C21.5203 22.7427 22.6114 21.6516 22.6114 20.3057C22.6114 18.9598 21.5203 17.8687 20.1744 17.8687C18.8284 17.8687 17.7373 18.9598 17.7373 20.3057C17.7373 21.6516 18.8284 22.7427 20.1744 22.7427Z" stroke="url(#paint3_linear_535_794)" stroke-width="2" stroke-miterlimit="10"/>
<defs>
<linearGradient id="paint0_linear_535_794" x1="37.9994" y1="25.3257" x2="6.30248" y2="25.3257" gradientUnits="userSpaceOnUse">
<stop stop-color="#9D73FE"/>
<stop offset="1" stop-color="#6826FF"/>
</linearGradient>
<linearGradient id="paint1_linear_535_794" x1="33.6968" y1="14.6746" x2="1.99975" y2="14.6746" gradientUnits="userSpaceOnUse">
<stop stop-color="#9D73FE"/>
<stop offset="1" stop-color="#6826FF"/>
</linearGradient>
<linearGradient id="paint2_linear_535_794" x1="29.3479" y1="20.3057" x2="10.9999" y2="20.3057" gradientUnits="userSpaceOnUse">
<stop stop-color="#9D73FE"/>
<stop offset="1" stop-color="#6826FF"/>
</linearGradient>
<linearGradient id="paint3_linear_535_794" x1="22.6113" y1="20.3057" x2="17.7373" y2="20.3057" gradientUnits="userSpaceOnUse">
<stop stop-color="#9D73FE"/>
<stop offset="1" stop-color="#6826FF"/>
</linearGradient>
</defs>
</svg>
