<svg width="552" height="312" viewBox="0 0 552 312" fill="none" xmlns="http://www.w3.org/2000/svg">
<rect x="5.36124" y="5.36124" width="541.131" height="301.993" rx="14.0882" fill="white" fill-opacity="0.5" stroke="url(#paint0_linear_1226_19667)" stroke-width="0.722471"/>
<rect x="43.3516" y="34.1802" width="14.4494" height="14.4494" rx="7.22471" fill="#BCBEFF"/>
<rect x="63.5801" y="34.5415" width="40.4584" height="13.727" rx="6.86348" fill="#E9E9FD"/>
<rect x="43.3516" y="58.7441" width="62.855" height="22.3966" rx="11.1983" fill="#E9E9FD"/>
<rect x="113.432" y="61.9951" width="15.8944" height="15.8944" rx="7.94718" fill="#E9E9FD"/>
<rect x="158.09" y="34.1802" width="14.4494" height="14.4494" rx="7.22471" fill="#BCBEFF"/>
<rect x="178.318" y="34.5415" width="40.4584" height="13.727" rx="6.86348" fill="#E9E9FD"/>
<rect x="158.09" y="58.7441" width="62.855" height="22.3966" rx="11.1983" fill="#E9E9FD"/>
<rect x="228.17" y="61.9951" width="15.8944" height="15.8944" rx="7.94718" fill="#E9E9FD"/>
<rect x="272.826" y="34.1802" width="14.4494" height="14.4494" rx="7.22471" fill="#BCBEFF"/>
<rect x="293.055" y="34.5415" width="40.4584" height="13.727" rx="6.86348" fill="#E9E9FD"/>
<rect x="272.826" y="58.7441" width="62.855" height="22.3966" rx="11.1983" fill="#E9E9FD"/>
<rect x="342.906" y="61.9951" width="15.8944" height="15.8944" rx="7.94718" fill="#E9E9FD"/>
<rect x="456.818" y="27.038" width="67.2253" height="24.564" rx="12.282" fill="#E9E9FD"/>
<rect x="456.818" y="27.038" width="67.2253" height="24.564" rx="12.282" stroke="#EFF0F1" stroke-width="0.722471"/>
<rect x="333.891" y="269.591" width="25.0114" height="12.5057" rx="6.25286" fill="#C0BFF6"/>
<rect x="444.574" y="269.591" width="25.0114" height="12.5057" rx="6.25286" fill="#C0BFF6"/>
<rect x="390.676" y="269.591" width="25.0114" height="12.5057" rx="6.25286" fill="#C0BFF6"/>
<rect x="503.527" y="269.591" width="25.0114" height="12.5057" rx="6.25286" fill="#C0BFF6"/>
<rect x="44.9023" y="269.591" width="25.0114" height="12.5057" rx="6.25286" fill="#C0BFF6" fill-opacity="0.8"/>
<rect x="23.7578" y="242.859" width="6.25286" height="16.6743" rx="3.12643" fill="#C0BFF6" fill-opacity="0.8"/>
<rect x="23.7578" y="206.736" width="6.25286" height="16.6743" rx="3.12643" fill="#C0BFF6" fill-opacity="0.8"/>
<rect x="23.7578" y="170.612" width="6.25286" height="16.6743" rx="3.12643" fill="#C0BFF6" fill-opacity="0.8"/>
<rect x="23.7578" y="134.489" width="6.25286" height="16.6743" rx="3.12643" fill="#C0BFF6" fill-opacity="0.8"/>
<rect x="23.7578" y="98.3652" width="6.25286" height="16.6743" rx="3.12643" fill="#C0BFF6" fill-opacity="0.8"/>
<rect x="101.688" y="269.591" width="25.0114" height="12.5057" rx="6.25286" fill="#C0BFF6" fill-opacity="0.8"/>
<rect x="159.197" y="269.591" width="25.0114" height="12.5057" rx="6.25286" fill="#C0BFF6" fill-opacity="0.8"/>
<rect x="217.43" y="269.591" width="25.0114" height="12.5057" rx="6.25286" fill="#C0BFF6" fill-opacity="0.8"/>
<rect x="274.215" y="269.591" width="25.0114" height="12.5057" rx="6.25286" fill="#C0BFF6"/>
<line x1="49.0703" y1="252.627" x2="525.179" y2="252.627" stroke="#EFF0F1" stroke-width="0.361236" stroke-dasharray="5.06 5.06"/>
<line x1="49.0703" y1="217.226" x2="525.179" y2="217.226" stroke="#EFF0F1" stroke-width="0.361236" stroke-dasharray="5.06 5.06"/>
<line x1="49.0703" y1="181.102" x2="525.179" y2="181.102" stroke="#EFF0F1" stroke-width="0.361236" stroke-dasharray="5.06 5.06"/>
<line x1="49.0703" y1="144.979" x2="525.179" y2="144.979" stroke="#EFF0F1" stroke-width="0.361236" stroke-dasharray="5.06 5.06"/>
<line x1="49.0703" y1="108.856" x2="525.179" y2="108.856" stroke="#EFF0F1" stroke-width="0.361236" stroke-dasharray="5.06 5.06"/>
<path d="M131.258 233.799C105.595 218.628 71.5351 222.328 49.0703 247.028V251.724H525.179V108.314C494.113 100.366 473.522 105.424 437.561 158.723C412.641 195.66 398.459 195.289 377.459 185.953L377.278 185.872C356.356 176.57 338.287 168.537 316.995 218.628C308.455 238.72 280.789 242.332 257.051 218.628C233.314 194.924 208.136 218.628 191.831 231.134C176.211 243.114 157.043 249.042 131.258 233.799Z" fill="url(#paint1_linear_1226_19667)"/>
<path d="M49.0703 247.028C71.5351 222.328 105.595 218.628 131.258 233.799C157.043 249.042 176.211 243.114 191.831 231.134C208.136 218.628 233.314 194.924 257.051 218.628C280.789 242.332 308.455 238.72 316.995 218.628C338.348 168.393 356.46 176.617 377.459 185.953C398.459 195.288 415.755 197.58 437.562 158.723C458.35 121.679 494.474 95.3091 525.179 108.314" stroke="#6826FF" stroke-width="1.44494" stroke-linecap="round"/>
<path d="M48.3477 206.495C56.978 198.672 87.5438 171.433 132.429 208.142C176.256 243.985 200.046 187.34 205.013 176.845C210.043 166.216 229.806 128.84 257.115 171.433C284.424 214.025 303.827 193.788 316.763 161.785C327.111 136.182 358.085 136.899 376.051 150.96C394.017 165.021 413.062 190.081 465.523 150.96C501.081 124.444 524.456 139.068 524.456 139.068" stroke="#1D72FA" stroke-width="1.44494" stroke-linecap="round"/>
<path d="M132.429 208.142C87.5438 171.433 56.978 198.672 48.3477 206.495V251.773H524.456V139.068C524.456 139.068 501.081 124.444 465.523 150.96C413.062 190.081 394.017 165.021 376.051 150.96C358.085 136.899 327.111 136.182 316.763 161.785C303.827 193.788 284.424 214.025 257.115 171.433C229.806 128.84 210.044 166.216 205.013 176.845C200.046 187.34 176.256 243.985 132.429 208.142Z" fill="url(#paint2_linear_1226_19667)"/>
<path d="M231.133 149.895L231.133 251.363" stroke="url(#paint3_linear_1226_19667)" stroke-width="1.44494" stroke-linecap="round"/>
<g filter="url(#filter0_d_1226_19667)">
<circle cx="231.134" cy="149.494" r="4.33483" fill="#1D72FA"/>
<circle cx="231.134" cy="149.494" r="3.79297" stroke="white" stroke-width="1.08371"/>
</g>
<g filter="url(#filter1_d_1226_19667)">
<rect x="195.504" y="105.462" width="72.6689" height="37.7934" rx="14.4494" fill="white" shape-rendering="crispEdges"/>
<rect x="209.953" y="112.687" width="43.77" height="9.58772" rx="4.79386" fill="#BCC2E6"/>
<rect x="209.953" y="130.612" width="25.0114" height="5.41915" rx="2.70957" fill="#E9E9FD"/>
</g>
<defs>
<filter id="filter0_d_1226_19667" x="220.297" y="139.38" width="21.6744" height="21.6742" filterUnits="userSpaceOnUse" color-interpolation-filters="sRGB">
<feFlood flood-opacity="0" result="BackgroundImageFix"/>
<feColorMatrix in="SourceAlpha" type="matrix" values="0 0 0 0 0 0 0 0 0 0 0 0 0 0 0 0 0 0 127 0" result="hardAlpha"/>
<feOffset dy="0.722471"/>
<feGaussianBlur stdDeviation="3.25112"/>
<feComposite in2="hardAlpha" operator="out"/>
<feColorMatrix type="matrix" values="0 0 0 0 0 0 0 0 0 0 0 0 0 0 0 0 0 0 0.2 0"/>
<feBlend mode="normal" in2="BackgroundImageFix" result="effect1_dropShadow_1226_19667"/>
<feBlend mode="normal" in="SourceGraphic" in2="effect1_dropShadow_1226_19667" result="shape"/>
</filter>
<filter id="filter1_d_1226_19667" x="184.667" y="97.5152" width="94.3421" height="59.4676" filterUnits="userSpaceOnUse" color-interpolation-filters="sRGB">
<feFlood flood-opacity="0" result="BackgroundImageFix"/>
<feColorMatrix in="SourceAlpha" type="matrix" values="0 0 0 0 0 0 0 0 0 0 0 0 0 0 0 0 0 0 127 0" result="hardAlpha"/>
<feOffset dy="2.88989"/>
<feGaussianBlur stdDeviation="5.41853"/>
<feComposite in2="hardAlpha" operator="out"/>
<feColorMatrix type="matrix" values="0 0 0 0 0 0 0 0 0 0 0 0 0 0 0 0 0 0 0.08 0"/>
<feBlend mode="normal" in2="BackgroundImageFix" result="effect1_dropShadow_1226_19667"/>
<feBlend mode="normal" in="SourceGraphic" in2="effect1_dropShadow_1226_19667" result="shape"/>
</filter>
<linearGradient id="paint0_linear_1226_19667" x1="546.846" y1="156.359" x2="4.99574" y2="156.359" gradientUnits="userSpaceOnUse">
<stop stop-color="#9D73FE"/>
<stop offset="1" stop-color="#6826FF"/>
</linearGradient>
<linearGradient id="paint1_linear_1226_19667" x1="215.239" y1="-90.0046" x2="287.486" y2="268.702" gradientUnits="userSpaceOnUse">
<stop stop-color="#BCBEFF"/>
<stop offset="0.997315" stop-color="#6C51C8" stop-opacity="0"/>
</linearGradient>
<linearGradient id="paint2_linear_1226_19667" x1="240.525" y1="-148.164" x2="291.098" y2="226.799" gradientUnits="userSpaceOnUse">
<stop stop-color="#1D72FA" stop-opacity="0.46"/>
<stop offset="1" stop-color="#1D72FA" stop-opacity="0"/>
</linearGradient>
<linearGradient id="paint3_linear_1226_19667" x1="231.133" y1="149.895" x2="230.904" y2="252.04" gradientUnits="userSpaceOnUse">
<stop stop-color="#1D72FA"/>
<stop offset="1" stop-color="#1D72FA" stop-opacity="0"/>
</linearGradient>
</defs>
</svg>
