<svg width="530" height="449" viewBox="0 0 530 449" fill="none" xmlns="http://www.w3.org/2000/svg">
<rect width="423" height="377" transform="translate(9 4)" fill="white"/>
<rect x="0.522957" y="0.522957" width="430.954" height="379.954" rx="20.3953" stroke="url(#paint0_linear_1226_19297)" stroke-width="1.04591"/>
<rect x="25.2773" y="34.7239" width="180.246" height="20.4825" rx="10.2413" fill="#BCBEFF"/>
<rect x="342.971" y="35.7272" width="58.6577" height="18.4759" rx="9.23794" fill="#BCBEFF"/>
<rect x="342.971" y="35.7272" width="58.6577" height="18.4759" rx="9.23794" stroke="#EFF0F1" stroke-width="1.02413"/>
<rect x="70.4551" y="136.364" width="23.6364" height="184.955" rx="11.8182" fill="#BDA0FF"/>
<rect x="130.137" y="244.5" width="23.6364" height="76.8095" rx="11.8182" fill="#E1EDFF"/>
<rect x="189.818" y="168.864" width="23.6364" height="152.595" rx="11.8182" fill="#04477E"/>
<rect x="249.5" y="102.091" width="23.6364" height="219.163" rx="11.8182" fill="#6826FF"/>
<rect x="309.184" y="192.5" width="23.6364" height="129.04" rx="11.8182" fill="#42E8E0"/>
<rect x="368.863" y="153.5" width="23.6364" height="167.957" rx="11.8182" fill="#E1EDFF"/>
<line x1="64.4297" y1="331.464" x2="406.201" y2="331.464" stroke="#5312EC" stroke-width="0.512063"/>
<g filter="url(#filter0_dd_1226_19297)">
<rect x="262.297" y="112.558" width="54.0481" height="20.4825" rx="10.2413" fill="white" shape-rendering="crispEdges"/>
<circle cx="274.586" cy="122.799" r="3.07238" fill="#04477E"/>
<rect x="281.756" y="119.844" width="23.6364" height="5.90909" rx="2.95455" fill="#D9D9D9"/>
</g>
<g filter="url(#filter1_dd_1226_19297)">
<rect x="85.5918" y="146.354" width="54.0481" height="20.4825" rx="10.2413" fill="white" shape-rendering="crispEdges"/>
<circle cx="97.881" cy="156.595" r="3.07238" fill="#6826FF"/>
<rect x="105.051" y="153.64" width="23.6364" height="5.90909" rx="2.95455" fill="#D9D9D9"/>
</g>
<rect x="17.5488" y="138.727" width="26" height="14.7727" rx="7.38636" fill="#C4C7DE"/>
<rect x="17.5488" y="102.091" width="26" height="14.7727" rx="7.38636" fill="#C4C7DE"/>
<rect x="17.5488" y="180.682" width="26" height="14.7727" rx="7.38636" fill="#C4C7DE"/>
<rect x="17.5488" y="222.636" width="26" height="14.7727" rx="7.38636" fill="#C4C7DE"/>
<rect x="17.5488" y="264.591" width="26" height="14.7727" rx="7.38636" fill="#C4C7DE"/>
<rect x="17.5488" y="306.545" width="26" height="14.7727" rx="7.38636" fill="#C4C7DE"/>
<rect x="64.5469" y="348.5" width="35.4102" height="14.7727" rx="7.38636" fill="#C4C7DE"/>
<rect x="124.229" y="348.5" width="35.4102" height="14.7727" rx="7.38636" fill="#C4C7DE"/>
<rect x="183.91" y="348.5" width="35.4102" height="14.7727" rx="7.38636" fill="#C4C7DE"/>
<rect x="243.592" y="348.5" width="35.4102" height="14.7727" rx="7.38636" fill="#C4C7DE"/>
<rect x="303.273" y="348.5" width="35.4102" height="14.7727" rx="7.38636" fill="#C4C7DE"/>
<rect x="362.955" y="348.5" width="35.4102" height="14.7727" rx="7.38636" fill="#C4C7DE"/>
<rect x="219.5" y="237.5" width="310" height="211" rx="19.5" fill="white"/>
<line x1="257" y1="254" x2="257" y2="420" stroke="#BCC2E6" stroke-opacity="0.46" stroke-width="2"/>
<line x1="258" y1="419" x2="488" y2="419" stroke="#BCC2E6" stroke-opacity="0.46" stroke-width="2"/>
<rect x="239" y="254" width="8" height="6" rx="3" fill="#D9D9D9"/>
<rect x="239" y="277" width="8" height="6" rx="3" fill="#D9D9D9"/>
<rect x="239" y="300" width="8" height="6" rx="3" fill="#D9D9D9"/>
<rect x="239" y="323" width="8" height="6" rx="3" fill="#D9D9D9"/>
<rect x="239" y="346" width="8" height="6" rx="3" fill="#D9D9D9"/>
<rect x="239" y="369" width="8" height="6" rx="3" fill="#D9D9D9"/>
<rect x="239" y="392" width="8" height="6" rx="3" fill="#D9D9D9"/>
<rect x="239" y="415" width="8" height="6" rx="3" fill="#D9D9D9"/>
<line x1="298" y1="416" x2="298" y2="254" stroke="#D9D9D9" stroke-dasharray="4 2"/>
<rect x="287" y="427" width="23" height="6" rx="3" fill="#D9D9D9"/>
<line x1="357" y1="416" x2="357" y2="254" stroke="#D9D9D9" stroke-dasharray="4 2"/>
<rect x="346" y="427" width="23" height="6" rx="3" fill="#D9D9D9"/>
<line x1="416" y1="416" x2="416" y2="254" stroke="#D9D9D9" stroke-dasharray="4 2"/>
<rect x="405" y="427" width="23" height="6" rx="3" fill="#D9D9D9"/>
<line x1="475" y1="416" x2="475" y2="254" stroke="#D9D9D9" stroke-dasharray="4 2"/>
<rect x="464" y="427" width="23" height="6" rx="3" fill="#D9D9D9"/>
<circle cx="259" cy="280" r="8" fill="white" stroke="#9D73FE" stroke-width="2"/>
<circle cx="299" cy="308" r="8" fill="white" stroke="#9D73FE" stroke-width="2"/>
<circle cx="357" cy="294" r="8" fill="white" stroke="#9D73FE" stroke-width="2"/>
<circle cx="416" cy="320" r="8" fill="white" stroke="#9D73FE" stroke-width="2"/>
<circle cx="476" cy="303" r="8" fill="white" stroke="#9D73FE" stroke-width="2"/>
<line x1="265.61" y1="285.207" x2="291.61" y2="305.207" stroke="#9D73FE" stroke-width="2"/>
<line x1="306.708" y1="310.182" x2="349.708" y2="297.044" stroke="#9D73FE" stroke-width="2"/>
<line x1="364.414" y1="298.09" x2="408.414" y2="318.09" stroke="#9D73FE" stroke-width="2"/>
<line x1="423.722" y1="320.039" x2="468.722" y2="307.039" stroke="#9D73FE" stroke-width="2"/>
<circle cx="259" cy="394" r="8" fill="white" stroke="#42E8E0" stroke-width="2"/>
<circle cx="299" cy="353" r="8" fill="white" stroke="#42E8E0" stroke-width="2"/>
<circle cx="357" cy="374" r="8" fill="white" stroke="#42E8E0" stroke-width="2"/>
<circle cx="416" cy="358" r="8" fill="white" stroke="#42E8E0" stroke-width="2"/>
<circle cx="476" cy="382" r="8" fill="white" stroke="#42E8E0" stroke-width="2"/>
<line x1="264.257" y1="387.331" x2="291.257" y2="357.331" stroke="#42E8E0" stroke-width="2"/>
<line x1="306.404" y1="355.085" x2="349.404" y2="374.085" stroke="#42E8E0" stroke-width="2"/>
<line x1="364.717" y1="373.041" x2="408.717" y2="360.041" stroke="#42E8E0" stroke-width="2"/>
<line x1="423.371" y1="362.072" x2="468.371" y2="380.072" stroke="#42E8E0" stroke-width="2"/>
<rect x="219.5" y="237.5" width="310" height="211" rx="19.5" stroke="#5312EC"/>
<defs>
<filter id="filter0_dd_1226_19297" x="236.694" y="91.051" width="102.183" height="66.5681" filterUnits="userSpaceOnUse" color-interpolation-filters="sRGB">
<feFlood flood-opacity="0" result="BackgroundImageFix"/>
<feColorMatrix in="SourceAlpha" type="matrix" values="0 0 0 0 0 0 0 0 0 0 0 0 0 0 0 0 0 0 127 0" result="hardAlpha"/>
<feOffset dx="-5.12063" dy="4.09651"/>
<feGaussianBlur stdDeviation="10.2413"/>
<feComposite in2="hardAlpha" operator="out"/>
<feColorMatrix type="matrix" values="0 0 0 0 0 0 0 0 0 0 0 0 0 0 0 0 0 0 0.1 0"/>
<feBlend mode="normal" in2="BackgroundImageFix" result="effect1_dropShadow_1226_19297"/>
<feColorMatrix in="SourceAlpha" type="matrix" values="0 0 0 0 0 0 0 0 0 0 0 0 0 0 0 0 0 0 127 0" result="hardAlpha"/>
<feOffset dx="2.04825" dy="-1.02413"/>
<feGaussianBlur stdDeviation="10.2413"/>
<feComposite in2="hardAlpha" operator="out"/>
<feColorMatrix type="matrix" values="0 0 0 0 0 0 0 0 0 0 0 0 0 0 0 0 0 0 0.05 0"/>
<feBlend mode="normal" in2="effect1_dropShadow_1226_19297" result="effect2_dropShadow_1226_19297"/>
<feBlend mode="normal" in="SourceGraphic" in2="effect2_dropShadow_1226_19297" result="shape"/>
</filter>
<filter id="filter1_dd_1226_19297" x="59.9886" y="124.847" width="102.183" height="66.5681" filterUnits="userSpaceOnUse" color-interpolation-filters="sRGB">
<feFlood flood-opacity="0" result="BackgroundImageFix"/>
<feColorMatrix in="SourceAlpha" type="matrix" values="0 0 0 0 0 0 0 0 0 0 0 0 0 0 0 0 0 0 127 0" result="hardAlpha"/>
<feOffset dx="-5.12063" dy="4.09651"/>
<feGaussianBlur stdDeviation="10.2413"/>
<feComposite in2="hardAlpha" operator="out"/>
<feColorMatrix type="matrix" values="0 0 0 0 0 0 0 0 0 0 0 0 0 0 0 0 0 0 0.1 0"/>
<feBlend mode="normal" in2="BackgroundImageFix" result="effect1_dropShadow_1226_19297"/>
<feColorMatrix in="SourceAlpha" type="matrix" values="0 0 0 0 0 0 0 0 0 0 0 0 0 0 0 0 0 0 127 0" result="hardAlpha"/>
<feOffset dx="2.04825" dy="-1.02413"/>
<feGaussianBlur stdDeviation="10.2413"/>
<feComposite in2="hardAlpha" operator="out"/>
<feColorMatrix type="matrix" values="0 0 0 0 0 0 0 0 0 0 0 0 0 0 0 0 0 0 0.05 0"/>
<feBlend mode="normal" in2="effect1_dropShadow_1226_19297" result="effect2_dropShadow_1226_19297"/>
<feBlend mode="normal" in="SourceGraphic" in2="effect2_dropShadow_1226_19297" result="shape"/>
</filter>
<linearGradient id="paint0_linear_1226_19297" x1="431.994" y1="190.502" x2="-0.00339887" y2="190.502" gradientUnits="userSpaceOnUse">
<stop stop-color="#9D73FE"/>
<stop offset="1" stop-color="#6826FF"/>
</linearGradient>
</defs>
</svg>
