<svg width="139" height="54" viewBox="0 0 139 54" fill="none" xmlns="http://www.w3.org/2000/svg">
<g clip-path="url(#clip0_396_385)">
<path d="M138.34 14.4636V28.8085C138.34 30.1776 137.838 31.1567 136.834 31.7498C135.829 32.3429 134.613 32.6405 133.185 32.6405H127.556C124.311 32.6405 122.688 31.4 122.688 28.917V22.3809C122.688 21.2671 123.121 20.3805 123.987 19.721C124.852 19.0616 126.03 18.7319 127.52 18.7319H135.146V14.4636H138.34ZM135.146 28.4828V21.6732C135.146 21.2972 134.884 21.1103 134.363 21.1103H128.481C126.75 21.1103 125.883 21.7577 125.883 23.0524V28.3179C125.883 28.9955 126.046 29.4679 126.374 29.7353C126.822 30.0872 127.524 30.2621 128.481 30.2621H132.349C134.213 30.2621 135.146 29.669 135.146 28.4828Z" fill="#6826FF"/>
<path d="M85.9729 35.5838C85.4602 37.2807 84.3222 38.7523 82.7581 39.6551L64.4565 50.2162L63.6744 49.7639L46.1569 39.653C44.5928 38.7503 43.4548 37.2786 42.9421 35.5818H39.5625C40.1435 38.4568 41.9369 40.9981 44.5184 42.4879L64.3861 53.9578L64.4585 54L84.3986 42.4899C86.9801 41.0001 88.7735 38.4588 89.3545 35.5838H85.9729Z" fill="#171718"/>
<path d="M18.2935 28.533C18.2935 29.8278 17.8231 30.8572 16.8781 31.6211C15.9352 32.3851 14.5882 32.7671 12.837 32.7671H0V14.2524H12.7627C16.4499 14.2524 18.2935 15.6337 18.2935 18.3961V28.533ZM14.6666 27.6444V19.1359C14.6666 17.6562 13.6553 16.9164 11.6327 16.9164H3.68122V30.0851H11.6348C13.6573 30.0851 14.6666 29.2709 14.6666 27.6444Z" fill="#6826FF"/>
<path d="M86.0536 3.39774C79.1375 1.16609 71.95 0.028147 64.6881 0.0060315C64.6137 0 64.5393 0 64.4589 0C57.1286 0 49.8667 1.14397 42.8802 3.39171C40.7752 4.06925 39.3618 6.0134 39.3618 8.22696V13.7096C39.3618 14.0192 39.1105 14.2705 38.8009 14.2705H26.2493C24.6108 14.2705 23.3582 14.5399 22.4957 15.0868C21.2593 15.8508 20.644 16.8802 20.644 18.1749V21.062C20.644 22.2341 21.213 23.1549 22.3449 23.8325C23.3803 24.4537 24.7073 24.7573 26.3237 24.7573H30.2281C32.2748 24.7573 33.2981 25.3906 33.2981 26.6431C33.2981 27.9882 33.2117 28.8225 33.0388 29.1442C32.6528 29.7594 31.6817 30.069 30.1115 30.069H20.6822V32.7651H31.2032C32.9805 32.7651 34.3778 32.4253 35.4051 31.7478C36.4224 31.0703 36.9351 30.0972 36.9351 28.8265V25.9937C36.9351 24.7955 36.344 23.6596 35.3287 23.0222C34.3416 22.403 33.0508 22.0934 31.4444 22.0934H27.5401C26.4544 22.0934 25.6723 21.9506 25.1938 21.6672C24.6128 21.3113 24.3192 20.8107 24.3192 20.1673C24.3192 18.949 24.4338 18.1669 24.653 17.8211C25.039 17.2521 25.998 16.9706 27.5401 16.9706H39.3598H39.9348C41.4266 16.9706 42.6369 15.7603 42.6369 14.2685V8.22696C42.6369 7.43885 43.1375 6.74925 43.8854 6.51402C50.6186 4.3467 57.6091 3.26505 64.676 3.27711C71.5981 3.29923 78.4519 4.39294 85.0464 6.52005C85.7822 6.75528 86.2768 7.44086 86.2768 8.22696V25.8148H89.5278L89.5539 8.22696C89.5559 6.0134 88.1466 4.07729 86.0536 3.39774Z" fill="#6826FF"/>
<path d="M55.1802 24.3511L42.7131 28.0324V28.4948C42.7131 29.2226 42.9905 29.7534 43.5454 30.0851C43.9274 30.2821 44.5868 30.3806 45.5237 30.3806H55.142V32.7671H44.9146C43.1513 32.7671 41.8506 32.5017 41.0122 31.9709C39.9506 31.3416 39.4219 30.3424 39.4219 28.9753V22.3909C39.4219 20.0366 41.1549 18.8585 44.619 18.8585H50.3349C53.5657 18.8585 55.1802 20.109 55.1802 22.6121V24.3511ZM51.8508 23.0021V22.799C51.8508 21.7395 50.9883 21.2087 49.2613 21.2087H45.6725C43.6761 21.2087 42.6769 21.8079 42.6769 23.0041V25.7223L51.8508 23.0021Z" fill="#6826FF"/>
<path d="M70.9304 32.7671H63.5499C60.0094 32.7671 58.2422 31.5407 58.2422 29.0859V22.3528C58.2422 19.9985 59.734 18.8203 62.7176 18.8203H70.8561V21.2068H64.0686C63.1197 21.2068 62.4522 21.3334 62.0702 21.5868C61.6882 21.8401 61.4972 22.3105 61.4972 23.0022V28.533C61.4972 29.7655 62.41 30.3827 64.2355 30.3827H70.9304V32.7671Z" fill="#6826FF"/>
<path d="M76.9878 18.8585V27.4956C76.9878 28.2113 77.2291 28.7964 77.7096 29.2527C78.0916 29.5985 78.8254 29.7715 79.9111 29.7715H83.3893C85.3133 29.7715 86.2743 29.0376 86.2743 27.57L86.2804 18.8585H89.5314V28.3661C89.5314 31.3014 87.8285 32.7691 84.4267 32.7691H78.8395C75.4357 32.7691 73.7349 31.3014 73.7349 28.3661V18.8585H76.9878Z" fill="#6826FF"/>
<path d="M101.707 21.06C99.1922 21.06 97.7305 21.1102 97.3244 21.2067C96.4619 21.4661 96.0296 22.0894 96.0296 23.0745V32.6927H92.6641V22.4271C92.6641 19.924 94.4212 18.6715 97.9356 18.6715H101.709V21.06H101.707Z" fill="#6826FF"/>
<path d="M120.085 24.3511L107.618 28.0324V28.4948C107.618 29.2226 107.895 29.7534 108.45 30.0851C108.832 30.2821 109.492 30.3806 110.429 30.3806H120.047V32.7671H109.817C108.054 32.7671 106.753 32.5017 105.915 31.9709C104.853 31.3416 104.325 30.3424 104.325 28.9753V22.3909C104.325 20.0366 106.058 18.8585 109.522 18.8585H115.238C118.469 18.8585 120.083 20.109 120.083 22.6121V24.3511H120.085ZM116.756 23.0021V22.799C116.756 21.7395 115.893 21.2087 114.166 21.2087H110.577C108.581 21.2087 107.582 21.8079 107.582 23.0041V25.7223L116.756 23.0021Z" fill="#6826FF"/>
</g>
<defs>
<clipPath id="clip0_396_385">
<rect width="138.34" height="54" fill="white"/>
</clipPath>
</defs>
</svg>
