<svg width="537" height="351" viewBox="0 0 537 351" fill="none" xmlns="http://www.w3.org/2000/svg">
<rect x="0.755989" y="0.755989" width="535.074" height="348.798" rx="44.6033" fill="white" fill-opacity="0.5"/>
<g opacity="0.3">
<path d="M398.018 272.036V264.038L400.234 262.807C400.86 266.591 405.309 269.073 409.026 269.59L434.348 284.39L445.41 288.371L480.685 270.179L479.863 269.715C482.883 268.305 484.509 265.092 486.135 262.146L488.512 263.556L489.924 263.949V272.161C489.924 273.732 488.887 275.303 486.814 276.481L451.468 296.868C447.322 299.26 440.603 299.26 436.457 296.868L401.11 276.481C399.073 275.303 398.036 273.768 398 272.232C398.018 272.161 398.018 272.09 398.018 272.036Z" fill="url(#paint0_linear_1365_3118)"/>
<path opacity="0.3" d="M409.025 269.572L434.347 284.372L443.961 287.835V298.653C441.245 298.653 438.528 298.064 436.456 296.868L401.109 276.481C399.071 275.303 398.035 273.768 397.999 272.232C397.999 272.161 397.999 272.09 397.999 272.018V264.02L400.019 262.896H400.233C400.948 266.627 405.344 269.073 409.025 269.572Z" fill="#0F054C"/>
<path d="M451.485 288.745L486.832 268.358C490.978 265.966 490.978 262.092 486.832 259.7L451.485 239.313C447.339 236.921 440.62 236.921 436.474 239.313L401.127 259.7C396.982 262.092 396.982 265.966 401.127 268.358L436.474 288.745C440.602 291.138 447.339 291.138 451.485 288.745Z" fill="url(#paint1_linear_1365_3118)"/>
<g opacity="0.3">
<path d="M451.485 288.745L486.832 268.358C490.978 265.966 490.978 262.092 486.832 259.7L451.485 239.313C447.339 236.921 440.62 236.921 436.474 239.313L401.127 259.7C396.982 262.092 396.982 265.966 401.127 268.358L436.474 288.745C440.602 291.138 447.339 291.138 451.485 288.745Z" fill="#6826FF"/>
</g>
</g>
<path d="M443.978 259.093C446.391 259.093 448.803 258.558 450.644 257.504L485.991 237.117C487.831 236.064 488.832 234.636 488.832 233.101C488.832 231.565 487.813 230.137 485.991 229.084L450.644 208.697C446.963 206.573 440.994 206.573 437.313 208.697L401.966 229.084C400.125 230.137 399.125 231.565 399.125 233.101C399.125 234.636 400.143 236.064 401.966 237.117L437.313 257.504C439.153 258.558 441.566 259.093 443.978 259.093ZM450.322 256.951C446.82 258.968 441.119 258.968 437.617 256.951L402.27 236.564C400.643 235.618 399.732 234.386 399.732 233.083C399.732 231.78 400.626 230.548 402.27 229.602L437.617 209.215C441.119 207.197 446.82 207.197 450.322 209.215L485.669 229.602C487.295 230.548 488.207 231.78 488.207 233.083C488.207 234.386 487.313 235.618 485.669 236.564L450.322 256.951Z" fill="url(#paint2_linear_1365_3118)"/>
<path opacity="0.4" d="M398.016 225.264V213.178L400.232 211.946C400.858 215.731 405.307 218.212 409.024 218.73L434.346 233.529L445.408 237.51L480.683 219.319L479.861 218.855C482.881 217.445 484.507 214.231 486.133 211.286L488.51 212.696L489.922 213.089V225.389C489.922 226.96 488.885 228.531 486.812 229.709L451.466 250.096C447.32 252.488 440.601 252.488 436.455 250.096L401.108 229.709C399.071 228.531 398.034 226.995 397.998 225.46C398.016 225.389 398.016 225.335 398.016 225.264Z" fill="#6826FF"/>
<path d="M398.016 214.517V206.519L400.232 205.287C400.858 209.072 405.307 211.554 409.024 212.071L434.346 226.871L445.408 230.852L480.683 212.66L479.861 212.196C482.881 210.786 484.507 207.573 486.133 204.627L488.51 206.037L489.922 206.43V214.642C489.922 216.213 488.885 217.784 486.812 218.962L451.466 239.349C447.32 241.741 440.601 241.741 436.455 239.349L401.108 218.962C399.071 217.784 398.034 216.249 397.998 214.713C398.016 214.642 398.016 214.588 398.016 214.517Z" fill="url(#paint3_linear_1365_3118)"/>
<path d="M451.485 231.226L486.832 210.839C490.978 208.447 490.978 204.573 486.832 202.181L451.485 181.794C447.339 179.402 440.62 179.402 436.474 181.794L401.127 202.181C396.982 204.573 396.982 208.447 401.127 210.839L436.474 231.226C440.602 233.618 447.339 233.618 451.485 231.226Z" fill="url(#paint4_linear_1365_3118)"/>
<path opacity="0.49" d="M443.979 227.531C446.159 227.531 448.339 227.049 450.001 226.103L477.61 210.179C479.272 209.215 480.184 207.929 480.184 206.537C480.184 205.145 479.272 203.841 477.61 202.877L450.001 186.953C446.677 185.043 441.281 185.043 437.957 186.953L410.348 202.877C408.686 203.841 407.774 205.127 407.774 206.519C407.774 207.912 408.686 209.215 410.348 210.179L437.957 226.103C439.619 227.049 441.799 227.531 443.979 227.531ZM443.979 186.114C446.052 186.114 448.107 186.561 449.679 187.471L477.289 203.395C478.754 204.234 479.558 205.341 479.558 206.519C479.558 207.68 478.754 208.786 477.289 209.625L449.679 225.549C446.534 227.37 441.406 227.37 438.261 225.549L410.651 209.625C409.186 208.786 408.382 207.68 408.382 206.501C408.382 205.341 409.186 204.234 410.651 203.395L438.261 187.471C439.833 186.561 441.906 186.114 443.979 186.114Z" fill="#6826FF"/>
<path d="M401.127 210.839L436.474 231.226C440.619 233.619 447.339 233.619 451.484 231.226L486.831 210.839C488.69 209.768 489.708 208.412 489.905 207.001C490.155 208.733 489.119 210.5 486.831 211.821L451.484 232.208C447.339 234.6 440.619 234.6 436.474 232.208L401.127 211.821C398.839 210.5 397.821 208.715 398.053 207.001C398.25 208.412 399.268 209.768 401.127 210.839Z" fill="white" fill-opacity="0.32"/>
<g opacity="0.3">
<path d="M282.018 272.036V264.038L284.234 262.807C284.86 266.591 289.309 269.073 293.026 269.59L318.348 284.39L329.41 288.371L364.685 270.179L363.863 269.715C366.883 268.305 368.509 265.092 370.135 262.146L372.512 263.556L373.924 263.949V272.161C373.924 273.732 372.887 275.303 370.814 276.481L335.468 296.868C331.322 299.26 324.603 299.26 320.457 296.868L285.11 276.481C283.073 275.303 282.036 273.768 282 272.232C282.018 272.161 282.018 272.09 282.018 272.036Z" fill="url(#paint5_linear_1365_3118)"/>
<path opacity="0.3" d="M293.025 269.572L318.347 284.372L327.961 287.835V298.653C325.245 298.653 322.528 298.064 320.456 296.868L285.109 276.481C283.071 275.303 282.035 273.768 281.999 272.232C281.999 272.161 281.999 272.09 281.999 272.018V264.02L284.019 262.896H284.233C284.948 266.627 289.344 269.073 293.025 269.572Z" fill="#0F054C"/>
<path d="M335.485 288.745L370.832 268.358C374.978 265.966 374.978 262.092 370.832 259.7L335.485 239.313C331.339 236.921 324.62 236.921 320.474 239.313L285.127 259.7C280.982 262.092 280.982 265.966 285.127 268.358L320.474 288.745C324.602 291.138 331.339 291.138 335.485 288.745Z" fill="url(#paint6_linear_1365_3118)"/>
<g opacity="0.3">
<path d="M335.485 288.745L370.832 268.358C374.978 265.966 374.978 262.092 370.832 259.7L335.485 239.313C331.339 236.921 324.62 236.921 320.474 239.313L285.127 259.7C280.982 262.092 280.982 265.966 285.127 268.358L320.474 288.745C324.602 291.138 331.339 291.138 335.485 288.745Z" fill="#6826FF"/>
</g>
</g>
<path d="M327.978 259.093C330.391 259.093 332.803 258.558 334.644 257.504L369.991 237.117C371.831 236.064 372.832 234.636 372.832 233.101C372.832 231.565 371.813 230.137 369.991 229.084L334.644 208.697C330.963 206.573 324.994 206.573 321.313 208.697L285.966 229.084C284.125 230.137 283.125 231.565 283.125 233.101C283.125 234.636 284.143 236.064 285.966 237.117L321.313 257.504C323.153 258.558 325.566 259.093 327.978 259.093ZM334.322 256.951C330.82 258.968 325.119 258.968 321.617 256.951L286.27 236.564C284.643 235.618 283.732 234.386 283.732 233.083C283.732 231.78 284.626 230.548 286.27 229.602L321.617 209.215C325.119 207.197 330.82 207.197 334.322 209.215L369.669 229.602C371.295 230.548 372.207 231.78 372.207 233.083C372.207 234.386 371.313 235.618 369.669 236.564L334.322 256.951Z" fill="url(#paint7_linear_1365_3118)"/>
<path opacity="0.4" d="M282.016 225.264V213.178L284.232 211.946C284.858 215.731 289.307 218.212 293.024 218.73L318.346 233.529L329.408 237.51L364.683 219.319L363.861 218.855C366.881 217.445 368.507 214.231 370.133 211.286L372.51 212.696L373.922 213.089V225.389C373.922 226.96 372.885 228.531 370.812 229.709L335.466 250.096C331.32 252.488 324.601 252.488 320.455 250.096L285.108 229.709C283.071 228.531 282.034 226.995 281.998 225.46C282.016 225.389 282.016 225.335 282.016 225.264Z" fill="#6826FF"/>
<path d="M282.016 214.517V206.519L284.232 205.287C284.858 209.072 289.307 211.554 293.024 212.071L318.346 226.871L329.408 230.852L364.683 212.66L363.861 212.196C366.881 210.786 368.507 207.573 370.133 204.627L372.51 206.037L373.922 206.43V214.642C373.922 216.213 372.885 217.784 370.812 218.962L335.466 239.349C331.32 241.741 324.601 241.741 320.455 239.349L285.108 218.962C283.071 217.784 282.034 216.249 281.998 214.713C282.016 214.642 282.016 214.588 282.016 214.517Z" fill="url(#paint8_linear_1365_3118)"/>
<path d="M335.485 231.226L370.832 210.839C374.978 208.447 374.978 204.573 370.832 202.181L335.485 181.794C331.339 179.402 324.62 179.402 320.474 181.794L285.127 202.181C280.982 204.573 280.982 208.447 285.127 210.839L320.474 231.226C324.602 233.618 331.339 233.618 335.485 231.226Z" fill="url(#paint9_linear_1365_3118)"/>
<path opacity="0.49" d="M327.979 227.531C330.159 227.531 332.339 227.049 334.001 226.103L361.61 210.179C363.272 209.215 364.184 207.929 364.184 206.537C364.184 205.145 363.272 203.841 361.61 202.877L334.001 186.953C330.677 185.043 325.281 185.043 321.957 186.953L294.348 202.877C292.686 203.841 291.774 205.127 291.774 206.519C291.774 207.912 292.686 209.215 294.348 210.179L321.957 226.103C323.619 227.049 325.799 227.531 327.979 227.531ZM327.979 186.114C330.052 186.114 332.107 186.561 333.679 187.471L361.289 203.395C362.754 204.234 363.558 205.341 363.558 206.519C363.558 207.68 362.754 208.786 361.289 209.625L333.679 225.549C330.534 227.37 325.406 227.37 322.261 225.549L294.651 209.625C293.186 208.786 292.382 207.68 292.382 206.501C292.382 205.341 293.186 204.234 294.651 203.395L322.261 187.471C323.833 186.561 325.906 186.114 327.979 186.114Z" fill="#6826FF"/>
<path d="M285.127 210.839L320.474 231.226C324.619 233.619 331.339 233.619 335.484 231.226L370.831 210.839C372.69 209.768 373.708 208.412 373.905 207.001C374.155 208.733 373.119 210.5 370.831 211.821L335.484 232.208C331.339 234.6 324.619 234.6 320.474 232.208L285.127 211.821C282.839 210.5 281.821 208.715 282.053 207.001C282.25 208.412 283.268 209.768 285.127 210.839Z" fill="white" fill-opacity="0.32"/>
<g opacity="0.3">
<path d="M154.018 272.036V264.038L156.234 262.807C156.86 266.591 161.309 269.073 165.026 269.59L190.348 284.39L201.41 288.371L236.685 270.179L235.863 269.715C238.883 268.305 240.509 265.092 242.135 262.146L244.512 263.556L245.924 263.949V272.161C245.924 273.732 244.887 275.303 242.814 276.481L207.468 296.868C203.322 299.26 196.603 299.26 192.457 296.868L157.11 276.481C155.073 275.303 154.036 273.768 154 272.232C154.018 272.161 154.018 272.09 154.018 272.036Z" fill="url(#paint10_linear_1365_3118)"/>
<path opacity="0.3" d="M165.025 269.572L190.347 284.372L199.961 287.835V298.653C197.245 298.653 194.528 298.064 192.456 296.868L157.109 276.481C155.071 275.303 154.035 273.768 153.999 272.232C153.999 272.161 153.999 272.09 153.999 272.018V264.02L156.019 262.896H156.233C156.948 266.627 161.344 269.073 165.025 269.572Z" fill="#0F054C"/>
<path d="M207.485 288.745L242.832 268.358C246.978 265.966 246.978 262.092 242.832 259.7L207.485 239.313C203.339 236.921 196.62 236.921 192.474 239.313L157.127 259.7C152.982 262.092 152.982 265.966 157.127 268.358L192.474 288.745C196.602 291.138 203.339 291.138 207.485 288.745Z" fill="url(#paint11_linear_1365_3118)"/>
<g opacity="0.3">
<path d="M207.485 288.745L242.832 268.358C246.978 265.966 246.978 262.092 242.832 259.7L207.485 239.313C203.339 236.921 196.62 236.921 192.474 239.313L157.127 259.7C152.982 262.092 152.982 265.966 157.127 268.358L192.474 288.745C196.602 291.138 203.339 291.138 207.485 288.745Z" fill="#6826FF"/>
</g>
</g>
<path d="M199.978 259.093C202.391 259.093 204.803 258.558 206.644 257.504L241.991 237.117C243.831 236.064 244.832 234.636 244.832 233.101C244.832 231.565 243.813 230.137 241.991 229.084L206.644 208.697C202.963 206.573 196.994 206.573 193.313 208.697L157.966 229.084C156.125 230.137 155.125 231.565 155.125 233.101C155.125 234.636 156.143 236.064 157.966 237.117L193.313 257.504C195.153 258.558 197.566 259.093 199.978 259.093ZM206.322 256.951C202.82 258.968 197.119 258.968 193.617 256.951L158.27 236.564C156.643 235.618 155.732 234.386 155.732 233.083C155.732 231.78 156.626 230.548 158.27 229.602L193.617 209.215C197.119 207.197 202.82 207.197 206.322 209.215L241.669 229.602C243.295 230.548 244.207 231.78 244.207 233.083C244.207 234.386 243.313 235.618 241.669 236.564L206.322 256.951Z" fill="url(#paint12_linear_1365_3118)"/>
<path opacity="0.4" d="M154.016 225.264V213.178L156.232 211.946C156.858 215.731 161.307 218.212 165.024 218.73L190.346 233.529L201.408 237.51L236.683 219.319L235.861 218.855C238.881 217.445 240.507 214.231 242.133 211.286L244.51 212.696L245.922 213.089V225.389C245.922 226.96 244.885 228.531 242.812 229.709L207.466 250.096C203.32 252.488 196.601 252.488 192.455 250.096L157.108 229.709C155.071 228.531 154.034 226.995 153.998 225.46C154.016 225.389 154.016 225.335 154.016 225.264Z" fill="#6826FF"/>
<path d="M154.016 214.517V206.519L156.232 205.287C156.858 209.072 161.307 211.554 165.024 212.071L190.346 226.871L201.408 230.852L236.683 212.66L235.861 212.196C238.881 210.786 240.507 207.573 242.133 204.627L244.51 206.037L245.922 206.43V214.642C245.922 216.213 244.885 217.784 242.812 218.962L207.466 239.349C203.32 241.741 196.601 241.741 192.455 239.349L157.108 218.962C155.071 217.784 154.034 216.249 153.998 214.713C154.016 214.642 154.016 214.588 154.016 214.517Z" fill="url(#paint13_linear_1365_3118)"/>
<path d="M207.485 231.226L242.832 210.839C246.978 208.447 246.978 204.573 242.832 202.181L207.485 181.794C203.339 179.402 196.62 179.402 192.474 181.794L157.127 202.181C152.982 204.573 152.982 208.447 157.127 210.839L192.474 231.226C196.602 233.618 203.339 233.618 207.485 231.226Z" fill="url(#paint14_linear_1365_3118)"/>
<path opacity="0.49" d="M199.979 227.531C202.159 227.531 204.339 227.049 206.001 226.103L233.61 210.179C235.272 209.215 236.184 207.929 236.184 206.537C236.184 205.145 235.272 203.841 233.61 202.877L206.001 186.953C202.677 185.043 197.281 185.043 193.957 186.953L166.348 202.877C164.686 203.841 163.774 205.127 163.774 206.519C163.774 207.912 164.686 209.215 166.348 210.179L193.957 226.103C195.619 227.049 197.799 227.531 199.979 227.531ZM199.979 186.114C202.052 186.114 204.107 186.561 205.679 187.471L233.289 203.395C234.754 204.234 235.558 205.341 235.558 206.519C235.558 207.68 234.754 208.786 233.289 209.625L205.679 225.549C202.534 227.37 197.406 227.37 194.261 225.549L166.651 209.625C165.186 208.786 164.382 207.68 164.382 206.501C164.382 205.341 165.186 204.234 166.651 203.395L194.261 187.471C195.833 186.561 197.906 186.114 199.979 186.114Z" fill="#6826FF"/>
<path d="M157.127 210.839L192.474 231.226C196.619 233.619 203.339 233.619 207.484 231.226L242.831 210.839C244.69 209.768 245.708 208.412 245.905 207.001C246.155 208.733 245.119 210.5 242.831 211.821L207.484 232.208C203.339 234.6 196.619 234.6 192.474 232.208L157.127 211.821C154.839 210.5 153.821 208.715 154.053 207.001C154.25 208.412 155.268 209.768 157.127 210.839Z" fill="white" fill-opacity="0.32"/>
<g opacity="0.3">
<path d="M49.0183 272.036V264.038L51.2342 262.807C51.8596 266.591 56.3093 269.073 60.0262 269.59L85.3481 284.39L96.4096 288.371L131.685 270.179L130.863 269.715C133.883 268.305 135.509 265.092 137.135 262.146L139.512 263.556L140.924 263.949V272.161C140.924 273.732 139.887 275.303 137.814 276.481L102.468 296.868C98.3217 299.26 91.6026 299.26 87.4567 296.868L52.1098 276.481C50.0727 275.303 49.0362 273.768 49.0004 272.232C49.0183 272.161 49.0183 272.09 49.0183 272.036Z" fill="url(#paint15_linear_1365_3118)"/>
<path opacity="0.3" d="M60.025 269.572L85.3469 284.372L94.9609 287.835V298.653C92.2447 298.653 89.5285 298.064 87.4555 296.868L52.1086 276.481C50.0715 275.303 49.035 273.768 48.9992 272.232C48.9992 272.161 48.9992 272.09 48.9992 272.018V264.02L51.0186 262.896H51.233C51.9478 266.627 56.3438 269.073 60.025 269.572Z" fill="#0F054C"/>
<path d="M102.485 288.745L137.832 268.358C141.978 265.966 141.978 262.092 137.832 259.7L102.485 239.313C98.3393 236.921 91.6201 236.921 87.4743 239.313L52.1274 259.7C47.9816 262.092 47.9816 265.966 52.1274 268.358L87.4743 288.745C91.6023 291.138 98.3393 291.138 102.485 288.745Z" fill="url(#paint16_linear_1365_3118)"/>
<g opacity="0.3">
<path d="M102.485 288.745L137.832 268.358C141.978 265.966 141.978 262.092 137.832 259.7L102.485 239.313C98.3393 236.921 91.6201 236.921 87.4743 239.313L52.1274 259.7C47.9816 262.092 47.9816 265.966 52.1274 268.358L87.4743 288.745C91.6023 291.138 98.3393 291.138 102.485 288.745Z" fill="#6826FF"/>
</g>
</g>
<path d="M94.9783 259.093C97.3908 259.093 99.8032 258.558 101.644 257.504L136.991 237.117C138.831 236.064 139.832 234.636 139.832 233.101C139.832 231.565 138.813 230.137 136.991 229.084L101.644 208.697C97.9626 206.573 91.994 206.573 88.3128 208.697L52.9659 229.084C51.1253 230.137 50.1245 231.565 50.1245 233.101C50.1245 234.636 51.1431 236.064 52.9659 237.117L88.3128 257.504C90.1534 258.558 92.5658 259.093 94.9783 259.093ZM101.322 256.951C97.8196 258.968 92.1191 258.968 88.6166 256.951L53.2697 236.564C51.6435 235.618 50.7321 234.386 50.7321 233.083C50.7321 231.78 51.6256 230.548 53.2697 229.602L88.6166 209.215C92.1191 207.197 97.8196 207.197 101.322 209.215L136.669 229.602C138.295 230.548 139.207 231.78 139.207 233.083C139.207 234.386 138.313 235.618 136.669 236.564L101.322 256.951Z" fill="url(#paint17_linear_1365_3118)"/>
<path opacity="0.4" d="M49.0164 225.264V213.178L51.2322 211.946C51.8577 215.731 56.3073 218.212 60.0243 218.73L85.3461 233.529L96.4076 237.51L131.683 219.319L130.861 218.855C133.881 217.445 135.507 214.231 137.133 211.286L139.51 212.696L140.922 213.089V225.389C140.922 226.96 139.885 228.531 137.812 229.709L102.466 250.096C98.3197 252.488 91.6006 252.488 87.4548 250.096L52.1079 229.709C50.0707 228.531 49.0342 226.995 48.9985 225.46C49.0164 225.389 49.0164 225.335 49.0164 225.264Z" fill="#6826FF"/>
<path d="M49.0164 214.517V206.519L51.2322 205.287C51.8577 209.072 56.3073 211.554 60.0243 212.071L85.3461 226.871L96.4076 230.852L131.683 212.66L130.861 212.196C133.881 210.786 135.507 207.573 137.133 204.627L139.51 206.037L140.922 206.43V214.642C140.922 216.213 139.885 217.784 137.812 218.962L102.466 239.349C98.3197 241.741 91.6006 241.741 87.4548 239.349L52.1079 218.962C50.0707 217.784 49.0342 216.249 48.9985 214.713C49.0164 214.642 49.0164 214.588 49.0164 214.517Z" fill="url(#paint18_linear_1365_3118)"/>
<path d="M102.485 231.226L137.832 210.839C141.978 208.447 141.978 204.573 137.832 202.181L102.485 181.794C98.3393 179.402 91.6201 179.402 87.4743 181.794L52.1274 202.181C47.9816 204.573 47.9816 208.447 52.1274 210.839L87.4743 231.226C91.6023 233.618 98.3393 233.618 102.485 231.226Z" fill="url(#paint19_linear_1365_3118)"/>
<path opacity="0.49" d="M94.9789 227.531C97.1591 227.531 99.3392 227.049 101.001 226.103L128.61 210.179C130.272 209.215 131.184 207.929 131.184 206.537C131.184 205.145 130.272 203.841 128.61 202.877L101.001 186.953C97.6773 185.043 92.2806 185.043 88.9567 186.953L61.3476 202.877C59.6856 203.841 58.7743 205.127 58.7743 206.519C58.7743 207.912 59.6856 209.215 61.3476 210.179L88.9567 226.103C90.6186 227.049 92.7988 227.531 94.9789 227.531ZM94.9789 186.114C97.0519 186.114 99.1069 186.561 100.679 187.471L128.289 203.395C129.754 204.234 130.558 205.341 130.558 206.519C130.558 207.68 129.754 208.786 128.289 209.625L100.679 225.549C97.5343 227.37 92.4056 227.37 89.2605 225.549L61.6513 209.625C60.186 208.786 59.3818 207.68 59.3818 206.501C59.3818 205.341 60.186 204.234 61.6513 203.395L89.2605 187.471C90.8331 186.561 92.906 186.114 94.9789 186.114Z" fill="#6826FF"/>
<path d="M52.1266 210.839L87.4735 231.226C91.6194 233.619 98.3385 233.619 102.484 231.226L137.831 210.839C139.69 209.768 140.708 208.412 140.905 207.001C141.155 208.733 140.119 210.5 137.831 211.821L102.484 232.208C98.3385 234.6 91.6194 234.6 87.4735 232.208L52.1266 211.821C49.8393 210.5 48.8207 208.715 49.053 207.001C49.2495 208.412 50.2681 209.768 52.1266 210.839Z" fill="white" fill-opacity="0.32"/>
<path opacity="0.4" d="M445.394 208.5H444.154V138.304C444.154 137.199 443.936 136.104 443.513 135.082C443.09 134.061 442.47 133.133 441.688 132.351C440.906 131.569 439.978 130.949 438.956 130.526C437.935 130.103 436.84 129.885 435.734 129.885L290.1 131.681C287.541 131.677 285.087 130.658 283.278 128.847C281.469 127.036 280.453 124.581 280.453 122.021V94.7413H281.693V122.021C281.693 124.252 282.578 126.392 284.155 127.97C285.731 129.549 287.869 130.437 290.1 130.441L435.734 128.645C438.296 128.645 440.753 129.663 442.564 131.474C444.376 133.286 445.394 135.743 445.394 138.304V208.5Z" fill="url(#paint20_linear_1365_3118)"/>
<path opacity="0.4" d="M197.761 203.5H199.001L199.001 155.579C199.001 154.473 199.219 153.379 199.642 152.357C200.065 151.336 200.685 150.407 201.467 149.626C202.249 148.844 203.177 148.224 204.198 147.801C205.22 147.377 206.315 147.16 207.42 147.16H254.658C257.217 147.156 259.671 146.137 261.48 144.326C263.289 142.515 264.305 140.06 264.305 137.5L264.304 106H263.064L263.065 137.5C263.065 139.731 262.179 141.871 260.603 143.449C259.027 145.028 256.888 145.916 254.658 145.92H207.42C204.859 145.92 202.402 146.937 200.59 148.749C198.779 150.56 197.761 153.017 197.761 155.579L197.761 203.5Z" fill="url(#paint21_linear_1365_3118)"/>
<path opacity="0.4" d="M257.145 59H255.905V129.196C255.905 130.301 255.687 131.396 255.264 132.418C254.841 133.439 254.221 134.367 253.439 135.149C252.657 135.931 251.729 136.551 250.707 136.974C249.686 137.397 248.591 137.615 247.485 137.615L104.907 137.615C102.347 137.618 99.8934 138.638 98.0846 140.449C96.2758 142.26 95.2598 144.715 95.2598 147.275V175.137L95.2598 203H96.4998L96.4998 147.275C96.4997 145.044 97.3851 142.904 98.9614 141.326C100.538 139.747 102.676 138.858 104.907 138.855L247.485 138.855C250.047 138.855 252.504 137.837 254.316 136.026C256.127 134.214 257.145 131.757 257.145 129.196V59Z" fill="url(#paint22_linear_1365_3118)"/>
<path d="M329.001 210.296H327.761V147.54C327.755 145.321 326.874 143.194 325.309 141.62C323.744 140.046 321.623 139.153 319.403 139.133H289.792C285.631 139.127 281.641 137.471 278.699 134.528C275.756 131.586 274.1 127.596 274.094 123.435V103.174H275.334V123.435C275.337 127.269 276.861 130.944 279.572 133.655C282.283 136.366 285.958 137.89 289.792 137.893H319.403C321.964 137.897 324.419 138.915 326.23 140.726C328.041 142.537 329.06 144.992 329.063 147.553L329.001 210.296Z" fill="url(#paint23_linear_1365_3118)"/>
<path d="M315.731 65.6515C312.984 65.6454 310.263 66.1937 307.733 67.2635C307.793 66.7283 307.822 66.1901 307.82 65.6515C307.825 62.9524 307.113 60.3004 305.758 57.9663C304.403 55.6321 302.452 53.6994 300.106 52.3654C297.759 51.0315 295.101 50.3441 292.402 50.3734C289.703 50.4028 287.06 51.1478 284.744 52.5324C284.239 46.5151 281.443 40.9212 276.934 36.9056C272.424 32.89 266.544 30.7593 260.509 30.9535C254.474 31.1476 248.743 33.6517 244.501 37.9488C240.258 42.2459 237.828 48.0079 237.711 54.0452C233.978 52.5591 229.962 51.9161 225.952 52.162C221.941 52.4079 218.035 53.5368 214.511 55.4679C210.987 57.399 207.934 60.0846 205.569 63.3328C203.203 66.5811 201.585 70.3117 200.829 74.2581C200.073 78.2044 200.198 82.269 201.195 86.1614C202.193 90.0537 204.038 93.6777 206.598 96.7743C209.159 99.8709 212.372 102.364 216.007 104.074C219.643 105.785 223.612 106.671 227.63 106.67H315.731C318.424 106.67 321.091 106.14 323.579 105.109C326.068 104.078 328.329 102.568 330.233 100.663C332.138 98.7587 333.648 96.4978 334.679 94.0095C335.71 91.5212 336.24 88.8542 336.24 86.1609C336.24 83.4675 335.71 80.8006 334.679 78.3123C333.648 75.824 332.138 73.563 330.233 71.6586C328.329 69.7541 326.068 68.2434 323.579 67.2127C321.091 66.182 318.424 65.6515 315.731 65.6515Z" fill="url(#paint24_linear_1365_3118)"/>
<path d="M161.76 134.711C162.31 133.776 163.124 133.025 164.1 132.551C165.075 132.078 166.169 131.904 167.244 132.051C168.318 132.197 169.325 132.658 170.139 133.376C170.952 134.093 171.535 135.035 171.814 136.083C172.094 137.131 172.057 138.238 171.709 139.265C171.361 140.292 170.717 141.193 169.858 141.856C169 142.518 167.964 142.911 166.882 142.987C165.801 143.062 164.721 142.816 163.778 142.279C163.145 141.919 162.59 141.436 162.144 140.858C161.699 140.281 161.374 139.621 161.186 138.917C160.998 138.213 160.952 137.478 161.051 136.756C161.149 136.034 161.39 135.339 161.76 134.711Z" fill="#6826FF"/>
<path d="M101.81 133.99C102.405 132.964 103.291 132.137 104.357 131.614C105.422 131.091 106.618 130.896 107.795 131.053C108.971 131.21 110.074 131.712 110.965 132.497C111.856 133.281 112.494 134.312 112.799 135.458C113.103 136.605 113.061 137.817 112.678 138.94C112.294 140.063 111.586 141.047 110.643 141.767C109.7 142.488 108.565 142.913 107.38 142.988C106.196 143.063 105.016 142.786 103.99 142.19C102.613 141.392 101.61 140.079 101.201 138.542C100.793 137.004 101.011 135.367 101.81 133.99Z" fill="#6826FF"/>
<path d="M304.535 136.554C304.904 135.917 305.454 135.405 306.114 135.081C306.775 134.756 307.517 134.635 308.246 134.733C308.975 134.83 309.659 135.142 310.211 135.628C310.764 136.114 311.159 136.753 311.348 137.464C311.537 138.175 311.511 138.926 311.273 139.623C311.035 140.319 310.596 140.929 310.012 141.376C309.427 141.823 308.723 142.086 307.989 142.133C307.255 142.179 306.523 142.007 305.887 141.638C305.033 141.143 304.412 140.329 304.158 139.376C303.905 138.422 304.04 137.407 304.535 136.554Z" fill="#6826FF"/>
<path d="M192.456 136.763C192.923 135.956 193.69 135.367 194.589 135.123C195.488 134.879 196.446 135.001 197.256 135.461C197.854 135.808 198.335 136.325 198.64 136.946C198.945 137.567 199.06 138.264 198.97 138.95C198.88 139.636 198.59 140.281 198.135 140.802C197.68 141.323 197.082 141.697 196.415 141.878C195.748 142.059 195.043 142.038 194.388 141.818C193.733 141.598 193.157 141.189 192.734 140.642C192.311 140.095 192.058 139.435 192.009 138.745C191.96 138.055 192.115 137.365 192.456 136.763Z" fill="#6826FF"/>
<path d="M225.377 137.253C225.621 136.824 225.987 136.478 226.427 136.259C226.867 136.039 227.361 135.957 227.847 136.021C228.334 136.086 228.79 136.295 229.159 136.622C229.527 136.949 229.791 137.379 229.917 137.858C230.043 138.337 230.025 138.842 229.866 139.311C229.707 139.779 229.414 140.189 229.024 140.489C228.633 140.789 228.163 140.965 227.674 140.995C227.184 141.025 226.697 140.908 226.273 140.658C225.981 140.505 225.724 140.293 225.519 140.034C225.313 139.775 225.163 139.476 225.079 139.156C224.995 138.835 224.978 138.5 225.029 138.173C225.08 137.845 225.199 137.532 225.377 137.253Z" fill="#6826FF"/>
<path d="M249.273 135.537C249.394 135.22 249.586 134.932 249.833 134.692C250.081 134.452 250.379 134.267 250.708 134.149C251.036 134.03 251.388 133.982 251.738 134.006C252.088 134.031 252.428 134.128 252.736 134.29C253.043 134.453 253.311 134.678 253.52 134.95C253.729 135.221 253.875 135.533 253.947 135.864C254.02 136.195 254.017 136.537 253.94 136.867C253.863 137.196 253.713 137.506 253.5 137.775C253.353 138.054 253.148 138.3 252.896 138.497C252.645 138.694 252.353 138.839 252.04 138.921C251.727 139.003 251.4 139.022 251.08 138.974C250.759 138.927 250.452 138.816 250.179 138.648C249.648 138.336 249.26 137.841 249.092 137.264C248.924 136.687 248.988 136.07 249.273 135.537Z" fill="#6826FF"/>
<path d="M274.335 129.236C274.586 128.81 274.957 128.467 275.401 128.251C275.846 128.036 276.346 127.956 276.836 128.023C277.326 128.09 277.785 128.301 278.155 128.628C278.526 128.955 278.791 129.385 278.917 129.862C279.043 130.34 279.025 130.844 278.865 131.311C278.704 131.778 278.409 132.187 278.016 132.487C277.622 132.787 277.149 132.964 276.655 132.995C276.162 133.027 275.67 132.911 275.242 132.664C274.669 132.326 274.253 131.777 274.084 131.136C273.914 130.494 274.004 129.811 274.335 129.236Z" fill="#6826FF"/>
<path d="M273.272 112.994C273.404 112.767 273.58 112.568 273.789 112.409C273.998 112.25 274.236 112.133 274.49 112.066C274.744 111.999 275.008 111.983 275.269 112.018C275.529 112.054 275.78 112.14 276.007 112.272C276.234 112.404 276.432 112.58 276.591 112.789C276.75 112.998 276.867 113.236 276.934 113.49C277.001 113.744 277.017 114.008 276.982 114.269C276.947 114.529 276.86 114.78 276.728 115.007C276.461 115.465 276.023 115.799 275.51 115.934C274.997 116.069 274.452 115.995 273.993 115.728C273.535 115.461 273.202 115.023 273.066 114.51C272.931 113.998 273.005 113.452 273.272 112.994Z" fill="#6826FF"/>
<path d="M255.121 118.821C255.186 118.645 255.288 118.486 255.42 118.353C255.552 118.22 255.712 118.117 255.887 118.052C256.063 117.986 256.25 117.959 256.437 117.973C256.624 117.986 256.806 118.04 256.97 118.13C257.134 118.221 257.277 118.345 257.389 118.496C257.5 118.646 257.578 118.819 257.617 119.002C257.656 119.185 257.654 119.375 257.613 119.558C257.572 119.741 257.492 119.912 257.378 120.061C257.189 120.309 256.917 120.481 256.612 120.545C256.307 120.61 255.989 120.563 255.716 120.413C255.443 120.262 255.233 120.019 255.123 119.727C255.014 119.435 255.014 119.114 255.121 118.821Z" fill="#6826FF"/>
<path d="M322.879 204.996C323.523 204.312 324.482 203.76 325.636 203.411C326.789 203.061 328.085 202.931 329.359 203.035C330.633 203.139 331.828 203.474 332.793 203.996C333.759 204.519 334.45 205.206 334.781 205.971C335.112 206.735 335.067 207.543 334.652 208.292C334.237 209.041 333.47 209.697 332.449 210.178C331.428 210.658 330.199 210.942 328.916 210.992C327.633 211.042 326.355 210.857 325.243 210.46C324.504 210.198 323.856 209.848 323.337 209.431C322.818 209.014 322.438 208.538 322.218 208.031C321.999 207.523 321.944 206.994 322.058 206.473C322.171 205.952 322.45 205.45 322.879 204.996Z" fill="#AF97F8"/>
<path d="M193.879 204.996C194.523 204.312 195.482 203.76 196.636 203.411C197.789 203.061 199.085 202.931 200.359 203.035C201.633 203.139 202.828 203.474 203.793 203.996C204.759 204.519 205.45 205.206 205.781 205.971C206.112 206.735 206.067 207.543 205.652 208.292C205.237 209.041 204.47 209.697 203.449 210.178C202.428 210.658 201.199 210.942 199.916 210.992C198.633 211.042 197.355 210.857 196.243 210.46C195.504 210.198 194.856 209.848 194.337 209.431C193.818 209.014 193.438 208.538 193.218 208.031C192.999 207.523 192.944 206.994 193.058 206.473C193.171 205.952 193.45 205.45 193.879 204.996Z" fill="#AF97F8"/>
<path d="M439.879 204.996C440.523 204.312 441.482 203.76 442.636 203.411C443.789 203.061 445.085 202.931 446.359 203.035C447.633 203.139 448.828 203.474 449.793 203.996C450.759 204.519 451.45 205.206 451.781 205.971C452.112 206.735 452.067 207.543 451.652 208.292C451.237 209.041 450.47 209.697 449.449 210.178C448.428 210.658 447.199 210.942 445.916 210.992C444.633 211.042 443.355 210.857 442.243 210.46C441.504 210.198 440.856 209.848 440.337 209.431C439.818 209.014 439.438 208.538 439.218 208.031C438.999 207.523 438.944 206.994 439.058 206.473C439.171 205.952 439.45 205.45 439.879 204.996Z" fill="#AF97F8"/>
<path d="M90.8792 204.996C91.5231 204.312 92.4824 203.76 93.6358 203.411C94.7892 203.061 96.0849 202.931 97.359 203.035C98.6331 203.139 99.8283 203.474 100.793 203.996C101.759 204.519 102.45 205.206 102.781 205.971C103.112 206.735 103.067 207.543 102.652 208.292C102.237 209.041 101.47 209.697 100.449 210.178C99.4282 210.658 98.1986 210.942 96.9159 210.992C95.6332 211.042 94.3551 210.857 93.2432 210.46C92.5041 210.198 91.8564 209.848 91.3373 209.431C90.8183 209.014 90.438 208.538 90.2184 208.031C89.9988 207.523 89.9441 206.994 90.0575 206.473C90.1709 205.952 90.4501 205.45 90.8792 204.996Z" fill="#AF97F8"/>
<rect x="0.755989" y="0.755989" width="535.074" height="348.798" rx="44.6033" stroke="url(#paint25_linear_1365_3118)" stroke-width="1.51198"/>
<defs>
<linearGradient id="paint0_linear_1365_3118" x1="480.789" y1="248.129" x2="407.898" y2="290.255" gradientUnits="userSpaceOnUse">
<stop stop-color="#BCBEFF"/>
<stop offset="0.2271" stop-color="#AAADF8"/>
<stop offset="0.6802" stop-color="#7C83E5"/>
<stop offset="1" stop-color="#5761D7"/>
</linearGradient>
<linearGradient id="paint1_linear_1365_3118" x1="489.933" y1="264.028" x2="398.017" y2="264.028" gradientUnits="userSpaceOnUse">
<stop stop-color="#E9E9FD"/>
<stop offset="0.3601" stop-color="#D3D2F9"/>
<stop offset="0.7062" stop-color="#C5C4F7"/>
<stop offset="1" stop-color="#C0BFF6"/>
</linearGradient>
<linearGradient id="paint2_linear_1365_3118" x1="399.126" y1="233.099" x2="488.833" y2="233.099" gradientUnits="userSpaceOnUse">
<stop stop-color="#9D73FE"/>
<stop offset="1" stop-color="#6826FF"/>
</linearGradient>
<linearGradient id="paint3_linear_1365_3118" x1="398" y1="222.885" x2="489.923" y2="222.885" gradientUnits="userSpaceOnUse">
<stop stop-color="#9D73FE"/>
<stop offset="1" stop-color="#6826FF"/>
</linearGradient>
<linearGradient id="paint4_linear_1365_3118" x1="444.276" y1="238.667" x2="443.978" y2="205.153" gradientUnits="userSpaceOnUse">
<stop stop-color="white"/>
<stop offset="1" stop-color="#DFE2F3"/>
</linearGradient>
<linearGradient id="paint5_linear_1365_3118" x1="364.789" y1="248.129" x2="291.898" y2="290.255" gradientUnits="userSpaceOnUse">
<stop stop-color="#BCBEFF"/>
<stop offset="0.2271" stop-color="#AAADF8"/>
<stop offset="0.6802" stop-color="#7C83E5"/>
<stop offset="1" stop-color="#5761D7"/>
</linearGradient>
<linearGradient id="paint6_linear_1365_3118" x1="373.933" y1="264.028" x2="282.017" y2="264.028" gradientUnits="userSpaceOnUse">
<stop stop-color="#E9E9FD"/>
<stop offset="0.3601" stop-color="#D3D2F9"/>
<stop offset="0.7062" stop-color="#C5C4F7"/>
<stop offset="1" stop-color="#C0BFF6"/>
</linearGradient>
<linearGradient id="paint7_linear_1365_3118" x1="283.126" y1="233.099" x2="372.833" y2="233.099" gradientUnits="userSpaceOnUse">
<stop stop-color="#9D73FE"/>
<stop offset="1" stop-color="#6826FF"/>
</linearGradient>
<linearGradient id="paint8_linear_1365_3118" x1="282" y1="222.885" x2="373.923" y2="222.885" gradientUnits="userSpaceOnUse">
<stop stop-color="#9D73FE"/>
<stop offset="1" stop-color="#6826FF"/>
</linearGradient>
<linearGradient id="paint9_linear_1365_3118" x1="328.276" y1="238.667" x2="327.978" y2="205.153" gradientUnits="userSpaceOnUse">
<stop stop-color="white"/>
<stop offset="1" stop-color="#DFE2F3"/>
</linearGradient>
<linearGradient id="paint10_linear_1365_3118" x1="236.789" y1="248.129" x2="163.898" y2="290.255" gradientUnits="userSpaceOnUse">
<stop stop-color="#BCBEFF"/>
<stop offset="0.2271" stop-color="#AAADF8"/>
<stop offset="0.6802" stop-color="#7C83E5"/>
<stop offset="1" stop-color="#5761D7"/>
</linearGradient>
<linearGradient id="paint11_linear_1365_3118" x1="245.933" y1="264.028" x2="154.017" y2="264.028" gradientUnits="userSpaceOnUse">
<stop stop-color="#E9E9FD"/>
<stop offset="0.3601" stop-color="#D3D2F9"/>
<stop offset="0.7062" stop-color="#C5C4F7"/>
<stop offset="1" stop-color="#C0BFF6"/>
</linearGradient>
<linearGradient id="paint12_linear_1365_3118" x1="155.126" y1="233.099" x2="244.833" y2="233.099" gradientUnits="userSpaceOnUse">
<stop stop-color="#9D73FE"/>
<stop offset="1" stop-color="#6826FF"/>
</linearGradient>
<linearGradient id="paint13_linear_1365_3118" x1="154" y1="222.885" x2="245.923" y2="222.885" gradientUnits="userSpaceOnUse">
<stop stop-color="#9D73FE"/>
<stop offset="1" stop-color="#6826FF"/>
</linearGradient>
<linearGradient id="paint14_linear_1365_3118" x1="200.276" y1="238.667" x2="199.978" y2="205.153" gradientUnits="userSpaceOnUse">
<stop stop-color="white"/>
<stop offset="1" stop-color="#DFE2F3"/>
</linearGradient>
<linearGradient id="paint15_linear_1365_3118" x1="131.789" y1="248.129" x2="58.8985" y2="290.255" gradientUnits="userSpaceOnUse">
<stop stop-color="#BCBEFF"/>
<stop offset="0.2271" stop-color="#AAADF8"/>
<stop offset="0.6802" stop-color="#7C83E5"/>
<stop offset="1" stop-color="#5761D7"/>
</linearGradient>
<linearGradient id="paint16_linear_1365_3118" x1="140.933" y1="264.028" x2="49.0173" y2="264.028" gradientUnits="userSpaceOnUse">
<stop stop-color="#E9E9FD"/>
<stop offset="0.3601" stop-color="#D3D2F9"/>
<stop offset="0.7062" stop-color="#C5C4F7"/>
<stop offset="1" stop-color="#C0BFF6"/>
</linearGradient>
<linearGradient id="paint17_linear_1365_3118" x1="50.1258" y1="233.099" x2="139.833" y2="233.099" gradientUnits="userSpaceOnUse">
<stop stop-color="#9D73FE"/>
<stop offset="1" stop-color="#6826FF"/>
</linearGradient>
<linearGradient id="paint18_linear_1365_3118" x1="48.9998" y1="222.885" x2="140.923" y2="222.885" gradientUnits="userSpaceOnUse">
<stop stop-color="#9D73FE"/>
<stop offset="1" stop-color="#6826FF"/>
</linearGradient>
<linearGradient id="paint19_linear_1365_3118" x1="95.2757" y1="238.667" x2="94.9777" y2="205.153" gradientUnits="userSpaceOnUse">
<stop stop-color="white"/>
<stop offset="1" stop-color="#DFE2F3"/>
</linearGradient>
<linearGradient id="paint20_linear_1365_3118" x1="445.391" y1="151.621" x2="280.452" y2="151.621" gradientUnits="userSpaceOnUse">
<stop stop-color="#9D73FE"/>
<stop offset="1" stop-color="#6826FF"/>
</linearGradient>
<linearGradient id="paint21_linear_1365_3118" x1="197.762" y1="154.751" x2="264.305" y2="154.751" gradientUnits="userSpaceOnUse">
<stop stop-color="#9D73FE"/>
<stop offset="1" stop-color="#6826FF"/>
</linearGradient>
<linearGradient id="paint22_linear_1365_3118" x1="257.142" y1="130.999" x2="95.2585" y2="130.999" gradientUnits="userSpaceOnUse">
<stop stop-color="#9D73FE"/>
<stop offset="1" stop-color="#6826FF"/>
</linearGradient>
<linearGradient id="paint23_linear_1365_3118" x1="329.062" y1="156.736" x2="274.093" y2="156.736" gradientUnits="userSpaceOnUse">
<stop stop-color="#9D73FE"/>
<stop offset="1" stop-color="#6826FF"/>
</linearGradient>
<linearGradient id="paint24_linear_1365_3118" x1="336.238" y1="68.8062" x2="200.341" y2="68.8062" gradientUnits="userSpaceOnUse">
<stop stop-color="#9D73FE"/>
<stop offset="1" stop-color="#6826FF"/>
</linearGradient>
<linearGradient id="paint25_linear_1365_3118" x1="536.578" y1="175.157" x2="-0.00422173" y2="175.157" gradientUnits="userSpaceOnUse">
<stop stop-color="#9D73FE"/>
<stop offset="1" stop-color="#6826FF"/>
</linearGradient>
</defs>
</svg>
