<svg width="40" height="40" viewBox="0 0 40 40" fill="none" xmlns="http://www.w3.org/2000/svg">
<path fill-rule="evenodd" clip-rule="evenodd" d="M31.16 14.2799C31.2 13.9599 31.24 13.5999 31.24 13.2399C31.24 9.4799 28.2 6.3999 24.4 6.3999C21.76 6.3999 19.32 7.9599 18.2 10.3999C18 10.8799 17.48 11.1199 17 10.9599C16.52 10.7999 16 10.7199 15.44 10.7199C13 10.7199 10.84 12.3599 10.2 14.7199C10.08 15.1999 9.6 15.5199 9.08 15.4399C8.88 15.3999 8.68 15.3999 8.44 15.3999C6 15.3999 4 17.3999 4 19.8399C4 22.2799 6 24.2799 8.44 24.2799H9.56C10.12 24.2799 10.56 24.7199 10.56 25.2799C10.56 25.8399 10.12 26.2799 9.56 26.2799H8.44C4.88 26.2799 2 23.3999 2 19.8399C2 16.2799 4.88 13.3999 8.4 13.3999H8.52C9.64 10.5999 12.36 8.7199 15.44 8.7199C15.88 8.7199 16.32 8.7599 16.76 8.8399C18.32 6.1199 21.24 4.3999 24.4 4.3999C29.28 4.3999 33.24 8.3599 33.24 13.2399V13.6399C36 14.3599 38 16.8799 38 19.8399C38 23.3999 35.12 26.2799 31.56 26.2799H30.44C29.88 26.2799 29.44 25.8399 29.44 25.2799C29.44 24.7199 29.88 24.2799 30.44 24.2799H31.56C34 24.2799 36 22.2799 36 19.8399C36 17.5599 34.28 15.6799 32.04 15.4399C31.76 15.3999 31.52 15.2399 31.36 15.0399C31.2 14.8399 31.12 14.5599 31.16 14.2799ZM13.1998 21.7998C13.1998 21.2398 13.6398 20.7998 14.1998 20.7998C14.7598 20.7998 15.1998 21.2398 15.1998 21.7998V32.4398C15.1998 32.9998 14.7598 33.4398 14.1998 33.4398H9.95984C9.55984 34.7198 8.39984 35.5998 6.99984 35.5998C5.23984 35.5998 3.83984 34.1598 3.83984 32.4398C3.83984 30.6798 5.27984 29.2798 6.99984 29.2798C8.35984 29.2798 9.55984 30.1998 9.95984 31.4398H13.1998V21.7998ZM5.83984 32.4398C5.83984 33.0798 6.35984 33.5998 6.99984 33.5998C7.63984 33.5998 8.15984 33.0798 8.15984 32.4398C8.15984 31.7998 7.63984 31.2798 6.99984 31.2798C6.35984 31.2798 5.83984 31.7998 5.83984 32.4398ZM20.9998 21.7998V29.4798C22.2398 29.8798 23.1598 31.0798 23.1598 32.4398C23.1598 34.1998 21.7598 35.5998 19.9998 35.5998C18.2398 35.5998 16.8398 34.1598 16.8398 32.4398C16.8398 31.0798 17.7598 29.8798 18.9998 29.4798V21.7998C18.9998 21.2398 19.4398 20.7998 19.9998 20.7998C20.5598 20.7998 20.9998 21.2398 20.9998 21.7998ZM18.8398 32.4398C18.8398 33.0798 19.3598 33.5998 19.9998 33.5998C20.6398 33.5998 21.1598 33.0798 21.1598 32.4398C21.1598 31.7998 20.6398 31.2798 19.9998 31.2798C19.3598 31.2798 18.8398 31.7998 18.8398 32.4398ZM32.9998 29.3198C31.5998 29.3198 30.4398 30.1998 30.0398 31.4798H26.7998V21.7998C26.7998 21.2398 26.3598 20.7998 25.7998 20.7998C25.2398 20.7998 24.7998 21.2398 24.7998 21.7998V32.4398C24.7998 32.9998 25.2398 33.4398 25.7998 33.4398H30.0398C30.4398 34.6798 31.6398 35.5998 32.9998 35.5998C34.7198 35.5998 36.1598 34.1998 36.1598 32.4398C36.1598 30.7198 34.7598 29.3198 32.9998 29.3198ZM32.9998 33.5998C32.3598 33.5998 31.8398 33.0798 31.8398 32.4398C31.8398 31.7998 32.3598 31.2798 32.9998 31.2798C33.6398 31.2798 34.1598 31.7998 34.1598 32.4398C34.1598 33.0798 33.6398 33.5998 32.9998 33.5998Z" fill="url(#paint0_linear_573_271)"/>
<defs>
<linearGradient id="paint0_linear_573_271" x1="37.9995" y1="20" x2="1.99972" y2="20" gradientUnits="userSpaceOnUse">
<stop stop-color="#9D73FE"/>
<stop offset="1" stop-color="#6826FF"/>
</linearGradient>
</defs>
</svg>
