<svg width="40" height="40" viewBox="0 0 40 40" fill="none" xmlns="http://www.w3.org/2000/svg">
<g clip-path="url(#clip0_573_299)">
<path d="M28.1829 34C27.8817 34 27.6002 33.8448 27.4473 33.5958L26.7602 32.4739H13.224L12.5553 33.5895C12.4037 33.8429 12.1203 34.0006 11.8164 34.0006C11.6649 34.0006 11.5211 33.9633 11.3892 33.8891C10.9824 33.6617 10.8433 33.1575 11.0789 32.7641L13.1085 29.3787L12.8539 29.3186C10.5847 28.7795 9 26.8372 9 24.5947V10.8778C9 8.18805 11.2665 6 14.0528 6H25.9465C28.7321 6 30.9993 8.18805 31.0007 10.8778V24.5947C31.0007 26.8549 29.4028 28.8016 27.1153 29.3274L26.8554 29.387L28.9179 32.7571C29.1567 33.1486 29.0215 33.6548 28.6167 33.8853C28.4841 33.9601 28.3338 34 28.1829 34ZM14.2123 30.8262H25.7536L25.1151 29.7823C25.0981 29.7538 25.0876 29.7151 25.0751 29.6708C25.0692 29.6492 25.0633 29.6277 25.0561 29.6062L25.0134 29.4719H15.024L14.2123 30.8262ZM10.7061 24.5947C10.7061 26.376 12.2075 27.8254 14.0528 27.8254H25.9465C27.7918 27.8254 29.2932 26.376 29.2932 24.5947V19.6497H10.7061V24.5947ZM20.8524 18.0026H29.2899L29.2932 11.9161H20.8524V18.0026ZM10.7061 18.0026H19.1463V11.9161H10.7061V18.0026ZM14.0528 7.64706C12.5586 7.64706 11.2357 8.62643 10.8367 10.029L10.7685 10.2691H29.2302L29.162 10.029C28.763 8.62643 27.4407 7.64706 25.9465 7.64706H14.0528Z" fill="url(#paint0_linear_573_299)"/>
<path d="M15.0798 25.8895C13.6487 25.8895 12.4839 24.7644 12.4839 23.3816C12.4839 21.9999 13.6487 20.8755 15.0798 20.8755C15.7721 20.8755 16.4238 21.1365 16.9153 21.6103C17.4061 22.0842 17.6765 22.7132 17.6758 23.3816C17.6758 24.7644 16.511 25.8895 15.0798 25.8895ZM15.0798 22.5225C14.589 22.5225 14.19 22.9077 14.19 23.3816C14.19 23.856 14.589 24.2425 15.0798 24.2425C15.318 24.2425 15.5418 24.1525 15.7098 23.9897C15.8778 23.8269 15.9703 23.6102 15.9697 23.3809C15.9697 22.9077 15.57 22.5225 15.0798 22.5225Z" fill="url(#paint1_linear_573_299)"/>
<path d="M24.9197 25.8895C24.2274 25.8895 23.5758 25.6285 23.0843 25.154C22.5934 24.6796 22.3231 24.0505 22.3237 23.3816C22.3237 21.9993 23.4885 20.8755 24.9197 20.8755C26.3509 20.8755 27.5156 21.9999 27.5156 23.3816C27.5156 24.7644 26.3509 25.8895 24.9197 25.8895ZM24.9197 22.5225C24.6815 22.5225 24.4571 22.6125 24.2891 22.7753C24.1211 22.9375 24.0292 23.1535 24.0299 23.3822C24.0299 23.8567 24.4288 24.2425 24.9197 24.2425C25.4105 24.2425 25.8095 23.856 25.8095 23.3816C25.8095 22.9077 25.4105 22.5225 24.9197 22.5225Z" fill="url(#paint2_linear_573_299)"/>
</g>
<defs>
<linearGradient id="paint0_linear_573_299" x1="31.0003" y1="20.0005" x2="8.99983" y2="20.0005" gradientUnits="userSpaceOnUse">
<stop stop-color="#9D73FE"/>
<stop offset="1" stop-color="#6826FF"/>
</linearGradient>
<linearGradient id="paint1_linear_573_299" x1="17.6757" y1="23.3825" x2="12.4838" y2="23.3825" gradientUnits="userSpaceOnUse">
<stop stop-color="#9D73FE"/>
<stop offset="1" stop-color="#6826FF"/>
</linearGradient>
<linearGradient id="paint2_linear_573_299" x1="27.5156" y1="23.3825" x2="22.3237" y2="23.3825" gradientUnits="userSpaceOnUse">
<stop stop-color="#9D73FE"/>
<stop offset="1" stop-color="#6826FF"/>
</linearGradient>
<clipPath id="clip0_573_299">
<rect width="22" height="28" fill="white" transform="translate(9 6)"/>
</clipPath>
</defs>
</svg>
