<svg width="40" height="40" viewBox="0 0 40 40" fill="none" xmlns="http://www.w3.org/2000/svg">
<path fill-rule="evenodd" clip-rule="evenodd" d="M5.80601 31.8767C6.10475 31.9584 6.42065 32 6.74512 32C7.3669 32 8.01299 31.8514 8.66479 31.5572C10.2357 30.8869 12.111 29.5019 14.2437 27.4363C15.4773 26.1954 17.8157 25.4554 20.5001 25.4554C23.1845 25.4554 25.523 26.1954 26.758 27.4378C28.8892 29.5019 30.7646 30.8869 32.3383 31.5586C33.0444 31.8454 33.7105 31.9911 34.3166 31.9911C34.6239 31.9911 34.9198 31.9524 35.1985 31.8767C36.1791 31.5705 36.9081 30.8468 37.3641 29.7263C37.8658 28.5419 38.0673 26.8448 37.9815 24.5355C37.8972 22.5263 37.557 20.2006 37.0253 17.9864C36.4564 15.7157 35.7974 13.8596 35.0656 12.4656C33.3746 9.37758 31.4907 8 28.9578 8C27.5784 8 26.1009 8.40472 24.6727 8.79593L24.6596 8.7995L24.3209 8.88421C23.1559 9.17845 21.9524 9.48161 20.716 9.60347H20.2972C19.0498 9.48179 17.8465 9.17789 16.6832 8.88406L16.6832 8.88406L16.6779 8.88272L16.3406 8.79802L16.2763 8.78167C14.7897 8.39084 13.3846 8.02229 12.0467 8.02229C9.50527 8.02229 7.61991 9.40731 5.93323 12.5132C5.14278 14.0215 4.44666 15.9832 3.97497 18.0324C3.4418 20.2452 3.10304 22.5694 3.02013 24.5801C2.93437 26.8419 3.13592 28.5389 3.63763 29.7724C4.12934 30.8869 4.8569 31.5943 5.80601 31.8767ZM28.0373 26.0988C26.4678 24.4671 23.6505 23.4937 20.5001 23.4937C17.3941 23.4937 14.5624 24.4329 12.9215 26.0052C10.8703 27.9817 9.24512 29.1913 7.95295 29.7055C7.43266 29.9091 7.03957 30.0027 6.7151 30.0027C6.55215 30.0027 6.40921 29.9789 6.27199 29.9269C5.87176 29.8021 5.56302 29.4618 5.32574 28.8882C4.96553 27.9995 4.82402 26.5684 4.90407 24.638C4.99412 22.6199 5.3143 20.428 5.80744 18.4649C6.32488 16.3636 6.93094 14.6665 7.6099 13.4212C8.87777 11.0494 10.3243 9.99133 12.3012 9.99133C13.427 9.99133 14.6615 10.3271 15.8561 10.652L15.8803 10.6586C17.3412 11.0509 18.6705 11.3853 20.1528 11.5175H20.8132C22.324 11.3867 23.6562 11.0524 25.1171 10.6601L25.2028 10.6378L25.2074 10.6366C26.4478 10.3145 27.6184 10.0107 28.7077 10.0107C30.6845 10.0107 32.1282 11.0613 33.3889 13.4212C34.0879 14.7051 34.694 16.4007 35.1899 18.4619C35.7031 20.688 36.0161 22.8235 36.0948 24.6365C36.1762 26.6011 36.0247 28.0203 35.6302 28.9773C35.3944 29.5524 35.0842 29.8928 34.6868 30.0161C34.5539 30.0532 34.4066 30.0726 34.2466 30.0726C33.8921 30.0726 33.4733 29.9789 33.0044 29.7962C31.6222 29.2225 29.9041 27.943 28.0373 26.0988ZM10.5843 21.9482C11.0931 22.4773 11.7406 22.7567 12.4582 22.7567C13.1443 22.7567 13.8447 22.455 14.3364 21.9423C14.7738 21.437 15.0282 20.905 15.0954 20.3611C15.7 20.2883 16.2404 20.0074 16.622 19.5661C17.1309 19.037 17.3996 18.3638 17.3996 17.6178C17.3996 16.903 17.1094 16.1749 16.6177 15.6637C16.1303 15.2089 15.6186 14.9429 15.0954 14.8746C15.0254 14.3024 14.7609 13.7333 14.375 13.332L14.3321 13.2874C13.8233 12.7584 13.1757 12.479 12.4582 12.479C11.7707 12.479 11.0703 12.7822 10.5843 13.2874C10.164 13.7243 9.88958 14.2965 9.81954 14.8746C9.26637 14.9429 8.75464 15.1926 8.29295 15.625L8.25007 15.6696C7.74121 16.1986 7.47248 16.8718 7.47248 17.6178C7.47248 18.3326 7.76408 19.0608 8.25007 19.5661C8.6989 20.0327 9.21348 20.2942 9.81954 20.3626C9.88958 20.9912 10.1597 21.5515 10.5843 21.9482ZM9.35785 17.6193C9.35785 17.389 9.42932 17.2017 9.57511 17.0502L9.61228 17.0115C9.76951 16.8911 9.95533 16.8228 10.124 16.8228H10.7286C11.2604 16.8228 11.6935 16.3725 11.6935 15.8197V15.1911C11.6935 14.9607 11.7649 14.7735 11.9107 14.6219C12.0565 14.4703 12.2366 14.396 12.4582 14.396C12.6797 14.396 12.8598 14.4703 13.0056 14.6219L13.04 14.6606C13.1557 14.824 13.2215 15.0172 13.2215 15.1926V15.8212C13.2215 16.374 13.6546 16.8243 14.1863 16.8243H14.791C15.0125 16.8243 15.1926 16.8986 15.3384 17.0502C15.4842 17.2017 15.5557 17.389 15.5557 17.6193C15.5557 17.8497 15.4842 18.0369 15.3384 18.1885C15.1926 18.3401 15.0125 18.4144 14.791 18.4144H14.1863C13.6546 18.4144 13.2215 18.8646 13.2215 19.4175V20.0015C13.2215 20.2318 13.15 20.4191 13.0042 20.5707C12.8584 20.7222 12.6783 20.7965 12.4568 20.7965C12.2352 20.7965 12.0551 20.7222 11.9093 20.5707C11.7635 20.4191 11.692 20.2318 11.692 20.0015V19.3729C11.692 18.8201 11.2589 18.3698 10.7272 18.3698H10.1226C9.90101 18.3698 9.72091 18.2955 9.57511 18.1439C9.52508 18.0904 9.35785 17.8957 9.35785 17.6193ZM28.0228 16.001C28.8588 16.001 29.5365 15.2964 29.5365 14.4272C29.5365 13.5581 28.8588 12.8535 28.0228 12.8535C27.1868 12.8535 26.5091 13.5581 26.5091 14.4272C26.5091 15.2964 27.1868 16.001 28.0228 16.001ZM29.5365 20.8099C29.5365 21.6791 28.8588 22.3837 28.0228 22.3837C27.1868 22.3837 26.5091 21.6791 26.5091 20.8099C26.5091 19.9408 27.1868 19.2362 28.0228 19.2362C28.8588 19.2362 29.5365 19.9408 29.5365 20.8099ZM24.9525 19.1931C25.7885 19.1931 26.4662 18.4885 26.4662 17.6193C26.4662 16.7502 25.7885 16.0456 24.9525 16.0456C24.1165 16.0456 23.4388 16.7502 23.4388 17.6193C23.4388 18.4885 24.1165 19.1931 24.9525 19.1931ZM32.6068 17.6193C32.6068 18.4885 31.9291 19.1931 31.0931 19.1931C30.2571 19.1931 29.5794 18.4885 29.5794 17.6193C29.5794 16.7502 30.2571 16.0456 31.0931 16.0456C31.9291 16.0456 32.6068 16.7502 32.6068 17.6193Z" fill="url(#paint0_linear_573_325)"/>
<defs>
<linearGradient id="paint0_linear_573_325" x1="38.0002" y1="20.0001" x2="3.0007" y2="20.0001" gradientUnits="userSpaceOnUse">
<stop stop-color="#9D73FE"/>
<stop offset="1" stop-color="#6826FF"/>
</linearGradient>
</defs>
</svg>
