<svg width="40" height="40" viewBox="0 0 40 40" fill="none" xmlns="http://www.w3.org/2000/svg">
<path fill-rule="evenodd" clip-rule="evenodd" d="M13.9999 5.14355C14.5522 5.14355 14.9999 5.59127 14.9999 6.14355V12.4949L19.9999 15.3817L25.4999 12.2062C25.8093 12.0276 26.1905 12.0276 26.4999 12.2062L31.9999 15.3817L37.4999 12.2062C37.9782 11.9301 38.5898 12.094 38.8659 12.5723C39.1421 13.0506 38.9782 13.6621 38.4999 13.9383L32.9999 17.1137V22.887L38.4999 26.0624C38.9782 26.3386 39.1421 26.9502 38.8659 27.4285C38.5898 27.9068 37.9782 28.0706 37.4999 27.7945L32.0001 24.6192L26.4999 27.7947C26.1905 27.9734 25.8093 27.9734 25.4999 27.7947L19.9999 24.6193L14.9999 27.5061V33.8564C14.9999 34.4087 14.5522 34.8564 13.9999 34.8564C13.4476 34.8564 12.9999 34.4087 12.9999 33.8564V27.506L7.9997 24.6192L2.49993 27.7945C2.02163 28.0706 1.41004 27.9068 1.1339 27.4285C0.857755 26.9502 1.02163 26.3386 1.49992 26.0624L6.99992 22.887V16.5364C6.99992 16.1791 7.19052 15.849 7.49992 15.6704L12.9999 12.4949V6.14355C12.9999 5.59127 13.4476 5.14355 13.9999 5.14355ZM18.9999 17.1137L14 14.227L8.99992 17.1137V22.8873L14 25.774L18.9999 22.8873V17.1137ZM25.9999 14.227L20.9999 17.1137V22.8873L25.9999 25.774L30.9999 22.8873V17.1137L25.9999 14.227Z" fill="url(#paint0_linear_573_351)"/>
<defs>
<linearGradient id="paint0_linear_573_351" x1="38.9995" y1="20.0001" x2="0.999457" y2="20.0001" gradientUnits="userSpaceOnUse">
<stop stop-color="#9D73FE"/>
<stop offset="1" stop-color="#6826FF"/>
</linearGradient>
</defs>
</svg>
