<svg width="40" height="40" viewBox="0 0 40 40" fill="none" xmlns="http://www.w3.org/2000/svg">
<path fill-rule="evenodd" clip-rule="evenodd" d="M27.6782 8.61599H37.0655C37.5784 8.61654 38.0701 8.82053 38.4328 9.18319C38.7954 9.54586 38.9994 10.0376 39 10.5505V11.2875C38.9994 11.8003 38.7954 12.2921 38.4328 12.6547C38.0701 13.0174 37.5784 13.2214 37.0655 13.2219H27.6782V14.4108H28.3599C29.3197 14.4117 30.24 14.7935 30.9187 15.4722C31.5974 16.1508 31.9791 17.0711 31.9801 18.0309V20.9078C33.6152 21.1781 35.0888 22.0537 36.1079 23.3606C37.1271 24.6675 37.6172 26.31 37.4807 27.9617C37.3443 29.6134 36.5914 31.1533 35.3716 32.2753C34.1519 33.3973 32.5546 34.0193 30.8973 34.0176H7.6035C5.94622 34.0192 4.34901 33.3971 3.12933 32.2751C1.90964 31.1531 1.1568 29.6132 1.02044 27.9615C0.884072 26.3099 1.37417 24.6674 2.39332 23.3605C3.41246 22.0536 4.88603 21.1781 6.52114 20.9078V18.0309C6.52223 17.0711 6.90399 16.1509 7.58266 15.4723C8.26132 14.7936 9.18149 14.4119 10.1413 14.4108H10.823V7.50639C10.8238 7.10268 10.9846 6.71574 11.27 6.43024C11.5554 6.14473 11.9423 5.98389 12.346 5.98291H26.1552C26.5589 5.98389 26.9458 6.14473 27.2312 6.43024C27.5166 6.71574 27.6774 7.10268 27.6782 7.50639V8.61599ZM34.5439 31.0594C35.5108 30.0924 36.0548 28.7815 36.0566 27.414C36.0548 26.0463 35.5107 24.7352 34.5434 23.7682C33.5762 22.8012 32.265 22.2574 30.8973 22.256H7.6035C6.2355 22.256 4.92353 22.7994 3.95621 23.7667C2.98889 24.734 2.44545 26.046 2.44545 27.414C2.44545 28.782 2.98889 30.094 3.95621 31.0613C4.92353 32.0286 6.2355 32.5721 7.6035 32.5721H30.8985C32.266 32.5703 33.5769 32.0263 34.5439 31.0594ZM30.5358 20.8109V18.0309C30.5353 17.454 30.3058 16.9009 29.8979 16.4929C29.49 16.085 28.9368 15.8556 28.3599 15.855H10.14C9.56312 15.8556 9.00999 16.085 8.60206 16.4929C8.19412 16.9009 7.9647 17.454 7.96416 18.0309V20.8109H30.5358ZM12.2672 7.50639V14.4108H26.234V7.50639C26.234 7.48545 26.2257 7.46536 26.2109 7.45052C26.1962 7.43567 26.1761 7.42727 26.1552 7.42716H12.346C12.3251 7.42727 12.305 7.43567 12.2903 7.45052C12.2755 7.46536 12.2672 7.48545 12.2672 7.50639ZM37.412 11.634C37.5039 11.5421 37.5556 11.4174 37.5557 11.2875V10.5501C37.5555 10.4201 37.5038 10.2956 37.4119 10.2038C37.32 10.112 37.1954 10.0604 37.0655 10.0602H27.6782V11.7777H37.0655C37.1955 11.7776 37.3201 11.7259 37.412 11.634ZM8.57664 23.4053C7.78375 23.4052 7.00864 23.6402 6.34933 24.0807C5.69003 24.5211 5.17614 25.1472 4.87266 25.8797C4.56918 26.6122 4.48973 27.4183 4.64436 28.1959C4.799 28.9736 5.18077 29.688 5.7414 30.2486C6.30203 30.8093 7.01634 31.1912 7.79399 31.3459C8.57164 31.5006 9.3777 31.4212 10.1102 31.1178C10.8428 30.8144 11.4689 30.3006 11.9094 29.6413C12.3499 28.9821 12.5851 28.207 12.5851 27.4141C12.5839 26.3513 12.1612 25.3324 11.4097 24.5809C10.6583 23.8294 9.63941 23.4066 8.57664 23.4053ZM8.57664 29.9783C8.06938 29.9784 7.57348 29.828 7.15168 29.5462C6.72987 29.2645 6.40109 28.8639 6.20694 28.3953C6.01278 27.9267 5.96196 27.411 6.0609 26.9135C6.15984 26.416 6.4041 25.959 6.76279 25.6003C7.12148 25.2416 7.57848 24.9973 8.076 24.8984C8.57352 24.7994 9.08921 24.8503 9.55784 25.0444C10.0265 25.2386 10.427 25.5673 10.7088 25.9892C10.9905 26.411 11.1409 26.9069 11.1408 27.4141C11.1399 28.0939 10.8695 28.7456 10.3888 29.2263C9.90813 29.707 9.25643 29.9774 8.57664 29.9783ZM17.0235 24.0811C17.6827 23.6405 18.4578 23.4054 19.2506 23.4053C20.3135 23.4064 21.3326 23.8291 22.0842 24.5806C22.8359 25.3322 23.2587 26.3512 23.2599 27.4141C23.2599 28.207 23.0248 28.982 22.5843 29.6413C22.1438 30.3005 21.5177 30.8143 20.7852 31.1178C20.0527 31.4212 19.2467 31.5006 18.4691 31.346C17.6915 31.1913 16.9772 30.8095 16.4165 30.2489C15.8558 29.6883 15.474 28.9741 15.3193 28.1965C15.1645 27.4188 15.2439 26.6128 15.5472 25.8803C15.8506 25.1478 16.3643 24.5216 17.0235 24.0811ZM17.8259 29.5458C18.2476 29.8277 18.7434 29.9782 19.2506 29.9783C19.9306 29.9776 20.5825 29.7073 21.0633 29.2266C21.5442 28.7459 21.8147 28.094 21.8156 27.4141C21.8157 26.9069 21.6654 26.411 21.3836 25.9892C21.1019 25.5674 20.7014 25.2387 20.2328 25.0445C19.7642 24.8503 19.2486 24.7994 18.7511 24.8983C18.2536 24.9972 17.7966 25.2414 17.4379 25.6C17.0792 25.9586 16.8348 26.4155 16.7358 26.913C16.6368 27.4104 16.6875 27.9261 16.8815 28.3947C17.0755 28.8634 17.4042 29.264 17.8259 29.5458ZM26.5916 29.6413C26.1511 28.9821 25.916 28.207 25.916 27.4141C25.9172 26.3513 26.34 25.3323 27.0915 24.5808C27.843 23.8292 28.862 23.4065 29.9249 23.4053C30.7177 23.4053 31.4928 23.6404 32.152 24.0809C32.8113 24.5214 33.3251 25.1475 33.6285 25.88C33.932 26.6125 34.0113 27.4186 33.8567 28.1962C33.702 28.9738 33.3202 29.6881 32.7595 30.2488C32.1989 30.8094 31.4846 31.1912 30.7069 31.3459C29.9293 31.5006 29.1233 31.4212 28.3907 31.1178C27.6582 30.8144 27.0321 30.3006 26.5916 29.6413ZM32.0572 28.8389C32.339 28.4172 32.4894 27.9213 32.4894 27.4141C32.4887 26.7342 32.2182 26.0823 31.7374 25.6015C31.2567 25.1207 30.6048 24.8503 29.9249 24.8495C29.4176 24.8495 28.9218 24.9999 28.5 25.2817C28.0783 25.5635 27.7496 25.9641 27.5555 26.4327C27.3614 26.9013 27.3106 27.417 27.4095 27.9144C27.5085 28.4119 27.7528 28.8689 28.1114 29.2276C28.4701 29.5862 28.9271 29.8305 29.4245 29.9294C29.922 30.0284 30.4377 29.9776 30.9063 29.7835C31.3749 29.5894 31.7754 29.2607 32.0572 28.8389ZM22.0595 8.61621H16.4405C16.0713 8.61697 15.7173 8.76406 15.4563 9.02525C15.1953 9.28644 15.0484 9.64044 15.0479 10.0097V11.8299C15.0484 12.1994 15.1954 12.5536 15.4567 12.8148C15.718 13.076 16.0723 13.2229 16.4418 13.2234H22.0595C22.4289 13.2229 22.7831 13.076 23.0444 12.8148C23.3056 12.5535 23.4526 12.1993 23.453 11.8299V10.0097C23.4526 9.64027 23.3056 9.28608 23.0444 9.02484C22.7831 8.7636 22.4289 8.61665 22.0595 8.61621ZM22.0088 11.7779H16.4921V10.0605H22.0088V11.7779ZM13.2075 17.6113H16.9337C17.1252 17.6113 17.3089 17.6874 17.4443 17.8228C17.5797 17.9583 17.6558 18.1419 17.6558 18.3335C17.6558 18.525 17.5797 18.7087 17.4443 18.8441C17.3089 18.9795 17.1252 19.0556 16.9337 19.0556H13.2075C13.016 19.0556 12.8323 18.9795 12.6969 18.8441C12.5614 18.7087 12.4854 18.525 12.4854 18.3335C12.4854 18.1419 12.5614 17.9583 12.6969 17.8228C12.8323 17.6874 13.016 17.6113 13.2075 17.6113ZM25.2936 17.6113H21.5678C21.3763 17.6113 21.1926 17.6874 21.0572 17.8228C20.9218 17.9583 20.8457 18.1419 20.8457 18.3335C20.8457 18.525 20.9218 18.7087 21.0572 18.8441C21.1926 18.9795 21.3763 19.0556 21.5678 19.0556H25.294C25.4855 19.0556 25.6692 18.9795 25.8046 18.8441C25.9401 18.7087 26.0161 18.525 26.0161 18.3335C26.0161 18.1419 25.9401 17.9583 25.8046 17.8228C25.6692 17.6874 25.4851 17.6113 25.2936 17.6113ZM7.89977 26.4016C8.10009 26.2677 8.3356 26.1963 8.57653 26.1963C8.89959 26.1963 9.20943 26.3246 9.43787 26.5531C9.66631 26.7815 9.79465 27.0913 9.79465 27.4144C9.79465 27.6553 9.72321 27.8908 9.58936 28.0912C9.45551 28.2915 9.26527 28.4476 9.04268 28.5398C8.8201 28.632 8.57517 28.6561 8.33888 28.6091C8.10259 28.5621 7.88554 28.4461 7.71518 28.2758C7.54482 28.1054 7.42881 27.8884 7.3818 27.6521C7.3348 27.4158 7.35893 27.1708 7.45112 26.9483C7.54332 26.7257 7.69945 26.5354 7.89977 26.4016ZM19.2508 26.1963C19.0098 26.1962 18.7743 26.2676 18.5739 26.4014C18.3735 26.5352 18.2173 26.7254 18.1251 26.948C18.0328 27.1705 18.0086 27.4155 18.0556 27.6518C18.1025 27.8881 18.2185 28.1052 18.3889 28.2756C18.5592 28.446 18.7763 28.5621 19.0126 28.6091C19.2489 28.6561 19.4938 28.632 19.7164 28.5399C19.939 28.4477 20.1293 28.2915 20.2632 28.0912C20.397 27.8909 20.4685 27.6554 20.4685 27.4144C20.4685 27.2545 20.4371 27.0961 20.3759 26.9483C20.3147 26.8005 20.225 26.6662 20.112 26.5531C19.9989 26.44 19.8646 26.3502 19.7169 26.289C19.5691 26.2278 19.4107 26.1963 19.2508 26.1963ZM28.9133 28.0912C28.7795 27.8908 28.708 27.6553 28.708 27.4144C28.708 27.0913 28.8363 26.7815 29.0648 26.5531C29.2932 26.3246 29.6031 26.1963 29.9261 26.1963C30.1671 26.1963 30.4026 26.2677 30.6029 26.4016C30.8032 26.5354 30.9593 26.7257 31.0515 26.9483C31.1437 27.1708 31.1679 27.4158 31.1209 27.6521C31.0739 27.8884 30.9578 28.1054 30.7875 28.2758C30.6171 28.4461 30.4001 28.5621 30.1638 28.6091C29.9275 28.6561 29.6826 28.632 29.46 28.5398C29.2374 28.4476 29.0471 28.2915 28.9133 28.0912Z" fill="url(#paint0_linear_573_261)"/>
<defs>
<linearGradient id="paint0_linear_573_261" x1="38.9994" y1="20.0004" x2="0.997748" y2="20.0004" gradientUnits="userSpaceOnUse">
<stop stop-color="#9D73FE"/>
<stop offset="1" stop-color="#6826FF"/>
</linearGradient>
</defs>
</svg>
