<svg width="40" height="40" viewBox="0 0 40 40" fill="none" xmlns="http://www.w3.org/2000/svg">
<path d="M36.4348 23.8122C36.1022 22.5463 35.6306 21.2662 35.0351 19.9923C37.0918 15.5874 37.5977 11.2484 36.2132 8.00519C36.6988 7.47368 36.9953 6.76707 36.9953 5.99225C36.9953 4.34481 35.6553 3.00475 34.0078 3.00475C33.233 3.00475 32.5261 3.30125 31.9946 3.78684C28.7516 2.40243 24.4126 2.90826 20.0078 4.96503C18.7339 4.36945 17.4535 3.89786 16.1879 3.56506C11.6984 2.38557 7.89616 3.06597 5.48115 5.48098C3.06588 7.89624 2.38548 11.6985 3.56523 16.1877C3.89778 17.4538 4.36937 18.7339 4.96495 20.0078C2.90817 24.4127 2.40234 28.7514 3.78675 31.9946C3.30116 32.5261 3.00466 33.233 3.00466 34.0078C3.00466 35.655 4.34472 36.9953 5.99217 36.9953C6.76725 36.9953 7.47412 36.6986 8.00563 36.2127C9.23518 36.7377 10.6217 36.9917 12.1104 36.9917C14.5479 36.9917 17.2574 36.3121 19.9922 35.0351C21.2661 35.6306 22.5465 36.1022 23.8121 36.4348C25.2513 36.813 26.6196 37 27.8946 37C30.5965 37 32.8781 36.1598 34.5188 34.5189C36.9341 32.1038 37.6145 28.3013 36.4348 23.8122ZM34.0078 4.99642C34.557 4.99642 35.0037 5.4431 35.0037 5.99225C35.0037 6.54114 34.557 6.98782 34.0078 6.98782C33.4587 6.98782 33.012 6.54114 33.012 5.99225C33.012 5.4431 33.4587 4.99642 34.0078 4.99642ZM23.1393 5.84439C26.195 4.82029 28.9661 4.72483 31.053 5.55335C31.0317 5.69679 31.0203 5.8431 31.0203 5.99225C31.0203 7.63943 32.3606 8.97975 34.0078 8.97975C34.157 8.97975 34.3033 8.96833 34.4467 8.94732C35.2753 11.0339 35.1795 13.8048 34.1557 16.8611C34.0592 17.1495 33.9539 17.4387 33.8418 17.7287C32.508 15.46 30.7923 13.2531 28.7698 11.2303C26.7472 9.20776 24.54 7.49209 22.2716 6.15827C22.5613 6.04621 22.8508 5.94089 23.1393 5.84439ZM32.819 19.9941C31.4924 22.5645 29.6203 25.1024 27.3615 27.3615C25.1024 29.6204 22.5642 31.4924 19.994 32.819C17.4382 31.5018 14.9194 29.6424 12.6385 27.3615C10.3576 25.0804 8.49823 22.5619 7.181 20.0058C8.50757 17.4356 10.3794 14.8977 12.6385 12.6386C14.8976 10.3797 17.4356 8.50764 20.006 7.18107C22.5618 8.4983 25.0806 10.3577 27.3615 12.6386C29.6424 14.9195 31.5018 17.438 32.819 19.9941ZM5.49127 15.6816C4.49907 11.9055 4.99556 8.78312 6.88943 6.88951C8.14544 5.63324 9.94179 4.99201 12.1114 4.99201C13.2126 4.99201 14.4102 5.15751 15.6815 5.49135C16.3632 5.6706 17.0501 5.89498 17.7388 6.16008C15.4948 7.47653 13.2795 9.18104 11.2302 11.2303C9.18097 13.2795 7.47645 15.4948 6.16 17.7389C5.89489 17.0502 5.67051 16.3633 5.49127 15.6816ZM5.99217 35.0037C5.44302 35.0037 4.99633 34.557 4.99633 34.0078C4.99633 33.4587 5.44302 33.012 5.99217 33.012C6.54132 33.012 6.988 33.4587 6.988 34.0078C6.988 34.557 6.54106 35.0037 5.99217 35.0037ZM16.8607 34.1557C13.8048 35.1795 11.0339 35.2753 8.94699 34.4467C8.96826 34.3033 8.97967 34.157 8.97967 34.0078C8.97967 32.3607 7.63936 31.0203 5.99217 31.0203C5.84301 31.0203 5.69645 31.0318 5.55326 31.053C4.72474 28.9662 4.8202 26.1953 5.84405 23.1393C5.94081 22.8506 6.04612 22.5613 6.15818 22.2713C7.49202 24.54 9.20768 26.747 11.2302 28.7698C13.2528 30.7923 15.4597 32.508 17.7284 33.8418C17.4387 33.9539 17.1492 34.0592 16.8607 34.1557ZM33.1106 33.1106C31.217 35.0042 28.0946 35.5009 24.3185 34.5087C23.637 34.3295 22.9501 34.1054 22.262 33.8403C24.5058 32.5238 26.7208 30.8188 28.7698 28.7698C30.819 26.7205 32.5235 24.5053 33.84 22.2612C34.1051 22.9497 34.3295 23.6368 34.5087 24.3183C35.5009 28.0946 35.0044 31.217 33.1106 33.1106Z" fill="url(#paint0_linear_573_252)"/>
<circle cx="20" cy="20" r="5" stroke="url(#paint1_linear_573_252)" stroke-width="2"/>
<defs>
<linearGradient id="paint0_linear_573_252" x1="36.9995" y1="20.0002" x2="2.99973" y2="20.0002" gradientUnits="userSpaceOnUse">
<stop stop-color="#9D73FE"/>
<stop offset="1" stop-color="#6826FF"/>
</linearGradient>
<linearGradient id="paint1_linear_573_252" x1="24.9999" y1="20.0001" x2="14.9999" y2="20.0001" gradientUnits="userSpaceOnUse">
<stop stop-color="#9D73FE"/>
<stop offset="1" stop-color="#6826FF"/>
</linearGradient>
</defs>
</svg>
