<svg width="40" height="40" viewBox="0 0 40 40" fill="none" xmlns="http://www.w3.org/2000/svg">
<path d="M39.0439 11.128C39.0426 11.1267 39.0439 11.1267 39.0439 11.128C37.7253 8.77066 34.7386 7.924 32.3973 9.232L23.4386 13.996L19.2386 11.6093L21.6079 10.2853C22.0893 10.016 22.2612 9.40666 21.9919 8.924C21.7239 8.44133 21.1159 8.272 20.6306 8.53866L17.2053 10.4533L13.1493 8.148C12.8439 7.97467 12.4719 7.97333 12.1666 8.144L6.86125 11.1093C6.55992 11.2773 6.36792 11.588 6.35058 11.932C6.33325 12.276 6.49458 12.604 6.77592 12.8027L15.3226 18.7813L9.73858 21.9133L5.71058 20.1053C5.42258 19.976 5.09058 19.992 4.81325 20.1453L0.845251 22.364C0.562584 22.5213 0.373251 22.808 0.339917 23.1307C0.305251 23.4533 0.430584 23.772 0.673251 23.988L6.92392 29.48C7.10792 29.6413 7.34258 29.7293 7.58392 29.7293C7.62392 29.7293 7.66392 29.7267 7.70392 29.7213L18.3479 28.428C18.4799 28.412 18.6079 28.3707 18.7226 28.304L37.1533 17.792C39.5119 16.476 40.3599 13.4867 39.0439 11.128ZM37.2986 12.104C38.0773 13.4987 37.5746 15.268 36.1719 16.0507L17.9079 26.4667L7.90792 27.6813L3.05592 23.4187L5.35058 22.136L9.37858 23.944C9.66792 24.0733 10.0013 24.0587 10.2773 23.904L17.6879 19.7467C17.9879 19.5787 18.1813 19.268 18.1973 18.924C18.2146 18.5813 18.0533 18.252 17.7719 18.0547L9.22925 12.0773L12.6506 10.1653L22.9293 16.0067C23.2279 16.176 23.5906 16.1813 23.8932 16.02L33.3559 10.988C34.7493 10.208 36.5173 10.7093 37.2986 12.104Z" fill="url(#paint0_linear_573_243)"/>
<path d="M34.4119 24.06L23.7919 30.1147C23.3119 30.388 23.1452 30.9987 23.4185 31.4773C23.6025 31.8013 23.9412 31.9827 24.2879 31.9827C24.4559 31.9827 24.6252 31.9413 24.7812 31.8507L35.4012 25.796C35.8812 25.5227 36.0479 24.912 35.7745 24.4333C35.5025 23.952 34.8905 23.7827 34.4119 24.06Z" fill="url(#paint1_linear_573_243)"/>
<defs>
<linearGradient id="paint0_linear_573_243" x1="39.6633" y1="18.8733" x2="0.333919" y2="18.8733" gradientUnits="userSpaceOnUse">
<stop stop-color="#9D73FE"/>
<stop offset="1" stop-color="#6826FF"/>
</linearGradient>
<linearGradient id="paint1_linear_573_243" x1="35.9058" y1="27.9546" x2="23.287" y2="27.9546" gradientUnits="userSpaceOnUse">
<stop stop-color="#9D73FE"/>
<stop offset="1" stop-color="#6826FF"/>
</linearGradient>
</defs>
</svg>
