<svg width="40" height="40" viewBox="0 0 40 40" fill="none" xmlns="http://www.w3.org/2000/svg">
<path fill-rule="evenodd" clip-rule="evenodd" d="M13.9626 5.21173C15.8425 4.43215 17.9028 4 20.0628 4C28.8649 4 36.0005 11.1356 36.0005 19.9378C36.0005 23.5253 34.8143 26.837 32.814 29.5004H34.9809C35.5332 29.5004 35.9809 29.9481 35.9809 30.5004C35.9809 31.0527 35.5332 31.5004 34.9809 31.5004H30.624C30.0717 31.5004 29.624 31.0527 29.624 30.5004V26.1436C29.624 25.5913 30.0717 25.1436 30.624 25.1436C31.1763 25.1436 31.624 25.5913 31.624 26.1436V27.7251C33.1249 25.5015 34.0005 22.8224 34.0005 19.9378C34.0005 12.2402 27.7603 6 20.0628 6C18.1717 6 16.3714 6.37797 14.7288 7.05918C14.2186 7.27074 13.6335 7.02868 13.422 6.51852C13.2104 6.00836 13.4525 5.42329 13.9626 5.21173ZM5.01855 8.49951C4.46627 8.49951 4.01855 8.94723 4.01855 9.49951C4.01855 10.0518 4.46627 10.4995 5.01855 10.4995H7.18645C5.1862 13.1629 4 16.4746 4 20.0621C4 28.8643 11.1356 35.9999 19.9378 35.9999C22.0977 35.9999 24.158 35.5677 26.0379 34.7882C26.548 34.5766 26.7901 33.9915 26.5785 33.4814C26.367 32.9712 25.7819 32.7291 25.2718 32.9407C23.6291 33.6219 21.8288 33.9999 19.9378 33.9999C12.2402 33.9999 6 27.7597 6 20.0621C6 17.1782 6.87516 14.4997 8.3754 12.2764V13.8564C8.3754 14.4086 8.82312 14.8564 9.3754 14.8564C9.92769 14.8564 10.3754 14.4086 10.3754 13.8564V9.49951C10.3754 8.94723 9.92769 8.49951 9.3754 8.49951H5.01855ZM21.5474 9.74567C21.8454 9.32349 22.5099 9.57563 22.4528 10.0892L21.7394 16.5105H26.2238C27.0346 16.5105 27.5083 17.4248 27.0407 18.0872L18.452 30.2546C18.154 30.6768 17.4895 30.4246 17.5465 29.911L18.26 23.4898H13.7756C12.9648 23.4898 12.4911 22.5755 12.9587 21.9131L21.5474 9.74567ZM15.7055 21.4898H20.0476C20.286 21.4898 20.4715 21.697 20.4452 21.9339L20.1777 24.3418L24.2938 18.5105H19.9517C19.7133 18.5105 19.5279 18.3033 19.5542 18.0663L19.8217 15.6585L15.7055 21.4898Z" fill="url(#paint0_linear_573_326)"/>
<defs>
<linearGradient id="paint0_linear_573_326" x1="36.0001" y1="20.0001" x2="3.99975" y2="20.0001" gradientUnits="userSpaceOnUse">
<stop stop-color="#9D73FE"/>
<stop offset="1" stop-color="#6826FF"/>
</linearGradient>
</defs>
</svg>
