<svg width="40" height="40" viewBox="0 0 40 40" fill="none" xmlns="http://www.w3.org/2000/svg">
<path fill-rule="evenodd" clip-rule="evenodd" d="M21.99 4.41344L21.9921 4.415L31.0366 10.9812C31.7739 11.5066 32.1929 12.357 32.1929 13.2433V21.7369C32.1929 22.2339 31.7899 22.6369 31.2929 22.6369C30.7958 22.6369 30.3929 22.2339 30.3929 21.7369V13.2433C30.3929 12.9191 30.2393 12.6226 29.9905 12.446L29.9825 12.4404L20.9268 5.86596C20.6138 5.6361 20.1838 5.63609 19.8707 5.86595L19.8665 5.86902L10.8069 12.4404C10.5461 12.6298 10.3967 12.9251 10.3967 13.2433V20.3491C10.3967 20.8461 9.99374 21.2491 9.49668 21.2491C8.99962 21.2491 8.59668 20.8461 8.59668 20.3491V13.2433C8.59668 12.3493 9.02157 11.5121 9.74959 10.9837L18.8078 4.41326C19.7539 3.72026 21.0439 3.72032 21.99 4.41344ZM38.3723 23.6618C37.9862 23.2489 37.5082 22.9554 37.0026 22.7994C36.8004 22.7536 36.5614 22.7077 36.2948 22.6894C35.9547 22.6618 35.6514 22.671 35.4032 22.6985C35.2837 22.7169 35.155 22.7536 35.0079 22.7994C34.8792 22.8453 34.7505 22.8912 34.6218 22.9462C34.3736 23.0655 34.1346 23.2123 33.914 23.4049L27.5345 28.753C27.1944 29.0374 27.1484 29.542 27.4334 29.8814C27.7184 30.2208 28.2239 30.2667 28.5641 29.9823L34.9435 24.6341C35.6146 24.0746 36.6074 24.1296 37.2049 24.7717C37.5174 25.102 37.6737 25.5331 37.6461 25.9918C37.6185 26.4505 37.4163 26.8541 37.067 27.1477L28.3986 34.4681C27.6724 35.0736 26.7624 35.413 25.8156 35.413H14.509L10.4 33.9728V25.0194H16.2739C17.0644 25.0194 17.8366 25.2488 18.4893 25.6891L23.8484 29.2576C24.0874 29.4135 24.2437 29.6612 24.2988 29.9456C24.3448 30.23 24.2804 30.5143 24.115 30.7437C23.8208 31.1473 23.2693 31.2849 22.8188 31.0739L18.2319 28.8906C17.8366 28.698 17.3494 28.8723 17.1656 29.2668C16.9725 29.6612 17.1472 30.1474 17.5424 30.3309L22.1294 32.5142C22.4971 32.6885 22.8832 32.771 23.2693 32.771C24.0966 32.771 24.8963 32.3857 25.4111 31.6886C25.8431 31.1015 26.0086 30.3859 25.8799 29.6704C25.7512 28.9549 25.3467 28.3402 24.74 27.9366L19.3809 24.3681C18.4617 23.7535 17.3862 23.4324 16.2739 23.4324H10.3908C10.3173 22.7352 9.7933 22.1665 9.11307 22.0289L3.34947 22.0014C2.467 21.9647 1.75 22.6802 1.75 23.57V35.4038C1.75 36.2845 2.467 37 3.34947 37H8.80053C9.60026 37 10.2621 36.4129 10.3816 35.6423L14.1045 36.9541C14.1872 36.9817 14.2792 37 14.3711 37H25.8064C27.1301 37 28.417 36.5322 29.4281 35.679L38.0965 28.3586C38.7859 27.7806 39.1904 26.9642 39.2456 26.0652C39.2915 25.1754 38.979 24.3131 38.3723 23.6618ZM8.80053 34.5415V35.4038H3.34947V23.57H5.27067V29.4869C5.27067 29.9272 5.62917 30.285 6.0704 30.285C6.51163 30.285 6.87013 29.9272 6.87013 29.4869V23.57H8.79133V24.2122V34.4865C8.80053 34.5048 8.80053 34.5232 8.80053 34.5415ZM18.5871 12.7485C18.5871 12.3762 18.886 12.0773 19.2582 12.0773H21.7465C22.1187 12.0773 22.4176 12.3762 22.4176 12.7485V20.1574C22.4176 20.6545 22.8205 21.0574 23.3176 21.0574C23.8147 21.0574 24.2176 20.6545 24.2176 20.1574V12.7485C24.2176 11.3821 23.1128 10.2773 21.7465 10.2773H19.2582C17.8919 10.2773 16.7871 11.3821 16.7871 12.7485V20.1574C16.7871 20.6545 17.1901 21.0574 17.6871 21.0574C18.1842 21.0574 18.5871 20.6545 18.5871 20.1574V12.7485Z" fill="url(#paint0_linear_573_272)"/>
<defs>
<linearGradient id="paint0_linear_573_272" x1="39.2495" y1="20.447" x2="1.7497" y2="20.447" gradientUnits="userSpaceOnUse">
<stop stop-color="#9D73FE"/>
<stop offset="1" stop-color="#6826FF"/>
</linearGradient>
</defs>
</svg>
