<svg width="40" height="40" viewBox="0 0 40 40" fill="none" xmlns="http://www.w3.org/2000/svg">
<path d="M16.1914 22.2852C15.7707 22.2852 15.4297 22.6262 15.4297 23.0469V24.5703C15.4297 24.991 15.7707 25.332 16.1914 25.332C16.6121 25.332 16.9531 24.991 16.9531 24.5703V23.0469C16.9531 22.6262 16.6121 22.2852 16.1914 22.2852Z" fill="url(#paint0_linear_573_298)"/>
<path d="M23.8086 25.332C24.2293 25.332 24.5703 24.991 24.5703 24.5703V23.0469C24.5703 22.6262 24.2293 22.2852 23.8086 22.2852C23.3879 22.2852 23.0469 22.6262 23.0469 23.0469V24.5703C23.0469 24.991 23.3879 25.332 23.8086 25.332Z" fill="url(#paint1_linear_573_298)"/>
<path d="M20.8125 12.3828H29.1406C29.5613 12.3828 29.9023 12.0418 29.9023 11.6211C29.9023 11.2004 29.5613 10.8594 29.1406 10.8594H20.8125C20.3918 10.8594 20.0508 11.2004 20.0508 11.6211C20.0508 12.0418 20.3918 12.3828 20.8125 12.3828Z" fill="url(#paint2_linear_573_298)"/>
<path d="M33 15.9375V10.3008C33 8.48073 31.5193 7 29.6992 7H20.2539C18.4339 7 16.9531 8.48073 16.9531 10.3008V16.1914H15.9375C13.1533 16.1914 10.8183 18.15 10.2371 20.7617H10.0977V16.0604C10.9842 15.746 11.6211 14.8993 11.6211 13.9062C11.6211 12.6462 10.596 11.6211 9.33594 11.6211C8.0759 11.6211 7.05078 12.6462 7.05078 13.9062C7.05078 14.8993 7.68763 15.746 8.57422 16.0604V20.8755C7.66132 21.1752 7 22.035 7 23.0469V26.0938C7 27.3538 8.02512 28.3789 9.28516 28.3789H10.226C10.7881 31.0159 13.1353 33 15.9375 33H24.0625C26.8647 33 29.2119 31.0159 29.774 28.3789H30.7148C31.9749 28.3789 33 27.3538 33 26.0938V23.0469C33 21.7868 31.9749 20.7617 30.7148 20.7617H29.7626C29.6443 20.2295 29.4521 19.7168 29.1915 19.2383H29.6992C31.5193 19.2383 33 17.7576 33 15.9375ZM18.4766 10.3008C18.4766 9.32075 19.2739 8.52344 20.2539 8.52344H29.6992C30.6792 8.52344 31.4766 9.32075 31.4766 10.3008V15.9375C31.4766 16.9175 30.6792 17.7148 29.6992 17.7148H20.7617C20.6434 17.7148 20.5269 17.7424 20.4211 17.7952L18.4766 18.7675V10.3008ZM9.33594 13.1445C9.75595 13.1445 10.0977 13.4862 10.0977 13.9062C10.0977 14.3263 9.75595 14.668 9.33594 14.668C8.91593 14.668 8.57422 14.3263 8.57422 13.9062C8.57422 13.4862 8.91593 13.1445 9.33594 13.1445ZM8.52344 26.0938V23.0469C8.52344 22.6269 8.86514 22.2852 9.28516 22.2852H10.0977V26.8555H9.28516C8.86514 26.8555 8.52344 26.5138 8.52344 26.0938ZM31.4766 23.0469V26.0938C31.4766 26.5138 31.1349 26.8555 30.7148 26.8555H29.9023V22.2852H30.7148C31.1349 22.2852 31.4766 22.6269 31.4766 23.0469ZM28.3789 22.0312V27.1602C28.3789 29.5402 26.4426 31.4766 24.0625 31.4766H15.9375C13.5574 31.4766 11.6211 29.5402 11.6211 27.1602V22.0312C11.6211 19.6512 13.5574 17.7148 15.9375 17.7148H16.9531V20C16.9531 20.5653 17.5494 20.9344 18.0555 20.6813L20.9415 19.2383H27.3522C28.0143 20.0175 28.3789 21.0057 28.3789 22.0312Z" fill="url(#paint3_linear_573_298)"/>
<path d="M20.8125 15.4297H29.1406C29.5613 15.4297 29.9023 15.0886 29.9023 14.668C29.9023 14.2473 29.5613 13.9062 29.1406 13.9062H20.8125C20.3918 13.9062 20.0508 14.2473 20.0508 14.668C20.0508 15.0886 20.3918 15.4297 20.8125 15.4297Z" fill="url(#paint4_linear_573_298)"/>
<path d="M17.7148 27.6172C17.7148 28.0379 18.0559 28.3789 18.4766 28.3789H21.5234C21.9441 28.3789 22.2852 28.0379 22.2852 27.6172C22.2852 27.1965 21.9441 26.8555 21.5234 26.8555H18.4766C18.0559 26.8555 17.7148 27.1965 17.7148 27.6172Z" fill="url(#paint5_linear_573_298)"/>
<defs>
<linearGradient id="paint0_linear_573_298" x1="16.9531" y1="23.8086" x2="15.4297" y2="23.8086" gradientUnits="userSpaceOnUse">
<stop stop-color="#9D73FE"/>
<stop offset="1" stop-color="#6826FF"/>
</linearGradient>
<linearGradient id="paint1_linear_573_298" x1="24.5703" y1="23.8086" x2="23.0469" y2="23.8086" gradientUnits="userSpaceOnUse">
<stop stop-color="#9D73FE"/>
<stop offset="1" stop-color="#6826FF"/>
</linearGradient>
<linearGradient id="paint2_linear_573_298" x1="29.9022" y1="11.6211" x2="20.0507" y2="11.6211" gradientUnits="userSpaceOnUse">
<stop stop-color="#9D73FE"/>
<stop offset="1" stop-color="#6826FF"/>
</linearGradient>
<linearGradient id="paint3_linear_573_298" x1="32.9996" y1="20.0001" x2="6.9998" y2="20.0001" gradientUnits="userSpaceOnUse">
<stop stop-color="#9D73FE"/>
<stop offset="1" stop-color="#6826FF"/>
</linearGradient>
<linearGradient id="paint4_linear_573_298" x1="29.9022" y1="14.668" x2="20.0507" y2="14.668" gradientUnits="userSpaceOnUse">
<stop stop-color="#9D73FE"/>
<stop offset="1" stop-color="#6826FF"/>
</linearGradient>
<linearGradient id="paint5_linear_573_298" x1="22.2851" y1="27.6172" x2="17.7148" y2="27.6172" gradientUnits="userSpaceOnUse">
<stop stop-color="#9D73FE"/>
<stop offset="1" stop-color="#6826FF"/>
</linearGradient>
</defs>
</svg>
