<svg width="40" height="40" viewBox="0 0 40 40" fill="none" xmlns="http://www.w3.org/2000/svg">
<path d="M31.24 17.84C31.24 18.2 31.2 18.56 31.16 18.88C31.12 19.16 31.2 19.44 31.36 19.64C31.52 19.84 31.76 20 32.04 20.04C34.28 20.28 36 22.16 36 24.44C36 26.88 34 28.88 31.56 28.88H30.44C29.88 28.88 29.44 29.32 29.44 29.88C29.44 30.44 29.88 30.88 30.44 30.88H31.56C35.12 30.88 38 28 38 24.44C38 21.48 36 18.96 33.24 18.24C33.24 18.12 33.24 17.96 33.24 17.84C33.24 12.96 29.28 9 24.4 9C21.24 9 18.32 10.72 16.76 13.44C16.32 13.36 15.88 13.32 15.44 13.32C12.36 13.32 9.64 15.2 8.52 18C8.48 18 8.44 18 8.4 18C4.88 18 2 20.88 2 24.44C2 28 4.88 30.88 8.44 30.88H9.56C10.12 30.88 10.56 30.44 10.56 29.88C10.56 29.32 10.12 28.88 9.56 28.88H8.44C6 28.88 4 26.88 4 24.44C4 22 6 20 8.44 20C8.68 20 8.88 20 9.08 20.04C9.6 20.12 10.08 19.8 10.2 19.32C10.84 16.96 13 15.32 15.44 15.32C16 15.32 16.52 15.4 17 15.56C17.48 15.72 18 15.48 18.2 15C19.32 12.56 21.76 11 24.4 11C28.2 11 31.24 14.08 31.24 17.84Z" fill="url(#paint0_linear_573_324)"/>
<path d="M13.1075 27.6918C12.4658 27.6918 11.9311 27.6032 11.5033 27.4259C11.0817 27.2426 10.7639 27.0073 10.55 26.7201C10.3422 26.4268 10.2322 26.1182 10.22 25.7943C10.22 25.7393 10.2383 25.6934 10.275 25.6568C10.3117 25.6201 10.3575 25.6018 10.4125 25.6018H11.87C11.9556 25.6018 12.0228 25.617 12.0717 25.6476C12.1206 25.672 12.1725 25.7087 12.2275 25.7576C12.2825 25.8248 12.3467 25.889 12.42 25.9501C12.4933 26.0051 12.5881 26.0509 12.7042 26.0876C12.8203 26.1182 12.9547 26.1334 13.1075 26.1334C13.3886 26.1334 13.6056 26.0968 13.7583 26.0234C13.9111 25.944 13.9875 25.837 13.9875 25.7026C13.9875 25.5987 13.9447 25.5132 13.8592 25.4459C13.7797 25.3787 13.6422 25.3176 13.4467 25.2626C13.2511 25.2076 12.9853 25.1495 12.6492 25.0884C12.1786 25.009 11.7722 24.8929 11.43 24.7401C11.0878 24.5812 10.825 24.3704 10.6417 24.1076C10.4644 23.8387 10.3758 23.5087 10.3758 23.1176C10.3758 22.7204 10.4858 22.369 10.7058 22.0634C10.9319 21.7579 11.2436 21.5195 11.6408 21.3484C12.0442 21.1773 12.5117 21.0918 13.0433 21.0918C13.4833 21.0918 13.8714 21.1498 14.2075 21.2659C14.5497 21.382 14.8369 21.5348 15.0692 21.7243C15.3014 21.9076 15.4786 22.1062 15.6008 22.3201C15.7231 22.534 15.7872 22.7387 15.7933 22.9343C15.7933 22.9893 15.7719 23.0382 15.7292 23.0809C15.6925 23.1176 15.6497 23.1359 15.6008 23.1359H14.07C13.9967 23.1359 13.9356 23.1237 13.8867 23.0993C13.8378 23.0748 13.7889 23.0351 13.74 22.9801C13.7094 22.8945 13.6331 22.8182 13.5108 22.7509C13.3886 22.6837 13.2328 22.6501 13.0433 22.6501C12.8356 22.6501 12.6767 22.6868 12.5667 22.7601C12.4567 22.8273 12.4017 22.9282 12.4017 23.0626C12.4017 23.1543 12.4353 23.2337 12.5025 23.3009C12.5697 23.3682 12.6889 23.4293 12.86 23.4843C13.0311 23.5332 13.2694 23.5882 13.575 23.6493C14.1556 23.7348 14.6231 23.857 14.9775 24.0159C15.3381 24.1748 15.6008 24.3826 15.7658 24.6393C15.9308 24.8959 16.0133 25.2168 16.0133 25.6018C16.0133 26.0357 15.8881 26.4084 15.6375 26.7201C15.3869 27.0318 15.0417 27.2732 14.6017 27.4443C14.1678 27.6093 13.6697 27.6918 13.1075 27.6918ZM18.183 27.6918C17.8469 27.6918 17.5444 27.6276 17.2755 27.4993C17.0127 27.3709 16.8049 27.1998 16.6521 26.9859C16.5055 26.7659 16.4321 26.5215 16.4321 26.2526C16.4321 25.8126 16.6094 25.4673 16.9638 25.2168C17.3244 24.9601 17.8041 24.7829 18.403 24.6851L19.4663 24.5201V24.4559C19.4663 24.2665 19.4357 24.1259 19.3746 24.0343C19.3135 23.9365 19.1913 23.8876 19.008 23.8876C18.8796 23.8876 18.7757 23.912 18.6963 23.9609C18.6169 24.0098 18.5435 24.0801 18.4763 24.1718C18.4152 24.239 18.3357 24.2726 18.238 24.2726H16.9455C16.8844 24.2726 16.8324 24.2543 16.7896 24.2176C16.753 24.1809 16.7377 24.132 16.7438 24.0709C16.7499 23.9609 16.7957 23.8326 16.8813 23.6859C16.9669 23.5332 17.0982 23.3865 17.2755 23.2459C17.4588 23.0993 17.6941 22.9801 17.9813 22.8884C18.2685 22.7907 18.6138 22.7418 19.0171 22.7418C19.4266 22.7418 19.778 22.7876 20.0713 22.8793C20.3646 22.9709 20.606 23.0993 20.7955 23.2643C20.9849 23.4293 21.1255 23.6309 21.2171 23.8693C21.3088 24.1015 21.3546 24.3612 21.3546 24.6484V27.3618C21.3546 27.429 21.3302 27.487 21.2813 27.5359C21.2385 27.5787 21.1835 27.6001 21.1163 27.6001H19.7871C19.7199 27.6001 19.6619 27.5787 19.613 27.5359C19.5641 27.487 19.5396 27.429 19.5396 27.3618V27.0684C19.4602 27.1907 19.3532 27.2976 19.2188 27.3893C19.0905 27.4809 18.9377 27.5543 18.7605 27.6093C18.5894 27.6643 18.3969 27.6918 18.183 27.6918ZM18.7146 26.4909C18.8674 26.4909 19.0019 26.4604 19.118 26.3993C19.2341 26.332 19.3227 26.2312 19.3838 26.0968C19.451 25.9623 19.4846 25.7943 19.4846 25.5926V25.5284L18.8246 25.6568C18.5985 25.6995 18.4396 25.7607 18.348 25.8401C18.2563 25.9195 18.2105 26.0112 18.2105 26.1151C18.2105 26.1884 18.2319 26.2526 18.2746 26.3076C18.3174 26.3626 18.3755 26.4084 18.4488 26.4451C18.5282 26.4757 18.6169 26.4909 18.7146 26.4909ZM23.7421 27.6918C23.4059 27.6918 23.1034 27.6276 22.8346 27.4993C22.5718 27.3709 22.364 27.1998 22.2112 26.9859C22.0646 26.7659 21.9912 26.5215 21.9912 26.2526C21.9912 25.8126 22.1684 25.4673 22.5229 25.2168C22.8834 24.9601 23.3632 24.7829 23.9621 24.6851L25.0254 24.5201V24.4559C25.0254 24.2665 24.9948 24.1259 24.9337 24.0343C24.8726 23.9365 24.7504 23.8876 24.5671 23.8876C24.4387 23.8876 24.3348 23.912 24.2554 23.9609C24.1759 24.0098 24.1026 24.0801 24.0354 24.1718C23.9743 24.239 23.8948 24.2726 23.7971 24.2726H22.5046C22.4434 24.2726 22.3915 24.2543 22.3487 24.2176C22.3121 24.1809 22.2968 24.132 22.3029 24.0709C22.309 23.9609 22.3548 23.8326 22.4404 23.6859C22.5259 23.5332 22.6573 23.3865 22.8346 23.2459C23.0179 23.0993 23.2532 22.9801 23.5404 22.8884C23.8276 22.7907 24.1729 22.7418 24.5762 22.7418C24.9857 22.7418 25.3371 22.7876 25.6304 22.8793C25.9237 22.9709 26.1651 23.0993 26.3546 23.2643C26.544 23.4293 26.6846 23.6309 26.7762 23.8693C26.8679 24.1015 26.9137 24.3612 26.9137 24.6484V27.3618C26.9137 27.429 26.8893 27.487 26.8404 27.5359C26.7976 27.5787 26.7426 27.6001 26.6754 27.6001H25.3462C25.279 27.6001 25.2209 27.5787 25.1721 27.5359C25.1232 27.487 25.0987 27.429 25.0987 27.3618V27.0684C25.0193 27.1907 24.9123 27.2976 24.7779 27.3893C24.6496 27.4809 24.4968 27.5543 24.3196 27.6093C24.1484 27.6643 23.9559 27.6918 23.7421 27.6918ZM24.2737 26.4909C24.4265 26.4909 24.5609 26.4604 24.6771 26.3993C24.7932 26.332 24.8818 26.2312 24.9429 26.0968C25.0101 25.9623 25.0437 25.7943 25.0437 25.5926V25.5284L24.3837 25.6568C24.1576 25.6995 23.9987 25.7607 23.9071 25.8401C23.8154 25.9195 23.7696 26.0112 23.7696 26.1151C23.7696 26.1884 23.7909 26.2526 23.8337 26.3076C23.8765 26.3626 23.9346 26.4084 24.0079 26.4451C24.0873 26.4757 24.1759 26.4909 24.2737 26.4909ZM29.9245 27.6918C29.5089 27.6918 29.1545 27.649 28.8611 27.5634C28.5678 27.4718 28.3264 27.3587 28.137 27.2243C27.9536 27.0898 27.8192 26.9523 27.7336 26.8118C27.6481 26.6651 27.6022 26.5368 27.5961 26.4268C27.59 26.3595 27.6084 26.3045 27.6511 26.2618C27.7 26.2129 27.752 26.1884 27.807 26.1884H29.1361C29.1422 26.1884 29.1514 26.1915 29.1636 26.1976C29.1759 26.1976 29.1881 26.2037 29.2003 26.2159C29.2797 26.2404 29.3531 26.2801 29.4203 26.3351C29.4936 26.3901 29.5731 26.439 29.6586 26.4818C29.7503 26.5245 29.8572 26.5459 29.9795 26.5459C30.0834 26.5459 30.175 26.5245 30.2545 26.4818C30.34 26.4329 30.3828 26.3657 30.3828 26.2801C30.3828 26.2068 30.3584 26.1426 30.3095 26.0876C30.2667 26.0326 30.172 25.9807 30.0253 25.9318C29.8786 25.8768 29.6434 25.8187 29.3195 25.7576C29.02 25.6965 28.745 25.6079 28.4945 25.4918C28.25 25.3695 28.0545 25.2076 27.9078 25.0059C27.7672 24.8043 27.697 24.5568 27.697 24.2634C27.697 24.0129 27.7795 23.7715 27.9445 23.5393C28.1095 23.307 28.3539 23.1176 28.6778 22.9709C29.0078 22.8182 29.4111 22.7418 29.8878 22.7418C30.2484 22.7418 30.5661 22.7845 30.8411 22.8701C31.1222 22.9557 31.3575 23.0626 31.547 23.1909C31.7425 23.3193 31.8892 23.4568 31.987 23.6034C32.0909 23.7501 32.1459 23.8815 32.152 23.9976C32.1581 24.0648 32.1397 24.1229 32.097 24.1718C32.0542 24.2145 32.0053 24.2359 31.9503 24.2359H30.7495C30.7311 24.2359 30.7097 24.2359 30.6853 24.2359C30.667 24.2298 30.6517 24.2207 30.6395 24.2084C30.5539 24.1901 30.4745 24.1565 30.4011 24.1076C30.3339 24.0526 30.2606 24.0037 30.1811 23.9609C30.1017 23.912 30.0009 23.8876 29.8786 23.8876C29.7747 23.8876 29.6892 23.912 29.622 23.9609C29.5609 24.0098 29.5303 24.074 29.5303 24.1534C29.5303 24.2207 29.5517 24.2818 29.5945 24.3368C29.6372 24.3918 29.735 24.4437 29.8878 24.4926C30.0406 24.5415 30.282 24.5934 30.612 24.6484C31.0397 24.7157 31.382 24.8287 31.6386 24.9876C31.8953 25.1404 32.0786 25.3207 32.1886 25.5284C32.2986 25.7362 32.3536 25.944 32.3536 26.1518C32.3536 26.4634 32.2589 26.7354 32.0695 26.9676C31.8861 27.1998 31.6111 27.3801 31.2445 27.5084C30.8839 27.6307 30.4439 27.6918 29.9245 27.6918Z" fill="url(#paint1_linear_573_324)"/>
<defs>
<linearGradient id="paint0_linear_573_324" x1="37.9995" y1="19.9401" x2="1.99972" y2="19.9401" gradientUnits="userSpaceOnUse">
<stop stop-color="#9D73FE"/>
<stop offset="1" stop-color="#6826FF"/>
</linearGradient>
<linearGradient id="paint1_linear_573_324" x1="32.9997" y1="24.1002" x2="9.99982" y2="24.1002" gradientUnits="userSpaceOnUse">
<stop stop-color="#9D73FE"/>
<stop offset="1" stop-color="#6826FF"/>
</linearGradient>
</defs>
</svg>
