<svg width="40" height="40" viewBox="0 0 40 40" fill="none" xmlns="http://www.w3.org/2000/svg">
<path fill-rule="evenodd" clip-rule="evenodd" d="M24.2471 31.7584C24.2471 34.097 26.1501 36 28.4886 36C30.8272 36 32.7302 34.097 32.7302 31.7584V17.6443L32.8645 17.5506C34.9189 16.1159 36.146 13.768 36.146 11.2671C36.146 8.03083 34.0946 5.1287 31.0411 4.04683C30.9521 4.01561 30.86 4 30.7663 4C30.593 4 30.4291 4.05152 30.2886 4.15143C30.0701 4.30598 29.9389 4.55888 29.9389 4.82584V10.3772L28.4886 11.1031L27.0383 10.3772V4.82584C27.0383 4.55888 26.9072 4.30598 26.6887 4.15143C26.5482 4.05308 26.3827 4 26.2109 4C26.1173 4 26.0252 4.01561 25.9362 4.04683C22.8826 5.1287 20.8313 8.02927 20.8313 11.2671C20.8313 13.768 22.0583 16.1159 24.1128 17.5506L24.2471 17.6443V31.7584ZM22.4845 11.2686C22.4845 9.36404 23.3603 7.61401 24.8856 6.46502L25.3867 6.08879V10.8846C25.3867 11.1984 25.5615 11.4825 25.8441 11.623L28.1202 12.761C28.2357 12.8188 28.3637 12.8485 28.4902 12.8485C28.6166 12.8485 28.7447 12.8188 28.8586 12.7626L31.1347 11.6245C31.4173 11.484 31.5922 11.2015 31.5922 10.8861V6.08879L32.0917 6.46502C33.6169 7.61245 34.4927 9.36247 34.4927 11.2671C34.4927 13.4027 33.3406 15.3947 31.4891 16.4672C31.2347 16.6139 31.077 16.8887 31.077 17.1822V31.76C31.077 33.1868 29.9155 34.3483 28.4886 34.3483C27.0618 34.3483 25.9003 33.1868 25.9003 31.76V17.1837C25.9003 16.8902 25.7426 16.6155 25.4881 16.4687C23.6351 15.3962 22.4845 13.4042 22.4845 11.2686ZM6.43112 16.0623C6.43554 16.0504 6.44025 16.0386 6.44526 16.0269L6.46243 15.9847C7.50058 13.5119 8.7932 10.4349 10.6494 7.94023L10.6681 7.91525C10.9991 7.49063 11.469 7.18933 11.9919 7.06912C14.1853 6.56332 16.4053 6.25734 18.5862 6.16055C18.5934 6.16055 18.6002 6.16013 18.6068 6.15973C18.6131 6.15935 18.6191 6.15898 18.6252 6.15898C19.067 6.15898 19.4276 6.50555 19.4479 6.94735C19.4573 7.16903 19.3808 7.37979 19.2325 7.54214C19.0842 7.7045 18.8796 7.79973 18.6595 7.8091C16.5754 7.9012 14.4585 8.1947 12.3651 8.67864C12.2105 8.71455 12.0716 8.80353 11.9748 8.92843C10.4239 11.0139 9.30258 13.5103 8.39382 15.6537C11.7877 15.1352 15.2177 14.839 18.6063 14.7719H18.622C19.0684 14.7719 19.44 15.1356 19.4478 15.5821C19.4572 16.038 19.0934 16.4157 18.6376 16.4251C14.933 16.4969 11.1801 16.8497 7.48486 17.4742C6.44203 17.6537 5.67083 18.5529 5.6521 19.6098C5.64273 21.6408 5.78323 23.7109 6.06736 25.7669C6.22347 26.8456 7.16171 27.6574 8.24825 27.6574C12.763 27.6637 21.6568 27.6637 21.6568 27.6637C22.1126 27.6637 22.4826 28.0337 22.4826 28.4895C22.4826 28.9454 22.1142 29.3153 21.6583 29.3153C21.6583 29.3153 18.4211 29.3153 14.8615 29.314V31.5258C14.8615 32.8184 13.8093 33.8691 12.5183 33.8691H7.96449C6.67187 33.8691 5.62123 32.8169 5.62123 31.5258V28.4894C5.62123 28.4203 5.62973 28.3532 5.64575 28.289C5.01188 27.7076 4.5688 26.9167 4.43598 26.0198L4.43286 25.9964C4.13624 23.8592 3.99106 21.7064 4.00043 19.5973C4.02581 18.0089 5.00919 16.6297 6.43112 16.0623ZM12.2061 22.4182C12.2061 23.5028 11.3268 24.3821 10.2422 24.3821C9.15754 24.3821 8.27827 23.5028 8.27827 22.4182C8.27827 21.3336 9.15754 20.4543 10.2422 20.4543C11.3268 20.4543 12.2061 21.3336 12.2061 22.4182ZM29.6938 29.8616C29.6938 30.5273 29.1542 31.0668 28.4886 31.0668C27.823 31.0668 27.2834 30.5273 27.2834 29.8616C27.2834 29.196 27.823 28.6565 28.4886 28.6565C29.1542 28.6565 29.6938 29.196 29.6938 29.8616ZM7.27291 31.5242C7.27291 31.9052 7.58357 32.2158 7.96449 32.2158H12.5183C12.8992 32.2158 13.2099 31.9052 13.2099 31.5242V29.3153H7.27291V31.5242ZM16.2463 20.1405C16.2463 20.5964 16.6163 20.9663 17.0721 20.9663H21.6259C22.0818 20.9663 22.4518 20.5964 22.4518 20.1405C22.4518 19.6847 22.0818 19.3147 21.6259 19.3147H17.0721C16.6163 19.3147 16.2463 19.6847 16.2463 20.1405ZM17.0721 24.7614C16.6163 24.7614 16.2463 24.3915 16.2463 23.9356C16.2463 23.4798 16.6163 23.1098 17.0721 23.1098H21.6259C22.0818 23.1098 22.4518 23.4798 22.4518 23.9356C22.4518 24.3915 22.0818 24.7614 21.6259 24.7614H17.0721Z" fill="url(#paint0_linear_573_270)"/>
<defs>
<linearGradient id="paint0_linear_573_270" x1="36.1455" y1="20.0002" x2="3.99975" y2="20.0002" gradientUnits="userSpaceOnUse">
<stop stop-color="#9D73FE"/>
<stop offset="1" stop-color="#6826FF"/>
</linearGradient>
</defs>
</svg>
