<svg width="40" height="40" viewBox="0 0 40 40" fill="none" xmlns="http://www.w3.org/2000/svg">
<path fill-rule="evenodd" clip-rule="evenodd" d="M29.7798 4.47744C29.6304 4.33969 29.4316 4.26845 29.2287 4.28003C29.0258 4.2916 28.8363 4.385 28.7036 4.53885L25.9527 7.72703C25.7904 7.91506 25.7318 8.17121 25.7961 8.4111L26.5653 11.2819L6.60696 16.6298C6.41483 16.6813 6.25102 16.807 6.15156 16.9792L4.35048 20.0988C4.25103 20.271 4.22407 20.4757 4.27556 20.6679L4.58101 21.8078C4.68822 22.2079 5.09947 22.4453 5.49956 22.3381L6.1709 22.1582V28.6924H5.05762C4.64341 28.6924 4.30762 29.0282 4.30762 29.4424V34.9712C4.30762 35.3854 4.64341 35.7212 5.05762 35.7212H8.78488C9.1991 35.7212 9.53488 35.3854 9.53488 34.9712V29.4424C9.53488 29.0282 9.1991 28.6924 8.78488 28.6924H7.6709V21.7563L16.2921 19.4463C16.3198 19.8973 16.4626 20.3179 16.6912 20.6789L12.0919 34.7379C11.9631 35.1315 12.1778 35.5551 12.5715 35.6839C12.9652 35.8127 13.3887 35.5979 13.5175 35.2043L14.4461 32.3658H23.3574L24.2859 35.204C24.4147 35.5977 24.8382 35.8124 25.2319 35.6836C25.6256 35.5548 25.8403 35.1313 25.7115 34.7376L21.1126 20.68C21.3688 20.2758 21.5174 19.7969 21.5174 19.2841C21.5174 18.866 21.4186 18.4704 21.2432 18.1194L27.9182 16.3309L29.403 21.8722C29.473 22.1335 29.6783 22.3368 29.9402 22.4044C30.2021 22.4719 30.4801 22.3932 30.6677 22.1983C31.3381 21.5021 31.9148 20.7141 32.3867 19.8574V30.4941H31.2725C30.8582 30.4941 30.5225 30.8299 30.5225 31.2441V34.9714C30.5225 35.3856 30.8582 35.7214 31.2725 35.7214H34.9997C35.4139 35.7214 35.7497 35.3856 35.7497 34.9714V31.2441C35.7497 30.8299 35.4139 30.4941 34.9997 30.4941H33.8867V13.8496C33.8867 13.8016 33.8822 13.7546 33.8736 13.709C33.8535 12.675 33.708 11.6216 33.4266 10.5715C32.7711 8.12503 31.4693 6.03526 29.7798 4.47744ZM27.5299 14.882L26.9535 12.7308L7.29527 17.9983L5.80485 20.5797L5.83578 20.6951L16.7759 17.7637C17.2509 17.1014 18.0272 16.6689 18.9022 16.6689C19.3068 16.6689 19.6902 16.7614 20.0326 16.9263C20.0952 16.8865 20.165 16.8554 20.2405 16.8352L27.5299 14.882ZM27.3477 8.40636L29.3144 6.12704C30.529 7.42202 31.4701 9.06529 31.9777 10.9597C32.8752 14.3092 32.2065 17.6489 30.4766 20.0835L27.3477 8.40636ZM21.4877 26.6509L22.8666 30.8658H14.9368L16.3157 26.6509H21.4877ZM20.997 25.1509L19.8722 21.7127C19.5721 21.833 19.2447 21.8993 18.9022 21.8993C18.5594 21.8993 18.2317 21.8329 17.9314 21.7123L16.8064 25.1509H20.997ZM18.9022 18.1689C18.2892 18.1689 17.7871 18.671 17.7871 19.2841C17.7871 19.8972 18.2892 20.3993 18.9022 20.3993C19.5153 20.3993 20.0174 19.8972 20.0174 19.2841C20.0174 18.671 19.5152 18.1689 18.9022 18.1689ZM5.80762 30.1924V34.2212H8.03488V30.1924H5.80762ZM32.0225 31.9941V34.2214H34.2497V31.9941H32.0225Z" fill="url(#paint0_linear_573_297)"/>
<defs>
<linearGradient id="paint0_linear_573_297" x1="35.7493" y1="20.0003" x2="4.24975" y2="20.0003" gradientUnits="userSpaceOnUse">
<stop stop-color="#9D73FE"/>
<stop offset="1" stop-color="#6826FF"/>
</linearGradient>
</defs>
</svg>
