<svg width="517" height="401" viewBox="0 0 517 401" fill="none" xmlns="http://www.w3.org/2000/svg">
<g clip-path="url(#clip0_1226_20460)">
<path d="M284.46 311.047L286.25 309.837L235.86 279.497L234.85 281.187L284.46 311.047Z" fill="url(#paint0_linear_1226_20460)"/>
<path d="M209.911 164.557C209.748 164.559 209.588 164.514 209.451 164.427L167.081 139.967C166.962 139.913 166.857 139.835 166.77 139.738C166.684 139.641 166.619 139.527 166.579 139.403C166.54 139.279 166.527 139.148 166.541 139.019C166.555 138.89 166.596 138.765 166.661 138.653C166.726 138.54 166.815 138.443 166.92 138.367C167.025 138.29 167.145 138.237 167.272 138.21C167.4 138.183 167.531 138.183 167.658 138.21C167.785 138.237 167.905 138.291 168.011 138.367L210.371 162.827C210.477 162.886 210.57 162.966 210.645 163.062C210.72 163.158 210.775 163.267 210.807 163.385C210.839 163.502 210.846 163.625 210.83 163.746C210.813 163.866 210.773 163.982 210.711 164.087C210.631 164.229 210.515 164.347 210.374 164.43C210.234 164.513 210.074 164.556 209.911 164.557Z" fill="url(#paint1_linear_1226_20460)"/>
<path d="M132.33 220.207C132.154 220.205 131.982 220.157 131.83 220.067L58.4902 177.397C58.338 177.307 58.2124 177.178 58.1263 177.023C58.0402 176.868 57.9967 176.694 58.0002 176.517C58.0033 176.34 58.053 176.168 58.1443 176.017C58.2356 175.866 58.3653 175.741 58.5202 175.657L125.77 139.187C125.886 139.109 126.016 139.057 126.153 139.032C126.29 139.008 126.431 139.013 126.566 139.046C126.701 139.079 126.828 139.14 126.938 139.225C127.049 139.311 127.14 139.418 127.206 139.54C127.273 139.662 127.313 139.797 127.324 139.936C127.335 140.075 127.318 140.214 127.272 140.346C127.226 140.477 127.153 140.598 127.058 140.699C126.963 140.801 126.848 140.882 126.72 140.937L61.0202 176.567L132.83 218.347C133.018 218.458 133.164 218.628 133.246 218.83C133.329 219.032 133.342 219.256 133.286 219.466C133.229 219.677 133.105 219.864 132.932 219.997C132.76 220.131 132.548 220.204 132.33 220.207Z" fill="url(#paint2_linear_1226_20460)"/>
<path d="M221.91 92.9964L301.38 138.876C303.55 140.136 305.31 138.806 305.31 135.876V91.3664C305.31 88.4664 303.55 85.1064 301.38 83.8464L221.91 37.9664C219.74 36.7164 217.98 38.0464 217.98 40.9664V85.5064C217.98 88.3764 219.77 91.7664 221.91 92.9964Z" fill="url(#paint3_linear_1226_20460)"/>
<path d="M292.77 269.767L175.9 202.247C175.487 202.008 175.144 201.664 174.905 201.251C174.667 200.838 174.541 200.369 174.541 199.892C174.541 199.414 174.667 198.945 174.905 198.532C175.144 198.119 175.487 197.775 175.9 197.537L248.54 155.597L249.11 155.267L371.55 225.957C371.963 226.195 372.306 226.539 372.545 226.952C372.783 227.365 372.909 227.834 372.909 228.312C372.909 228.789 372.783 229.258 372.545 229.671C372.306 230.084 371.963 230.428 371.55 230.667L303.88 269.767C302.192 270.744 300.276 271.258 298.325 271.258C296.374 271.258 294.458 270.744 292.77 269.767ZM177.04 199.497C176.973 199.537 176.918 199.595 176.879 199.663C176.841 199.731 176.82 199.808 176.82 199.887C176.818 199.965 176.838 200.043 176.877 200.112C176.915 200.18 176.972 200.237 177.04 200.277L293.94 267.767C295.278 268.538 296.795 268.944 298.34 268.944C299.885 268.944 301.402 268.538 302.74 267.767L370.41 228.697C370.479 228.659 370.536 228.603 370.576 228.535C370.616 228.467 370.637 228.39 370.637 228.312C370.637 228.233 370.616 228.156 370.576 228.088C370.536 228.02 370.479 227.965 370.41 227.927L249.11 157.927L177.04 199.497Z" fill="url(#paint4_linear_1226_20460)"/>
<path d="M248.959 127.377L265.249 30.7667L263.939 30.2167L265.939 29.0867C266.176 28.9573 266.445 28.898 266.714 28.9157C266.983 28.9334 267.242 29.0274 267.459 29.1867L397.619 104.337C398.17 104.688 398.617 105.18 398.914 105.762C399.212 106.344 399.348 106.995 399.309 107.647L382.899 205.037C382.881 205.249 382.808 205.453 382.687 205.628C382.566 205.803 382.401 205.944 382.209 206.037L380.289 207.147L379.959 205.357H380.059L250.649 130.687C250.099 130.335 249.652 129.843 249.355 129.261C249.057 128.68 248.921 128.029 248.959 127.377Z" fill="url(#paint5_linear_1226_20460)"/>
<path d="M396.86 106.977L399 106.037C399.241 106.537 399.334 107.095 399.27 107.647L382.86 205.037C382.842 205.249 382.769 205.452 382.648 205.628C382.527 205.803 382.362 205.944 382.17 206.037L380.25 207.147L379.92 205.357H380.02L373.48 201.577L396.86 106.977Z" fill="url(#paint6_linear_1226_20460)"/>
<path d="M248.61 131.857L378.77 207.007C379.77 207.587 380.64 207.247 380.77 206.207L397.19 108.817C397.229 108.165 397.092 107.514 396.795 106.932C396.498 106.35 396.051 105.858 395.5 105.507L265.38 30.3567C264.38 29.7767 263.51 30.1167 263.33 31.1567L246.92 128.547C246.882 129.199 247.018 129.85 247.315 130.431C247.613 131.013 248.06 131.505 248.61 131.857Z" fill="#24126A"/>
<g opacity="0.51">
<path d="M267.079 36.5767L392.549 109.017L376.989 200.737L251.609 128.347L267.079 36.5767Z" fill="#453C9E"/>
</g>
<path d="M166.77 177.967L173.87 181.677L245.1 140.547C245.836 140.215 246.641 140.06 247.448 140.095C248.256 140.13 249.044 140.353 249.75 140.747L372.62 211.667C373.79 211.017 379.15 208.437 379.15 208.437L376.55 215.207C376.416 215.555 376.16 215.843 375.83 216.017L300.83 259.327C300.093 259.66 299.289 259.816 298.482 259.783C297.675 259.75 296.886 259.529 296.18 259.137L170.44 186.547C169.967 186.308 169.592 185.912 169.38 185.427L166.77 177.967Z" fill="url(#paint7_linear_1226_20460)"/>
<path d="M167.889 179.137L296.769 253.517C297.493 253.918 298.299 254.145 299.126 254.18C299.952 254.214 300.775 254.056 301.529 253.717L378.409 209.327C379.629 208.617 379.479 207.387 378.069 206.577L249.189 132.187C248.466 131.785 247.659 131.558 246.832 131.525C246.005 131.492 245.182 131.654 244.429 131.997L167.539 176.377C166.319 177.087 166.479 178.317 167.889 179.137Z" fill="url(#paint8_linear_1226_20460)"/>
<path d="M167.89 178.387L296.77 252.767C297.493 253.169 298.3 253.396 299.127 253.429C299.954 253.462 300.777 253.3 301.53 252.957L378.41 208.577C378.752 208.4 379.018 208.105 379.16 207.747C379.251 208.055 379.224 208.386 379.086 208.676C378.947 208.966 378.706 209.194 378.41 209.317L301.49 253.767C300.735 254.106 299.912 254.264 299.086 254.229C298.26 254.195 297.453 253.968 296.729 253.567L167.89 179.137C166.89 178.587 166.57 177.847 166.8 177.217C167.008 177.727 167.396 178.143 167.89 178.387Z" fill="white"/>
<path d="M335.591 237.427V236.017C335.591 235.877 335.511 235.817 335.401 235.877L330.401 238.757C330.345 238.794 330.3 238.845 330.268 238.904C330.237 238.964 330.221 239.03 330.221 239.097V240.517C330.221 240.647 330.301 240.707 330.401 240.647L335.401 237.777C335.458 237.738 335.506 237.686 335.539 237.625C335.572 237.564 335.59 237.496 335.591 237.427Z" fill="#2842A2"/>
<path d="M328.13 241.767V240.357C328.13 240.217 328.05 240.157 327.95 240.217L322.95 243.097C322.894 243.136 322.848 243.189 322.817 243.25C322.786 243.311 322.77 243.378 322.77 243.447V244.857C322.77 244.987 322.85 245.047 322.95 244.997L327.95 242.117C328.005 242.077 328.051 242.024 328.082 241.963C328.113 241.902 328.13 241.835 328.13 241.767Z" fill="#2842A2"/>
<path d="M358.33 205.167L251.26 143.357C250.91 143.155 250.513 143.049 250.11 143.049C249.706 143.049 249.309 143.155 248.96 143.357L210.83 165.417C210.705 165.489 210.602 165.592 210.53 165.717C210.458 165.842 210.42 165.983 210.42 166.127C210.42 166.271 210.458 166.412 210.53 166.537C210.602 166.661 210.705 166.765 210.83 166.837L317.83 228.627C318.179 228.829 318.576 228.935 318.98 228.935C319.383 228.935 319.78 228.829 320.13 228.627L358.31 206.627C358.442 206.558 358.554 206.454 358.632 206.326C358.71 206.199 358.753 206.053 358.755 205.903C358.757 205.753 358.718 205.606 358.644 205.476C358.569 205.347 358.46 205.24 358.33 205.167Z" fill="#ADB1F2"/>
<path d="M358.33 206.597L357.95 206.817L251.26 145.217C250.911 145.013 250.514 144.905 250.11 144.905C249.706 144.905 249.309 145.013 248.96 145.217L211.22 167.047L210.83 166.827C210.705 166.755 210.602 166.651 210.53 166.527C210.458 166.402 210.42 166.261 210.42 166.117C210.42 165.973 210.458 165.831 210.53 165.707C210.602 165.582 210.705 165.479 210.83 165.407L248.96 143.347C249.309 143.145 249.706 143.039 250.11 143.039C250.513 143.039 250.91 143.145 251.26 143.347L358.33 205.167C358.454 205.24 358.557 205.345 358.629 205.47C358.7 205.595 358.738 205.737 358.738 205.882C358.738 206.026 358.7 206.168 358.629 206.293C358.557 206.419 358.454 206.523 358.33 206.597Z" fill="#9198DB"/>
<path d="M246.09 148.937L339.09 202.637L343.22 200.247L250.22 146.557L246.09 148.937Z" fill="#24126A"/>
<path d="M235.949 154.797L323.179 205.157L327.309 202.767L240.079 152.407L235.949 154.797Z" fill="#24126A"/>
<path d="M229.34 158.607L332.05 217.907L336.19 215.517L233.48 156.217L229.34 158.607Z" fill="#24126A"/>
<path d="M222.74 162.417L325.45 221.717L329.58 219.327L226.88 160.027L222.74 162.417Z" fill="#24126A"/>
<path d="M216.141 166.227L318.841 225.527L322.981 223.137L220.271 163.847L216.141 166.227Z" fill="#24126A"/>
<path d="M344.699 205.877L348.839 208.267L352.979 205.877L348.839 203.497L344.699 205.877Z" fill="#24126A"/>
<path d="M330.121 209.166L338.701 214.116L342.841 211.726L334.251 206.776L330.121 209.166Z" fill="#24126A"/>
<path d="M247.141 220.127L218.271 203.457C218.026 203.371 217.814 203.212 217.664 203C217.514 202.789 217.434 202.536 217.434 202.277C217.434 202.017 217.514 201.765 217.664 201.553C217.814 201.342 218.026 201.182 218.271 201.097L238.011 189.707C238.645 189.386 239.346 189.219 240.056 189.219C240.767 189.219 241.467 189.386 242.101 189.707L270.971 206.367C271.216 206.452 271.428 206.612 271.578 206.823C271.728 207.035 271.809 207.287 271.809 207.547C271.809 207.806 271.728 208.059 271.578 208.27C271.428 208.482 271.216 208.641 270.971 208.727L251.231 220.127C250.597 220.447 249.897 220.614 249.186 220.614C248.476 220.614 247.775 220.447 247.141 220.127Z" fill="url(#paint9_linear_1226_20460)"/>
<path d="M270.97 207.337L242.1 190.667C241.466 190.346 240.766 190.179 240.055 190.179C239.345 190.179 238.644 190.346 238.01 190.667L218.27 202.067C217.971 202.227 217.725 202.47 217.56 202.767C217.27 202.197 217.49 201.547 218.27 201.097L238.01 189.707C238.644 189.386 239.345 189.219 240.055 189.219C240.766 189.219 241.466 189.386 242.1 189.707L270.97 206.367C271.75 206.817 271.97 207.467 271.68 208.037C271.515 207.74 271.269 207.497 270.97 207.337Z" fill="#9198DB"/>
<g opacity="0.11">
<mask id="mask0_1226_20460" style="mask-type:luminance" maskUnits="userSpaceOnUse" x="251" y="36" width="142" height="165">
<path d="M267.08 36.5767L392.54 109.017L376.98 200.737L251.6 128.347L267.08 36.5767Z" fill="white"/>
</mask>
<g mask="url(#mask0_1226_20460)">
<path d="M249.071 132.037L377.901 206.427C378.625 206.829 379.435 207.056 380.263 207.089C381.091 207.122 381.916 206.96 382.671 206.617L459.551 162.227C460.771 161.527 460.621 160.297 459.211 159.477L330.371 85.0968C329.648 84.6928 328.841 84.4642 328.014 84.4295C327.188 84.3947 326.364 84.5548 325.611 84.8968L248.771 129.287C247.501 129.987 247.661 131.227 249.071 132.037Z" fill="url(#paint10_linear_1226_20460)"/>
<path d="M378.292 145.377L349.422 128.707C349.177 128.621 348.965 128.462 348.815 128.25C348.665 128.039 348.584 127.786 348.584 127.527C348.584 127.268 348.665 127.015 348.815 126.803C348.965 126.592 349.177 126.432 349.422 126.347L369.162 114.947C369.796 114.626 370.496 114.459 371.207 114.459C371.917 114.459 372.618 114.626 373.252 114.947L402.112 131.617C402.356 131.702 402.568 131.862 402.718 132.073C402.869 132.285 402.949 132.538 402.949 132.797C402.949 133.056 402.869 133.309 402.718 133.52C402.568 133.732 402.356 133.891 402.112 133.977L382.372 145.377C381.739 145.697 381.04 145.865 380.332 145.865C379.623 145.865 378.924 145.697 378.292 145.377Z" fill="url(#paint11_linear_1226_20460)"/>
<path d="M402.111 132.577L373.251 115.917C372.617 115.596 371.916 115.429 371.206 115.429C370.495 115.429 369.795 115.596 369.161 115.917L349.421 127.317C349.123 127.474 348.876 127.713 348.711 128.007C348.411 127.437 348.641 126.797 349.421 126.347L369.161 114.947C369.795 114.626 370.495 114.459 371.206 114.459C371.916 114.459 372.617 114.626 373.251 114.947L402.111 131.617C402.891 132.067 403.111 132.707 402.821 133.277C402.654 132.982 402.408 132.74 402.111 132.577Z" fill="#9198DB"/>
<path d="M414.77 171.417L307.77 109.607C307.419 109.405 307.02 109.299 306.615 109.299C306.21 109.299 305.812 109.405 305.46 109.607L267.31 131.667C267.186 131.739 267.082 131.842 267.01 131.967C266.938 132.092 266.9 132.233 266.9 132.377C266.9 132.521 266.938 132.662 267.01 132.787C267.082 132.911 267.186 133.015 267.31 133.087L374.31 194.877C374.662 195.079 375.06 195.185 375.465 195.185C375.87 195.185 376.269 195.079 376.62 194.877L414.8 172.877C414.93 172.803 415.038 172.695 415.112 172.565C415.186 172.435 415.223 172.287 415.22 172.138C415.217 171.988 415.174 171.842 415.095 171.715C415.015 171.588 414.903 171.485 414.77 171.417Z" fill="#ADB1F2"/>
<path d="M414.771 172.847L414.381 173.067L307.771 111.477C307.422 111.27 307.023 111.161 306.616 111.161C306.21 111.161 305.811 111.27 305.461 111.477L267.721 133.307L267.341 133.087C267.217 133.015 267.113 132.911 267.041 132.787C266.969 132.662 266.932 132.521 266.932 132.377C266.932 132.233 266.969 132.092 267.041 131.967C267.113 131.842 267.217 131.739 267.341 131.667L305.461 109.607C305.813 109.405 306.211 109.299 306.616 109.299C307.022 109.299 307.42 109.405 307.771 109.607L414.771 171.417C414.896 171.49 414.999 171.595 415.071 171.72C415.142 171.845 415.18 171.987 415.18 172.132C415.18 172.276 415.142 172.418 415.071 172.544C414.999 172.669 414.896 172.773 414.771 172.847Z" fill="#9198DB"/>
<path d="M277.29 130.157L370.56 184.007L366.87 186.147L273.59 132.297L277.29 130.157Z" fill="#24126A"/>
<path d="M287.12 124.487L375.77 175.667L372.08 177.807L283.42 126.617L287.12 124.487Z" fill="#24126A"/>
<path d="M382.391 179.497L390.671 184.277L386.981 186.407L378.701 181.627L382.391 179.497Z" fill="#24126A"/>
<path d="M375.081 186.617L380.841 189.947L377.151 192.077L371.381 188.747L375.081 186.617Z" fill="#24126A"/>
<path d="M293.28 120.927L396.83 180.717L393.13 182.847L289.58 123.067L293.28 120.927Z" fill="#24126A"/>
<path d="M299.43 117.377L402.99 177.157L399.29 179.297L295.74 119.507L299.43 117.377Z" fill="#24126A"/>
<path d="M305.59 113.817L409.14 173.607L405.45 175.737L301.9 115.957L305.59 113.817Z" fill="#24126A"/>
</g>
</g>
<path d="M380.949 114.436L383.429 116.026L383.719 114.186L381.249 112.606L380.949 114.436Z" fill="#6826FF"/>
<path d="M378.92 126.857L381.4 128.447L383.15 117.697L380.68 116.117L378.92 126.857Z" fill="#6826FF"/>
<path d="M377.949 132.797L380.429 134.387L381.119 130.117L378.649 128.537L377.949 132.797Z" fill="#6826FF"/>
<path d="M376.949 138.957L379.419 140.537L380.119 136.277L377.639 134.687L376.949 138.957Z" fill="#6826FF"/>
<path d="M376.291 118.017L378.761 119.607L379.461 115.337L376.991 113.757L376.291 118.017Z" fill="#6826FF"/>
<path d="M374.961 126.177L377.431 127.757L378.461 121.497L375.981 119.907L374.961 126.177Z" fill="#6826FF"/>
<path d="M373.73 133.687L376.21 135.267L377.08 129.887L374.61 128.307L373.73 133.687Z" fill="#6826FF"/>
<path d="M375.939 145.117L378.419 146.697L379.109 142.427L376.639 140.847L375.939 145.117Z" fill="#6826FF"/>
<path d="M377.26 112.077L379.74 113.667L380.04 111.827L377.56 110.247L377.26 112.077Z" fill="#6826FF"/>
<path d="M373.121 149.907L377.441 152.667L377.731 150.887L373.411 148.127L373.121 149.907Z" fill="#6826FF"/>
<path d="M220.42 287.387L119.82 229.307C119.457 229.125 119.149 228.85 118.929 228.508C118.709 228.167 118.585 227.773 118.57 227.367C118.605 226.883 118.768 226.416 119.042 226.016C119.316 225.615 119.692 225.294 120.13 225.087L141.04 213.017C141.852 212.564 142.76 212.311 143.689 212.28C144.617 212.249 145.54 212.44 146.38 212.837L246.99 270.927C247.353 271.108 247.659 271.385 247.877 271.726C248.096 272.068 248.217 272.462 248.23 272.867C248.195 273.349 248.032 273.814 247.758 274.213C247.483 274.612 247.108 274.931 246.67 275.137L225.77 287.207C224.869 287.709 223.852 287.967 222.82 287.957C221.985 287.976 221.158 287.78 220.42 287.387ZM142.02 214.767L121.11 226.767C120.63 227.047 120.54 227.297 120.54 227.347C120.54 227.397 120.6 227.467 120.8 227.587L221.41 285.667C221.949 285.893 222.532 285.995 223.116 285.963C223.7 285.932 224.269 285.769 224.78 285.487L245.69 273.417C246.17 273.147 246.27 272.897 246.27 272.847C246.27 272.797 246.2 272.717 246 272.607L145.4 214.517C144.969 214.304 144.491 214.201 144.01 214.217C143.311 214.228 142.626 214.417 142.02 214.767Z" fill="url(#paint12_linear_1226_20460)"/>
<path d="M160.71 179.407C163.49 181.068 165.982 183.169 168.09 185.627C171.18 175.707 180.6 172.627 191.75 179.067C200.98 184.387 209.02 194.867 213.27 205.967C214.918 206.065 216.515 206.571 217.92 207.437C223.92 210.907 228.82 219.367 228.82 226.317C228.82 226.467 228.82 226.607 228.82 226.747C230.808 226.942 232.726 227.585 234.43 228.627C242.13 233.077 248.37 243.887 248.37 252.777C248.37 261.667 242.13 265.277 234.43 260.827L160.73 218.277C151.44 212.907 143.9 199.857 143.9 189.127C143.9 178.397 151.42 174.047 160.71 179.407Z" fill="url(#paint13_linear_1226_20460)"/>
<path d="M160.711 179.407C162.294 180.336 163.779 181.425 165.141 182.657L173.381 177.897C177.911 174.717 184.461 174.897 191.751 179.067C200.981 184.387 209.021 194.867 213.271 205.967C214.918 206.065 216.516 206.57 217.921 207.437C223.921 210.907 228.821 219.367 228.821 226.317C228.821 226.467 228.821 226.607 228.821 226.747C230.808 226.942 232.726 227.585 234.431 228.627C242.131 233.077 248.371 243.887 248.371 252.777C248.371 257.187 246.841 260.287 244.371 261.777H244.311L224.131 273.497L219.721 252.287L160.721 218.287C151.431 212.917 143.891 199.867 143.891 189.137C143.891 178.407 151.421 174.047 160.711 179.407Z" fill="url(#paint14_radial_1226_20460)"/>
<path d="M128.27 190.167L148.77 178.287C151.82 176.467 156.07 176.697 160.77 179.407C162.353 180.336 163.838 181.425 165.2 182.657L173.44 177.897C177.97 174.717 184.52 174.897 191.81 179.067C201.04 184.387 209.08 194.867 213.33 205.967C214.977 206.065 216.575 206.57 217.98 207.437C223.98 210.907 228.88 219.367 228.88 226.317C228.88 226.467 228.88 226.607 228.88 226.747C230.867 226.942 232.785 227.585 234.49 228.627C242.19 233.077 248.43 243.887 248.43 252.777C248.43 257.187 246.9 260.287 244.43 261.777H244.37L224.19 273.497L219.78 252.287L160.78 218.287C153.25 213.937 146.87 204.537 144.73 195.417L128.27 190.167Z" fill="url(#paint15_linear_1226_20460)"/>
<path d="M140.46 191.167C143.242 192.822 145.731 194.923 147.83 197.387C150.92 187.457 160.35 184.387 171.5 190.817C180.73 196.147 188.77 206.617 193.02 217.717C194.667 217.821 196.263 218.325 197.67 219.187C203.67 222.667 208.57 231.117 208.57 238.067C208.57 238.217 208.57 238.357 208.57 238.507C210.559 238.697 212.478 239.34 214.18 240.387C221.88 244.827 228.12 255.637 228.12 264.527C228.12 273.417 221.88 277.027 214.18 272.577L140.48 230.027C131.19 224.667 123.65 211.617 123.65 200.877C123.65 190.137 131.17 185.767 140.46 191.167Z" fill="url(#paint16_linear_1226_20460)"/>
<path d="M147.16 197.767C145.046 195.316 142.551 193.222 139.77 191.567C135.22 188.947 131.1 188.647 128.07 190.287C131.15 188.207 135.55 188.287 140.44 191.167C143.059 192.719 145.421 194.669 147.44 196.947C147.34 197.227 147.25 197.507 147.16 197.767Z" fill="white"/>
<path d="M227.43 264.937C227.43 256.047 221.19 245.237 213.49 240.787C211.782 239.745 209.861 239.102 207.87 238.907C207.87 238.767 207.87 238.627 207.87 238.477C207.87 231.527 202.99 223.067 196.97 219.597C195.569 218.73 193.975 218.225 192.33 218.127C188.07 207.027 180.03 196.547 170.81 191.217C164.06 187.327 157.95 186.917 153.49 189.397C158 186.477 164.39 186.727 171.49 190.817C180.72 196.147 188.76 206.617 193.01 217.717C194.657 217.821 196.253 218.325 197.66 219.187C203.66 222.667 208.56 231.117 208.56 238.067C208.56 238.217 208.56 238.357 208.56 238.507C210.549 238.697 212.468 239.34 214.17 240.387C221.87 244.827 228.11 255.637 228.11 264.527C228.11 269.097 226.46 272.267 223.82 273.667C226.06 272.107 227.43 269.107 227.43 264.937Z" fill="white"/>
<path d="M357.651 309.347C357.432 309.342 357.22 309.265 357.049 309.129C356.878 308.992 356.757 308.803 356.703 308.591C356.65 308.378 356.668 308.154 356.754 307.953C356.84 307.752 356.99 307.585 357.181 307.477L400.081 284.197L337.921 248.037C337.703 247.898 337.547 247.681 337.486 247.431C337.424 247.18 337.462 246.916 337.591 246.692C337.72 246.469 337.931 246.304 338.178 246.232C338.426 246.161 338.692 246.187 338.921 246.307L402.611 283.367C402.764 283.454 402.892 283.581 402.982 283.733C403.071 283.886 403.118 284.06 403.118 284.237C403.118 284.414 403.071 284.587 402.982 284.74C402.892 284.893 402.764 285.02 402.611 285.107L358.151 309.227C357.998 309.313 357.825 309.355 357.651 309.347Z" fill="url(#paint17_linear_1226_20460)"/>
<path d="M323.11 373.346C322.935 373.348 322.763 373.303 322.61 373.217L249.92 331.217C249.769 331.129 249.643 331.002 249.555 330.851C249.468 330.699 249.422 330.527 249.422 330.352C249.422 330.176 249.468 330.004 249.555 329.852C249.643 329.701 249.769 329.574 249.92 329.487L322.61 287.487C322.762 287.399 322.935 287.353 323.11 287.353C323.286 287.353 323.458 287.399 323.61 287.487L396.3 329.487C396.452 329.574 396.577 329.701 396.665 329.852C396.752 330.004 396.798 330.176 396.798 330.352C396.798 330.527 396.752 330.699 396.665 330.851C396.577 331.002 396.452 331.129 396.3 331.217L323.61 373.217C323.458 373.303 323.285 373.348 323.11 373.346ZM252.41 330.346L323.11 371.157L393.77 330.376L323.07 289.566L252.41 330.346Z" fill="url(#paint18_linear_1226_20460)"/>
<path d="M323.11 358.247L371.38 330.377L323.12 302.517L274.85 330.377L323.11 358.247Z" fill="url(#paint19_linear_1226_20460)"/>
<path d="M310.77 314.707C310.77 314.707 309.94 315.527 309.08 316.497C307.778 317.617 306.352 318.583 304.83 319.377C303.83 319.967 299.21 323.287 298.18 326.637C297.15 329.987 300.37 330.527 303.7 330.017C307.03 329.507 310.19 326.537 311.12 325.457C313.554 323.191 316.336 321.331 319.36 319.947C323.47 317.947 321.08 315.067 321.08 315.067L310.77 314.707Z" fill="#160A5B"/>
<path d="M340.689 325.497C341.118 326.616 341.381 327.792 341.469 328.987C341.609 330.987 341.779 335.197 341.849 336.437C342.005 339.002 341.215 341.535 339.629 343.557C337.379 346.407 336.219 347.557 333.349 346.317C330.479 345.077 330.659 340.237 331.239 337.747C331.803 334.884 332.187 331.988 332.389 329.077C332.35 328.732 332.417 328.384 332.579 328.077L340.689 325.497Z" fill="#160A5B"/>
<path d="M302.211 257.037C302.211 257.037 302.261 279.377 307.211 291.347C309.46 298.797 310.688 306.517 310.861 314.297C310.608 314.921 310.5 315.595 310.545 316.267C310.59 316.939 310.787 317.592 311.121 318.177C312.301 319.947 319.901 321.727 321.301 316.047C322.701 310.367 322.481 299.687 321.211 295.197C319.941 290.707 322.121 278.487 322.121 278.487C322.121 278.487 324.171 279.867 326.691 288.757C328.126 293.792 329.904 298.724 332.011 303.517C332.891 305.977 333.391 320.937 332.611 328.217C332.611 328.217 338.771 329.217 340.611 326.337C342.451 323.457 343.451 308.147 343.121 303.267C342.791 298.387 341.121 282.707 341.541 277.887C341.961 273.067 343.041 269.157 342.061 264.307C341.081 259.457 308.711 247.917 308.711 247.917L302.211 257.037Z" fill="#24126A"/>
<path d="M341.52 277.887C341.92 273.057 343.02 269.157 342.04 264.307C341.67 262.477 336.86 259.717 331.04 256.967C321.04 255.807 308.44 254.437 307.56 254.547C305.992 254.924 304.454 255.419 302.96 256.027L302.24 257.027C302.24 257.027 302.24 258.387 302.32 260.607C304.63 261.367 309.13 260.757 309.13 260.757C309.72 262.337 313.47 267.997 318.25 270.517C323.03 273.037 337.25 272.567 338.01 273.517C338.77 274.467 338.65 286.667 338.52 288.217C338.39 289.767 339.52 299.587 340.68 308.267C341.84 316.947 339.53 327.097 339.46 327.427C339.926 327.159 340.324 326.785 340.62 326.337C342.49 323.427 343.46 308.147 343.13 303.267C342.8 298.387 341.12 282.707 341.52 277.887Z" fill="#160A5B"/>
<path d="M314.941 184.317C314.941 184.317 307.661 185.787 305.211 186.317C305.012 186.362 304.827 186.453 304.671 186.584C304.514 186.714 304.391 186.88 304.311 187.067C303.561 188.827 301.661 194.317 302.791 202.417C303.631 207.918 303.866 213.495 303.491 219.047L299.711 236.397C299.711 236.397 295.091 252.887 295.441 253.347C295.791 253.807 304.951 261.147 307.891 260.217C310.831 259.287 309.891 257.617 309.891 257.617C309.891 257.617 311.961 269.697 322.411 269.847C332.861 269.997 341.411 270.237 343.291 266.047C345.171 261.857 343.351 244.047 341.681 236.967C340.011 229.887 335.981 215.757 335.981 215.757L351.771 199.167L338.931 188.847C338.931 188.847 335.931 182.967 334.691 182.197C333.451 181.427 332.691 182.027 332.691 182.027L314.941 184.317Z" fill="#453C9E"/>
<path d="M308.16 256.367C308.16 256.967 307.78 257.867 305.89 258.457C303.84 259.107 298.94 255.957 295.74 253.597C297.33 254.997 305.2 261.047 307.89 260.197C308.361 260.054 308.808 259.845 309.22 259.577C308.784 258.536 308.43 257.462 308.16 256.367Z" fill="url(#paint20_linear_1226_20460)" fill-opacity="0.2"/>
<path d="M343.271 264.617C341.271 269.037 332.271 268.777 321.271 268.617C318.834 268.619 316.455 267.868 314.461 266.467C315.502 267.533 316.747 268.378 318.121 268.954C319.495 269.529 320.971 269.823 322.461 269.817C332.921 269.957 341.461 270.207 343.341 266.017C343.961 264.647 344.171 261.797 344.131 258.347C344.211 260.471 343.92 262.593 343.271 264.617Z" fill="url(#paint21_linear_1226_20460)" fill-opacity="0.2"/>
<path d="M334.37 182.037C334.37 182.037 336.96 185.347 333 189.617C329.195 194.07 325.773 198.837 322.77 203.867C320.51 207.577 318.46 209.527 317.24 212.727C317.24 212.727 317.18 208.887 317.17 202.957C317.17 197.367 317.24 191.557 317.52 190.097C318.07 187.097 331.45 180.507 334.37 182.037Z" fill="#F0F6FF"/>
<path d="M324.131 191.527C324.131 191.527 322.731 192.337 322.261 192.257C321.791 192.177 320.311 190.667 320.311 190.667C320.311 190.667 316.521 190.507 316.151 188.867C315.897 187.469 315.563 186.086 315.151 184.727C314.781 183.877 313.251 179.727 313.281 178.127C313.311 176.527 313.441 173.547 312.771 171.977C312.101 170.407 311.521 154.797 326.551 155.607C341.581 156.417 336.551 171.927 336.551 171.927C336.551 171.927 337.641 172.417 336.931 174.417C336.221 176.417 336.061 176.617 335.691 177.607C335.464 178.555 334.929 179.403 334.171 180.017L333.871 181.857C334.033 182.821 334.002 183.808 333.781 184.761C333.559 185.713 333.152 186.612 332.581 187.407C330.641 190.107 324.131 191.527 324.131 191.527Z" fill="#FCD1C5"/>
<path d="M304.77 186.467C304.77 186.467 303.16 186.667 297.64 199.627C294.55 206.867 289.88 214.317 288.8 219.717C287.72 225.117 288.1 230.947 289.16 231.377C290.22 231.807 308.71 239.257 314.5 241.607C314.575 241.638 314.656 241.652 314.738 241.648C314.819 241.644 314.898 241.622 314.97 241.584C315.042 241.546 315.104 241.492 315.152 241.427C315.201 241.362 315.234 241.287 315.25 241.207L317.09 232.207L305.6 227.437C304.427 225.935 303.007 224.643 301.4 223.617C301.4 223.617 303.83 219.387 303.71 218.217C303.59 217.047 304.25 204.937 303.01 199.977C301.77 195.017 304.77 186.467 304.77 186.467Z" fill="#312887"/>
<path d="M310.77 221.237C310.126 220.775 309.458 220.348 308.77 219.957C308.38 219.797 306.26 219.017 305.85 218.817C305.13 218.719 304.4 218.719 303.68 218.817C303.569 218.826 303.463 218.862 303.369 218.921C303.275 218.981 303.196 219.061 303.14 219.157C302.63 220.057 301.19 222.697 301.31 223.717C301.31 223.717 305.12 226.247 305.52 227.347L306.13 227.497C306.13 227.497 308.86 221.987 310.77 221.237Z" fill="#FCD1C5"/>
<path d="M341.7 236.947C341.3 235.247 340.76 233.137 340.18 230.947L316.43 240.437C318.802 243.18 321.747 245.369 325.058 246.85C328.368 248.33 331.964 249.067 335.59 249.007C338.299 248.926 340.944 248.162 343.28 246.787C342.933 243.48 342.405 240.196 341.7 236.947Z" fill="#24126A"/>
<path d="M351.771 199.167C351.771 199.167 345.561 199.867 340.351 207.677C336.879 213.063 333.842 218.717 331.271 224.587L331.071 225.587C330.952 226.215 330.691 226.808 330.308 227.319C329.924 227.831 329.428 228.247 328.858 228.537C328.288 228.827 327.66 228.982 327.021 228.991C326.381 228.999 325.749 228.861 325.171 228.587C319.941 226.097 312.171 222.337 310.771 221.227C309.219 222.163 307.871 223.403 306.809 224.872C305.747 226.341 304.993 228.009 304.591 229.777C303.451 234.627 303.711 234.657 303.711 234.657C303.711 234.657 324.341 244.907 332.401 245.017C340.461 245.127 351.341 218.877 352.601 213.427C353.861 207.977 355.241 200.767 351.771 199.167Z" fill="#24126A"/>
<path d="M351.771 199.167C351.771 199.167 345.561 199.867 340.351 207.677C336.879 213.063 333.842 218.717 331.271 224.587L331.071 225.587C330.952 226.215 330.691 226.808 330.308 227.319C329.924 227.831 329.428 228.247 328.858 228.537C328.288 228.827 327.66 228.982 327.021 228.991C326.381 228.999 325.749 228.861 325.171 228.587C319.941 226.097 312.171 222.337 310.771 221.227C309.219 222.163 307.871 223.403 306.809 224.872C305.747 226.341 304.993 228.009 304.591 229.777C303.451 234.627 303.711 234.657 303.711 234.657C303.711 234.657 324.341 244.907 332.401 245.017C340.461 245.127 351.341 218.877 352.601 213.427C353.861 207.977 355.241 200.767 351.771 199.167Z" fill="#4846A5"/>
<path d="M328.1 229.907C328.1 229.907 330.67 232.437 331.85 231.117C333.03 229.797 332.69 229.637 332.69 229.637C332.69 229.637 335.06 229.637 335.39 228.197C335.72 226.757 336.86 227.537 336.97 225.877C337.08 224.217 335.08 224.517 335.08 224.517L328.1 229.907Z" fill="#453C9E"/>
<path d="M324.949 228.507C324.949 228.507 325.689 227.857 326.639 227.087C327.589 226.317 329.189 223.087 329.449 222.807C329.709 222.527 332.919 220.187 334.449 220.187C335.979 220.187 334.799 221.857 334.449 222.087C334.099 222.317 332.599 223.017 332.599 223.017C332.599 223.017 331.039 224.257 330.859 224.437C330.679 224.617 335.109 224.247 335.799 224.687C335.939 224.799 336.052 224.941 336.129 225.103C336.207 225.265 336.247 225.442 336.247 225.622C336.247 225.801 336.207 225.978 336.129 226.14C336.052 226.302 335.939 226.444 335.799 226.557C335.535 226.723 335.231 226.816 334.919 226.827C335.047 227.198 335.028 227.605 334.864 227.963C334.7 228.32 334.405 228.601 334.039 228.747C332.699 229.337 332.409 228.987 332.409 228.987C332.409 228.987 332.229 231.277 330.059 230.767L324.949 228.507Z" fill="#FCD1C5"/>
<path d="M312.661 163.997C312.661 163.997 310.541 170.207 315.751 168.547C320.961 166.887 325.751 164.047 327.311 165.217C328.521 166.107 328.401 168.757 328.311 169.967C328.268 170.378 328.366 170.791 328.591 171.137L330.071 173.397C330.233 173.656 330.326 173.952 330.341 174.257L330.411 175.807C330.422 175.996 330.501 176.175 330.634 176.311C330.766 176.447 330.942 176.53 331.131 176.547H331.481C331.67 176.563 331.858 176.508 332.01 176.394C332.161 176.279 332.265 176.113 332.301 175.927L332.761 173.657C332.761 173.657 334.051 170.657 336.591 171.897C336.591 171.897 338.371 169.627 337.921 164.677C337.471 159.727 335.391 154.527 325.711 153.467C316.031 152.407 312.661 163.997 312.661 163.997Z" fill="#24126A"/>
<path d="M326.659 197.086L325.239 195.926C324.46 196.548 323.805 197.311 323.309 198.176C322.759 199.346 323.189 203.116 323.189 203.116L322.729 203.866L322.209 202.866L321.859 198.416C321.859 198.416 322.439 195.146 322.489 195.066C323.425 195.139 324.356 195.259 325.279 195.426C325.839 195.889 326.307 196.452 326.659 197.086Z" fill="#C4CCD6"/>
<path d="M319.77 192.497C318.976 192.518 318.2 192.735 317.51 193.127L319.39 193.277C319.67 193.317 319.77 192.497 319.77 192.497Z" fill="#C4CCD6"/>
<path d="M322.771 192.917L325.311 195.417C323.973 196.01 322.904 197.079 322.311 198.417C322.311 198.417 319.471 198.877 319.231 197.837C318.991 196.797 319.331 194.237 319.021 193.077C318.711 191.917 322.771 192.917 322.771 192.917Z" fill="#24126A"/>
<path d="M319.309 197.767C319.059 198.804 318.693 199.81 318.219 200.767C317.669 201.637 317.109 202.607 317.109 202.607L316.859 215.087C316.859 215.087 321.689 205.767 322.769 203.867C322.769 203.867 322.769 199.307 322.319 198.437C321.869 197.567 319.309 197.767 319.309 197.767Z" fill="#24126A"/>
<path d="M332.091 179.667C328.861 188.297 320.311 190.667 320.311 190.667C320.311 190.667 321.791 192.177 322.261 192.257C322.731 192.337 324.131 191.527 324.131 191.527C324.131 191.527 330.641 190.107 332.581 187.407C333.151 186.613 333.559 185.713 333.78 184.761C334.002 183.808 334.032 182.821 333.871 181.857L334.171 180.017C333.826 180.158 333.448 180.2 333.081 180.138C332.713 180.077 332.37 179.913 332.091 179.667Z" fill="#E2B1A6"/>
<path d="M338.77 190.026C338.77 190.026 337.48 194.096 337.32 194.246C336.314 194.253 335.311 194.173 334.32 194.006L335.64 196.646C335.64 196.646 320.96 211.606 317.77 219.766C323.532 211.758 329.962 204.251 336.99 197.326L335.39 194.766L338.3 195.406L338.77 190.026Z" fill="#24126A"/>
<path d="M315.369 185.816L314.589 186.666L315.459 187.516L312.759 189.836C312.759 189.836 311.539 206.566 314.489 217.746C314.489 217.746 310.369 207.456 311.809 189.356L314.709 187.486L313.799 186.546L315.369 185.816Z" fill="#24126A"/>
<path d="M322.08 278.486L322.17 278.566L318.57 274.566C320.22 277.016 317.98 287.996 317.71 290.566C317.44 293.136 319.5 298.346 320.16 304.476C320.82 310.606 318.94 319.266 318.93 319.286C319.523 318.959 320.039 318.507 320.441 317.962C320.844 317.416 321.123 316.79 321.26 316.126C322.66 310.456 322.44 299.766 321.17 295.276C319.9 290.786 322.08 278.486 322.08 278.486Z" fill="#160A5B"/>
<path d="M332.36 245.027C340.42 245.127 351.3 218.887 352.56 213.437C352.77 212.527 352.98 211.567 353.18 210.597C353.18 210.677 350.92 216.347 348.78 221.367C346.64 226.387 335.47 241.637 329.94 242.507C324.94 243.297 307.31 234.507 303.94 232.787C303.58 234.637 303.71 234.667 303.71 234.667C303.71 234.667 324.3 244.917 332.36 245.027Z" fill="url(#paint22_linear_1226_20460)" fill-opacity="0.2"/>
<path d="M331.441 176.577C331.63 176.592 331.818 176.538 331.969 176.424C332.121 176.309 332.224 176.143 332.261 175.957L332.721 173.687C332.721 173.687 334.011 170.687 336.551 171.927C336.551 171.927 338.231 169.767 337.911 165.097C334.911 169.317 328.551 171.097 328.551 171.097L330.031 173.357C330.193 173.615 330.286 173.912 330.301 174.217L330.371 175.767C330.382 175.956 330.461 176.135 330.593 176.271C330.725 176.406 330.902 176.49 331.091 176.507L331.441 176.577Z" fill="#302070"/>
<path d="M262.581 63.2368L309.291 90.2368C311.461 91.4868 313.221 94.8568 313.221 97.7468V142.297C313.221 145.187 311.461 146.517 309.291 145.297L254.131 113.447L262.581 63.2368Z" fill="#24126A"/>
<path d="M219.221 37.8365L221.491 36.2065C221.905 35.9258 222.395 35.7808 222.895 35.7916C223.395 35.8023 223.879 35.9683 224.281 36.2665L303.771 82.1565C305.941 83.4065 307.701 86.7765 307.701 89.6665V134.216C307.762 134.796 307.68 135.382 307.462 135.922C307.244 136.463 306.897 136.942 306.451 137.316L304.091 138.996L303.961 137.276L303.771 137.176L224.301 91.2965C222.131 90.0365 220.371 86.6765 220.371 83.7765V39.2465C220.369 38.8538 220.406 38.4619 220.481 38.0765L219.221 37.8365Z" fill="url(#paint23_linear_1226_20460)"/>
<path d="M307.479 87.8871L286.479 99.9971L281.199 96.9971L305.019 83.2471C306.234 84.55 307.082 86.1507 307.479 87.8871Z" fill="url(#paint24_linear_1226_20460)"/>
<path d="M221.91 92.9964L301.38 138.876C303.55 140.136 305.31 138.806 305.31 135.876V91.3664C305.31 88.4664 303.55 85.1064 301.38 83.8464L221.91 37.9664C219.74 36.7164 217.98 38.0464 217.98 40.9664V85.5064C217.98 88.3764 219.77 91.7664 221.91 92.9964Z" fill="url(#paint25_linear_1226_20460)"/>
<path d="M304.879 136.137V91.5966C304.879 88.6966 303.119 85.3366 300.949 84.0766L221.479 38.1966C221.148 37.9721 220.769 37.8257 220.372 37.7685C219.976 37.7114 219.571 37.7449 219.189 37.8666C219.601 37.6112 220.08 37.4843 220.565 37.5021C221.049 37.5199 221.517 37.6817 221.909 37.9666L301.379 83.8466C303.549 85.1066 305.309 88.4666 305.309 91.3666V135.907C305.309 137.657 304.659 138.837 303.669 139.217C304.099 138.834 304.432 138.356 304.642 137.821C304.853 137.286 304.934 136.709 304.879 136.137Z" fill="white"/>
<path d="M229.261 64.9469L294.121 102.357C294.621 102.647 295.051 102.807 295.341 102.357C295.391 102.287 295.341 102.187 295.341 102.087V92.2469C295.343 91.8584 295.254 91.4748 295.08 91.1273C294.906 90.7798 294.653 90.4781 294.341 90.2469L228.961 52.5269C228.911 52.5269 228.861 52.4469 228.811 52.4569C228.321 52.5369 228.301 52.9869 228.301 53.6869L228.141 63.1269C228.164 63.4989 228.278 63.8595 228.473 64.177C228.668 64.4944 228.939 64.7588 229.261 64.9469Z" fill="#5761D7"/>
<path d="M229.13 86.3465L294.13 123.787C294.63 124.077 295.28 124.377 295.38 123.787C295.386 123.697 295.386 123.606 295.38 123.517V113.677C295.382 113.288 295.293 112.904 295.119 112.557C294.945 112.209 294.692 111.908 294.38 111.677L229.02 73.9365L228.87 73.8665C228.37 73.6765 228.24 74.3265 228.24 75.0165V84.3365C228.219 84.718 228.289 85.099 228.444 85.4484C228.598 85.7977 228.833 86.1055 229.13 86.3465Z" fill="#5761D7"/>
<path d="M228.77 52.4667C228.765 52.5532 228.765 52.6401 228.77 52.7267V62.5667C228.767 62.9552 228.857 63.3388 229.031 63.6863C229.204 64.0338 229.458 64.3354 229.77 64.5667L295.13 102.307L295.28 102.377C295.18 102.947 294.76 103.177 294.28 102.887L228.96 65.1367C228.649 64.9038 228.397 64.6018 228.224 64.2547C228.05 63.9076 227.96 63.5248 227.96 63.1367V53.3167C227.92 52.6167 228.31 52.2767 228.77 52.4667Z" fill="white"/>
<path d="M228.771 73.9066C228.766 73.9966 228.766 74.0867 228.771 74.1766V84.0166C228.768 84.4051 228.858 84.7888 229.031 85.1363C229.205 85.4838 229.458 85.7854 229.771 86.0166L295.191 123.767L295.341 123.837C295.241 124.407 294.821 124.637 294.341 124.347L228.981 86.6166C228.67 86.3838 228.418 86.0818 228.245 85.7347C228.071 85.3875 227.981 85.0047 227.981 84.6166V74.7666C227.921 74.0666 228.311 73.7666 228.771 73.9066Z" fill="white"/>
<path d="M276.68 87.6964L275.88 89.2164L274.36 87.3064L275.51 86.1164L273.77 84.3464L274.34 82.8964L275.9 84.8064L275.69 82.5264L277.6 83.6264L277.4 85.6264L278.96 85.5264L279.54 87.6364L277.84 87.4064L278.98 89.9464L277.49 90.1064L276.68 87.6964Z" fill="white"/>
<path d="M269.17 83.3665L268.37 84.8765L266.85 82.9665L268 81.7765L266.27 80.0165L266.84 78.5565L268.4 80.4665L268.19 78.1865L270.1 79.2865L269.9 81.2865L271.46 81.1965L272.04 83.2965L270.33 83.0765L271.48 85.6065L269.98 85.7665L269.17 83.3665Z" fill="white"/>
<path d="M261.65 79.0267L260.85 80.5367L259.33 78.6267L260.49 77.4367L258.77 75.6767L259.34 74.2167L260.9 76.1367L260.68 73.8467L262.6 74.9567L262.4 76.9567L263.96 76.8667L264.54 78.9667L262.83 78.7467L263.97 81.2767L262.48 81.4367L261.65 79.0267Z" fill="white"/>
<path d="M254.14 74.6866L253.34 76.1966L251.82 74.2866L252.98 73.0966L251.25 71.3366L251.81 69.8766L253.37 71.7666L253.16 69.4766L255.07 70.5866L254.87 72.5866L256.43 72.4866L257.01 74.5866L255.31 74.3666L256.45 76.9066L254.96 77.0666L254.14 74.6866Z" fill="white"/>
<path d="M246.63 70.3468L245.83 71.8668L244.31 69.9568L245.46 68.7668L243.77 67.0068L244.33 65.5468L245.89 67.4568L245.68 65.1768L247.59 66.2768L247.39 68.2768L248.95 68.1768L249.53 70.2868L247.83 70.0568L248.97 72.5968L247.48 72.7568L246.63 70.3468Z" fill="white"/>
<path d="M276.68 109.147L275.88 110.657L274.36 108.757L275.51 107.557L273.77 105.767L274.34 104.307L275.9 106.227L275.69 103.947L277.6 105.047L277.4 107.047L278.96 106.947L279.54 109.047L277.84 108.827L278.98 111.367L277.49 111.527L276.68 109.147Z" fill="white"/>
<path d="M269.17 104.767L268.37 106.287L266.85 104.377L268 103.187L266.27 101.427L266.84 99.9667L268.4 101.877L268.19 99.5967L270.1 100.697L269.9 102.697L271.46 102.597L272.04 104.707L270.33 104.477L271.48 107.017L269.98 107.177L269.17 104.767Z" fill="white"/>
<path d="M261.65 100.477L260.85 101.987L259.33 100.077L260.49 98.8869L258.77 97.1269L259.34 95.6669L260.9 97.5769L260.68 95.2969L262.6 96.3969L262.4 98.3969L263.96 98.3069L264.54 100.407L262.83 100.187L263.97 102.717L262.48 102.877L261.65 100.477Z" fill="white"/>
<path d="M254.14 96.1365L253.34 97.6465L251.82 95.7665L252.98 94.5765L251.25 92.7665L251.81 91.3065L253.37 93.2265L253.16 90.9365L255.07 92.0465L254.87 94.0465L256.43 93.9565L257.01 96.0565L255.31 95.8365L256.45 98.3665L254.96 98.5365L254.14 96.1365Z" fill="white"/>
<path d="M246.63 91.767L245.83 93.277L244.31 91.377L245.46 90.187L243.77 88.447L244.33 86.997L245.89 88.907L245.68 86.627L247.59 87.727L247.39 89.727L248.95 89.627L249.53 91.727L247.83 91.507L248.97 94.047L247.48 94.207L246.63 91.767Z" fill="white"/>
<g style="mix-blend-mode:lighten" opacity="0.3">
<path d="M243.861 310.677L233.951 316.407L224.041 310.677L233.951 304.957L243.861 310.677Z" fill="#4846A5"/>
</g>
<g style="mix-blend-mode:lighten" opacity="0.1">
<path d="M276.89 266.187L266.98 271.907L257.07 266.187L266.98 260.467L276.89 266.187Z" fill="#4846A5"/>
</g>
<g style="mix-blend-mode:lighten" opacity="0.1">
<path d="M232.849 114.286L222.939 120.006L213.029 114.286L222.939 108.566L232.849 114.286Z" fill="#4846A5"/>
</g>
<g style="mix-blend-mode:lighten" opacity="0.3">
<path d="M287.9 285.257L277.99 290.977L268.07 285.257L277.99 279.537L287.9 285.257Z" fill="#4846A5"/>
</g>
<g style="mix-blend-mode:lighten" opacity="0.3">
<path d="M408.99 253.477L399.08 259.197L389.17 253.477L399.08 247.757L408.99 253.477Z" fill="#4846A5"/>
</g>
<g style="mix-blend-mode:lighten" opacity="0.3">
<path d="M175.621 163.996L165.701 169.716L155.791 163.996L165.701 158.276L175.621 163.996Z" fill="#4846A5"/>
</g>
<g style="mix-blend-mode:lighten" opacity="0.3">
<path d="M415.631 163.847L405.721 169.567L395.811 163.847L405.721 158.117L415.631 163.847Z" fill="#4846A5"/>
</g>
<g style="mix-blend-mode:lighten" opacity="0.1">
<path d="M110.66 174.037L100.75 179.757L90.8398 174.037L100.75 168.307L110.66 174.037Z" fill="#4846A5"/>
</g>
<path d="M146.25 152.157C145.93 152.154 145.616 152.068 145.34 151.907L103.58 127.767C103.304 127.608 103.076 127.379 102.918 127.103C102.76 126.827 102.678 126.514 102.68 126.197C102.681 125.879 102.764 125.568 102.922 125.292C103.08 125.017 103.306 124.788 103.58 124.627L145.34 100.517C145.615 100.357 145.927 100.272 146.245 100.272C146.563 100.272 146.875 100.357 147.15 100.517L188.91 124.617C189.184 124.777 189.412 125.006 189.572 125.282C189.731 125.557 189.817 125.868 189.82 126.187C189.82 126.505 189.735 126.818 189.576 127.094C189.416 127.369 189.186 127.598 188.91 127.757L147.15 151.867C146.881 152.042 146.57 152.142 146.25 152.157ZM104.85 126.157L146.25 150.067L187.64 126.157L146.25 102.257L104.85 126.157Z" fill="url(#paint26_linear_1226_20460)"/>
<path d="M183.871 117.486V109.896L146.251 130.656L108.631 109.896V117.486L146.251 139.206L183.871 117.486Z" fill="url(#paint27_linear_1226_20460)"/>
<path d="M146.251 131.617L108.631 109.897L146.251 88.1768L183.871 109.897L146.251 131.617Z" fill="url(#paint28_linear_1226_20460)"/>
<path opacity="0.5" d="M146.251 130.997L109.171 109.587L108.631 109.897L146.251 131.617L183.871 109.897L183.331 109.587L146.251 130.997Z" fill="white"/>
<path d="M146.25 123.327L123 109.897L146.25 96.4766L169.51 109.897L146.25 123.327Z" fill="#0F054C"/>
<path opacity="0.5" d="M146.25 123.327L122.99 109.897L146.25 96.4766L169.51 109.897L146.25 123.327Z" fill="url(#paint29_linear_1226_20460)"/>
<path opacity="0.5" d="M146.25 77.6865L169.51 91.1165V109.897L146.25 96.4765V77.6865Z" fill="url(#paint30_linear_1226_20460)"/>
<path opacity="0.5" d="M146.25 96.4765L122.99 109.897V91.1165L146.25 77.6865V96.4765Z" fill="url(#paint31_linear_1226_20460)"/>
<path opacity="0.5" d="M146.25 104.547L122.99 91.1165L146.25 77.6865L169.51 91.1165L146.25 104.547Z" fill="url(#paint32_linear_1226_20460)"/>
<path opacity="0.5" d="M146.25 104.547V123.327L169.51 109.897V91.1167L146.25 104.547Z" fill="url(#paint33_linear_1226_20460)"/>
<path opacity="0.5" d="M122.99 91.1167V109.897L146.25 123.327V104.547L122.99 91.1167Z" fill="url(#paint34_linear_1226_20460)"/>
</g>
<defs>
<linearGradient id="paint0_linear_1226_20460" x1="286.249" y1="295.272" x2="234.849" y2="295.272" gradientUnits="userSpaceOnUse">
<stop stop-color="#9D73FE"/>
<stop offset="1" stop-color="#6826FF"/>
</linearGradient>
<linearGradient id="paint1_linear_1226_20460" x1="210.838" y1="151.374" x2="166.535" y2="151.374" gradientUnits="userSpaceOnUse">
<stop stop-color="#9D73FE"/>
<stop offset="1" stop-color="#6826FF"/>
</linearGradient>
<linearGradient id="paint2_linear_1226_20460" x1="133.319" y1="179.612" x2="57.9994" y2="179.612" gradientUnits="userSpaceOnUse">
<stop stop-color="#9D73FE"/>
<stop offset="1" stop-color="#6826FF"/>
</linearGradient>
<linearGradient id="paint3_linear_1226_20460" x1="259.559" y1="113.783" x2="283.237" y2="72.5823" gradientUnits="userSpaceOnUse">
<stop stop-color="#C0BFF6"/>
<stop offset="0.29" stop-color="#C5C4F7"/>
<stop offset="0.64" stop-color="#D3D2F9"/>
<stop offset="1" stop-color="#E9E9FD"/>
</linearGradient>
<linearGradient id="paint4_linear_1226_20460" x1="372.906" y1="213.263" x2="174.539" y2="213.263" gradientUnits="userSpaceOnUse">
<stop stop-color="#9D73FE"/>
<stop offset="1" stop-color="#6826FF"/>
</linearGradient>
<linearGradient id="paint5_linear_1226_20460" x1="399.299" y1="118.027" x2="248.929" y2="118.027" gradientUnits="userSpaceOnUse">
<stop stop-color="#C0BFF6"/>
<stop offset="0.29" stop-color="#C5C4F7"/>
<stop offset="0.64" stop-color="#D3D2F9"/>
<stop offset="1" stop-color="#E9E9FD"/>
</linearGradient>
<linearGradient id="paint6_linear_1226_20460" x1="399.3" y1="156.587" x2="373.48" y2="156.587" gradientUnits="userSpaceOnUse">
<stop stop-color="#5761D7"/>
<stop offset="0.18" stop-color="#5C66D9"/>
<stop offset="0.39" stop-color="#6A73DF"/>
<stop offset="0.61" stop-color="#8289E8"/>
<stop offset="0.85" stop-color="#A3A7F5"/>
<stop offset="1" stop-color="#BCBEFF"/>
</linearGradient>
<linearGradient id="paint7_linear_1226_20460" x1="379.15" y1="199.937" x2="166.79" y2="199.937" gradientUnits="userSpaceOnUse">
<stop stop-color="#5761D7"/>
<stop offset="0.18" stop-color="#5C66D9"/>
<stop offset="0.39" stop-color="#6A73DF"/>
<stop offset="0.61" stop-color="#8289E8"/>
<stop offset="0.85" stop-color="#A3A7F5"/>
<stop offset="1" stop-color="#BCBEFF"/>
</linearGradient>
<linearGradient id="paint8_linear_1226_20460" x1="307.799" y1="192.857" x2="95.3193" y2="192.857" gradientUnits="userSpaceOnUse">
<stop stop-color="#C0BFF6"/>
<stop offset="0.29" stop-color="#C5C4F7"/>
<stop offset="0.64" stop-color="#D3D2F9"/>
<stop offset="1" stop-color="#E9E9FD"/>
</linearGradient>
<linearGradient id="paint9_linear_1226_20460" x1="271.811" y1="204.917" x2="217.421" y2="204.917" gradientUnits="userSpaceOnUse">
<stop stop-color="#C0BFF6"/>
<stop offset="0.29" stop-color="#C5C4F7"/>
<stop offset="0.64" stop-color="#D3D2F9"/>
<stop offset="1" stop-color="#E9E9FD"/>
</linearGradient>
<linearGradient id="paint10_linear_1226_20460" x1="388.971" y1="145.757" x2="176.501" y2="145.757" gradientUnits="userSpaceOnUse">
<stop stop-color="#C0BFF6"/>
<stop offset="0.29" stop-color="#C5C4F7"/>
<stop offset="0.64" stop-color="#D3D2F9"/>
<stop offset="1" stop-color="#E9E9FD"/>
</linearGradient>
<linearGradient id="paint11_linear_1226_20460" x1="402.962" y1="130.157" x2="348.572" y2="130.157" gradientUnits="userSpaceOnUse">
<stop stop-color="#C0BFF6"/>
<stop offset="0.29" stop-color="#C5C4F7"/>
<stop offset="0.64" stop-color="#D3D2F9"/>
<stop offset="1" stop-color="#E9E9FD"/>
</linearGradient>
<linearGradient id="paint12_linear_1226_20460" x1="248.228" y1="250.118" x2="118.569" y2="250.118" gradientUnits="userSpaceOnUse">
<stop stop-color="#9D73FE"/>
<stop offset="1" stop-color="#6826FF"/>
</linearGradient>
<linearGradient id="paint13_linear_1226_20460" x1="246.884" y1="240.066" x2="141.927" y2="240.066" gradientUnits="userSpaceOnUse">
<stop stop-color="#5761D7"/>
<stop offset="0.18" stop-color="#5C66D9"/>
<stop offset="0.39" stop-color="#6A73DF"/>
<stop offset="0.61" stop-color="#8289E8"/>
<stop offset="0.85" stop-color="#A3A7F5"/>
<stop offset="1" stop-color="#BCBEFF"/>
</linearGradient>
<radialGradient id="paint14_radial_1226_20460" cx="0" cy="0" r="1" gradientUnits="userSpaceOnUse" gradientTransform="translate(223.801 208.947) rotate(180) scale(49.84 49.84)">
<stop stop-color="#2B237C"/>
<stop offset="1" stop-color="#180D5B"/>
</radialGradient>
<linearGradient id="paint15_linear_1226_20460" x1="248.428" y1="224.6" x2="128.269" y2="224.6" gradientUnits="userSpaceOnUse">
<stop stop-color="#9D73FE"/>
<stop offset="1" stop-color="#6826FF"/>
</linearGradient>
<linearGradient id="paint16_linear_1226_20460" x1="226.534" y1="251.727" x2="121.586" y2="251.727" gradientUnits="userSpaceOnUse">
<stop stop-color="#C0BFF6"/>
<stop offset="0.29" stop-color="#C5C4F7"/>
<stop offset="0.64" stop-color="#D3D2F9"/>
<stop offset="1" stop-color="#E9E9FD"/>
</linearGradient>
<linearGradient id="paint17_linear_1226_20460" x1="403.117" y1="277.771" x2="337.457" y2="277.771" gradientUnits="userSpaceOnUse">
<stop stop-color="#9D73FE"/>
<stop offset="1" stop-color="#6826FF"/>
</linearGradient>
<linearGradient id="paint18_linear_1226_20460" x1="396.796" y1="330.35" x2="249.421" y2="330.35" gradientUnits="userSpaceOnUse">
<stop stop-color="#9D73FE"/>
<stop offset="1" stop-color="#6826FF"/>
</linearGradient>
<linearGradient id="paint19_linear_1226_20460" x1="371.378" y1="330.382" x2="274.849" y2="330.382" gradientUnits="userSpaceOnUse">
<stop stop-color="#9D73FE"/>
<stop offset="1" stop-color="#6826FF"/>
</linearGradient>
<linearGradient id="paint20_linear_1226_20460" x1="308.082" y1="257.15" x2="298.717" y2="263.065" gradientUnits="userSpaceOnUse">
<stop stop-color="white"/>
<stop offset="1" stop-color="#4442A4"/>
</linearGradient>
<linearGradient id="paint21_linear_1226_20460" x1="341.637" y1="264.479" x2="324.147" y2="278.573" gradientUnits="userSpaceOnUse">
<stop stop-color="white"/>
<stop offset="1" stop-color="#4442A4"/>
</linearGradient>
<linearGradient id="paint22_linear_1226_20460" x1="349" y1="228.907" x2="309" y2="246.907" gradientUnits="userSpaceOnUse">
<stop stop-color="white"/>
<stop offset="1" stop-color="#4442A4"/>
</linearGradient>
<linearGradient id="paint23_linear_1226_20460" x1="297.041" y1="114.446" x2="218.311" y2="48.3765" gradientUnits="userSpaceOnUse">
<stop stop-color="#5761D7"/>
<stop offset="0.18" stop-color="#5C66D9"/>
<stop offset="0.39" stop-color="#6A73DF"/>
<stop offset="0.61" stop-color="#8289E8"/>
<stop offset="0.85" stop-color="#A3A7F5"/>
<stop offset="1" stop-color="#BCBEFF"/>
</linearGradient>
<linearGradient id="paint24_linear_1226_20460" x1="298.629" y1="94.6971" x2="290.029" y2="87.4771" gradientUnits="userSpaceOnUse">
<stop stop-color="#C0BFF6"/>
<stop offset="0.29" stop-color="#C5C4F7"/>
<stop offset="0.64" stop-color="#D3D2F9"/>
<stop offset="1" stop-color="#E9E9FD"/>
</linearGradient>
<linearGradient id="paint25_linear_1226_20460" x1="259.559" y1="113.783" x2="283.237" y2="72.5823" gradientUnits="userSpaceOnUse">
<stop stop-color="#C0BFF6"/>
<stop offset="0.29" stop-color="#C5C4F7"/>
<stop offset="0.64" stop-color="#D3D2F9"/>
<stop offset="1" stop-color="#E9E9FD"/>
</linearGradient>
<linearGradient id="paint26_linear_1226_20460" x1="189.818" y1="126.215" x2="102.679" y2="126.215" gradientUnits="userSpaceOnUse">
<stop stop-color="#9D73FE"/>
<stop offset="1" stop-color="#6826FF"/>
</linearGradient>
<linearGradient id="paint27_linear_1226_20460" x1="183.87" y1="124.552" x2="108.63" y2="124.552" gradientUnits="userSpaceOnUse">
<stop stop-color="#9D73FE"/>
<stop offset="1" stop-color="#6826FF"/>
</linearGradient>
<linearGradient id="paint28_linear_1226_20460" x1="108.631" y1="109.897" x2="183.871" y2="109.897" gradientUnits="userSpaceOnUse">
<stop stop-color="#C0BFF6"/>
<stop offset="0.29" stop-color="#C5C4F7"/>
<stop offset="0.64" stop-color="#D3D2F9"/>
<stop offset="1" stop-color="#E9E9FD"/>
</linearGradient>
<linearGradient id="paint29_linear_1226_20460" x1="122.99" y1="109.897" x2="169.51" y2="109.897" gradientUnits="userSpaceOnUse">
<stop stop-color="#42E8E0"/>
<stop offset="0.15" stop-color="#43E3E0"/>
<stop offset="0.33" stop-color="#45D5DF"/>
<stop offset="0.52" stop-color="#49BDDD"/>
<stop offset="0.72" stop-color="#4E9CDB"/>
<stop offset="0.93" stop-color="#5472D8"/>
<stop offset="1" stop-color="#5761D7"/>
</linearGradient>
<linearGradient id="paint30_linear_1226_20460" x1="146.25" y1="93.7965" x2="169.51" y2="93.7965" gradientUnits="userSpaceOnUse">
<stop stop-color="#42E8E0"/>
<stop offset="0.15" stop-color="#43E3E0"/>
<stop offset="0.33" stop-color="#45D5DF"/>
<stop offset="0.52" stop-color="#49BDDD"/>
<stop offset="0.72" stop-color="#4E9CDB"/>
<stop offset="0.93" stop-color="#5472D8"/>
<stop offset="1" stop-color="#5761D7"/>
</linearGradient>
<linearGradient id="paint31_linear_1226_20460" x1="122.99" y1="93.7965" x2="146.25" y2="93.7965" gradientUnits="userSpaceOnUse">
<stop stop-color="#42E8E0"/>
<stop offset="0.15" stop-color="#43E3E0"/>
<stop offset="0.33" stop-color="#45D5DF"/>
<stop offset="0.52" stop-color="#49BDDD"/>
<stop offset="0.72" stop-color="#4E9CDB"/>
<stop offset="0.93" stop-color="#5472D8"/>
<stop offset="1" stop-color="#5761D7"/>
</linearGradient>
<linearGradient id="paint32_linear_1226_20460" x1="169.51" y1="91.1167" x2="122.99" y2="91.1167" gradientUnits="userSpaceOnUse">
<stop stop-color="#9D73FE"/>
<stop offset="1" stop-color="#6826FF"/>
</linearGradient>
<linearGradient id="paint33_linear_1226_20460" x1="169.51" y1="107.222" x2="146.25" y2="107.222" gradientUnits="userSpaceOnUse">
<stop stop-color="#9D73FE"/>
<stop offset="1" stop-color="#6826FF"/>
</linearGradient>
<linearGradient id="paint34_linear_1226_20460" x1="146.25" y1="107.222" x2="122.99" y2="107.222" gradientUnits="userSpaceOnUse">
<stop stop-color="#9D73FE"/>
<stop offset="1" stop-color="#6826FF"/>
</linearGradient>
<clipPath id="clip0_1226_20460">
<rect width="402.38" height="344.44" fill="white" transform="translate(58 28.9067)"/>
</clipPath>
</defs>
</svg>
