<svg width="426" height="371" viewBox="0 0 426 371" fill="none" xmlns="http://www.w3.org/2000/svg">
<path d="M192.358 371C190.938 371 189.454 370.653 188.302 369.991L1.84641 262.499C0.678595 261.821 0 260.907 0 259.977C0 259.189 0.473439 258.48 1.35719 257.976L112.615 193.821C114.462 192.749 117.697 192.875 119.827 194.104L306.283 301.597C307.451 302.275 308.13 303.189 308.13 304.118C308.13 304.906 307.656 305.615 306.772 306.12L195.514 370.275C194.678 370.763 193.542 371 192.358 371ZM115.772 193.726C114.714 193.726 113.688 193.947 112.931 194.372L1.67282 258.527C1.01 258.906 0.631251 259.426 0.631251 259.977C0.631251 260.671 1.1836 261.395 2.16204 261.947L188.618 369.44C190.575 370.559 193.526 370.685 195.199 369.723L306.457 305.568C307.12 305.19 307.498 304.67 307.498 304.118C307.498 303.425 306.946 302.7 305.968 302.148L119.512 194.656C118.439 194.041 117.066 193.726 115.772 193.726Z" fill="#42E8E0"/>
<path d="M307.814 285.555L297.54 284.073L119.67 181.529C117.634 180.347 114.541 180.221 112.773 181.245L6.83334 242.312L0.315674 241.382V250.018H0.331455C0.347236 250.79 0.899581 251.61 2.00427 252.24L188.46 359.733C190.496 360.915 193.589 361.041 195.357 360.016L306.615 295.861C307.435 295.388 307.798 294.758 307.782 294.096H307.798V285.555H307.814Z" fill="url(#paint0_linear_560_2696)"/>
<path d="M2.00406 243.651L188.46 351.144C190.496 352.326 193.589 352.452 195.356 351.427L306.614 287.272C308.382 286.248 308.161 284.467 306.125 283.301L119.669 175.808C117.634 174.626 114.54 174.5 112.773 175.525L1.51484 239.68C-0.252666 240.704 -0.0317276 242.485 2.00406 243.651Z" fill="url(#paint1_linear_560_2696)"/>
<path opacity="0.3" d="M18.1484 245.763L184.799 341.846C186.629 342.902 189.375 343.012 190.969 342.098L290.423 284.766C292.001 283.852 291.812 282.261 289.981 281.221L123.331 185.138C121.5 184.082 118.754 183.971 117.16 184.885L17.7065 242.217C16.1284 243.115 16.3336 244.707 18.1484 245.763Z" fill="#24126A"/>
<path d="M306.615 286.358L195.356 350.513C193.589 351.538 190.496 351.412 188.46 350.23L2.00416 242.721C1.10463 242.201 0.583849 241.571 0.410255 240.94C0.126192 241.854 0.662755 242.879 2.00416 243.651L188.46 351.144C190.496 352.326 193.589 352.452 195.356 351.427L306.615 287.272C307.609 286.705 307.956 285.885 307.719 285.082C307.577 285.57 307.23 286.011 306.615 286.358Z" fill="white"/>
<path d="M119.338 142.304L142.9 2.66308L141.006 1.85937L143.846 0.236182V0.251941C144.399 -0.110517 145.188 -0.0947584 146.04 0.409532L334.405 109.005C335.952 109.904 337.12 112.189 336.851 113.78L313.101 254.524C312.974 255.265 312.611 255.738 312.106 255.959L309.313 257.566L308.84 254.966L308.998 255.013L121.784 147.079C120.238 146.181 119.07 143.896 119.338 142.304Z" fill="url(#paint2_linear_560_2696)"/>
<path d="M333.364 112.819L336.457 111.448C336.804 112.236 336.978 113.071 336.852 113.78L313.101 254.524C312.974 255.265 312.611 255.738 312.106 255.958L309.313 257.566L308.84 254.966L308.998 255.013L299.529 249.544L333.364 112.819Z" fill="url(#paint3_linear_560_2696)"/>
<path d="M118.833 148.765L307.198 257.361C308.65 258.196 309.897 257.708 310.15 256.211L333.9 115.466C334.169 113.875 333.001 111.574 331.454 110.691L143.089 2.09568C141.637 1.26045 140.39 1.74898 140.138 3.2461L116.387 143.99C116.103 145.598 117.271 147.883 118.833 148.765Z" fill="#24126A"/>
<g opacity="0.51">
<path d="M142.458 4.71191L331.707 113.78L307.814 254.887L118.675 145.897L142.458 4.71191Z" fill="#453C9E"/>
</g>
<path d="M0.4104 215.411L10.684 220.769L113.767 161.342C115.488 160.349 118.502 160.475 120.49 161.625L298.282 264.122C299.987 263.177 307.735 259.442 307.735 259.442L303.979 265.556L303.963 265.541C303.806 265.982 303.474 266.376 302.906 266.707L194.347 329.302C192.626 330.295 189.612 330.168 187.624 329.018L5.69713 224.126C4.8765 223.653 4.3715 223.086 4.16635 222.503L4.15057 222.518L0.4104 215.411Z" fill="url(#paint4_linear_560_2696)"/>
<path d="M2.0043 217.097L188.46 324.59C190.496 325.771 193.589 325.898 195.357 324.873L306.615 260.718C308.382 259.694 308.161 257.913 306.125 256.747L119.67 149.254C117.634 148.072 114.541 147.946 112.773 148.97L1.51508 213.126C-0.252421 214.134 -0.0314834 215.915 2.0043 217.097Z" fill="url(#paint5_linear_560_2696)"/>
<path d="M2.00428 216.262L188.46 323.754C190.496 324.936 193.589 325.062 195.357 324.038L306.615 259.883C307.23 259.52 307.593 259.063 307.735 258.575C307.94 259.363 307.577 260.151 306.615 260.718L195.357 324.873C193.589 325.898 190.496 325.772 188.46 324.59L2.00428 217.097C0.678648 216.341 0.142084 215.316 0.394585 214.418C0.552397 215.08 1.08896 215.726 2.00428 216.262Z" fill="white"/>
<g opacity="0.15">
<mask id="mask0_560_2696" style="mask-type:luminance" maskUnits="userSpaceOnUse" x="118" y="4" width="214" height="251">
<path d="M331.707 113.78L142.458 4.71191L118.675 145.897L307.814 254.887L331.707 113.78Z" fill="white"/>
</mask>
<g mask="url(#mask0_560_2696)">
<path d="M118.596 147.867L128.87 153.226L231.953 93.7981C233.674 92.8053 236.688 92.9314 238.676 94.0818L416.468 196.579C418.173 195.633 425.921 191.898 425.921 191.898L422.165 198.013L422.149 197.997C421.992 198.438 421.66 198.832 421.092 199.163L312.533 261.758C310.812 262.751 307.798 262.625 305.81 261.475L123.867 156.582C123.047 156.109 122.542 155.542 122.337 154.959L122.321 154.975L118.596 147.867Z" fill="url(#paint6_linear_560_2696)"/>
<path d="M120.19 149.553L306.646 257.046C308.682 258.228 311.775 258.354 313.543 257.33L424.801 193.175C426.568 192.15 426.347 190.369 424.311 189.203L237.856 81.7107C235.82 80.5288 232.727 80.4027 230.959 81.427L119.701 145.582C117.918 146.591 118.139 148.372 120.19 149.553Z" fill="url(#paint7_linear_560_2696)"/>
<path d="M424.311 189.219L237.856 81.7109C236.546 80.9545 234.794 80.6393 233.247 80.7811C234.399 80.8757 235.552 81.1751 236.483 81.7109L422.938 189.219C424.974 190.401 425.195 192.182 423.428 193.191L312.17 257.346C311.538 257.708 310.734 257.913 309.881 257.992C311.239 258.102 312.58 257.897 313.543 257.346L424.801 193.191C426.568 192.166 426.347 190.385 424.311 189.219Z" fill="white"/>
<g opacity="0.5">
<path d="M217.845 131.053L211.864 127.601C211.39 127.318 210.57 127.349 210.049 127.649L203.405 131.525C202.884 131.825 202.853 132.297 203.326 132.581L209.307 136.032C209.781 136.316 210.601 136.285 211.122 135.985L217.766 132.108C218.303 131.793 218.334 131.32 217.845 131.053Z" fill="#24126A"/>
<path d="M227.077 136.364L221.096 132.912C220.622 132.629 219.802 132.66 219.281 132.96L212.637 136.836C212.116 137.136 212.085 137.609 212.558 137.892L218.539 141.343C219.013 141.627 219.833 141.596 220.354 141.296L226.998 137.419C227.519 137.12 227.566 136.647 227.077 136.364Z" fill="#24126A"/>
<path d="M236.309 141.69L230.328 138.238C229.854 137.955 229.034 137.986 228.513 138.286L221.869 142.163C221.348 142.462 221.317 142.935 221.79 143.218L227.771 146.67C228.245 146.953 229.065 146.922 229.586 146.622L236.23 142.746C236.751 142.446 236.782 141.973 236.309 141.69Z" fill="#24126A"/>
<path d="M229.286 148.766L223.305 145.315C222.832 145.031 222.011 145.063 221.49 145.362L215.92 148.608C215.399 148.908 215.367 149.381 215.841 149.664L221.822 153.115C222.295 153.399 223.116 153.368 223.637 153.068L229.208 149.822C229.728 149.522 229.76 149.05 229.286 148.766Z" fill="#24126A"/>
<path d="M238.518 154.092L232.537 150.641C232.064 150.357 231.243 150.389 230.722 150.688L225.152 153.934C224.631 154.234 224.599 154.707 225.073 154.99L231.054 158.442C231.527 158.725 232.348 158.694 232.869 158.394L238.439 155.148C238.96 154.849 238.992 154.376 238.518 154.092Z" fill="#24126A"/>
<path d="M247.735 159.419L241.754 155.968C241.28 155.684 240.459 155.715 239.939 156.015L234.368 159.261C233.847 159.561 233.816 160.033 234.289 160.317L240.27 163.768C240.744 164.052 241.564 164.02 242.085 163.721L247.656 160.475C248.192 160.159 248.224 159.687 247.735 159.419Z" fill="#24126A"/>
<path d="M256.967 164.745L250.986 161.294C250.512 161.01 249.692 161.042 249.171 161.341L243.6 164.588C243.079 164.887 243.048 165.36 243.521 165.644L249.502 169.095C249.976 169.379 250.796 169.347 251.317 169.048L256.888 165.801C257.424 165.486 257.456 165.013 256.967 164.745Z" fill="#24126A"/>
<path d="M266.199 170.056L260.218 166.605C259.744 166.322 258.924 166.353 258.403 166.652L252.832 169.899C252.311 170.198 252.28 170.671 252.753 170.955L258.734 174.406C259.208 174.69 260.028 174.658 260.549 174.359L266.12 171.112C266.641 170.813 266.688 170.34 266.199 170.056Z" fill="#24126A"/>
<path d="M275.431 175.383L269.45 171.931C268.976 171.648 268.156 171.679 267.635 171.979L262.064 175.225C261.543 175.524 261.512 175.997 261.985 176.281L267.966 179.732C268.44 180.016 269.26 179.984 269.781 179.685L275.352 176.438C275.873 176.123 275.904 175.651 275.431 175.383Z" fill="#24126A"/>
<path d="M284.663 180.709L278.682 177.258C278.208 176.974 277.388 177.006 276.867 177.305L271.296 180.552C270.775 180.851 270.744 181.324 271.217 181.608L277.198 185.059C277.672 185.342 278.492 185.311 279.013 185.011L284.584 181.765C285.105 181.45 285.136 180.977 284.663 180.709Z" fill="#24126A"/>
<path d="M293.895 186.02L287.914 182.569C287.44 182.285 286.62 182.317 286.099 182.616L280.528 185.863C280.007 186.162 279.976 186.635 280.449 186.919L286.43 190.37C286.904 190.653 287.724 190.622 288.245 190.323L293.816 187.076C294.337 186.777 294.368 186.304 293.895 186.02Z" fill="#24126A"/>
<path d="M303.127 191.347L297.146 187.896C296.672 187.612 295.852 187.644 295.331 187.943L289.76 191.189C289.239 191.489 289.208 191.962 289.681 192.245L295.662 195.696C296.136 195.98 296.957 195.949 297.477 195.649L303.048 192.403C303.569 192.088 303.6 191.615 303.127 191.347Z" fill="#24126A"/>
<path d="M312.359 196.673L306.378 193.222C305.904 192.938 305.084 192.97 304.563 193.269L298.992 196.516C298.472 196.815 298.44 197.288 298.913 197.571L304.894 201.023C305.368 201.306 306.189 201.275 306.709 200.975L312.28 197.729C312.801 197.414 312.832 196.941 312.359 196.673Z" fill="#24126A"/>
<path d="M225.436 156.377L219.455 152.926C218.981 152.642 218.161 152.674 217.64 152.973L212.069 156.22C211.548 156.519 211.517 156.992 211.99 157.276L217.971 160.727C218.445 161.01 219.265 160.979 219.786 160.679L225.357 157.433C225.878 157.118 225.925 156.645 225.436 156.377Z" fill="#24126A"/>
<path d="M216.077 150.972L210.096 147.521C209.623 147.237 208.802 147.269 208.281 147.568L202.711 150.814C202.19 151.114 202.158 151.587 202.632 151.87L208.613 155.321C209.086 155.605 209.907 155.574 210.428 155.274L215.999 152.028C216.519 151.713 216.551 151.24 216.077 150.972Z" fill="#24126A"/>
<path d="M206.688 145.567L193.81 138.144C193.337 137.861 192.516 137.892 191.995 138.192L186.424 141.438C185.904 141.737 185.872 142.21 186.346 142.494L199.223 149.916C199.696 150.2 200.517 150.168 201.038 149.869L206.609 146.623C207.129 146.307 207.161 145.835 206.688 145.567Z" fill="#24126A"/>
<path d="M195.798 149.097L185.351 143.077C184.878 142.793 184.057 142.825 183.536 143.124L177.966 146.371C177.445 146.67 177.413 147.143 177.887 147.426L188.334 153.446C188.807 153.73 189.628 153.698 190.149 153.399L195.72 150.153C196.24 149.838 196.288 149.381 195.798 149.097Z" fill="#24126A"/>
<path d="M234.668 161.688L228.687 158.237C228.213 157.953 227.393 157.985 226.872 158.284L221.301 161.531C220.78 161.83 220.749 162.303 221.222 162.587L227.203 166.038C227.677 166.321 228.497 166.29 229.018 165.99L234.589 162.744C235.11 162.445 235.141 161.972 234.668 161.688Z" fill="#24126A"/>
<path d="M243.9 167.015L237.919 163.564C237.445 163.28 236.625 163.312 236.104 163.611L230.533 166.857C230.012 167.157 229.981 167.63 230.454 167.913L236.435 171.364C236.909 171.648 237.729 171.617 238.25 171.317L243.821 168.071C244.342 167.756 244.373 167.283 243.9 167.015Z" fill="#24126A"/>
<path d="M253.132 172.341L247.151 168.89C246.677 168.606 245.857 168.638 245.336 168.937L239.765 172.184C239.244 172.483 239.213 172.956 239.686 173.239L245.667 176.691C246.141 176.974 246.961 176.943 247.482 176.643L253.053 173.397C253.574 173.082 253.605 172.609 253.132 172.341Z" fill="#24126A"/>
<path d="M262.364 177.652L256.383 174.201C255.909 173.917 255.089 173.949 254.568 174.248L248.997 177.495C248.476 177.794 248.445 178.267 248.918 178.55L254.899 182.002C255.373 182.285 256.193 182.254 256.714 181.954L262.285 178.708C262.806 178.409 262.837 177.936 262.364 177.652Z" fill="#24126A"/>
<path d="M271.58 182.979L265.599 179.528C265.126 179.244 264.305 179.275 263.784 179.575L258.213 182.821C257.693 183.121 257.661 183.593 258.135 183.877L264.116 187.328C264.589 187.612 265.41 187.58 265.931 187.281L271.501 184.035C272.038 183.719 272.069 183.247 271.58 182.979Z" fill="#24126A"/>
<path d="M280.812 188.305L274.831 184.854C274.358 184.571 273.537 184.602 273.016 184.901L267.446 188.148C266.925 188.447 266.893 188.92 267.367 189.204L273.348 192.655C273.821 192.939 274.642 192.907 275.163 192.608L280.733 189.361C281.27 189.046 281.302 188.573 280.812 188.305Z" fill="#24126A"/>
<path d="M290.044 193.616L284.063 190.165C283.59 189.881 282.769 189.913 282.248 190.212L276.678 193.458C276.157 193.758 276.125 194.231 276.599 194.514L282.58 197.966C283.053 198.249 283.874 198.218 284.395 197.918L289.965 194.672C290.486 194.372 290.534 193.9 290.044 193.616Z" fill="#24126A"/>
<path d="M299.276 198.943L293.295 195.491C292.822 195.208 292.001 195.239 291.48 195.539L285.91 198.785C285.389 199.084 285.357 199.557 285.831 199.841L291.812 203.292C292.285 203.576 293.106 203.544 293.627 203.245L299.197 199.999C299.718 199.683 299.75 199.211 299.276 198.943Z" fill="#24126A"/>
<path d="M308.508 204.269L302.527 200.818C302.054 200.534 301.233 200.566 300.713 200.865L295.142 204.112C294.621 204.411 294.589 204.884 295.063 205.168L301.044 208.619C301.517 208.902 302.338 208.871 302.859 208.572L308.43 205.325C308.95 205.01 308.982 204.537 308.508 204.269Z" fill="#24126A"/>
<path d="M324.921 213.725L311.886 206.208C311.412 205.924 310.592 205.956 310.071 206.255L304.5 209.501C303.979 209.801 303.948 210.274 304.421 210.557L317.456 218.074C317.93 218.358 318.75 218.326 319.271 218.027L324.842 214.781C325.363 214.465 325.394 213.993 324.921 213.725Z" fill="#24126A"/>
<path d="M307.988 223.59L296.988 217.239C296.515 216.955 295.694 216.987 295.173 217.286L289.602 220.533C289.082 220.832 289.05 221.305 289.524 221.588L300.523 227.939C300.996 228.223 301.817 228.192 302.338 227.892L307.909 224.646C308.445 224.346 308.477 223.874 307.988 223.59Z" fill="#24126A"/>
<path d="M233.389 170.765L227.408 167.314C226.935 167.031 226.114 167.062 225.593 167.361L220.023 170.608C219.502 170.907 219.47 171.38 219.944 171.664L225.925 175.115C226.398 175.399 227.219 175.367 227.74 175.068L233.311 171.821C233.831 171.506 233.863 171.049 233.389 170.765Z" fill="#24126A"/>
<path d="M223.921 165.313L217.94 161.862C217.466 161.578 216.646 161.609 216.125 161.909L210.554 165.155C210.033 165.455 210.002 165.927 210.475 166.211L216.456 169.662C216.93 169.946 217.75 169.914 218.271 169.615L223.842 166.369C224.378 166.053 224.41 165.596 223.921 165.313Z" fill="#24126A"/>
<path d="M214.468 159.86L208.487 156.409C208.013 156.125 207.193 156.157 206.672 156.456L201.101 159.703C200.58 160.002 200.549 160.475 201.022 160.758L207.003 164.21C207.477 164.493 208.297 164.462 208.818 164.162L214.389 160.916C214.91 160.601 214.941 160.128 214.468 159.86Z" fill="#24126A"/>
<path d="M205.015 154.408L199.034 150.956C198.56 150.673 197.74 150.704 197.219 151.004L191.648 154.25C191.127 154.549 191.096 155.022 191.569 155.306L197.55 158.757C198.024 159.041 198.844 159.009 199.365 158.71L204.936 155.463C205.457 155.148 205.488 154.675 205.015 154.408Z" fill="#24126A"/>
<path d="M242.621 176.092L236.64 172.641C236.167 172.357 235.346 172.389 234.826 172.688L229.255 175.934C228.734 176.234 228.702 176.707 229.176 176.99L235.157 180.442C235.63 180.725 236.451 180.694 236.972 180.394L242.543 177.148C243.063 176.833 243.095 176.36 242.621 176.092Z" fill="#24126A"/>
<path d="M251.854 181.403L245.872 177.951C245.399 177.668 244.578 177.699 244.058 177.999L238.487 181.245C237.966 181.544 237.934 182.017 238.408 182.301L244.389 185.752C244.862 186.036 245.683 186.004 246.204 185.705L251.775 182.458C252.295 182.159 252.327 181.686 251.854 181.403Z" fill="#24126A"/>
<path d="M261.07 186.729L255.089 183.278C254.615 182.994 253.795 183.026 253.274 183.325L247.703 186.572C247.182 186.871 247.151 187.344 247.624 187.628L253.605 191.079C254.079 191.362 254.899 191.331 255.42 191.032L260.991 187.785C261.528 187.47 261.559 187.013 261.07 186.729Z" fill="#24126A"/>
<path d="M270.302 192.056L264.321 188.605C263.847 188.321 263.027 188.353 262.506 188.652L256.935 191.898C256.414 192.198 256.383 192.671 256.856 192.954L262.837 196.405C263.311 196.689 264.131 196.658 264.652 196.358L270.223 193.112C270.744 192.797 270.791 192.324 270.302 192.056Z" fill="#24126A"/>
<path d="M279.534 197.366L273.553 193.915C273.079 193.632 272.259 193.663 271.738 193.963L266.167 197.209C265.646 197.508 265.615 197.981 266.088 198.265L272.069 201.716C272.543 202 273.363 201.968 273.884 201.669L279.455 198.422C279.976 198.123 280.023 197.65 279.534 197.366Z" fill="#24126A"/>
<path d="M288.766 202.693L282.785 199.242C282.311 198.958 281.491 198.99 280.97 199.289L275.399 202.536C274.878 202.835 274.847 203.308 275.32 203.591L281.301 207.043C281.775 207.326 282.596 207.295 283.116 206.995L288.687 203.749C289.208 203.434 289.239 202.977 288.766 202.693Z" fill="#24126A"/>
<path d="M297.998 208.02L292.017 204.569C291.544 204.285 290.723 204.316 290.202 204.616L284.631 207.862C284.111 208.162 284.079 208.634 284.552 208.918L290.534 212.369C291.007 212.653 291.828 212.621 292.348 212.322L297.919 209.076C298.44 208.76 298.472 208.288 297.998 208.02Z" fill="#24126A"/>
<path d="M307.23 213.331L301.249 209.88C300.776 209.596 299.955 209.627 299.434 209.927L293.863 213.173C293.343 213.473 293.311 213.945 293.784 214.229L299.766 217.68C300.239 217.964 301.06 217.933 301.58 217.633L307.151 214.387C307.672 214.087 307.704 213.615 307.23 213.331Z" fill="#24126A"/>
<path d="M316.462 218.657L310.481 215.206C310.008 214.922 309.187 214.954 308.666 215.253L303.095 218.499C302.575 218.799 302.543 219.272 303.017 219.555L308.998 223.007C309.471 223.29 310.292 223.259 310.812 222.959L316.383 219.713C316.904 219.398 316.936 218.941 316.462 218.657Z" fill="#24126A"/>
<path d="M211.075 167.724L205.094 164.273C204.62 163.989 203.8 164.021 203.279 164.32L197.708 167.566C197.187 167.866 197.156 168.339 197.629 168.622L203.61 172.073C204.084 172.357 204.904 172.326 205.425 172.026L210.996 168.78C211.532 168.465 211.564 167.992 211.075 167.724Z" fill="#24126A"/>
<path d="M201.89 162.429L195.909 158.978C195.435 158.694 194.615 158.726 194.094 159.025L188.523 162.271C188.003 162.571 187.971 163.044 188.444 163.327L194.425 166.778C194.899 167.062 195.72 167.031 196.24 166.731L201.811 163.485C202.348 163.17 202.379 162.697 201.89 162.429Z" fill="#24126A"/>
<path d="M192.721 157.134L186.74 153.682C186.267 153.399 185.446 153.43 184.925 153.73L179.354 156.976C178.834 157.275 178.802 157.748 179.275 158.032L185.257 161.483C185.73 161.767 186.551 161.735 187.071 161.436L192.642 158.189C193.163 157.874 193.195 157.401 192.721 157.134Z" fill="#24126A"/>
<path d="M183.536 151.839L177.555 148.387C177.082 148.104 176.261 148.135 175.74 148.435L170.17 151.681C169.649 151.98 169.617 152.453 170.091 152.737L176.072 156.188C176.545 156.472 177.366 156.44 177.887 156.141L183.458 152.895C183.978 152.579 184.01 152.107 183.536 151.839Z" fill="#24126A"/>
<path d="M174.636 157.023L168.655 153.572C168.181 153.288 167.361 153.32 166.84 153.619L164.993 154.691C164.473 154.99 164.441 155.463 164.914 155.747L170.896 159.198C171.369 159.482 172.19 159.45 172.71 159.151L174.557 158.079C175.078 157.764 175.109 157.291 174.636 157.023Z" fill="#24126A"/>
<path d="M186.63 163.926L180.648 160.475C180.175 160.191 179.354 160.223 178.834 160.522L176.987 161.594C176.466 161.893 176.435 162.366 176.908 162.65L182.889 166.101C183.363 166.384 184.183 166.353 184.704 166.054L186.551 164.982C187.071 164.682 187.103 164.21 186.63 163.926Z" fill="#24126A"/>
<path d="M195.767 169.205L189.786 165.754C189.312 165.47 188.492 165.502 187.971 165.801L186.124 166.873C185.604 167.172 185.572 167.645 186.046 167.929L192.027 171.38C192.5 171.664 193.321 171.632 193.842 171.333L195.688 170.261C196.209 169.946 196.24 169.489 195.767 169.205Z" fill="#24126A"/>
<path d="M204.92 174.485L198.939 171.033C198.466 170.75 197.645 170.781 197.124 171.081L195.278 172.152C194.757 172.452 194.725 172.925 195.199 173.208L201.18 176.659C201.653 176.943 202.474 176.912 202.995 176.612L204.841 175.541C205.362 175.225 205.394 174.753 204.92 174.485Z" fill="#24126A"/>
<path d="M214.057 179.748L208.076 176.297C207.603 176.013 206.782 176.044 206.261 176.344L204.415 177.415C203.894 177.715 203.863 178.188 204.336 178.471L210.317 181.923C210.791 182.206 211.611 182.175 212.132 181.875L213.978 180.804C214.499 180.504 214.547 180.031 214.057 179.748Z" fill="#24126A"/>
<path d="M265.126 209.186L259.145 205.735C258.671 205.451 257.85 205.482 257.33 205.782L255.483 206.853C254.962 207.153 254.931 207.626 255.404 207.909L261.385 211.361C261.859 211.644 262.68 211.613 263.2 211.313L265.047 210.242C265.568 209.942 265.599 209.469 265.126 209.186Z" fill="#24126A"/>
<path d="M274.263 214.465L268.282 211.014C267.808 210.73 266.988 210.762 266.467 211.061L264.621 212.133C264.1 212.432 264.068 212.905 264.542 213.189L270.523 216.64C270.996 216.924 271.817 216.892 272.338 216.593L274.184 215.521C274.705 215.206 274.736 214.733 274.263 214.465Z" fill="#24126A"/>
<path d="M283.416 219.729L277.435 216.278C276.962 215.994 276.141 216.025 275.62 216.325L273.774 217.396C273.253 217.696 273.221 218.169 273.695 218.452L279.676 221.904C280.149 222.187 280.97 222.156 281.491 221.856L283.337 220.785C283.858 220.485 283.89 220.012 283.416 219.729Z" fill="#24126A"/>
<path d="M292.553 225.008L286.572 221.557C286.099 221.273 285.278 221.305 284.758 221.604L282.911 222.676C282.39 222.975 282.359 223.448 282.832 223.732L288.813 227.183C289.287 227.467 290.107 227.435 290.628 227.136L292.475 226.064C292.995 225.749 293.043 225.276 292.553 225.008Z" fill="#24126A"/>
<path d="M220.307 173.034L214.326 169.583C213.852 169.3 213.032 169.331 212.511 169.63L206.94 172.877C206.419 173.176 206.388 173.649 206.861 173.933L212.842 177.384C213.316 177.668 214.136 177.636 214.657 177.337L220.228 174.09C220.764 173.791 220.796 173.318 220.307 173.034Z" fill="#24126A"/>
<path d="M229.539 178.361L223.558 174.91C223.084 174.626 222.264 174.658 221.743 174.957L216.172 178.204C215.651 178.503 215.62 178.976 216.093 179.259L222.074 182.711C222.548 182.994 223.368 182.963 223.889 182.663L229.46 179.417C229.981 179.102 230.028 178.645 229.539 178.361Z" fill="#24126A"/>
<path d="M238.771 183.688L232.79 180.237C232.316 179.953 231.496 179.984 230.975 180.284L225.404 183.53C224.883 183.83 224.852 184.302 225.325 184.586L231.306 188.037C231.78 188.321 232.6 188.289 233.121 187.99L238.692 184.744C239.213 184.428 239.244 183.956 238.771 183.688Z" fill="#24126A"/>
<path d="M248.003 188.999L242.022 185.548C241.548 185.264 240.728 185.295 240.207 185.595L234.636 188.841C234.115 189.141 234.084 189.613 234.557 189.897L240.538 193.348C241.012 193.632 241.832 193.6 242.353 193.301L247.924 190.055C248.445 189.755 248.476 189.282 248.003 188.999Z" fill="#24126A"/>
<path d="M257.235 194.325L251.254 190.874C250.78 190.59 249.96 190.622 249.439 190.921L243.868 194.167C243.347 194.467 243.316 194.94 243.789 195.223L249.77 198.674C250.244 198.958 251.065 198.927 251.585 198.627L257.156 195.381C257.677 195.081 257.708 194.609 257.235 194.325Z" fill="#24126A"/>
<path d="M266.467 199.652L260.486 196.2C260.013 195.917 259.192 195.948 258.671 196.248L253.1 199.494C252.58 199.793 252.548 200.266 253.021 200.55L259.003 204.001C259.476 204.285 260.297 204.253 260.817 203.954L266.388 200.708C266.909 200.392 266.941 199.92 266.467 199.652Z" fill="#24126A"/>
<path d="M275.683 204.963L269.702 201.511C269.229 201.228 268.408 201.259 267.887 201.559L262.317 204.805C261.796 205.105 261.764 205.577 262.238 205.861L268.219 209.312C268.692 209.596 269.513 209.564 270.034 209.265L275.604 206.019C276.141 205.719 276.172 205.246 275.683 204.963Z" fill="#24126A"/>
<path d="M284.915 210.289L278.934 206.838C278.461 206.554 277.64 206.586 277.119 206.885L271.549 210.132C271.028 210.431 270.996 210.904 271.47 211.188L277.451 214.639C277.924 214.923 278.745 214.891 279.266 214.592L284.837 211.345C285.373 211.046 285.405 210.573 284.915 210.289Z" fill="#24126A"/>
<path d="M294.147 215.616L288.166 212.164C287.693 211.881 286.872 211.912 286.351 212.212L280.781 215.458C280.26 215.757 280.228 216.23 280.702 216.514L286.683 219.965C287.156 220.249 287.977 220.217 288.498 219.918L294.068 216.671C294.589 216.356 294.637 215.883 294.147 215.616Z" fill="#24126A"/>
<path d="M219.881 143.344L202.285 133.196C201.811 132.912 200.99 132.943 200.47 133.243L194.899 136.489C194.378 136.789 194.347 137.261 194.82 137.545L212.416 147.694C212.89 147.978 213.71 147.946 214.231 147.647L219.802 144.4C220.323 144.101 220.354 143.628 219.881 143.344Z" fill="#24126A"/>
<path d="M333.269 208.729L315.673 198.58C315.2 198.297 314.379 198.328 313.858 198.628L308.287 201.874C307.767 202.173 307.735 202.646 308.209 202.93L325.805 213.079C326.278 213.362 327.099 213.331 327.62 213.031L333.19 209.785C333.711 209.47 333.743 208.997 333.269 208.729Z" fill="#24126A"/>
<path d="M316.147 187.722L310.165 184.271C309.692 183.987 308.871 184.019 308.351 184.318L301.707 188.195C301.186 188.494 301.154 188.967 301.628 189.251L307.609 192.702C308.082 192.985 308.903 192.954 309.424 192.655L316.068 188.778C316.588 188.463 316.636 188.006 316.147 187.722Z" fill="#24126A"/>
<path d="M249.123 149.081L239.56 143.565C239.087 143.281 238.266 143.313 237.745 143.612L231.101 147.489C230.58 147.789 230.549 148.261 231.022 148.545L240.586 154.061C241.059 154.344 241.88 154.313 242.401 154.013L249.044 150.137C249.565 149.822 249.597 149.349 249.123 149.081Z" fill="#24126A"/>
<path d="M307.262 182.6L297.698 177.085C297.225 176.801 296.404 176.833 295.883 177.132L289.239 181.009C288.719 181.308 288.687 181.781 289.161 182.065L298.724 187.58C299.197 187.864 300.018 187.832 300.539 187.533L307.183 183.656C307.704 183.341 307.735 182.868 307.262 182.6Z" fill="#24126A"/>
<path d="M262.443 156.756L252.879 151.24C252.406 150.956 251.585 150.988 251.065 151.287L244.421 155.164C243.9 155.463 243.868 155.936 244.342 156.22L253.905 161.735C254.379 162.019 255.199 161.988 255.72 161.688L262.364 157.811C262.885 157.496 262.916 157.039 262.443 156.756Z" fill="#24126A"/>
<path d="M244.405 156.267L285.957 180.221C286.478 180.52 287.283 180.536 287.772 180.252L294.542 176.297C295.031 176.013 295 175.54 294.495 175.241L252.942 151.287L244.405 156.267Z" fill="#24126A"/>
<path d="M323.848 197.099L330.507 200.944C330.902 201.164 331.565 201.149 331.991 200.897L334.705 199.305C335.131 199.053 335.163 198.675 334.768 198.438L328.109 194.593C327.714 194.372 327.051 194.388 326.625 194.64L323.911 196.232C323.469 196.5 323.453 196.878 323.848 197.099Z" fill="#24126A"/>
<path d="M314.616 191.788L321.275 195.633C321.67 195.854 322.333 195.838 322.759 195.586L325.473 193.994C325.899 193.742 325.931 193.364 325.536 193.128L318.877 189.282C318.482 189.062 317.819 189.077 317.393 189.33L314.679 190.921C314.253 191.173 314.221 191.552 314.616 191.788Z" fill="#24126A"/>
<path d="M319.035 199.904L325.694 203.749C326.089 203.97 326.752 203.954 327.178 203.702L329.892 202.11C330.318 201.858 330.35 201.48 329.955 201.243L323.295 197.398C322.901 197.177 322.238 197.193 321.812 197.445L319.098 199.037C318.672 199.289 318.656 199.683 319.035 199.904Z" fill="#24126A"/>
</g>
</g>
<mask id="mask1_560_2696" style="mask-type:luminance" maskUnits="userSpaceOnUse" x="118" y="4" width="214" height="251">
<path d="M331.707 113.78L142.458 4.71191L118.675 145.897L307.814 254.887L331.707 113.78Z" fill="white"/>
</mask>
<g mask="url(#mask1_560_2696)">
<path d="M217.94 83.98V142.178C217.955 143.439 218.729 144.637 220.291 145.551L268.708 173.476C272.196 175.493 278.287 175.241 282.311 172.908C284.568 171.6 285.689 169.93 285.641 168.354V110.124L217.94 83.98Z" fill="url(#paint8_linear_560_2696)"/>
<path opacity="0.3" d="M272.338 174.611C275.589 175.099 279.455 174.516 282.311 172.877C284.568 171.569 285.689 169.899 285.641 168.323V110.124L272.59 105.082H272.353V174.611H272.338Z" fill="#24126A"/>
<path d="M268.708 115.262L220.291 87.3371C216.803 85.32 217.245 81.8215 221.269 79.5049C225.294 77.1883 231.385 76.9361 234.873 78.9375L283.29 106.863C286.778 108.88 286.336 112.378 282.311 114.695C278.287 117.011 272.196 117.264 268.708 115.262Z" fill="url(#paint9_linear_560_2696)"/>
<path opacity="0.5" d="M268.708 196.374L220.291 168.449C216.803 166.432 217.245 162.933 221.269 160.617C225.294 158.3 231.385 158.048 234.873 160.049L283.29 187.974C286.778 189.992 286.336 193.49 282.311 195.807C278.287 198.123 272.196 198.375 268.708 196.374Z" fill="#24126A"/>
<path d="M273.537 111.511C271.233 111.511 269.355 109.636 269.355 107.335V81.4745C269.355 72.6494 262.9 61.4763 255.246 57.0637L244.136 50.6498C241.201 48.9636 238.55 48.5381 236.861 49.5151C235.173 50.4922 234.21 52.9821 234.21 56.3703V82.231C234.21 84.5318 232.332 86.4071 230.028 86.4071C227.724 86.4071 225.846 84.5318 225.846 82.231V56.3861C225.846 49.8461 228.276 44.8347 232.679 42.2975C237.082 39.7603 242.637 40.1542 248.319 43.4321L259.429 49.8461C269.686 55.7557 277.719 69.6552 277.719 81.4903V107.351C277.735 109.636 275.857 111.511 273.537 111.511Z" fill="url(#paint10_linear_560_2696)"/>
</g>
</g>
<g opacity="0.8">
<path d="M87.7755 205.198L81.8575 201.779C81.3841 201.511 81.4472 201.022 81.9838 200.707L88.9749 196.673C89.5272 196.357 90.3479 196.326 90.8213 196.594L96.7393 200.014C97.2127 200.281 97.1496 200.77 96.613 201.085L89.6219 205.119C89.0696 205.435 88.2489 205.466 87.7755 205.198Z" fill="#24126A"/>
<path d="M96.913 210.462L90.995 207.042C90.5215 206.774 90.5847 206.286 91.1212 205.971L98.1123 201.936C98.6647 201.621 99.4853 201.59 99.9587 201.857L105.877 205.277C106.35 205.545 106.287 206.034 105.75 206.349L98.7594 210.383C98.2228 210.698 97.3864 210.73 96.913 210.462Z" fill="#24126A"/>
<path d="M106.05 215.726L100.132 212.306C99.6587 212.038 99.7219 211.549 100.258 211.234L107.25 207.2C107.802 206.885 108.623 206.853 109.096 207.121L115.014 210.541C115.487 210.809 115.424 211.297 114.888 211.612L107.897 215.647C107.36 215.978 106.524 216.009 106.05 215.726Z" fill="#24126A"/>
<path d="M118.691 211.376L112.773 207.956C112.3 207.688 112.363 207.2 112.899 206.885L118.77 203.496C119.322 203.181 120.143 203.15 120.616 203.418L126.534 206.837C127.008 207.105 126.945 207.594 126.408 207.909L120.537 211.297C120.001 211.612 119.164 211.66 118.691 211.376Z" fill="#24126A"/>
<path d="M127.844 216.655L121.926 213.235C121.453 212.968 121.516 212.479 122.052 212.164L127.923 208.776C128.475 208.46 129.296 208.429 129.769 208.697L135.687 212.117C136.161 212.384 136.098 212.873 135.561 213.188L129.691 216.576C129.138 216.892 128.318 216.923 127.844 216.655Z" fill="#24126A"/>
<path d="M136.982 221.919L131.064 218.499C130.59 218.231 130.653 217.743 131.19 217.427L137.06 214.039C137.613 213.724 138.433 213.693 138.907 213.961L144.825 217.38C145.298 217.648 145.235 218.137 144.699 218.452L138.828 221.84C138.276 222.155 137.455 222.187 136.982 221.919Z" fill="#24126A"/>
<path d="M146.119 227.182L140.201 223.778C139.728 223.511 139.791 223.022 140.327 222.707L146.198 219.319C146.75 219.003 147.571 218.972 148.044 219.24L153.962 222.66C154.436 222.927 154.373 223.416 153.836 223.731L147.965 227.119C147.429 227.435 146.592 227.466 146.119 227.182Z" fill="#24126A"/>
<path d="M155.256 232.462L149.338 229.042C148.865 228.774 148.928 228.286 149.464 227.97L155.335 224.582C155.887 224.267 156.708 224.236 157.182 224.503L163.1 227.923C163.573 228.191 163.51 228.68 162.973 228.995L157.103 232.383C156.566 232.698 155.73 232.73 155.256 232.462Z" fill="#24126A"/>
<path d="M164.394 237.725L158.476 234.305C158.002 234.037 158.065 233.549 158.602 233.234L164.473 229.845C165.025 229.53 165.846 229.499 166.319 229.767L172.237 233.186C172.71 233.454 172.647 233.943 172.111 234.258L166.24 237.646C165.704 237.977 164.883 238.009 164.394 237.725Z" fill="#24126A"/>
<path d="M173.547 243.004L167.629 239.585C167.155 239.317 167.218 238.828 167.755 238.513L173.626 235.125C174.178 234.81 174.999 234.778 175.472 235.046L181.39 238.466C181.863 238.734 181.8 239.222 181.264 239.537L175.393 242.925C174.841 243.241 174.02 243.272 173.547 243.004Z" fill="#24126A"/>
<path d="M182.684 248.268L176.766 244.848C176.293 244.58 176.356 244.092 176.892 243.777L182.763 240.388C183.315 240.073 184.136 240.042 184.61 240.31L190.528 243.729C191.001 243.997 190.938 244.486 190.401 244.801L184.531 248.189C183.994 248.504 183.158 248.552 182.684 248.268Z" fill="#24126A"/>
<path d="M191.822 253.547L185.904 250.128C185.43 249.86 185.493 249.371 186.03 249.056L191.9 245.668C192.453 245.353 193.273 245.321 193.763 245.589L199.681 249.009C200.154 249.277 200.091 249.765 199.554 250.08L193.684 253.468C193.131 253.784 192.295 253.815 191.822 253.547Z" fill="#24126A"/>
<path d="M200.959 258.811L195.041 255.391C194.567 255.123 194.631 254.635 195.167 254.32L201.038 250.931C201.59 250.616 202.411 250.585 202.884 250.853L208.802 254.272C209.276 254.54 209.212 255.029 208.676 255.344L202.805 258.732C202.269 259.047 201.432 259.079 200.959 258.811Z" fill="#24126A"/>
<path d="M132.168 208.886L126.25 205.466C125.777 205.199 125.84 204.71 126.377 204.395L132.247 201.007C132.8 200.691 133.62 200.66 134.094 200.928L140.012 204.348C140.485 204.615 140.422 205.104 139.885 205.419L134.015 208.807C133.462 209.123 132.642 209.154 132.168 208.886Z" fill="#24126A"/>
<path d="M122.889 203.544L116.971 200.124C116.497 199.856 116.56 199.368 117.097 199.052L122.968 195.664C123.52 195.349 124.341 195.318 124.814 195.586L130.732 199.005C131.206 199.273 131.142 199.762 130.606 200.077L124.735 203.465C124.199 203.78 123.362 203.812 122.889 203.544Z" fill="#24126A"/>
<path d="M113.594 198.186L100.842 190.842C100.369 190.574 100.432 190.085 100.969 189.77L106.839 186.382C107.392 186.067 108.212 186.035 108.686 186.303L121.437 193.647C121.91 193.915 121.847 194.403 121.311 194.719L115.44 198.107C114.904 198.422 114.067 198.454 113.594 198.186Z" fill="#24126A"/>
<path d="M120.096 191.662L109.743 185.705C109.27 185.437 109.333 184.948 109.869 184.633L115.74 181.245C116.292 180.93 117.113 180.898 117.586 181.166L127.939 187.123C128.412 187.391 128.349 187.879 127.813 188.195L121.942 191.583C121.39 191.898 120.569 191.93 120.096 191.662Z" fill="#24126A"/>
<path d="M141.306 214.15L135.388 210.73C134.914 210.462 134.977 209.974 135.514 209.658L141.384 206.27C141.937 205.955 142.757 205.924 143.231 206.191L149.149 209.611C149.622 209.879 149.559 210.368 149.023 210.683L143.152 214.071C142.615 214.402 141.779 214.433 141.306 214.15Z" fill="#24126A"/>
<path d="M150.443 219.429L144.525 216.009C144.052 215.741 144.115 215.253 144.651 214.938L150.522 211.55C151.074 211.234 151.895 211.203 152.368 211.471L158.286 214.89C158.76 215.158 158.697 215.647 158.16 215.962L152.289 219.35C151.753 219.665 150.916 219.697 150.443 219.429Z" fill="#24126A"/>
<path d="M159.58 224.692L153.662 221.273C153.189 221.005 153.252 220.516 153.789 220.201L159.659 216.813C160.212 216.498 161.032 216.466 161.506 216.734L167.424 220.154C167.897 220.422 167.834 220.91 167.297 221.225L161.427 224.613C160.89 224.929 160.07 224.976 159.58 224.692Z" fill="#24126A"/>
<path d="M168.734 229.972L162.816 226.552C162.342 226.284 162.405 225.795 162.942 225.48L168.812 222.092C169.365 221.777 170.185 221.745 170.659 222.013L176.577 225.433C177.05 225.701 176.987 226.189 176.451 226.505L170.58 229.893C170.028 230.208 169.207 230.239 168.734 229.972Z" fill="#24126A"/>
<path d="M177.871 235.235L171.953 231.816C171.479 231.548 171.543 231.059 172.079 230.744L177.95 227.356C178.502 227.041 179.323 227.009 179.796 227.277L185.714 230.697C186.188 230.965 186.124 231.453 185.588 231.768L179.717 235.156C179.181 235.472 178.344 235.503 177.871 235.235Z" fill="#24126A"/>
<path d="M187.008 240.499L181.09 237.079C180.617 236.811 180.68 236.323 181.216 236.008L187.087 232.619C187.639 232.304 188.46 232.273 188.933 232.541L194.851 235.96C195.325 236.228 195.262 236.717 194.725 237.032L188.855 240.42C188.318 240.751 187.482 240.783 187.008 240.499Z" fill="#24126A"/>
<path d="M196.146 245.778L190.228 242.358C189.754 242.091 189.817 241.602 190.354 241.287L196.225 237.899C196.777 237.584 197.598 237.552 198.071 237.82L203.989 241.24C204.462 241.508 204.399 241.996 203.863 242.311L197.992 245.699C197.455 246.015 196.619 246.046 196.146 245.778Z" fill="#24126A"/>
<path d="M205.299 251.041L199.381 247.622C198.907 247.354 198.97 246.865 199.507 246.55L205.378 243.162C205.93 242.847 206.751 242.815 207.224 243.083L213.142 246.503C213.615 246.771 213.552 247.259 213.016 247.574L207.145 250.963C206.593 251.278 205.772 251.325 205.299 251.041Z" fill="#24126A"/>
<path d="M214.436 256.321L208.518 252.901C208.045 252.633 208.108 252.145 208.644 251.829L214.515 248.441C215.067 248.126 215.888 248.094 216.361 248.362L222.279 251.782C222.753 252.05 222.69 252.539 222.153 252.854L216.283 256.242C215.746 256.557 214.91 256.589 214.436 256.321Z" fill="#24126A"/>
<path d="M230.691 265.682L217.782 258.243C217.308 257.975 217.371 257.487 217.908 257.172L223.779 253.783C224.331 253.468 225.152 253.437 225.625 253.705L238.534 261.143C239.008 261.411 238.944 261.899 238.408 262.215L232.537 265.603C231.985 265.918 231.164 265.965 230.691 265.682Z" fill="#24126A"/>
<path d="M248.476 255.423L237.571 249.135C237.098 248.867 237.161 248.378 237.698 248.063L243.568 244.675C244.121 244.36 244.941 244.328 245.415 244.596L256.32 250.884C256.793 251.152 256.73 251.641 256.193 251.956L250.323 255.344C249.786 255.659 248.95 255.691 248.476 255.423Z" fill="#24126A"/>
<path d="M157.308 213.125L151.39 209.706C150.916 209.438 150.979 208.949 151.516 208.634L157.387 205.246C157.939 204.931 158.76 204.899 159.249 205.167L165.167 208.587C165.64 208.855 165.577 209.343 165.041 209.658L159.17 213.047C158.618 213.362 157.781 213.393 157.308 213.125Z" fill="#24126A"/>
<path d="M147.95 207.72L142.032 204.316C141.558 204.048 141.621 203.56 142.158 203.244L148.028 199.856C148.581 199.541 149.401 199.509 149.875 199.777L155.793 203.197C156.266 203.465 156.203 203.954 155.667 204.269L149.796 207.657C149.244 207.956 148.423 208.004 147.95 207.72Z" fill="#24126A"/>
<path d="M138.576 202.314L132.658 198.895C132.184 198.627 132.247 198.138 132.784 197.823L138.654 194.435C139.207 194.12 140.027 194.088 140.501 194.356L146.419 197.776C146.892 198.044 146.829 198.532 146.293 198.847L140.422 202.236C139.885 202.566 139.049 202.598 138.576 202.314Z" fill="#24126A"/>
<path d="M129.201 196.925L123.283 193.505C122.81 193.238 122.873 192.749 123.41 192.434L129.28 189.046C129.833 188.73 130.653 188.699 131.127 188.967L137.045 192.387C137.518 192.654 137.455 193.143 136.918 193.458L131.048 196.846C130.511 197.162 129.691 197.193 129.201 196.925Z" fill="#24126A"/>
<path d="M166.461 218.389L160.543 214.969C160.07 214.701 160.133 214.212 160.669 213.897L166.54 210.509C167.092 210.194 167.913 210.162 168.386 210.43L174.304 213.85C174.778 214.118 174.715 214.606 174.178 214.922L168.307 218.31C167.755 218.641 166.934 218.672 166.461 218.389Z" fill="#24126A"/>
<path d="M175.598 223.668L169.68 220.248C169.207 219.98 169.27 219.492 169.807 219.177L175.677 215.788C176.23 215.473 177.05 215.442 177.524 215.71L183.442 219.129C183.915 219.397 183.852 219.886 183.315 220.201L177.445 223.589C176.908 223.904 176.072 223.936 175.598 223.668Z" fill="#24126A"/>
<path d="M184.736 228.932L178.818 225.512C178.344 225.244 178.407 224.755 178.944 224.44L184.815 221.052C185.367 220.737 186.188 220.705 186.661 220.973L192.579 224.393C193.052 224.661 192.989 225.149 192.453 225.465L186.582 228.853C186.046 229.168 185.209 229.215 184.736 228.932Z" fill="#24126A"/>
<path d="M193.873 234.211L187.955 230.791C187.482 230.523 187.545 230.035 188.081 229.72L193.952 226.331C194.504 226.016 195.325 225.985 195.798 226.253L201.716 229.672C202.19 229.94 202.127 230.429 201.59 230.744L195.719 234.132C195.183 234.447 194.346 234.479 193.873 234.211Z" fill="#24126A"/>
<path d="M203.01 239.475L197.093 236.055C196.619 235.787 196.682 235.298 197.219 234.983L203.089 231.595C203.642 231.28 204.462 231.248 204.936 231.516L210.854 234.936C211.327 235.204 211.264 235.692 210.728 236.007L204.857 239.396C204.32 239.711 203.5 239.742 203.01 239.475Z" fill="#24126A"/>
<path d="M212.164 244.738L206.246 241.318C205.772 241.051 205.835 240.562 206.372 240.247L212.242 236.859C212.795 236.543 213.615 236.512 214.089 236.78L220.007 240.2C220.48 240.467 220.417 240.956 219.881 241.271L214.01 244.659C213.458 244.99 212.637 245.022 212.164 244.738Z" fill="#24126A"/>
<path d="M221.301 250.017L215.383 246.598C214.909 246.33 214.973 245.841 215.509 245.526L221.38 242.138C221.932 241.823 222.753 241.791 223.226 242.059L229.144 245.479C229.618 245.747 229.555 246.235 229.018 246.55L223.147 249.939C222.611 250.254 221.774 250.285 221.301 250.017Z" fill="#24126A"/>
<path d="M230.438 255.281L224.52 251.861C224.047 251.593 224.11 251.104 224.647 250.789L230.517 247.401C231.07 247.086 231.89 247.054 232.364 247.322L238.282 250.742C238.755 251.01 238.692 251.498 238.155 251.814L232.285 255.202C231.748 255.517 230.912 255.564 230.438 255.281Z" fill="#24126A"/>
<path d="M239.576 260.56L233.658 257.14C233.184 256.872 233.247 256.384 233.784 256.069L239.655 252.68C240.207 252.365 241.028 252.334 241.501 252.602L247.419 256.021C247.892 256.289 247.829 256.778 247.293 257.093L241.422 260.481C240.886 260.796 240.049 260.828 239.576 260.56Z" fill="#24126A"/>
<path d="M152.494 200.093L146.577 196.673C146.103 196.405 146.166 195.917 146.703 195.601L152.573 192.213C153.126 191.898 153.946 191.866 154.42 192.134L160.338 195.554C160.811 195.822 160.748 196.31 160.212 196.626L154.341 200.014C153.804 200.329 152.968 200.361 152.494 200.093Z" fill="#24126A"/>
<path d="M143.404 194.845L137.486 191.425C137.013 191.157 137.076 190.668 137.613 190.353L143.483 186.965C144.036 186.65 144.856 186.618 145.346 186.886L151.263 190.306C151.737 190.574 151.674 191.062 151.137 191.378L145.267 194.766C144.714 195.081 143.878 195.113 143.404 194.845Z" fill="#24126A"/>
<path d="M134.315 189.597L128.397 186.177C127.923 185.909 127.986 185.421 128.523 185.106L134.393 181.718C134.946 181.402 135.766 181.371 136.24 181.639L142.158 185.058C142.631 185.326 142.568 185.815 142.032 186.13L136.161 189.518C135.609 189.833 134.788 189.881 134.315 189.597Z" fill="#24126A"/>
<path d="M125.209 184.349L119.291 180.929C118.817 180.661 118.88 180.173 119.417 179.858L125.288 176.469C125.84 176.154 126.66 176.123 127.134 176.391L133.052 179.81C133.525 180.078 133.462 180.567 132.926 180.882L127.055 184.27C126.518 184.601 125.682 184.633 125.209 184.349Z" fill="#24126A"/>
<path d="M134.567 178.96L128.649 175.54C128.176 175.272 128.239 174.783 128.775 174.468L130.716 173.349C131.269 173.034 132.089 173.003 132.563 173.271L138.481 176.69C138.954 176.958 138.891 177.447 138.355 177.762L136.413 178.881C135.877 179.212 135.04 179.243 134.567 178.96Z" fill="#24126A"/>
<path d="M146.434 185.815L140.516 182.395C140.043 182.127 140.106 181.638 140.643 181.323L142.584 180.204C143.136 179.889 143.957 179.858 144.43 180.126L150.348 183.545C150.822 183.813 150.759 184.302 150.222 184.617L148.281 185.736C147.744 186.051 146.908 186.082 146.434 185.815Z" fill="#24126A"/>
<path d="M155.493 191.031L149.575 187.611C149.102 187.343 149.165 186.855 149.701 186.54L151.642 185.421C152.195 185.105 153.015 185.074 153.489 185.342L159.407 188.762C159.88 189.029 159.817 189.518 159.281 189.833L157.339 190.952C156.803 191.267 155.966 191.299 155.493 191.031Z" fill="#24126A"/>
<path d="M164.551 196.247L158.633 192.827C158.16 192.56 158.223 192.071 158.76 191.756L160.701 190.637C161.253 190.322 162.074 190.29 162.547 190.558L168.465 193.978C168.939 194.246 168.875 194.734 168.339 195.049L166.398 196.168C165.861 196.484 165.025 196.531 164.551 196.247Z" fill="#24126A"/>
<path d="M173.61 201.479L167.692 198.059C167.218 197.792 167.282 197.303 167.818 196.988L169.759 195.869C170.312 195.554 171.132 195.522 171.606 195.79L177.524 199.21C177.997 199.478 177.934 199.966 177.397 200.281L175.456 201.4C174.92 201.716 174.083 201.747 173.61 201.479Z" fill="#24126A"/>
<path d="M224.173 230.633L218.255 227.214C217.782 226.946 217.845 226.457 218.381 226.142L220.323 225.023C220.875 224.708 221.696 224.677 222.169 224.944L228.087 228.364C228.56 228.632 228.497 229.121 227.961 229.436L226.02 230.555C225.483 230.87 224.647 230.901 224.173 230.633Z" fill="#24126A"/>
<path d="M233.232 235.85L227.314 232.43C226.84 232.162 226.903 231.674 227.44 231.358L229.381 230.24C229.933 229.924 230.754 229.893 231.227 230.161L237.145 233.58C237.619 233.848 237.556 234.337 237.019 234.652L235.078 235.771C234.541 236.086 233.705 236.118 233.232 235.85Z" fill="#24126A"/>
<path d="M242.29 241.066L236.372 237.646C235.899 237.378 235.962 236.89 236.498 236.575L238.439 235.456C238.992 235.141 239.812 235.109 240.302 235.377L246.22 238.797C246.693 239.065 246.63 239.553 246.093 239.868L244.152 240.987C243.6 241.318 242.763 241.35 242.29 241.066Z" fill="#24126A"/>
<path d="M251.349 246.298L245.431 242.878C244.957 242.61 245.02 242.122 245.557 241.807L247.498 240.688C248.05 240.373 248.871 240.341 249.344 240.609L255.262 244.029C255.736 244.297 255.673 244.785 255.136 245.1L253.195 246.219C252.658 246.534 251.822 246.566 251.349 246.298Z" fill="#24126A"/>
<path d="M161.648 205.356L155.73 201.936C155.256 201.668 155.319 201.18 155.856 200.865L161.727 197.476C162.279 197.161 163.1 197.13 163.573 197.398L169.491 200.817C169.964 201.085 169.901 201.574 169.365 201.889L163.494 205.277C162.942 205.592 162.121 205.64 161.648 205.356Z" fill="#24126A"/>
<path d="M170.785 210.635L164.867 207.215C164.394 206.948 164.457 206.459 164.993 206.144L170.864 202.756C171.416 202.44 172.237 202.409 172.71 202.677L178.628 206.097C179.102 206.364 179.039 206.853 178.502 207.168L172.631 210.556C172.095 210.872 171.258 210.903 170.785 210.635Z" fill="#24126A"/>
<path d="M179.922 215.899L174.004 212.479C173.531 212.211 173.594 211.723 174.131 211.407L180.001 208.019C180.554 207.704 181.374 207.673 181.848 207.94L187.766 211.36C188.239 211.628 188.176 212.117 187.64 212.432L181.769 215.82C181.232 216.135 180.396 216.167 179.922 215.899Z" fill="#24126A"/>
<path d="M189.06 221.162L183.142 217.743C182.668 217.475 182.732 216.986 183.268 216.671L189.139 213.283C189.691 212.968 190.512 212.936 190.985 213.204L196.903 216.624C197.377 216.892 197.313 217.38 196.777 217.696L190.906 221.084C190.37 221.415 189.533 221.446 189.06 221.162Z" fill="#24126A"/>
<path d="M198.197 226.442L192.279 223.022C191.806 222.754 191.869 222.266 192.405 221.95L198.276 218.562C198.828 218.247 199.649 218.216 200.122 218.483L206.04 221.903C206.514 222.171 206.451 222.66 205.914 222.975L200.044 226.363C199.507 226.678 198.686 226.71 198.197 226.442Z" fill="#24126A"/>
<path d="M207.35 231.705L201.432 228.285C200.959 228.017 201.022 227.529 201.559 227.214L207.429 223.825C207.982 223.51 208.802 223.479 209.276 223.747L215.194 227.166C215.667 227.434 215.604 227.923 215.067 228.238L209.197 231.626C208.644 231.941 207.824 231.989 207.35 231.705Z" fill="#24126A"/>
<path d="M216.488 236.984L210.57 233.565C210.096 233.297 210.159 232.808 210.696 232.493L216.567 229.105C217.119 228.79 217.94 228.758 218.413 229.026L224.331 232.446C224.804 232.714 224.741 233.202 224.205 233.517L218.334 236.905C217.798 237.221 216.961 237.252 216.488 236.984Z" fill="#24126A"/>
<path d="M225.625 242.248L219.707 238.828C219.234 238.56 219.297 238.072 219.833 237.757L225.704 234.368C226.256 234.053 227.077 234.022 227.55 234.29L233.468 237.709C233.942 237.977 233.879 238.466 233.342 238.781L227.471 242.169C226.935 242.484 226.098 242.516 225.625 242.248Z" fill="#24126A"/>
<path d="M234.762 247.512L228.844 244.092C228.371 243.824 228.434 243.335 228.971 243.02L234.841 239.632C235.394 239.317 236.214 239.285 236.688 239.553L242.606 242.973C243.079 243.241 243.016 243.729 242.479 244.045L236.609 247.433C236.072 247.764 235.236 247.795 234.762 247.512Z" fill="#24126A"/>
<path d="M109.38 206.002L91.9417 195.948C91.4683 195.68 91.5314 195.191 92.068 194.876L97.9386 191.488C98.491 191.173 99.3116 191.141 99.7851 191.409L117.223 201.464C117.697 201.731 117.634 202.22 117.097 202.535L111.226 205.923C110.69 206.254 109.854 206.286 109.38 206.002Z" fill="#24126A"/>
<path d="M221.68 270.756L204.241 260.702C203.768 260.434 203.831 259.945 204.368 259.63L210.238 256.242C210.791 255.927 211.611 255.895 212.085 256.163L229.523 266.217C229.996 266.485 229.933 266.974 229.397 267.289L223.526 270.677C222.99 270.992 222.153 271.024 221.68 270.756Z" fill="#24126A"/>
<path d="M185.13 261.316L179.212 257.897C178.739 257.629 178.802 257.14 179.339 256.825L186.33 252.791C186.882 252.476 187.703 252.444 188.176 252.712L194.094 256.132C194.567 256.4 194.504 256.888 193.968 257.203L186.977 261.238C186.424 261.553 185.604 261.6 185.13 261.316Z" fill="#24126A"/>
<path d="M118.738 223.053L109.27 217.601C108.796 217.333 108.859 216.844 109.396 216.529L116.387 212.495C116.939 212.18 117.76 212.148 118.233 212.416L127.702 217.869C128.176 218.137 128.112 218.625 127.576 218.94L120.585 222.975C120.048 223.29 119.212 223.321 118.738 223.053Z" fill="#24126A"/>
<path d="M176.308 256.242L166.84 250.789C166.366 250.521 166.429 250.033 166.966 249.718L173.957 245.683C174.509 245.368 175.33 245.337 175.803 245.605L185.272 251.057C185.746 251.325 185.683 251.814 185.146 252.129L178.155 256.163C177.618 256.478 176.798 256.51 176.308 256.242Z" fill="#24126A"/>
<path d="M131.932 230.649L122.463 225.197C121.989 224.929 122.052 224.44 122.589 224.125L129.58 220.091C130.132 219.775 130.953 219.744 131.427 220.012L140.895 225.464C141.369 225.732 141.306 226.221 140.769 226.536L133.778 230.57C133.241 230.886 132.405 230.917 131.932 230.649Z" fill="#24126A"/>
<path d="M131.506 220.059L172.663 243.792C173.168 244.092 173.168 244.564 172.663 244.864L165.546 248.977C165.041 249.276 164.204 249.276 163.699 248.977L122.542 225.244L131.506 220.059Z" fill="#24126A"/>
<path d="M210.664 270.866L217.261 274.664C217.655 274.885 217.608 275.279 217.15 275.547L214.294 277.201C213.836 277.454 213.158 277.485 212.779 277.264L206.182 273.467C205.788 273.246 205.835 272.852 206.293 272.584L209.149 270.929C209.607 270.677 210.286 270.646 210.664 270.866Z" fill="#24126A"/>
<path d="M201.448 265.556L208.045 269.354C208.439 269.574 208.392 269.968 207.934 270.236L205.078 271.891C204.62 272.143 203.942 272.175 203.563 271.954L196.966 268.156C196.572 267.935 196.619 267.541 197.077 267.273L199.933 265.619C200.391 265.367 201.069 265.335 201.448 265.556Z" fill="#24126A"/>
<path d="M192.311 260.292L198.907 264.09C199.302 264.311 199.254 264.705 198.797 264.972L195.94 266.627C195.499 266.879 194.804 266.911 194.425 266.69L187.829 262.892C187.434 262.672 187.482 262.278 187.939 262.01L190.796 260.355C191.238 260.087 191.916 260.071 192.311 260.292Z" fill="#24126A"/>
<path d="M206.498 262.656L213.095 266.454C213.489 266.674 213.442 267.068 212.984 267.336L210.128 268.991C209.67 269.243 208.992 269.275 208.613 269.054L202.016 265.256C201.622 265.035 201.669 264.641 202.127 264.374L204.983 262.719C205.425 262.451 206.119 262.419 206.498 262.656Z" fill="#24126A"/>
</g>
<path d="M299.75 120.635C299.308 120.635 298.819 120.509 298.377 120.241C296.972 119.438 296.12 117.61 296.452 116.176C296.609 115.482 297.02 114.962 297.604 114.71C298.251 114.426 299.055 114.521 299.797 114.946C301.202 115.75 302.07 117.578 301.723 119.012C301.565 119.706 301.154 120.226 300.57 120.478C300.318 120.572 300.05 120.635 299.75 120.635ZM298.424 115.151C298.219 115.151 298.03 115.183 297.856 115.262C297.462 115.435 297.177 115.797 297.067 116.302C296.799 117.484 297.525 119.012 298.692 119.69C299.261 120.021 299.86 120.084 300.318 119.895C300.713 119.721 300.997 119.359 301.107 118.855C301.375 117.673 300.649 116.144 299.482 115.466C299.119 115.262 298.756 115.151 298.424 115.151Z" fill="white"/>
<path d="M307.293 124.969C306.836 124.969 306.362 124.843 305.92 124.575C304.516 123.771 303.648 121.943 303.995 120.509C304.153 119.816 304.563 119.296 305.147 119.043C305.794 118.76 306.599 118.854 307.341 119.28C308.761 120.099 309.613 121.88 309.266 123.346C309.108 124.039 308.698 124.559 308.114 124.811C307.861 124.922 307.577 124.969 307.293 124.969ZM305.952 119.501C305.747 119.501 305.557 119.532 305.384 119.611C304.989 119.784 304.705 120.147 304.595 120.651C304.326 121.833 305.052 123.361 306.22 124.039C306.788 124.37 307.372 124.433 307.846 124.244C308.24 124.071 308.524 123.708 308.635 123.204C308.903 122.022 308.177 120.493 306.993 119.816C306.662 119.611 306.299 119.501 305.952 119.501Z" fill="white"/>
<path d="M316.494 127.617C316.194 128.925 314.9 129.397 313.606 128.657C312.312 127.916 311.523 126.246 311.822 124.938C312.122 123.63 313.416 123.157 314.71 123.898C316.004 124.622 316.794 126.293 316.494 127.617Z" fill="white"/>
<path d="M171.984 44.5664L167.944 42.2341L168.26 40.3745L172.3 42.7069L171.984 44.5664Z" fill="#42E8E0"/>
<path d="M177.839 47.9388L173.815 45.6223L174.115 43.7627L178.155 46.0793L177.839 47.9388Z" fill="#42E8E0"/>
<path d="M166.177 41.2253L157.339 36.1193L157.655 34.2598L166.493 39.3657L166.177 41.2253Z" fill="#42E8E0"/>
<path d="M253.605 158.836C252.595 158.836 251.554 158.552 250.559 157.969L194.441 125.615C191.048 123.661 189.154 118.934 190.212 115.088C190.748 113.166 191.916 111.747 193.51 111.086C195.057 110.455 196.824 110.629 198.481 111.574L254.599 143.928C257.992 145.882 259.886 150.609 258.829 154.455C258.292 156.377 257.124 157.796 255.531 158.457C254.915 158.71 254.268 158.836 253.605 158.836ZM195.435 111.354C194.851 111.354 194.283 111.464 193.747 111.684C192.342 112.268 191.301 113.528 190.811 115.262C189.817 118.855 191.585 123.252 194.741 125.08L250.859 157.433C252.343 158.284 253.905 158.442 255.278 157.89C256.683 157.307 257.724 156.046 258.213 154.313C259.208 150.72 257.44 146.323 254.284 144.495L198.166 112.141C197.266 111.606 196.335 111.354 195.435 111.354Z" fill="white"/>
<path d="M135.514 128.231V186.43C135.53 187.69 136.303 188.888 137.865 189.802L186.282 217.727C189.77 219.729 195.862 219.492 199.886 217.16C202.142 215.852 203.263 214.181 203.216 212.605V154.391L135.514 128.231Z" fill="url(#paint11_linear_560_2696)"/>
<path opacity="0.3" d="M189.912 218.878C193.163 219.366 197.029 218.783 199.886 217.144C202.142 215.836 203.263 214.166 203.216 212.59V154.392L190.164 149.349H189.928V218.878H189.912Z" fill="#24126A"/>
<path d="M186.282 159.514L137.849 131.604C134.362 129.587 134.804 126.089 138.828 123.772C142.852 121.455 148.944 121.203 152.431 123.205L200.848 151.13C204.336 153.147 203.894 156.645 199.87 158.962C195.846 161.279 189.77 161.531 186.282 159.514Z" fill="url(#paint12_linear_560_2696)"/>
<path opacity="0.5" d="M186.282 240.625L137.865 212.7C134.378 210.683 134.82 207.184 138.844 204.868C142.868 202.551 148.96 202.299 152.447 204.3L200.864 232.225C204.352 234.243 203.91 237.741 199.886 240.058C195.846 242.39 189.77 242.642 186.282 240.625Z" fill="#24126A"/>
<path d="M191.111 155.778C188.807 155.778 186.929 153.903 186.929 151.602V125.742C186.929 116.917 180.475 105.743 172.821 101.331L161.711 94.9169C158.775 93.2307 156.124 92.8052 154.436 93.7822C152.747 94.7593 151.784 97.2492 151.784 100.637V126.498C151.784 128.799 149.906 130.674 147.602 130.674C145.298 130.674 143.42 128.799 143.42 126.498V100.653C143.42 94.1132 145.85 89.1018 150.253 86.5646C154.656 84.0274 160.211 84.4213 165.893 87.6992L177.003 94.1132C187.261 100.023 195.293 113.922 195.293 125.757V151.618C195.293 153.903 193.431 155.778 191.111 155.778Z" fill="url(#paint13_linear_560_2696)"/>
<defs>
<linearGradient id="paint0_linear_560_2696" x1="302.04" y1="270.633" x2="-5.45697" y2="270.633" gradientUnits="userSpaceOnUse">
<stop stop-color="#5761D7"/>
<stop offset="0.1779" stop-color="#5C66D9"/>
<stop offset="0.3876" stop-color="#6A73DF"/>
<stop offset="0.6134" stop-color="#8289E8"/>
<stop offset="0.849" stop-color="#A3A7F5"/>
<stop offset="1" stop-color="#BCBEFF"/>
</linearGradient>
<linearGradient id="paint1_linear_560_2696" x1="38.8118" y1="263.458" x2="346.28" y2="263.458" gradientUnits="userSpaceOnUse">
<stop stop-color="#CEBCFF"/>
<stop offset="0.1443" stop-color="#C7B4FC"/>
<stop offset="0.3696" stop-color="#B49EF3"/>
<stop offset="0.6461" stop-color="#937AE5"/>
<stop offset="1" stop-color="#511DC7"/>
</linearGradient>
<linearGradient id="paint2_linear_560_2696" x1="336.903" y1="128.787" x2="119.295" y2="128.787" gradientUnits="userSpaceOnUse">
<stop stop-color="#C0BFF6"/>
<stop offset="0.2938" stop-color="#C5C4F7"/>
<stop offset="0.6399" stop-color="#D3D2F9"/>
<stop offset="1" stop-color="#E9E9FD"/>
</linearGradient>
<linearGradient id="paint3_linear_560_2696" x1="336.902" y1="184.515" x2="299.536" y2="184.515" gradientUnits="userSpaceOnUse">
<stop stop-color="#5761D7"/>
<stop offset="0.1779" stop-color="#5C66D9"/>
<stop offset="0.3876" stop-color="#6A73DF"/>
<stop offset="0.6134" stop-color="#8289E8"/>
<stop offset="0.849" stop-color="#A3A7F5"/>
<stop offset="1" stop-color="#BCBEFF"/>
</linearGradient>
<linearGradient id="paint4_linear_560_2696" x1="307.749" y1="245.319" x2="0.415603" y2="245.319" gradientUnits="userSpaceOnUse">
<stop stop-color="#5761D7"/>
<stop offset="0.1779" stop-color="#5C66D9"/>
<stop offset="0.3876" stop-color="#6A73DF"/>
<stop offset="0.6134" stop-color="#8289E8"/>
<stop offset="0.849" stop-color="#A3A7F5"/>
<stop offset="1" stop-color="#BCBEFF"/>
</linearGradient>
<linearGradient id="paint5_linear_560_2696" x1="38.8121" y1="236.904" x2="346.28" y2="236.904" gradientUnits="userSpaceOnUse">
<stop stop-color="#CEBCFF"/>
<stop offset="0.1443" stop-color="#C7B4FC"/>
<stop offset="0.3696" stop-color="#B49EF3"/>
<stop offset="0.6461" stop-color="#937AE5"/>
<stop offset="1" stop-color="#511DC7"/>
</linearGradient>
<linearGradient id="paint6_linear_560_2696" x1="425.928" y1="177.776" x2="118.595" y2="177.776" gradientUnits="userSpaceOnUse">
<stop stop-color="#5761D7"/>
<stop offset="0.1779" stop-color="#5C66D9"/>
<stop offset="0.3876" stop-color="#6A73DF"/>
<stop offset="0.6134" stop-color="#8289E8"/>
<stop offset="0.849" stop-color="#A3A7F5"/>
<stop offset="1" stop-color="#BCBEFF"/>
</linearGradient>
<linearGradient id="paint7_linear_560_2696" x1="322.663" y1="169.384" x2="15.1662" y2="169.384" gradientUnits="userSpaceOnUse">
<stop stop-color="#C0BFF6"/>
<stop offset="0.2938" stop-color="#C5C4F7"/>
<stop offset="0.6399" stop-color="#D3D2F9"/>
<stop offset="1" stop-color="#E9E9FD"/>
</linearGradient>
<linearGradient id="paint8_linear_560_2696" x1="226.421" y1="129.39" x2="294.12" y2="129.39" gradientUnits="userSpaceOnUse">
<stop stop-color="#BCBEFF"/>
<stop offset="0.1443" stop-color="#B4B7FC"/>
<stop offset="0.3696" stop-color="#9EA2F3"/>
<stop offset="0.6461" stop-color="#7A81E5"/>
<stop offset="0.873" stop-color="#5761D7"/>
</linearGradient>
<linearGradient id="paint9_linear_560_2696" x1="155.074" y1="97.0967" x2="322.134" y2="97.0967" gradientUnits="userSpaceOnUse">
<stop stop-color="#E9E9FD"/>
<stop offset="0.3601" stop-color="#D3D2F9"/>
<stop offset="0.7062" stop-color="#C5C4F7"/>
<stop offset="1" stop-color="#C0BFF6"/>
</linearGradient>
<linearGradient id="paint10_linear_560_2696" x1="201.237" y1="66.5666" x2="322.216" y2="87.3728" gradientUnits="userSpaceOnUse">
<stop stop-color="#BCBEFF"/>
<stop offset="0.1443" stop-color="#B4B7FC"/>
<stop offset="0.3696" stop-color="#9EA2F3"/>
<stop offset="0.6461" stop-color="#7A81E5"/>
<stop offset="0.873" stop-color="#5761D7"/>
</linearGradient>
<linearGradient id="paint11_linear_560_2696" x1="143.989" y1="173.648" x2="211.688" y2="173.648" gradientUnits="userSpaceOnUse">
<stop stop-color="#CEBCFF"/>
<stop offset="0.1443" stop-color="#C7B4FC"/>
<stop offset="0.3696" stop-color="#B49EF3"/>
<stop offset="0.6461" stop-color="#937AE5"/>
<stop offset="1" stop-color="#511DC7"/>
</linearGradient>
<linearGradient id="paint12_linear_560_2696" x1="72.6415" y1="141.354" x2="239.702" y2="141.354" gradientUnits="userSpaceOnUse">
<stop stop-color="#E9E9FD"/>
<stop offset="0.3601" stop-color="#D3D2F9"/>
<stop offset="0.7062" stop-color="#C5C4F7"/>
<stop offset="1" stop-color="#C0BFF6"/>
</linearGradient>
<linearGradient id="paint13_linear_560_2696" x1="118.805" y1="110.824" x2="239.785" y2="131.631" gradientUnits="userSpaceOnUse">
<stop stop-color="#BCBEFF"/>
<stop offset="0.1443" stop-color="#B4B7FC"/>
<stop offset="0.3696" stop-color="#9EA2F3"/>
<stop offset="0.6461" stop-color="#7A81E5"/>
<stop offset="0.873" stop-color="#5761D7"/>
</linearGradient>
</defs>
</svg>
