<svg xmlns="http://www.w3.org/2000/svg" width="40" height="40" viewBox="0 0 40 40" fill="none">
  <path d="M34.5511 6.27351H33.6151C33.1979 6.27351 32.8603 6.61144 32.8603 7.02823C32.8603 7.44502 33.1979 7.78295 33.6151 7.78295H34.5511C35.6832 7.78295 36.6037 8.70386 36.6037 9.83557V26.0878H3.39615V9.83557C3.39615 8.70386 4.31375 7.78295 5.44214 7.78295H24.7095C25.1267 7.78295 25.4643 7.44502 25.4643 7.02823C25.4643 6.61144 25.1267 6.27351 24.7095 6.27351H5.44214C3.48165 6.27351 1.88672 7.87139 1.88672 9.83557V28.8015C1.88672 30.6816 3.42588 32.3639 5.44214 32.3639H16.2669C16.7287 33.523 16.2816 34.5455 13.5162 36.6037H12.2132C11.7961 36.6037 11.4585 36.9416 11.4585 37.3584C11.4585 37.7752 11.7961 38.1131 12.2132 38.1131H27.7837C28.2008 38.1131 28.5384 37.7752 28.5384 37.3584C28.5384 36.9416 28.2008 36.6037 27.7837 36.6037H26.48C23.7145 34.5451 23.268 33.5226 23.73 32.3639H34.5511C36.5153 32.3639 38.1131 30.7657 38.1131 28.8015V9.83557C38.1131 7.87139 36.5153 6.27351 34.5511 6.27351ZM36.6008 27.5972V28.8019C36.6008 29.931 35.6817 30.8497 34.5526 30.8497C25.0062 30.8497 16.4224 30.8497 5.44362 30.8497C4.28915 30.8497 3.39615 29.8911 3.39615 28.8015V27.5972H36.6008ZM24.061 36.6037H15.936C17.318 35.3715 18.2304 34.0342 17.8426 32.3639H22.1536C21.7658 34.0339 22.6782 35.3711 24.061 36.6037Z" fill="url(#paint0_linear_1289_1259)"/>
  <path d="M16.6568 29.9782C17.074 29.9782 17.4116 29.6403 17.4116 29.2235C17.4116 28.8067 17.074 28.4688 16.6568 28.4688H16.6495C16.2323 28.4688 15.8984 28.8067 15.8984 29.2235C15.8984 29.6403 16.2397 29.9782 16.6568 29.9782Z" fill="url(#paint1_linear_1289_1259)"/>
  <path d="M20.0013 29.9782C20.4185 29.9782 20.756 29.6403 20.756 29.2235C20.756 28.8067 20.4185 28.4688 20.0013 28.4688H19.9932C19.5761 28.4688 19.2422 28.8067 19.2422 29.2235C19.2422 29.6403 19.5842 29.9782 20.0013 29.9782Z" fill="url(#paint2_linear_1289_1259)"/>
  <path d="M23.347 29.9782C23.7642 29.9782 24.1017 29.6403 24.1017 29.2235C24.1017 28.8067 23.7642 28.4688 23.347 28.4688H23.3389C22.9218 28.4688 22.5879 28.8067 22.5879 29.2235C22.5879 29.6403 22.9299 29.9782 23.347 29.9782Z" fill="url(#paint3_linear_1289_1259)"/>
  <path d="M24.0451 13.2731C24.421 13.4577 24.8713 13.3022 25.0556 12.9285C25.2391 12.5545 25.0851 12.1023 24.7114 11.9184L23.4886 11.3177C23.1629 11.1582 22.7848 11.1773 22.476 11.3693C22.1686 11.5613 21.9844 11.8926 21.9844 12.2556V14.0624C21.9844 16.2499 23.7636 18.0295 25.9511 18.0295C28.1386 18.0295 29.9177 16.2499 29.9177 14.0624V8.11825C30.83 7.80174 31.4913 6.94015 31.4913 5.9179C31.4913 4.89974 30.83 4.04151 29.9177 3.72625V2.64144C29.9177 2.22465 29.5802 1.88672 29.163 1.88672C28.7459 1.88672 28.4083 2.22465 28.4083 2.64144V3.72574C27.4916 4.04055 26.8267 4.89918 26.8267 5.9179C26.8267 6.94071 27.4916 7.80271 28.4083 8.11875V14.0624C28.4083 15.4175 27.3057 16.52 25.9511 16.52C24.5964 16.52 23.4938 15.4175 23.4938 14.0624V13.0022L24.0451 13.2731ZM29.1638 5.09943C29.6148 5.09943 29.9819 5.46647 29.9819 5.9179C29.9819 6.37412 29.6148 6.74558 29.1638 6.74558C28.6994 6.74558 28.3361 6.38185 28.3361 5.9179C28.3361 5.4591 28.6994 5.09943 29.1638 5.09943Z" fill="url(#paint4_linear_1289_1259)"/>
  <path d="M16.2116 14.9433C17.7697 14.9433 19.0367 13.676 19.0367 12.1179C19.0367 10.5598 17.7697 9.29248 16.2116 9.29248C14.6536 9.29248 13.3859 10.5598 13.3859 12.1179C13.3859 12.4826 13.4609 12.8289 13.5873 13.1492L11.5334 14.7008C11.0571 14.3356 10.4689 14.1097 9.82381 14.1097C8.26574 14.1097 6.99805 15.3774 6.99805 16.9355C6.99805 18.4935 8.26574 19.7609 9.82381 19.7609C10.4679 19.7609 11.0553 19.5358 11.5311 19.1717L13.5877 20.7202C13.461 21.0408 13.3859 21.3875 13.3859 21.7527C13.3859 23.3108 14.6536 24.5784 16.2116 24.5784C17.7697 24.5784 19.0367 23.3108 19.0367 21.7527C19.0367 20.1946 17.7697 18.9273 16.2116 18.9273C15.5662 18.9273 14.9778 19.1533 14.5015 19.5188L12.4467 17.9716C12.5742 17.65 12.6496 17.302 12.6496 16.9355C12.6496 16.5699 12.5744 16.2227 12.4474 15.9017L14.5004 14.3508C14.9769 14.7168 15.5657 14.9433 16.2116 14.9433ZM16.2116 10.8019C16.9369 10.8019 17.5272 11.3923 17.5272 12.1179C17.5272 12.8435 16.9369 13.4338 16.2116 13.4338C15.4857 13.4338 14.8953 12.8435 14.8953 12.1179C14.8953 11.3923 15.4857 10.8019 16.2116 10.8019ZM8.50748 16.9355C8.50748 16.2095 9.09784 15.6191 9.82381 15.6191C10.5698 15.6191 11.1401 16.2477 11.1401 16.9355C11.1401 17.6611 10.5498 18.2514 9.82381 18.2514C9.09784 18.2514 8.50748 17.6611 8.50748 16.9355ZM17.5272 21.7527C17.5272 22.4787 16.9369 23.069 16.2116 23.069C15.4857 23.069 14.8953 22.4787 14.8953 21.7527C14.8953 21.0271 15.4857 20.4367 16.2116 20.4367C16.9369 20.4367 17.5272 21.0271 17.5272 21.7527Z" fill="url(#paint5_linear_1289_1259)"/>
  <defs>
    <linearGradient id="paint0_linear_1289_1259" x1="38.1126" y1="20.0001" x2="1.88643" y2="20.0001" gradientUnits="userSpaceOnUse">
      <stop stop-color="#9D73FE"/>
      <stop offset="1" stop-color="#6826FF"/>
    </linearGradient>
    <linearGradient id="paint1_linear_1289_1259" x1="38.1126" y1="20.0001" x2="1.88643" y2="20.0001" gradientUnits="userSpaceOnUse">
      <stop stop-color="#9D73FE"/>
      <stop offset="1" stop-color="#6826FF"/>
    </linearGradient>
    <linearGradient id="paint2_linear_1289_1259" x1="38.1126" y1="20.0001" x2="1.88643" y2="20.0001" gradientUnits="userSpaceOnUse">
      <stop stop-color="#9D73FE"/>
      <stop offset="1" stop-color="#6826FF"/>
    </linearGradient>
    <linearGradient id="paint3_linear_1289_1259" x1="38.1126" y1="20.0001" x2="1.88643" y2="20.0001" gradientUnits="userSpaceOnUse">
      <stop stop-color="#9D73FE"/>
      <stop offset="1" stop-color="#6826FF"/>
    </linearGradient>
    <linearGradient id="paint4_linear_1289_1259" x1="38.1126" y1="20.0001" x2="1.88643" y2="20.0001" gradientUnits="userSpaceOnUse">
      <stop stop-color="#9D73FE"/>
      <stop offset="1" stop-color="#6826FF"/>
    </linearGradient>
    <linearGradient id="paint5_linear_1289_1259" x1="38.1126" y1="20.0001" x2="1.88643" y2="20.0001" gradientUnits="userSpaceOnUse">
      <stop stop-color="#9D73FE"/>
      <stop offset="1" stop-color="#6826FF"/>
    </linearGradient>
  </defs>
</svg>