<svg width="40" height="40" viewBox="0 0 40 40" fill="none" xmlns="http://www.w3.org/2000/svg">
<path fill-rule="evenodd" clip-rule="evenodd" d="M4 32.9057C4 34.9655 5.6632 36.6415 7.70723 36.6415H15.7957C16.3535 36.6415 16.8068 36.1847 16.8068 35.6226C16.8068 35.0606 16.3535 34.6038 15.7957 34.6038H7.70723C6.7779 34.6038 6.02213 33.8422 6.02213 32.9057V9.81132C6.02213 8.87481 6.7779 8.11321 7.70723 8.11321H9.74031L9.83131 8.30764C10.55 9.83425 12.0978 10.8242 13.7736 10.8302H20.5132C22.1899 10.8242 23.7377 9.83425 24.4563 8.30764L24.5473 8.11321H26.5804C27.5098 8.11321 28.2655 8.87481 28.2655 9.81132V16.6038C28.2655 17.1658 28.7188 17.6226 29.2766 17.6226C29.8344 17.6226 30.2877 17.1658 30.2877 16.6038V9.81132C30.2877 7.75151 28.6245 6.07547 26.5804 6.07547H24.9417L24.8995 5.78425C24.5903 3.62679 22.7266 2 20.5638 2H13.7753C11.6209 2.00934 9.76391 3.63613 9.45638 5.78425L9.41425 6.07547H7.70723C5.6632 6.07547 4 7.75151 4 9.81132V32.9057ZM11.4145 6.41509C11.4145 5.10415 12.4727 4.03774 13.7736 4.03774H20.514C21.8149 4.03774 22.8732 5.10415 22.8732 6.41509C22.8732 7.72604 21.8149 8.79245 20.514 8.79245H13.7736C12.4727 8.79245 11.4145 7.72604 11.4145 6.41509ZM9.39234 15.2453C9.39234 15.8074 9.84563 16.2642 10.4034 16.2642H23.8843C24.442 16.2642 24.8953 15.8074 24.8953 15.2453C24.8953 14.6832 24.442 14.2264 23.8843 14.2264H10.4034C9.84563 14.2264 9.39234 14.6832 9.39234 15.2453ZM10.4034 21.6981C9.84563 21.6981 9.39234 21.2413 9.39234 20.6792C9.39234 20.1172 9.84563 19.6604 10.4034 19.6604H19.84C20.3978 19.6604 20.8511 20.1172 20.8511 20.6792C20.8511 21.2413 20.3978 21.6981 19.84 21.6981H10.4034ZM9.39234 26.1132C9.39234 26.6753 9.84563 27.1321 10.4034 27.1321H15.7957C16.3535 27.1321 16.8068 26.6753 16.8068 26.1132C16.8068 25.5511 16.3535 25.0943 15.7957 25.0943H10.4034C9.84563 25.0943 9.39234 25.5511 9.39234 26.1132ZM27.2545 38C22.6086 38 18.8289 34.1911 18.8289 29.5094C18.8289 24.8277 22.6086 21.0189 27.2545 21.0189C31.8927 21.0257 35.6733 24.8354 35.68 29.5103C35.68 34.1911 31.9003 38 27.2545 38ZM27.2545 23.0566C23.7233 23.0566 20.8511 25.951 20.8511 29.5094C20.8511 33.0678 23.7233 35.9623 27.2545 35.9623C30.778 35.9546 33.6503 33.0602 33.6579 29.5103C33.6579 25.9519 30.7856 23.0566 27.2545 23.0566ZM25.4716 32.2731C25.6629 32.4675 25.9182 32.5745 26.1895 32.5745C26.4583 32.5745 26.711 32.4692 26.9023 32.2782L30.9533 28.1959C31.1454 28.0024 31.2507 27.7451 31.2507 27.4717C31.2507 27.1983 31.1454 26.941 30.9533 26.7475C30.7612 26.5539 30.5059 26.4477 30.2346 26.4477C29.9624 26.4477 29.7071 26.5547 29.5159 26.7475L26.1886 30.1148L24.8861 28.786C24.6939 28.5925 24.4387 28.4863 24.1674 28.4863C23.8961 28.4863 23.6408 28.5925 23.4487 28.786C23.2574 28.9796 23.1512 29.2369 23.1512 29.5103C23.1512 29.7837 23.2566 30.0409 23.4487 30.2345L25.4716 32.2731Z" fill="url(#paint0_linear_535_785)"/>
<defs>
<linearGradient id="paint0_linear_535_785" x1="35.6795" y1="20.0002" x2="3.99975" y2="20.0002" gradientUnits="userSpaceOnUse">
<stop stop-color="#9D73FE"/>
<stop offset="1" stop-color="#6826FF"/>
</linearGradient>
</defs>
</svg>
