<svg width="64" height="64" viewBox="0 0 64 64" fill="none" xmlns="http://www.w3.org/2000/svg">
<path fill-rule="evenodd" clip-rule="evenodd" d="M46.7462 25.1201C53.0236 26.3361 57.7676 31.8668 57.7676 38.4961C57.7676 46.0161 51.6636 52.1201 44.1436 52.1201C36.6236 52.1201 30.5196 46.0161 30.5196 38.4961C30.5196 28.4748 33.8956 22.2508 37.8582 18.3601C43.9249 12.4028 51.5222 11.8854 51.5222 11.8854C52.2956 11.8294 53.0289 12.2268 53.4076 12.9014C53.7889 13.5734 53.7436 14.4081 53.2956 15.0374C53.2956 15.0374 49.6849 20.1201 47.4342 23.8801C47.1996 24.2748 46.9622 24.7094 46.7462 25.1201Z" fill="white" fill-opacity="0.3"/>
<path fill-rule="evenodd" clip-rule="evenodd" d="M16.6603 25.1201C22.9376 26.3361 27.6816 31.8668 27.6816 38.4961C27.6816 46.0161 21.5776 52.1201 14.0576 52.1201C6.53764 52.1201 0.433641 46.0161 0.43364 38.4961C0.433639 28.4748 3.80964 22.2508 7.77231 18.3601C13.839 12.4028 21.4363 11.8854 21.4363 11.8854C22.2096 11.8294 22.943 12.2268 23.3216 12.9014C23.7003 13.5734 23.6576 14.4081 23.2096 15.0374C23.2096 15.0374 19.599 20.1201 17.3483 23.8801C17.1136 24.2748 16.8763 24.7094 16.6603 25.1201Z" fill="white" fill-opacity="0.3"/>
</svg>
