<svg width="688" height="400" viewBox="0 0 688 400" fill="none" xmlns="http://www.w3.org/2000/svg">
<g opacity="0.3">
<path d="M557.813 399.33C558.617 399.769 559.507 399.997 560.41 399.997C561.312 399.997 562.202 399.769 563.006 399.33C563.32 399.217 563.593 399.002 563.787 398.714C563.981 398.426 564.085 398.081 564.085 397.726C564.085 397.372 563.981 397.026 563.787 396.738C563.593 396.451 563.32 396.235 563.006 396.123C562.2 395.692 561.311 395.467 560.41 395.467C559.508 395.467 558.619 395.692 557.813 396.123C557.499 396.235 557.226 396.451 557.032 396.738C556.839 397.026 556.734 397.372 556.734 397.726C556.734 398.081 556.839 398.426 557.032 398.714C557.226 399.002 557.499 399.217 557.813 399.33Z" fill="#6826FF"/>
<path d="M562.556 375.861C563.359 376.3 564.249 376.529 565.152 376.529C566.054 376.529 566.944 376.3 567.748 375.861C568.062 375.748 568.335 375.533 568.529 375.245C568.723 374.958 568.827 374.612 568.827 374.258C568.827 373.903 568.723 373.557 568.529 373.27C568.335 372.982 568.062 372.767 567.748 372.654C566.944 372.215 566.054 371.986 565.152 371.986C564.249 371.986 563.359 372.215 562.556 372.654C562.241 372.767 561.968 372.982 561.774 373.27C561.581 373.557 561.477 373.903 561.477 374.258C561.477 374.612 561.581 374.958 561.774 375.245C561.968 375.533 562.241 375.748 562.556 375.861Z" fill="#6826FF"/>
<path d="M629.917 360.133C630.721 360.572 631.611 360.801 632.513 360.801C633.416 360.801 634.305 360.572 635.109 360.133C635.424 360.02 635.697 359.805 635.89 359.517C636.084 359.229 636.188 358.884 636.188 358.529C636.188 358.175 636.084 357.829 635.89 357.542C635.697 357.254 635.424 357.039 635.109 356.926C634.303 356.495 633.414 356.271 632.513 356.271C631.612 356.271 630.723 356.495 629.917 356.926C629.603 357.039 629.329 357.254 629.136 357.542C628.942 357.829 628.838 358.175 628.838 358.529C628.838 358.884 628.942 359.229 629.136 359.517C629.329 359.805 629.603 360.02 629.917 360.133Z" fill="#6826FF"/>
<path d="M671.319 246.872C672.123 247.311 673.013 247.539 673.915 247.539C674.818 247.539 675.708 247.311 676.512 246.872C676.826 246.759 677.099 246.544 677.293 246.256C677.486 245.968 677.591 245.623 677.591 245.268C677.591 244.914 677.486 244.568 677.293 244.28C677.099 243.993 676.826 243.777 676.512 243.665C675.708 243.226 674.818 242.997 673.915 242.997C673.013 242.997 672.123 243.226 671.319 243.665C671.005 243.777 670.732 243.993 670.538 244.28C670.344 244.568 670.24 244.914 670.24 245.268C670.24 245.623 670.344 245.968 670.538 246.256C670.732 246.544 671.005 246.759 671.319 246.872Z" fill="#6826FF"/>
<path d="M645.616 264.961C646.418 265.4 647.305 265.629 648.205 265.629C649.106 265.629 649.993 265.4 650.795 264.961C651.109 264.849 651.382 264.634 651.576 264.346C651.77 264.058 651.874 263.713 651.874 263.358C651.874 263.003 651.77 262.658 651.576 262.37C651.382 262.082 651.109 261.867 650.795 261.755C649.993 261.316 649.106 261.087 648.205 261.087C647.305 261.087 646.418 261.316 645.616 261.755C645.302 261.867 645.029 262.082 644.835 262.37C644.641 262.658 644.537 263.003 644.537 263.358C644.537 263.713 644.641 264.058 644.835 264.346C645.029 264.634 645.302 264.849 645.616 264.961Z" fill="#6826FF"/>
<path d="M481.864 191.407L481.455 190.635L548.723 149.105V80.9592L548.941 80.8426L652.16 17.0986L655.581 15.5972L655.894 16.4135L652.514 17.8857L549.554 81.4694V149.616L549.35 149.732L481.864 191.407Z" fill="#6826FF"/>
<path d="M569.124 6.48682H568.307V69.123H569.124V6.48682Z" fill="#6826FF"/>
<path d="M494.563 199.235L494.154 198.477L559.937 157.852H678.133V158.726H560.155L494.563 199.235Z" fill="#6826FF"/>
<path d="M429.408 179.236L350.297 130.375V88.1167L350.501 87.9855L487.531 3.35303L487.954 4.12559L351.115 88.6123V129.864L429.817 178.478L429.408 179.236Z" fill="#6826FF"/>
<path d="M125.096 367.042H3.66992V366.153H124.878L212.383 312.117H284.748L384.315 250.632L384.724 251.39L284.966 312.992H212.602L125.096 367.042Z" fill="#6826FF"/>
<path d="M152.774 329.42L152.365 328.662L195.771 301.869H278.82L373.044 243.679L373.453 244.437L279.038 302.744H195.989L152.774 329.42Z" fill="#6826FF"/>
<path d="M329.884 271.083L260.722 228.374H211.415L179.471 248.096L179.062 247.338L211.197 227.499H260.94L261.035 227.557L330.293 270.325L329.884 271.083Z" fill="#6826FF"/>
<path d="M141.952 377.698L141.543 376.925L180.042 353.15V332.714H180.874V353.661L180.655 353.792L141.952 377.698Z" fill="#6826FF"/>
<path d="M385.186 67.505V66.6304H416.448L472.528 31.9961L472.937 32.7687L416.666 67.505H385.186Z" fill="#6826FF"/>
<path d="M414.964 169.557H414.146V147.823L375.211 123.786V100.317H376.042V123.276L414.964 147.313V169.557Z" fill="#6826FF"/>
<path d="M565.566 374.287H564.734V306.403L491.252 261.011L491.661 260.253L565.566 305.893V374.287Z" fill="#6826FF"/>
<path d="M560.197 398.105L533.895 381.867V302.001L479.383 268.343L479.792 267.585L534.713 301.505V381.356L560.606 397.347L560.197 398.105Z" fill="#6826FF"/>
<path d="M648.207 263.795H576.428L576.333 263.737L531.592 236.099L532.001 235.341L576.646 262.92H648.207V263.795Z" fill="#6826FF"/>
<path d="M632.915 358.53H632.097V324.886L509.963 249.452L510.385 248.694L632.915 324.376V358.53Z" fill="#6826FF"/>
<path d="M507.674 207.34L507.266 206.582L554.664 177.297H678.134V178.186H554.896L507.674 207.34Z" fill="#6826FF"/>
<path d="M658.102 194.92H614.873L614.778 194.862L587.658 178.113L588.067 177.355L615.091 194.045H658.102V194.92Z" fill="#6826FF"/>
<path d="M313.148 382.115H312.33V329.886L312.535 329.755L412.496 268.037L412.905 268.795L313.148 330.396V382.115Z" fill="#6826FF"/>
<path d="M426.661 276.757L353.236 322.063L353.645 322.821L427.07 277.515L426.661 276.757Z" fill="#6826FF"/>
<path d="M506.23 385.453H505.413V303.838L463.67 278.051L464.079 277.293L506.244 303.327L506.23 385.453Z" fill="#6826FF"/>
<path d="M505.632 357.435L483.969 370.797L484.377 371.555L506.041 358.193L505.632 357.435Z" fill="#6826FF"/>
<path d="M519.313 214.526L518.904 213.768L560.443 188.113H577.055L577.151 188.171L610.853 208.987L610.444 209.745L576.837 188.987H560.661L519.313 214.526Z" fill="#6826FF"/>
<path d="M355.709 338.544H328.984V337.67H355.491L440.366 285.252L440.789 286.01L355.709 338.544Z" fill="#6826FF"/>
<path d="M400.954 360.337L400.545 359.579L469.98 316.694V299.348L449.579 286.754L449.987 285.996L470.797 298.838V317.204L470.593 317.336L400.954 360.337Z" fill="#6826FF"/>
<path d="M396.36 346.955L395.951 346.197L427.119 326.956H453.298V327.831H427.337L396.36 346.955Z" fill="#6826FF"/>
<path d="M396.921 388.062L396.512 387.304L428.483 367.552V351.678L428.688 351.562L464.87 329.215V320.105H465.701V329.726L465.497 329.842L429.314 352.188L429.301 368.062L429.096 368.194L396.921 388.062Z" fill="#6826FF"/>
<path d="M393.567 348.165C394.371 348.604 395.261 348.833 396.163 348.833C397.066 348.833 397.956 348.604 398.76 348.165C399.074 348.053 399.347 347.837 399.541 347.549C399.734 347.262 399.839 346.916 399.839 346.562C399.839 346.207 399.734 345.862 399.541 345.574C399.347 345.286 399.074 345.071 398.76 344.958C397.954 344.527 397.065 344.303 396.163 344.303C395.262 344.303 394.373 344.527 393.567 344.958C393.253 345.071 392.98 345.286 392.786 345.574C392.592 345.862 392.488 346.207 392.488 346.562C392.488 346.916 392.592 347.262 392.786 347.549C392.98 347.837 393.253 348.053 393.567 348.165Z" fill="#6826FF"/>
<path d="M398.078 361.503C398.882 361.934 399.768 362.158 400.667 362.158C401.566 362.158 402.453 361.934 403.257 361.503C403.571 361.39 403.844 361.175 404.038 360.887C404.232 360.6 404.336 360.254 404.336 359.9C404.336 359.545 404.232 359.2 404.038 358.912C403.844 358.624 403.571 358.409 403.257 358.296C402.453 357.857 401.563 357.628 400.661 357.628C399.758 357.628 398.868 357.857 398.064 358.296C397.751 358.41 397.478 358.627 397.286 358.916C397.093 359.204 396.991 359.55 396.992 359.905C396.994 360.259 397.099 360.604 397.294 360.891C397.489 361.178 397.763 361.392 398.078 361.503Z" fill="#6826FF"/>
<path d="M472.377 353.806C473.178 354.245 474.066 354.474 474.966 354.474C475.867 354.474 476.754 354.245 477.556 353.806C477.87 353.694 478.143 353.478 478.337 353.191C478.53 352.903 478.635 352.557 478.635 352.203C478.635 351.848 478.53 351.503 478.337 351.215C478.143 350.927 477.87 350.712 477.556 350.599C476.752 350.16 475.862 349.932 474.959 349.932C474.057 349.932 473.167 350.16 472.363 350.599C472.049 350.713 471.777 350.93 471.585 351.219C471.392 351.507 471.29 351.854 471.291 352.208C471.293 352.563 471.398 352.908 471.593 353.194C471.788 353.481 472.062 353.695 472.377 353.806Z" fill="#6826FF"/>
<path d="M628.256 233.971C629.06 234.41 629.95 234.639 630.853 234.639C631.755 234.639 632.645 234.41 633.449 233.971C633.758 233.856 634.026 233.64 634.216 233.354C634.406 233.068 634.508 232.726 634.508 232.375C634.508 232.025 634.406 231.683 634.216 231.397C634.026 231.111 633.758 230.895 633.449 230.779C632.645 230.34 631.755 230.111 630.853 230.111C629.95 230.111 629.06 230.34 628.256 230.779C627.947 230.895 627.679 231.111 627.489 231.397C627.299 231.683 627.197 232.025 627.197 232.375C627.197 232.726 627.299 233.068 627.489 233.354C627.679 233.64 627.947 233.856 628.256 233.971Z" fill="#6826FF"/>
<path d="M596.339 217.514C597.143 217.953 598.033 218.182 598.936 218.182C599.838 218.182 600.728 217.953 601.532 217.514C601.848 217.406 602.123 217.193 602.319 216.906C602.515 216.619 602.62 216.273 602.62 215.918C602.62 215.563 602.515 215.217 602.319 214.93C602.123 214.643 601.848 214.43 601.532 214.322C600.73 213.883 599.843 213.654 598.942 213.654C598.042 213.654 597.154 213.883 596.353 214.322C596.036 214.429 595.76 214.641 595.563 214.926C595.366 215.212 595.259 215.558 595.258 215.913C595.256 216.268 595.36 216.614 595.555 216.902C595.749 217.19 596.024 217.404 596.339 217.514Z" fill="#6826FF"/>
<path d="M584.987 244.16C585.791 244.599 586.681 244.828 587.583 244.828C588.486 244.828 589.376 244.599 590.179 244.16C590.494 244.048 590.767 243.832 590.961 243.545C591.154 243.257 591.259 242.911 591.259 242.557C591.259 242.202 591.154 241.857 590.961 241.569C590.767 241.281 590.494 241.066 590.179 240.953C589.373 240.522 588.485 240.298 587.583 240.298C586.682 240.298 585.793 240.522 584.987 240.953C584.673 241.066 584.4 241.281 584.206 241.569C584.012 241.857 583.908 242.202 583.908 242.557C583.908 242.911 584.012 243.257 584.206 243.545C584.4 243.832 584.673 244.048 584.987 244.16Z" fill="#6826FF"/>
<path d="M260.298 398.776C261.104 399.207 261.993 399.431 262.894 399.431C263.795 399.431 264.684 399.207 265.49 398.776C265.804 398.663 266.078 398.448 266.271 398.16C266.465 397.872 266.569 397.527 266.569 397.172C266.569 396.818 266.465 396.472 266.271 396.184C266.078 395.897 265.804 395.681 265.49 395.569C264.686 395.13 263.796 394.901 262.894 394.901C261.991 394.901 261.102 395.13 260.298 395.569C259.983 395.681 259.71 395.897 259.517 396.184C259.323 396.472 259.219 396.818 259.219 397.172C259.219 397.527 259.323 397.872 259.517 398.16C259.71 398.448 259.983 398.663 260.298 398.776Z" fill="#6826FF"/>
<path d="M655.511 196.086C656.315 196.525 657.204 196.754 658.107 196.754C659.009 196.754 659.899 196.525 660.703 196.086C661.017 195.974 661.291 195.759 661.484 195.471C661.678 195.183 661.782 194.838 661.782 194.483C661.782 194.129 661.678 193.783 661.484 193.495C661.291 193.207 661.017 192.992 660.703 192.88C659.897 192.449 659.008 192.224 658.107 192.224C657.206 192.224 656.317 192.449 655.511 192.88C655.196 192.992 654.923 193.207 654.729 193.495C654.536 193.783 654.432 194.129 654.432 194.483C654.432 194.838 654.536 195.183 654.729 195.471C654.923 195.759 655.196 195.974 655.511 196.086Z" fill="#6826FF"/>
<path d="M675.545 179.352C676.351 179.787 677.24 180.013 678.142 180.013C679.043 180.013 679.933 179.787 680.738 179.352C681.047 179.237 681.315 179.021 681.505 178.735C681.695 178.449 681.797 178.107 681.797 177.756C681.797 177.405 681.695 177.063 681.505 176.777C681.315 176.491 681.047 176.276 680.738 176.16C679.934 175.721 679.044 175.492 678.142 175.492C677.239 175.492 676.349 175.721 675.545 176.16C675.236 176.276 674.968 176.491 674.778 176.777C674.588 177.063 674.486 177.405 674.486 177.756C674.486 178.107 674.588 178.449 674.778 178.735C674.968 179.021 675.236 179.237 675.545 179.352Z" fill="#6826FF"/>
<path d="M675.544 159.892C676.348 160.331 677.237 160.56 678.14 160.56C679.043 160.56 679.932 160.331 680.736 159.892C681.05 159.78 681.324 159.564 681.517 159.277C681.711 158.989 681.815 158.643 681.815 158.289C681.815 157.934 681.711 157.589 681.517 157.301C681.324 157.013 681.05 156.798 680.736 156.685C679.93 156.254 679.041 156.03 678.14 156.03C677.239 156.03 676.35 156.254 675.544 156.685C675.23 156.798 674.956 157.013 674.763 157.301C674.569 157.589 674.465 157.934 674.465 158.289C674.465 158.643 674.569 158.989 674.763 159.277C674.956 159.564 675.23 159.78 675.544 159.892Z" fill="#6826FF"/>
<path d="M394.126 389.286C394.93 389.725 395.819 389.954 396.722 389.954C397.625 389.954 398.514 389.725 399.318 389.286C399.632 389.174 399.906 388.958 400.099 388.671C400.293 388.383 400.397 388.037 400.397 387.683C400.397 387.328 400.293 386.983 400.099 386.695C399.906 386.407 399.632 386.192 399.318 386.079C398.514 385.64 397.625 385.412 396.722 385.412C395.819 385.412 394.93 385.64 394.126 386.079C393.812 386.192 393.538 386.407 393.345 386.695C393.151 386.983 393.047 387.328 393.047 387.683C393.047 388.037 393.151 388.383 393.345 388.671C393.538 388.958 393.812 389.174 394.126 389.286Z" fill="#6826FF"/>
<path d="M503.245 387.887C504.049 388.318 504.935 388.542 505.834 388.542C506.733 388.542 507.62 388.318 508.424 387.887C508.738 387.774 509.011 387.559 509.205 387.271C509.399 386.983 509.503 386.638 509.503 386.283C509.503 385.929 509.399 385.583 509.205 385.296C509.011 385.008 508.738 384.792 508.424 384.68C507.622 384.241 506.735 384.012 505.834 384.012C504.934 384.012 504.046 384.241 503.245 384.68C502.931 384.792 502.657 385.008 502.464 385.296C502.27 385.583 502.166 385.929 502.166 386.283C502.166 386.638 502.27 386.983 502.464 387.271C502.657 387.559 502.931 387.774 503.245 387.887Z" fill="#6826FF"/>
<path d="M481.59 372.8C482.394 373.239 483.284 373.468 484.186 373.468C485.089 373.468 485.979 373.239 486.783 372.8C487.092 372.684 487.36 372.468 487.55 372.183C487.74 371.897 487.842 371.555 487.842 371.204C487.842 370.853 487.74 370.511 487.55 370.225C487.36 369.939 487.092 369.723 486.783 369.608C485.979 369.169 485.089 368.94 484.186 368.94C483.284 368.94 482.394 369.169 481.59 369.608C481.274 369.716 480.999 369.929 480.803 370.216C480.607 370.503 480.502 370.849 480.502 371.204C480.502 371.559 480.607 371.905 480.803 372.192C480.999 372.478 481.274 372.692 481.59 372.8Z" fill="#6826FF"/>
<path d="M681.731 323.72C682.535 324.159 683.425 324.388 684.328 324.388C685.23 324.388 686.12 324.159 686.924 323.72C687.238 323.608 687.511 323.392 687.705 323.105C687.898 322.817 688.003 322.471 688.003 322.117C688.003 321.762 687.898 321.417 687.705 321.129C687.511 320.841 687.238 320.626 686.924 320.513C686.12 320.075 685.23 319.846 684.328 319.846C683.425 319.846 682.535 320.075 681.731 320.513C681.417 320.626 681.144 320.841 680.95 321.129C680.756 321.417 680.652 321.762 680.652 322.117C680.652 322.471 680.756 322.817 680.95 323.105C681.144 323.392 681.417 323.608 681.731 323.72Z" fill="#6826FF"/>
<path d="M326.393 339.711C327.197 340.15 328.087 340.379 328.99 340.379C329.892 340.379 330.782 340.15 331.586 339.711C331.9 339.598 332.173 339.383 332.367 339.095C332.561 338.808 332.665 338.462 332.665 338.108C332.665 337.753 332.561 337.407 332.367 337.12C332.173 336.832 331.9 336.617 331.586 336.504C330.78 336.073 329.891 335.849 328.99 335.849C328.088 335.849 327.2 336.073 326.393 336.504C326.079 336.617 325.806 336.832 325.612 337.12C325.419 337.407 325.314 337.753 325.314 338.108C325.314 338.462 325.419 338.808 325.612 339.095C325.806 339.383 326.079 339.598 326.393 339.711Z" fill="#6826FF"/>
<path d="M310.149 383.718C310.953 384.157 311.843 384.386 312.745 384.386C313.648 384.386 314.538 384.157 315.342 383.718C315.656 383.605 315.929 383.39 316.123 383.102C316.316 382.814 316.421 382.469 316.421 382.114C316.421 381.76 316.316 381.414 316.123 381.127C315.929 380.839 315.656 380.623 315.342 380.511C314.536 380.08 313.647 379.855 312.745 379.855C311.844 379.855 310.955 380.08 310.149 380.511C309.835 380.623 309.562 380.839 309.368 381.127C309.175 381.414 309.07 381.76 309.07 382.114C309.07 382.469 309.175 382.814 309.368 383.102C309.562 383.39 309.835 383.605 310.149 383.718Z" fill="#6826FF"/>
<path d="M178.352 248.286C179.156 248.725 180.046 248.953 180.949 248.953C181.851 248.953 182.741 248.725 183.545 248.286C183.859 248.173 184.132 247.958 184.326 247.67C184.52 247.382 184.624 247.037 184.624 246.682C184.624 246.328 184.52 245.982 184.326 245.694C184.132 245.407 183.859 245.191 183.545 245.079C182.739 244.648 181.85 244.423 180.949 244.423C180.047 244.423 179.159 244.648 178.352 245.079C178.038 245.191 177.765 245.407 177.571 245.694C177.378 245.982 177.273 246.328 177.273 246.682C177.273 247.037 177.378 247.382 177.571 247.67C177.765 247.958 178.038 248.173 178.352 248.286Z" fill="#6826FF"/>
<path d="M276.446 211.246C277.25 211.685 278.14 211.914 279.042 211.914C279.945 211.914 280.835 211.685 281.639 211.246C281.953 211.134 282.226 210.918 282.42 210.631C282.613 210.343 282.718 209.997 282.718 209.643C282.718 209.288 282.613 208.943 282.42 208.655C282.226 208.367 281.953 208.152 281.639 208.039C280.835 207.6 279.945 207.372 279.042 207.372C278.14 207.372 277.25 207.6 276.446 208.039C276.132 208.152 275.859 208.367 275.665 208.655C275.471 208.943 275.367 209.288 275.367 209.643C275.367 209.997 275.471 210.343 275.665 210.631C275.859 210.918 276.132 211.134 276.446 211.246Z" fill="#6826FF"/>
<path d="M310.489 180.533C311.293 180.972 312.183 181.201 313.085 181.201C313.988 181.201 314.878 180.972 315.681 180.533C315.996 180.42 316.269 180.205 316.463 179.917C316.656 179.629 316.76 179.284 316.76 178.929C316.76 178.575 316.656 178.229 316.463 177.942C316.269 177.654 315.996 177.439 315.681 177.326C314.878 176.887 313.988 176.658 313.085 176.658C312.183 176.658 311.293 176.887 310.489 177.326C310.175 177.439 309.902 177.654 309.708 177.942C309.514 178.229 309.41 178.575 309.41 178.929C309.41 179.284 309.514 179.629 309.708 179.917C309.902 180.205 310.175 180.42 310.489 180.533Z" fill="#6826FF"/>
<path d="M373.03 101.921C373.834 102.359 374.724 102.588 375.626 102.588C376.529 102.588 377.419 102.359 378.222 101.921C378.537 101.808 378.81 101.593 379.004 101.305C379.197 101.017 379.301 100.672 379.301 100.317C379.301 99.9626 379.197 99.617 379.004 99.3293C378.81 99.0416 378.537 98.8262 378.222 98.7137C377.419 98.2747 376.529 98.0459 375.626 98.0459C374.724 98.0459 373.834 98.2747 373.03 98.7137C372.716 98.8262 372.443 99.0416 372.249 99.3293C372.055 99.617 371.951 99.9626 371.951 100.317C371.951 100.672 372.055 101.017 372.249 101.305C372.443 101.593 372.716 101.808 373.03 101.921Z" fill="#6826FF"/>
<path d="M416.708 107.314C417.512 107.753 418.401 107.982 419.304 107.982C420.207 107.982 421.096 107.753 421.9 107.314C422.214 107.201 422.488 106.986 422.681 106.698C422.875 106.411 422.979 106.065 422.979 105.711C422.979 105.356 422.875 105.01 422.681 104.723C422.488 104.435 422.214 104.22 421.9 104.107C421.094 103.676 420.205 103.452 419.304 103.452C418.403 103.452 417.514 103.676 416.708 104.107C416.394 104.22 416.12 104.435 415.927 104.723C415.733 105.01 415.629 105.356 415.629 105.711C415.629 106.065 415.733 106.411 415.927 106.698C416.12 106.986 416.394 107.201 416.708 107.314Z" fill="#6826FF"/>
<path d="M421.53 78.6998C422.334 79.1387 423.224 79.3676 424.126 79.3676C425.029 79.3676 425.919 79.1387 426.722 78.6998C427.037 78.5873 427.31 78.3719 427.504 78.0842C427.697 77.7965 427.801 77.4509 427.801 77.0964C427.801 76.7419 427.697 76.3963 427.504 76.1086C427.31 75.8209 427.037 75.6055 426.722 75.493C425.919 75.054 425.029 74.8252 424.126 74.8252C423.224 74.8252 422.334 75.054 421.53 75.493C421.216 75.6055 420.943 75.8209 420.749 76.1086C420.555 76.3963 420.451 76.7419 420.451 77.0964C420.451 77.4509 420.555 77.7965 420.749 78.0842C420.943 78.3719 421.216 78.5873 421.53 78.6998Z" fill="#6826FF"/>
<path d="M496.731 44.9693C497.535 45.4082 498.425 45.637 499.327 45.637C500.23 45.637 501.12 45.4082 501.924 44.9693C502.238 44.8567 502.511 44.6414 502.705 44.3537C502.898 44.0659 503.003 43.7204 503.003 43.3659C503.003 43.0113 502.898 42.6658 502.705 42.378C502.511 42.0903 502.238 41.875 501.924 41.7624C501.118 41.3314 500.229 41.1069 499.327 41.1069C498.426 41.1069 497.537 41.3314 496.731 41.7624C496.417 41.875 496.144 42.0903 495.95 42.378C495.756 42.6658 495.652 43.0113 495.652 43.3659C495.652 43.7204 495.756 44.0659 495.95 44.3537C496.144 44.6414 496.417 44.8567 496.731 44.9693Z" fill="#6826FF"/>
<path d="M470.168 33.9786C470.97 34.4174 471.857 34.6462 472.758 34.6462C473.658 34.6462 474.546 34.4174 475.347 33.9786C475.663 33.8701 475.939 33.6571 476.134 33.3702C476.33 33.0833 476.435 32.7375 476.435 32.3824C476.435 32.0274 476.33 31.6815 476.134 31.3946C475.939 31.1078 475.663 30.8948 475.347 30.7863C474.546 30.3475 473.658 30.1187 472.758 30.1187C471.857 30.1187 470.97 30.3475 470.168 30.7863C469.852 30.8948 469.577 31.1078 469.381 31.3946C469.185 31.6815 469.08 32.0274 469.08 32.3824C469.08 32.7375 469.185 33.0833 469.381 33.3702C469.577 33.6571 469.852 33.8701 470.168 33.9786Z" fill="#6826FF"/>
<path d="M653.14 17.609C653.943 18.0479 654.833 18.2767 655.736 18.2767C656.638 18.2767 657.528 18.0479 658.332 17.609C658.646 17.4964 658.919 17.281 659.113 16.9933C659.307 16.7056 659.411 16.36 659.411 16.0055C659.411 15.651 659.307 15.3054 659.113 15.0177C658.919 14.73 658.646 14.5146 658.332 14.4021C657.526 13.971 656.637 13.7466 655.736 13.7466C654.834 13.7466 653.946 13.971 653.14 14.4021C652.825 14.5146 652.552 14.73 652.358 15.0177C652.165 15.3054 652.061 15.651 652.061 16.0055C652.061 16.36 652.165 16.7056 652.358 16.9933C652.552 17.281 652.825 17.4964 653.14 17.609Z" fill="#6826FF"/>
<path d="M485.161 5.34981C485.966 5.7842 486.855 6.0105 487.757 6.0105C488.659 6.0105 489.548 5.7842 490.353 5.34981C490.669 5.24133 490.945 5.0283 491.14 4.74144C491.336 4.45458 491.441 4.1087 491.441 3.75366C491.441 3.39861 491.336 3.05274 491.14 2.76588C490.945 2.47902 490.669 2.26599 490.353 2.15751C489.549 1.71859 488.659 1.48975 487.757 1.48975C486.854 1.48975 485.965 1.71859 485.161 2.15751C484.851 2.27324 484.583 2.48905 484.393 2.77502C484.204 3.06099 484.102 3.40298 484.102 3.75366C484.102 4.10433 484.204 4.44634 484.393 4.73231C484.583 5.01828 484.851 5.23407 485.161 5.34981Z" fill="#6826FF"/>
<path d="M325.399 243.781C326.203 244.22 327.093 244.449 327.995 244.449C328.898 244.449 329.788 244.22 330.592 243.781C330.906 243.669 331.179 243.453 331.373 243.166C331.566 242.878 331.671 242.532 331.671 242.178C331.671 241.823 331.566 241.478 331.373 241.19C331.179 240.902 330.906 240.687 330.592 240.574C329.786 240.143 328.897 239.919 327.995 239.919C327.094 239.919 326.205 240.143 325.399 240.574C325.085 240.687 324.812 240.902 324.618 241.19C324.425 241.478 324.32 241.823 324.32 242.178C324.32 242.532 324.425 242.878 324.618 243.166C324.812 243.453 325.085 243.669 325.399 243.781Z" fill="#6826FF"/>
<path d="M500.507 148.901C501.308 149.34 502.196 149.569 503.096 149.569C503.996 149.569 504.884 149.34 505.685 148.901C506 148.789 506.273 148.573 506.467 148.286C506.66 147.998 506.764 147.652 506.764 147.298C506.764 146.943 506.66 146.598 506.467 146.31C506.273 146.022 506 145.807 505.685 145.694C504.884 145.256 503.996 145.027 503.096 145.027C502.196 145.027 501.308 145.256 500.507 145.694C500.192 145.807 499.919 146.022 499.726 146.31C499.532 146.598 499.428 146.943 499.428 147.298C499.428 147.652 499.532 147.998 499.726 148.286C499.919 148.573 500.192 148.789 500.507 148.901Z" fill="#6826FF"/>
<path d="M651.423 92.985C652.227 93.4239 653.116 93.6528 654.019 93.6528C654.921 93.6528 655.811 93.4239 656.615 92.985C656.929 92.8725 657.203 92.6571 657.396 92.3694C657.59 92.0816 657.694 91.7361 657.694 91.3815C657.694 91.027 657.59 90.6815 657.396 90.3937C657.203 90.106 656.929 89.8907 656.615 89.7781C655.811 89.3392 654.921 89.1104 654.019 89.1104C653.116 89.1104 652.227 89.3392 651.423 89.7781C651.108 89.8907 650.835 90.106 650.642 90.3937C650.448 90.6815 650.344 91.027 650.344 91.3815C650.344 91.7361 650.448 92.0816 650.642 92.3694C650.835 92.6571 651.108 92.8725 651.423 92.985Z" fill="#6826FF"/>
<path d="M631.975 80.9884C632.779 81.4273 633.669 81.6562 634.572 81.6562C635.474 81.6562 636.364 81.4273 637.168 80.9884C637.482 80.8759 637.755 80.6605 637.949 80.3728C638.143 80.085 638.247 79.7395 638.247 79.385C638.247 79.0304 638.143 78.6849 637.949 78.3972C637.755 78.1094 637.482 77.8941 637.168 77.7815C636.364 77.3426 635.474 77.1138 634.572 77.1138C633.669 77.1138 632.779 77.3426 631.975 77.7815C631.661 77.8941 631.388 78.1094 631.194 78.3972C631.001 78.6849 630.896 79.0304 630.896 79.385C630.896 79.7395 631.001 80.085 631.194 80.3728C631.388 80.6605 631.661 80.8759 631.975 80.9884Z" fill="#6826FF"/>
<path d="M566.126 7.60902C566.93 8.04794 567.819 8.27678 568.722 8.27678C569.625 8.27678 570.514 8.04794 571.318 7.60902C571.632 7.49648 571.906 7.28112 572.099 6.99339C572.293 6.70565 572.397 6.36009 572.397 6.00557C572.397 5.65105 572.293 5.3055 572.099 5.01777C571.906 4.73003 571.632 4.51468 571.318 4.40213C570.514 3.96322 569.625 3.73438 568.722 3.73438C567.819 3.73438 566.93 3.96322 566.126 4.40213C565.812 4.51468 565.538 4.73003 565.345 5.01777C565.151 5.3055 565.047 5.65105 565.047 6.00557C565.047 6.36009 565.151 6.70565 565.345 6.99339C565.538 7.28112 565.812 7.49648 566.126 7.60902Z" fill="#6826FF"/>
<path d="M674.796 105.609C675.602 106.04 676.491 106.264 677.392 106.264C678.293 106.264 679.182 106.04 679.988 105.609C680.302 105.496 680.576 105.281 680.769 104.993C680.963 104.705 681.067 104.36 681.067 104.005C681.067 103.651 680.963 103.305 680.769 103.017C680.576 102.73 680.302 102.514 679.988 102.402C679.184 101.963 678.295 101.734 677.392 101.734C676.489 101.734 675.6 101.963 674.796 102.402C674.482 102.514 674.208 102.73 674.015 103.017C673.821 103.305 673.717 103.651 673.717 104.005C673.717 104.36 673.821 104.705 674.015 104.993C674.208 105.281 674.482 105.496 674.796 105.609Z" fill="#6826FF"/>
<path d="M263.364 247.804C264.168 248.243 265.057 248.472 265.96 248.472C266.863 248.472 267.752 248.243 268.556 247.804C268.866 247.689 269.134 247.473 269.323 247.187C269.513 246.901 269.615 246.559 269.615 246.208C269.615 245.858 269.513 245.516 269.323 245.23C269.134 244.944 268.866 244.728 268.556 244.612C267.752 244.173 266.863 243.944 265.96 243.944C265.057 243.944 264.168 244.173 263.364 244.612C263.054 244.728 262.786 244.944 262.596 245.23C262.407 245.516 262.305 245.858 262.305 246.208C262.305 246.559 262.407 246.901 262.596 247.187C262.786 247.473 263.054 247.689 263.364 247.804Z" fill="#6826FF"/>
<path d="M139.157 378.922C139.963 379.353 140.852 379.578 141.753 379.578C142.655 379.578 143.543 379.353 144.349 378.922C144.664 378.809 144.937 378.594 145.131 378.306C145.324 378.019 145.428 377.673 145.428 377.319C145.428 376.964 145.324 376.618 145.131 376.331C144.937 376.043 144.664 375.828 144.349 375.715C143.546 375.276 142.656 375.047 141.753 375.047C140.851 375.047 139.961 375.276 139.157 375.715C138.843 375.828 138.57 376.043 138.376 376.331C138.182 376.618 138.078 376.964 138.078 377.319C138.078 377.673 138.182 378.019 138.376 378.306C138.57 378.594 138.843 378.809 139.157 378.922Z" fill="#6826FF"/>
<path d="M1.07902 368.208C1.8851 368.639 2.77394 368.864 3.67516 368.864C4.57638 368.864 5.46522 368.639 6.2713 368.208C6.5856 368.096 6.85889 367.88 7.05252 367.593C7.24615 367.305 7.35032 366.959 7.35032 366.605C7.35032 366.25 7.24615 365.905 7.05252 365.617C6.85889 365.329 6.5856 365.114 6.2713 365.001C5.46742 364.562 4.57772 364.333 3.67516 364.333C2.7726 364.333 1.8829 364.562 1.07902 365.001C0.764716 365.114 0.491429 365.329 0.297802 365.617C0.104174 365.905 0 366.25 0 366.605C0 366.959 0.104174 367.305 0.297802 367.593C0.491429 367.88 0.764716 368.096 1.07902 368.208Z" fill="#6826FF"/>
<path d="M201.233 379.884C202.035 380.323 202.922 380.552 203.823 380.552C204.723 380.552 205.611 380.323 206.412 379.884C206.726 379.772 207 379.556 207.193 379.269C207.387 378.981 207.491 378.635 207.491 378.281C207.491 377.926 207.387 377.581 207.193 377.293C207 377.005 206.726 376.79 206.412 376.677C205.611 376.239 204.723 376.01 203.823 376.01C202.922 376.01 202.035 376.239 201.233 376.677C200.919 376.79 200.646 377.005 200.452 377.293C200.258 377.581 200.154 377.926 200.154 378.281C200.154 378.635 200.258 378.981 200.452 379.269C200.646 379.556 200.919 379.772 201.233 379.884Z" fill="#6826FF"/>
<path d="M89.2528 238.84C90.0567 239.279 90.9464 239.508 91.849 239.508C92.7515 239.508 93.6412 239.279 94.4451 238.84C94.7594 238.727 95.0327 238.512 95.2263 238.224C95.42 237.937 95.5241 237.591 95.5241 237.237C95.5241 236.882 95.42 236.536 95.2263 236.249C95.0327 235.961 94.7594 235.746 94.4451 235.633C93.6412 235.194 92.7515 234.965 91.849 234.965C90.9464 234.965 90.0567 235.194 89.2528 235.633C88.9385 235.746 88.6653 235.961 88.4716 236.249C88.278 236.536 88.1738 236.882 88.1738 237.237C88.1738 237.591 88.278 237.937 88.4716 238.224C88.6653 238.512 88.9385 238.727 89.2528 238.84Z" fill="#6826FF"/>
<path d="M149.979 329.872C150.785 330.303 151.674 330.527 152.576 330.527C153.477 330.527 154.366 330.303 155.172 329.872C155.486 329.759 155.759 329.544 155.953 329.256C156.147 328.968 156.251 328.623 156.251 328.268C156.251 327.914 156.147 327.568 155.953 327.28C155.759 326.993 155.486 326.777 155.172 326.665C154.368 326.226 153.478 325.997 152.576 325.997C151.673 325.997 150.783 326.226 149.979 326.665C149.665 326.777 149.392 326.993 149.198 327.28C149.005 327.568 148.9 327.914 148.9 328.268C148.9 328.623 149.005 328.968 149.198 329.256C149.392 329.544 149.665 329.759 149.979 329.872Z" fill="#6826FF"/>
<path d="M350.87 324.099C351.674 324.538 352.564 324.767 353.466 324.767C354.369 324.767 355.258 324.538 356.062 324.099C356.377 323.987 356.65 323.771 356.844 323.484C357.037 323.196 357.141 322.85 357.141 322.496C357.141 322.141 357.037 321.796 356.844 321.508C356.65 321.22 356.377 321.005 356.062 320.892C355.256 320.461 354.367 320.237 353.466 320.237C352.565 320.237 351.676 320.461 350.87 320.892C350.556 321.005 350.282 321.22 350.089 321.508C349.895 321.796 349.791 322.141 349.791 322.496C349.791 322.85 349.895 323.196 350.089 323.484C350.282 323.771 350.556 323.987 350.87 324.099Z" fill="#6826FF"/>
<path d="M505.62 332.843L474.846 351.833L475.254 352.59L506.029 333.601L505.62 332.843Z" fill="#6826FF"/>
<path d="M361.009 252.046H343.252L343.156 251.988L327.375 242.236L327.784 241.478L343.47 251.172H361.009V252.046Z" fill="#6826FF"/>
<path d="M356.144 224.467L313.08 197.879H298.907L279.977 209.57L279.555 208.812L298.688 197.004H313.298L313.393 197.063L356.553 223.709L356.144 224.467Z" fill="#6826FF"/>
<path d="M344.969 216.815H344.138V198.608L312.875 179.294L313.284 178.536L344.969 198.098V216.815Z" fill="#6826FF"/>
<path d="M594.622 255.21H562.623V254.32H594.404L630.573 231.989L630.981 232.761L594.622 255.21Z" fill="#6826FF"/>
<path d="M397.036 258.509L203.586 377.828L203.994 378.586L397.444 259.267L397.036 258.509Z" fill="#6826FF"/>
<path d="M598.805 216.246L571.427 199.337H560.524L545.915 208.36H529.193V207.485H545.697L560.293 198.462H571.645L571.74 198.521L599.214 215.488L598.805 216.246Z" fill="#6826FF"/>
<path d="M470.593 184.44L470.184 183.682L522.107 151.627V115.288L463.098 78.8458L463.111 65.1728L463.316 65.0416L499.117 42.9287L499.525 43.6867L463.929 65.6684V78.3356L522.925 114.777V152.123L522.72 152.254L470.593 184.44Z" fill="#6826FF"/>
<path d="M483.034 176.51H482.217V159.688L482.421 159.557L502.877 146.919L503.299 147.677L483.034 160.184V176.51Z" fill="#6826FF"/>
<path d="M677.183 103.585L589.25 157.843L589.659 158.6L677.591 104.342L677.183 103.585Z" fill="#6826FF"/>
<path d="M634.974 79.3853H634.156V103.379H634.974V79.3853Z" fill="#6826FF"/>
<path d="M559.842 158.42L559.434 157.662L621.537 119.296V110.914L621.755 110.783L653.781 91.0024L654.189 91.7604L622.368 111.424V119.806L622.164 119.937L559.842 158.42Z" fill="#6826FF"/>
<path d="M263.132 397.551L262.723 396.793L294.68 377.056V351.78L312.533 340.746L312.942 341.518L295.498 352.29V377.566L295.294 377.683L263.132 397.551Z" fill="#6826FF"/>
<path d="M315.561 262.192H291.003L290.907 262.134L265.75 246.58L266.159 245.822L291.221 261.303H315.561V262.192Z" fill="#6826FF"/>
<path d="M181.855 293.27H181.746L181.651 293.211L92.5234 238.17L92.9323 237.397L181.978 292.38H294.273V293.27H181.855Z" fill="#6826FF"/>
<path d="M456.419 175.183H455.601V128.64L419.691 106.454L420.1 105.696L456.419 128.129V175.183Z" fill="#6826FF"/>
<path d="M456.215 147.954L455.806 147.196L481.958 131.045V113.319L423.916 77.4753L424.325 76.7173L482.776 112.809V131.54L482.571 131.672L456.215 147.954Z" fill="#6826FF"/>
<path d="M684.118 322.496L618.58 282.016H562.814V281.142H618.798L618.894 281.2L684.54 321.738L684.118 322.496Z" fill="#6826FF"/>
<path d="M673.787 244.831H609.898V245.706H673.787V244.831Z" fill="#6826FF"/>
<path d="M587.153 242.805L557.403 224.438H535.053V223.549H557.621L557.716 223.607L587.562 242.047L587.153 242.805Z" fill="#6826FF"/>
</g>
<path opacity="0.2" d="M445.845 247.44C465.384 247.44 481.224 237.657 481.224 225.589C481.224 213.522 465.384 203.739 445.845 203.739C426.306 203.739 410.467 213.522 410.467 225.589C410.467 237.657 426.306 247.44 445.845 247.44Z" fill="#03002D"/>
<path d="M445.858 247.863C436.713 247.863 427.582 245.72 420.632 241.42C413.682 237.12 410.07 231.595 410.07 225.59C410.07 219.584 413.818 213.928 420.632 209.774C434.533 201.188 457.169 201.188 471.056 209.774C477.87 213.972 481.618 219.598 481.618 225.604C481.618 231.61 477.87 237.265 471.056 241.42C464.119 245.72 454.988 247.863 445.858 247.863ZM445.858 204.133C436.877 204.133 427.896 206.246 421.055 210.473C414.513 214.511 410.902 219.861 410.902 225.531C410.902 231.202 414.513 236.551 421.055 240.604C434.683 249.058 456.992 249.058 470.674 240.604C477.216 236.566 480.827 231.216 480.827 225.546C480.827 219.875 477.216 214.511 470.674 210.473C463.819 206.304 454.838 204.191 445.844 204.191L445.858 204.133Z" fill="#6826FF"/>
<path d="M397.001 199.235L264.809 117.605H185.984L185.889 117.547L136.119 86.8045V36.9375H136.937V86.2943L186.202 116.731H265.027L265.122 116.789L397.41 198.477L397.001 199.235Z" fill="#6826FF"/>
<path d="M412.824 189.468L278.547 106.541V57.3011L230.549 27.652L230.958 26.894L279.378 56.7909V106.046L413.233 188.71L412.824 189.468Z" fill="#6826FF"/>
<path d="M241.015 191.611C241.818 192.05 242.708 192.279 243.611 192.279C244.513 192.279 245.403 192.05 246.207 191.611C246.521 191.498 246.794 191.283 246.988 190.995C247.182 190.708 247.286 190.362 247.286 190.008C247.286 189.653 247.182 189.307 246.988 189.02C246.794 188.732 246.521 188.517 246.207 188.404C245.403 187.965 244.513 187.736 243.611 187.736C242.708 187.736 241.818 187.965 241.015 188.404C240.7 188.517 240.427 188.732 240.233 189.02C240.04 189.307 239.936 189.653 239.936 190.008C239.936 190.362 240.04 190.708 240.233 190.995C240.427 191.283 240.7 191.498 241.015 191.611Z" fill="#6826FF"/>
<path d="M133.938 39.0074C134.742 39.4463 135.632 39.6751 136.535 39.6751C137.437 39.6751 138.327 39.4463 139.131 39.0074C139.445 38.8948 139.718 38.6795 139.912 38.3917C140.106 38.104 140.21 37.7585 140.21 37.4039C140.21 37.0494 140.106 36.7039 139.912 36.4161C139.718 36.1284 139.445 35.913 139.131 35.8005C138.325 35.3694 137.436 35.145 136.535 35.145C135.633 35.145 134.744 35.3694 133.938 35.8005C133.624 35.913 133.351 36.1284 133.157 36.4161C132.964 36.7039 132.859 37.0494 132.859 37.4039C132.859 37.7585 132.964 38.104 133.157 38.3917C133.351 38.6795 133.624 38.8948 133.938 39.0074Z" fill="#6826FF"/>
<path d="M228.163 28.9347C228.969 29.3658 229.858 29.5902 230.759 29.5902C231.66 29.5902 232.549 29.3658 233.355 28.9347C233.67 28.8222 233.943 28.6068 234.137 28.3191C234.33 28.0313 234.434 27.6858 234.434 27.3313C234.434 26.9767 234.33 26.6312 234.137 26.3435C233.943 26.0557 233.67 25.8404 233.355 25.7278C232.551 25.2889 231.662 25.0601 230.759 25.0601C229.857 25.0601 228.967 25.2889 228.163 25.7278C227.849 25.8404 227.575 26.0557 227.382 26.3435C227.188 26.6312 227.084 26.9767 227.084 27.3313C227.084 27.6858 227.188 28.0313 227.382 28.3191C227.575 28.6068 227.849 28.8222 228.163 28.9347Z" fill="#6826FF"/>
<path d="M243.807 190.387L243.398 189.629L286.531 162.997H315.859L315.954 163.055L353.949 186.509H377.921V187.384H353.731L353.636 187.326L315.641 163.872H286.749L243.807 190.387Z" fill="#6826FF"/>
<path opacity="0.2" d="M445.775 288.853L542.93 228.855L445.789 168.857L348.635 228.855L445.775 288.853Z" fill="#03002D"/>
<path d="M445.79 289.348L445.586 289.232L347.818 228.855L348.432 228.476L445.79 168.361L445.995 168.478L543.762 228.855L543.149 229.234L445.79 289.348ZM349.467 228.855L445.79 288.401L542.113 228.913L445.79 169.425L349.467 228.855Z" fill="#6826FF"/>
<path opacity="0.2" d="M567.105 214.045L564.761 215.488L561.79 213.651L564.12 212.208L556.202 207.325L553.872 208.768L550.901 206.931L553.231 205.488L545.313 200.605L522.514 214.686L530.432 219.569L532.762 218.126L535.746 219.963L533.402 221.406L541.32 226.289L543.651 224.846L546.635 226.683L544.291 228.126L552.209 233.024L575.009 218.943L567.105 214.045Z" fill="#03002D"/>
<g opacity="0.15">
<path d="M587.575 283.765L570.336 273.124V280.689L587.575 291.345L604.829 280.689V273.124L587.575 283.765Z" fill="#6826FF"/>
<path d="M587.575 291.345L570.336 280.689V273.124L587.575 283.765V291.345Z" fill="#6826FF"/>
<path d="M604.829 280.689L587.576 291.345V283.765L604.829 273.124V280.689Z" fill="#6826FF"/>
<path d="M587.575 283.765L570.336 273.124L587.575 262.468L604.829 273.124L587.575 283.765Z" fill="#6826FF"/>
<path d="M587.575 283.765L570.336 273.124V274.042L587.575 284.698L604.829 274.042V273.124L587.575 283.765Z" fill="white"/>
<path opacity="0.6" d="M587.576 282.22L572.885 273.138L587.576 264.057L602.28 273.138L587.576 282.22Z" fill="url(#paint0_linear_1225_13696)"/>
<path d="M587.575 272.177L570.336 261.521V269.101L587.575 279.742L604.829 269.101V261.521L587.575 272.177Z" fill="#6826FF"/>
<path d="M587.575 279.742L570.336 269.101V261.521L587.575 272.177V279.742Z" fill="#6826FF"/>
<path d="M604.829 269.101L587.576 279.742V272.177L604.829 261.521V269.101Z" fill="#6826FF"/>
<path d="M587.575 272.176L570.336 261.521L587.575 250.865L604.829 261.521L587.575 272.176Z" fill="#6826FF"/>
<path d="M587.575 272.177L570.336 261.521V262.454L587.575 273.109L604.829 262.454V261.521L587.575 272.177Z" fill="white"/>
<path opacity="0.6" d="M587.576 270.587L572.885 261.506L587.576 252.425L602.28 261.506L587.576 270.587Z" fill="url(#paint1_linear_1225_13696)"/>
<path d="M587.575 260.544L570.336 249.889V257.469L587.575 268.124L604.829 257.469V249.889L587.575 260.544Z" fill="#6826FF"/>
<path d="M587.575 268.124L570.336 257.469V249.889L587.575 260.544V268.124Z" fill="#6826FF"/>
<path d="M604.829 257.469L587.576 268.124V260.544L604.829 249.889V257.469Z" fill="#6826FF"/>
<path d="M587.575 260.544L570.336 249.889L587.575 239.248L604.829 249.889L587.575 260.544Z" fill="#6826FF"/>
<path d="M587.575 260.544L570.336 249.889V250.822L587.575 261.477L604.829 250.822V249.889L587.575 260.544Z" fill="white"/>
</g>
<path opacity="0.2" d="M587.575 251.244L570.336 240.589L587.575 229.933L604.829 240.589L587.575 251.244Z" fill="#03002D"/>
<g style="mix-blend-mode:lighten">
<path d="M587.591 255.822L562.91 240.589L563.074 240.487L587.604 225.342L612.23 240.545L612.067 240.647L587.591 255.822ZM563.333 240.589L587.591 255.574L611.903 240.589L587.645 225.604L563.333 240.589Z" fill="#6826FF"/>
</g>
<path d="M587.575 227.528L570.336 216.873V224.452L587.575 235.093L604.829 224.452V216.873L587.575 227.528Z" fill="#6826FF"/>
<path d="M587.575 235.093L570.336 224.452V216.873L587.575 227.528V235.093Z" fill="#6826FF"/>
<path d="M604.829 224.452L587.576 235.093V227.528L604.829 216.873V224.452Z" fill="#6826FF"/>
<path d="M587.575 227.528L570.336 216.872L587.575 206.217L604.829 216.872L587.575 227.528Z" fill="#6826FF"/>
<path d="M587.575 227.528L570.336 216.873V217.805L587.575 228.461L604.829 217.805V216.873L587.575 227.528Z" fill="#D2BEFF"/>
<path opacity="0.6" d="M587.576 225.983L572.885 216.902L587.576 207.82L602.28 216.902L587.576 225.983Z" fill="url(#paint2_linear_1225_13696)"/>
<path d="M587.575 215.94L570.336 205.284V212.864L587.575 223.505L604.829 212.864V205.284L587.575 215.94Z" fill="#6826FF"/>
<path d="M587.575 223.505L570.336 212.864V205.284L587.575 215.94V223.505Z" fill="#6826FF"/>
<path d="M604.829 212.864L587.576 223.505V215.94L604.829 205.284V212.864Z" fill="#6826FF"/>
<path d="M587.575 215.94L570.336 205.284L587.575 194.628L604.829 205.284L587.575 215.94Z" fill="#6826FF"/>
<path d="M587.575 215.94L570.336 205.284V206.217L587.575 216.873L604.829 206.217V205.284L587.575 215.94Z" fill="#D2BEFF"/>
<path opacity="0.6" d="M587.576 214.351L572.885 205.269L587.576 196.188L602.28 205.269L587.576 214.351Z" fill="url(#paint3_linear_1225_13696)"/>
<path d="M587.575 204.307L570.336 193.652V201.217L587.575 211.873L604.829 201.217V193.652L587.575 204.307Z" fill="#6826FF"/>
<path d="M587.575 211.873L570.336 201.217V193.652L587.575 204.307V211.873Z" fill="#6826FF"/>
<path d="M604.829 201.217L587.576 211.873V204.307L604.829 193.652V201.217Z" fill="#6826FF"/>
<path d="M587.575 204.307L570.336 193.652L587.575 182.996L604.829 193.652L587.575 204.307Z" fill="#6826FF"/>
<path d="M587.575 204.307L570.336 193.652V194.585L587.575 205.24L604.829 194.585V193.652L587.575 204.307Z" fill="#D2BEFF"/>
<g opacity="0.15">
<path d="M265.573 290.092L248.32 279.451V287.016L265.573 297.672L282.827 287.016V279.451L265.573 290.092Z" fill="#6826FF"/>
<path d="M265.573 297.672L248.32 287.016V279.451L265.573 290.092V297.672Z" fill="#6826FF"/>
<path d="M282.827 287.016L265.574 297.672V290.092L282.827 279.451V287.016Z" fill="#6826FF"/>
<path d="M265.573 290.092L248.32 279.451L265.573 268.795L282.827 279.451L265.573 290.092Z" fill="#6826FF"/>
<path d="M265.573 290.092L248.32 279.451V280.369L265.573 291.025L282.827 280.369V279.451L265.573 290.092Z" fill="white"/>
<path opacity="0.6" d="M265.574 288.546L250.869 279.465L265.574 270.384L280.278 279.465L265.574 288.546Z" fill="url(#paint4_linear_1225_13696)"/>
<path d="M265.573 278.503L248.32 267.848V275.428L265.573 286.069L282.827 275.428V267.848L265.573 278.503Z" fill="#6826FF"/>
<path d="M265.573 286.069L248.32 275.428V267.848L265.573 278.503V286.069Z" fill="#6826FF"/>
<path d="M282.827 275.428L265.574 286.069V278.503L282.827 267.848V275.428Z" fill="#6826FF"/>
<path d="M265.573 278.503L248.32 267.847L265.573 257.192L282.827 267.847L265.573 278.503Z" fill="#6826FF"/>
<path d="M265.573 278.503L248.32 267.848V268.781L265.573 279.436L282.827 268.781V267.848L265.573 278.503Z" fill="white"/>
<path opacity="0.6" d="M265.574 276.914L250.869 267.833L265.574 258.751L280.278 267.833L265.574 276.914Z" fill="url(#paint5_linear_1225_13696)"/>
<path d="M265.573 266.871L248.32 256.23V263.795L265.573 274.451L282.827 263.795V256.23L265.573 266.871Z" fill="#6826FF"/>
<path d="M265.573 274.451L248.32 263.795V256.23L265.573 266.871V274.451Z" fill="#6826FF"/>
<path d="M282.827 263.795L265.574 274.451V266.871L282.827 256.23V263.795Z" fill="#6826FF"/>
<path d="M265.573 266.871L248.32 256.23L265.573 245.574L282.827 256.23L265.573 266.871Z" fill="#6826FF"/>
<path d="M265.573 266.871L248.32 256.23V257.148L265.573 267.804L282.827 257.148V256.23L265.573 266.871Z" fill="white"/>
</g>
<path opacity="0.2" d="M265.571 257.571L248.318 246.915L265.571 236.26L282.825 246.915L265.571 257.571Z" fill="#03002D"/>
<g style="mix-blend-mode:lighten">
<path d="M265.571 262.162L240.945 246.959L241.095 246.857L265.626 231.711L290.279 246.915L290.129 247.017L265.571 262.162ZM241.313 246.93L265.571 261.914L289.843 246.93L265.571 231.945L241.313 246.93Z" fill="#6826FF"/>
</g>
<path d="M265.571 233.854L248.318 223.199V230.779L265.571 241.434L282.825 230.779V223.199L265.571 233.854Z" fill="#6826FF"/>
<path d="M265.571 241.434L248.318 230.779V223.199L265.571 233.854V241.434Z" fill="#6826FF"/>
<path d="M282.825 230.779L265.572 241.434V233.854L282.825 223.199V230.779Z" fill="#6826FF"/>
<path d="M265.571 233.854L248.318 223.199L265.571 212.558L282.825 223.213L265.571 233.854Z" fill="#6826FF"/>
<path d="M265.571 233.854L248.318 223.199V224.132L265.571 234.787L282.825 224.132V223.199L265.571 233.854Z" fill="#D2BEFF"/>
<path opacity="0.6" d="M265.572 232.309L250.867 223.228L265.572 214.146L280.277 223.228L265.572 232.309Z" fill="url(#paint6_linear_1225_13696)"/>
<path d="M265.571 222.266L248.318 211.61V219.19L265.571 229.831L282.825 219.19V211.61L265.571 222.266Z" fill="#6826FF"/>
<path d="M265.571 229.831L248.318 219.19V211.61L265.571 222.266V229.831Z" fill="#6826FF"/>
<path d="M282.825 219.19L265.572 229.831V222.266L282.825 211.61V219.19Z" fill="#6826FF"/>
<path d="M265.571 222.266L248.318 211.61L265.571 200.955L282.825 211.61L265.571 222.266Z" fill="#6826FF"/>
<path d="M265.571 222.266L248.318 211.61V212.543L265.571 223.199L282.825 212.543V211.61L265.571 222.266Z" fill="#D2BEFF"/>
<path opacity="0.6" d="M265.572 220.677L250.867 211.596L265.572 202.515L280.277 211.596L265.572 220.677Z" fill="url(#paint7_linear_1225_13696)"/>
<path d="M265.571 210.634L248.318 199.978V207.543L265.571 218.199L282.825 207.543V199.978L265.571 210.634Z" fill="#6826FF"/>
<path d="M265.571 218.199L248.318 207.543V199.978L265.571 210.634V218.199Z" fill="#6826FF"/>
<path d="M282.825 207.543L265.572 218.199V210.634L282.825 199.978V207.543Z" fill="#6826FF"/>
<path d="M265.571 210.633L248.318 199.978L265.571 189.322L282.825 199.978L265.571 210.633Z" fill="#6826FF"/>
<path d="M265.571 210.634L248.318 199.978V200.911L265.571 211.567L282.825 200.911V199.978L265.571 210.634Z" fill="#D2BEFF"/>
<path opacity="0.2" d="M376.79 318.764L374.46 320.207L371.475 318.37L373.819 316.927L365.901 312.044L363.557 313.487L360.586 311.651L362.93 310.207L355.013 305.324L332.199 319.405L340.117 324.289L342.461 322.845L345.432 324.682L343.102 326.125L351.006 331.008L353.35 329.565L356.321 331.402L353.99 332.845L361.908 337.743L384.708 323.662L376.79 318.764Z" fill="#03002D"/>
<g opacity="0.15">
<path d="M396.155 389.359L378.902 378.704V386.269L396.155 396.925L413.409 386.269V378.704L396.155 389.359Z" fill="#6826FF"/>
<path d="M396.155 396.925L378.902 386.269V378.704L396.155 389.359V396.925Z" fill="#6826FF"/>
<path d="M413.409 386.269L396.156 396.925V389.359L413.409 378.704V386.269Z" fill="#6826FF"/>
<path d="M396.155 389.359L378.902 378.703L396.155 368.048L413.409 378.703L396.155 389.359Z" fill="#6826FF"/>
<path d="M396.155 389.359L378.902 378.704V379.622L396.155 390.278L413.409 379.622V378.704L396.155 389.359Z" fill="white"/>
<path opacity="0.6" d="M396.156 387.799L381.451 378.718L396.156 369.637L410.861 378.718L396.156 387.799Z" fill="url(#paint8_linear_1225_13696)"/>
<path d="M396.155 377.77L378.902 367.115V374.68L396.155 385.336L413.409 374.68V367.115L396.155 377.77Z" fill="#6826FF"/>
<path d="M396.155 385.336L378.902 374.68V367.115L396.155 377.77V385.336Z" fill="#6826FF"/>
<path d="M413.409 374.68L396.156 385.336V377.77L413.409 367.115V374.68Z" fill="#6826FF"/>
<path d="M396.155 377.771L378.902 367.115L396.155 356.459L413.409 367.115L396.155 377.771Z" fill="#6826FF"/>
<path d="M396.155 377.77L378.902 367.115V368.033L396.155 378.689L413.409 368.033V367.115L396.155 377.77Z" fill="white"/>
<path opacity="0.6" d="M396.156 376.167L381.451 367.086L396.156 358.004L410.861 367.086L396.156 376.167Z" fill="url(#paint9_linear_1225_13696)"/>
<path d="M396.155 366.138L378.902 355.483V363.048L396.155 373.704L413.409 363.048V355.483L396.155 366.138Z" fill="#6826FF"/>
<path d="M396.155 373.704L378.902 363.048V355.483L396.155 366.138V373.704Z" fill="#6826FF"/>
<path d="M413.409 363.048L396.156 373.704V366.138L413.409 355.483V363.048Z" fill="#6826FF"/>
<path d="M396.155 366.138L378.902 355.483L396.155 344.827L413.409 355.483L396.155 366.138Z" fill="#6826FF"/>
<path d="M396.155 366.138L378.902 355.483V356.401L396.155 367.057L413.409 356.401V355.483L396.155 366.138Z" fill="white"/>
</g>
<path opacity="0.2" d="M396.157 356.824L378.904 346.168L396.157 335.513L413.411 346.168L396.157 356.824Z" fill="#03002D"/>
<g style="mix-blend-mode:lighten">
<path d="M396.169 361.415L371.543 346.197L371.693 346.11L396.223 330.964L420.849 346.168L420.699 346.27L396.169 361.415ZM371.897 346.168L396.169 361.153L420.427 346.168L396.169 331.183L371.897 346.168Z" fill="#6826FF"/>
</g>
<path d="M396.157 333.122L378.904 322.466V330.032L396.157 340.687L413.411 330.032V322.466L396.157 333.122Z" fill="#6826FF"/>
<path d="M396.157 340.687L378.904 330.032V322.466L396.157 333.122V340.687Z" fill="#6826FF"/>
<path d="M413.409 330.032L396.156 340.687V333.122L413.409 322.466V330.032Z" fill="#6826FF"/>
<path d="M396.157 333.122L378.904 322.466L396.157 311.811L413.411 322.466L396.157 333.122Z" fill="#6826FF"/>
<path d="M396.157 333.122L378.904 322.466V323.385L396.157 334.04L413.411 323.385V322.466L396.157 333.122Z" fill="#D2BEFF"/>
<path opacity="0.6" d="M396.158 331.562L381.453 322.481L396.158 313.399L410.862 322.481L396.158 331.562Z" fill="url(#paint10_linear_1225_13696)"/>
<path d="M396.157 321.534L378.904 310.878V318.443L396.157 329.099L413.411 318.443V310.878L396.157 321.534Z" fill="#6826FF"/>
<path d="M396.157 329.099L378.904 318.443V310.878L396.157 321.534V329.099Z" fill="#6826FF"/>
<path d="M413.409 318.443L396.156 329.099V321.534L413.409 310.878V318.443Z" fill="#6826FF"/>
<path d="M396.157 321.533L378.904 310.878L396.157 300.222L413.411 310.878L396.157 321.533Z" fill="#6826FF"/>
<path d="M396.157 321.534L378.904 310.878V311.796L396.157 322.452L413.411 311.796V310.878L396.157 321.534Z" fill="#D2BEFF"/>
<path opacity="0.6" d="M396.158 319.93L381.453 310.849L396.158 301.768L410.862 310.849L396.158 319.93Z" fill="url(#paint11_linear_1225_13696)"/>
<path d="M396.157 309.901L378.904 299.246V306.811L396.157 317.467L413.411 306.811V299.246L396.157 309.901Z" fill="#6826FF"/>
<path d="M396.157 317.467L378.904 306.811V299.246L396.157 309.901V317.467Z" fill="#6826FF"/>
<path d="M413.409 306.811L396.156 317.467V309.901L413.409 299.246V306.811Z" fill="#6826FF"/>
<path d="M396.157 309.901L378.904 299.245L396.157 288.59L413.411 299.245L396.157 309.901Z" fill="#6826FF"/>
<path d="M396.157 309.901L378.904 299.246V300.164L396.157 310.82L413.411 300.164V299.246L396.157 309.901Z" fill="#D2BEFF"/>
<path opacity="0.2" d="M482.939 118.815L480.595 120.258L477.624 118.421L479.968 116.978L472.05 112.08L469.706 113.523L466.735 111.701L469.079 110.258L461.161 105.36L438.348 119.441L446.266 124.339L448.61 122.896L451.58 124.733L449.236 126.176L457.154 131.059L459.498 129.616L462.469 131.453L460.125 132.896L468.043 137.779L490.857 123.698L482.939 118.815Z" fill="#03002D"/>
<g opacity="0.15">
<path d="M503.081 190.547L485.842 179.892V187.457L503.081 198.113L520.334 187.457V179.892L503.081 190.547Z" fill="#6826FF"/>
<path d="M503.081 198.113L485.842 187.457V179.892L503.081 190.547V198.113Z" fill="#6826FF"/>
<path d="M520.335 187.457L503.082 198.113V190.547L520.335 179.892V187.457Z" fill="#6826FF"/>
<path d="M503.081 190.547L485.842 179.891L503.081 169.236L520.334 179.891L503.081 190.547Z" fill="#6826FF"/>
<path d="M503.081 190.547L485.842 179.892V180.81L503.081 191.466L520.334 180.81V179.892L503.081 190.547Z" fill="white"/>
<path opacity="0.6" d="M503.082 188.987L488.391 179.906L503.082 170.825L517.786 179.906L503.082 188.987Z" fill="url(#paint12_linear_1225_13696)"/>
<path d="M503.081 178.958L485.842 168.303V175.868L503.081 186.524L520.334 175.868V168.303L503.081 178.958Z" fill="#6826FF"/>
<path d="M503.081 186.524L485.842 175.868V168.303L503.081 178.958V186.524Z" fill="#6826FF"/>
<path d="M520.335 175.868L503.082 186.524V178.958L520.335 168.303V175.868Z" fill="#6826FF"/>
<path d="M503.081 178.959L485.842 168.303L503.081 157.647L520.334 168.303L503.081 178.959Z" fill="#6826FF"/>
<path d="M503.081 178.958L485.842 168.303V169.221L503.081 179.877L520.334 169.221V168.303L503.081 178.958Z" fill="white"/>
<path opacity="0.6" d="M503.082 177.355L488.391 168.274L503.082 159.192L517.786 168.274L503.082 177.355Z" fill="url(#paint13_linear_1225_13696)"/>
<path d="M503.081 167.312L485.842 156.671V164.236L503.081 174.892L520.334 164.236V156.671L503.081 167.312Z" fill="#6826FF"/>
<path d="M503.081 174.892L485.842 164.236V156.671L503.081 167.312V174.892Z" fill="#6826FF"/>
<path d="M520.335 164.236L503.082 174.892V167.312L520.335 156.671V164.236Z" fill="#6826FF"/>
<path d="M503.081 167.312L485.842 156.671L503.081 146.015L520.334 156.671L503.081 167.312Z" fill="#6826FF"/>
<path d="M503.081 167.312L485.842 156.671V157.589L503.081 168.245L520.334 157.589V156.671L503.081 167.312Z" fill="white"/>
</g>
<path opacity="0.2" d="M503.081 158.012L485.842 147.356L503.081 136.701L520.334 147.356L503.081 158.012Z" fill="#03002D"/>
<g style="mix-blend-mode:lighten">
<path d="M503.095 162.603L478.469 147.4L478.632 147.298L503.163 132.167L527.789 147.371L527.625 147.473L503.095 162.603ZM478.837 147.356L503.095 162.341L527.407 147.356L503.095 132.429L478.837 147.356Z" fill="#6826FF"/>
</g>
<path d="M503.081 134.31L485.842 123.654V131.22L503.081 141.875L520.334 131.22V123.654L503.081 134.31Z" fill="#6826FF"/>
<path d="M503.081 141.875L485.842 131.22V123.654L503.081 134.31V141.875Z" fill="#6826FF"/>
<path d="M520.335 131.22L503.082 141.875V134.31L520.335 123.654V131.22Z" fill="#6826FF"/>
<path d="M503.081 134.31L485.842 123.654L503.081 112.999L520.334 123.654L503.081 134.31Z" fill="#6826FF"/>
<path d="M503.081 134.31L485.842 123.654V124.573L503.081 135.228L520.334 124.573V123.654L503.081 134.31Z" fill="#D2BEFF"/>
<path opacity="0.6" d="M503.082 132.75L488.391 123.669L503.082 114.587L517.786 123.669L503.082 132.75Z" fill="url(#paint14_linear_1225_13696)"/>
<path d="M503.081 122.707L485.842 112.066V119.631L503.081 130.287L520.334 119.631V112.066L503.081 122.707Z" fill="#6826FF"/>
<path d="M503.081 130.287L485.842 119.631V112.066L503.081 122.707V130.287Z" fill="#6826FF"/>
<path d="M520.335 119.631L503.082 130.287V122.707L520.335 112.066V119.631Z" fill="#6826FF"/>
<path d="M503.081 122.707L485.842 112.066L503.081 101.41L520.334 112.066L503.081 122.707Z" fill="#6826FF"/>
<path d="M503.081 122.707L485.842 112.066V112.984L503.081 123.64L520.334 112.984V112.066L503.081 122.707Z" fill="#D2BEFF"/>
<path opacity="0.6" d="M503.082 121.118L488.391 112.037L503.082 102.956L517.786 112.037L503.082 121.118Z" fill="url(#paint15_linear_1225_13696)"/>
<path d="M503.081 111.075L485.842 100.419V107.999L503.081 118.654L520.334 107.999V100.419L503.081 111.075Z" fill="#6826FF"/>
<path d="M503.081 118.654L485.842 107.999V100.419L503.081 111.075V118.654Z" fill="#6826FF"/>
<path d="M520.335 107.999L503.082 118.654V111.075L520.335 100.419V107.999Z" fill="#6826FF"/>
<path d="M503.081 111.074L485.842 100.419L503.081 89.7778L520.334 100.419L503.081 111.074Z" fill="#6826FF"/>
<path d="M503.081 111.075L485.842 100.419V101.352L503.081 112.007L520.334 101.352V100.419L503.081 111.075Z" fill="#D2BEFF"/>
<path d="M442.205 220.648C440.251 220.943 438.275 221.036 436.304 220.925C433.428 220.706 425.524 221.581 425.401 225.006C425.279 228.432 429.04 233.913 434.123 235.283C439.207 236.653 445.952 235.735 449.319 236.26C452.685 236.784 455.247 233.038 454.157 228.971C453.066 224.904 442.205 220.648 442.205 220.648Z" fill="#160A5B"/>
<path d="M460.017 213.622C460.017 213.622 460.984 215.794 460.385 216.989C459.785 218.184 458.15 221.143 453.639 217.543C449.128 213.943 440.529 208.622 440.529 208.622C440.529 208.622 435.65 204.861 436.195 201.188C436.74 197.515 441.373 198.652 441.373 198.652L460.017 213.622Z" fill="#160A5B"/>
<path d="M433.633 158.464C433.633 158.464 433.851 181.961 437.34 191.407C440.924 201.115 440.924 218.345 441.592 221.741C442.259 225.138 444.726 230.327 449.06 231.945C453.393 233.563 454.361 230.094 454.266 227.951C454.17 225.808 453.175 222.31 453.298 220.05C453.44 218.606 453.696 217.178 454.061 215.779C454.061 215.779 458.981 218.097 460.017 213.68C459.853 213.01 459.735 212.328 459.662 211.64C459.662 210.955 461.025 194.876 461.325 192.952C461.504 187.053 461.13 181.149 460.208 175.329C459.158 170.183 460.208 159.674 460.208 159.674L446.484 155.957L433.633 158.464Z" fill="#24126A"/>
<path d="M460.207 175.271C459.157 170.125 460.207 159.615 460.207 159.615L459.008 159.294C458.871 160.752 458.013 169.979 459.008 174.702C459.92 180.513 460.281 186.408 460.084 192.296C459.852 194.22 458.367 210.269 458.394 210.954C458.466 211.638 458.584 212.315 458.749 212.981C457.699 217.354 452.793 215.08 452.793 215.08C452.422 216.472 452.162 217.896 452.016 219.336C451.894 221.595 452.889 225.167 452.97 227.237C453.052 229.306 452.112 232.79 447.764 231.231L447.383 231.041C447.913 231.384 448.475 231.667 449.059 231.887C453.42 233.461 454.36 230.035 454.265 227.893C454.17 225.75 453.175 222.251 453.297 219.992C453.443 218.479 453.708 216.982 454.088 215.517C454.088 215.517 458.98 218.039 460.016 213.622C459.852 212.952 459.734 212.27 459.662 211.581C459.662 210.896 461.025 194.818 461.324 192.894C461.504 186.994 461.129 181.09 460.207 175.271Z" fill="url(#paint16_linear_1225_13696)"/>
<path d="M456.038 160.84C455.825 163.133 455.21 165.364 454.225 167.414C454.225 167.414 453.462 179.848 451.922 186.072C451.922 186.072 452.93 199.191 453.816 203.404C454.702 207.616 454.061 215.794 454.061 215.794C454.494 216.011 454.953 216.163 455.424 216.246C456.242 216.377 457.278 200.343 456.215 197.383C455.152 194.424 454.975 182.107 455.67 178.434C456.365 174.76 456.855 164.382 457.578 162.618C457.791 162.13 457.85 161.581 457.744 161.055C457.638 160.528 457.374 160.053 456.992 159.703L456.038 160.84Z" fill="#160A5B"/>
<path d="M449.865 79.6909C448.624 80.5678 447.593 81.7429 446.852 83.1223C446.111 84.5016 445.682 86.0471 445.6 87.6352L448.53 87.2562C448.53 87.2562 448.08 81.411 449.865 79.6909Z" fill="#160A5B"/>
<path d="M445.639 164.731C454.838 166.102 460.099 162.02 460.099 162.02C460.208 160.562 460.303 159.615 460.303 159.615L446.58 155.898L433.688 158.463C433.688 158.463 433.687 163.055 434.083 169.002C436.318 169.527 438.989 163.478 438.989 163.478L445.258 164.644C445.258 164.644 436.413 163.39 445.639 164.731Z" fill="#160A5B"/>
<path d="M435.378 159.003C435.378 159.003 454.757 170.533 465.523 154.047C465.839 153.553 466.01 152.969 466.014 152.371L466.123 148.318C466.137 147.818 466.233 147.325 466.409 146.861C466.782 145.847 466.914 144.75 466.79 143.668C466.313 139.106 465.019 126.818 464.746 123.436C464.419 119.34 467.295 103.524 470.933 96.9936C474.572 90.4633 467.24 74.8662 467.24 74.8662C466.691 73.8091 465.842 72.9657 464.816 72.4575C463.789 71.9494 462.639 71.8026 461.53 72.0383C461.53 72.0383 465.06 75.1723 462.893 77.869C460.726 80.5657 454.43 82.4315 454.43 82.4315C454.43 82.4315 442.751 87.6645 438.335 95.0549C437.223 97.9583 436.503 101.016 436.195 104.136C435.678 109.369 435.255 122.138 434.914 123.902C434.574 125.666 433.047 137.91 433.075 138.479C433.102 139.047 435.378 159.003 435.378 159.003Z" fill="#6826FF"/>
<path d="M463.208 74.3122C463.365 73.946 463.453 73.5502 463.467 73.1475C463.481 72.7447 463.421 72.343 463.289 71.9653C462.708 71.8573 462.113 71.8573 461.531 71.9653C462.23 72.6214 462.799 73.4191 463.208 74.3122Z" fill="url(#paint17_linear_1225_13696)"/>
<path d="M441.278 161.583C441.278 161.583 455.342 127.459 455.601 114.85C455.86 102.708 437.012 137.969 437.012 137.969L435.377 159.018C437.268 160.06 439.243 160.919 441.278 161.583Z" fill="#24126A"/>
<path d="M466.287 143.333C466.109 143.796 466.012 144.29 466.001 144.791L465.892 148.814C465.886 149.401 465.72 149.973 465.415 150.461C454.69 166.772 435.433 155.373 435.433 155.373C435.433 155.373 433.757 141.117 433.239 136.555C433.116 137.633 433.035 138.406 433.048 138.537C433.048 139.12 435.392 158.945 435.392 158.945C435.392 158.945 454.771 170.475 465.538 153.988C465.854 153.494 466.025 152.911 466.028 152.312L466.137 148.26C466.151 147.76 466.248 147.266 466.423 146.802C466.797 145.789 466.928 144.691 466.805 143.61C466.805 143.143 466.696 142.56 466.628 141.934C466.565 142.412 466.451 142.882 466.287 143.333Z" fill="url(#paint18_linear_1225_13696)"/>
<path d="M470.797 93.9471C467.185 100.419 464.31 116.075 464.637 120.185C464.637 120.55 464.705 121.045 464.759 121.643C465.086 115.812 467.703 102.824 470.933 97.0373C471.897 94.8217 472.178 92.3362 471.737 89.9385C471.731 91.3363 471.408 92.7117 470.797 93.9471Z" fill="url(#paint19_linear_1225_13696)"/>
<path d="M438.008 119.311C438.65 116.565 439.106 113.774 439.371 110.958C439.78 106.119 441.593 98.2617 449.415 100.448C460.522 103.553 454.58 120.52 453.135 123.465C451.691 126.409 445.722 140.039 445.408 140.811C445.095 141.584 435.869 158.595 432.721 162.676C432.657 162.759 432.577 162.825 432.486 162.871C432.395 162.916 432.296 162.94 432.196 162.94C432.096 162.94 431.997 162.916 431.906 162.871C431.815 162.825 431.735 162.759 431.671 162.676C430.608 161.437 428.223 158.493 428.019 156.773C427.746 154.586 429.995 147.021 429.995 147.021C429.995 147.021 435.869 128.377 436.318 127.532C436.768 126.686 437 123.786 438.008 119.311Z" fill="#5D17FF"/>
<path d="M450.028 80.0843C449.803 79.4393 449.439 78.8603 448.965 78.3942C448.491 77.9281 447.922 77.5882 447.302 77.4022C445.285 76.9795 444.181 76.2506 444.031 75.4197C443.967 74.3803 443.807 73.3501 443.554 72.3441C443.221 70.9115 443.024 69.4462 442.968 67.971C442.968 67.971 441.483 67.2568 441.456 66.5134C441.428 65.77 442.423 63.2628 442.355 63.0441C441.927 62.0811 441.73 61.0189 441.783 59.9538C441.967 58.4383 442.372 56.9629 442.982 55.5808C443.691 54.1231 448.583 45.4937 459.336 51.2078C470.238 57.0385 461.08 66.3384 461.775 73.0729C461.775 73.0729 462.688 74.5306 460.698 76.79C458.709 79.0494 453.217 79.0348 450.028 80.0843Z" fill="url(#paint20_linear_1225_13696)"/>
<path d="M460.63 76.8191C462.62 74.6034 461.707 73.102 461.707 73.102C461.632 72.1248 461.701 71.1412 461.911 70.1867L457.427 70.6677C457.427 70.6677 451.322 63.7875 451.554 67.1693C451.785 70.5511 450.191 71.0176 450.191 71.0176L451.404 73C451.717 73.5102 451.404 74.0495 451.159 74.5451C449.06 77.8395 444.59 76.3381 444.59 76.3381C445.404 76.9328 446.338 77.3125 447.315 77.4459C447.935 77.6319 448.505 77.9718 448.978 78.4379C449.452 78.904 449.816 79.483 450.041 80.128C453.216 79.0348 458.627 79.0348 460.63 76.8191Z" fill="#24126A"/>
<path d="M442.722 52.1119C442.722 52.1119 441.768 54.4733 442.954 55.6103C444.14 56.7473 445.189 57.8405 445.189 57.8405L444.957 61.0037C444.927 61.449 445.017 61.8942 445.216 62.2864L446.579 65.0706C446.875 65.6028 447.022 66.2152 447.001 66.8344L446.92 68.1171C446.906 68.2967 446.954 68.4755 447.054 68.6203C447.154 68.7651 447.3 68.866 447.465 68.9043L447.887 69.0063C447.974 69.0231 448.063 69.0212 448.149 69.0009C448.236 68.9806 448.317 68.9423 448.389 68.888C448.462 68.8338 448.523 68.7648 448.57 68.6851C448.617 68.6053 448.649 68.5163 448.664 68.4232L448.964 66.6595C448.964 66.6595 449.891 65.3038 451.608 67.1842L453.202 68.0734C453.428 68.1975 453.627 68.3704 453.786 68.5813C453.946 68.7921 454.062 69.0361 454.129 69.2979C454.497 70.7555 455.301 73.5251 456.023 74.0499C456.977 74.7641 460.997 72.9712 461.57 72.0674C462.142 71.1637 463.859 64.9248 464.854 61.9949C465.849 59.065 465.822 51.6892 457.686 49.0508C449.55 46.4124 444.044 49.5901 442.722 52.1119Z" fill="#6826FF"/>
<path opacity="0.3" d="M461.529 72.0091C462.115 71.0908 463.818 64.8665 464.813 61.9366C462.451 63.2197 459.877 63.9924 457.236 64.2105C453.011 64.4875 445.134 58.6714 445.134 58.6714L444.957 61.0037C444.927 61.4489 445.017 61.8941 445.216 62.2864L446.579 65.0706C446.875 65.6028 447.022 66.2152 447.001 66.8344L446.919 68.1171C446.906 68.2967 446.953 68.4755 447.054 68.6203C447.154 68.7651 447.3 68.866 447.464 68.9042L447.887 69.0063C447.974 69.023 448.063 69.0212 448.149 69.0009C448.235 68.9806 448.317 68.9422 448.389 68.888C448.461 68.8338 448.523 68.7648 448.57 68.685C448.617 68.6052 448.649 68.5163 448.664 68.4232L448.964 66.6594C448.964 66.6594 449.89 65.3038 451.607 67.1842L453.924 68.4669C453.924 68.4669 455.055 73.3356 456.023 74.0498C456.99 74.7641 460.956 72.9129 461.529 72.0091Z" fill="#160A5B"/>
<path d="M461.679 72.3149C461.679 72.3149 464.8 74.8076 463.042 77.7229C461.284 80.6383 449.033 85.0113 448.392 85.7838C448.392 85.7838 448.242 81.1047 449.918 79.6908C449.918 79.6908 459.077 78.6704 460.63 76.309C461.062 75.7624 461.379 75.1229 461.56 74.4339C461.741 73.7448 461.782 73.0222 461.679 72.3149Z" fill="#F0F6FF"/>
<path d="M463.275 82.3877C463.275 82.3877 457.823 85.1573 455.098 86.3817C452.372 87.6062 449.469 89.2971 449.469 89.2971L448.556 88.1163L447.194 90.8422C444.954 92.0198 442.843 93.457 440.897 95.1278C439.308 96.7121 437.964 98.5573 436.918 100.594C436.918 100.594 442.519 93.8158 446.648 92.0666L447.766 91.571L448.529 89.3845L449.429 90.609C449.429 90.609 461.544 84.1806 463.275 82.3877Z" fill="#24126A"/>
<path d="M442.669 182.996C442.563 182.461 442.338 181.961 442.015 181.538L421.109 157.458C420.564 156.831 419.965 157.195 419.747 158.274L415.072 183.054C414.963 183.624 414.96 184.211 415.066 184.782C415.171 185.353 415.382 185.895 415.685 186.378L433.375 207.747L432.148 215.225L438.158 212.82C438.334 212.674 438.477 212.489 438.579 212.278C438.68 212.066 438.736 211.833 438.744 211.596L442.764 184.906C442.848 184.268 442.816 183.62 442.669 182.996Z" fill="url(#paint21_linear_1225_13696)"/>
<path d="M414.867 159.222L420.318 157.225H420.496C420.613 157.212 420.731 157.233 420.838 157.284C420.946 157.335 421.039 157.415 421.109 157.516L441.987 181.597C442.311 182.02 442.535 182.52 442.641 183.055L441.796 183.419L436.985 185.445L418.71 163.872L414.867 159.222Z" fill="#453C9E"/>
<path d="M409.935 188.565L431.372 214.905C431.972 215.634 432.626 215.211 432.816 213.943L437.055 187.049C437.236 185.884 436.982 184.69 436.346 183.725L415.659 159.499C415.114 158.857 414.514 159.236 414.296 160.315L409.403 185.227C409.28 185.793 409.264 186.38 409.355 186.953C409.446 187.526 409.643 188.074 409.935 188.565Z" fill="#24126A"/>
<path d="M435.854 212.689L439.943 185.882C440.035 185.304 440.017 184.712 439.891 184.141C439.764 183.57 439.532 183.032 439.207 182.559L418.383 158.405C418.256 158.24 418.077 158.131 417.879 158.099C418.009 158.068 418.144 158.079 418.268 158.131C418.392 158.183 418.498 158.274 418.574 158.391L439.411 182.53C440.052 183.493 440.311 184.687 440.133 185.853L436.1 212.602C435.977 213.462 435.636 213.972 435.241 213.943C435.514 213.884 435.745 213.403 435.854 212.689Z" fill="#160A5B"/>
<path d="M430.431 172.151L431.658 171.612C431.895 171.513 432.157 171.513 432.394 171.612H432.489C432.612 171.612 432.653 171.801 432.626 172.006V172.253L429.164 173.711V173.463C429.212 173.243 429.316 173.041 429.464 172.88L429.587 172.749C429.827 172.49 430.115 172.287 430.431 172.151Z" fill="#160A5B"/>
<path d="M430.595 175.46L429.123 173.74L432.585 171.67L434.043 173.346L430.595 175.46Z" fill="#160A5B"/>
<path d="M431.902 173.857L433.129 173.317C433.37 173.218 433.637 173.218 433.878 173.317H433.974C434.083 173.317 434.137 173.521 434.11 173.725V173.959L430.648 175.46V175.212C430.696 174.992 430.8 174.79 430.948 174.629L431.071 174.498C431.308 174.23 431.59 174.012 431.902 173.857Z" fill="url(#paint22_linear_1225_13696)"/>
<path d="M432.556 174.6L432.733 173.492L432.624 173.536L432.447 174.644L432.556 174.6Z" fill="#722318"/>
<path d="M432.733 173.492L431.207 171.801L431.125 171.845L432.624 173.536L432.733 173.492Z" fill="#722318"/>
<path d="M423.834 164.498L425.047 163.974C425.285 163.882 425.545 163.882 425.783 163.974H425.878C425.987 163.974 426.042 164.163 426.001 164.367V164.601L422.566 166.058V165.81C422.617 165.596 422.721 165.399 422.866 165.242L422.989 165.111C423.233 164.853 423.52 164.646 423.834 164.498Z" fill="#160A5B"/>
<path d="M423.956 167.734L422.512 166.058L425.96 164.032L427.391 165.679L423.956 167.734Z" fill="#160A5B"/>
<path d="M425.265 166.174L426.478 165.65C426.72 165.551 426.987 165.551 427.228 165.65H427.31C427.432 165.65 427.473 165.839 427.446 166.043V166.277L423.998 167.734V167.501C424.046 167.281 424.15 167.079 424.298 166.918L424.421 166.801C424.661 166.535 424.948 166.322 425.265 166.174Z" fill="url(#paint23_linear_1225_13696)"/>
<path d="M425.906 166.889L426.097 165.81L425.988 165.854L425.797 166.932L425.906 166.889Z" fill="#722318"/>
<path d="M426.096 165.81L424.597 164.163L424.516 164.192L425.987 165.854L426.096 165.81Z" fill="#722318"/>
<path d="M433.77 168.303L432.993 172.938L432.012 171.787L432.761 167.283C432.81 166.936 432.792 166.583 432.708 166.244C432.623 165.905 432.475 165.589 432.271 165.315L428.032 160.461C427.651 160.038 427.256 160.198 427.147 160.84L426.356 165.213L425.389 164.09L426.206 159.571C426.452 158.114 427.324 157.793 428.155 158.741L432.666 163.886C433.124 164.502 433.458 165.212 433.648 165.972C433.838 166.732 433.879 167.525 433.77 168.303Z" fill="#453C9E"/>
<path d="M426.465 159.979H428.359L433.361 166.35V169.95L433.02 172.865L431.753 173.434L431.984 169.688L432.107 167.137L431.126 165.169C431.126 165.169 429.218 163.07 429.204 163.011C429.19 162.953 426.465 159.979 426.465 159.979Z" fill="#453C9E"/>
<path d="M425.088 165.81L426.355 165.271L426.928 162.02L425.769 161.991L425.415 162.02L425.088 165.81Z" fill="#453C9E"/>
<path d="M425.676 158.886L427.039 158.303L426.63 159.061L426.18 159.178L425.676 158.886Z" fill="#453C9E"/>
<path d="M432.502 168.871L431.726 173.521L430.731 172.37L431.494 167.866C431.542 167.517 431.524 167.161 431.439 166.82C431.355 166.479 431.207 166.161 431.003 165.883L426.779 161.029C426.397 160.606 426.002 160.767 425.879 161.408L425.089 165.781L424.121 164.659L424.939 160.125C425.198 158.668 426.07 158.332 426.901 159.28L431.412 164.455C431.871 165.069 432.205 165.779 432.393 166.54C432.58 167.3 432.618 168.095 432.502 168.871Z" fill="#160A5B"/>
<path d="M428.292 156.583C427.791 158.41 427.458 160.285 427.297 162.18C427.805 163.89 428.869 165.348 430.295 166.291C431.413 166.83 431.058 165.212 431.399 164.265C431.645 163.254 431.796 162.218 431.849 161.175L428.292 156.583Z" fill="#453C9E"/>
<path d="M431.848 161.175L428.291 156.583C428.291 156.583 428.06 157.487 427.814 158.595C428.547 160.672 429.843 162.469 431.535 163.755C431.696 162.904 431.801 162.041 431.848 161.175Z" fill="#24126A"/>
<path d="M427.924 156.889C427.924 156.889 428.919 161.918 432.326 162.72L431.563 157.253L428.632 155.971C428.368 156.251 428.131 156.558 427.924 156.889Z" fill="#6826FF"/>
<path d="M454.089 103.655C456.542 114.471 447.547 130.185 446.075 134.937C444.604 139.689 430.785 161.583 430.771 161.583L430.635 161.802C430.873 162.048 431.124 162.282 431.384 162.502C431.551 162.619 431.729 162.717 431.916 162.793C432.045 162.837 432.185 162.837 432.314 162.793C432.443 162.748 432.557 162.662 432.638 162.545C435.813 158.522 445.026 141.467 445.326 140.68C445.626 139.893 451.581 126.308 453.053 123.334C454.225 121.089 458.3 109.617 454.089 103.655Z" fill="url(#paint24_linear_1225_13696)"/>
<path d="M424.108 176.772L426.888 180.168L422.213 185.168L424.653 188.171L418.07 192.719L421.178 187.223L420.006 185.839L424.108 176.772Z" fill="#6826FF"/>
<path opacity="0.2" d="M299.003 53.715L183.341 123.159C180.18 125.068 180.534 128.45 184.132 130.738L239.503 165.897C243.1 168.171 248.579 168.492 251.768 166.597L367.443 97.139C370.604 95.2441 370.25 91.8477 366.652 89.5592L311.281 54.4147C307.643 52.097 302.164 51.7763 299.003 53.715Z" fill="#03002D"/>
<path opacity="0.2" d="M414.376 86.2652L299.505 157.21C296.357 159.149 293.809 157.094 293.809 152.618V83.7288C293.809 79.2538 296.357 74.0499 299.505 72.0674L414.376 1.23912C417.524 -0.699589 420.059 1.35573 420.059 5.84537V74.7204C420.059 79.1226 417.524 84.3265 414.376 86.2652Z" fill="#6826FF"/>
<path d="M297.243 158.376C296.661 158.379 296.087 158.218 295.581 157.91C294.218 157.05 293.4 155.125 293.4 152.604V83.7287C293.4 79.1224 296.044 73.7436 299.288 71.732L414.172 0.787099C414.767 0.353414 415.458 0.0953661 416.176 0.0390561C416.894 -0.0172538 417.613 0.130168 418.261 0.466409C419.025 1.07072 419.628 1.87831 420.011 2.80906C420.393 3.73981 420.542 4.76135 420.441 5.77234V74.6474C420.441 79.2536 417.797 84.6324 414.54 86.644L299.669 157.589C298.937 158.07 298.102 158.341 297.243 158.376ZM416.639 0.947444C415.912 0.972877 415.203 1.19882 414.581 1.60339L299.71 72.5483C296.685 74.4141 294.259 79.4577 294.259 83.787V152.662C294.164 153.515 294.276 154.381 294.584 155.174C294.892 155.968 295.385 156.664 296.017 157.195C296.542 157.468 297.126 157.583 297.708 157.526C298.289 157.47 298.845 157.245 299.315 156.875L414.199 85.9298C417.225 84.0639 419.651 79.035 419.651 74.7057V5.77234C419.743 4.91911 419.63 4.05486 419.322 3.2615C419.014 2.46815 418.522 1.77198 417.893 1.23897C417.51 1.00877 417.078 0.888262 416.639 0.889135V0.947444Z" fill="#6826FF"/>
<path d="M430.649 9.98496L427.365 7.46318C426.758 7.02205 426.038 6.79474 425.305 6.81304C424.572 6.83133 423.863 7.09432 423.276 7.56522L308.46 78.4956C305.312 80.4343 302.763 85.6382 302.763 90.157V159.032C302.677 159.932 302.798 160.842 303.117 161.68C303.435 162.519 303.941 163.261 304.589 163.842L307.996 166.452L308.187 163.784L308.473 163.624L423.344 92.6787C426.492 90.74 429.027 85.5507 429.027 81.0174V12.0986C429.031 11.4916 428.977 10.8859 428.864 10.2911L430.649 9.98496Z" fill="url(#paint25_linear_1225_13696)"/>
<path d="M430.649 9.98496L427.365 7.46318C426.758 7.02205 426.038 6.79474 425.305 6.81304C424.572 6.83133 423.863 7.09432 423.276 7.56522L308.46 78.4956C305.312 80.4343 302.763 85.6382 302.763 90.157V159.032C302.677 159.932 302.798 160.842 303.117 161.68C303.435 162.519 303.941 163.261 304.589 163.842L307.996 166.452L308.187 163.784L308.473 163.624L423.344 92.6787C426.492 90.74 429.027 85.5507 429.027 81.0174V12.0986C429.031 11.4916 428.977 10.8859 428.864 10.2911L430.649 9.98496Z" fill="url(#paint26_linear_1225_13696)"/>
<path d="M303.062 87.3144L333.385 106.045L341.03 101.323L306.633 80.0552C304.86 82.0921 303.628 84.598 303.062 87.3144Z" fill="#5C66D9"/>
<path d="M426.765 95.2151L311.88 166.16C308.746 168.099 306.197 166.043 306.197 161.568V92.6933C306.197 88.2183 308.746 83.0144 311.88 81.0319L426.765 10.087C429.899 8.14831 432.448 10.2036 432.448 14.6787V83.5975C432.448 88.0725 429.899 93.2764 426.765 95.2151Z" fill="url(#paint27_linear_1225_13696)"/>
<path d="M426.765 95.2151L311.88 166.16C308.746 168.099 306.197 166.043 306.197 161.568V92.6933C306.197 88.2183 308.746 83.0144 311.88 81.0319L426.765 10.087C429.899 8.14831 432.448 10.2036 432.448 14.6787V83.5975C432.448 88.0725 429.899 93.2764 426.765 95.2151Z" fill="url(#paint28_linear_1225_13696)"/>
<path d="M426.765 95.2151L311.88 166.16C308.746 168.099 306.197 166.043 306.197 161.568V92.6933C306.197 88.2183 308.746 83.0144 311.88 81.0319L426.765 10.087C429.899 8.14831 432.448 10.2036 432.448 14.6787V83.5975C432.448 88.0725 429.899 93.2764 426.765 95.2151Z" fill="url(#paint29_linear_1225_13696)"/>
<path d="M426.765 95.2151L311.88 166.16C308.746 168.099 306.197 166.043 306.197 161.568V92.6933C306.197 88.2183 308.746 83.0144 311.88 81.0319L426.765 10.087C429.899 8.14831 432.448 10.2036 432.448 14.6787V83.5975C432.448 88.0725 429.899 93.2764 426.765 95.2151Z" fill="url(#paint30_linear_1225_13696)"/>
<path d="M416.135 51.8493L322.374 109.69C321.652 110.142 321.011 110.375 320.616 109.69C320.581 109.551 320.581 109.406 320.616 109.267V94.0635C320.624 93.4614 320.764 92.8696 321.024 92.3356C321.285 91.8016 321.658 91.34 322.115 90.9878L416.612 32.6809C416.68 32.6809 416.748 32.5643 416.83 32.5789C417.539 32.6955 417.566 33.3952 417.566 34.4739L417.784 49.0506C417.746 49.6264 417.576 50.1833 417.288 50.6716C417 51.1599 416.604 51.5645 416.135 51.8493Z" fill="#2B237C"/>
<path d="M416.326 84.9242L322.415 142.823C321.693 143.275 320.753 143.741 320.617 142.823C320.602 142.682 320.602 142.541 320.617 142.4V127.226C320.629 126.625 320.771 126.034 321.031 125.501C321.291 124.968 321.662 124.506 322.116 124.15L416.613 65.8432C416.678 65.7901 416.752 65.7505 416.831 65.7266C417.553 65.4205 417.744 66.4263 417.744 67.505V81.9068C417.748 82.4939 417.622 83.0737 417.375 83.5984C417.129 84.123 416.769 84.5775 416.326 84.9242Z" fill="#2B237C"/>
<path d="M416.788 32.535C416.796 32.6709 416.796 32.8072 416.788 32.9431V48.1613C416.781 48.7616 416.641 49.3517 416.381 49.8835C416.12 50.4154 415.746 50.8741 415.289 51.2224L320.806 109.529C320.737 109.573 320.664 109.607 320.588 109.631C320.724 110.52 321.324 110.885 322.046 110.433L416.543 52.1261C416.998 51.7754 417.37 51.3162 417.63 50.7849C417.891 50.2535 418.032 49.6647 418.042 49.065V33.8469C418.069 32.7828 417.511 32.2435 416.788 32.535Z" fill="white"/>
<path d="M416.788 65.6975C416.796 65.8383 416.796 65.9794 416.788 66.1202V81.3238C416.781 81.9262 416.641 82.5183 416.381 83.0525C416.121 83.5867 415.747 84.0481 415.289 84.3994L320.806 142.706L320.588 142.808C320.724 143.698 321.324 144.047 322.046 143.61L416.543 85.3032C416.998 84.9494 417.37 84.4875 417.631 83.9539C417.891 83.4202 418.032 82.8292 418.042 82.2275V67.024C418.069 65.9453 417.511 65.3768 416.788 65.6975Z" fill="white"/>
<path d="M346.401 90.7985L344.247 90.5507L345.896 86.6296L343.43 86.9794L344.275 83.7288L346.523 83.8746L346.237 80.726L348.963 79.0205L348.663 82.5481L350.911 79.6327L351.729 81.8921L349.235 84.618L350.898 86.4546L348.704 89.37L347.545 87.0377L346.401 90.7985Z" fill="#BB9DFF"/>
<path d="M357.262 84.0929L355.109 83.8451L356.758 79.924L354.291 80.2738L355.136 77.0232L357.385 77.169L357.098 74.0204L359.824 72.3149L359.511 75.8425L361.773 72.9272L362.59 75.1866L360.083 77.9124L361.759 79.7491L359.565 82.6644L358.407 80.3321L357.262 84.0929Z" fill="#BB9DFF"/>
<path d="M368.123 77.3879L365.97 77.14L367.619 73.2189L365.152 73.5688L365.997 70.3181L368.246 70.4639L367.96 67.3153L370.685 65.6099L370.372 69.1374L372.634 66.2221L373.452 68.4815L370.985 71.2073L372.661 73.0586L370.467 75.9739L369.309 73.6416L368.123 77.3879Z" fill="#BB9DFF"/>
<path d="M378.985 70.6823L376.831 70.4345L378.48 66.5134L376.014 66.8632L376.845 63.6126L379.107 63.7584L378.821 60.6098L381.547 58.9043L381.233 62.4319L383.495 59.5165L384.313 61.7759L381.806 64.4872L383.482 66.3384L381.288 69.2538L380.129 66.9215L378.985 70.6823Z" fill="#BB9DFF"/>
<path d="M389.846 63.9191L387.693 63.6713L389.342 59.7502L386.875 60.1L387.706 56.8494L389.969 56.9952L389.682 53.8466L392.408 52.1411L392.108 55.6687L394.37 52.7533L395.188 54.9982L392.681 57.724L394.357 59.5752L392.149 62.4906L391.004 60.1583L389.846 63.9191Z" fill="#BB9DFF"/>
<path d="M346.401 123.975L344.247 123.683L345.896 119.762L343.43 120.098L344.275 116.847L346.523 116.993L346.237 113.844L348.963 112.139L348.663 115.666L350.911 112.751L351.729 115.01L349.235 117.736L350.898 119.573L348.704 122.488L347.545 120.141L346.401 123.975Z" fill="#BB9DFF"/>
<path d="M357.262 117.27L355.109 117.022L356.758 113.101L354.332 113.48L355.177 110.229L357.426 110.375L357.139 107.226L359.865 105.521L359.552 109.049L361.814 106.133L362.632 108.393L360.124 111.118L361.8 112.955L359.606 115.87L358.42 113.48L357.262 117.27Z" fill="#BB9DFF"/>
<path d="M368.123 110.565L365.97 110.317L367.619 106.41L365.152 106.746L365.997 103.495L368.246 103.641L367.96 100.492L370.685 98.7866L370.372 102.314L372.634 99.3988L373.452 101.658L370.944 104.384L372.621 106.221L370.426 109.136L369.268 106.804L368.123 110.565Z" fill="#BB9DFF"/>
<path d="M378.985 103.844L376.831 103.597L378.48 99.6755L376.014 100.025L376.845 96.7747L379.107 96.9205L378.821 93.7719L381.547 92.0664L381.233 95.594L383.495 92.6786L384.313 94.938L381.806 97.6639L383.482 99.5005L381.288 102.416L380.129 100.084L378.985 103.844Z" fill="#BB9DFF"/>
<path d="M389.846 97.1393L387.693 96.8915L389.342 92.9704L386.875 93.3202L387.706 90.0696L389.969 90.2154L389.682 87.0668L392.408 85.3613L392.108 88.8889L394.37 85.9735L395.188 88.2329L392.681 90.9588L394.357 92.7955L392.149 95.7108L391.004 93.3785L389.846 97.1393Z" fill="#BB9DFF"/>
<path opacity="0.2" d="M241.601 217.966L239.27 219.409L236.299 217.572L238.63 216.129L230.712 211.246L228.382 212.689L225.411 210.852L227.741 209.409L219.823 204.511L197.023 218.592L204.941 223.49L207.272 222.047L210.243 223.884L207.912 225.327L215.83 230.21L218.161 228.767L221.131 230.604L218.801 232.047L226.719 236.93L249.519 222.849L241.601 217.966Z" fill="#03002D"/>
<defs>
<linearGradient id="paint0_linear_1225_13696" x1="602.28" y1="273.139" x2="572.885" y2="273.139" gradientUnits="userSpaceOnUse">
<stop stop-color="#9D73FE"/>
<stop offset="1" stop-color="#6826FF"/>
</linearGradient>
<linearGradient id="paint1_linear_1225_13696" x1="602.28" y1="261.506" x2="572.885" y2="261.506" gradientUnits="userSpaceOnUse">
<stop stop-color="#9D73FE"/>
<stop offset="1" stop-color="#6826FF"/>
</linearGradient>
<linearGradient id="paint2_linear_1225_13696" x1="602.28" y1="216.902" x2="572.885" y2="216.902" gradientUnits="userSpaceOnUse">
<stop stop-color="#9D73FE"/>
<stop offset="1" stop-color="#6826FF"/>
</linearGradient>
<linearGradient id="paint3_linear_1225_13696" x1="602.28" y1="205.269" x2="572.885" y2="205.269" gradientUnits="userSpaceOnUse">
<stop stop-color="#9D73FE"/>
<stop offset="1" stop-color="#6826FF"/>
</linearGradient>
<linearGradient id="paint4_linear_1225_13696" x1="280.278" y1="279.465" x2="250.869" y2="279.465" gradientUnits="userSpaceOnUse">
<stop stop-color="#9D73FE"/>
<stop offset="1" stop-color="#6826FF"/>
</linearGradient>
<linearGradient id="paint5_linear_1225_13696" x1="280.278" y1="267.833" x2="250.869" y2="267.833" gradientUnits="userSpaceOnUse">
<stop stop-color="#9D73FE"/>
<stop offset="1" stop-color="#6826FF"/>
</linearGradient>
<linearGradient id="paint6_linear_1225_13696" x1="280.276" y1="223.228" x2="250.867" y2="223.228" gradientUnits="userSpaceOnUse">
<stop stop-color="#9D73FE"/>
<stop offset="1" stop-color="#6826FF"/>
</linearGradient>
<linearGradient id="paint7_linear_1225_13696" x1="280.276" y1="211.596" x2="250.867" y2="211.596" gradientUnits="userSpaceOnUse">
<stop stop-color="#9D73FE"/>
<stop offset="1" stop-color="#6826FF"/>
</linearGradient>
<linearGradient id="paint8_linear_1225_13696" x1="410.86" y1="378.718" x2="381.451" y2="378.718" gradientUnits="userSpaceOnUse">
<stop stop-color="#9D73FE"/>
<stop offset="1" stop-color="#6826FF"/>
</linearGradient>
<linearGradient id="paint9_linear_1225_13696" x1="410.86" y1="367.086" x2="381.451" y2="367.086" gradientUnits="userSpaceOnUse">
<stop stop-color="#9D73FE"/>
<stop offset="1" stop-color="#6826FF"/>
</linearGradient>
<linearGradient id="paint10_linear_1225_13696" x1="410.862" y1="322.481" x2="381.453" y2="322.481" gradientUnits="userSpaceOnUse">
<stop stop-color="#9D73FE"/>
<stop offset="1" stop-color="#6826FF"/>
</linearGradient>
<linearGradient id="paint11_linear_1225_13696" x1="410.862" y1="310.849" x2="381.453" y2="310.849" gradientUnits="userSpaceOnUse">
<stop stop-color="#9D73FE"/>
<stop offset="1" stop-color="#6826FF"/>
</linearGradient>
<linearGradient id="paint12_linear_1225_13696" x1="517.786" y1="179.906" x2="488.39" y2="179.906" gradientUnits="userSpaceOnUse">
<stop stop-color="#9D73FE"/>
<stop offset="1" stop-color="#6826FF"/>
</linearGradient>
<linearGradient id="paint13_linear_1225_13696" x1="517.786" y1="168.274" x2="488.39" y2="168.274" gradientUnits="userSpaceOnUse">
<stop stop-color="#9D73FE"/>
<stop offset="1" stop-color="#6826FF"/>
</linearGradient>
<linearGradient id="paint14_linear_1225_13696" x1="517.786" y1="123.669" x2="488.39" y2="123.669" gradientUnits="userSpaceOnUse">
<stop stop-color="#9D73FE"/>
<stop offset="1" stop-color="#6826FF"/>
</linearGradient>
<linearGradient id="paint15_linear_1225_13696" x1="517.786" y1="112.037" x2="488.39" y2="112.037" gradientUnits="userSpaceOnUse">
<stop stop-color="#9D73FE"/>
<stop offset="1" stop-color="#6826FF"/>
</linearGradient>
<linearGradient id="paint16_linear_1225_13696" x1="461.368" y1="195.791" x2="447.383" y2="195.791" gradientUnits="userSpaceOnUse">
<stop stop-color="#9D73FE"/>
<stop offset="1" stop-color="#6826FF"/>
</linearGradient>
<linearGradient id="paint17_linear_1225_13696" x1="463.469" y1="73.0982" x2="461.531" y2="73.0982" gradientUnits="userSpaceOnUse">
<stop stop-color="#9D73FE"/>
<stop offset="1" stop-color="#6826FF"/>
</linearGradient>
<linearGradient id="paint18_linear_1225_13696" x1="466.849" y1="149.71" x2="433.047" y2="149.71" gradientUnits="userSpaceOnUse">
<stop stop-color="#9D73FE"/>
<stop offset="1" stop-color="#6826FF"/>
</linearGradient>
<linearGradient id="paint19_linear_1225_13696" x1="471.94" y1="105.791" x2="464.611" y2="105.791" gradientUnits="userSpaceOnUse">
<stop stop-color="#9D73FE"/>
<stop offset="1" stop-color="#6826FF"/>
</linearGradient>
<linearGradient id="paint20_linear_1225_13696" x1="464.715" y1="64.6795" x2="441.455" y2="64.6795" gradientUnits="userSpaceOnUse">
<stop stop-color="#FEDFCB"/>
<stop offset="1" stop-color="#F9B69E"/>
</linearGradient>
<linearGradient id="paint21_linear_1225_13696" x1="442.809" y1="186.188" x2="414.988" y2="186.188" gradientUnits="userSpaceOnUse">
<stop stop-color="#9D73FE"/>
<stop offset="1" stop-color="#6826FF"/>
</linearGradient>
<linearGradient id="paint22_linear_1225_13696" x1="434.117" y1="174.352" x2="430.648" y2="174.352" gradientUnits="userSpaceOnUse">
<stop stop-color="#9D73FE"/>
<stop offset="1" stop-color="#6826FF"/>
</linearGradient>
<linearGradient id="paint23_linear_1225_13696" x1="427.454" y1="166.655" x2="423.998" y2="166.655" gradientUnits="userSpaceOnUse">
<stop stop-color="#9D73FE"/>
<stop offset="1" stop-color="#6826FF"/>
</linearGradient>
<linearGradient id="paint24_linear_1225_13696" x1="455.953" y1="133.241" x2="430.635" y2="133.241" gradientUnits="userSpaceOnUse">
<stop stop-color="#9D73FE"/>
<stop offset="1" stop-color="#6826FF"/>
</linearGradient>
<linearGradient id="paint25_linear_1225_13696" x1="430.647" y1="86.6327" x2="302.735" y2="86.6327" gradientUnits="userSpaceOnUse">
<stop stop-color="#9D73FE"/>
<stop offset="1" stop-color="#6826FF"/>
</linearGradient>
<linearGradient id="paint26_linear_1225_13696" x1="415.213" y1="128.477" x2="295.124" y2="34.3099" gradientUnits="userSpaceOnUse">
<stop stop-color="#5761D7"/>
<stop offset="0.18" stop-color="#5C66D9"/>
<stop offset="0.39" stop-color="#6A73DF"/>
<stop offset="0.61" stop-color="#8289E8"/>
<stop offset="0.85" stop-color="#A3A7F5"/>
<stop offset="1" stop-color="#BCBEFF"/>
</linearGradient>
<linearGradient id="paint27_linear_1225_13696" x1="371.471" y1="127.887" x2="333.667" y2="66.3877" gradientUnits="userSpaceOnUse">
<stop stop-color="#C0BFF6"/>
<stop offset="0.29" stop-color="#C5C4F7"/>
<stop offset="0.64" stop-color="#D3D2F9"/>
<stop offset="1" stop-color="#E9E9FD"/>
</linearGradient>
<linearGradient id="paint28_linear_1225_13696" x1="391.438" y1="105.823" x2="245.778" y2="26.6391" gradientUnits="userSpaceOnUse">
<stop stop-color="#C0BFF6"/>
<stop offset="0.29" stop-color="#C5C4F7"/>
<stop offset="0.64" stop-color="#D3D2F9"/>
<stop offset="1" stop-color="#E9E9FD"/>
</linearGradient>
<linearGradient id="paint29_linear_1225_13696" x1="432.446" y1="88.1244" x2="306.196" y2="88.1244" gradientUnits="userSpaceOnUse">
<stop stop-color="#9D73FE"/>
<stop offset="1" stop-color="#6826FF"/>
</linearGradient>
<linearGradient id="paint30_linear_1225_13696" x1="366.305" y1="127.344" x2="404.128" y2="65.8297" gradientUnits="userSpaceOnUse">
<stop stop-color="#C0BFF6"/>
<stop offset="0.29" stop-color="#C5C4F7"/>
<stop offset="0.64" stop-color="#D3D2F9"/>
<stop offset="1" stop-color="#E9E9FD"/>
</linearGradient>
</defs>
</svg>
