<svg width="41" height="40" viewBox="0 0 41 40" fill="none" xmlns="http://www.w3.org/2000/svg">
<path fill-rule="evenodd" clip-rule="evenodd" d="M14.4626 5.21173C16.3425 4.43215 18.4028 4 20.5628 4C29.3649 4 36.5005 11.1356 36.5005 19.9378C36.5005 23.5253 35.3143 26.837 33.314 29.5004H35.4809C36.0332 29.5004 36.4809 29.9481 36.4809 30.5004C36.4809 31.0527 36.0332 31.5004 35.4809 31.5004H31.124C30.5717 31.5004 30.124 31.0527 30.124 30.5004V26.1436C30.124 25.5913 30.5717 25.1436 31.124 25.1436C31.6763 25.1436 32.124 25.5913 32.124 26.1436V27.7251C33.6249 25.5015 34.5005 22.8224 34.5005 19.9378C34.5005 12.2402 28.2603 6 20.5628 6C18.6717 6 16.8714 6.37797 15.2288 7.05918C14.7186 7.27074 14.1335 7.02868 13.922 6.51852C13.7104 6.00836 13.9525 5.42329 14.4626 5.21173ZM5.51855 8.49951C4.96627 8.49951 4.51855 8.94723 4.51855 9.49951C4.51855 10.0518 4.96627 10.4995 5.51855 10.4995H7.68645C5.6862 13.1629 4.5 16.4746 4.5 20.0621C4.5 28.8643 11.6356 35.9999 20.4378 35.9999C22.5977 35.9999 24.658 35.5677 26.5379 34.7882C27.048 34.5766 27.2901 33.9915 27.0785 33.4814C26.867 32.9712 26.2819 32.7291 25.7718 32.9407C24.1291 33.6219 22.3288 33.9999 20.4378 33.9999C12.7402 33.9999 6.5 27.7597 6.5 20.0621C6.5 17.1782 7.37516 14.4997 8.8754 12.2764V13.8564C8.8754 14.4086 9.32312 14.8564 9.8754 14.8564C10.4277 14.8564 10.8754 14.4086 10.8754 13.8564V9.49951C10.8754 8.94723 10.4277 8.49951 9.8754 8.49951H5.51855ZM22.0474 9.74567C22.3454 9.32349 23.0099 9.57563 22.9528 10.0892L22.2394 16.5105H26.7238C27.5346 16.5105 28.0083 17.4248 27.5407 18.0872L18.952 30.2546C18.654 30.6768 17.9895 30.4246 18.0465 29.911L18.76 23.4898H14.2756C13.4648 23.4898 12.9911 22.5755 13.4587 21.9131L22.0474 9.74567ZM16.2055 21.4898H20.5476C20.786 21.4898 20.9715 21.697 20.9452 21.9339L20.6777 24.3418L24.7938 18.5105H20.4517C20.2133 18.5105 20.0279 18.3033 20.0542 18.0663L20.3217 15.6585L16.2055 21.4898Z" fill="url(#paint0_linear_652_12932)"/>
<defs>
<linearGradient id="paint0_linear_652_12932" x1="36.5001" y1="20.0001" x2="4.49975" y2="20.0001" gradientUnits="userSpaceOnUse">
<stop stop-color="#9D73FE"/>
<stop offset="1" stop-color="#6826FF"/>
</linearGradient>
</defs>
</svg>
