<svg width="40" height="40" viewBox="0 0 40 40" fill="none" xmlns="http://www.w3.org/2000/svg">
<path fill-rule="evenodd" clip-rule="evenodd" d="M24.4581 17.7912C24.6255 17.9216 24.8226 17.9941 25.0256 18C25.3009 17.9999 25.565 17.8759 25.7596 17.6551L28.696 14.325C28.8906 14.1043 29 13.8049 29 13.4928C29 13.1806 28.8906 12.8813 28.696 12.6605L25.7596 9.33043C25.5638 9.11601 25.3015 8.99736 25.0293 9.00004C24.757 9.00273 24.4966 9.12652 24.3041 9.34477C24.1116 9.56302 24.0024 9.85826 24 10.1669C23.9977 10.4755 24.1023 10.7729 24.2915 10.9949L25.1776 12H17.8C15.9971 12.0018 14.2685 12.7047 12.9937 13.9546C11.7188 15.2044 11.0018 16.8991 11 18.6667V20.8889C11 21.1836 11.1194 21.4662 11.3319 21.6746C11.5445 21.8829 11.8328 22 12.1333 22C12.4339 22 12.7222 21.8829 12.9347 21.6746C13.1473 21.4662 13.2667 21.1836 13.2667 20.8889V18.6667C13.2667 17.4879 13.7443 16.3575 14.5944 15.524C15.4446 14.6905 16.5977 14.2222 17.8 14.2222H25.8506L24.2915 15.9906C24.1516 16.1575 24.0575 16.3668 24.0204 16.5931C23.9834 16.8194 24.005 17.053 24.0827 17.2657C24.1604 17.4784 24.2908 17.6609 24.4581 17.7912ZM16.6022 28L17.6502 28.9906C17.818 29.1575 17.931 29.3668 17.9755 29.5931C18.02 29.8194 17.994 30.053 17.9008 30.2657C17.8076 30.4784 17.6511 30.6609 17.4502 30.7912C17.2494 30.9216 17.0129 30.9941 16.7693 31C16.4389 30.9999 16.122 30.8759 15.8884 30.6551L12.3648 27.325C12.1312 27.1043 12 26.8049 12 26.4928C12 26.1806 12.1312 25.8813 12.3648 25.6605L15.8884 22.3304C16.1234 22.116 16.4382 21.9974 16.7648 22C17.0915 22.0027 17.404 22.1265 17.6351 22.3448C17.8661 22.563 17.9971 22.8583 18 23.1669C18.0028 23.4755 17.8772 23.7729 17.6502 23.9949L15.764 25.7778H23.2C24.4023 25.7778 25.5554 25.3095 26.4056 24.476C27.2557 23.6425 27.7333 22.5121 27.7333 21.3333V19.1111C27.7333 18.8164 27.8527 18.5338 28.0653 18.3254C28.2778 18.1171 28.5661 18 28.8667 18C29.1672 18 29.4555 18.1171 29.6681 18.3254C29.8806 18.5338 30 18.8164 30 19.1111V21.3333C29.9982 23.1009 29.2812 24.7956 28.0063 26.0454C26.7315 27.2953 25.0029 27.9982 23.2 28H16.6022Z" fill="url(#paint0_linear_535_803)"/>
<circle cx="21" cy="20" r="18" stroke="url(#paint1_linear_535_803)" stroke-width="2"/>
<defs>
<linearGradient id="paint0_linear_535_803" x1="29.9997" y1="20.0001" x2="10.9999" y2="20.0001" gradientUnits="userSpaceOnUse">
<stop stop-color="#9D73FE"/>
<stop offset="1" stop-color="#6826FF"/>
</linearGradient>
<linearGradient id="paint1_linear_535_803" x1="38.9995" y1="20.0002" x2="2.99972" y2="20.0002" gradientUnits="userSpaceOnUse">
<stop stop-color="#9D73FE"/>
<stop offset="1" stop-color="#6826FF"/>
</linearGradient>
</defs>
</svg>
