<svg xmlns="http://www.w3.org/2000/svg" width="40" height="40" viewBox="0 0 40 40" fill="none">
  <g clip-path="url(#clip0_1289_1267)">
    <mask id="mask0_1289_1267" style="mask-type:luminance" maskUnits="userSpaceOnUse" x="0" y="0" width="40" height="40">
      <path d="M0 3.8147e-06H40V40H0V3.8147e-06Z" fill="white"/>
    </mask>
    <g mask="url(#mask0_1289_1267)">
      <path d="M15.112 32.5445C17.2539 34.3169 20.0021 35.3823 22.9996 35.3823C25.997 35.3823 28.7456 34.3172 30.8878 32.545L32.7256 34.3828C32.506 34.8418 32.3828 35.3557 32.3828 35.8984C32.3828 37.84 33.9569 39.4141 35.8984 39.4141C37.8401 39.4141 39.4141 37.84 39.4141 35.8984C39.4141 33.9568 37.8401 32.3828 35.8984 32.3828C35.3557 32.3828 34.8419 32.5059 34.3829 32.7255L32.5451 30.8877C34.3173 28.7455 35.3824 25.997 35.3824 22.9995C35.3824 16.556 30.4606 11.2628 24.1715 10.6723V8.07211C25.5367 7.58945 26.5152 6.28797 26.5152 4.75734C26.5152 2.81578 24.9412 1.24172 22.9996 1.24172C21.058 1.24172 19.484 2.81578 19.484 4.75734C19.484 6.28797 20.4624 7.58945 21.8277 8.07211V10.6723C19.288 10.9108 16.9711 11.9156 15.1115 13.4541L13.3485 11.6912C14.167 10.5418 14.6484 9.1357 14.6484 7.61719C14.6484 3.73391 11.5005 0.585938 7.61719 0.585938C3.73398 0.585938 0.585938 3.73391 0.585938 7.61719C0.585938 11.5004 3.73398 14.6484 7.61719 14.6484C9.13578 14.6484 10.5418 14.167 11.6912 13.3485L13.4541 15.1114C11.9156 16.9711 10.9109 19.2879 10.6723 21.8277H8.07219C7.58953 20.4624 6.28805 19.4839 4.75742 19.4839C2.81578 19.4839 1.2418 21.058 1.2418 22.9995C1.2418 24.9412 2.81578 26.5152 4.75742 26.5152C6.28805 26.5152 7.58945 25.5367 8.07219 24.1714H10.6723C10.9109 26.7111 11.9165 29.0275 13.4547 30.8872M12.3047 7.61716C12.3047 10.206 10.206 12.3047 7.61722 12.3047C5.02839 12.3047 2.92972 10.206 2.92972 7.61716C2.92972 5.02833 5.02839 2.92966 7.61722 2.92966C10.206 2.92966 12.3047 5.02833 12.3047 7.61716ZM9.96097 7.61716C9.96097 8.91154 8.91159 9.96091 7.61722 9.96091C6.32284 9.96091 5.27347 8.91154 5.27347 7.61716C5.27347 6.32279 6.32284 5.27341 7.61722 5.27341C8.91159 5.27341 9.96097 6.32279 9.96097 7.61716ZM5.92929 22.9995C5.92929 23.6467 5.4046 24.1714 4.75741 24.1714C4.11023 24.1714 3.58554 23.6467 3.58554 22.9995C3.58554 22.3524 4.11023 21.8277 4.75741 21.8277C5.4046 21.8277 5.92929 22.3524 5.92929 22.9995ZM24.1715 4.75736C24.1715 5.40455 23.6468 5.92923 22.9996 5.92923C22.3524 5.92923 21.8277 5.40455 21.8277 4.75736C21.8277 4.11017 22.3524 3.58548 22.9996 3.58548C23.6468 3.58548 24.1715 4.11017 24.1715 4.75736ZM33.0387 22.9995C33.0387 28.544 28.5441 33.0386 22.9996 33.0386C17.4551 33.0386 12.9605 28.544 12.9605 22.9995C12.9605 17.4551 17.4551 12.9605 22.9996 12.9605C28.5441 12.9605 33.0387 17.4551 33.0387 22.9995ZM26.5152 18.8199C26.5152 20.7615 24.9412 22.3355 22.9996 22.3355C21.058 22.3355 19.484 20.7615 19.484 18.8199C19.484 16.8782 21.058 15.3042 22.9996 15.3042C24.9412 15.3042 26.5152 16.8782 26.5152 18.8199ZM27.1015 24.6792H18.8977C17.6087 24.6792 16.554 25.7339 16.554 27.023V27.2039C17.9277 29.3058 20.3012 30.6949 22.9996 30.6949C25.698 30.6949 28.0715 29.3058 29.4452 27.2039V27.023C29.4452 25.7339 28.3905 24.6792 27.1015 24.6792ZM37.0703 35.8984C37.0703 36.5456 36.5457 37.0703 35.8985 37.0703C35.2513 37.0703 34.7266 36.5456 34.7266 35.8984C34.7266 35.2512 35.2513 34.7265 35.8985 34.7265C36.5457 34.7265 37.0703 35.2512 37.0703 35.8984Z" stroke="url(#paint0_linear_1289_1267)" stroke-width="1.25" stroke-miterlimit="10" stroke-linecap="round" stroke-linejoin="round"/>
    </g>
  </g>
  <defs>
    <linearGradient id="paint0_linear_1289_1267" x1="39.4135" y1="20.0002" x2="0.585632" y2="20.0002" gradientUnits="userSpaceOnUse">
      <stop stop-color="#9D73FE"/>
      <stop offset="1" stop-color="#6826FF"/>
    </linearGradient>
    <clipPath id="clip0_1289_1267">
      <rect width="40" height="40" fill="white"/>
    </clipPath>
  </defs>
</svg>