<svg width="658" height="427" viewBox="0 0 658 427" fill="none" xmlns="http://www.w3.org/2000/svg">
<rect x="0.5" y="0.5" width="449" height="383" rx="19.5" fill="white"/>
<rect x="15" y="16" width="80" height="15" rx="7.5" fill="#E9E9FD"/>
<rect x="15" y="43" width="80" height="38" rx="10" fill="#BCBEFF"/>
<rect x="15" y="329" width="80" height="38" rx="10" fill="#6826FF"/>
<rect x="15" y="81" width="80" height="236" rx="2" fill="url(#paint0_linear_1365_3116)"/>
<rect x="100" y="16" width="80" height="15" rx="7.5" fill="#E9E9FD"/>
<rect x="100" y="43" width="80" height="38" rx="10" fill="#BCBEFF"/>
<rect x="100" y="329" width="80" height="38" rx="10" fill="#6826FF"/>
<rect x="100" y="81" width="80" height="236" rx="2" fill="url(#paint1_linear_1365_3116)"/>
<rect x="185" y="16" width="80" height="15" rx="7.5" fill="#E9E9FD"/>
<rect x="185" y="43" width="80" height="38" rx="10" fill="#BCBEFF"/>
<rect x="185" y="329" width="80" height="38" rx="10" fill="#6826FF"/>
<rect x="185" y="81" width="80" height="236" rx="2" fill="url(#paint2_linear_1365_3116)"/>
<rect x="270" y="16" width="80" height="15" rx="7.5" fill="#E9E9FD"/>
<rect x="270" y="43" width="80" height="38" rx="10" fill="#BCBEFF"/>
<rect x="270" y="329" width="80" height="38" rx="10" fill="#6826FF"/>
<rect x="270" y="81" width="80" height="236" rx="2" fill="url(#paint3_linear_1365_3116)"/>
<rect x="355" y="16" width="80" height="15" rx="7.5" fill="#E9E9FD"/>
<rect x="355" y="43" width="80" height="38" rx="10" fill="#BCBEFF"/>
<rect x="355" y="329" width="80" height="38" rx="10" fill="#6826FF"/>
<rect x="355" y="81" width="80" height="236" rx="2" fill="url(#paint4_linear_1365_3116)"/>
<path d="M431 96L415.041 112.693L437.477 118.167L431 96ZM18.204 312.547C43.5479 271.301 111.75 190 231 190V186C109.717 186 40.4521 268.699 14.796 310.453L18.204 312.547ZM231 190C262.724 190 305.734 188.077 343.94 177.729C382.075 167.402 415.992 148.52 428.611 114.175L424.856 112.796C412.925 145.268 380.652 163.643 342.895 173.868C305.211 184.074 262.629 186 231 186V190Z" fill="#9D73FE"/>
<path d="M17 96.8417C62.3333 91.9919 174.1 105.787 258.5 199.766C288 235.331 351.4 293.852 433 288.679" stroke="#180D5B" stroke-width="3" stroke-linecap="round" stroke-dasharray="10 10"/>
<rect x="0.5" y="0.5" width="449" height="383" rx="19.5" stroke="#6826FF"/>
<rect x="294.5" y="167.5" width="363" height="259" rx="19.5" fill="white"/>
<line x1="311" y1="374" x2="638" y2="374" stroke="#E9E9FD" stroke-width="2"/>
<rect x="321" y="266" width="62" height="99" rx="2" fill="#6826FF"/>
<rect x="403" y="223" width="62" height="142" rx="2" fill="#04477E"/>
<rect x="485" y="244" width="62" height="121" rx="2" fill="#42E8E0"/>
<rect x="567" y="194" width="62" height="171" rx="2" fill="#5C66D9"/>
<rect x="311" y="390" width="18" height="10" rx="2" fill="#6826FF"/>
<rect x="339" y="390" width="40" height="10" rx="2" fill="#E9E9FD"/>
<rect x="395" y="390" width="18" height="10" rx="2" fill="#04477E"/>
<rect x="423" y="390" width="40" height="10" rx="2" fill="#E9E9FD"/>
<rect x="479" y="390" width="18" height="10" rx="2" fill="#42E8E0"/>
<rect x="507" y="390" width="40" height="10" rx="2" fill="#E9E9FD"/>
<rect x="563" y="390" width="18" height="10" rx="2" fill="#5C66D9"/>
<rect x="591" y="390" width="40" height="10" rx="2" fill="#E9E9FD"/>
<rect x="294.5" y="167.5" width="363" height="259" rx="19.5" stroke="#6826FF"/>
<defs>
<linearGradient id="paint0_linear_1365_3116" x1="55" y1="74.5" x2="55" y2="317" gradientUnits="userSpaceOnUse">
<stop stop-color="#BCC2E6" stop-opacity="0.05"/>
<stop offset="1" stop-color="#BCBEFF" stop-opacity="0.51"/>
</linearGradient>
<linearGradient id="paint1_linear_1365_3116" x1="140" y1="74.5" x2="140" y2="317" gradientUnits="userSpaceOnUse">
<stop stop-color="#BCC2E6" stop-opacity="0.05"/>
<stop offset="1" stop-color="#BCBEFF" stop-opacity="0.51"/>
</linearGradient>
<linearGradient id="paint2_linear_1365_3116" x1="225" y1="74.5" x2="225" y2="317" gradientUnits="userSpaceOnUse">
<stop stop-color="#BCC2E6" stop-opacity="0.05"/>
<stop offset="1" stop-color="#BCBEFF" stop-opacity="0.51"/>
</linearGradient>
<linearGradient id="paint3_linear_1365_3116" x1="310" y1="74.5" x2="310" y2="317" gradientUnits="userSpaceOnUse">
<stop stop-color="#BCC2E6" stop-opacity="0.05"/>
<stop offset="1" stop-color="#BCBEFF" stop-opacity="0.51"/>
</linearGradient>
<linearGradient id="paint4_linear_1365_3116" x1="395" y1="74.5" x2="395" y2="317" gradientUnits="userSpaceOnUse">
<stop stop-color="#BCC2E6" stop-opacity="0.05"/>
<stop offset="1" stop-color="#BCBEFF" stop-opacity="0.51"/>
</linearGradient>
</defs>
</svg>
