<svg width="607" height="497" viewBox="0 0 607 497" fill="none" xmlns="http://www.w3.org/2000/svg">
<g clip-path="url(#clip0_559_234)">
<g opacity="0.8" clip-path="url(#clip1_559_234)">
<g opacity="0.5">
<path d="M147.687 328.787C147.687 328.667 147.777 328.547 147.927 328.517C148.107 328.458 148.287 328.577 148.317 328.727L161.135 374.946C161.195 375.126 161.075 375.306 160.925 375.336C160.744 375.396 160.564 375.276 160.534 375.126L147.717 328.907C147.687 328.877 147.687 328.847 147.687 328.787Z" fill="#6826FF"/>
</g>
<g opacity="0.55">
<path d="M230.114 56.1508C230.114 56.0609 230.174 56.0009 230.264 55.971C230.384 55.941 230.474 56.0309 230.504 56.1208L247.434 137.378C247.464 137.498 247.374 137.588 247.283 137.618C247.163 137.648 247.073 137.558 247.043 137.468L230.114 56.2108C230.114 56.1808 230.114 56.1808 230.114 56.1508Z" fill="#6826FF"/>
</g>
<g opacity="0.5">
<path d="M122.322 187.883C122.322 187.823 122.382 187.763 122.442 187.733L247.193 137.258C247.283 137.228 247.374 137.258 247.434 137.348C247.464 137.438 247.434 137.528 247.344 137.588L122.592 188.063C122.502 188.093 122.412 188.063 122.352 187.973C122.322 187.943 122.322 187.913 122.322 187.883Z" fill="#6826FF"/>
</g>
<g opacity="0.53">
<path d="M148.437 134.441C148.437 134.381 148.497 134.321 148.557 134.291C148.647 134.261 148.737 134.321 148.767 134.411L180.826 230.625C180.856 230.715 180.796 230.805 180.706 230.835C180.616 230.865 180.526 230.805 180.495 230.715L148.437 134.501C148.437 134.471 148.437 134.441 148.437 134.441Z" fill="#6826FF"/>
</g>
<g opacity="0.54">
<path d="M180.465 230.655C180.465 230.595 180.495 230.565 180.525 230.535C180.615 230.475 180.735 230.475 180.796 230.565L209.042 264.974C209.102 265.064 209.102 265.184 209.012 265.244C208.922 265.304 208.802 265.304 208.741 265.214L180.495 230.805C180.465 230.745 180.465 230.685 180.465 230.655Z" fill="#6826FF"/>
</g>
<g opacity="0.56">
<path d="M272.828 308.405C272.828 308.375 272.858 308.316 272.858 308.286L351.533 200.172C351.593 200.082 351.743 200.052 351.834 200.112C351.924 200.172 351.954 200.322 351.894 200.412L273.219 308.525C273.159 308.615 273.009 308.645 272.918 308.585C272.858 308.555 272.798 308.465 272.828 308.405Z" fill="#6826FF"/>
</g>
<g opacity="0.55">
<path d="M217.987 212.401C217.987 212.281 218.077 212.221 218.197 212.191L351.713 200.082C351.834 200.082 351.954 200.172 351.954 200.292C351.954 200.412 351.864 200.532 351.743 200.532L218.227 212.641C218.107 212.641 217.987 212.551 217.987 212.431C217.987 212.431 217.987 212.431 217.987 212.401Z" fill="#6826FF"/>
</g>
<g opacity="0.54">
<path d="M208.712 265.064C208.712 265.004 208.772 264.914 208.832 264.884L351.623 200.112C351.743 200.052 351.863 200.112 351.893 200.202C351.953 200.292 351.893 200.442 351.803 200.472L209.012 265.244C208.892 265.304 208.772 265.244 208.742 265.154C208.712 265.124 208.712 265.094 208.712 265.064Z" fill="#6826FF"/>
</g>
<g opacity="0.67">
<path d="M208.561 265.064C208.561 265.004 208.592 264.944 208.622 264.914C208.742 264.764 208.952 264.704 209.102 264.824L273.248 308.165C273.399 308.285 273.459 308.495 273.338 308.645C273.218 308.795 273.008 308.855 272.858 308.735L208.712 265.394C208.592 265.304 208.531 265.184 208.561 265.064Z" fill="#6826FF"/>
</g>
<g opacity="0.58">
<path d="M179.775 251.486C179.775 251.456 179.775 251.426 179.805 251.396C179.865 251.276 180.015 251.216 180.135 251.276L209.012 264.854C209.132 264.914 209.192 265.064 209.132 265.184C209.072 265.304 208.922 265.364 208.802 265.304L179.925 251.726C179.835 251.666 179.775 251.576 179.775 251.486Z" fill="#6826FF"/>
</g>
<g opacity="0.68">
<path d="M208.531 265.034L217.837 212.341C217.867 212.131 218.077 212.011 218.257 212.041C218.467 212.071 218.557 212.251 218.557 212.461L209.252 265.124C209.222 265.334 209.012 265.454 208.832 265.424C208.651 265.424 208.531 265.244 208.531 265.034Z" fill="#6826FF"/>
</g>
<g opacity="0.6">
<path d="M185.328 253.345C185.328 253.285 185.358 253.255 185.388 253.195L217.987 212.251C218.077 212.131 218.257 212.101 218.377 212.221C218.497 212.311 218.497 212.491 218.407 212.611L185.808 253.554C185.718 253.674 185.538 253.704 185.418 253.584C185.358 253.524 185.328 253.435 185.328 253.345Z" fill="#6826FF"/>
</g>
<g opacity="0.54">
<path d="M217.987 212.401C217.987 212.341 218.017 212.281 218.077 212.251C218.167 212.191 218.317 212.221 218.347 212.341L273.188 308.346C273.248 308.465 273.218 308.585 273.098 308.615C273.008 308.675 272.858 308.645 272.828 308.525L217.987 212.521C217.987 212.491 217.987 212.461 217.987 212.401Z" fill="#6826FF"/>
</g>
<g opacity="0.68">
<path d="M179.655 251.456C179.655 251.366 179.685 251.307 179.745 251.247L217.927 212.161C218.077 212.012 218.287 212.012 218.437 212.161C218.587 212.311 218.587 212.551 218.437 212.671L180.255 251.756C180.105 251.906 179.895 251.906 179.745 251.756C179.685 251.696 179.655 251.576 179.655 251.456Z" fill="#6826FF"/>
</g>
<g opacity="0.8">
<path d="M179.385 251.456C179.385 251.396 179.385 251.366 179.415 251.306C179.535 250.977 179.895 250.767 180.255 250.887L185.839 252.745C186.169 252.865 186.379 253.225 186.259 253.584C186.139 253.914 185.779 254.124 185.418 254.004L179.835 252.146C179.535 252.026 179.355 251.726 179.385 251.456Z" fill="#6826FF"/>
</g>
<g opacity="0.54">
<path d="M421.953 42.8726C421.953 42.7528 422.073 42.6628 422.193 42.6628L524.762 48.118C524.882 48.118 525.002 48.2379 525.002 48.3578C525.032 48.5076 524.882 48.5975 524.762 48.5975L422.193 43.1424C422.043 43.1424 421.953 43.0225 421.953 42.8726C421.953 42.9026 421.953 42.9026 421.953 42.8726Z" fill="#6826FF"/>
</g>
<g opacity="0.54">
<path d="M421.954 42.8726C421.954 42.8427 421.953 42.8127 421.984 42.7827C422.044 42.6628 422.194 42.6329 422.314 42.6928L577.652 128.146C577.772 128.206 577.802 128.356 577.742 128.476C577.682 128.596 577.532 128.626 577.412 128.566L422.074 43.1124C421.984 43.0825 421.954 42.9925 421.954 42.8726Z" fill="#6826FF"/>
</g>
<g opacity="0.69">
<path d="M476.855 325.88C476.855 325.79 476.915 325.7 476.975 325.61C477.155 325.46 477.395 325.46 477.575 325.64L538.21 389.663C538.36 389.843 538.36 390.113 538.18 390.262C538 390.412 537.76 390.412 537.579 390.262L476.945 326.24C476.885 326.12 476.855 326 476.855 325.88Z" fill="#6826FF"/>
</g>
<g opacity="0.55">
<path d="M416.43 310.354L416.43 310.324C416.46 310.204 416.58 310.114 416.73 310.144L477.335 325.7C477.455 325.73 477.545 325.85 477.515 326C477.485 326.12 477.365 326.21 477.215 326.18L416.61 310.624C416.49 310.564 416.43 310.474 416.43 310.354Z" fill="#6826FF"/>
</g>
<g opacity="0.6">
<path d="M362.249 424.402C362.249 424.372 362.249 424.342 362.279 424.312L416.4 310.234C416.46 310.084 416.64 310.024 416.79 310.084C416.94 310.144 417 310.324 416.94 310.474L362.819 424.552C362.759 424.702 362.579 424.762 362.429 424.702C362.309 424.642 362.249 424.522 362.249 424.402Z" fill="#6826FF"/>
</g>
<path opacity="0.7" d="M151.109 329.147C150.929 330.855 149.398 332.114 147.687 331.934C145.976 331.755 144.715 330.226 144.895 328.517C145.075 326.809 146.606 325.55 148.317 325.73C150.028 325.88 151.289 327.408 151.109 329.147Z" fill="#6826FF"/>
<path opacity="0.94" d="M233.956 56.5403C233.746 58.5485 231.975 60.0172 229.964 59.8074C227.953 59.5976 226.482 57.8292 226.692 55.821C226.902 53.8128 228.673 52.3441 230.684 52.5539C232.695 52.7337 234.166 54.5321 233.956 56.5403Z" fill="#6826FF"/>
<path opacity="0.7" d="M163.926 375.366C163.746 377.074 162.215 378.333 160.504 378.153C158.793 377.973 157.533 376.445 157.713 374.736C157.893 373.028 159.424 371.769 161.135 371.949C162.846 372.099 164.106 373.627 163.926 375.366Z" fill="#6826FF"/>
<path opacity="0.93" d="M126.105 188.273C125.894 190.281 124.123 191.75 122.112 191.54C120.101 191.33 118.63 189.562 118.84 187.553C119.051 185.545 120.822 184.077 122.833 184.286C124.844 184.496 126.315 186.265 126.105 188.273Z" fill="#6826FF"/>
<path opacity="0.98" d="M250.886 137.798C250.676 139.806 248.905 141.275 246.893 141.065C244.882 140.855 243.411 139.087 243.622 137.079C243.832 135.07 245.603 133.602 247.614 133.811C249.625 134.021 251.066 135.79 250.886 137.798Z" fill="#6826FF"/>
<path d="M152.369 134.831C152.159 136.899 150.328 138.427 148.227 138.218C146.156 138.008 144.625 136.179 144.835 134.081C145.045 132.013 146.876 130.484 148.977 130.694C151.049 130.904 152.58 132.733 152.369 134.831Z" fill="#6826FF"/>
<path d="M184.548 231.045C184.338 233.203 182.417 234.761 180.286 234.552C178.124 234.342 176.563 232.423 176.774 230.295C176.984 228.137 178.905 226.579 181.036 226.788C183.197 226.998 184.758 228.917 184.548 231.045Z" fill="#6826FF"/>
<path d="M355.976 200.742C355.735 203.11 353.634 204.818 351.263 204.578C348.892 204.338 347.181 202.24 347.421 199.872C347.661 197.505 349.762 195.796 352.133 196.036C354.505 196.276 356.216 198.374 355.976 200.742Z" fill="#6826FF"/>
<path d="M213.064 265.484C212.824 267.762 210.783 269.44 208.502 269.2C206.221 268.961 204.54 266.923 204.78 264.645C205.02 262.367 207.061 260.688 209.342 260.928C211.624 261.168 213.275 263.206 213.064 265.484Z" fill="#6826FF"/>
<path d="M222.489 212.851C222.249 215.219 220.148 216.927 217.777 216.687C215.405 216.448 213.694 214.349 213.934 211.982C214.175 209.614 216.276 207.905 218.647 208.145C220.989 208.385 222.7 210.483 222.489 212.851Z" fill="#6826FF"/>
<path d="M184.307 251.936C184.067 254.304 181.966 256.012 179.595 255.773C177.223 255.533 175.512 253.435 175.753 251.067C175.993 248.699 178.094 246.99 180.465 247.23C182.807 247.47 184.548 249.568 184.307 251.936Z" fill="#6826FF"/>
<path d="M277.181 308.825C276.941 311.103 274.899 312.782 272.618 312.542C270.337 312.302 268.656 310.264 268.896 307.986C269.136 305.708 271.177 304.029 273.459 304.269C275.74 304.509 277.421 306.547 277.181 308.825Z" fill="#6826FF"/>
<path d="M529.445 48.8374C529.175 51.4151 526.893 53.3033 524.312 53.0336C521.73 52.7638 519.839 50.4859 520.109 47.9082C520.38 45.3305 522.661 43.4422 525.242 43.7119C527.794 43.9817 529.685 46.2597 529.445 48.8374Z" fill="#6826FF"/>
<path d="M190.011 253.794C189.771 256.222 187.61 257.99 185.179 257.751C182.747 257.511 180.976 255.353 181.216 252.925C181.456 250.497 183.618 248.729 186.049 248.969C188.481 249.208 190.252 251.366 190.011 253.794Z" fill="#6826FF"/>
<path d="M427.116 43.4122C426.846 46.1398 424.415 48.118 421.713 47.8483C418.982 47.5785 417.001 45.1507 417.271 42.4531C417.541 39.7255 419.972 37.7473 422.674 38.017C425.406 38.2568 427.387 40.6846 427.116 43.4122Z" fill="#6826FF"/>
<path d="M582.575 128.836C582.305 131.623 579.814 133.662 577.022 133.392C574.23 133.122 572.189 130.634 572.459 127.847C572.73 125.059 575.221 123.021 578.013 123.291C580.834 123.591 582.875 126.048 582.575 128.836Z" fill="#6826FF"/>
<path d="M481.808 326.359C481.567 328.847 479.316 330.676 476.825 330.436C474.333 330.196 472.502 327.948 472.742 325.46C472.983 322.973 475.234 321.144 477.725 321.384C480.247 321.654 482.078 323.872 481.808 326.359Z" fill="#6826FF"/>
<path d="M367.202 424.911C366.932 427.489 364.651 429.377 362.069 429.108C359.488 428.838 357.597 426.56 357.867 423.982C358.137 421.404 360.418 419.516 363 419.786C365.581 420.026 367.442 422.334 367.202 424.911Z" fill="#6826FF"/>
<path d="M421.473 310.863C421.203 313.501 418.862 315.449 416.19 315.179C413.549 314.91 411.597 312.572 411.868 309.904C412.138 307.266 414.479 305.318 417.151 305.588C419.822 305.858 421.713 308.196 421.473 310.863Z" fill="#6826FF"/>
<path d="M542.592 390.412C542.322 392.99 540.04 394.878 537.459 394.609C534.878 394.339 532.986 392.061 533.257 389.483C533.527 386.905 535.808 385.017 538.39 385.287C540.971 385.557 542.832 387.835 542.592 390.412Z" fill="#6826FF"/>
</g>
<path opacity="0.5" d="M424.797 437.606C429.515 437.606 434.018 436.66 437.36 434.714L601.889 339.831C605.177 337.939 607 335.279 607 332.387C607 328.906 604.391 325.389 599.834 322.764L286.072 141.781C277.548 136.854 264.575 136.336 257.177 140.603L92.6651 235.486C89.3592 237.396 87.5543 240.038 87.5543 242.948C87.5543 246.429 90.1633 249.946 94.7202 252.57L408.482 433.536C413.128 436.232 419.115 437.606 424.797 437.606ZM269.739 138.425C275.297 138.425 281.14 139.781 285.715 142.406L599.477 323.371C603.801 325.871 606.285 329.156 606.285 332.369C606.285 335.011 604.588 337.439 601.532 339.206L437.02 434.09C429.819 438.249 417.167 437.714 408.839 432.911L95.0776 251.946C90.7531 249.446 88.2691 246.162 88.2691 242.948C88.2691 240.306 89.9667 237.878 93.0225 236.111L257.534 141.228C260.786 139.335 265.164 138.425 269.739 138.425Z" fill="#6826FF"/>
<path opacity="0.49" d="M87.8939 199.121L111.518 203.192L257.337 119.091C264.646 114.878 277.423 115.396 285.876 120.269L564.862 281.169L606.643 288.346V303.145H606.625C606.643 305.841 605.034 308.429 601.71 310.339L437.199 405.223C429.89 409.436 417.113 408.918 408.661 404.045L94.881 223.079C90.342 220.455 87.9832 217.116 87.9117 213.921H87.8939V199.121Z" fill="#6826FF"/>
<path opacity="0.7" d="M437.199 390.334L601.71 295.451C609.019 291.238 608.108 283.865 599.655 278.991L285.893 98.0257C277.441 93.1521 264.664 92.6165 257.355 96.8475L92.8436 191.731C85.5347 195.944 86.4461 203.317 94.8986 208.19L408.643 389.156C417.095 394.03 429.872 394.547 437.199 390.334Z" fill="#6826FF"/>
<path d="M94.8808 208.19L408.643 389.156C417.095 394.03 429.872 394.565 437.181 390.334L601.71 295.451C604.641 293.755 606.231 291.559 606.553 289.221C607 292.255 605.427 295.219 601.71 297.379L437.199 392.262C429.89 396.475 417.113 395.958 408.66 391.084L94.8808 210.101C89.8235 207.191 87.4825 203.37 87.9829 199.871C88.4296 202.799 90.7349 205.798 94.8808 208.19Z" fill="white" fill-opacity="0.32"/>
<path opacity="0.8" d="M424.869 385.818C429.461 385.818 433.839 384.889 437.11 383.015L595.778 291.488C599.03 289.613 600.817 287.007 600.817 284.133C600.817 280.705 598.261 277.26 593.794 274.671L285.84 97.0974C277.548 92.313 264.914 91.7953 257.713 95.9548L99.0625 187.482C95.8102 189.357 94.0231 191.963 94.0231 194.837C94.0231 198.265 96.5785 201.71 101.046 204.299L409 381.872C413.521 384.479 419.347 385.818 424.869 385.818ZM436.609 382.122C429.676 386.121 417.524 385.604 409.5 380.98L101.564 203.424C97.4363 201.05 95.0596 197.925 95.0596 194.855C95.0596 192.356 96.6679 190.053 99.5807 188.375L258.231 96.8474C265.164 92.8486 277.316 93.3663 285.34 97.99L593.276 275.564C597.404 277.956 599.78 281.062 599.78 284.133C599.78 286.632 598.172 288.917 595.259 290.613L436.609 382.122Z" fill="url(#paint0_linear_559_234)"/>
<path d="M436.86 382.569L595.528 291.042C602.604 286.953 601.711 279.831 593.544 275.118L285.608 97.5616C277.441 92.8487 265.075 92.331 257.999 96.4191L99.3486 187.946C92.272 192.034 93.1655 199.157 101.332 203.87L409.268 381.426C417.417 386.139 429.783 386.657 436.86 382.569Z" fill="url(#paint1_linear_559_234)"/>
<path opacity="0.4" d="M133.212 203.12C135.642 204.513 139.556 204.513 141.986 203.12C144.417 201.728 144.417 199.461 141.986 198.068C139.556 196.676 135.642 196.676 133.212 198.068C130.782 199.461 130.782 201.728 133.212 203.12Z" fill="#24126A"/>
<g style="mix-blend-mode:soft-light" opacity="0.68">
<path d="M166.683 178.77L149.51 188.678C147.419 189.892 147.669 191.999 150.099 193.391C152.53 194.784 156.175 194.944 158.284 193.73L175.457 183.822C177.548 182.608 177.298 180.502 174.867 179.109C172.437 177.699 168.774 177.556 166.683 178.77Z" fill="#24126A"/>
</g>
<g style="mix-blend-mode:soft-light" opacity="0.68">
<path d="M264.61 119.377L247.437 129.284C245.347 130.498 245.597 132.605 248.027 133.997C250.457 135.39 254.103 135.551 256.212 134.337L273.385 124.429C275.475 123.215 275.225 121.108 272.795 119.716C270.365 118.323 266.701 118.163 264.61 119.377Z" fill="#24126A"/>
</g>
<path d="M133.212 196.979C135.642 198.372 139.556 198.372 141.986 196.979C144.417 195.587 144.417 193.32 141.986 191.927C139.556 190.535 135.642 190.535 133.212 191.927C130.782 193.32 130.782 195.587 133.212 196.979Z" fill="white"/>
<path d="M166.683 172.611L149.51 182.519C147.419 183.733 147.669 185.84 150.099 187.232C152.53 188.625 156.175 188.785 158.284 187.571L175.457 177.663C177.548 176.449 177.298 174.343 174.867 172.95C172.437 171.558 168.774 171.415 166.683 172.611Z" fill="url(#paint2_linear_559_234)"/>
<path d="M264.61 113.236L247.437 123.143C245.347 124.357 245.597 126.464 248.027 127.856C250.457 129.249 254.103 129.41 256.212 128.196L273.385 118.288C275.475 117.074 275.225 114.967 272.795 113.575C270.365 112.165 266.701 112.022 264.61 113.236Z" fill="url(#paint3_linear_559_234)"/>
<g opacity="0.3">
<path d="M56.0755 334.126V326.129L58.2913 324.897C58.9168 328.681 63.3664 331.163 67.0834 331.681L92.4052 346.48L103.467 350.461L138.742 332.27L137.92 331.806C140.94 330.395 142.566 327.182 144.193 324.236L146.569 325.647L147.981 326.039V334.251C147.981 335.822 146.945 337.393 144.872 338.571L109.525 358.958C105.379 361.351 98.6597 361.351 94.5139 358.958L59.167 338.571C57.1298 337.393 56.0933 335.858 56.0576 334.323C56.0754 334.269 56.0755 334.198 56.0755 334.126Z" fill="url(#paint4_linear_559_234)"/>
<path opacity="0.3" d="M67.0837 331.681L92.4055 346.48L102.02 349.943V360.762C99.3033 360.762 96.5871 360.173 94.5142 358.977L59.1673 338.59C57.1301 337.411 56.0936 335.876 56.0578 334.341C56.0578 334.269 56.0578 334.198 56.0578 334.127V326.129L58.0772 325.004H58.2916C59.0064 328.717 63.4024 331.163 67.0837 331.681Z" fill="#0F054C"/>
<path d="M109.543 350.854L144.89 330.467C149.035 328.075 149.035 324.201 144.89 321.809L109.543 301.422C105.397 299.029 98.6777 299.029 94.5319 301.422L59.185 321.809C55.0391 324.201 55.0391 328.075 59.185 330.467L94.5319 350.854C98.6599 353.228 105.397 353.228 109.543 350.854Z" fill="url(#paint5_linear_559_234)"/>
<g opacity="0.3">
<path d="M109.543 350.854L144.89 330.467C149.035 328.075 149.035 324.201 144.89 321.809L109.543 301.422C105.397 299.029 98.6777 299.029 94.5319 301.422L59.185 321.809C55.0391 324.201 55.0391 328.075 59.185 330.467L94.5319 350.854C98.6599 353.228 105.397 353.228 109.543 350.854Z" fill="#6826FF"/>
</g>
</g>
<path opacity="0.49" d="M102.037 325.076C104.45 325.076 106.862 324.54 108.703 323.487L144.05 303.1C145.89 302.046 146.891 300.618 146.891 299.083C146.891 297.548 145.873 296.12 144.05 295.066L108.703 274.679C105.022 272.573 99.053 272.555 95.3718 274.679L60.0249 295.066C58.1843 296.12 57.1836 297.548 57.1836 299.083C57.1836 300.618 58.2022 302.046 60.0249 303.1L95.3718 323.487C97.2124 324.558 99.6249 325.076 102.037 325.076ZM102.037 273.698C104.343 273.698 106.648 274.197 108.399 275.215L143.746 295.602C145.372 296.548 146.284 297.78 146.284 299.083C146.284 300.386 145.39 301.618 143.746 302.564L108.399 322.951C104.897 324.968 99.196 324.968 95.6935 322.951L60.3466 302.564C58.7026 301.618 57.8091 300.386 57.8091 299.083C57.8091 297.78 58.7026 296.548 60.3466 295.602L95.6935 275.215C97.4269 274.197 99.7321 273.698 102.037 273.698Z" fill="#6826FF"/>
<path opacity="0.4" d="M56.076 291.264V279.178L58.2918 277.946C58.9173 281.731 63.3669 284.212 67.0839 284.73L92.4057 299.529L103.467 303.51L138.743 285.319L137.921 284.855C140.941 283.445 142.567 280.231 144.193 277.286L146.57 278.696L147.981 279.089V291.389C147.981 292.96 146.945 294.531 144.872 295.709L109.525 316.096C105.379 318.488 98.6602 318.488 94.5144 316.096L59.1675 295.709C57.1303 294.531 56.0938 292.995 56.0581 291.46C56.0759 291.389 56.076 291.317 56.076 291.264Z" fill="#6826FF"/>
<path d="M56.076 280.517V272.519L58.2918 271.287C58.9173 275.072 63.3669 277.554 67.0839 278.071L92.4057 292.871L103.467 296.852L138.743 278.66L137.921 278.196C140.941 276.786 142.567 273.573 144.193 270.627L146.57 272.037L147.981 272.43V280.642C147.981 282.213 146.945 283.784 144.872 284.962L109.525 305.349C105.379 307.741 98.6602 307.741 94.5144 305.349L59.1675 284.962C57.1303 283.784 56.0938 282.249 56.0581 280.713C56.0759 280.642 56.076 280.571 56.076 280.517Z" fill="url(#paint6_linear_559_234)"/>
<path d="M109.543 297.226L144.89 276.839C149.036 274.447 149.036 270.573 144.89 268.181L109.543 247.794C105.397 245.402 98.6782 245.402 94.5324 247.794L59.1855 268.181C55.0396 270.573 55.0396 274.447 59.1855 276.839L94.5324 297.226C98.6604 299.618 105.397 299.618 109.543 297.226Z" fill="url(#paint7_linear_559_234)"/>
<path d="M59.1852 276.839L94.5321 297.226C98.6779 299.619 105.397 299.619 109.543 297.226L144.89 276.839C146.748 275.768 147.767 274.412 147.963 273.001C148.214 274.733 147.177 276.5 144.89 277.821L109.543 298.208C105.397 300.6 98.6779 300.6 94.5321 298.208L59.1852 277.821C56.8978 276.5 55.8792 274.715 56.1115 273.001C56.3081 274.412 57.3267 275.768 59.1852 276.839Z" fill="white" fill-opacity="0.32"/>
<path opacity="0.49" d="M99.871 293.005C102.051 293.005 104.231 292.523 105.893 291.577L133.502 275.653C135.164 274.689 136.076 273.404 136.076 272.011C136.076 270.619 135.164 269.316 133.502 268.352L105.893 252.428C102.569 250.518 97.1726 250.518 93.8488 252.428L66.2396 268.352C64.5777 269.316 63.6664 270.601 63.6664 271.994C63.6664 273.386 64.5777 274.689 66.2396 275.653L93.8488 291.577C95.5107 292.523 97.6909 293.005 99.871 293.005ZM99.871 251.589C101.944 251.589 103.999 252.035 105.572 252.945L133.181 268.869C134.646 269.708 135.45 270.815 135.45 271.994C135.45 273.154 134.646 274.261 133.181 275.1L105.572 291.024C102.426 292.845 97.2977 292.845 94.1526 291.024L66.5434 275.1C65.0781 274.261 64.2739 273.154 64.2739 271.976C64.2739 270.815 65.0781 269.708 66.5434 268.869L94.1526 252.945C95.7252 252.035 97.7981 251.589 99.871 251.589Z" fill="#6826FF"/>
<g opacity="0.3">
<path d="M194.381 460.725V452.727L196.597 451.495C197.222 455.28 201.672 457.762 205.389 458.279L230.711 473.079L241.772 477.06L277.048 458.868L276.226 458.404C279.246 456.994 280.872 453.781 282.498 450.835L284.875 452.245L286.287 452.638V460.85C286.287 462.421 285.25 463.992 283.177 465.17L247.83 485.557C243.684 487.949 236.965 487.949 232.82 485.557L197.473 465.17C195.435 463.992 194.399 462.457 194.363 460.921C194.381 460.85 194.381 460.779 194.381 460.725Z" fill="url(#paint8_linear_559_234)"/>
<path opacity="0.3" d="M205.389 458.261L230.711 473.061L240.325 476.524V487.342C237.609 487.342 234.893 486.753 232.82 485.557L197.473 465.17C195.436 463.992 194.399 462.457 194.364 460.921C194.364 460.85 194.364 460.778 194.364 460.707V452.709L196.383 451.585H196.597C197.312 455.316 201.708 457.762 205.389 458.261Z" fill="#0F054C"/>
<path d="M247.848 477.434L283.195 457.047C287.341 454.655 287.341 450.781 283.195 448.389L247.848 428.002C243.703 425.61 236.983 425.61 232.838 428.002L197.491 448.389C193.345 450.781 193.345 454.655 197.491 457.047L232.838 477.434C236.966 479.826 243.703 479.826 247.848 477.434Z" fill="url(#paint9_linear_559_234)"/>
<g opacity="0.3">
<path d="M247.848 477.434L283.195 457.047C287.341 454.655 287.341 450.781 283.195 448.389L247.848 428.002C243.703 425.61 236.983 425.61 232.838 428.002L197.491 448.389C193.345 450.781 193.345 454.655 197.491 457.047L232.838 477.434C236.966 479.826 243.703 479.826 247.848 477.434Z" fill="#6826FF"/>
</g>
</g>
<path opacity="0.4" d="M240.325 483.95C261.894 483.95 283.445 479.22 299.85 469.758C315.808 460.546 324.6 448.3 324.6 435.25C324.6 422.2 315.808 409.954 299.85 400.742C267.023 381.819 213.627 381.819 180.8 400.742C164.842 409.954 156.05 422.2 156.05 435.25C156.05 448.3 164.842 460.564 180.8 469.758C197.223 479.22 218.774 483.95 240.325 483.95ZM240.343 387.139C261.787 387.139 283.231 391.852 299.546 401.26C315.308 410.347 323.975 422.414 323.975 435.232C323.975 448.05 315.29 460.118 299.546 469.205C266.898 488.038 213.77 488.038 181.122 469.205C165.36 460.118 156.693 448.05 156.693 435.232C156.693 422.414 165.378 410.347 181.122 401.26C197.455 391.852 218.899 387.139 240.343 387.139Z" fill="url(#paint10_linear_559_234)"/>
<path opacity="0.2" d="M240.343 497C267.702 497 295.061 491.002 315.88 478.988C336.108 467.312 347.259 451.781 347.259 435.232C347.259 418.701 336.108 403.152 315.88 391.495C274.225 367.466 206.461 367.484 164.806 391.495C144.578 403.17 133.427 418.701 133.427 435.25C133.427 451.781 144.578 467.33 164.806 478.988C185.625 491.002 212.984 497 240.343 497ZM240.343 374.089C267.595 374.089 294.829 380.07 315.576 392.03C335.608 403.581 346.652 418.933 346.652 435.232C346.652 451.549 335.626 466.884 315.576 478.452C274.099 502.374 206.604 502.374 165.128 478.452C145.096 466.902 134.052 451.549 134.052 435.25C134.052 418.933 145.078 403.599 165.128 392.048C185.857 380.07 213.091 374.089 240.343 374.089Z" fill="url(#paint11_linear_559_234)"/>
<path d="M240.343 473.667C257.337 473.667 274.314 469.936 287.252 462.474C299.832 455.209 306.766 445.533 306.766 435.232C306.766 424.932 299.832 415.256 287.252 407.99C261.394 393.066 219.292 393.084 193.434 407.99C180.853 415.256 173.92 424.932 173.92 435.232C173.92 445.533 180.853 455.209 193.434 462.474C206.354 469.936 223.348 473.667 240.343 473.667ZM240.343 397.422C257.212 397.422 274.099 401.135 286.948 408.543C299.332 415.684 306.158 425.164 306.158 435.25C306.158 445.319 299.332 454.798 286.948 461.957C261.251 476.774 219.435 476.774 193.738 461.957C181.354 454.816 174.527 445.336 174.527 435.25C174.527 425.181 181.354 415.702 193.738 408.543C206.586 401.135 223.473 397.422 240.343 397.422Z" fill="url(#paint12_linear_559_234)"/>
<path d="M240.343 447.782C242.756 447.782 245.168 447.247 247.009 446.193L282.355 425.806C284.196 424.753 285.197 423.325 285.197 421.79C285.197 420.254 284.178 418.826 282.355 417.773L247.009 397.386C243.327 395.262 237.359 395.262 233.678 397.386L198.331 417.773C196.49 418.826 195.489 420.254 195.489 421.79C195.489 423.325 196.508 424.753 198.331 425.806L233.678 446.193C235.518 447.247 237.931 447.782 240.343 447.782ZM246.687 445.64C243.184 447.657 237.484 447.657 233.981 445.64L198.634 425.253C197.008 424.307 196.097 423.075 196.097 421.772C196.097 420.469 196.99 419.237 198.634 418.291L233.981 397.904C237.484 395.886 243.184 395.886 246.687 397.904L282.034 418.291C283.66 419.237 284.571 420.469 284.571 421.772C284.571 423.075 283.678 424.307 282.034 425.253L246.687 445.64Z" fill="url(#paint13_linear_559_234)"/>
<path opacity="0.4" d="M194.382 413.953V401.867L196.597 400.635C197.223 404.42 201.673 406.901 205.39 407.419L230.711 422.218L241.773 426.199L277.048 408.008L276.226 407.544C279.246 406.134 280.873 402.92 282.499 399.975L284.875 401.385L286.287 401.778V414.078C286.287 415.649 285.251 417.22 283.178 418.398L247.831 438.785C243.685 441.177 236.966 441.177 232.82 438.785L197.473 418.398C195.436 417.22 194.399 415.684 194.364 414.149C194.382 414.078 194.382 414.024 194.382 413.953Z" fill="#6826FF"/>
<path d="M194.382 403.206V395.208L196.597 393.976C197.223 397.761 201.673 400.242 205.39 400.76L230.711 415.56L241.773 419.541L277.048 401.349L276.226 400.885C279.246 399.475 280.873 396.261 282.499 393.316L284.875 394.726L286.287 395.119V403.331C286.287 404.902 285.251 406.473 283.178 407.651L247.831 428.038C243.685 430.43 236.966 430.43 232.82 428.038L197.473 407.651C195.436 406.473 194.399 404.938 194.364 403.402C194.382 403.331 194.382 403.277 194.382 403.206Z" fill="url(#paint14_linear_559_234)"/>
<path d="M247.849 419.915L283.196 399.528C287.342 397.136 287.342 393.262 283.196 390.87L247.849 370.483C243.703 368.091 236.984 368.091 232.838 370.483L197.491 390.87C193.345 393.262 193.345 397.136 197.491 399.528L232.838 419.915C236.966 422.307 243.703 422.307 247.849 419.915Z" fill="url(#paint15_linear_559_234)"/>
<path opacity="0.49" d="M240.343 416.22C242.523 416.22 244.703 415.738 246.365 414.792L273.975 398.868C275.636 397.904 276.548 396.618 276.548 395.226C276.548 393.834 275.636 392.53 273.975 391.566L246.365 375.642C243.042 373.732 237.645 373.732 234.321 375.642L206.712 391.566C205.05 392.53 204.139 393.816 204.139 395.208C204.139 396.601 205.05 397.904 206.712 398.868L234.321 414.792C235.983 415.738 238.163 416.22 240.343 416.22ZM240.343 374.803C242.416 374.803 244.471 375.25 246.044 376.16L273.653 392.084C275.118 392.923 275.922 394.03 275.922 395.208C275.922 396.368 275.118 397.475 273.653 398.314L246.044 414.238C242.899 416.059 237.77 416.059 234.625 414.238L207.016 398.314C205.55 397.475 204.746 396.369 204.746 395.19C204.746 394.03 205.55 392.923 207.016 392.084L234.625 376.16C236.197 375.25 238.27 374.803 240.343 374.803Z" fill="#6826FF"/>
<path d="M197.491 399.528L232.838 419.915C236.984 422.308 243.703 422.308 247.849 419.915L283.196 399.528C285.054 398.457 286.073 397.1 286.269 395.69C286.519 397.422 285.483 399.189 283.196 400.51L247.849 420.897C243.703 423.289 236.984 423.289 232.838 420.897L197.491 400.51C195.204 399.189 194.185 397.404 194.417 395.69C194.614 397.1 195.632 398.457 197.491 399.528Z" fill="white" fill-opacity="0.32"/>
<g opacity="0.3">
<path d="M496.688 176.896V168.898L498.904 167.666C499.53 171.451 503.979 173.932 507.696 174.45L533.018 189.249L544.08 193.23L579.355 175.039L578.533 174.575C581.553 173.165 583.179 169.951 584.805 167.006L587.182 168.416L588.594 168.809V177.021C588.594 178.592 587.557 180.163 585.484 181.341L550.137 201.728C545.992 204.12 539.272 204.12 535.127 201.728L499.78 181.359C497.743 180.181 496.706 178.645 496.67 177.11C496.688 177.039 496.688 176.967 496.688 176.896Z" fill="#6826FF"/>
<path opacity="0.3" d="M507.696 174.45L533.018 189.249L542.632 192.713V203.531C539.916 203.531 537.2 202.942 535.127 201.746L499.78 181.359C497.743 180.181 496.706 178.645 496.671 177.11C496.671 177.039 496.671 176.967 496.671 176.896V168.898L498.69 167.773H498.904C499.601 171.487 504.015 173.932 507.696 174.45Z" fill="#0F054C"/>
<path d="M550.138 193.605L585.502 173.218C589.648 170.826 589.648 166.952 585.502 164.56L550.156 144.173C546.01 141.781 539.291 141.781 535.145 144.173L499.78 164.56C495.634 166.952 495.634 170.826 499.78 173.218L535.127 193.605C539.273 195.997 546.01 195.997 550.138 193.605Z" fill="url(#paint16_linear_559_234)"/>
<g opacity="0.3">
<path d="M550.138 193.605L585.502 173.218C589.648 170.826 589.648 166.952 585.502 164.56L550.156 144.173C546.01 141.781 539.291 141.781 535.145 144.173L499.78 164.56C495.634 166.952 495.634 170.826 499.78 173.218L535.127 193.605C539.273 195.997 546.01 195.997 550.138 193.605Z" fill="#6826FF"/>
</g>
</g>
<path opacity="0.49" d="M542.632 167.916C545.045 167.916 547.457 167.381 549.298 166.327L584.645 145.94C586.485 144.887 587.486 143.459 587.486 141.924C587.486 140.388 586.467 138.96 584.645 137.907L549.298 117.52C545.616 115.396 539.648 115.396 535.967 117.52L500.62 137.907C498.779 138.96 497.778 140.388 497.778 141.924C497.778 143.459 498.797 144.887 500.62 145.94L535.984 166.327C537.807 167.381 540.22 167.916 542.632 167.916ZM548.994 165.792C545.491 167.809 539.791 167.809 536.288 165.792L500.941 145.405C499.297 144.459 498.404 143.227 498.404 141.924C498.404 140.621 499.297 139.389 500.941 138.443L536.288 118.038C539.791 116.02 545.491 116.02 548.994 118.038L584.341 138.425C585.967 139.371 586.878 140.603 586.878 141.906C586.878 143.209 585.985 144.441 584.341 145.387L548.994 165.792Z" fill="#6826FF"/>
<path opacity="0.49" d="M496.688 134.087V122.001L498.904 120.769C499.53 124.554 503.979 127.035 507.696 127.553L533.018 142.352L544.08 146.333L579.355 128.142L578.533 127.678C581.553 126.268 583.179 123.054 584.805 120.109L587.182 121.519L588.594 121.912V134.212C588.594 135.783 587.557 137.354 585.484 138.532L550.137 158.919C545.992 161.311 539.272 161.311 535.127 158.919L499.78 138.55C497.743 137.372 496.706 135.836 496.67 134.301C496.688 134.23 496.688 134.158 496.688 134.087Z" fill="#6826FF"/>
<path d="M496.688 123.34V115.342L498.904 114.11C499.53 117.895 503.979 120.377 507.696 120.894L533.018 135.694L544.08 139.675L579.355 121.483L578.533 121.019C581.553 119.609 583.179 116.396 584.805 113.45L587.182 114.86L588.594 115.253V123.465C588.594 125.036 587.557 126.607 585.484 127.785L550.137 148.172C545.992 150.564 539.272 150.564 535.127 148.172L499.78 127.803C497.743 126.625 496.706 125.089 496.67 123.554C496.688 123.483 496.688 123.411 496.688 123.34Z" fill="url(#paint17_linear_559_234)"/>
<path d="M550.138 140.049L585.502 119.662C589.648 117.27 589.648 113.396 585.502 111.004L550.156 90.6171C546.01 88.225 539.291 88.225 535.145 90.6171L499.78 111.004C495.634 113.396 495.634 117.27 499.78 119.662L535.127 140.049C539.273 142.441 546.01 142.441 550.138 140.049Z" fill="url(#paint18_linear_559_234)"/>
<path opacity="0.49" d="M542.632 136.354C544.812 136.354 546.992 135.872 548.654 134.926L576.263 119.002C577.925 118.038 578.836 116.752 578.836 115.36C578.836 113.968 577.925 112.664 576.263 111.718L548.654 95.7942C545.33 93.884 539.933 93.884 536.61 95.7942L509 111.718C507.338 112.682 506.427 113.968 506.427 115.378C506.427 116.77 507.338 118.073 509 119.02L536.61 134.944C538.271 135.872 540.452 136.354 542.632 136.354ZM548.35 134.39C545.205 136.211 540.076 136.211 536.931 134.39L509.322 118.466C507.857 117.627 507.053 116.52 507.053 115.36C507.053 114.2 507.857 113.093 509.322 112.236L536.931 96.3119C540.076 94.491 545.205 94.491 548.35 96.3119L575.959 112.236C577.425 113.075 578.229 114.182 578.229 115.342C578.229 116.503 577.425 117.609 575.959 118.448L548.35 134.39Z" fill="#6826FF"/>
<path opacity="0.5" d="M499.78 119.662L535.127 140.049C539.272 142.442 545.992 142.442 550.137 140.049L585.502 119.662C587.361 118.591 588.379 117.235 588.576 115.824C588.826 117.556 587.79 119.323 585.502 120.644L550.155 141.031C546.009 143.423 539.29 143.423 535.144 141.031L499.78 120.662C497.492 119.341 496.474 117.556 496.706 115.842C496.92 117.235 497.939 118.609 499.78 119.662Z" fill="white"/>
<path d="M284.16 230.166L284.232 229.47C268.488 227.863 252.816 222.722 240.093 214.992C226.226 206.566 217.988 198.265 215.593 190.321L214.914 190.535C217.362 198.657 225.708 207.101 239.736 215.617C252.513 223.365 268.31 228.542 284.16 230.166Z" fill="white"/>
<path d="M214.896 184.84C215.272 178.449 220.007 172.593 228.585 167.898C247.277 157.687 271.294 158.276 296.223 169.559L296.509 168.916C271.366 157.544 247.116 156.955 228.245 167.274C219.435 172.094 214.575 178.145 214.182 184.804L214.896 184.84Z" fill="white"/>
<path d="M300.047 230.488C308.696 229.881 316.326 227.881 322.116 224.704C328.46 221.24 332.463 216.474 333.696 210.904C333.821 210.297 333.66 209.708 333.231 209.172C332.374 208.155 330.622 207.566 328.728 207.584C326.602 207.655 324.904 208.53 324.529 209.779C323.26 213.885 320.026 217.456 315.201 220.098C298.582 229.184 267.13 225.668 245.061 212.279C230.729 203.567 223.242 194.784 223.42 186.875C223.545 181.234 227.62 176.057 235.179 171.915C254.335 161.436 279.889 164.292 305.318 179.734C314.539 185.34 321.098 192.106 323.796 198.818C324.243 199.907 325.762 200.71 327.585 200.8C329.389 200.871 331.051 200.282 331.712 199.282C332.07 198.765 332.124 198.158 331.855 197.604C328.317 190.017 320.99 182.698 310.662 176.414L310.286 177.021C320.508 183.233 327.745 190.446 331.212 197.908C331.373 198.247 331.337 198.586 331.123 198.89C330.587 199.675 329.157 200.175 327.62 200.086C326.083 200.014 324.779 199.372 324.439 198.55C321.687 191.695 315.04 184.804 305.676 179.127C280.032 163.56 254.21 160.686 234.839 171.29C227.048 175.557 222.848 180.93 222.705 186.857C222.527 195.034 230.121 204.049 244.686 212.886C266.934 226.4 298.724 229.916 315.522 220.723C320.526 217.991 323.868 214.278 325.19 209.994C325.476 209.065 326.977 208.351 328.746 208.298C330.39 208.262 331.981 208.78 332.677 209.636C332.981 209.994 333.088 210.386 332.999 210.761C331.802 216.117 327.924 220.723 321.759 224.097C316.058 227.221 308.517 229.184 299.975 229.791L300.047 230.488Z" fill="white"/>
<path d="M274.242 219.187C275.672 219.187 277.03 218.741 277.763 217.973C278.263 217.456 278.424 216.813 278.245 216.206C277.977 215.313 276.977 214.581 275.601 214.278C268.506 212.671 261.68 209.94 255.819 206.387C246.169 200.514 240.736 194.694 240.147 189.535C239.843 186.857 240.808 184.394 243.041 182.198C243.578 181.662 243.792 181.02 243.667 180.377C243.488 179.502 242.684 178.735 241.451 178.288C239.217 177.449 236.322 177.842 235 179.181C232.248 181.966 230.926 185.072 231.122 188.41C231.39 193.338 234.893 198.568 241.54 203.924L241.987 203.37C235.5 198.14 232.087 193.088 231.837 188.375C231.658 185.251 232.909 182.323 235.518 179.699C236.644 178.556 239.253 178.217 241.219 178.967C242.202 179.342 242.863 179.931 242.988 180.556C243.077 180.966 242.916 181.359 242.559 181.716C240.164 184.072 239.128 186.732 239.467 189.642C240.111 195.105 245.49 200.942 255.479 207.03C261.394 210.618 268.31 213.367 275.458 214.992C276.566 215.242 277.388 215.795 277.584 216.438C277.691 216.813 277.584 217.17 277.263 217.509C276.441 218.366 274.546 218.741 272.92 218.348C264.843 216.42 257.105 213.296 250.529 209.297L250.154 209.904C256.783 213.939 264.593 217.081 272.741 219.027C273.242 219.134 273.742 219.187 274.242 219.187Z" fill="white"/>
<path d="M290.683 221.169C290.701 221.169 290.719 221.169 290.737 221.169C298.26 221.115 304.747 219.687 309.536 217.081C314.825 214.189 317.685 210.065 317.792 205.138C317.971 197.515 311.394 188.91 300.208 182.127C282.32 171.255 264.307 167.488 249.493 171.487C248.117 171.862 247.152 172.594 246.866 173.504C246.669 174.129 246.812 174.789 247.295 175.361C248.42 176.717 251.208 177.324 253.478 176.7C264.36 173.7 277.942 176.289 291.684 183.965C292.345 184.34 292.72 184.822 292.72 185.304C292.72 185.768 292.381 186.197 291.755 186.554C290.415 187.286 288.199 187.268 286.841 186.518C273.528 179.092 261.055 177.485 252.62 182.109C249.368 183.894 247.598 186.25 247.545 188.928C247.438 193.427 252.084 198.64 260.947 204.031C273.403 211.6 289.915 214.26 297.777 209.958C300.101 208.69 301.53 206.869 301.905 204.709C302.406 201.835 301.03 198.372 298.028 194.962C297.742 194.641 297.652 194.319 297.724 193.998C297.849 193.516 298.349 193.052 299.118 192.766C300.869 192.088 303.335 192.463 304.3 193.552C307.963 197.693 309.625 201.978 308.982 205.62C308.464 208.548 306.462 211.047 303.192 212.85C299.94 214.635 295.508 215.67 290.397 215.849C288.145 215.92 286.43 216.956 286.341 218.313C286.305 218.902 286.501 219.419 286.93 219.866C287.681 220.651 289.128 221.169 290.683 221.169ZM261.644 170.612C273.528 170.612 286.716 174.736 299.832 182.716C310.805 189.374 317.238 197.747 317.077 205.102C316.97 209.761 314.236 213.671 309.196 216.438C304.514 218.991 298.135 220.383 290.737 220.437C289.396 220.437 288.074 220.008 287.413 219.312C287.216 219.098 286.984 218.777 287.02 218.366C287.091 217.331 288.574 216.545 290.397 216.474C295.615 216.295 300.154 215.224 303.514 213.385C306.98 211.493 309.107 208.815 309.661 205.655C310.34 201.799 308.625 197.301 304.818 192.998C303.657 191.695 300.869 191.231 298.832 192.017C297.849 192.391 297.188 193.034 297.009 193.748C296.866 194.302 297.045 194.873 297.456 195.355C300.315 198.586 301.619 201.835 301.155 204.495C300.815 206.459 299.547 208.066 297.384 209.244C289.718 213.421 273.528 210.779 261.269 203.335C252.638 198.086 248.117 193.088 248.206 188.857C248.26 186.447 249.886 184.304 252.906 182.644C261.126 178.146 273.349 179.752 286.448 187.054C288.02 187.928 290.486 187.964 292.059 187.107C292.917 186.643 293.381 185.983 293.399 185.251C293.399 184.501 292.899 183.787 292.005 183.287C278.103 175.503 264.343 172.897 253.263 175.95C251.262 176.503 248.76 176.003 247.813 174.843C247.491 174.45 247.384 174.04 247.509 173.647C247.724 172.986 248.51 172.415 249.636 172.112C253.46 171.13 257.481 170.612 261.644 170.612Z" fill="white"/>
<path d="M286.358 207.334C288.556 207.334 290.397 206.976 291.719 206.245C293.185 205.441 293.971 204.245 294.007 202.746C294.078 199.336 290.218 194.837 283.91 191.017C273.403 184.626 264.2 182.716 258.642 185.733C256.909 186.679 255.944 187.982 255.872 189.517C255.729 192.249 258.445 195.605 263.735 199.211C265.254 200.246 267.952 200.353 269.614 199.443C270.436 198.997 270.919 198.354 270.954 197.658C270.99 196.979 270.615 196.337 269.882 195.855C265.54 192.891 265.129 191.463 265.147 190.999C265.147 190.838 265.218 190.588 265.593 190.392C266.273 190.017 269.203 189.214 278.103 194.623C278.817 195.051 279.496 195.498 280.122 195.926C283.589 198.318 285.108 200.282 285.072 201.175L285.787 201.192C285.822 199.854 283.857 197.658 280.533 195.337C279.89 194.891 279.21 194.444 278.478 193.998C272.08 190.106 267.381 188.589 265.272 189.749C264.629 190.106 264.468 190.588 264.45 190.945C264.378 192.266 266.076 194.105 269.489 196.426C270.007 196.765 270.275 197.194 270.258 197.604C270.24 198.05 269.9 198.479 269.293 198.8C267.845 199.586 265.451 199.496 264.146 198.604C257.749 194.23 256.516 191.249 256.587 189.535C256.658 188.25 257.463 187.179 258.999 186.34C264.307 183.43 273.26 185.358 283.553 191.606C289.557 195.248 293.381 199.604 293.31 202.728C293.274 203.959 292.631 204.941 291.398 205.62C288.682 207.101 283.535 206.941 277.62 205.156L277.423 205.834C280.694 206.834 283.767 207.334 286.358 207.334Z" fill="white"/>
<path opacity="0.2" d="M436.47 318.776C466.022 318.718 484.443 302.485 469.648 289.583C462.783 283.598 450.102 279.917 436.393 279.956C406.861 280.014 388.42 296.247 403.215 309.148C410.08 315.134 422.761 318.814 436.47 318.776Z" fill="#302E93"/>
<path d="M449.141 274.871C449.141 274.871 450.265 276.033 451.429 277.408C452.592 278.784 455.85 280.701 457.227 281.534C458.603 282.387 464.886 287.133 466.185 291.82C467.504 296.508 463.005 297.128 458.41 296.314C453.814 295.501 449.529 291.278 448.288 289.748C447.047 288.217 442.684 284.75 437.06 281.844C431.418 278.939 434.83 275.006 434.83 275.006L449.141 274.871Z" fill="#160A5B"/>
<path d="M407.296 288.779C407.296 288.779 406.365 290.89 406.113 293.602C405.841 296.314 405.473 302.184 405.337 303.908C405.201 305.632 405.143 309.835 408.168 313.845C411.193 317.874 412.764 319.463 416.778 317.874C420.791 316.286 420.714 309.545 419.996 306.077C419.279 302.61 418.62 294.842 418.697 294.028C418.775 293.215 418.465 292.692 418.465 292.692L407.296 288.779Z" fill="#160A5B"/>
<path d="M463.005 195.294C463.005 195.294 462.152 226.23 454.939 242.637C454.939 242.637 449.781 257.088 449.083 274.289C449.083 274.289 450.285 277.253 448.579 279.655C446.892 282.057 436.285 284.266 434.54 276.362C432.795 268.459 433.454 253.659 435.393 247.48C437.313 241.3 434.714 224.292 434.714 224.292C434.714 224.292 431.825 226.133 428.025 238.356C424.224 250.579 421.432 255.228 420.133 258.618C418.833 261.989 417.631 282.697 418.446 292.808C418.446 292.808 409.875 294.029 407.393 289.922C404.911 285.835 404.077 264.643 404.717 257.882C405.337 251.122 408.168 229.484 407.781 222.782C407.393 216.079 405.997 210.636 407.529 203.953C409.06 197.27 454.338 182.431 454.338 182.431L463.005 195.294Z" fill="#24126A"/>
<path d="M407.8 222.82C407.412 216.118 406.016 210.674 407.548 203.991C408.13 201.473 414.878 197.812 423.08 194.209C436.925 192.95 454.493 191.478 455.715 191.671C456.8 191.846 459.67 192.93 462.055 193.88L463.025 195.313C463.025 195.313 462.967 197.192 462.792 200.272C459.554 201.241 453.349 200.233 453.349 200.233C452.476 202.403 447.066 210.113 440.357 213.445C433.648 216.776 414.005 215.633 412.861 216.893C411.736 218.152 411.523 235.082 411.64 237.252C411.756 239.402 409.797 252.962 407.955 264.952C406.152 276.749 408.886 291.084 408.983 291.53C408.343 291.123 407.8 290.619 407.412 289.98C404.93 285.893 404.097 264.701 404.736 257.94C405.357 251.16 408.188 229.523 407.8 222.82Z" fill="#160A5B"/>
<path d="M447.861 94.1377C447.861 94.1377 457.906 96.4235 461.279 97.2177C461.842 97.3533 462.288 97.7408 462.501 98.2831C463.471 100.743 465.914 108.414 464.072 119.611C461.803 133.364 462.521 142.624 462.521 142.624L467.174 166.78C467.174 166.78 473.011 189.773 472.507 190.412C472.003 191.032 459.069 200.873 455.016 199.497C450.964 198.103 452.302 195.817 452.302 195.817C452.302 195.817 449.025 212.495 434.52 212.321C420.016 212.166 408.168 212.205 405.706 206.355C403.243 200.505 406.384 175.884 408.944 166.121C411.504 156.377 417.573 136.948 417.573 136.948L396.321 113.451L414.47 99.6004C414.47 99.6004 418.814 91.542 420.598 90.5347C422.382 89.508 423.312 90.3797 423.312 90.3797L447.861 94.1377Z" fill="#453C9E"/>
<path d="M454.784 194.151C454.764 194.984 455.268 196.223 457.867 197.134C460.678 198.102 467.582 193.899 472.1 190.761C469.831 192.64 458.72 200.737 455.016 199.478C454.221 199.207 453.62 198.897 453.194 198.567C454.027 196.708 454.532 195.1 454.784 194.151Z" fill="url(#paint19_linear_559_234)"/>
<path d="M405.822 204.379C408.42 210.558 420.927 210.519 436.227 210.674C440.124 210.713 443.246 209.609 445.748 207.943C443.091 210.461 439.465 212.36 434.54 212.302C420.035 212.147 408.188 212.185 405.725 206.335C404.911 204.418 404.717 200.466 404.891 195.681C404.853 199.575 405.124 202.713 405.822 204.379Z" fill="url(#paint20_linear_559_234)"/>
<path d="M421.005 90.3214C421.005 90.3214 417.302 94.7961 422.634 100.859C425.911 104.579 431.573 112.618 436.382 120.947C439.388 126.158 442.16 128.928 443.75 133.403C443.75 133.403 443.964 128.076 444.177 119.882C444.371 112.133 444.487 104.075 444.138 102.06C443.421 97.8761 425.116 88.2874 421.005 90.3214Z" fill="#F0F6FF"/>
<path d="M434.87 103.804C434.87 103.804 436.77 104.985 437.429 104.889C438.088 104.792 440.183 102.758 440.183 102.758C440.183 102.758 445.457 102.661 446.019 100.414C446.601 98.1668 446.969 95.881 447.512 94.7187C448.036 93.5565 450.324 87.9194 450.343 85.653C450.363 83.3672 450.266 79.2993 451.255 77.1491C452.244 74.9989 453.562 53.4 432.698 54.0199C411.833 54.6204 418.31 76.2774 418.31 76.2774C418.31 76.2774 416.778 76.9166 417.709 79.7061C418.639 82.4955 418.833 82.7861 419.318 84.1614C419.784 85.5368 420.016 86.4279 421.354 87.5514L421.703 90.1278C421.703 90.1278 420.714 94.0407 423.313 97.8569C425.892 101.615 434.87 103.804 434.87 103.804Z" fill="#FCD1C5"/>
<path d="M461.861 97.4692C461.861 97.4692 464.091 97.7986 471.304 115.949C475.338 126.08 481.543 136.56 482.861 144.076C484.18 151.592 483.443 159.651 481.95 160.212C480.515 160.755 454.57 170.46 446.465 173.52C446.019 173.695 445.534 173.404 445.437 172.939L443.207 160.426L459.302 154.207C459.302 154.207 462.365 150.469 465.255 149.055C465.255 149.055 462.036 143.108 462.23 141.5C462.443 139.873 461.939 123.097 463.82 116.259C465.72 109.421 461.861 97.4692 461.861 97.4692Z" fill="#281B77"/>
<path d="M452.437 145.413C452.437 145.413 454.648 143.921 455.21 143.708C455.753 143.495 458.72 142.488 459.282 142.236C459.709 142.042 461.435 142.197 462.288 142.275C462.598 142.314 462.87 142.488 463.025 142.759C463.703 144.038 465.623 147.718 465.41 149.132C465.41 149.132 460.058 152.522 459.457 154.014L458.604 154.188C458.584 154.207 454.997 146.517 452.437 145.413Z" fill="#FCD1C5"/>
<path d="M408.944 166.101C409.565 163.758 410.379 160.852 411.271 157.791L443.867 171.758C443.867 171.758 434.113 183.749 417.011 182.974C412.337 182.761 408.925 181.075 406.423 179.623C407.179 174.295 408.091 169.375 408.944 166.101Z" fill="#453C9E"/>
<path d="M396.341 113.431C396.341 113.431 404.931 114.613 411.892 125.616C418.834 136.618 423.895 149.345 423.895 149.345L424.127 150.779C424.748 154.517 428.742 156.668 432.213 155.118C439.543 151.844 450.402 146.905 452.438 145.413C452.438 145.413 458.934 148.997 460.698 157.481C462.114 164.242 461.745 164.261 461.745 164.261C461.745 164.261 432.795 177.763 421.626 177.627C410.438 177.492 396.263 140.783 394.712 133.19C393.141 125.577 391.415 115.581 396.341 113.431Z" fill="#24126A"/>
<path d="M396.341 113.431C396.341 113.431 404.931 114.613 411.892 125.616C418.834 136.618 423.895 149.345 423.895 149.345L424.127 150.779C424.748 154.517 428.742 156.668 432.213 155.118C439.543 151.844 450.402 146.905 452.438 145.413C452.438 145.413 458.934 148.997 460.698 157.481C462.114 164.242 461.745 164.261 461.745 164.261C461.745 164.261 432.795 177.763 421.626 177.627C410.438 177.492 396.263 140.783 394.712 133.19C393.141 125.577 391.415 115.581 396.341 113.431Z" fill="#4846A5"/>
<path d="M428.044 156.823C428.044 156.823 424.398 160.232 422.808 158.372C421.218 156.513 421.684 156.3 421.684 156.3C421.684 156.3 418.407 156.261 418 154.208C417.592 152.154 415.983 153.239 415.886 150.953C415.789 148.667 418.543 149.132 418.543 149.132L428.044 156.823Z" fill="#453C9E"/>
<path d="M432.465 155.002C432.465 155.002 431.457 154.072 430.157 152.968C428.858 151.864 426.764 147.35 426.415 146.943C426.066 146.537 421.684 143.205 419.589 143.147C417.476 143.088 419.046 145.452 419.531 145.781C420.016 146.11 422.071 147.137 422.071 147.137C422.071 147.137 424.185 148.919 424.418 149.171C424.65 149.423 418.542 148.745 417.573 149.345C416.603 149.946 416.836 151.496 417.515 151.922C418.193 152.348 418.717 152.328 418.717 152.328C418.717 152.328 418.019 154.169 419.861 155.021C421.703 155.873 422.13 155.409 422.13 155.409C422.13 155.409 422.285 158.585 425.329 157.965L432.465 155.002Z" fill="#FCD1C5"/>
<path d="M451.72 66.0687C451.72 66.0687 454.454 74.7276 447.28 72.2675C440.105 69.8073 433.628 65.6813 431.379 67.2504C429.673 68.4514 429.75 72.1125 429.886 73.7978C429.925 74.3789 429.789 74.9407 429.459 75.4056L427.326 78.4856C427.094 78.8343 426.939 79.2411 426.919 79.6673L426.764 81.8175C426.725 82.3599 426.299 82.786 425.756 82.8248L425.271 82.8441C424.728 82.8829 424.243 82.4955 424.146 81.9531L423.584 78.7956C423.584 78.7956 421.897 74.5533 418.329 76.2192C418.329 76.2192 415.944 73.023 416.739 66.1656C417.534 59.3275 420.598 52.199 434.055 51.0561C447.493 49.9325 451.72 66.0687 451.72 66.0687Z" fill="#AA8383"/>
<path d="M431.185 111.417L433.202 109.847C433.202 109.847 435.063 111.397 435.781 113.024C436.498 114.671 435.781 119.862 435.781 119.862L436.401 120.908L437.157 119.533L437.797 113.373C437.797 113.373 437.119 108.821 437.041 108.705C436.983 108.588 433.163 109.111 433.163 109.111C433.163 109.111 431.825 110.157 431.185 111.417Z" fill="#C4CCD6"/>
<path d="M440.861 105.295C440.861 105.295 443.014 105.431 443.983 106.245C443.983 106.245 441.734 106.361 441.366 106.4C440.997 106.438 440.861 105.295 440.861 105.295Z" fill="#C4CCD6"/>
<path d="M436.75 105.78L433.144 109.15C433.144 109.15 436.304 110.603 437.196 113.431C437.196 113.431 441.113 114.167 441.482 112.734C441.831 111.32 441.482 107.736 441.947 106.148C442.412 104.578 436.75 105.78 436.75 105.78Z" fill="#24126A"/>
<path d="M441.346 112.656C441.346 112.656 442.025 115.601 442.742 116.821C443.479 118.041 444.216 119.397 444.216 119.397L444.119 136.696C444.119 136.696 437.759 123.581 436.363 120.928C436.363 120.928 436.576 114.613 437.177 113.412C437.797 112.23 441.346 112.656 441.346 112.656Z" fill="#24126A"/>
<path d="M424.244 87.1057C428.432 99.1546 440.202 102.738 440.202 102.738C440.202 102.738 438.108 104.772 437.449 104.869C436.789 104.966 434.889 103.784 434.889 103.784C434.889 103.784 425.911 101.595 423.313 97.7986C420.714 93.9825 421.703 90.0695 421.703 90.0695L421.354 87.4931C423.216 88.113 424.244 87.1057 424.244 87.1057Z" fill="#E2B1A6"/>
<path d="M414.664 101.208C414.664 101.208 416.313 106.903 416.526 107.116C416.739 107.329 420.675 106.884 420.675 106.884L418.756 110.506C418.756 110.506 438.573 131.737 442.665 143.147C442.665 143.147 433.299 128.676 416.797 111.397L419.124 107.872L415.072 108.666L414.664 101.208Z" fill="#24126A"/>
<path d="M447.202 96.1907L448.249 97.3917L447.008 98.5346L450.673 101.847C450.673 101.847 451.798 125.054 447.319 140.434C447.319 140.434 453.388 126.332 452.011 101.208L448.055 98.5152L449.355 97.2367L447.202 96.1907Z" fill="#24126A"/>
<path d="M434.734 224.312C434.734 224.312 434.695 224.35 434.598 224.428L439.737 218.965C437.371 222.297 440.105 237.581 440.376 241.087C440.667 244.593 437.642 251.819 436.498 260.284C435.374 268.73 437.681 280.798 437.7 280.837C436.227 279.984 435.063 278.57 434.579 276.381C432.833 268.478 433.493 253.678 435.432 247.499C437.332 241.319 434.734 224.312 434.734 224.312Z" fill="#160A5B"/>
<path d="M421.626 177.608C410.437 177.472 396.263 140.764 394.712 133.17C394.459 131.911 394.188 130.575 393.955 129.219C393.994 129.335 396.883 137.258 399.695 144.29C402.507 151.36 417.457 172.823 425.077 174.218C431.961 175.477 456.723 163.932 461.532 161.646C461.959 164.222 461.784 164.242 461.784 164.242C461.784 164.242 432.814 177.744 421.626 177.608Z" fill="#24126A"/>
<path d="M425.252 82.8442C424.709 82.8829 424.224 82.4955 424.127 81.9531L423.565 78.7956C423.565 78.7956 421.878 74.5533 418.31 76.2192C418.31 76.2192 416.061 73.178 416.662 66.708C420.618 72.655 429.421 75.4057 429.421 75.4057L427.288 78.4857C427.055 78.8344 426.9 79.2411 426.881 79.6673L426.726 81.8175C426.687 82.3599 426.26 82.7861 425.717 82.8248L425.252 82.8442Z" fill="#936D6D"/>
<path opacity="0.2" d="M330.309 312.12C358.425 312.065 375.951 296.621 361.875 284.347C355.344 278.652 343.279 275.15 330.236 275.187C302.139 275.242 284.594 290.686 298.67 302.961C305.219 308.656 317.266 312.139 330.309 312.12Z" fill="#302E93"/>
<path d="M312.304 268.441C312.304 268.441 311.086 269.695 309.832 271.187C308.577 272.68 305.035 274.744 303.559 275.666C302.083 276.587 295.276 281.748 293.837 286.816C292.416 291.884 297.287 292.566 302.249 291.682C307.23 290.797 311.879 286.208 313.226 284.568C314.573 282.909 319.296 279.149 325.402 275.998C331.509 272.846 327.819 268.589 327.819 268.589L312.304 268.441Z" fill="#160A5B"/>
<path d="M357.632 283.517C357.632 283.517 358.647 285.803 358.923 288.733C359.2 291.663 359.624 298.022 359.772 299.883C359.92 301.745 359.993 306.297 356.71 310.665C353.426 315.033 351.728 316.747 347.375 315.033C343.021 313.319 343.113 306.002 343.888 302.261C344.663 298.501 345.382 290.097 345.29 289.212C345.216 288.328 345.548 287.775 345.548 287.775L357.632 283.517Z" fill="#160A5B"/>
<path d="M297.268 182.226C297.268 182.226 298.191 215.732 306.013 233.517C306.013 233.517 311.603 249.182 312.359 267.815C312.359 267.815 311.068 271.022 312.894 273.639C314.721 276.256 326.196 278.633 328.096 270.063C329.996 261.493 329.258 245.459 327.173 238.769C325.089 232.079 327.911 213.649 327.911 213.649C327.911 213.649 331.048 215.658 335.162 228.891C339.276 242.124 342.301 247.173 343.722 250.841C345.142 254.49 346.434 276.938 345.548 287.885C345.548 287.885 354.846 289.212 357.521 284.77C360.215 280.329 361.1 257.365 360.418 250.048C359.735 242.732 356.673 219.27 357.097 212.027C357.521 204.766 359.034 198.887 357.374 191.625C355.713 184.382 306.677 168.275 306.677 168.275L297.268 182.226Z" fill="#24126A"/>
<path d="M357.097 212.046C357.521 204.784 359.034 198.905 357.374 191.644C356.747 188.916 349.423 184.935 340.53 181.047C325.513 179.683 306.493 178.098 305.183 178.282C304.002 178.466 300.903 179.646 298.32 180.678L297.268 182.226C297.268 182.226 297.324 184.272 297.527 187.589C301.032 188.64 307.766 187.552 307.766 187.552C308.707 189.911 314.555 198.26 321.842 201.872C329.111 205.485 350.4 204.25 351.618 205.614C352.835 206.977 353.075 225.334 352.946 227.656C352.817 229.996 354.957 244.667 356.931 257.66C358.887 270.432 355.916 285.968 355.824 286.466C356.507 286.024 357.116 285.489 357.54 284.789C360.233 280.347 361.119 257.383 360.436 250.067C359.735 242.75 356.673 219.289 357.097 212.046Z" fill="#160A5B"/>
<path d="M313.669 72.6231C313.669 72.6231 302.785 75.1112 299.132 75.959C298.523 76.1064 298.043 76.5303 297.804 77.1016C296.752 79.774 294.095 88.0859 296.088 100.194C298.541 115.086 297.767 125.13 297.767 125.13L292.73 151.301C292.73 151.301 286.402 176.218 286.956 176.9C287.509 177.582 301.53 188.234 305.902 186.741C310.293 185.249 308.836 182.761 308.836 182.761C308.836 182.761 312.378 200.822 328.096 200.656C343.814 200.49 356.654 200.527 359.311 194.187C361.986 187.847 358.573 161.161 355.806 150.6C353.038 140.04 346.452 118.993 346.452 118.993L369.495 93.5411L349.828 78.5391C349.828 78.5391 345.124 69.8218 343.205 68.716C341.268 67.6102 340.272 68.5501 340.272 68.5501L313.669 72.6231Z" fill="#453C9E"/>
<path d="M306.179 180.991C306.197 181.894 305.662 183.24 302.84 184.217C299.796 185.267 292.305 180.715 287.417 177.305C289.87 179.333 301.917 188.124 305.921 186.742C306.788 186.447 307.433 186.115 307.895 185.765C306.991 183.756 306.456 182.023 306.179 180.991Z" fill="url(#paint21_linear_559_234)"/>
<path d="M359.218 192.068C356.396 198.758 342.855 198.721 326.269 198.887C322.045 198.942 318.669 197.726 315.957 195.919C318.835 198.647 322.764 200.711 328.114 200.656C343.832 200.49 356.673 200.527 359.329 194.187C360.196 192.104 360.418 187.829 360.233 182.65C360.27 186.852 359.993 190.243 359.218 192.068Z" fill="url(#paint22_linear_559_234)"/>
<path d="M342.762 68.4764C342.762 68.4764 346.784 73.3419 340.991 79.8845C337.431 83.9207 331.306 92.6196 326.085 101.65C322.82 107.29 319.812 110.312 318.115 115.159C318.115 115.159 317.875 109.391 317.654 100.508C317.433 92.1036 317.322 83.3862 317.709 81.193C318.484 76.6593 338.335 66.2832 342.762 68.4764Z" fill="#F0F6FF"/>
<path d="M327.745 83.0915C327.745 83.0915 325.679 84.3632 324.978 84.271C324.277 84.1605 321.989 81.9489 321.989 81.9489C321.989 81.9489 316.289 81.8383 315.662 79.4055C315.034 76.9728 314.628 74.5032 314.057 73.2315C313.485 71.9598 311.013 65.8779 310.994 63.4083C310.976 60.9387 311.068 56.5155 309.998 54.1933C308.928 51.8527 307.489 28.4651 330.088 29.1286C352.688 29.7921 345.677 53.235 345.677 53.235C345.677 53.235 347.338 53.9353 346.323 56.9578C345.327 59.9803 345.106 60.2937 344.589 61.7865C344.072 63.2793 343.833 64.2377 342.394 65.454L342.025 68.237C342.025 68.237 343.095 72.4759 340.29 76.6042C337.486 80.7325 327.745 83.0915 327.745 83.0915Z" fill="#FCD1C5"/>
<path d="M298.504 76.217C298.504 76.217 296.088 76.5672 288.265 96.232C283.893 107.198 277.159 118.551 275.739 126.715C274.318 134.861 275.112 143.579 276.717 144.187C278.266 144.777 306.363 155.282 315.163 158.599C315.643 158.783 316.178 158.47 316.27 157.972L318.687 144.408L301.253 137.681C301.253 137.681 297.932 133.626 294.815 132.097C294.815 132.097 298.32 125.665 298.08 123.895C297.859 122.145 298.394 103.954 296.346 96.5637C294.335 89.1733 298.504 76.217 298.504 76.217Z" fill="#24126A"/>
<path d="M308.725 128.171C308.725 128.171 306.327 126.549 305.736 126.328C305.146 126.107 301.936 125.001 301.309 124.725C300.848 124.522 298.984 124.669 298.043 124.78C297.711 124.817 297.398 125.001 297.25 125.314C296.512 126.697 294.446 130.696 294.667 132.226C294.667 132.226 300.479 135.893 301.124 137.533L302.047 137.736C302.047 137.718 305.939 129.369 308.725 128.171Z" fill="#FCD1C5"/>
<path d="M355.842 150.6C355.178 148.057 354.293 144.906 353.315 141.588L318.004 156.719C318.004 156.719 328.575 169.712 347.098 168.864C352.171 168.643 355.861 166.819 358.573 165.234C357.761 159.465 356.765 154.139 355.842 150.6Z" fill="#453C9E"/>
<path d="M369.494 93.5413C369.494 93.5413 360.178 94.8129 352.651 106.737C345.124 118.661 339.645 132.447 339.645 132.447L339.386 133.995C338.704 138.05 334.387 140.372 330.623 138.695C322.672 135.156 310.902 129.793 308.706 128.19C308.706 128.19 301.678 132.078 299.74 141.256C298.209 148.573 298.597 148.61 298.597 148.61C298.597 148.61 329.959 163.225 342.08 163.096C354.201 162.948 369.568 123.177 371.247 114.938C372.926 106.7 374.826 95.8634 369.494 93.5413Z" fill="#24126A"/>
<path d="M369.494 93.5413C369.494 93.5413 360.178 94.8129 352.651 106.737C345.124 118.661 339.645 132.447 339.645 132.447L339.386 133.995C338.704 138.05 334.387 140.372 330.623 138.695C322.672 135.156 310.902 129.793 308.706 128.19C308.706 128.19 301.678 132.078 299.74 141.256C298.209 148.573 298.597 148.61 298.597 148.61C298.597 148.61 329.959 163.225 342.08 163.096C354.201 162.948 369.568 123.177 371.247 114.938C372.926 106.7 374.826 95.8634 369.494 93.5413Z" fill="#4846A5"/>
<path d="M335.143 140.538C335.143 140.538 339.091 144.242 340.826 142.215C342.56 140.187 342.043 139.966 342.043 139.966C342.043 139.966 345.604 139.929 346.028 137.699C346.452 135.469 348.224 136.649 348.316 134.161C348.408 131.673 345.438 132.189 345.438 132.189L335.143 140.538Z" fill="#453C9E"/>
<path d="M330.365 138.566C330.365 138.566 331.454 137.552 332.856 136.373C334.258 135.193 336.527 130.272 336.915 129.848C337.302 129.425 342.025 125.794 344.312 125.72C346.6 125.665 344.903 128.208 344.368 128.577C343.851 128.945 341.619 130.051 341.619 130.051C341.619 130.051 339.331 131.968 339.073 132.263C338.815 132.539 345.438 131.802 346.489 132.447C347.541 133.092 347.301 134.788 346.563 135.248C345.825 135.709 345.253 135.691 345.253 135.691C345.253 135.691 345.991 137.681 344.017 138.603C342.043 139.524 341.564 139.008 341.564 139.008C341.564 139.008 341.398 142.455 338.114 141.773L330.365 138.566Z" fill="#FCD1C5"/>
<path d="M309.481 42.2137C309.481 42.2137 306.529 51.5945 314.296 48.9222C322.063 46.2498 329.092 41.7898 331.527 43.4853C333.39 44.7754 333.298 48.7563 333.151 50.5809C333.095 51.2075 333.261 51.8157 333.612 52.3317L335.918 55.6675C336.176 56.0361 336.324 56.4784 336.361 56.9392L336.527 59.2614C336.563 59.8511 337.043 60.3119 337.615 60.3487L338.15 60.3856C338.74 60.4225 339.257 59.9986 339.368 59.4272L339.958 56.0177C339.958 56.0177 341.784 51.4286 345.659 53.2348C345.659 53.2348 348.241 49.7699 347.393 42.3427C346.526 34.9338 343.205 27.2117 328.631 25.9769C314.075 24.7236 309.481 42.2137 309.481 42.2137Z" fill="#AA8383"/>
<path d="M331.749 91.3482L329.572 89.6526C329.572 89.6526 327.561 91.3298 326.768 93.099C325.975 94.8683 326.768 100.508 326.768 100.508L326.104 101.651L325.292 100.158L324.609 93.4861C324.609 93.4861 325.347 88.5468 325.421 88.4363C325.495 88.3257 329.627 88.8786 329.627 88.8786C329.627 88.8786 331.048 89.9659 331.749 91.3482Z" fill="#C4CCD6"/>
<path d="M321.27 84.7131C321.27 84.7131 318.945 84.8606 317.894 85.7452C317.894 85.7452 320.329 85.8742 320.735 85.9111C321.104 85.9479 321.27 84.7131 321.27 84.7131Z" fill="#C4CCD6"/>
<path d="M325.716 85.2294L329.627 88.8785C329.627 88.8785 326.196 90.4635 325.236 93.5228C325.236 93.5228 320.975 94.3153 320.587 92.7856C320.2 91.2375 320.606 87.3672 320.089 85.6532C319.572 83.9208 325.716 85.2294 325.716 85.2294Z" fill="#24126A"/>
<path d="M320.735 92.6935C320.735 92.6935 320.015 95.8819 319.222 97.2089C318.429 98.5358 317.617 100.01 317.617 100.01L317.709 118.753C317.709 118.753 324.609 104.544 326.104 101.669C326.104 101.669 325.882 94.8314 325.218 93.5229C324.572 92.2328 320.735 92.6935 320.735 92.6935Z" fill="#24126A"/>
<path d="M339.276 64.9932C334.737 78.06 321.989 81.9303 321.989 81.9303C321.989 81.9303 324.277 84.1419 324.978 84.2525C325.679 84.3631 327.745 83.073 327.745 83.073C327.745 83.073 337.486 80.7139 340.29 76.5856C343.095 72.4573 342.025 68.2184 342.025 68.2184L342.394 65.4355C340.383 66.099 339.276 64.9932 339.276 64.9932Z" fill="#E2B1A6"/>
<path d="M349.644 80.29C349.644 80.29 347.855 86.4641 347.633 86.6852C347.412 86.9248 343.132 86.4272 343.132 86.4272L345.198 90.3528C345.198 90.3528 323.742 113.353 319.278 125.72C319.278 125.72 329.443 110.036 347.301 91.3112L344.774 87.4777L349.164 88.3255L349.644 80.29Z" fill="#24126A"/>
<path d="M314.389 74.8533L313.245 76.1434L314.592 77.3966L310.625 80.972C310.625 80.972 309.408 106.129 314.26 122.79C314.26 122.79 307.674 107.511 309.168 80.2901L313.466 77.3782L312.064 75.9959L314.389 74.8533Z" fill="#24126A"/>
<path d="M327.911 213.668C327.911 213.668 327.967 213.705 328.059 213.778L322.506 207.862C325.07 211.475 322.118 228.043 321.805 231.821C321.491 235.618 324.775 243.432 325.993 252.61C327.21 261.77 324.701 274.837 324.701 274.892C326.288 273.971 327.561 272.441 328.077 270.063C329.977 261.493 329.24 245.459 327.155 238.769C325.07 232.079 327.911 213.668 327.911 213.668Z" fill="#160A5B"/>
<path d="M342.098 163.059C354.219 162.912 369.587 123.14 371.266 114.901C371.542 113.538 371.837 112.082 372.096 110.626C372.059 110.736 368.923 119.343 365.879 126.955C362.835 134.622 346.637 157.862 338.372 159.373C330.919 160.737 304.076 148.223 298.892 145.753C298.431 148.555 298.615 148.573 298.615 148.573C298.615 148.573 329.996 163.206 342.098 163.059Z" fill="#24126A"/>
<path d="M338.169 60.3858C338.759 60.4227 339.276 59.9988 339.386 59.4274L339.977 56.0179C339.977 56.0179 341.803 51.4288 345.677 53.235C345.677 53.235 348.112 49.936 347.448 42.9326C343.15 49.3831 333.612 52.3503 333.612 52.3503L335.918 55.6861C336.176 56.0547 336.324 56.4971 336.361 56.9578L336.527 59.28C336.564 59.8698 337.043 60.3305 337.615 60.3674L338.169 60.3858Z" fill="#936D6D"/>
</g>
<defs>
<linearGradient id="paint0_linear_559_234" x1="94.0305" y1="239.482" x2="600.821" y2="239.482" gradientUnits="userSpaceOnUse">
<stop stop-color="#9D73FE"/>
<stop offset="1" stop-color="#6826FF"/>
</linearGradient>
<linearGradient id="paint1_linear_559_234" x1="256" y1="80.5" x2="500" y2="457" gradientUnits="userSpaceOnUse">
<stop stop-color="#AD98FF"/>
<stop offset="1" stop-color="white" stop-opacity="0"/>
</linearGradient>
<linearGradient id="paint2_linear_559_234" x1="162.576" y1="190.154" x2="162.483" y2="179.67" gradientUnits="userSpaceOnUse">
<stop stop-color="white"/>
<stop offset="1" stop-color="#DFE2F3"/>
</linearGradient>
<linearGradient id="paint3_linear_559_234" x1="260.504" y1="130.78" x2="260.41" y2="120.288" gradientUnits="userSpaceOnUse">
<stop stop-color="white"/>
<stop offset="1" stop-color="#DFE2F3"/>
</linearGradient>
<linearGradient id="paint4_linear_559_234" x1="138.848" y1="310.234" x2="65.9576" y2="352.359" gradientUnits="userSpaceOnUse">
<stop stop-color="#BCBEFF"/>
<stop offset="0.2271" stop-color="#AAADF8"/>
<stop offset="0.6802" stop-color="#7C83E5"/>
<stop offset="1" stop-color="#5761D7"/>
</linearGradient>
<linearGradient id="paint5_linear_559_234" x1="147.992" y1="326.133" x2="56.0767" y2="326.133" gradientUnits="userSpaceOnUse">
<stop stop-color="#E9E9FD"/>
<stop offset="0.3601" stop-color="#D3D2F9"/>
<stop offset="0.7062" stop-color="#C5C4F7"/>
<stop offset="1" stop-color="#C0BFF6"/>
</linearGradient>
<linearGradient id="paint6_linear_559_234" x1="56.0594" y1="288.885" x2="147.982" y2="288.885" gradientUnits="userSpaceOnUse">
<stop stop-color="#9D73FE"/>
<stop offset="1" stop-color="#6826FF"/>
</linearGradient>
<linearGradient id="paint7_linear_559_234" x1="102.334" y1="304.667" x2="102.036" y2="271.153" gradientUnits="userSpaceOnUse">
<stop stop-color="white"/>
<stop offset="1" stop-color="#DFE2F3"/>
</linearGradient>
<linearGradient id="paint8_linear_559_234" x1="277.152" y1="436.818" x2="204.261" y2="478.944" gradientUnits="userSpaceOnUse">
<stop stop-color="#BCBEFF"/>
<stop offset="0.2271" stop-color="#AAADF8"/>
<stop offset="0.6802" stop-color="#7C83E5"/>
<stop offset="1" stop-color="#5761D7"/>
</linearGradient>
<linearGradient id="paint9_linear_559_234" x1="286.296" y1="452.717" x2="194.381" y2="452.717" gradientUnits="userSpaceOnUse">
<stop stop-color="#E9E9FD"/>
<stop offset="0.3601" stop-color="#D3D2F9"/>
<stop offset="0.7062" stop-color="#C5C4F7"/>
<stop offset="1" stop-color="#C0BFF6"/>
</linearGradient>
<linearGradient id="paint10_linear_559_234" x1="156.053" y1="435.251" x2="324.601" y2="435.251" gradientUnits="userSpaceOnUse">
<stop stop-color="#9D73FE"/>
<stop offset="1" stop-color="#6826FF"/>
</linearGradient>
<linearGradient id="paint11_linear_559_234" x1="133.43" y1="435.241" x2="347.261" y2="435.241" gradientUnits="userSpaceOnUse">
<stop stop-color="#9D73FE"/>
<stop offset="1" stop-color="#6826FF"/>
</linearGradient>
<linearGradient id="paint12_linear_559_234" x1="173.922" y1="435.236" x2="306.767" y2="435.236" gradientUnits="userSpaceOnUse">
<stop stop-color="#9D73FE"/>
<stop offset="1" stop-color="#6826FF"/>
</linearGradient>
<linearGradient id="paint13_linear_559_234" x1="195.491" y1="421.788" x2="285.197" y2="421.788" gradientUnits="userSpaceOnUse">
<stop stop-color="#9D73FE"/>
<stop offset="1" stop-color="#6826FF"/>
</linearGradient>
<linearGradient id="paint14_linear_559_234" x1="194.365" y1="411.574" x2="286.288" y2="411.574" gradientUnits="userSpaceOnUse">
<stop stop-color="#9D73FE"/>
<stop offset="1" stop-color="#6826FF"/>
</linearGradient>
<linearGradient id="paint15_linear_559_234" x1="240.64" y1="427.356" x2="240.341" y2="393.842" gradientUnits="userSpaceOnUse">
<stop stop-color="white"/>
<stop offset="1" stop-color="#DFE2F3"/>
</linearGradient>
<linearGradient id="paint16_linear_559_234" x1="588.598" y1="168.897" x2="496.683" y2="168.897" gradientUnits="userSpaceOnUse">
<stop stop-color="#E9E9FD"/>
<stop offset="0.3601" stop-color="#D3D2F9"/>
<stop offset="0.7062" stop-color="#C5C4F7"/>
<stop offset="1" stop-color="#C0BFF6"/>
</linearGradient>
<linearGradient id="paint17_linear_559_234" x1="496.672" y1="131.708" x2="588.594" y2="131.708" gradientUnits="userSpaceOnUse">
<stop stop-color="#9D73FE"/>
<stop offset="1" stop-color="#6826FF"/>
</linearGradient>
<linearGradient id="paint18_linear_559_234" x1="542.937" y1="147.49" x2="542.639" y2="113.976" gradientUnits="userSpaceOnUse">
<stop stop-color="white"/>
<stop offset="1" stop-color="#DFE2F3"/>
</linearGradient>
<linearGradient id="paint19_linear_559_234" x1="468.025" y1="198.884" x2="466.537" y2="190.436" gradientUnits="userSpaceOnUse">
<stop stop-color="#F2ECFF"/>
<stop offset="1" stop-color="#885EE9"/>
</linearGradient>
<linearGradient id="paint20_linear_559_234" x1="436.931" y1="210.94" x2="434.485" y2="194.953" gradientUnits="userSpaceOnUse">
<stop stop-color="#F2ECFF"/>
<stop offset="1" stop-color="#885EE9"/>
</linearGradient>
<linearGradient id="paint21_linear_559_234" x1="303.482" y1="186.102" x2="301.87" y2="176.954" gradientUnits="userSpaceOnUse">
<stop stop-color="#F2ECFF"/>
<stop offset="1" stop-color="#885EE9"/>
</linearGradient>
<linearGradient id="paint22_linear_559_234" x1="350.739" y1="199.18" x2="348.091" y2="181.861" gradientUnits="userSpaceOnUse">
<stop stop-color="#F2ECFF"/>
<stop offset="1" stop-color="#885EE9"/>
</linearGradient>
<clipPath id="clip0_559_234">
<rect width="607" height="497" fill="white" transform="matrix(-1 0 0 1 607 0)"/>
</clipPath>
<clipPath id="clip1_559_234">
<rect width="438" height="580" fill="white" transform="translate(684 32) rotate(90)"/>
</clipPath>
</defs>
</svg>
