<svg width="40" height="40" viewBox="0 0 40 40" fill="none" xmlns="http://www.w3.org/2000/svg">
<path d="M4.6875 40H35.3125C36.5187 40 37.5 39.0187 37.5 37.8125C37.5 36.6063 36.5187 35.625 35.3125 35.625H34.375V18.125C34.375 17.0912 33.5338 16.25 32.5 16.25H29.8681C29.9713 15.6006 30.0031 14.9813 30.0019 14.47C30.6381 14.2925 31.22 14.0975 31.7331 13.885C32.3719 13.6206 32.7937 13.0487 32.8619 12.3556C32.93 11.66 32.6125 10.9875 32.0325 10.6012L28.775 8.4325C28.8281 7.225 28.7019 3.54125 25.5425 0.755C24.9869 0.268125 24.2612 0 23.5 0H23.0875C22.5994 0 22.1163 0.114375 21.695 0.328125L20.8381 0.756875C20.3131 1.01937 19.6856 1.01937 19.1606 0.756875L18.3075 0.330625C17.8831 0.114375 17.4006 0 16.9125 0H16.5C15.7381 0 15.0131 0.268125 14.4556 0.75625C11.2975 3.54062 11.1719 7.225 11.225 8.43188L7.96812 10.6006C7.3875 10.9869 7.06937 11.6587 7.13812 12.355C7.20562 13.0481 7.6275 13.62 8.26688 13.8844C8.78 14.0969 9.36187 14.2919 9.99812 14.4694C9.9975 14.9812 10.0294 15.6 10.1319 16.2494H7.5C6.46625 16.2494 5.625 17.0906 5.625 18.1244V35.6244H4.6875C3.48125 35.625 2.5 36.6063 2.5 37.8125C2.5 39.0187 3.48125 40 4.6875 40ZM12.495 8.6725C12.4944 8.66563 12.4819 8.5425 12.4744 8.34375C14.4206 9.00313 17.0963 9.375 20 9.375C22.9031 9.375 25.5781 9.00313 27.5244 8.34375C27.5181 8.54313 27.5056 8.66625 27.505 8.6725C27.4756 8.9075 27.5812 9.13875 27.7787 9.27063L27.9131 9.36C26.1544 10.1412 23.2087 10.625 20 10.625C16.7913 10.625 13.8456 10.1413 12.0875 9.35938L12.2219 9.27C12.4188 9.13875 12.5244 8.9075 12.495 8.6725ZM15.28 1.695C15.6087 1.40812 16.0419 1.25 16.5 1.25H16.9119C17.2044 1.25 17.4913 1.31687 17.745 1.44625L18.6025 1.875C19.4775 2.3125 20.5225 2.3125 21.3981 1.875L22.2587 1.44438C22.5087 1.31688 22.7956 1.25 23.0875 1.25H23.5C23.9581 1.25 24.3919 1.40813 24.7181 1.69375C26.6706 3.415 27.28 5.57563 27.4581 7.03438C25.6456 7.71813 22.9131 8.125 20 8.125C17.0844 8.125 14.35 7.7175 12.5375 7.0325C12.7131 5.57687 13.3212 3.42312 15.28 1.695ZM8.38188 12.2331C8.35875 11.9944 8.4625 11.7731 8.66063 11.6412L10.8919 10.1556C12.7456 11.2225 16.1669 11.875 20 11.875C23.8331 11.875 27.2544 11.2225 29.1081 10.1556L31.3394 11.6412C31.5369 11.7725 31.6406 11.9937 31.6175 12.2331C31.6069 12.3419 31.5506 12.6075 31.2544 12.7294C28.7669 13.76 24.5594 14.375 20 14.375C15.4406 14.375 11.2331 13.76 8.745 12.73C8.44937 12.6075 8.3925 12.3419 8.38188 12.2331ZM25.825 15.2756V16.1375C25.825 16.4 25.7037 16.64 25.4925 16.7956C25.2844 16.9487 25.025 16.9925 24.7787 16.9156C24.0394 16.6856 23.3662 16.2244 22.7662 15.5481C23.8256 15.4894 24.8512 15.3981 25.825 15.2756ZM14.175 15.2756C15.1488 15.3981 16.175 15.4894 17.2337 15.5481C16.6337 16.2244 15.96 16.6856 15.22 16.9156C14.9744 16.9919 14.7156 16.9475 14.5075 16.7956C14.2962 16.64 14.175 16.4 14.175 16.1375V15.2756ZM12.925 15.0956V16.1375C12.925 16.8019 13.2319 17.4094 13.7675 17.8031C14.1275 18.0675 14.5488 18.2044 14.9781 18.2044C15.1831 18.2044 15.39 18.1731 15.5925 18.11C16.4494 17.8437 17.6713 17.1825 18.7644 15.6088C19.1731 15.6181 19.5844 15.625 20 15.625C20.4156 15.625 20.8269 15.6181 21.2363 15.6081C22.3294 17.1819 23.5506 17.8431 24.4069 18.1094C24.6106 18.1731 24.8175 18.2044 25.0225 18.2044C25.4519 18.2044 25.8725 18.0675 26.2331 17.8031C26.7681 17.4094 27.0756 16.8025 27.0756 16.1375V15.0956C27.6581 15.0019 28.2194 14.8975 28.7494 14.7812C28.7106 16.3631 28.32 18.7856 26.3275 19.1813C24.5344 19.5406 23.8063 19.1188 22.96 18.63C22.2369 18.2119 21.4163 17.7375 20 17.7375C18.5837 17.7375 17.7631 18.2113 17.04 18.63C16.1937 19.1188 15.465 19.5412 13.6719 19.1806C11.68 18.785 11.2894 16.3625 11.2506 14.7806C11.7812 14.8975 12.3425 15.0019 12.925 15.0956ZM12.3119 20C12.6375 20.1825 13.0062 20.3231 13.4269 20.4063C15.6794 20.8575 16.7344 20.2494 17.6644 19.7119C18.3375 19.3231 18.9187 18.9875 20 18.9875C21.0813 18.9875 21.6625 19.3231 22.335 19.7119C23.0369 20.1175 23.81 20.5644 25.1163 20.5644C25.54 20.5644 26.0194 20.5175 26.5719 20.4069C26.9925 20.3231 27.3619 20.1831 27.6875 20H30C30.345 20 30.625 20.2806 30.625 20.625V32.5C30.625 32.8444 30.345 33.125 30 33.125H10C9.655 33.125 9.375 32.8444 9.375 32.5V20.625C9.375 20.2806 9.655 20 10 20H12.3119ZM6.875 18.125C6.875 17.7806 7.155 17.5 7.5 17.5H10.4281C10.5731 17.94 10.7669 18.3631 11.0169 18.75H10C8.96625 18.75 8.125 19.5912 8.125 20.625V32.5C8.125 33.5338 8.96625 34.375 10 34.375H30C31.0338 34.375 31.875 33.5338 31.875 32.5V20.625C31.875 19.5912 31.0338 18.75 30 18.75H28.9831C29.2331 18.3631 29.4275 17.94 29.5719 17.5H32.5C32.845 17.5 33.125 17.7806 33.125 18.125V35.625H6.875V18.125ZM4.6875 36.875H35.3125C35.8294 36.875 36.25 37.2956 36.25 37.8125C36.25 38.3294 35.8294 38.75 35.3125 38.75H4.6875C4.17062 38.75 3.75 38.3294 3.75 37.8125C3.75 37.2956 4.17062 36.875 4.6875 36.875Z" fill="url(#paint0_linear_674_548)"/>
<path d="M13.7038 30.8848C14.03 31.4954 14.6638 31.8748 15.3563 31.8748H24.6438C25.3363 31.8748 25.97 31.4954 26.2969 30.8848C26.6238 30.2736 26.5888 29.5367 26.2044 28.9598L21.5606 21.9942C21.2119 21.4717 20.6288 21.1592 20.0006 21.1592C19.3725 21.1592 18.7894 21.4717 18.4406 21.9942L13.7969 28.9598C13.4119 29.5367 13.3763 30.2736 13.7038 30.8848ZM14.8363 29.6529L19.48 22.6873C19.5975 22.5104 19.7875 22.4092 20 22.4092C20.2125 22.4092 20.4025 22.5104 20.52 22.6873L25.1638 29.6529C25.3513 29.9342 25.2481 30.1954 25.195 30.2948C25.1419 30.3942 24.9819 30.6248 24.6438 30.6248H15.3563C15.0181 30.6248 14.8581 30.3942 14.805 30.2948C14.7519 30.1954 14.6488 29.9348 14.8363 29.6529Z" fill="url(#paint1_linear_674_548)"/>
<path d="M20 27.5C20.3456 27.5 20.625 27.22 20.625 26.875V24.375C20.625 24.03 20.3456 23.75 20 23.75C19.6544 23.75 19.375 24.03 19.375 24.375V26.875C19.375 27.22 19.6544 27.5 20 27.5Z" fill="url(#paint2_linear_674_548)"/>
<path d="M20 30C20.3456 30 20.625 29.72 20.625 29.375V28.75C20.625 28.405 20.3456 28.125 20 28.125C19.6544 28.125 19.375 28.405 19.375 28.75V29.375C19.375 29.72 19.6544 30 20 30Z" fill="url(#paint3_linear_674_548)"/>
<path d="M25.625 25H28.125C28.4706 25 28.75 24.72 28.75 24.375V21.875C28.75 21.53 28.4706 21.25 28.125 21.25H25.625C25.2794 21.25 25 21.53 25 21.875V24.375C25 24.72 25.2794 25 25.625 25ZM26.25 22.5H27.5V23.75H26.25V22.5Z" fill="url(#paint4_linear_674_548)"/>
<path d="M11.875 23.125H15.625C15.9706 23.125 16.25 22.845 16.25 22.5C16.25 22.155 15.9706 21.875 15.625 21.875H11.875C11.5294 21.875 11.25 22.155 11.25 22.5C11.25 22.845 11.5294 23.125 11.875 23.125Z" fill="url(#paint5_linear_674_548)"/>
<path d="M11.875 25H13.75C14.0956 25 14.375 24.72 14.375 24.375C14.375 24.03 14.0956 23.75 13.75 23.75H11.875C11.5294 23.75 11.25 24.03 11.25 24.375C11.25 24.72 11.5294 25 11.875 25Z" fill="url(#paint6_linear_674_548)"/>
<defs>
<linearGradient id="paint0_linear_674_548" x1="37.4995" y1="20.0002" x2="2.49972" y2="20.0002" gradientUnits="userSpaceOnUse">
<stop stop-color="#9D73FE"/>
<stop offset="1" stop-color="#6826FF"/>
</linearGradient>
<linearGradient id="paint1_linear_674_548" x1="26.5193" y1="26.5171" x2="13.4809" y2="26.5171" gradientUnits="userSpaceOnUse">
<stop stop-color="#9D73FE"/>
<stop offset="1" stop-color="#6826FF"/>
</linearGradient>
<linearGradient id="paint2_linear_674_548" x1="20.625" y1="25.625" x2="19.375" y2="25.625" gradientUnits="userSpaceOnUse">
<stop stop-color="#9D73FE"/>
<stop offset="1" stop-color="#6826FF"/>
</linearGradient>
<linearGradient id="paint3_linear_674_548" x1="20.625" y1="29.0625" x2="19.375" y2="29.0625" gradientUnits="userSpaceOnUse">
<stop stop-color="#9D73FE"/>
<stop offset="1" stop-color="#6826FF"/>
</linearGradient>
<linearGradient id="paint4_linear_674_548" x1="28.7499" y1="23.125" x2="25" y2="23.125" gradientUnits="userSpaceOnUse">
<stop stop-color="#9D73FE"/>
<stop offset="1" stop-color="#6826FF"/>
</linearGradient>
<linearGradient id="paint5_linear_674_548" x1="16.2499" y1="22.5" x2="11.25" y2="22.5" gradientUnits="userSpaceOnUse">
<stop stop-color="#9D73FE"/>
<stop offset="1" stop-color="#6826FF"/>
</linearGradient>
<linearGradient id="paint6_linear_674_548" x1="14.375" y1="24.375" x2="11.25" y2="24.375" gradientUnits="userSpaceOnUse">
<stop stop-color="#9D73FE"/>
<stop offset="1" stop-color="#6826FF"/>
</linearGradient>
</defs>
</svg>
