<svg width="40" height="40" viewBox="0 0 40 40" fill="none" xmlns="http://www.w3.org/2000/svg">
<mask id="mask0_671_1082" style="mask-type:luminance" maskUnits="userSpaceOnUse" x="0" y="0" width="40" height="40">
<path d="M0 3.8147e-06H40V40H0V3.8147e-06Z" fill="white"/>
</mask>
<g mask="url(#mask0_671_1082)">
<path d="M6.79688 6.79687L33.3984 33.3984M15.7031 16.8359V14.1041C15.7031 12.1179 17.1344 10.5078 18.8998 10.5078H21.1002C22.8656 10.5078 24.2969 12.1179 24.2969 14.1041V16.8359M22.2461 10.2734L24.5508 7.96875M17.7539 10.2734L15.4492 7.96875M7.19922 22.7734H11.7405M9.05078 15.9766C9.68906 17.5477 11.0391 18.7197 12.6843 19.131L13.1914 19.2578M9.05078 29.5703C9.68906 27.9992 11.0391 26.8272 12.6843 26.4159L13.1914 26.2891M32.8012 22.7734H28.26M30.9492 15.9766C30.3109 17.5477 28.9609 18.7197 27.3157 19.131L26.8086 19.2578M38.8281 20C38.8281 9.60148 30.3985 1.17188 20 1.17188C9.60148 1.17188 1.17188 9.60148 1.17188 20C1.17188 30.3985 9.60148 38.8281 20 38.8281C30.3985 38.8281 38.8281 30.3985 38.8281 20ZM27.6562 23.0078C27.6562 18.7794 24.2284 15.3516 20 15.3516C15.7716 15.3516 12.3437 18.7794 12.3437 23.0078C12.3437 27.2362 15.7716 30.6641 20 30.6641C24.2284 30.6641 27.6562 27.2362 27.6562 23.0078Z" stroke="url(#paint0_linear_671_1082)" stroke-width="2" stroke-miterlimit="10"/>
</g>
<defs>
<linearGradient id="paint0_linear_671_1082" x1="38.8276" y1="20.0002" x2="1.17158" y2="20.0002" gradientUnits="userSpaceOnUse">
<stop stop-color="#9D73FE"/>
<stop offset="1" stop-color="#6826FF"/>
</linearGradient>
</defs>
</svg>
