<svg width="40" height="40" viewBox="0 0 40 40" fill="none" xmlns="http://www.w3.org/2000/svg">
<path fill-rule="evenodd" clip-rule="evenodd" d="M32.5466 37.9171H20.9666C19.6133 37.9171 18.3633 37.1971 17.685 36.0271C17.0066 34.8587 17.0016 33.4154 17.6733 32.2421L23.4633 22.1087C24.1383 20.9271 25.395 20.1987 26.7566 20.1987C28.1166 20.1987 29.3733 20.9271 30.05 22.1087L35.84 32.2421C36.51 33.4154 36.505 34.8587 35.8266 36.0271C35.1483 37.1971 33.8983 37.9171 32.5466 37.9171ZM32.5466 35.4171C33.0066 35.4171 33.4333 35.1721 33.665 34.7737C33.8966 34.3737 33.8983 33.8821 33.6683 33.4821L27.8783 23.3487C27.6483 22.9471 27.22 22.6987 26.7566 22.6987C26.2916 22.6987 25.8633 22.9471 25.6333 23.3487L19.8433 33.4821C19.615 33.8821 19.6166 34.3737 19.8466 34.7737C20.0783 35.1721 20.505 35.4171 20.9666 35.4171H32.5466Z" fill="url(#paint0_linear_671_1088)"/>
<path fill-rule="evenodd" clip-rule="evenodd" d="M25.5068 26.8652C25.5068 26.1752 26.0668 25.6152 26.7568 25.6152C27.4468 25.6152 28.0068 26.1752 28.0068 26.8652V30.1986C28.0068 30.8869 27.4468 31.4486 26.7568 31.4486C26.0668 31.4486 25.5068 30.8869 25.5068 30.1986V26.8652Z" fill="url(#paint1_linear_671_1088)"/>
<path d="M26.7568 34.3652C27.4472 34.3652 28.0068 33.8056 28.0068 33.1152C28.0068 32.4249 27.4472 31.8652 26.7568 31.8652C26.0665 31.8652 25.5068 32.4249 25.5068 33.1152C25.5068 33.8056 26.0665 34.3652 26.7568 34.3652Z" fill="url(#paint2_linear_671_1088)"/>
<path fill-rule="evenodd" clip-rule="evenodd" d="M33.1852 18.3335C33.1852 19.0235 32.6252 19.5835 31.9352 19.5835C31.2452 19.5835 30.6852 19.0235 30.6852 18.3335V13.0468C30.6852 12.4952 30.4652 11.9652 30.0752 11.5752L23.6935 5.1935C23.3035 4.8035 22.7735 4.5835 22.2218 4.5835H8.24349C7.69182 4.5835 7.16182 4.8035 6.77016 5.1935C6.38016 5.58516 6.16016 6.1135 6.16016 6.66683V33.3335C6.16016 33.8868 6.38016 34.4152 6.77016 34.8068C7.16182 35.1968 7.69182 35.4168 8.24349 35.4168H14.2568C14.9468 35.4168 15.5068 35.9768 15.5068 36.6668C15.5068 37.3568 14.9468 37.9168 14.2568 37.9168H8.24349C7.02849 37.9168 5.86349 37.4335 5.00349 36.5752C4.14349 35.7152 3.66016 34.5485 3.66016 33.3335V6.66683C3.66016 5.45183 4.14349 4.28516 5.00349 3.42516C5.86349 2.56683 7.02849 2.0835 8.24349 2.0835H22.2218C23.4368 2.0835 24.6018 2.56683 25.4618 3.42516L31.8435 9.80683C32.7018 10.6668 33.1852 11.8318 33.1852 13.0468V18.3335Z" fill="url(#paint3_linear_671_1088)"/>
<path fill-rule="evenodd" clip-rule="evenodd" d="M22.3521 4.16699C22.3521 3.47699 22.9121 2.91699 23.6021 2.91699C24.2921 2.91699 24.8521 3.47699 24.8521 4.16699V10.0003C24.8521 10.2303 25.0387 10.417 25.2687 10.417H31.102C31.792 10.417 32.352 10.977 32.352 11.667C32.352 12.357 31.792 12.917 31.102 12.917H25.2687C23.6571 12.917 22.3521 11.612 22.3521 10.0003V4.16699Z" fill="url(#paint4_linear_671_1088)"/>
<path fill-rule="evenodd" clip-rule="evenodd" d="M10.7437 12.917C10.0537 12.917 9.49365 12.357 9.49365 11.667C9.49365 10.977 10.0537 10.417 10.7437 10.417H15.7437C16.4337 10.417 16.9937 10.977 16.9937 11.667C16.9937 12.357 16.4337 12.917 15.7437 12.917H10.7437Z" fill="url(#paint5_linear_671_1088)"/>
<path fill-rule="evenodd" clip-rule="evenodd" d="M10.7437 22.917C10.0537 22.917 9.49365 22.357 9.49365 21.667C9.49365 20.977 10.0537 20.417 10.7437 20.417H15.7437C16.4337 20.417 16.9937 20.977 16.9937 21.667C16.9937 22.357 16.4337 22.917 15.7437 22.917H10.7437Z" fill="url(#paint6_linear_671_1088)"/>
<path fill-rule="evenodd" clip-rule="evenodd" d="M10.7437 17.917C10.0537 17.917 9.49365 17.357 9.49365 16.667C9.49365 15.977 10.0537 15.417 10.7437 15.417H20.7437C21.4337 15.417 21.9937 15.977 21.9937 16.667C21.9937 17.357 21.4337 17.917 20.7437 17.917H10.7437Z" fill="url(#paint7_linear_671_1088)"/>
<defs>
<linearGradient id="paint0_linear_671_1088" x1="36.3387" y1="29.058" x2="17.1727" y2="29.058" gradientUnits="userSpaceOnUse">
<stop stop-color="#9D73FE"/>
<stop offset="1" stop-color="#6826FF"/>
</linearGradient>
<linearGradient id="paint1_linear_671_1088" x1="28.0068" y1="28.5319" x2="25.5068" y2="28.5319" gradientUnits="userSpaceOnUse">
<stop stop-color="#9D73FE"/>
<stop offset="1" stop-color="#6826FF"/>
</linearGradient>
<linearGradient id="paint2_linear_671_1088" x1="28.0068" y1="33.1152" x2="25.5068" y2="33.1152" gradientUnits="userSpaceOnUse">
<stop stop-color="#9D73FE"/>
<stop offset="1" stop-color="#6826FF"/>
</linearGradient>
<linearGradient id="paint3_linear_671_1088" x1="33.1847" y1="20.0004" x2="3.65992" y2="20.0004" gradientUnits="userSpaceOnUse">
<stop stop-color="#9D73FE"/>
<stop offset="1" stop-color="#6826FF"/>
</linearGradient>
<linearGradient id="paint4_linear_671_1088" x1="32.3519" y1="7.91705" x2="22.352" y2="7.91705" gradientUnits="userSpaceOnUse">
<stop stop-color="#9D73FE"/>
<stop offset="1" stop-color="#6826FF"/>
</linearGradient>
<linearGradient id="paint5_linear_671_1088" x1="16.9935" y1="11.667" x2="9.49359" y2="11.667" gradientUnits="userSpaceOnUse">
<stop stop-color="#9D73FE"/>
<stop offset="1" stop-color="#6826FF"/>
</linearGradient>
<linearGradient id="paint6_linear_671_1088" x1="16.9935" y1="21.667" x2="9.49359" y2="21.667" gradientUnits="userSpaceOnUse">
<stop stop-color="#9D73FE"/>
<stop offset="1" stop-color="#6826FF"/>
</linearGradient>
<linearGradient id="paint7_linear_671_1088" x1="21.9935" y1="16.667" x2="9.49355" y2="16.667" gradientUnits="userSpaceOnUse">
<stop stop-color="#9D73FE"/>
<stop offset="1" stop-color="#6826FF"/>
</linearGradient>
</defs>
</svg>
