<svg width="40" height="40" viewBox="0 0 40 40" fill="none" xmlns="http://www.w3.org/2000/svg">
<g clip-path="url(#clip0_671_1056)">
<path d="M36.4844 0.078125H3.51562C1.57711 0.078125 0 1.65523 0 3.59375V36.4062C0 38.3448 1.57711 39.9219 3.51562 39.9219H36.4844C38.4229 39.9219 40 38.3448 40 36.4062V3.59375C40 1.65523 38.4229 0.078125 36.4844 0.078125ZM3.51562 2.42188H36.4844C37.1305 2.42188 37.6562 2.94758 37.6562 3.59375V9.45312H2.34375V3.59375C2.34375 2.94758 2.86945 2.42188 3.51562 2.42188ZM36.4844 37.5781H3.51562C2.86945 37.5781 2.34375 37.0524 2.34375 36.4062V11.7969H37.6562V36.4062C37.6562 37.0524 37.1305 37.5781 36.4844 37.5781Z" fill="url(#paint0_linear_671_1056)"/>
<path d="M23.9773 15.4071C23.3825 15.1521 22.6935 15.4277 22.4386 16.0225L15.4073 32.4288C15.1523 33.0236 15.428 33.7126 16.0228 33.9675C16.6179 34.2225 17.3067 33.9467 17.5615 33.3521L24.5928 16.9458C24.8478 16.3509 24.5722 15.662 23.9773 15.4071Z" fill="url(#paint1_linear_671_1056)"/>
<path d="M13.8838 19.2679C13.4794 18.7626 12.7418 18.6807 12.2367 19.085L6.37729 23.7725C5.79143 24.241 5.79104 25.1337 6.37729 25.6026L12.2367 30.2901C12.7421 30.6945 13.4796 30.6125 13.8838 30.1072C14.2881 29.6018 14.2062 28.8643 13.7007 28.4601L8.98525 24.6876L13.7007 20.9151C14.2062 20.5108 14.2881 19.7734 13.8838 19.2679Z" fill="url(#paint2_linear_671_1056)"/>
<path d="M33.6227 23.7725L27.7633 19.085C27.2579 18.6806 26.5204 18.7626 26.1162 19.268C25.7119 19.7734 25.7938 20.5109 26.2993 20.9151L31.0147 24.6876L26.2993 28.46C25.7938 28.8643 25.7119 29.6017 26.1162 30.1071C26.5211 30.6131 27.2586 30.694 27.7633 30.2901L33.6227 25.6026C34.2086 25.1341 34.209 24.2414 33.6227 23.7725Z" fill="url(#paint3_linear_671_1056)"/>
<path d="M5.9375 7.10938C6.58471 7.10938 7.10938 6.58471 7.10938 5.9375C7.10938 5.29029 6.58471 4.76562 5.9375 4.76562C5.29029 4.76562 4.76562 5.29029 4.76562 5.9375C4.76562 6.58471 5.29029 7.10938 5.9375 7.10938Z" fill="url(#paint4_linear_671_1056)"/>
<path d="M10.625 7.10938C11.2722 7.10938 11.7969 6.58471 11.7969 5.9375C11.7969 5.29029 11.2722 4.76562 10.625 4.76562C9.97779 4.76562 9.45312 5.29029 9.45312 5.9375C9.45312 6.58471 9.97779 7.10938 10.625 7.10938Z" fill="url(#paint5_linear_671_1056)"/>
<path d="M15.3125 7.10938C15.9597 7.10938 16.4844 6.58471 16.4844 5.9375C16.4844 5.29029 15.9597 4.76562 15.3125 4.76562C14.6653 4.76562 14.1406 5.29029 14.1406 5.9375C14.1406 6.58471 14.6653 7.10938 15.3125 7.10938Z" fill="url(#paint6_linear_671_1056)"/>
<path d="M27.0312 7.10938H34.0625C34.7097 7.10938 35.2344 6.58469 35.2344 5.9375C35.2344 5.29031 34.7097 4.76562 34.0625 4.76562H27.0312C26.3841 4.76562 25.8594 5.29031 25.8594 5.9375C25.8594 6.58469 26.3841 7.10938 27.0312 7.10938Z" fill="url(#paint7_linear_671_1056)"/>
</g>
<defs>
<linearGradient id="paint0_linear_671_1056" x1="39.9994" y1="20.0002" x2="-0.00031471" y2="20.0002" gradientUnits="userSpaceOnUse">
<stop stop-color="#9D73FE"/>
<stop offset="1" stop-color="#6826FF"/>
</linearGradient>
<linearGradient id="paint1_linear_671_1056" x1="24.6877" y1="24.6874" x2="15.3122" y2="24.6874" gradientUnits="userSpaceOnUse">
<stop stop-color="#9D73FE"/>
<stop offset="1" stop-color="#6826FF"/>
</linearGradient>
<linearGradient id="paint2_linear_671_1056" x1="14.1405" y1="24.6876" x2="5.93768" y2="24.6876" gradientUnits="userSpaceOnUse">
<stop stop-color="#9D73FE"/>
<stop offset="1" stop-color="#6826FF"/>
</linearGradient>
<linearGradient id="paint3_linear_671_1056" x1="34.0621" y1="24.6876" x2="25.8593" y2="24.6876" gradientUnits="userSpaceOnUse">
<stop stop-color="#9D73FE"/>
<stop offset="1" stop-color="#6826FF"/>
</linearGradient>
<linearGradient id="paint4_linear_671_1056" x1="7.10934" y1="5.93751" x2="4.76561" y2="5.93751" gradientUnits="userSpaceOnUse">
<stop stop-color="#9D73FE"/>
<stop offset="1" stop-color="#6826FF"/>
</linearGradient>
<linearGradient id="paint5_linear_671_1056" x1="11.7968" y1="5.93751" x2="9.45311" y2="5.93751" gradientUnits="userSpaceOnUse">
<stop stop-color="#9D73FE"/>
<stop offset="1" stop-color="#6826FF"/>
</linearGradient>
<linearGradient id="paint6_linear_671_1056" x1="16.4843" y1="5.93751" x2="14.1406" y2="5.93751" gradientUnits="userSpaceOnUse">
<stop stop-color="#9D73FE"/>
<stop offset="1" stop-color="#6826FF"/>
</linearGradient>
<linearGradient id="paint7_linear_671_1056" x1="35.2342" y1="5.93751" x2="25.8593" y2="5.93751" gradientUnits="userSpaceOnUse">
<stop stop-color="#9D73FE"/>
<stop offset="1" stop-color="#6826FF"/>
</linearGradient>
<clipPath id="clip0_671_1056">
<rect width="40" height="40" fill="white"/>
</clipPath>
</defs>
</svg>
