<svg width="40" height="40" viewBox="0 0 40 40" fill="none" xmlns="http://www.w3.org/2000/svg">
<g clip-path="url(#clip0_671_1120)">
<mask id="mask0_671_1120" style="mask-type:luminance" maskUnits="userSpaceOnUse" x="0" y="0" width="40" height="40">
<path d="M0 3.8147e-06H40V40H0V3.8147e-06Z" fill="white"/>
</mask>
<g mask="url(#mask0_671_1120)">
<path d="M6.71875 26.7188L1.25 29.4531L20 38.8281L38.75 29.4531L33.2812 26.7188" stroke="url(#paint0_linear_671_1120)" stroke-width="2" stroke-miterlimit="10" stroke-linecap="round" stroke-linejoin="round"/>
<path d="M6.71875 21.25L1.25 23.9844L20 33.3594L38.75 23.9844L33.2812 21.25" stroke="url(#paint1_linear_671_1120)" stroke-width="2" stroke-miterlimit="10" stroke-linecap="round" stroke-linejoin="round"/>
<path d="M19.9998 13.6719C18.2739 13.6719 16.8748 12.2727 16.8748 10.5469C16.8748 8.82094 18.2739 7.42188 19.9998 7.42188C21.7258 7.42188 23.1248 8.82094 23.1248 10.5469C23.1248 12.2727 21.7258 13.6719 19.9998 13.6719ZM27.8123 10.5469C27.8123 9.96422 27.7437 9.39844 27.6227 8.85219L29.2907 7.88906L26.947 3.82969L25.2741 4.79539C24.4415 4.03148 23.4483 3.44016 22.3436 3.0932V1.17188H17.6561V3.0932C16.5514 3.44016 15.5582 4.03148 14.7255 4.79539L13.0527 3.82969L10.709 7.88906L12.377 8.85219C12.256 9.39844 12.1873 9.96422 12.1873 10.5469C12.1873 11.1295 12.256 11.6953 12.377 12.2416L10.709 13.2047L13.0527 17.2641L14.7255 16.2983C15.5582 17.0623 16.5515 17.6536 17.6561 18.0005V19.9219H22.3436V18.0005C23.4482 17.6536 24.4415 17.0623 25.2741 16.2983L26.947 17.2641L29.2907 13.2047L27.6227 12.2416C27.7437 11.6953 27.8123 11.1295 27.8123 10.5469Z" stroke="url(#paint2_linear_671_1120)" stroke-width="2" stroke-miterlimit="10" stroke-linecap="round" stroke-linejoin="round"/>
<path d="M10.9696 13.6559L1.25 18.5156L20 27.8906L38.75 18.5156L29.0304 13.6559" stroke="url(#paint3_linear_671_1120)" stroke-width="2" stroke-miterlimit="10" stroke-linecap="round" stroke-linejoin="round"/>
</g>
</g>
<defs>
<linearGradient id="paint0_linear_671_1120" x1="38.7495" y1="32.7734" x2="1.2497" y2="32.7734" gradientUnits="userSpaceOnUse">
<stop stop-color="#9D73FE"/>
<stop offset="1" stop-color="#6826FF"/>
</linearGradient>
<linearGradient id="paint1_linear_671_1120" x1="38.7495" y1="27.3046" x2="1.2497" y2="27.3046" gradientUnits="userSpaceOnUse">
<stop stop-color="#9D73FE"/>
<stop offset="1" stop-color="#6826FF"/>
</linearGradient>
<linearGradient id="paint2_linear_671_1120" x1="29.2904" y1="10.5468" x2="10.7088" y2="10.5468" gradientUnits="userSpaceOnUse">
<stop stop-color="#9D73FE"/>
<stop offset="1" stop-color="#6826FF"/>
</linearGradient>
<linearGradient id="paint3_linear_671_1120" x1="38.7495" y1="20.7732" x2="1.2497" y2="20.7732" gradientUnits="userSpaceOnUse">
<stop stop-color="#9D73FE"/>
<stop offset="1" stop-color="#6826FF"/>
</linearGradient>
<clipPath id="clip0_671_1120">
<rect width="40" height="40" fill="white"/>
</clipPath>
</defs>
</svg>
