<svg width="40" height="40" viewBox="0 0 40 40" fill="none" xmlns="http://www.w3.org/2000/svg">
<path d="M29.958 15.1406H35.187M32.5615 15.4399V24.5156M5 15.4399V24.5156M12.1523 13.1209C15.8135 9.45971 21.7495 9.45971 25.4106 13.1209M25.4106 26.5352C21.7495 30.1963 15.8135 30.1963 12.1523 26.5352M8.83789 9.80629C14.3296 4.31457 23.2335 4.31457 28.7252 9.80629M28.7252 29.8496C23.2335 35.3413 14.3296 35.3413 8.83789 29.8496M5.52246 6.49176C12.8448 -0.830586 24.7166 -0.830586 32.0389 6.49176M32.0389 33.1646C24.7166 40.4869 12.8448 40.4869 5.52246 33.1646M23.4688 19.8281C23.4688 22.417 21.3701 24.5156 18.7812 24.5156C16.1924 24.5156 14.0938 22.417 14.0938 19.8281C14.0938 17.2393 16.1924 15.1406 18.7812 15.1406C21.3701 15.1406 23.4688 17.2393 23.4688 19.8281Z" stroke="url(#paint0_linear_671_1080)" stroke-width="2" stroke-miterlimit="10" stroke-linecap="round" stroke-linejoin="round"/>
<defs>
<linearGradient id="paint0_linear_671_1080" x1="35.1866" y1="19.8284" x2="4.99976" y2="19.8284" gradientUnits="userSpaceOnUse">
<stop stop-color="#9D73FE"/>
<stop offset="1" stop-color="#6826FF"/>
</linearGradient>
</defs>
</svg>
