<svg width="40" height="40" viewBox="0 0 40 40" fill="none" xmlns="http://www.w3.org/2000/svg">
<g clip-path="url(#clip0_671_1098)">
<path d="M15.3125 28.2812H13.75C12.2421 28.2812 11.0156 29.5078 11.0156 31.0156V37.2656C11.0156 38.7735 12.2421 40 13.75 40H15.3125C16.8204 40 18.0469 38.7735 18.0469 37.2656V31.0156C18.0469 29.5078 16.8204 28.2812 15.3125 28.2812ZM15.7031 37.2656C15.7031 37.4811 15.528 37.6562 15.3125 37.6562H13.75C13.5345 37.6562 13.3594 37.4811 13.3594 37.2656V31.0156C13.3594 30.8002 13.5345 30.625 13.75 30.625H15.3125C15.528 30.625 15.7031 30.8002 15.7031 31.0156V37.2656Z" fill="url(#paint0_linear_671_1098)"/>
<path d="M5.9375 37.6562H4.76562V29.4531C4.76562 28.8058 4.24103 28.2812 3.59375 28.2812H1.25C0.602722 28.2812 0.078125 28.8058 0.078125 29.4531C0.078125 30.1004 0.602722 30.625 1.25 30.625H2.42188V37.6562H1.25C0.602722 37.6562 0.078125 38.1808 0.078125 38.8281C0.078125 39.4754 0.602722 40 1.25 40H5.9375C6.58478 40 7.10938 39.4754 7.10938 38.8281C7.10938 38.1808 6.58478 37.6562 5.9375 37.6562Z" fill="url(#paint1_linear_671_1098)"/>
<path d="M37.1875 28.2812H35.625C34.1171 28.2812 32.8906 29.5078 32.8906 31.0156V37.2656C32.8906 38.7735 34.1171 40 35.625 40H37.1875C38.6954 40 39.9219 38.7735 39.9219 37.2656V31.0156C39.9219 29.5078 38.6954 28.2812 37.1875 28.2812ZM37.5781 37.2656C37.5781 37.4811 37.403 37.6562 37.1875 37.6562H35.625C35.4095 37.6562 35.2344 37.4811 35.2344 37.2656V31.0156C35.2344 30.8002 35.4095 30.625 35.625 30.625H37.1875C37.403 30.625 37.5781 30.8002 37.5781 31.0156V37.2656Z" fill="url(#paint2_linear_671_1098)"/>
<path d="M27.8125 37.6562H26.6406V29.4531C26.6406 28.8058 26.116 28.2812 25.4688 28.2812H23.125C22.4777 28.2812 21.9531 28.8058 21.9531 29.4531C21.9531 30.1004 22.4777 30.625 23.125 30.625H24.2969V37.6562H23.125C22.4777 37.6562 21.9531 38.1808 21.9531 38.8281C21.9531 39.4754 22.4777 40 23.125 40H27.8125C28.4598 40 28.9844 39.4754 28.9844 38.8281C28.9844 38.1808 28.4598 37.6562 27.8125 37.6562Z" fill="url(#paint3_linear_671_1098)"/>
<path d="M15.3125 14.1406H13.75C12.2421 14.1406 11.0156 15.3671 11.0156 16.875V23.125C11.0156 24.6329 12.2421 25.8594 13.75 25.8594H15.3125C16.8204 25.8594 18.0469 24.6329 18.0469 23.125V16.875C18.0469 15.3671 16.8204 14.1406 15.3125 14.1406ZM15.7031 23.125C15.7031 23.3405 15.528 23.5156 15.3125 23.5156H13.75C13.5345 23.5156 13.3594 23.3405 13.3594 23.125V16.875C13.3594 16.6595 13.5345 16.4844 13.75 16.4844H15.3125C15.528 16.4844 15.7031 16.6595 15.7031 16.875V23.125Z" fill="url(#paint4_linear_671_1098)"/>
<path d="M5.9375 23.5156H4.76562V15.3125C4.76562 14.6652 4.24103 14.1406 3.59375 14.1406H1.25C0.602722 14.1406 0.078125 14.6652 0.078125 15.3125C0.078125 15.9598 0.602722 16.4844 1.25 16.4844H2.42188V23.5156H1.25C0.602722 23.5156 0.078125 24.0402 0.078125 24.6875C0.078125 25.3348 0.602722 25.8594 1.25 25.8594H5.9375C6.58478 25.8594 7.10938 25.3348 7.10938 24.6875C7.10938 24.0402 6.58478 23.5156 5.9375 23.5156Z" fill="url(#paint5_linear_671_1098)"/>
<path d="M26.25 14.1406H24.6875C23.1796 14.1406 21.9531 15.3671 21.9531 16.875V23.125C21.9531 24.6329 23.1796 25.8594 24.6875 25.8594H26.25C27.7579 25.8594 28.9844 24.6329 28.9844 23.125V16.875C28.9844 15.3671 27.7579 14.1406 26.25 14.1406ZM26.6406 23.125C26.6406 23.3405 26.4655 23.5156 26.25 23.5156H24.6875C24.472 23.5156 24.2969 23.3405 24.2969 23.125V16.875C24.2969 16.6595 24.472 16.4844 24.6875 16.4844H26.25C26.4655 16.4844 26.6406 16.6595 26.6406 16.875V23.125Z" fill="url(#paint6_linear_671_1098)"/>
<path d="M38.75 23.5156H37.5781V15.3125C37.5781 14.6652 37.0535 14.1406 36.4062 14.1406H34.0625C33.4152 14.1406 32.8906 14.6652 32.8906 15.3125C32.8906 15.9598 33.4152 16.4844 34.0625 16.4844H35.2344V23.5156H34.0625C33.4152 23.5156 32.8906 24.0402 32.8906 24.6875C32.8906 25.3348 33.4152 25.8594 34.0625 25.8594H38.75C39.3973 25.8594 39.9219 25.3348 39.9219 24.6875C39.9219 24.0402 39.3973 23.5156 38.75 23.5156Z" fill="url(#paint7_linear_671_1098)"/>
<path d="M4.375 0H2.8125C1.30463 0 0.078125 1.2265 0.078125 2.73438V8.98438C0.078125 10.4922 1.30463 11.7188 2.8125 11.7188H4.375C5.88287 11.7188 7.10938 10.4922 7.10938 8.98438V2.73438C7.10938 1.2265 5.88287 0 4.375 0ZM4.76562 8.98438C4.76562 9.19983 4.59045 9.375 4.375 9.375H2.8125C2.59705 9.375 2.42188 9.19983 2.42188 8.98438V2.73438C2.42188 2.51892 2.59705 2.34375 2.8125 2.34375H4.375C4.59045 2.34375 4.76562 2.51892 4.76562 2.73438V8.98438Z" fill="url(#paint8_linear_671_1098)"/>
<path d="M16.875 9.375H15.7031V1.17188C15.7031 0.524597 15.1785 0 14.5312 0H12.1875C11.5402 0 11.0156 0.524597 11.0156 1.17188C11.0156 1.81915 11.5402 2.34375 12.1875 2.34375H13.3594V9.375H12.1875C11.5402 9.375 11.0156 9.8996 11.0156 10.5469C11.0156 11.1942 11.5402 11.7188 12.1875 11.7188H16.875C17.5223 11.7188 18.0469 11.1942 18.0469 10.5469C18.0469 9.8996 17.5223 9.375 16.875 9.375Z" fill="url(#paint9_linear_671_1098)"/>
<path d="M37.1875 0H35.625C34.1171 0 32.8906 1.2265 32.8906 2.73438V8.98438C32.8906 10.4922 34.1171 11.7188 35.625 11.7188H37.1875C38.6954 11.7188 39.9219 10.4922 39.9219 8.98438V2.73438C39.9219 1.2265 38.6954 0 37.1875 0ZM37.5781 8.98438C37.5781 9.19983 37.403 9.375 37.1875 9.375H35.625C35.4095 9.375 35.2344 9.19983 35.2344 8.98438V2.73438C35.2344 2.51892 35.4095 2.34375 35.625 2.34375H37.1875C37.403 2.34375 37.5781 2.51892 37.5781 2.73438V8.98438Z" fill="url(#paint10_linear_671_1098)"/>
<path d="M27.8125 9.375H26.6406V1.17188C26.6406 0.524597 26.116 0 25.4688 0H23.125C22.4777 0 21.9531 0.524597 21.9531 1.17188C21.9531 1.81915 22.4777 2.34375 23.125 2.34375H24.2969V9.375H23.125C22.4777 9.375 21.9531 9.8996 21.9531 10.5469C21.9531 11.1942 22.4777 11.7188 23.125 11.7188H27.8125C28.4598 11.7188 28.9844 11.1942 28.9844 10.5469C28.9844 9.8996 28.4598 9.375 27.8125 9.375Z" fill="url(#paint11_linear_671_1098)"/>
</g>
<defs>
<linearGradient id="paint0_linear_671_1098" x1="39.9213" y1="20.0002" x2="0.0778115" y2="20.0002" gradientUnits="userSpaceOnUse">
<stop stop-color="#9D73FE"/>
<stop offset="1" stop-color="#6826FF"/>
</linearGradient>
<linearGradient id="paint1_linear_671_1098" x1="39.9213" y1="20.0002" x2="0.0778115" y2="20.0002" gradientUnits="userSpaceOnUse">
<stop stop-color="#9D73FE"/>
<stop offset="1" stop-color="#6826FF"/>
</linearGradient>
<linearGradient id="paint2_linear_671_1098" x1="39.9213" y1="20.0002" x2="0.0778115" y2="20.0002" gradientUnits="userSpaceOnUse">
<stop stop-color="#9D73FE"/>
<stop offset="1" stop-color="#6826FF"/>
</linearGradient>
<linearGradient id="paint3_linear_671_1098" x1="39.9213" y1="20.0002" x2="0.0778115" y2="20.0002" gradientUnits="userSpaceOnUse">
<stop stop-color="#9D73FE"/>
<stop offset="1" stop-color="#6826FF"/>
</linearGradient>
<linearGradient id="paint4_linear_671_1098" x1="39.9213" y1="20.0002" x2="0.0778115" y2="20.0002" gradientUnits="userSpaceOnUse">
<stop stop-color="#9D73FE"/>
<stop offset="1" stop-color="#6826FF"/>
</linearGradient>
<linearGradient id="paint5_linear_671_1098" x1="39.9213" y1="20.0002" x2="0.0778115" y2="20.0002" gradientUnits="userSpaceOnUse">
<stop stop-color="#9D73FE"/>
<stop offset="1" stop-color="#6826FF"/>
</linearGradient>
<linearGradient id="paint6_linear_671_1098" x1="39.9213" y1="20.0002" x2="0.0778115" y2="20.0002" gradientUnits="userSpaceOnUse">
<stop stop-color="#9D73FE"/>
<stop offset="1" stop-color="#6826FF"/>
</linearGradient>
<linearGradient id="paint7_linear_671_1098" x1="39.9213" y1="20.0002" x2="0.0778115" y2="20.0002" gradientUnits="userSpaceOnUse">
<stop stop-color="#9D73FE"/>
<stop offset="1" stop-color="#6826FF"/>
</linearGradient>
<linearGradient id="paint8_linear_671_1098" x1="39.9213" y1="20.0002" x2="0.0778115" y2="20.0002" gradientUnits="userSpaceOnUse">
<stop stop-color="#9D73FE"/>
<stop offset="1" stop-color="#6826FF"/>
</linearGradient>
<linearGradient id="paint9_linear_671_1098" x1="39.9213" y1="20.0002" x2="0.0778115" y2="20.0002" gradientUnits="userSpaceOnUse">
<stop stop-color="#9D73FE"/>
<stop offset="1" stop-color="#6826FF"/>
</linearGradient>
<linearGradient id="paint10_linear_671_1098" x1="39.9213" y1="20.0002" x2="0.0778115" y2="20.0002" gradientUnits="userSpaceOnUse">
<stop stop-color="#9D73FE"/>
<stop offset="1" stop-color="#6826FF"/>
</linearGradient>
<linearGradient id="paint11_linear_671_1098" x1="39.9213" y1="20.0002" x2="0.0778115" y2="20.0002" gradientUnits="userSpaceOnUse">
<stop stop-color="#9D73FE"/>
<stop offset="1" stop-color="#6826FF"/>
</linearGradient>
<clipPath id="clip0_671_1098">
<rect width="40" height="40" fill="white"/>
</clipPath>
</defs>
</svg>
