<svg width="1170" height="458" viewBox="0 0 1170 458" fill="none" xmlns="http://www.w3.org/2000/svg">
<g opacity="0.8">
<g clip-path="url(#clip0_1002_523)">
<g opacity="0.34">
<path d="M950.942 -40.3212L1000.26 44.9825C1000.29 45.0425 1000.38 45.0725 1000.47 45.0425C1000.53 45.0125 1000.56 44.9226 1000.53 44.8327L951.002 -40.8008L950.942 -40.3212Z" fill="white"/>
</g>
<g opacity="0.37">
<path d="M1000.23 44.8926C1000.23 44.8326 1000.26 44.7727 1000.35 44.7427C1000.44 44.7127 1000.53 44.7427 1000.59 44.8326L1030.58 114.46C1030.61 114.55 1030.58 114.64 1030.49 114.7C1030.4 114.73 1030.31 114.7 1030.25 114.61L1000.26 44.9825C1000.23 44.9225 1000.2 44.9225 1000.23 44.8926Z" fill="white"/>
</g>
<g opacity="0.32">
<path d="M1000.26 44.8923C1000.26 44.8024 1000.35 44.7425 1000.41 44.7724L1103.94 52.4156C1104.03 52.4156 1104.09 52.4755 1104.06 52.5655C1104.06 52.6554 1103.97 52.7153 1103.91 52.6854L1000.38 45.0422C1000.29 45.0422 1000.23 44.9523 1000.26 44.8923Z" fill="white"/>
</g>
<g opacity="0.36">
<path d="M1030.19 114.49C1030.19 114.37 1030.31 114.311 1030.4 114.311L1076.14 120.035C1076.23 120.035 1076.32 120.155 1076.32 120.245C1076.32 120.365 1076.2 120.425 1076.11 120.425L1030.37 114.7C1030.25 114.7 1030.19 114.58 1030.19 114.49Z" fill="white"/>
</g>
<g opacity="0.34">
<path d="M1030.22 114.49C1030.22 114.46 1030.25 114.43 1030.28 114.4L1103.82 52.4458C1103.88 52.3858 1103.97 52.4158 1104.03 52.4757C1104.09 52.5357 1104.06 52.6256 1104 52.6856L1030.46 114.64C1030.4 114.7 1030.31 114.67 1030.25 114.61C1030.25 114.58 1030.22 114.52 1030.22 114.49Z" fill="white"/>
</g>
<g opacity="0.34">
<path d="M990.924 196.317C990.924 196.287 990.924 196.287 990.924 196.257L1030.22 114.43C1030.25 114.341 1030.34 114.311 1030.43 114.371C1030.52 114.401 1030.55 114.49 1030.49 114.58L991.194 196.407C991.164 196.497 991.074 196.527 990.984 196.467C990.954 196.467 990.924 196.377 990.924 196.317Z" fill="white"/>
</g>
<g opacity="0.58">
<path d="M1000.32 45.672C1000.32 45.612 1000.35 45.5521 1000.41 45.5221L1050 0.772101C1050.12 0.682181 1050.27 0.682188 1050.36 0.80208C1050.45 0.892 1050.45 1.07185 1050.33 1.16177L1000.74 45.9118C1000.62 46.0017 1000.47 46.0017 1000.38 45.8818C1000.32 45.8218 1000.32 45.7319 1000.32 45.672Z" fill="white"/>
</g>
<g opacity="0.64">
<path d="M1071.4 171.38C1071.4 171.32 1071.43 171.23 1071.49 171.2C1071.61 171.11 1071.79 171.11 1071.91 171.23L1124.02 234.293C1124.11 234.413 1124.11 234.593 1123.99 234.683C1123.87 234.773 1123.69 234.773 1123.57 234.653L1071.46 171.59C1071.43 171.53 1071.4 171.44 1071.4 171.38Z" fill="white"/>
</g>
<g opacity="0.55">
<path d="M933.352 268.373C933.352 268.343 933.382 268.283 933.412 268.253L1010.2 188.315C1010.29 188.225 1010.41 188.225 1010.5 188.315C1010.59 188.404 1010.59 188.524 1010.5 188.614L933.712 268.553C933.622 268.643 933.502 268.643 933.412 268.553C933.352 268.493 933.352 268.433 933.352 268.373Z" fill="white"/>
</g>
<g opacity="0.53">
<path d="M1059.51 54.6637C1059.51 54.6337 1059.51 54.6338 1059.54 54.6038C1059.6 54.4839 1059.72 54.4239 1059.84 54.4539L1185.59 103.25C1185.71 103.31 1185.77 103.43 1185.74 103.55C1185.68 103.67 1185.56 103.73 1185.44 103.7L1059.66 54.9335C1059.54 54.8736 1059.48 54.7836 1059.51 54.6637Z" fill="white"/>
</g>
<path opacity="0.62" d="M1003.23 45.1922C1003.08 46.7508 1001.67 47.9198 1000.11 47.7699C998.549 47.62 997.378 46.2113 997.528 44.6527C997.678 43.0941 999.089 41.9251 1000.65 42.075C1002.24 42.1949 1003.41 43.6036 1003.23 45.1922Z" fill="white"/>
<path opacity="0.58" d="M1078.99 120.515C1078.84 122.074 1077.43 123.242 1075.87 123.093C1074.31 122.943 1073.14 121.534 1073.29 119.975C1073.44 118.417 1074.85 117.248 1076.41 117.398C1078 117.518 1079.14 118.926 1078.99 120.515Z" fill="white"/>
<path opacity="0.64" d="M1106.91 52.8357C1106.76 54.4842 1105.29 55.6832 1103.64 55.5033C1101.99 55.3535 1100.79 53.8848 1100.97 52.2363C1101.12 50.5877 1102.59 49.3888 1104.24 49.5686C1105.86 49.7185 1107.06 51.1872 1106.91 52.8357Z" fill="white"/>
<path opacity="0.6" d="M1033.22 114.79C1033.07 116.349 1031.66 117.518 1030.1 117.368C1028.54 117.218 1027.37 115.809 1027.52 114.251C1027.67 112.692 1029.08 111.523 1030.64 111.673C1032.23 111.823 1033.37 113.232 1033.22 114.79Z" fill="white"/>
<path opacity="0.6" d="M993.956 196.617C993.806 198.176 992.395 199.345 990.835 199.195C989.274 199.045 988.103 197.636 988.253 196.077C988.403 194.519 989.814 193.35 991.375 193.5C992.966 193.65 994.106 195.058 993.956 196.617Z" fill="white"/>
<path opacity="0.91" d="M1004.07 46.0317C1003.89 47.95 1002.15 49.3588 1000.23 49.1789C998.309 48.9991 996.898 47.2606 997.078 45.3423C997.258 43.424 998.999 42.0153 1000.92 42.1952C1002.84 42.405 1004.25 44.1134 1004.07 46.0317Z" fill="white"/>
<path opacity="0.96" d="M1053.81 1.31206C1053.6 3.32027 1051.83 4.759 1049.82 4.57916C1047.81 4.36934 1046.34 2.60092 1046.55 0.592713C1046.76 -1.41549 1048.53 -2.88419 1050.54 -2.67438C1052.55 -2.46457 1053.99 -0.696141 1053.81 1.31206Z" fill="white"/>
<path d="M1075.57 171.769C1075.36 173.927 1073.44 175.486 1071.31 175.276C1069.18 175.066 1067.59 173.148 1067.8 171.02C1068.01 168.862 1069.93 167.303 1072.06 167.513C1074.19 167.723 1075.81 169.641 1075.57 171.769Z" fill="white"/>
<path d="M1127.68 234.833C1127.47 236.991 1125.55 238.549 1123.42 238.34C1121.26 238.13 1119.7 236.211 1119.91 234.083C1120.12 231.925 1122.04 230.367 1124.17 230.577C1126.3 230.786 1127.89 232.705 1127.68 234.833Z" fill="white"/>
<path d="M937.554 268.793C937.344 271.011 935.363 272.629 933.141 272.419C930.92 272.209 929.299 270.231 929.509 268.013C929.719 265.795 931.7 264.177 933.922 264.386C936.173 264.596 937.794 266.575 937.554 268.793Z" fill="white"/>
<path d="M1014.61 188.854C1014.37 191.222 1012.27 192.93 1009.9 192.69C1007.52 192.45 1005.81 190.352 1006.05 187.984C1006.29 185.617 1008.39 183.908 1010.77 184.148C1013.11 184.418 1014.85 186.516 1014.61 188.854Z" fill="white"/>
<path d="M1064.92 55.2036C1064.65 58.0511 1062.1 60.1492 1059.21 59.8795C1056.36 59.6097 1054.26 57.062 1054.53 54.1846C1054.8 51.3371 1057.35 49.2389 1060.23 49.5087C1063.12 49.8084 1065.22 52.3562 1064.92 55.2036Z" fill="white"/>
</g>
</g>
<g opacity="0.8">
<g clip-path="url(#clip1_1002_523)">
<g opacity="0.5">
<path d="M8.68681 272.787C8.68681 272.667 8.77687 272.547 8.92696 272.517C9.10706 272.457 9.28718 272.577 9.31719 272.727L22.1345 318.946C22.1945 319.126 22.0745 319.305 21.9244 319.335C21.7443 319.395 21.5642 319.275 21.5341 319.126L8.71681 272.907C8.6868 272.877 8.68681 272.847 8.68681 272.787Z" fill="white"/>
</g>
<g opacity="0.55">
<path d="M91.1138 0.151042C91.1138 0.0611225 91.1738 0.00118335 91.2639 -0.0287899C91.384 -0.0587631 91.474 0.0311657 91.504 0.121085L108.434 81.3784C108.464 81.4983 108.374 81.5883 108.284 81.6182C108.164 81.6482 108.074 81.5583 108.043 81.4684L91.1138 0.211001C91.1138 0.181028 91.1138 0.181015 91.1138 0.151042Z" fill="white"/>
</g>
<g opacity="0.6">
<path d="M-12.6854 -19.6613C-12.6854 -19.7513 -12.5953 -19.8412 -12.5053 -19.8711C-12.3852 -19.9011 -12.2352 -19.8112 -12.2052 -19.6913L9.85746 78.411C9.88748 78.5309 9.79743 78.6808 9.67736 78.7108C9.55729 78.7407 9.40719 78.6508 9.37717 78.5309L-12.6554 -19.5714C-12.6854 -19.6313 -12.6854 -19.6613 -12.6854 -19.6613Z" fill="white"/>
</g>
<g opacity="0.56">
<path d="M-110.871 52.1243C-110.841 51.9745 -110.721 51.9145 -110.631 51.9445L9.64732 78.231C9.76739 78.261 9.85745 78.3809 9.79742 78.4708C9.7674 78.5907 9.67735 78.6506 9.55728 78.6206L-110.721 52.3341C-110.811 52.3341 -110.871 52.2442 -110.871 52.1243Z" fill="white"/>
</g>
<g opacity="0.5">
<path d="M-16.6777 131.883C-16.6777 131.823 -16.6177 131.763 -16.5577 131.733L108.194 81.2583C108.284 81.2283 108.374 81.2583 108.434 81.3482C108.464 81.4381 108.434 81.5281 108.344 81.588L-16.4076 132.063C-16.4976 132.093 -16.5877 132.063 -16.6477 131.973C-16.6777 131.943 -16.6777 131.913 -16.6777 131.883Z" fill="white"/>
</g>
<g opacity="0.65">
<path d="M-11.7249 0.420826C-11.7249 0.300933 -11.6348 0.211008 -11.5148 0.181035C-11.3647 0.151062 -11.2146 0.240981 -11.1546 0.390847L9.88743 78.3811C9.91745 78.531 9.82742 78.6809 9.67734 78.7409C9.52725 78.7708 9.37718 78.6809 9.31715 78.531L-11.6948 0.510742C-11.7249 0.480769 -11.7249 0.450799 -11.7249 0.420826Z" fill="white"/>
</g>
<g opacity="0.53">
<path d="M9.43721 78.4409C9.43721 78.3809 9.49723 78.321 9.55726 78.291C9.64731 78.261 9.73738 78.321 9.7674 78.4109L41.8257 174.625C41.8557 174.715 41.7957 174.805 41.7056 174.835C41.6156 174.865 41.5255 174.805 41.4955 174.715L9.43721 78.5008C9.43721 78.4709 9.43721 78.4409 9.43721 78.4409Z" fill="white"/>
</g>
<g opacity="0.54">
<path d="M41.4655 174.655C41.4655 174.595 41.4955 174.565 41.5255 174.535C41.6156 174.475 41.7356 174.475 41.7956 174.565L70.0418 208.974C70.1018 209.064 70.1018 209.184 70.0117 209.244C69.9217 209.304 69.8016 209.304 69.7416 209.214L41.4955 174.805C41.4654 174.745 41.4655 174.685 41.4655 174.655Z" fill="white"/>
</g>
<g opacity="0.56">
<path d="M133.828 252.405C133.828 252.375 133.858 252.316 133.858 252.286L212.533 144.172C212.593 144.082 212.743 144.052 212.834 144.112C212.924 144.172 212.954 144.322 212.894 144.412L134.219 252.525C134.159 252.615 134.009 252.645 133.918 252.585C133.858 252.555 133.798 252.465 133.828 252.405Z" fill="white"/>
</g>
<g opacity="0.55">
<path d="M78.9871 156.402C78.9871 156.282 79.0772 156.222 79.1972 156.192L212.713 144.083C212.834 144.083 212.954 144.172 212.954 144.292C212.954 144.412 212.864 144.532 212.743 144.532L79.2272 156.641C79.1072 156.641 78.9871 156.551 78.9871 156.432C78.9871 156.432 78.9871 156.431 78.9871 156.402Z" fill="white"/>
</g>
<g opacity="0.54">
<path d="M69.7116 209.064C69.7116 209.004 69.7716 208.914 69.8316 208.884L212.623 144.112C212.743 144.052 212.863 144.112 212.893 144.202C212.953 144.292 212.893 144.442 212.803 144.472L70.0117 209.244C69.8916 209.304 69.7716 209.244 69.7416 209.154C69.7115 209.124 69.7116 209.094 69.7116 209.064Z" fill="white"/>
</g>
<g opacity="0.67">
<path d="M69.5616 209.064C69.5616 209.004 69.5916 208.944 69.6217 208.914C69.7417 208.764 69.9519 208.704 70.1019 208.824L134.249 252.165C134.399 252.285 134.459 252.495 134.339 252.645C134.219 252.795 134.008 252.855 133.858 252.735L69.7117 209.394C69.5916 209.304 69.5316 209.184 69.5616 209.064Z" fill="white"/>
</g>
<g opacity="0.58">
<path d="M40.7751 195.486C40.7751 195.456 40.7751 195.426 40.8051 195.396C40.8651 195.276 41.0152 195.216 41.1353 195.276L70.0118 208.854C70.1318 208.914 70.1919 209.064 70.1318 209.184C70.0718 209.304 69.9217 209.364 69.8017 209.304L40.9252 195.726C40.8351 195.666 40.7751 195.576 40.7751 195.486Z" fill="white"/>
</g>
<g opacity="0.68">
<path d="M69.5315 209.034L78.8368 156.341C78.8668 156.132 79.077 156.012 79.2571 156.042C79.4672 156.072 79.5573 156.251 79.5573 156.461L70.2519 209.124C70.2219 209.334 70.0118 209.454 69.8317 209.424C69.6516 209.424 69.5315 209.244 69.5315 209.034Z" fill="white"/>
</g>
<g opacity="0.6">
<path d="M46.3283 197.345C46.3283 197.285 46.3584 197.255 46.3884 197.195L78.987 156.251C79.0771 156.131 79.2572 156.101 79.3772 156.221C79.4973 156.311 79.4973 156.491 79.4072 156.611L46.8086 197.554C46.7186 197.674 46.5385 197.704 46.4184 197.584C46.3584 197.524 46.3283 197.435 46.3283 197.345Z" fill="white"/>
</g>
<g opacity="0.54">
<path d="M78.9868 156.401C78.9868 156.342 79.0169 156.282 79.0769 156.252C79.1669 156.192 79.317 156.222 79.347 156.342L134.188 252.346C134.248 252.466 134.218 252.586 134.098 252.616C134.008 252.675 133.858 252.645 133.828 252.526L78.9868 156.521C78.9868 156.491 78.9868 156.461 78.9868 156.401Z" fill="white"/>
</g>
<g opacity="0.68">
<path d="M40.655 195.456C40.655 195.366 40.685 195.306 40.745 195.246L78.9268 156.161C79.0769 156.011 79.287 156.011 79.4371 156.161C79.5872 156.311 79.5872 156.551 79.4371 156.671L41.2554 195.756C41.1053 195.906 40.8951 195.906 40.745 195.756C40.685 195.696 40.655 195.576 40.655 195.456Z" fill="white"/>
</g>
<g opacity="0.8">
<path d="M40.3849 195.457C40.3849 195.397 40.3849 195.367 40.4149 195.307C40.535 194.977 40.8952 194.767 41.2554 194.887L46.8386 196.745C47.1688 196.865 47.3789 197.225 47.2588 197.585C47.1388 197.914 46.7785 198.124 46.4183 198.004L40.8352 196.146C40.535 196.026 40.3549 195.726 40.3849 195.457Z" fill="white"/>
</g>
<g opacity="0.61">
<path d="M-24.272 172.947C-24.272 172.917 -24.272 172.917 -24.272 172.887C-24.212 172.737 -24.0619 172.647 -23.9118 172.707L41.1053 195.217C41.2554 195.277 41.3454 195.426 41.2854 195.576C41.2254 195.726 41.0753 195.816 40.9252 195.756L-24.0919 173.246C-24.212 173.216 -24.302 173.096 -24.272 172.947Z" fill="white"/>
</g>
<g opacity="0.67">
<path d="M-24.3622 172.946C-24.3622 172.916 -24.3622 172.886 -24.3322 172.856C-24.2721 172.677 -24.062 172.557 -23.8519 172.617L46.7484 196.985C46.9285 197.045 47.0486 197.255 46.9885 197.464C46.9285 197.644 46.7184 197.764 46.5083 197.704L-24.092 173.336C-24.2721 173.276 -24.3922 173.126 -24.3622 172.946Z" fill="white"/>
</g>
<g opacity="0.54">
<path d="M282.953 -13.1276C282.953 -13.1576 282.953 -13.1875 282.983 -13.2175C283.043 -13.3374 283.194 -13.3674 283.314 -13.3074L438.652 72.1462C438.772 72.2061 438.802 72.356 438.742 72.4759C438.682 72.5958 438.532 72.6257 438.412 72.5658L283.073 -12.8878C282.983 -12.9178 282.953 -13.0077 282.953 -13.1276Z" fill="white"/>
</g>
<g opacity="0.59">
<path d="M327.859 26.7372C327.859 26.7072 327.859 26.7072 327.859 26.6772L362.109 -80.7468C362.169 -80.9266 362.349 -81.0165 362.499 -80.9566C362.679 -80.8967 362.769 -80.7168 362.709 -80.567L328.459 26.857C328.399 27.0369 328.219 27.1268 328.069 27.0669C327.919 27.0369 327.829 26.887 327.859 26.7372Z" fill="white"/>
</g>
<g opacity="0.69">
<path d="M337.855 269.88C337.855 269.79 337.915 269.7 337.975 269.61C338.155 269.46 338.395 269.46 338.575 269.64L399.21 333.663C399.36 333.842 399.36 334.112 399.18 334.262C399 334.412 398.759 334.412 398.579 334.262L337.945 270.239C337.885 270.119 337.855 270 337.855 269.88Z" fill="white"/>
</g>
<g opacity="0.55">
<path d="M277.43 254.354L277.43 254.324C277.46 254.204 277.58 254.114 277.73 254.144L338.335 269.7C338.455 269.73 338.545 269.85 338.515 270C338.485 270.12 338.365 270.21 338.215 270.18L277.61 254.624C277.49 254.564 277.43 254.474 277.43 254.354Z" fill="white"/>
</g>
<g opacity="0.6">
<path d="M223.249 368.402C223.249 368.372 223.249 368.342 223.279 368.312L277.4 254.234C277.46 254.084 277.64 254.025 277.79 254.085C277.94 254.144 278 254.324 277.94 254.474L223.819 368.552C223.759 368.702 223.579 368.762 223.429 368.702C223.309 368.642 223.249 368.522 223.249 368.402Z" fill="white"/>
</g>
<g opacity="0.59">
<path d="M277.37 254.354C277.37 254.324 277.37 254.294 277.4 254.264C277.46 254.114 277.64 254.054 277.79 254.114L386.212 303.42C386.362 303.48 386.422 303.66 386.362 303.809C386.302 303.959 386.122 304.019 385.972 303.959L277.55 254.653C277.43 254.593 277.37 254.473 277.37 254.354Z" fill="white"/>
</g>
<g opacity="0.55">
<path d="M277.4 254.354C277.43 254.204 277.55 254.114 277.67 254.114L450.839 272.068C450.989 272.098 451.079 272.218 451.079 272.337C451.049 272.487 450.929 272.577 450.809 272.577L277.64 254.623C277.49 254.623 277.4 254.473 277.4 254.354Z" fill="white"/>
</g>
<g opacity="0.7">
<path d="M385.612 303.63C385.642 303.48 385.732 303.33 385.882 303.24L450.629 271.888C450.869 271.768 451.169 271.858 451.26 272.098C451.38 272.338 451.29 272.638 451.049 272.728L386.302 304.08C386.062 304.199 385.762 304.11 385.672 303.87C385.612 303.81 385.612 303.72 385.612 303.63Z" fill="white"/>
</g>
<path opacity="0.7" d="M12.1087 273.147C11.9286 274.855 10.3977 276.114 8.68677 275.934C6.97579 275.755 5.71505 274.226 5.89515 272.517C6.07525 270.809 7.60617 269.55 9.31715 269.73C11.0281 269.88 12.2888 271.408 12.1087 273.147Z" fill="white"/>
<path opacity="0.94" d="M94.9558 0.540092C94.7457 2.5483 92.9747 4.01697 90.9636 3.80716C88.9524 3.59735 87.4815 1.82892 87.6917 -0.179282C87.9018 -2.18749 89.6728 -3.65616 91.6839 -3.44635C93.6951 -3.26651 95.166 -1.46811 94.9558 0.540092Z" fill="white"/>
<path opacity="0.7" d="M24.926 319.366C24.7459 321.074 23.215 322.333 21.504 322.153C19.7931 321.973 18.5323 320.445 18.7124 318.736C18.8925 317.028 20.4234 315.769 22.1344 315.949C23.8453 316.099 25.1061 317.627 24.926 319.366Z" fill="white"/>
<path opacity="0.98" d="M111.886 81.7979C111.676 83.8061 109.905 85.2748 107.893 85.065C105.882 84.8552 104.411 83.0868 104.622 81.0786C104.832 79.0704 106.603 77.6016 108.614 77.8115C110.625 78.0213 112.066 79.7897 111.886 81.7979Z" fill="white"/>
<path d="M13.3694 78.8304C13.1593 80.8985 11.3282 82.4271 9.227 82.2173C7.15582 82.0075 5.62497 80.1792 5.83509 78.0811C6.04521 76.0129 7.87623 74.4843 9.97743 74.6941C12.0486 74.9039 13.5795 76.7323 13.3694 78.8304Z" fill="white"/>
<path d="M45.5478 175.045C45.3377 177.203 43.4166 178.761 41.2854 178.552C39.1242 178.342 37.5633 176.423 37.7734 174.295C37.9835 172.137 39.9046 170.579 42.0358 170.788C44.1971 170.998 45.7579 172.917 45.5478 175.045Z" fill="white"/>
<path d="M216.976 144.742C216.736 147.11 214.634 148.818 212.263 148.578C209.892 148.339 208.181 146.241 208.421 143.873C208.661 141.505 210.762 139.796 213.134 140.036C215.505 140.276 217.216 142.374 216.976 144.742Z" fill="white"/>
<path d="M74.0644 209.484C73.8242 211.762 71.7831 213.44 69.5018 213.2C67.2205 212.96 65.5395 210.922 65.7797 208.644C66.0198 206.366 68.0609 204.688 70.3422 204.928C72.6235 205.167 74.2745 207.206 74.0644 209.484Z" fill="white"/>
<path d="M83.4895 156.851C83.2494 159.219 81.1482 160.927 78.7768 160.687C76.4055 160.448 74.6945 158.349 74.9346 155.982C75.1747 153.614 77.276 151.905 79.6473 152.145C81.9887 152.385 83.6996 154.483 83.4895 156.851Z" fill="white"/>
<path d="M45.3074 195.936C45.0673 198.304 42.9661 200.012 40.5948 199.772C38.2234 199.533 36.5124 197.434 36.7526 195.067C36.9927 192.699 39.0939 190.99 41.4653 191.23C43.8066 191.47 45.5476 193.568 45.3074 195.936Z" fill="white"/>
<path d="M138.181 252.825C137.941 255.103 135.899 256.781 133.618 256.541C131.337 256.302 129.656 254.264 129.896 251.986C130.136 249.708 132.177 248.029 134.459 248.269C136.74 248.509 138.421 250.547 138.181 252.825Z" fill="white"/>
<path d="M51.0112 197.794C50.771 200.222 48.6098 201.99 46.1784 201.751C43.747 201.511 41.976 199.353 42.2161 196.925C42.4562 194.497 44.6175 192.729 47.0489 192.969C49.4803 193.208 51.2513 195.366 51.0112 197.794Z" fill="white"/>
<path d="M443.575 72.8361C443.305 75.6236 440.813 77.6618 438.022 77.392C435.23 77.1223 433.189 74.6345 433.459 71.847C433.729 69.0595 436.221 67.0213 439.012 67.2911C441.834 67.5908 443.875 70.0486 443.575 72.8361Z" fill="white"/>
<path d="M342.808 270.359C342.567 272.847 340.316 274.676 337.825 274.436C335.333 274.196 333.502 271.948 333.742 269.46C333.983 266.973 336.234 265.144 338.725 265.384C341.247 265.654 343.078 267.872 342.808 270.359Z" fill="white"/>
<path d="M228.202 368.911C227.932 371.489 225.651 373.377 223.069 373.108C220.488 372.838 218.597 370.56 218.867 367.982C219.137 365.404 221.418 363.516 224 363.786C226.581 364.026 228.442 366.334 228.202 368.911Z" fill="white"/>
<path d="M282.473 254.863C282.203 257.501 279.862 259.449 277.19 259.179C274.549 258.91 272.597 256.572 272.868 253.904C273.138 251.266 275.479 249.318 278.151 249.588C280.822 249.858 282.713 252.196 282.473 254.863Z" fill="white"/>
<path d="M333.622 27.3066C333.322 30.3039 330.651 32.492 327.649 32.1922C324.647 31.8925 322.456 29.2249 322.756 26.2276C323.056 23.2302 325.728 21.0422 328.73 21.3419C331.701 21.6416 333.923 24.3093 333.622 27.3066Z" fill="white"/>
<path d="M403.592 334.412C403.322 336.99 401.041 338.878 398.459 338.609C395.878 338.339 393.987 336.061 394.257 333.483C394.527 330.905 396.808 329.017 399.39 329.287C401.971 329.557 403.832 331.835 403.592 334.412Z" fill="white"/>
<path d="M455.912 272.817C455.642 275.605 453.151 277.643 450.359 277.373C447.567 277.103 445.526 274.615 445.796 271.828C446.066 269.04 448.558 267.002 451.349 267.272C454.141 267.542 456.182 270.03 455.912 272.817Z" fill="white"/>
<path d="M391.135 304.169C390.865 306.957 388.374 308.995 385.582 308.725C382.79 308.455 380.749 305.967 381.019 303.18C381.289 300.392 383.781 298.354 386.572 298.624C389.394 298.894 391.435 301.382 391.135 304.169Z" fill="white"/>
</g>
</g>
<defs>
<clipPath id="clip0_1002_523">
<rect x="1170" y="2" width="456" height="416" rx="32" transform="rotate(90 1170 2)" fill="white"/>
</clipPath>
<clipPath id="clip1_1002_523">
<rect x="485" width="458" height="485" rx="32" transform="rotate(90 485 0)" fill="white"/>
</clipPath>
</defs>
</svg>
